<?xml version="1.0" encoding="UTF-8"?><svg id="a" xmlns="http://www.w3.org/2000/svg" viewBox="0 0 757 294"><defs><style>.h{fill:#fff;}.i{fill:#3f6b71;}.j{fill:#1b8992;}.k{fill:#606060;}.l{fill:#506d8f;}.m{fill:#869fb2;}</style></defs><g><g><rect class="i" x="50.57" y="140.03" width="191.85" height="35.85"/><g><path class="h" d="M73.19,156.97h-.99v2.34h-1.59v-6.52h2.57c1.6,0,2.4,.9,2.4,2.1,0,1.08-.73,2.08-2.4,2.08Zm-.12-1.26c.63,0,.9-.32,.9-.82s-.27-.82-.9-.82h-.86v1.64h.86Z"/><path class="h" d="M79.09,152.79c1.6,0,2.4,.92,2.4,2.05,0,.82-.45,1.59-1.45,1.89l1.51,2.58h-1.79l-1.36-2.46h-.38v2.46h-1.59v-6.52h2.67Zm-.09,1.32h-.99v1.62h.99c.59,0,.87-.31,.87-.82,0-.48-.28-.8-.87-.8Z"/><path class="h" d="M85.56,159.38c-1.85,0-3.35-1.38-3.35-3.34s1.51-3.34,3.35-3.34,3.34,1.38,3.34,3.34-1.49,3.34-3.34,3.34Zm0-1.45c1.04,0,1.72-.75,1.72-1.9s-.68-1.9-1.72-1.9-1.73,.73-1.73,1.9,.67,1.9,1.73,1.9Z"/><path class="h" d="M92.82,159.31h-3.04v-6.52h2.94c1.33,0,2.12,.66,2.12,1.69,0,.79-.47,1.3-1.11,1.49,.76,.16,1.25,.83,1.25,1.57,0,1.08-.79,1.78-2.17,1.78Zm-.41-5.25h-1.04v1.37h1.04c.52,0,.81-.23,.81-.68s-.29-.69-.81-.69Zm.11,2.53h-1.15v1.44h1.17c.53,0,.84-.24,.84-.71s-.33-.73-.85-.73Z"/><path class="h" d="M97.5,152.79v5.3h2.08v1.23h-3.67v-6.52h1.59Z"/><path class="h" d="M104.34,154.06h-2.41v1.32h2.13v1.23h-2.13v1.43h2.41v1.27h-4v-6.52h4v1.27Z"/><path class="h" d="M105.37,152.79h1.88l1.83,4.52,1.81-4.52h1.87v6.52h-1.59v-3.91l-1.46,3.91h-1.28l-1.47-3.92v3.92h-1.59v-6.52Z"/><path class="h" d="M117.96,158.16h-2.44l-.39,1.15h-1.66l2.36-6.52h1.84l2.36,6.52h-1.68l-.39-1.15Zm-1.22-3.62l-.8,2.39h1.61l-.81-2.39Z"/><path class="h" d="M123.11,159.38c-1.4,0-2.5-.7-2.55-2.02h1.69c.05,.5,.36,.74,.81,.74s.76-.23,.76-.61c0-1.21-3.26-.56-3.24-2.87,0-1.24,1.01-1.92,2.38-1.92s2.38,.71,2.44,1.95h-1.72c-.03-.42-.33-.67-.75-.68-.38,0-.67,.19-.67,.59,0,1.13,3.22,.62,3.22,2.81,0,1.1-.85,2.01-2.38,2.01Z"/><path class="h" d="M132.43,154.06h-2.41v1.32h2.13v1.23h-2.13v1.43h2.41v1.27h-4v-6.52h4v1.27Z"/><path class="h" d="M141.3,156.05c0,1.93-1.34,3.26-3.42,3.26h-2.44v-6.52h2.44c2.08,0,3.42,1.32,3.42,3.26Zm-3.52,1.89c1.2,0,1.9-.69,1.9-1.89s-.71-1.91-1.9-1.91h-.75v3.79h.75Z"/><path class="h" d="M146.19,154.06h-2.41v1.32h2.13v1.23h-2.13v1.43h2.41v1.27h-4v-6.52h4v1.27Z"/><path class="h" d="M147.22,152.79h1.88l1.83,4.52,1.81-4.52h1.87v6.52h-1.59v-3.91l-1.46,3.91h-1.28l-1.47-3.92v3.92h-1.59v-6.52Z"/><path class="h" d="M159.81,158.16h-2.44l-.39,1.15h-1.66l2.36-6.52h1.84l2.36,6.52h-1.68l-.39-1.15Zm-1.22-3.62l-.8,2.39h1.61l-.81-2.39Z"/><path class="h" d="M168.43,152.79v6.52h-1.59l-2.66-4.02v4.02h-1.59v-6.52h1.59l2.66,4.04v-4.04h1.59Z"/><path class="h" d="M175.45,156.05c0,1.93-1.34,3.26-3.42,3.26h-2.44v-6.52h2.44c2.08,0,3.42,1.32,3.42,3.26Zm-3.52,1.89c1.2,0,1.9-.69,1.9-1.89s-.71-1.91-1.9-1.91h-.75v3.79h.75Z"/><path class="h" d="M180.4,158.16h-2.44l-.39,1.15h-1.66l2.36-6.52h1.84l2.36,6.52h-1.68l-.39-1.15Zm-1.22-3.62l-.8,2.39h1.61l-.81-2.39Z"/><path class="h" d="M185.55,159.38c-1.4,0-2.5-.7-2.55-2.02h1.69c.05,.5,.36,.74,.81,.74s.76-.23,.76-.61c0-1.21-3.26-.56-3.24-2.87,0-1.24,1.01-1.92,2.38-1.92s2.38,.71,2.44,1.95h-1.72c-.03-.42-.33-.67-.75-.68-.38,0-.67,.19-.67,.59,0,1.13,3.22,.62,3.22,2.81,0,1.1-.85,2.01-2.38,2.01Z"/><path class="h" d="M193.24,159.38c-1.4,0-2.5-.7-2.55-2.02h1.69c.05,.5,.36,.74,.81,.74s.76-.23,.76-.61c0-1.21-3.26-.56-3.24-2.87,0-1.24,1.01-1.92,2.38-1.92s2.38,.71,2.44,1.95h-1.72c-.03-.42-.33-.67-.75-.68-.38,0-.67,.19-.67,.59,0,1.13,3.22,.62,3.22,2.81,0,1.1-.85,2.01-2.38,2.01Z"/><path class="h" d="M199.68,159.38c-1.85,0-3.35-1.38-3.35-3.34s1.51-3.34,3.35-3.34,3.34,1.38,3.34,3.34-1.49,3.34-3.34,3.34Zm0-1.45c1.04,0,1.72-.75,1.72-1.9s-.68-1.9-1.72-1.9-1.73,.73-1.73,1.9,.67,1.9,1.73,1.9Z"/><path class="h" d="M206.91,152.72c1.55,0,2.72,.87,3.09,2.29h-1.75c-.27-.56-.76-.84-1.37-.84-.98,0-1.65,.72-1.65,1.88s.67,1.88,1.65,1.88c.6,0,1.1-.28,1.37-.84h1.75c-.37,1.41-1.54,2.28-3.09,2.28-1.92,0-3.28-1.37-3.28-3.32s1.36-3.33,3.28-3.33Z"/><path class="h" d="M210.98,152.79h1.59v6.52h-1.59v-6.52Z"/><path class="h" d="M217.78,158.16h-2.44l-.39,1.15h-1.66l2.36-6.52h1.84l2.36,6.52h-1.68l-.39-1.15Zm-1.22-3.62l-.8,2.39h1.61l-.81-2.39Z"/><path class="h" d="M220.57,152.79h1.59v6.52h-1.59v-6.52Z"/><path class="h" d="M225.67,159.38c-1.4,0-2.5-.7-2.55-2.02h1.69c.05,.5,.36,.74,.81,.74s.76-.23,.76-.61c0-1.21-3.26-.56-3.24-2.87,0-1.24,1.01-1.92,2.38-1.92s2.38,.71,2.44,1.95h-1.72c-.03-.42-.33-.67-.75-.68-.38,0-.67,.19-.67,.59,0,1.13,3.22,.62,3.22,2.81,0,1.1-.85,2.01-2.38,2.01Z"/></g></g><g id="b"><path class="m" d="M258.47,71.17l-4.85-4.85c-.36-.35-.36-.93,0-1.28h0c.36-.36,.94-.36,1.3,0l5.5,5.49c.35,.35,.36,.9,.03,1.26l-5.52,5.54c-.36,.36-.94,.36-1.3,0-.36-.36-.36-.94,0-1.3h0l4.85-4.86h0Z"/></g><g id="c"><path class="m" d="M148.87,198.36l4.85,4.85c.35,.36,.93,.36,1.28,0h0c.36-.37,.36-.95,0-1.31l-5.49-5.5c-.35-.35-.9-.36-1.26-.03l-5.54,5.52c-.36,.36-.36,.94,0,1.3,.36,.36,.94,.36,1.3,0h0l4.85-4.85h0Z"/></g><g id="d"><path class="m" d="M495.48,69.38l-4.85-4.85c-.36-.35-.36-.93,0-1.28h0c.36-.36,.94-.36,1.3,0l5.5,5.49c.35,.35,.36,.9,.03,1.26l-5.52,5.54c-.36,.36-.94,.36-1.3,0-.36-.36-.36-.94,0-1.3h0l4.85-4.86h0Z"/></g><g id="e"><path class="m" d="M492.57,236.63l4.85-4.85c.36-.35,.36-.93,0-1.28h0c-.36-.36-.94-.36-1.3,0l-5.5,5.49c-.35,.35-.36,.9-.03,1.26l5.52,5.54c.36,.36,.94,.36,1.3,0,.36-.36,.36-.94,0-1.3h0l-4.85-4.86h0Z"/></g><g id="f"><path class="m" d="M604.55,112.46l4.85-4.85c.35-.36,.93-.36,1.28,0h0c.36,.37,.36,.95,0,1.31l-5.49,5.5c-.35,.35-.9,.36-1.26,.03l-5.54-5.52c-.36-.36-.36-.94,0-1.3,.36-.36,.94-.36,1.3,0h0l4.85,4.85h0Z"/></g><g id="g"><path class="m" d="M604.55,196.22l4.85-4.85c.35-.36,.93-.36,1.28,0h0c.36,.37,.36,.95,0,1.31l-5.49,5.5c-.35,.35-.9,.36-1.26,.03l-5.54-5.52c-.36-.36-.36-.94,0-1.3,.36-.36,.94-.36,1.3,0h0l4.85,4.85h0Z"/></g><polygon class="m" points="150.36 128.27 147.36 128.27 147.36 69.64 244.79 69.64 244.79 72.64 150.36 72.64 150.36 128.27"/><polygon class="m" points="244.79 239.78 147.36 239.78 147.36 205.74 150.36 205.74 150.36 236.78 244.79 236.78 244.79 239.78"/><g><g><rect class="l" x="280.77" y="37.68" width="191.85" height="67.05"/><g><path class="h" d="M309.63,64.7c1.52,0,2.25,.85,2.25,1.91,0,.83-.46,1.62-1.54,1.86l1.63,2.71h-1.01l-1.54-2.65h-1.02v2.65h-.85v-6.48h2.09Zm0,.7h-1.25v2.45h1.25c.96,0,1.38-.52,1.38-1.25s-.41-1.21-1.38-1.21Z"/><path class="h" d="M315.39,71.26c-1.45,0-2.52-1.02-2.52-2.64s1.03-2.62,2.52-2.62,2.44,1.04,2.44,2.43c0,.19,0,.33-.03,.51h-4.07c.06,1.03,.79,1.6,1.65,1.6,.76,0,1.25-.39,1.43-.94h.91c-.26,.93-1.08,1.65-2.34,1.65Zm-1.65-3h3.22c0-.99-.73-1.54-1.61-1.54-.83,0-1.51,.55-1.61,1.54Z"/><path class="h" d="M321.12,66.01c1.26,0,2.09,.65,2.35,1.72h-.91c-.18-.61-.69-1-1.44-1-.93,0-1.62,.66-1.62,1.9s.69,1.92,1.62,1.92c.75,0,1.25-.36,1.44-1h.91c-.26,1.01-1.09,1.72-2.35,1.72-1.45,0-2.48-1.02-2.48-2.64s1.03-2.62,2.48-2.62Z"/><path class="h" d="M326.81,71.26c-1.44,0-2.54-1.02-2.54-2.64s1.13-2.62,2.57-2.62,2.57,1.01,2.57,2.62-1.16,2.64-2.61,2.64Zm0-.74c.88,0,1.75-.6,1.75-1.9s-.85-1.89-1.72-1.89-1.7,.6-1.7,1.89,.79,1.9,1.67,1.9Z"/><path class="h" d="M334.27,68.3c0-1.04-.57-1.57-1.42-1.57s-1.46,.54-1.46,1.64v2.82h-.85v-5.09h.85v.72c.33-.53,.95-.82,1.64-.82,1.18,0,2.08,.72,2.08,2.18v3h-.84v-2.88Z"/><path class="h" d="M336.49,64.3h.85v2.52c.33-.54,.97-.83,1.68-.83,1.13,0,2.04,.72,2.04,2.18v3h-.84v-2.88c0-1.04-.57-1.57-1.42-1.57s-1.46,.54-1.46,1.64v2.82h-.85v-6.88Z"/><path class="h" d="M344.64,71.26c-1.45,0-2.52-1.02-2.52-2.64s1.03-2.62,2.52-2.62,2.44,1.04,2.44,2.43c0,.19,0,.33-.03,.51h-4.07c.06,1.03,.79,1.6,1.65,1.6,.76,0,1.25-.39,1.43-.94h.91c-.26,.93-1.08,1.65-2.34,1.65Zm-1.65-3h3.22c0-.99-.73-1.54-1.61-1.54-.83,0-1.51,.55-1.61,1.54Z"/><path class="h" d="M350.36,66.01c1.26,0,2.09,.65,2.35,1.72h-.91c-.18-.61-.69-1-1.44-1-.93,0-1.62,.66-1.62,1.9s.69,1.92,1.62,1.92c.75,0,1.25-.36,1.44-1h.91c-.26,1.01-1.09,1.72-2.35,1.72-1.45,0-2.48-1.02-2.48-2.64s1.03-2.62,2.48-2.62Z"/><path class="h" d="M353.7,64.69c0-.33,.25-.58,.58-.58,.31,0,.56,.25,.56,.58s-.25,.58-.56,.58c-.33,0-.58-.25-.58-.58Zm.14,1.4h.85v5.09h-.85v-5.09Z"/><path class="h" d="M363.47,68.3c0-1.04-.56-1.57-1.39-1.57s-1.44,.55-1.44,1.65v2.81h-.84v-2.88c0-1.04-.56-1.57-1.39-1.57s-1.44,.55-1.44,1.65v2.81h-.85v-5.09h.85v.73c.33-.54,.94-.83,1.61-.83,.84,0,1.53,.37,1.87,1.13,.3-.73,1.02-1.13,1.8-1.13,1.16,0,2.06,.72,2.06,2.18v3h-.84v-2.88Z"/><path class="h" d="M367.9,71.26c-1.45,0-2.52-1.02-2.52-2.64s1.03-2.62,2.52-2.62,2.44,1.04,2.44,2.43c0,.19,0,.33-.03,.51h-4.07c.06,1.03,.79,1.6,1.65,1.6,.76,0,1.25-.39,1.43-.94h.91c-.26,.93-1.08,1.65-2.34,1.65Zm-1.65-3h3.22c0-.99-.73-1.54-1.61-1.54-.83,0-1.51,.55-1.61,1.54Z"/><path class="h" d="M375.18,68.3c0-1.04-.57-1.57-1.42-1.57s-1.46,.54-1.46,1.64v2.82h-.85v-5.09h.85v.72c.33-.53,.95-.82,1.64-.82,1.18,0,2.08,.72,2.08,2.18v3h-.84v-2.88Z"/><path class="h" d="M377.59,66.79h-.66v-.7h.66v-1.28h.85v1.28h1.33v.7h-1.33v3c0,.5,.19,.68,.71,.68h.62v.72h-.76c-.9,0-1.41-.37-1.41-1.39v-3Z"/><path class="h" d="M383.01,71.26c-1.44,0-2.54-1.02-2.54-2.64s1.13-2.62,2.57-2.62,2.57,1.01,2.57,2.62-1.16,2.64-2.61,2.64Zm0-.74c.88,0,1.75-.6,1.75-1.9s-.85-1.89-1.72-1.89-1.7,.6-1.7,1.89,.79,1.9,1.67,1.9Z"/><path class="h" d="M402.19,66.01c.8,0,1.53,.41,1.89,.99v-2.69h.86v6.88h-.86v-.96c-.31,.57-.97,1.04-1.9,1.04-1.37,0-2.42-1.07-2.42-2.65s1.05-2.61,2.43-2.61Zm.16,.73c-.93,0-1.72,.68-1.72,1.88s.79,1.91,1.72,1.91,1.73-.7,1.73-1.9-.8-1.89-1.73-1.89Z"/><path class="h" d="M408.57,71.26c-1.45,0-2.52-1.02-2.52-2.64s1.03-2.62,2.52-2.62,2.44,1.04,2.44,2.43c0,.19,0,.33-.03,.51h-4.07c.06,1.03,.79,1.6,1.65,1.6,.76,0,1.25-.39,1.43-.94h.91c-.26,.93-1.08,1.65-2.34,1.65Zm-1.65-3h3.22c0-.99-.73-1.54-1.61-1.54-.83,0-1.51,.55-1.61,1.54Z"/><path class="h" d="M429.99,71.18h-.85v-.75c-.33,.53-.95,.83-1.63,.83-1.17,0-2.09-.72-2.09-2.18v-2.98h.84v2.87c0,1.03,.57,1.56,1.42,1.56s1.46-.54,1.46-1.64v-2.8h.85v5.09Z"/><path class="h" d="M438.77,68.3c0-1.04-.56-1.57-1.39-1.57s-1.44,.55-1.44,1.65v2.81h-.84v-2.88c0-1.04-.56-1.57-1.39-1.57s-1.44,.55-1.44,1.65v2.81h-.85v-5.09h.85v.73c.33-.54,.94-.83,1.61-.83,.84,0,1.53,.37,1.87,1.13,.3-.73,1.02-1.13,1.8-1.13,1.16,0,2.06,.72,2.06,2.18v3h-.84v-2.88Z"/><path class="h" d="M443.09,66.01c.95,0,1.6,.48,1.9,1.01v-.93h.86v5.09h-.86v-.95c-.31,.55-.97,1.03-1.9,1.03-1.36,0-2.41-1.07-2.41-2.65s1.05-2.61,2.42-2.61Zm.17,.73c-.93,0-1.72,.68-1.72,1.88s.79,1.91,1.72,1.91,1.73-.7,1.73-1.9-.8-1.89-1.73-1.89Z"/><path class="h" d="M309.65,77.16c.93,0,1.6,.48,1.89,1.01v-.93h.85v7.51h-.85v-3.35c-.29,.52-.97,1.02-1.91,1.02-1.35,0-2.4-1.07-2.4-2.65s1.05-2.61,2.43-2.61Zm.16,.73c-.93,0-1.72,.68-1.72,1.88s.79,1.91,1.72,1.91,1.73-.7,1.73-1.9-.8-1.89-1.73-1.89Z"/><path class="h" d="M318.34,82.33h-.85v-.75c-.33,.53-.95,.83-1.63,.83-1.17,0-2.09-.72-2.09-2.18v-2.98h.84v2.87c0,1.03,.57,1.56,1.42,1.56s1.46-.54,1.46-1.64v-2.8h.85v5.09Z"/><path class="h" d="M321.97,82.42c-1.45,0-2.52-1.02-2.52-2.64s1.03-2.62,2.52-2.62,2.44,1.04,2.44,2.43c0,.19,0,.33-.03,.51h-4.07c.06,1.03,.79,1.6,1.65,1.6,.76,0,1.25-.39,1.43-.94h.91c-.26,.93-1.08,1.65-2.34,1.65Zm-1.65-3h3.22c0-.99-.73-1.54-1.61-1.54-.83,0-1.51,.55-1.61,1.54Z"/><path class="h" d="M327.33,82.42c-1.19,0-2.03-.65-2.08-1.58h.87c.05,.49,.48,.86,1.2,.86,.67,0,1.04-.33,1.04-.75,0-1.13-3.01-.47-3.01-2.37,0-.78,.73-1.42,1.87-1.42s1.87,.6,1.92,1.6h-.85c-.04-.51-.43-.88-1.11-.88-.62,0-.99,.3-.99,.71,0,1.21,2.96,.55,2.99,2.37,0,.84-.73,1.47-1.86,1.47Z"/><path class="h" d="M330.57,77.94h-.66v-.7h.66v-1.28h.85v1.28h1.33v.7h-1.33v3c0,.5,.19,.68,.71,.68h.62v.72h-.76c-.9,0-1.41-.37-1.41-1.39v-3Z"/><path class="h" d="M335.86,77.16c.95,0,1.6,.48,1.9,1.01v-.93h.85v5.09h-.85v-.95c-.31,.55-.97,1.03-1.91,1.03-1.36,0-2.41-1.07-2.41-2.65s1.05-2.61,2.42-2.61Zm.17,.73c-.93,0-1.72,.68-1.72,1.88s.79,1.91,1.72,1.91,1.73-.7,1.73-1.9-.8-1.89-1.73-1.89Zm-.27-2.17c.49,0,.68,.43,1.06,.43,.2,0,.37-.13,.41-.4h.48c-.07,.63-.45,.97-.93,.97s-.69-.43-1.06-.43c-.2,0-.36,.13-.4,.41h-.49c.09-.64,.45-.98,.93-.98Z"/><path class="h" d="M342.27,82.42c-1.44,0-2.54-1.02-2.54-2.64s1.13-2.62,2.57-2.62,2.57,1.01,2.57,2.62-1.16,2.64-2.61,2.64Zm0-.74c.88,0,1.75-.6,1.75-1.9s-.85-1.89-1.72-1.89-1.7,.6-1.7,1.89,.79,1.9,1.67,1.9Z"/><path class="h" d="M352.34,77.16c.93,0,1.6,.48,1.89,1.01v-.93h.85v7.51h-.85v-3.35c-.29,.52-.97,1.02-1.91,1.02-1.35,0-2.4-1.07-2.4-2.65s1.05-2.61,2.43-2.61Zm.16,.73c-.93,0-1.72,.68-1.72,1.88s.79,1.91,1.72,1.91,1.73-.7,1.73-1.9-.8-1.89-1.73-1.89Z"/><path class="h" d="M361.03,82.33h-.85v-.75c-.33,.53-.95,.83-1.63,.83-1.17,0-2.09-.72-2.09-2.18v-2.98h.84v2.87c0,1.03,.57,1.56,1.42,1.56s1.46-.54,1.46-1.64v-2.8h.85v5.09Z"/><path class="h" d="M364.67,82.42c-1.45,0-2.52-1.02-2.52-2.64s1.03-2.62,2.52-2.62,2.44,1.04,2.44,2.43c0,.19,0,.33-.03,.51h-4.07c.06,1.03,.79,1.6,1.65,1.6,.76,0,1.25-.39,1.43-.94h.91c-.26,.93-1.08,1.65-2.34,1.65Zm-1.65-3h3.22c0-.99-.73-1.54-1.61-1.54-.83,0-1.51,.55-1.61,1.54Z"/><path class="h" d="M374.58,77.16c.8,0,1.53,.41,1.89,.99v-2.69h.85v6.88h-.85v-.96c-.31,.57-.97,1.04-1.9,1.04-1.37,0-2.42-1.07-2.42-2.65s1.05-2.61,2.43-2.61Zm.16,.73c-.93,0-1.72,.68-1.72,1.88s.79,1.91,1.72,1.91,1.73-.7,1.73-1.9-.8-1.89-1.73-1.89Z"/><path class="h" d="M380.95,82.42c-1.45,0-2.52-1.02-2.52-2.64s1.03-2.62,2.52-2.62,2.44,1.04,2.44,2.43c0,.19,0,.33-.03,.51h-4.07c.06,1.03,.79,1.6,1.65,1.6,.76,0,1.25-.39,1.43-.94h.91c-.26,.93-1.08,1.65-2.34,1.65Zm-1.64-3h3.21c0-.99-.73-1.54-1.61-1.54-.83,0-1.51,.55-1.61,1.54Z"/><path class="h" d="M391.86,79.45c0-1.04-.56-1.57-1.39-1.57s-1.44,.55-1.44,1.65v2.81h-.84v-2.88c0-1.04-.56-1.57-1.39-1.57s-1.44,.55-1.44,1.65v2.81h-.85v-5.09h.85v.73c.33-.54,.94-.83,1.61-.83,.84,0,1.53,.37,1.87,1.13,.3-.73,1.02-1.13,1.8-1.13,1.16,0,2.06,.72,2.06,2.18v3h-.84v-2.88Z"/><path class="h" d="M396.18,77.16c.95,0,1.6,.48,1.9,1.01v-.93h.86v5.09h-.86v-.95c-.31,.55-.97,1.03-1.91,1.03-1.36,0-2.41-1.07-2.41-2.65s1.05-2.61,2.42-2.61Zm.17,.73c-.93,0-1.72,.68-1.72,1.88s.79,1.91,1.72,1.91,1.73-.7,1.73-1.9-.8-1.89-1.73-1.89Z"/><path class="h" d="M404.09,79.45c0-1.04-.57-1.57-1.42-1.57s-1.46,.54-1.46,1.64v2.82h-.85v-5.09h.85v.72c.33-.53,.95-.82,1.64-.82,1.18,0,2.08,.72,2.08,2.18v3h-.84v-2.88Z"/><path class="h" d="M408.42,77.16c.8,0,1.53,.41,1.89,.99v-2.69h.85v6.88h-.85v-.96c-.31,.57-.97,1.04-1.9,1.04-1.37,0-2.42-1.07-2.42-2.65s1.05-2.61,2.43-2.61Zm.16,.73c-.93,0-1.72,.68-1.72,1.88s.79,1.91,1.72,1.91,1.73-.7,1.73-1.9-.8-1.89-1.73-1.89Z"/><path class="h" d="M414.69,77.16c.95,0,1.6,.48,1.9,1.01v-.93h.85v5.09h-.85v-.95c-.31,.55-.97,1.03-1.91,1.03-1.36,0-2.41-1.07-2.41-2.65s1.05-2.61,2.42-2.61Zm.17,.73c-.93,0-1.72,.68-1.72,1.88s.79,1.91,1.72,1.91,1.73-.7,1.73-1.9-.8-1.89-1.73-1.89Z"/><path class="h" d="M425.22,77.16c.95,0,1.6,.48,1.9,1.01v-.93h.85v5.09h-.85v-.95c-.31,.55-.97,1.03-1.91,1.03-1.36,0-2.41-1.07-2.41-2.65s1.05-2.61,2.42-2.61Zm.17,.73c-.93,0-1.72,.68-1.72,1.88s.79,1.91,1.72,1.91,1.73-.7,1.73-1.9-.8-1.89-1.73-1.89Z"/><path class="h" d="M431.57,77.16c1.26,0,2.09,.65,2.35,1.72h-.91c-.18-.61-.69-1-1.44-1-.93,0-1.62,.66-1.62,1.9s.69,1.92,1.62,1.92c.75,0,1.25-.36,1.44-1h.91c-.24,.94-.98,1.62-2.09,1.71v.46c.72,0,1.2,.31,1.2,.92s-.47,.96-1.13,.96h-1.07v-.55h.9c.4,0,.59-.11,.59-.41s-.2-.4-.59-.4h-.46v-.99c-1.28-.13-2.17-1.12-2.17-2.62,0-1.6,1.03-2.62,2.48-2.62Z"/><path class="h" d="M437.14,77.16c.95,0,1.6,.48,1.9,1.01v-.93h.86v5.09h-.86v-.95c-.31,.55-.97,1.03-1.9,1.03-1.36,0-2.41-1.07-2.41-2.65s1.05-2.61,2.42-2.61Zm.17,.73c-.93,0-1.72,.68-1.72,1.88s.79,1.91,1.72,1.91,1.73-.7,1.73-1.9-.8-1.89-1.73-1.89Zm-.27-2.17c.49,0,.68,.43,1.06,.43,.21,0,.37-.13,.41-.4h.48c-.07,.63-.45,.97-.93,.97s-.69-.43-1.06-.43c-.21,0-.36,.13-.4,.41h-.49c.09-.64,.45-.98,.93-.98Z"/><path class="h" d="M443.55,82.42c-1.44,0-2.54-1.02-2.54-2.64s1.13-2.62,2.57-2.62,2.57,1.01,2.57,2.62-1.16,2.64-2.61,2.64Zm0-.74c.88,0,1.75-.6,1.75-1.9s-.85-1.89-1.72-1.89-1.7,.6-1.7,1.89,.79,1.9,1.67,1.9Z"/><path class="h" d="M310.29,88.31c1.37,0,2.42,1.02,2.42,2.61s-1.05,2.65-2.42,2.65c-.93,0-1.59-.5-1.91-1.02v3.35h-.85v-7.51h.85v.94c.31-.54,.98-1.02,1.91-1.02Zm-.18,.73c-.92,0-1.73,.71-1.73,1.89s.81,1.9,1.73,1.9,1.73-.71,1.73-1.91-.79-1.88-1.73-1.88Z"/><path class="h" d="M314.66,93.49h-.85v-5.09h.85v.83c.29-.57,.84-.92,1.65-.92v.87h-.22c-.81,0-1.42,.36-1.42,1.54v2.77Z"/><path class="h" d="M317.15,86.99c0-.33,.25-.58,.58-.58,.31,0,.56,.25,.56,.58s-.25,.58-.56,.58c-.33,0-.58-.25-.58-.58Zm.14,1.4h.85v5.09h-.85v-5.09Z"/><path class="h" d="M321.79,93.57c-1.44,0-2.54-1.02-2.54-2.64s1.13-2.62,2.57-2.62,2.57,1.01,2.57,2.62-1.16,2.64-2.61,2.64Zm0-.74c.88,0,1.75-.6,1.75-1.9s-.85-1.89-1.72-1.89-1.7,.6-1.7,1.89,.79,1.9,1.67,1.9Z"/><path class="h" d="M326.37,93.49h-.85v-5.09h.85v.83c.29-.57,.84-.92,1.65-.92v.87h-.22c-.81,0-1.42,.36-1.42,1.54v2.77Z"/><path class="h" d="M328.85,86.99c0-.33,.25-.58,.58-.58,.31,0,.56,.25,.56,.58s-.25,.58-.56,.58c-.33,0-.58-.25-.58-.58Zm.14,1.4h.85v5.09h-.85v-5.09Z"/><path class="h" d="M331.46,89.09h-.66v-.7h.66v-1.28h.85v1.28h1.33v.7h-1.33v3c0,.5,.19,.68,.71,.68h.62v.72h-.76c-.9,0-1.41-.37-1.41-1.39v-3Z"/><path class="h" d="M336.75,88.31c.95,0,1.6,.48,1.9,1.01v-.93h.85v5.09h-.85v-.95c-.31,.55-.97,1.03-1.91,1.03-1.36,0-2.41-1.07-2.41-2.65s1.05-2.61,2.42-2.61Zm.17,.73c-.93,0-1.72,.68-1.72,1.88s.79,1.91,1.72,1.91,1.73-.7,1.73-1.9-.8-1.89-1.73-1.89Zm1.07-2.82v.73l-1.98,1.06v-.63l1.98-1.16Z"/><path class="h" d="M341.78,93.49h-.85v-5.09h.85v.83c.29-.57,.84-.92,1.65-.92v.87h-.22c-.81,0-1.42,.36-1.42,1.54v2.77Z"/><path class="h" d="M344.26,86.99c0-.33,.25-.58,.58-.58,.31,0,.56,.25,.56,.58s-.25,.58-.56,.58c-.33,0-.58-.25-.58-.58Zm.14,1.4h.85v5.09h-.85v-5.09Z"/><path class="h" d="M348.79,88.31c.95,0,1.6,.48,1.9,1.01v-.93h.85v5.09h-.85v-.95c-.31,.55-.97,1.03-1.91,1.03-1.36,0-2.41-1.07-2.41-2.65s1.05-2.61,2.42-2.61Zm.17,.73c-.93,0-1.72,.68-1.72,1.88s.79,1.91,1.72,1.91,1.73-.7,1.73-1.9-.8-1.89-1.73-1.89Z"/><path class="h" d="M353.24,93.54c-.33,0-.58-.25-.58-.58s.25-.58,.58-.58c.31,0,.56,.25,.56,.58s-.25,.58-.56,.58Z"/></g></g><g><path class="h" d="M333.6,51.99c0,1.96-1.35,3.23-3.42,3.23h-2.27v-6.49h2.27c2.07,0,3.42,1.28,3.42,3.25Zm-3.47,2.13c1.37,0,2.14-.78,2.14-2.13s-.77-2.16-2.14-2.16h-.92v4.28h.92Z"/><path class="h" d="M336.82,55.31c-1.5,0-2.58-1.04-2.58-2.66s1.06-2.66,2.58-2.66,2.54,1.01,2.54,2.55c0,.17,0,.33-.04,.5h-3.76c.07,.76,.59,1.19,1.24,1.19,.56,0,.86-.28,1.03-.62h1.4c-.28,.95-1.13,1.7-2.41,1.7Zm-1.25-3.14h2.44c-.02-.68-.56-1.11-1.23-1.11-.62,0-1.12,.4-1.22,1.11Z"/><path class="h" d="M340.45,51.14h-.59v-1.07h.59v-.26c0-1.26,.72-1.85,2.17-1.81v1.1c-.63-.02-.85,.19-.85,.76v.21h.9v1.07h-.9v4.08h-1.32v-4.08Z"/><path class="h" d="M343.37,48.7c0-.43,.33-.76,.8-.76s.8,.33,.8,.76-.34,.76-.8,.76-.8-.33-.8-.76Zm.14,1.38h1.3v5.15h-1.3v-5.15Z"/><path class="h" d="M349.7,52.38c0-.83-.46-1.27-1.14-1.27s-1.16,.45-1.16,1.27v2.84h-1.3v-5.15h1.3v.64c.33-.44,.89-.72,1.55-.72,1.2,0,2.05,.78,2.05,2.2v3.02h-1.3v-2.84Z"/><path class="h" d="M352.1,48.7c0-.43,.33-.76,.8-.76s.8,.33,.8,.76-.34,.76-.8,.76-.8-.33-.8-.76Zm.14,1.38h1.3v5.15h-1.3v-5.15Z"/><path class="h" d="M357.03,49.99c1.28,0,2.15,.67,2.43,1.82h-1.4c-.15-.44-.49-.72-1.03-.72-.73,0-1.21,.55-1.21,1.55s.48,1.54,1.21,1.54c.54,0,.87-.24,1.03-.71h1.4c-.25,.98-.97,1.66-2.04,1.79v.36c.62,0,1.21,.32,1.21,1.01s-.59,1.04-1.24,1.04h-1.32v-.76h1.11c.28,0,.46-.06,.46-.3s-.18-.29-.46-.29h-.58v-1.07c-1.25-.19-2.12-1.17-2.12-2.63,0-1.62,1.06-2.66,2.55-2.66Z"/><path class="h" d="M362.43,49.99c.83,0,1.39,.39,1.7,.82v-.73h1.31v5.15h-1.31v-.75c-.31,.45-.89,.84-1.71,.84-1.3,0-2.34-1.07-2.34-2.68s1.04-2.64,2.35-2.64Zm0-1.63c.53,0,.77,.41,1.14,.41,.21,0,.36-.12,.4-.4h.7c-.12,.85-.56,1.22-1.15,1.22-.53,0-.77-.42-1.14-.42-.21,0-.36,.13-.41,.41h-.69c.12-.85,.56-1.22,1.15-1.22Zm.34,2.77c-.7,0-1.36,.52-1.36,1.5s.66,1.53,1.36,1.53,1.37-.54,1.37-1.51-.65-1.51-1.37-1.51Z"/><path class="h" d="M369,55.31c-1.49,0-2.61-1.04-2.61-2.66s1.16-2.66,2.65-2.66,2.65,1.03,2.65,2.66-1.19,2.66-2.69,2.66Zm0-1.13c.69,0,1.35-.5,1.35-1.52s-.64-1.52-1.33-1.52-1.31,.49-1.31,1.52,.59,1.52,1.29,1.52Z"/><path class="h" d="M376.89,49.99c.68,0,1.33,.32,1.68,.8v-2.44h1.32v6.88h-1.32v-.76c-.31,.47-.88,.85-1.69,.85-1.31,0-2.35-1.07-2.35-2.68s1.04-2.64,2.36-2.64Zm.33,1.14c-.7,0-1.36,.52-1.36,1.5s.66,1.53,1.36,1.53,1.37-.54,1.37-1.51-.65-1.51-1.37-1.51Z"/><path class="h" d="M383.18,49.99c.83,0,1.39,.39,1.7,.82v-.73h1.31v5.15h-1.31v-.75c-.31,.45-.89,.84-1.71,.84-1.3,0-2.34-1.07-2.34-2.68s1.04-2.64,2.35-2.64Zm.33,1.14c-.7,0-1.36,.52-1.36,1.5s.66,1.53,1.36,1.53,1.37-.54,1.37-1.51-.65-1.51-1.37-1.51Z"/><path class="h" d="M391.69,49.99c.83,0,1.39,.39,1.7,.82v-.73h1.31v5.15h-1.31v-.75c-.31,.45-.89,.84-1.71,.84-1.3,0-2.34-1.07-2.34-2.68s1.04-2.64,2.35-2.64Zm.33,1.14c-.7,0-1.36,.52-1.36,1.5s.66,1.53,1.36,1.53,1.37-.54,1.37-1.51-.65-1.51-1.37-1.51Z"/><path class="h" d="M397.99,49.99c.81,0,1.39,.37,1.7,.82v-.73h1.31v5.19c0,1.39-.86,2.5-2.55,2.5-1.45,0-2.46-.73-2.59-1.91h1.29c.13,.46,.61,.77,1.26,.77,.72,0,1.27-.41,1.27-1.37v-.8c-.31,.45-.89,.85-1.7,.85-1.31,0-2.35-1.07-2.35-2.68s1.04-2.64,2.35-2.64Zm.33,1.14c-.7,0-1.36,.52-1.36,1.5s.66,1.53,1.36,1.53,1.37-.54,1.37-1.51-.65-1.51-1.37-1.51Z"/><path class="h" d="M404.52,55.31c-1.5,0-2.58-1.04-2.58-2.66s1.06-2.66,2.58-2.66,2.54,1.01,2.54,2.55c0,.17,0,.33-.04,.5h-3.76c.07,.76,.58,1.19,1.24,1.19,.56,0,.86-.28,1.03-.62h1.4c-.28,.95-1.13,1.7-2.41,1.7Zm-1.25-3.14h2.44c-.02-.68-.56-1.11-1.23-1.11-.62,0-1.12,.4-1.22,1.11Z"/><path class="h" d="M411.61,52.38c0-.83-.46-1.27-1.14-1.27s-1.16,.45-1.16,1.27v2.84h-1.3v-5.15h1.3v.64c.33-.44,.89-.72,1.55-.72,1.2,0,2.05,.78,2.05,2.2v3.02h-1.3v-2.84Z"/><path class="h" d="M416.18,49.99c.68,0,1.33,.32,1.68,.8v-2.44h1.32v6.88h-1.32v-.76c-.31,.47-.88,.85-1.69,.85-1.31,0-2.35-1.07-2.35-2.68s1.04-2.64,2.36-2.64Zm.33,1.14c-.7,0-1.36,.52-1.36,1.5s.66,1.53,1.36,1.53,1.37-.54,1.37-1.51-.65-1.51-1.37-1.51Z"/><path class="h" d="M422.47,49.99c.83,0,1.39,.39,1.7,.82v-.73h1.31v5.15h-1.31v-.75c-.31,.45-.89,.84-1.71,.84-1.3,0-2.34-1.07-2.34-2.68s1.04-2.64,2.35-2.64Zm.33,1.14c-.7,0-1.36,.52-1.36,1.5s.66,1.53,1.36,1.53,1.37-.54,1.37-1.51-.65-1.51-1.37-1.51Z"/></g></g><g><rect class="l" x="280.77" y="218.72" width="191.85" height="35.85"/><g><path class="h" d="M354.79,229.55h-2.58l-.43,1.24h-1.37l2.33-6.5h1.51l2.33,6.5h-1.38l-.43-1.24Zm-1.29-3.75l-.94,2.71h1.88l-.94-2.71Z"/><path class="h" d="M358.31,225.64l1.3,3.95,1.3-3.95h1.38l-1.9,5.15h-1.58l-1.9-5.15h1.39Z"/><path class="h" d="M365.05,225.56c.83,0,1.39,.39,1.7,.82v-.73h1.31v5.15h-1.31v-.75c-.31,.45-.89,.84-1.71,.84-1.3,0-2.34-1.07-2.34-2.68s1.04-2.64,2.35-2.64Zm.33,1.14c-.7,0-1.36,.52-1.36,1.5s.66,1.53,1.36,1.53,1.37-.54,1.37-1.51-.65-1.51-1.37-1.51Z"/><path class="h" d="M369.33,223.91h1.3v6.88h-1.3v-6.88Z"/><path class="h" d="M371.78,224.27c0-.43,.33-.76,.8-.76s.8,.33,.8,.76-.34,.76-.8,.76-.8-.33-.8-.76Zm.14,1.38h1.3v5.15h-1.3v-5.15Z"/><path class="h" d="M376.52,225.56c.83,0,1.39,.39,1.7,.82v-.73h1.31v5.15h-1.31v-.75c-.31,.45-.89,.84-1.71,.84-1.3,0-2.34-1.07-2.34-2.68s1.04-2.64,2.35-2.64Zm.33,1.14c-.7,0-1.36,.52-1.36,1.5s.66,1.53,1.36,1.53,1.37-.54,1.37-1.51-.65-1.51-1.37-1.51Z"/><path class="h" d="M383.01,225.56c1.28,0,2.15,.67,2.42,1.82h-1.4c-.15-.44-.49-.72-1.03-.72-.72,0-1.21,.55-1.21,1.55s.48,1.54,1.21,1.54c.54,0,.87-.24,1.03-.71h1.4c-.25,.98-.97,1.66-2.04,1.79v.36c.62,0,1.21,.32,1.21,1.01s-.58,1.04-1.24,1.04h-1.32v-.76h1.11c.28,0,.46-.07,.46-.3s-.18-.29-.46-.29h-.58v-1.07c-1.25-.19-2.12-1.17-2.12-2.63,0-1.62,1.06-2.66,2.55-2.66Z"/><path class="h" d="M388.41,225.56c.83,0,1.39,.39,1.7,.82v-.73h1.31v5.15h-1.31v-.75c-.31,.45-.89,.84-1.71,.84-1.3,0-2.34-1.07-2.34-2.68s1.04-2.64,2.35-2.64Zm0-1.63c.53,0,.77,.41,1.14,.41,.21,0,.36-.12,.4-.4h.7c-.12,.85-.56,1.22-1.15,1.22-.53,0-.77-.42-1.14-.42-.21,0-.36,.13-.41,.41h-.69c.12-.85,.56-1.22,1.15-1.22Zm.34,2.77c-.7,0-1.36,.52-1.36,1.5s.66,1.53,1.36,1.53,1.37-.54,1.37-1.51-.65-1.51-1.37-1.51Z"/><path class="h" d="M394.98,230.87c-1.49,0-2.61-1.04-2.61-2.66s1.16-2.66,2.65-2.66,2.65,1.03,2.65,2.66-1.19,2.66-2.69,2.66Zm0-1.13c.69,0,1.35-.5,1.35-1.52s-.64-1.52-1.33-1.52-1.31,.49-1.31,1.52,.59,1.52,1.29,1.52Z"/></g><g><path class="h" d="M305.16,243.64h-2.82l-.52,1.44h-.89l2.34-6.44h.98l2.33,6.44h-.89l-.52-1.44Zm-1.41-3.96l-1.17,3.27h2.34l-1.17-3.27Z"/><path class="h" d="M311.33,242.2c0-1.04-.57-1.57-1.42-1.57s-1.46,.54-1.46,1.64v2.82h-.85v-5.09h.85v.73c.33-.53,.95-.82,1.64-.82,1.18,0,2.08,.72,2.08,2.18v3h-.84v-2.88Z"/><path class="h" d="M315.65,239.9c.95,0,1.6,.48,1.9,1.01v-.93h.85v5.09h-.85v-.95c-.31,.55-.97,1.03-1.91,1.03-1.36,0-2.41-1.07-2.41-2.65s1.05-2.61,2.42-2.61Zm.17,.73c-.93,0-1.72,.68-1.72,1.88s.79,1.9,1.72,1.9,1.73-.7,1.73-1.9-.8-1.89-1.73-1.89Zm1.07-2.83v.73l-1.98,1.06v-.63l1.98-1.16Z"/><path class="h" d="M319.83,238.2h.85v6.88h-.85v-6.88Z"/><path class="h" d="M321.98,238.58c0-.33,.25-.58,.58-.58,.31,0,.56,.25,.56,.58s-.25,.58-.56,.58c-.33,0-.58-.25-.58-.58Zm.14,1.4h.85v5.09h-.85v-5.09Z"/><path class="h" d="M326.2,245.16c-1.19,0-2.03-.65-2.08-1.58h.87c.05,.49,.48,.86,1.2,.86,.67,0,1.04-.33,1.04-.75,0-1.13-3.01-.47-3.01-2.37,0-.78,.73-1.42,1.87-1.42s1.87,.6,1.92,1.6h-.85c-.04-.51-.43-.88-1.11-.88-.62,0-.99,.3-.99,.71,0,1.21,2.96,.55,2.99,2.37,0,.84-.73,1.47-1.86,1.47Z"/><path class="h" d="M331.45,245.16c-1.45,0-2.52-1.02-2.52-2.64s1.03-2.62,2.52-2.62,2.44,1.04,2.44,2.43c0,.19,0,.33-.03,.51h-4.07c.06,1.03,.79,1.6,1.65,1.6,.76,0,1.25-.39,1.43-.94h.91c-.26,.93-1.08,1.65-2.34,1.65Zm-1.65-3h3.22c0-.99-.73-1.54-1.61-1.54-.83,0-1.51,.55-1.61,1.54Z"/><path class="h" d="M339.61,239.9c.8,0,1.53,.41,1.89,.99v-2.7h.85v6.88h-.85v-.96c-.31,.57-.97,1.04-1.9,1.04-1.37,0-2.42-1.07-2.42-2.65s1.05-2.61,2.43-2.61Zm.16,.73c-.93,0-1.72,.68-1.72,1.88s.79,1.9,1.72,1.9,1.73-.7,1.73-1.9-.8-1.89-1.73-1.89Z"/><path class="h" d="M346,245.16c-1.44,0-2.54-1.02-2.54-2.64s1.13-2.62,2.57-2.62,2.57,1.01,2.57,2.62-1.16,2.64-2.61,2.64Zm0-.74c.88,0,1.75-.6,1.75-1.9s-.85-1.89-1.72-1.89-1.7,.6-1.7,1.89,.79,1.9,1.67,1.9Z"/><path class="h" d="M351.53,245.16c-1.19,0-2.03-.65-2.08-1.58h.87c.05,.49,.48,.86,1.2,.86,.67,0,1.04-.33,1.04-.75,0-1.13-3.01-.47-3.01-2.37,0-.78,.73-1.42,1.87-1.42s1.87,.6,1.92,1.6h-.85c-.04-.51-.43-.88-1.11-.88-.62,0-.99,.3-.99,.71,0,1.21,2.96,.55,2.99,2.37,0,.84-.73,1.47-1.86,1.47Z"/><path class="h" d="M357.9,245.08h-.85v-5.09h.85v.83c.29-.57,.84-.92,1.65-.92v.87h-.22c-.81,0-1.42,.36-1.42,1.54v2.77Z"/><path class="h" d="M362.73,245.16c-1.45,0-2.52-1.02-2.52-2.64s1.03-2.62,2.52-2.62,2.44,1.04,2.44,2.43c0,.19,0,.33-.03,.51h-4.07c.06,1.03,.79,1.6,1.65,1.6,.76,0,1.25-.39,1.43-.94h.91c-.26,.93-1.08,1.65-2.34,1.65Zm-1.65-3h3.22c0-.99-.73-1.54-1.61-1.54-.83,0-1.51,.55-1.61,1.54Z"/><path class="h" d="M368.09,245.16c-1.19,0-2.03-.65-2.08-1.58h.87c.05,.49,.48,.86,1.2,.86,.67,0,1.04-.33,1.04-.75,0-1.13-3.01-.47-3.01-2.37,0-.78,.73-1.42,1.87-1.42s1.87,.6,1.92,1.6h-.85c-.04-.51-.43-.88-1.11-.88-.62,0-.99,.3-.99,.71,0,1.21,2.96,.55,2.99,2.37,0,.84-.73,1.47-1.86,1.47Z"/><path class="h" d="M375.66,245.08h-.85v-.75c-.33,.53-.95,.83-1.63,.83-1.17,0-2.09-.72-2.09-2.18v-2.98h.84v2.87c0,1.03,.57,1.56,1.42,1.56s1.46-.54,1.46-1.63v-2.8h.85v5.09Z"/><path class="h" d="M377.09,238.2h.85v6.88h-.85v-6.88Z"/><path class="h" d="M379.56,240.68h-.66v-.7h.66v-1.28h.85v1.28h1.33v.7h-1.33v3c0,.5,.19,.68,.71,.68h.62v.72h-.76c-.9,0-1.41-.37-1.41-1.39v-3Z"/><path class="h" d="M384.85,239.9c.95,0,1.6,.48,1.9,1.01v-.93h.85v5.09h-.85v-.95c-.31,.55-.97,1.03-1.91,1.03-1.36,0-2.41-1.07-2.41-2.65s1.05-2.61,2.42-2.61Zm.17,.73c-.93,0-1.72,.68-1.72,1.88s.79,1.9,1.72,1.9,1.73-.7,1.73-1.9-.8-1.89-1.73-1.89Z"/><path class="h" d="M391.15,239.9c.8,0,1.53,.41,1.89,.99v-2.7h.85v6.88h-.85v-.96c-.31,.57-.97,1.04-1.9,1.04-1.37,0-2.42-1.07-2.42-2.65s1.05-2.61,2.43-2.61Zm.16,.73c-.93,0-1.72,.68-1.72,1.88s.79,1.9,1.72,1.9,1.73-.7,1.73-1.9-.8-1.89-1.73-1.89Z"/><path class="h" d="M397.54,245.16c-1.44,0-2.54-1.02-2.54-2.64s1.13-2.62,2.57-2.62,2.57,1.01,2.57,2.62-1.16,2.64-2.61,2.64Zm0-.74c.88,0,1.75-.6,1.75-1.9s-.85-1.89-1.72-1.89-1.7,.6-1.7,1.89,.79,1.9,1.67,1.9Z"/><path class="h" d="M403.07,245.16c-1.19,0-2.03-.65-2.08-1.58h.87c.05,.49,.48,.86,1.2,.86,.67,0,1.04-.33,1.04-.75,0-1.13-3.01-.47-3.01-2.37,0-.78,.73-1.42,1.87-1.42s1.87,.6,1.92,1.6h-.85c-.04-.51-.43-.88-1.11-.88-.62,0-.99,.3-.99,.71,0,1.21,2.96,.55,2.99,2.37,0,.84-.73,1.47-1.86,1.47Z"/><path class="h" d="M410.8,245.16c-1.45,0-2.52-1.02-2.52-2.64s1.03-2.62,2.52-2.62,2.44,1.04,2.44,2.43c0,.19,0,.33-.03,.51h-4.07c.06,1.03,.79,1.6,1.65,1.6,.76,0,1.25-.39,1.43-.94h.91c-.26,.93-1.08,1.65-2.34,1.65Zm-1.65-3h3.22c0-.99-.73-1.54-1.61-1.54-.83,0-1.51,.55-1.61,1.54Z"/><path class="h" d="M416.7,238.58c0-.33,.25-.58,.58-.58,.31,0,.56,.25,.56,.58s-.25,.58-.56,.58c-.33,0-.58-.25-.58-.58Zm.14,1.4h.85v5.09h-.85v-5.09Z"/><path class="h" d="M426.48,242.2c0-1.04-.56-1.57-1.39-1.57s-1.44,.55-1.44,1.64v2.81h-.84v-2.88c0-1.04-.56-1.57-1.39-1.57s-1.44,.55-1.44,1.64v2.81h-.85v-5.09h.85v.73c.33-.54,.94-.83,1.61-.83,.84,0,1.53,.37,1.87,1.13,.3-.73,1.02-1.13,1.8-1.13,1.16,0,2.06,.72,2.06,2.18v3h-.84v-2.88Z"/><path class="h" d="M431.45,239.9c1.37,0,2.42,1.02,2.42,2.61s-1.05,2.65-2.42,2.65c-.93,0-1.59-.5-1.9-1.02v3.35h-.85v-7.51h.85v.94c.31-.54,.98-1.02,1.9-1.02Zm-.18,.73c-.92,0-1.73,.71-1.73,1.89s.81,1.9,1.73,1.9,1.73-.71,1.73-1.9-.79-1.88-1.73-1.88Z"/><path class="h" d="M437.09,239.9c.95,0,1.6,.48,1.9,1.01v-.93h.86v5.09h-.86v-.95c-.31,.55-.97,1.03-1.9,1.03-1.36,0-2.41-1.07-2.41-2.65s1.05-2.61,2.42-2.61Zm.17,.73c-.93,0-1.72,.68-1.72,1.88s.79,1.9,1.72,1.9,1.73-.7,1.73-1.9-.8-1.89-1.73-1.89Z"/><path class="h" d="M443.43,239.9c1.26,0,2.09,.65,2.35,1.72h-.91c-.18-.61-.69-1-1.44-1-.93,0-1.62,.66-1.62,1.91s.69,1.92,1.62,1.92c.75,0,1.25-.36,1.44-1h.91c-.26,1.01-1.09,1.72-2.35,1.72-1.45,0-2.48-1.02-2.48-2.64s1.03-2.62,2.48-2.62Z"/><path class="h" d="M447.09,240.68h-.66v-.7h.66v-1.28h.85v1.28h1.33v.7h-1.33v3c0,.5,.19,.68,.71,.68h.62v.72h-.76c-.9,0-1.41-.37-1.41-1.39v-3Z"/><path class="h" d="M452.51,245.16c-1.44,0-2.54-1.02-2.54-2.64s1.13-2.62,2.57-2.62,2.57,1.01,2.57,2.62-1.16,2.64-2.61,2.64Zm0-.74c.88,0,1.75-.6,1.75-1.9s-.85-1.89-1.72-1.89-1.7,.6-1.7,1.89,.79,1.9,1.67,1.9Z"/><path class="h" d="M458.04,245.16c-1.19,0-2.03-.65-2.08-1.58h.87c.05,.49,.48,.86,1.2,.86,.67,0,1.04-.33,1.04-.75,0-1.13-3.01-.47-3.01-2.37,0-.78,.73-1.42,1.87-1.42s1.87,.6,1.92,1.6h-.85c-.04-.51-.43-.88-1.11-.88-.62,0-.99,.3-.99,.71,0,1.21,2.96,.55,2.99,2.37,0,.84-.73,1.47-1.86,1.47Z"/></g></g><g><rect class="l" x="508.62" y="51.2" width="191.85" height="35.85"/><g><path class="h" d="M576.58,56.78h4v1.05h-2.7v1.66h2.07v1.03h-2.07v2.74h-1.3v-6.49Z"/><path class="h" d="M583.79,63.35c-1.49,0-2.61-1.04-2.61-2.66s1.16-2.66,2.65-2.66,2.65,1.03,2.65,2.66-1.19,2.66-2.69,2.66Zm0-1.13c.69,0,1.35-.5,1.35-1.52s-.64-1.52-1.33-1.52-1.31,.49-1.31,1.52,.59,1.52,1.29,1.52Z"/><path class="h" d="M588.74,63.27h-1.3v-5.15h1.3v.8c.33-.53,.86-.87,1.58-.87v1.37h-.34c-.77,0-1.24,.3-1.24,1.29v2.56Z"/><path class="h" d="M598.39,60.42c0-.82-.46-1.25-1.14-1.25s-1.15,.43-1.15,1.25v2.84h-1.3v-2.84c0-.82-.46-1.25-1.14-1.25s-1.16,.43-1.16,1.25v2.84h-1.3v-5.15h1.3v.62c.33-.43,.87-.7,1.51-.7,.8,0,1.46,.34,1.81,.99,.33-.59,1.01-.99,1.77-.99,1.24,0,2.11,.78,2.11,2.2v3.02h-1.3v-2.84Z"/><path class="h" d="M605.79,63.27h-1.31v-.65c-.33,.44-.89,.72-1.53,.72-1.2,0-2.06-.78-2.06-2.19v-3.02h1.3v2.83c0,.83,.46,1.27,1.14,1.27s1.15-.45,1.15-1.27v-2.83h1.31v5.15Z"/><path class="h" d="M607.07,56.39h1.3v6.88h-1.3v-6.88Z"/><path class="h" d="M611.67,58.04c.83,0,1.39,.39,1.7,.82v-.73h1.31v5.15h-1.31v-.75c-.31,.45-.89,.84-1.71,.84-1.3,0-2.34-1.07-2.34-2.68s1.04-2.64,2.35-2.64Zm.33,1.14c-.7,0-1.36,.52-1.36,1.5s.66,1.53,1.36,1.53,1.37-.54,1.37-1.51-.65-1.51-1.37-1.51Z"/><path class="h" d="M618.17,58.04c1.28,0,2.15,.67,2.43,1.82h-1.4c-.15-.44-.49-.72-1.03-.72-.72,0-1.21,.55-1.21,1.55s.48,1.54,1.21,1.54c.54,0,.87-.24,1.03-.71h1.4c-.25,.98-.97,1.66-2.04,1.79v.36c.62,0,1.21,.32,1.21,1.01s-.59,1.04-1.24,1.04h-1.32v-.76h1.11c.28,0,.46-.06,.46-.3s-.18-.29-.46-.29h-.58v-1.07c-1.25-.19-2.12-1.17-2.12-2.63,0-1.62,1.06-2.66,2.55-2.66Z"/><path class="h" d="M623.57,58.04c.83,0,1.39,.39,1.7,.82v-.73h1.31v5.15h-1.31v-.75c-.31,.45-.89,.84-1.71,.84-1.3,0-2.34-1.07-2.34-2.68s1.04-2.64,2.35-2.64Zm0-1.63c.53,0,.77,.41,1.14,.41,.21,0,.36-.12,.4-.4h.7c-.12,.85-.56,1.22-1.15,1.22-.53,0-.77-.42-1.14-.42-.21,0-.36,.13-.41,.41h-.69c.12-.85,.56-1.22,1.15-1.22Zm.34,2.77c-.7,0-1.36,.52-1.36,1.5s.66,1.53,1.36,1.53,1.37-.54,1.37-1.51-.65-1.51-1.37-1.51Z"/><path class="h" d="M630.14,63.35c-1.49,0-2.61-1.04-2.61-2.66s1.16-2.66,2.65-2.66,2.65,1.03,2.65,2.66-1.19,2.66-2.69,2.66Zm0-1.13c.69,0,1.35-.5,1.35-1.52s-.64-1.52-1.33-1.52-1.31,.49-1.31,1.52,.59,1.52,1.29,1.52Z"/></g><g><path class="h" d="M520.8,74.33c0,2.01-1.31,3.22-3.44,3.22h-2.02v-6.48h2.02c2.13,0,3.44,1.25,3.44,3.25Zm-3.44,2.53c1.69,0,2.57-.95,2.57-2.53s-.88-2.56-2.57-2.56h-1.17v5.09h1.17Z"/><path class="h" d="M521.78,71.06c0-.33,.25-.58,.58-.58,.31,0,.56,.25,.56,.58s-.25,.58-.56,.58c-.33,0-.58-.25-.58-.58Zm.14,1.4h.85v5.09h-.85v-5.09Z"/><path class="h" d="M526.3,72.38c.95,0,1.6,.48,1.9,1.01v-.93h.86v5.09h-.86v-.95c-.31,.55-.97,1.03-1.9,1.03-1.36,0-2.41-1.07-2.41-2.65s1.05-2.61,2.42-2.61Zm.17,.73c-.93,0-1.72,.68-1.72,1.88s.79,1.91,1.72,1.91,1.73-.7,1.73-1.9-.8-1.89-1.73-1.89Z"/><path class="h" d="M532.58,72.38c.93,0,1.6,.46,1.9,1.01v-.93h.86v5.2c0,1.4-.94,2.4-2.43,2.4-1.34,0-2.3-.68-2.46-1.77h.84c.19,.61,.79,1.03,1.63,1.03,.9,0,1.58-.58,1.58-1.66v-1.07c-.31,.55-.97,1.04-1.9,1.04-1.37,0-2.42-1.07-2.42-2.65s1.05-2.61,2.42-2.61Zm.17,.73c-.93,0-1.72,.68-1.72,1.88s.79,1.91,1.72,1.91,1.73-.7,1.73-1.9-.8-1.89-1.73-1.89Z"/><path class="h" d="M540.49,74.68c0-1.04-.57-1.57-1.42-1.57s-1.46,.54-1.46,1.64v2.82h-.85v-5.09h.85v.72c.33-.53,.95-.82,1.63-.82,1.18,0,2.08,.72,2.08,2.18v3h-.84v-2.88Z"/><path class="h" d="M544.94,77.64c-1.44,0-2.54-1.02-2.54-2.64s1.13-2.62,2.57-2.62,2.57,1.01,2.57,2.62-1.16,2.64-2.61,2.64Zm0-.74c.88,0,1.75-.6,1.75-1.9s-.85-1.89-1.72-1.89-1.7,.6-1.7,1.89,.79,1.9,1.67,1.9Zm.95-6.67v.73l-1.98,1.06v-.63l1.98-1.16Z"/><path class="h" d="M550.47,77.64c-1.19,0-2.03-.65-2.08-1.58h.87c.05,.49,.48,.86,1.2,.86,.67,0,1.04-.33,1.04-.75,0-1.13-3.01-.47-3.01-2.37,0-.78,.73-1.42,1.87-1.42s1.87,.6,1.92,1.6h-.85c-.04-.51-.43-.88-1.11-.88-.62,0-.99,.3-.99,.71,0,1.21,2.96,.55,2.99,2.37,0,.84-.73,1.47-1.86,1.47Z"/><path class="h" d="M553.7,73.16h-.66v-.7h.66v-1.28h.85v1.28h1.33v.7h-1.33v3c0,.5,.19,.68,.71,.68h.62v.72h-.76c-.9,0-1.41-.37-1.41-1.39v-3Z"/><path class="h" d="M556.76,71.06c0-.33,.25-.58,.58-.58,.31,0,.56,.25,.56,.58s-.25,.58-.56,.58c-.33,0-.58-.25-.58-.58Zm.14,1.4h.85v5.09h-.85v-5.09Z"/><path class="h" d="M561.35,72.38c1.26,0,2.09,.65,2.35,1.72h-.91c-.18-.61-.69-1-1.44-1-.93,0-1.62,.66-1.62,1.9s.69,1.92,1.62,1.92c.75,0,1.25-.36,1.44-1h.91c-.26,1.01-1.09,1.72-2.35,1.72-1.45,0-2.48-1.02-2.48-2.64s1.03-2.62,2.48-2.62Z"/><path class="h" d="M567.05,77.64c-1.44,0-2.54-1.02-2.54-2.64s1.13-2.62,2.57-2.62,2.57,1.01,2.57,2.62-1.16,2.64-2.61,2.64Zm0-.74c.88,0,1.75-.6,1.75-1.9s-.85-1.89-1.72-1.89-1.7,.6-1.7,1.89,.79,1.9,1.67,1.9Z"/><path class="h" d="M575.46,77.64c-1.45,0-2.52-1.02-2.52-2.64s1.03-2.62,2.52-2.62,2.44,1.04,2.44,2.43c0,.19,0,.33-.03,.51h-4.07c.07,1.03,.79,1.6,1.65,1.6,.76,0,1.25-.39,1.43-.94h.91c-.26,.93-1.08,1.65-2.34,1.65Zm-1.64-3h3.21c0-.99-.73-1.54-1.61-1.54-.83,0-1.51,.55-1.61,1.54Z"/><path class="h" d="M583.61,72.38c.8,0,1.53,.41,1.89,.99v-2.69h.86v6.88h-.86v-.96c-.31,.57-.97,1.04-1.9,1.04-1.37,0-2.42-1.07-2.42-2.65s1.05-2.61,2.43-2.61Zm.16,.73c-.93,0-1.72,.68-1.72,1.88s.79,1.91,1.72,1.91,1.73-.7,1.73-1.9-.8-1.89-1.73-1.89Z"/><path class="h" d="M589.98,77.64c-1.45,0-2.52-1.02-2.52-2.64s1.03-2.62,2.52-2.62,2.44,1.04,2.44,2.43c0,.19,0,.33-.03,.51h-4.07c.07,1.03,.79,1.6,1.65,1.6,.76,0,1.25-.39,1.43-.94h.91c-.26,.93-1.08,1.65-2.34,1.65Zm-1.64-3h3.21c0-.99-.73-1.54-1.61-1.54-.83,0-1.51,.55-1.61,1.54Z"/><path class="h" d="M595.34,77.64c-1.19,0-2.03-.65-2.08-1.58h.87c.05,.49,.48,.86,1.2,.86,.67,0,1.04-.33,1.04-.75,0-1.13-3.01-.47-3.01-2.37,0-.78,.73-1.42,1.87-1.42s1.87,.6,1.92,1.6h-.85c-.04-.51-.43-.88-1.11-.88-.62,0-.99,.3-.99,.71,0,1.21,2.96,.55,2.99,2.37,0,.84-.73,1.47-1.86,1.47Z"/><path class="h" d="M600.6,77.64c-1.45,0-2.52-1.02-2.52-2.64s1.03-2.62,2.52-2.62,2.44,1.04,2.44,2.43c0,.19,0,.33-.03,.51h-4.07c.07,1.03,.79,1.6,1.65,1.6,.76,0,1.25-.39,1.43-.94h.91c-.26,.93-1.08,1.65-2.34,1.65Zm-1.64-3h3.21c0-.99-.73-1.54-1.61-1.54-.83,0-1.51,.55-1.61,1.54Z"/><path class="h" d="M607.88,74.68c0-1.04-.57-1.57-1.42-1.57s-1.46,.54-1.46,1.64v2.82h-.85v-5.09h.85v.72c.33-.53,.95-.82,1.63-.82,1.18,0,2.08,.72,2.08,2.18v3h-.84v-2.88Z"/><path class="h" d="M610.1,70.68h.85v2.52c.33-.54,.97-.83,1.68-.83,1.13,0,2.04,.72,2.04,2.18v3h-.84v-2.88c0-1.04-.57-1.57-1.42-1.57s-1.46,.54-1.46,1.64v2.82h-.85v-6.88Z"/><path class="h" d="M618.27,77.64c-1.44,0-2.54-1.02-2.54-2.64s1.13-2.62,2.57-2.62,2.57,1.01,2.57,2.62-1.16,2.64-2.61,2.64Zm0-.74c.88,0,1.75-.6,1.75-1.9s-.85-1.89-1.72-1.89-1.7,.6-1.7,1.89,.79,1.9,1.67,1.9Z"/><path class="h" d="M626.59,72.38c.8,0,1.53,.41,1.89,.99v-2.69h.86v6.88h-.86v-.96c-.31,.57-.97,1.04-1.9,1.04-1.37,0-2.42-1.07-2.42-2.65s1.05-2.61,2.43-2.61Zm.16,.73c-.93,0-1.72,.68-1.72,1.88s.79,1.91,1.72,1.91,1.73-.7,1.73-1.9-.8-1.89-1.73-1.89Z"/><path class="h" d="M632.86,72.38c.95,0,1.6,.48,1.9,1.01v-.93h.86v5.09h-.86v-.95c-.31,.55-.97,1.03-1.9,1.03-1.36,0-2.41-1.07-2.41-2.65s1.05-2.61,2.42-2.61Zm.17,.73c-.93,0-1.72,.68-1.72,1.88s.79,1.91,1.72,1.91,1.73-.7,1.73-1.9-.8-1.89-1.73-1.89Z"/><path class="h" d="M639.39,71.06c0-.33,.25-.58,.58-.58,.31,0,.56,.25,.56,.58s-.25,.58-.56,.58c-.33,0-.58-.25-.58-.58Zm.14,1.4h.85v5.09h-.85v-5.09Z"/><path class="h" d="M645.54,74.68c0-1.04-.57-1.57-1.42-1.57s-1.46,.54-1.46,1.64v2.82h-.85v-5.09h.85v.72c.33-.53,.95-.82,1.63-.82,1.18,0,2.08,.72,2.08,2.18v3h-.84v-2.88Z"/><path class="h" d="M647.95,73.16h-.66v-.7h.66v-1.28h.85v1.28h1.33v.7h-1.33v3c0,.5,.19,.68,.71,.68h.62v.72h-.76c-.9,0-1.41-.37-1.41-1.39v-3Z"/><path class="h" d="M653.35,77.64c-1.45,0-2.52-1.02-2.52-2.64s1.03-2.62,2.52-2.62,2.44,1.04,2.44,2.43c0,.19,0,.33-.03,.51h-4.07c.07,1.03,.79,1.6,1.65,1.6,.76,0,1.25-.39,1.43-.94h.91c-.26,.93-1.08,1.65-2.34,1.65Zm-1.64-3h3.21c0-.99-.73-1.54-1.61-1.54-.83,0-1.51,.55-1.61,1.54Z"/><path class="h" d="M657.75,77.56h-.85v-5.09h.85v.83c.29-.57,.84-.92,1.64-.92v.87h-.22c-.81,0-1.42,.36-1.42,1.54v2.77Z"/><path class="h" d="M660.68,72.47l1.59,4.31,1.58-4.31h.9l-2,5.09h-.99l-2-5.09h.91Z"/><path class="h" d="M667.79,77.64c-1.45,0-2.52-1.02-2.52-2.64s1.03-2.62,2.52-2.62,2.44,1.04,2.44,2.43c0,.19,0,.33-.03,.51h-4.07c.07,1.03,.79,1.6,1.65,1.6,.76,0,1.25-.39,1.43-.94h.91c-.26,.93-1.08,1.65-2.34,1.65Zm-1.64-3h3.21c0-.99-.73-1.54-1.61-1.54-.83,0-1.51,.55-1.61,1.54Z"/><path class="h" d="M675.07,74.68c0-1.04-.57-1.57-1.42-1.57s-1.46,.54-1.46,1.64v2.82h-.85v-5.09h.85v.72c.33-.53,.95-.82,1.63-.82,1.18,0,2.08,.72,2.08,2.18v3h-.84v-2.88Z"/><path class="h" d="M679.46,72.38c1.26,0,2.09,.65,2.35,1.72h-.91c-.18-.61-.69-1-1.44-1-.93,0-1.62,.66-1.62,1.9s.69,1.92,1.62,1.92c.75,0,1.25-.36,1.44-1h.91c-.24,.94-.98,1.62-2.09,1.71v.46c.72,0,1.2,.31,1.2,.92s-.47,.96-1.13,.96h-1.07v-.55h.9c.4,0,.59-.11,.59-.41s-.2-.4-.59-.4h-.46v-.99c-1.28-.13-2.17-1.12-2.17-2.62,0-1.6,1.03-2.62,2.48-2.62Z"/><path class="h" d="M685.04,72.38c.95,0,1.6,.48,1.9,1.01v-.93h.86v5.09h-.86v-.95c-.31,.55-.97,1.03-1.9,1.03-1.36,0-2.41-1.07-2.41-2.65s1.05-2.61,2.42-2.61Zm.17,.73c-.93,0-1.72,.68-1.72,1.88s.79,1.91,1.72,1.91,1.73-.7,1.73-1.9-.8-1.89-1.73-1.89Zm-.27-2.17c.49,0,.68,.43,1.06,.43,.21,0,.37-.13,.41-.4h.48c-.07,.63-.45,.97-.93,.97s-.69-.43-1.06-.43c-.21,0-.36,.13-.4,.41h-.49c.09-.64,.45-.98,.93-.98Z"/><path class="h" d="M691.44,77.64c-1.44,0-2.54-1.02-2.54-2.64s1.13-2.62,2.57-2.62,2.57,1.01,2.57,2.62-1.16,2.64-2.61,2.64Zm0-.74c.88,0,1.75-.6,1.75-1.9s-.85-1.89-1.72-1.89-1.7,.6-1.7,1.89,.79,1.9,1.67,1.9Z"/></g></g><g><rect class="l" x="502.65" y="134.96" width="203.78" height="35.85"/><g><path class="h" d="M557.71,140.54h4.76v1.05h-1.73v5.44h-1.3v-5.44h-1.73v-1.05Z"/><path class="h" d="M565.7,147.11c-1.49,0-2.61-1.04-2.61-2.66s1.16-2.66,2.65-2.66,2.65,1.03,2.65,2.66-1.19,2.66-2.69,2.66Zm0-1.13c.69,0,1.35-.5,1.35-1.52s-.64-1.52-1.33-1.52-1.31,.49-1.31,1.52,.59,1.52,1.29,1.52Z"/><path class="h" d="M576.54,144.18c0-.82-.46-1.25-1.14-1.25s-1.15,.43-1.15,1.25v2.84h-1.3v-2.84c0-.82-.46-1.25-1.14-1.25s-1.16,.43-1.16,1.25v2.84h-1.3v-5.15h1.3v.62c.33-.43,.87-.7,1.51-.7,.8,0,1.46,.34,1.81,.99,.33-.59,1.01-.99,1.77-.99,1.24,0,2.11,.78,2.11,2.2v3.02h-1.3v-2.84Z"/><path class="h" d="M581.1,141.8c.83,0,1.39,.39,1.7,.82v-.73h1.31v5.15h-1.31v-.75c-.31,.45-.89,.84-1.71,.84-1.3,0-2.34-1.07-2.34-2.68s1.04-2.64,2.35-2.64Zm.33,1.14c-.7,0-1.36,.52-1.36,1.5s.66,1.53,1.36,1.53,1.37-.54,1.37-1.51-.65-1.51-1.37-1.51Z"/><path class="h" d="M587.41,141.8c.68,0,1.33,.32,1.68,.8v-2.44h1.32v6.88h-1.32v-.76c-.31,.47-.88,.85-1.69,.85-1.31,0-2.35-1.07-2.35-2.68s1.04-2.64,2.36-2.64Zm.33,1.14c-.7,0-1.36,.52-1.36,1.5s.66,1.53,1.36,1.53,1.37-.54,1.37-1.51-.65-1.51-1.37-1.51Z"/><path class="h" d="M593.7,141.8c.83,0,1.39,.39,1.7,.82v-.73h1.31v5.15h-1.31v-.75c-.31,.45-.89,.84-1.71,.84-1.3,0-2.34-1.07-2.34-2.68s1.04-2.64,2.35-2.64Zm.33,1.14c-.7,0-1.36,.52-1.36,1.5s.66,1.53,1.36,1.53,1.37-.54,1.37-1.51-.65-1.51-1.37-1.51Z"/><path class="h" d="M602.22,141.8c.68,0,1.33,.32,1.68,.8v-2.44h1.32v6.88h-1.32v-.76c-.31,.47-.88,.85-1.69,.85-1.31,0-2.35-1.07-2.35-2.68s1.04-2.64,2.36-2.64Zm.33,1.14c-.7,0-1.36,.52-1.36,1.5s.66,1.53,1.36,1.53,1.37-.54,1.37-1.51-.65-1.51-1.37-1.51Z"/><path class="h" d="M608.75,147.11c-1.5,0-2.58-1.04-2.58-2.66s1.06-2.66,2.58-2.66,2.54,1.01,2.54,2.55c0,.17,0,.33-.04,.5h-3.76c.07,.76,.59,1.19,1.24,1.19,.56,0,.86-.28,1.03-.62h1.4c-.28,.95-1.13,1.7-2.41,1.7Zm-1.25-3.14h2.44c-.02-.68-.56-1.11-1.23-1.11-.62,0-1.12,.4-1.22,1.11Z"/><path class="h" d="M620.13,143.79c0,1.96-1.35,3.23-3.42,3.23h-2.27v-6.49h2.27c2.07,0,3.42,1.28,3.42,3.25Zm-3.47,2.13c1.37,0,2.14-.78,2.14-2.13s-.77-2.16-2.14-2.16h-.92v4.28h.92Z"/><path class="h" d="M623.35,147.11c-1.5,0-2.58-1.04-2.58-2.66s1.06-2.66,2.58-2.66,2.54,1.01,2.54,2.55c0,.17,0,.33-.04,.5h-3.76c.07,.76,.59,1.19,1.24,1.19,.56,0,.86-.28,1.03-.62h1.4c-.28,.95-1.13,1.7-2.41,1.7Zm-1.25-3.14h2.44c-.02-.68-.56-1.11-1.23-1.11-.62,0-1.12,.4-1.22,1.11Z"/><path class="h" d="M629.05,141.8c1.28,0,2.15,.67,2.43,1.82h-1.4c-.15-.44-.49-.72-1.03-.72-.72,0-1.21,.55-1.21,1.55s.48,1.54,1.21,1.54c.54,0,.87-.24,1.03-.71h1.4c-.28,1.1-1.14,1.82-2.43,1.82-1.49,0-2.55-1.04-2.55-2.66s1.06-2.66,2.55-2.66Z"/><path class="h" d="M632.3,140.5c0-.43,.33-.76,.8-.76s.8,.33,.8,.76-.34,.76-.8,.76-.8-.33-.8-.76Zm.14,1.38h1.3v5.15h-1.3v-5.15Z"/><path class="h" d="M636.99,147.11c-1.29,0-2.19-.75-2.25-1.71h1.31c.05,.39,.41,.69,.93,.69s.79-.23,.79-.53c0-.92-2.91-.33-2.91-2.22,0-.85,.76-1.54,2.04-1.54s2,.68,2.07,1.7h-1.25c-.04-.4-.35-.67-.86-.67-.48,0-.73,.2-.73,.49,0,.94,2.85,.35,2.89,2.24,0,.88-.77,1.55-2.03,1.55Z"/><path class="h" d="M642.1,141.8c.83,0,1.39,.39,1.7,.82v-.73h1.31v5.15h-1.31v-.75c-.31,.45-.89,.84-1.71,.84-1.3,0-2.34-1.07-2.34-2.68s1.04-2.64,2.35-2.64Zm0-1.63c.53,0,.77,.41,1.14,.41,.21,0,.36-.12,.4-.4h.7c-.12,.85-.56,1.22-1.15,1.22-.53,0-.77-.42-1.14-.42-.21,0-.36,.13-.41,.41h-.69c.12-.85,.56-1.22,1.15-1.22Zm.34,2.77c-.7,0-1.36,.52-1.36,1.5s.66,1.53,1.36,1.53,1.37-.54,1.37-1.51-.65-1.51-1.37-1.51Z"/><path class="h" d="M648.67,147.11c-1.49,0-2.61-1.04-2.61-2.66s1.16-2.66,2.65-2.66,2.65,1.03,2.65,2.66-1.19,2.66-2.69,2.66Zm0-1.13c.69,0,1.35-.5,1.35-1.52s-.64-1.52-1.33-1.52-1.31,.49-1.31,1.52,.59,1.52,1.29,1.52Z"/></g><g><path class="h" d="M514.39,158.09c0,2.01-1.31,3.22-3.44,3.22h-2.02v-6.48h2.02c2.13,0,3.44,1.25,3.44,3.25Zm-3.44,2.53c1.69,0,2.57-.95,2.57-2.53s-.88-2.56-2.57-2.56h-1.17v5.09h1.17Z"/><path class="h" d="M517.71,161.4c-1.45,0-2.52-1.02-2.52-2.64s1.03-2.62,2.52-2.62,2.44,1.04,2.44,2.43c0,.19,0,.33-.03,.51h-4.07c.07,1.03,.79,1.6,1.65,1.6,.76,0,1.25-.39,1.43-.94h.91c-.26,.93-1.08,1.65-2.34,1.65Zm-1.64-3h3.21c0-.99-.73-1.54-1.61-1.54-.83,0-1.51,.55-1.61,1.54Z"/><path class="h" d="M523.43,156.14c1.26,0,2.09,.65,2.35,1.72h-.91c-.18-.61-.69-1-1.44-1-.93,0-1.62,.66-1.62,1.9s.69,1.92,1.62,1.92c.75,0,1.25-.36,1.44-1h.91c-.26,1.01-1.09,1.72-2.35,1.72-1.45,0-2.48-1.02-2.48-2.64s1.03-2.62,2.48-2.62Z"/><path class="h" d="M526.77,154.82c0-.33,.25-.58,.58-.58,.31,0,.56,.25,.56,.58s-.25,.58-.56,.58c-.33,0-.58-.25-.58-.58Zm.14,1.4h.85v5.09h-.85v-5.09Z"/><path class="h" d="M531,161.4c-1.19,0-2.03-.65-2.08-1.58h.87c.05,.49,.48,.86,1.2,.86,.67,0,1.04-.33,1.04-.75,0-1.13-3.01-.47-3.01-2.37,0-.78,.73-1.42,1.87-1.42s1.87,.6,1.92,1.6h-.85c-.04-.51-.43-.88-1.11-.88-.62,0-.99,.3-.99,.71,0,1.21,2.96,.55,2.99,2.37,0,.84-.73,1.47-1.86,1.47Z"/><path class="h" d="M536.15,156.14c.95,0,1.6,.48,1.9,1.01v-.93h.86v5.09h-.86v-.95c-.31,.55-.97,1.03-1.9,1.03-1.36,0-2.41-1.07-2.41-2.65s1.05-2.61,2.42-2.61Zm.17,.73c-.93,0-1.72,.68-1.72,1.88s.79,1.91,1.72,1.91,1.73-.7,1.73-1.9-.8-1.89-1.73-1.89Zm-.27-2.17c.49,0,.68,.43,1.06,.43,.21,0,.37-.13,.41-.4h.48c-.07,.63-.45,.97-.93,.97s-.69-.43-1.06-.43c-.2,0-.36,.13-.4,.41h-.49c.09-.64,.45-.98,.93-.98Z"/><path class="h" d="M542.55,161.4c-1.44,0-2.54-1.02-2.54-2.64s1.13-2.62,2.57-2.62,2.57,1.01,2.57,2.62-1.16,2.64-2.61,2.64Zm0-.74c.88,0,1.75-.6,1.75-1.9s-.85-1.89-1.72-1.89-1.7,.6-1.7,1.89,.79,1.9,1.67,1.9Z"/><path class="h" d="M551.51,156.14c1.37,0,2.42,1.02,2.42,2.61s-1.05,2.65-2.42,2.65c-.93,0-1.59-.5-1.9-1.02v3.35h-.85v-7.51h.85v.94c.31-.54,.98-1.02,1.9-1.02Zm-.18,.73c-.92,0-1.73,.71-1.73,1.89s.81,1.9,1.73,1.9,1.73-.71,1.73-1.91-.79-1.88-1.73-1.88Z"/><path class="h" d="M557.26,161.4c-1.44,0-2.54-1.02-2.54-2.64s1.13-2.62,2.57-2.62,2.57,1.01,2.57,2.62-1.16,2.64-2.61,2.64Zm0-.74c.88,0,1.75-.6,1.75-1.9s-.85-1.89-1.72-1.89-1.7,.6-1.7,1.89,.79,1.9,1.67,1.9Z"/><path class="h" d="M561.84,161.32h-.85v-5.09h.85v.83c.29-.57,.84-.92,1.64-.92v.87h-.22c-.81,0-1.42,.36-1.42,1.54v2.77Z"/><path class="h" d="M569.04,156.14c.95,0,1.6,.48,1.9,1.01v-.93h.86v5.09h-.86v-.95c-.31,.55-.97,1.03-1.9,1.03-1.36,0-2.41-1.07-2.41-2.65s1.05-2.61,2.42-2.61Zm.17,.73c-.93,0-1.72,.68-1.72,1.88s.79,1.91,1.72,1.91,1.73-.7,1.73-1.9-.8-1.89-1.73-1.89Z"/><path class="h" d="M573.22,154.44h.85v6.88h-.85v-6.88Z"/><path class="h" d="M577.61,156.14c.93,0,1.6,.46,1.9,1.01v-.93h.86v5.2c0,1.4-.94,2.4-2.43,2.4-1.34,0-2.3-.68-2.46-1.77h.84c.19,.61,.79,1.03,1.63,1.03,.9,0,1.58-.58,1.58-1.66v-1.07c-.31,.55-.97,1.04-1.9,1.04-1.37,0-2.42-1.07-2.42-2.65s1.05-2.61,2.42-2.61Zm.17,.73c-.93,0-1.72,.68-1.72,1.88s.79,1.91,1.72,1.91,1.73-.7,1.73-1.9-.8-1.89-1.73-1.89Z"/><path class="h" d="M586.31,161.32h-.85v-.75c-.33,.53-.95,.83-1.63,.83-1.17,0-2.09-.72-2.09-2.18v-2.98h.84v2.87c0,1.03,.57,1.56,1.42,1.56s1.46-.54,1.46-1.64v-2.8h.85v5.09Z"/><path class="h" d="M595.09,158.44c0-1.04-.56-1.57-1.39-1.57s-1.44,.55-1.44,1.65v2.81h-.84v-2.88c0-1.04-.56-1.57-1.39-1.57s-1.44,.55-1.44,1.65v2.81h-.85v-5.09h.85v.73c.33-.54,.94-.83,1.61-.83,.84,0,1.53,.37,1.87,1.13,.3-.73,1.02-1.13,1.8-1.13,1.16,0,2.06,.72,2.06,2.18v3h-.84v-2.88Z"/><path class="h" d="M599.41,156.14c.95,0,1.6,.48,1.9,1.01v-.93h.86v5.09h-.86v-.95c-.31,.55-.97,1.03-1.9,1.03-1.36,0-2.41-1.07-2.41-2.65s1.05-2.61,2.42-2.61Zm.17,.73c-.93,0-1.72,.68-1.72,1.88s.79,1.91,1.72,1.91,1.73-.7,1.73-1.9-.8-1.89-1.73-1.89Z"/><path class="h" d="M608.17,156.14c.95,0,1.6,.48,1.9,1.01v-.93h.86v5.09h-.86v-.95c-.31,.55-.97,1.03-1.9,1.03-1.36,0-2.41-1.07-2.41-2.65s1.05-2.61,2.42-2.61Zm.17,.73c-.93,0-1.72,.68-1.72,1.88s.79,1.91,1.72,1.91,1.73-.7,1.73-1.9-.8-1.89-1.73-1.89Z"/><path class="h" d="M612.36,154.44h.85v6.88h-.85v-6.88Z"/><path class="h" d="M614.83,156.92h-.66v-.7h.66v-1.28h.85v1.28h1.33v.7h-1.33v3c0,.5,.19,.68,.71,.68h.62v.71h-.76c-.9,0-1.41-.37-1.41-1.39v-3Z"/><path class="h" d="M620.23,161.4c-1.45,0-2.52-1.02-2.52-2.64s1.03-2.62,2.52-2.62,2.44,1.04,2.44,2.43c0,.19,0,.33-.03,.51h-4.07c.07,1.03,.79,1.6,1.65,1.6,.76,0,1.25-.39,1.43-.94h.91c-.26,.93-1.08,1.65-2.34,1.65Zm-1.64-3h3.21c0-.99-.73-1.54-1.61-1.54-.83,0-1.51,.55-1.61,1.54Z"/><path class="h" d="M624.63,161.32h-.85v-5.09h.85v.83c.29-.57,.84-.92,1.64-.92v.87h-.22c-.81,0-1.42,.36-1.42,1.54v2.77Z"/><path class="h" d="M630.98,158.44c0-1.04-.57-1.57-1.42-1.57s-1.46,.54-1.46,1.64v2.82h-.85v-5.09h.85v.72c.33-.53,.95-.82,1.63-.82,1.18,0,2.08,.72,2.08,2.18v3h-.84v-2.88Z"/><path class="h" d="M635.3,156.14c.95,0,1.6,.48,1.9,1.01v-.93h.86v5.09h-.86v-.95c-.31,.55-.97,1.03-1.9,1.03-1.36,0-2.41-1.07-2.41-2.65s1.05-2.61,2.42-2.61Zm.17,.73c-.93,0-1.72,.68-1.72,1.88s.79,1.91,1.72,1.91,1.73-.7,1.73-1.9-.8-1.89-1.73-1.89Z"/><path class="h" d="M639.67,156.92h-.66v-.7h.66v-1.28h.85v1.28h1.33v.7h-1.33v3c0,.5,.19,.68,.71,.68h.62v.71h-.76c-.9,0-1.41-.37-1.41-1.39v-3Z"/><path class="h" d="M642.73,154.82c0-.33,.25-.58,.58-.58,.31,0,.56,.25,.56,.58s-.25,.58-.56,.58c-.33,0-.58-.25-.58-.58Zm.14,1.4h.85v5.09h-.85v-5.09Z"/><path class="h" d="M645.46,156.23l1.59,4.31,1.58-4.31h.9l-2,5.09h-.99l-2-5.09h.91Z"/><path class="h" d="M652.47,156.14c.95,0,1.6,.48,1.9,1.01v-.93h.86v5.09h-.86v-.95c-.31,.55-.97,1.03-1.9,1.03-1.36,0-2.41-1.07-2.41-2.65s1.05-2.61,2.42-2.61Zm.17,.73c-.93,0-1.72,.68-1.72,1.88s.79,1.91,1.72,1.91,1.73-.7,1.73-1.9-.8-1.89-1.73-1.89Z"/><path class="h" d="M661.88,156.14c1.37,0,2.42,1.02,2.42,2.61s-1.05,2.65-2.42,2.65c-.93,0-1.59-.5-1.9-1.02v3.35h-.85v-7.51h.85v.94c.31-.54,.98-1.02,1.9-1.02Zm-.18,.73c-.92,0-1.73,.71-1.73,1.89s.81,1.9,1.73,1.9,1.73-.71,1.73-1.91-.79-1.88-1.73-1.88Z"/><path class="h" d="M666.26,161.32h-.85v-5.09h.85v.83c.29-.57,.84-.92,1.64-.92v.87h-.22c-.81,0-1.42,.36-1.42,1.54v2.77Z"/><path class="h" d="M671.1,161.4c-1.44,0-2.54-1.02-2.54-2.64s1.13-2.62,2.57-2.62,2.57,1.01,2.57,2.62-1.16,2.64-2.61,2.64Zm0-.74c.88,0,1.75-.6,1.75-1.9s-.85-1.89-1.72-1.89-1.7,.6-1.7,1.89,.79,1.9,1.67,1.9Z"/><path class="h" d="M677.58,156.14c1.37,0,2.42,1.02,2.42,2.61s-1.05,2.65-2.42,2.65c-.93,0-1.59-.5-1.9-1.02v3.35h-.85v-7.51h.85v.94c.31-.54,.98-1.02,1.9-1.02Zm-.18,.73c-.92,0-1.73,.71-1.73,1.89s.81,1.9,1.73,1.9,1.73-.71,1.73-1.91-.79-1.88-1.73-1.88Z"/><path class="h" d="M683.33,161.4c-1.44,0-2.54-1.02-2.54-2.64s1.13-2.62,2.57-2.62,2.57,1.01,2.57,2.62-1.16,2.64-2.61,2.64Zm0-.74c.88,0,1.75-.6,1.75-1.9s-.85-1.89-1.72-1.89-1.7,.6-1.7,1.89,.79,1.9,1.67,1.9Z"/><path class="h" d="M688.86,161.4c-1.19,0-2.03-.65-2.08-1.58h.87c.05,.49,.48,.86,1.2,.86,.67,0,1.04-.33,1.04-.75,0-1.13-3.01-.47-3.01-2.37,0-.78,.73-1.42,1.87-1.42s1.87,.6,1.92,1.6h-.85c-.04-.51-.43-.88-1.11-.88-.62,0-.99,.3-.99,.71,0,1.21,2.96,.55,2.99,2.37,0,.84-.73,1.47-1.86,1.47Z"/><path class="h" d="M692.09,156.92h-.66v-.7h.66v-1.28h.85v1.28h1.33v.7h-1.33v3c0,.5,.19,.68,.71,.68h.62v.71h-.76c-.9,0-1.41-.37-1.41-1.39v-3Z"/><path class="h" d="M697.39,156.14c.95,0,1.6,.48,1.9,1.01v-.93h.86v5.09h-.86v-.95c-.31,.55-.97,1.03-1.9,1.03-1.36,0-2.41-1.07-2.41-2.65s1.05-2.61,2.42-2.61Zm.17,.73c-.93,0-1.72,.68-1.72,1.88s.79,1.91,1.72,1.91,1.73-.7,1.73-1.9-.8-1.89-1.73-1.89Z"/></g></g><g><rect class="l" x="508.62" y="218.72" width="191.85" height="35.85"/><g><path class="h" d="M567.04,224.3h1.3v6.49h-1.3v-6.49Z"/><path class="h" d="M576.82,227.95c0-.82-.46-1.25-1.14-1.25s-1.15,.43-1.15,1.25v2.84h-1.3v-2.84c0-.82-.46-1.25-1.14-1.25s-1.16,.43-1.16,1.25v2.84h-1.3v-5.15h1.3v.62c.33-.43,.87-.7,1.51-.7,.8,0,1.46,.34,1.81,.99,.33-.59,1.01-.99,1.77-.99,1.24,0,2.11,.78,2.11,2.2v3.02h-1.3v-2.84Z"/><path class="h" d="M582.36,225.56c1.32,0,2.35,1.03,2.35,2.64s-1.03,2.68-2.35,2.68c-.81,0-1.38-.4-1.7-.82v3.19h-1.3v-7.6h1.3v.74c.31-.44,.9-.83,1.7-.83Zm-.34,1.14c-.7,0-1.36,.54-1.36,1.51s.66,1.51,1.36,1.51,1.37-.56,1.37-1.53-.66-1.5-1.37-1.5Z"/><path class="h" d="M585.66,223.91h1.3v6.88h-1.3v-6.88Z"/><path class="h" d="M590.49,230.87c-1.5,0-2.58-1.04-2.58-2.66s1.06-2.66,2.58-2.66,2.54,1.01,2.54,2.55c0,.17,0,.33-.04,.5h-3.76c.07,.76,.59,1.19,1.24,1.19,.56,0,.86-.28,1.03-.62h1.4c-.28,.95-1.13,1.7-2.41,1.7Zm-1.25-3.14h2.44c-.02-.68-.56-1.11-1.23-1.11-.62,0-1.12,.4-1.22,1.11Z"/><path class="h" d="M601.18,227.95c0-.82-.46-1.25-1.14-1.25s-1.15,.43-1.15,1.25v2.84h-1.3v-2.84c0-.82-.46-1.25-1.14-1.25s-1.16,.43-1.16,1.25v2.84h-1.3v-5.15h1.3v.62c.33-.43,.87-.7,1.51-.7,.8,0,1.46,.34,1.81,.99,.33-.59,1.01-.99,1.77-.99,1.24,0,2.11,.78,2.11,2.2v3.02h-1.3v-2.84Z"/><path class="h" d="M605.97,230.87c-1.5,0-2.58-1.04-2.58-2.66s1.06-2.66,2.58-2.66,2.54,1.01,2.54,2.55c0,.17,0,.33-.04,.5h-3.76c.07,.76,.59,1.19,1.24,1.19,.56,0,.86-.28,1.03-.62h1.4c-.28,.95-1.13,1.7-2.41,1.7Zm-1.25-3.14h2.44c-.02-.68-.56-1.11-1.23-1.11-.62,0-1.12,.4-1.22,1.11Z"/><path class="h" d="M613.06,227.95c0-.83-.46-1.27-1.14-1.27s-1.16,.45-1.16,1.27v2.84h-1.3v-5.15h1.3v.64c.33-.44,.89-.72,1.55-.72,1.2,0,2.05,.78,2.05,2.2v3.02h-1.3v-2.84Z"/><path class="h" d="M615.8,226.71h-.61v-1.07h.61v-1.27h1.31v1.27h1.15v1.07h-1.15v2.49c0,.34,.14,.49,.55,.49h.6v1.1h-.82c-.98,0-1.64-.42-1.64-1.6v-2.48Z"/><path class="h" d="M621.22,225.56c.83,0,1.39,.39,1.7,.82v-.73h1.31v5.15h-1.31v-.75c-.31,.45-.89,.84-1.71,.84-1.3,0-2.34-1.07-2.34-2.68s1.04-2.64,2.35-2.64Zm.33,1.14c-.7,0-1.36,.52-1.36,1.5s.66,1.53,1.36,1.53,1.37-.54,1.37-1.51-.65-1.51-1.37-1.51Z"/><path class="h" d="M627.71,225.56c1.28,0,2.15,.67,2.43,1.82h-1.4c-.15-.44-.49-.72-1.03-.72-.72,0-1.21,.55-1.21,1.55s.48,1.54,1.21,1.54c.54,0,.87-.24,1.03-.71h1.4c-.25,.98-.97,1.66-2.04,1.79v.36c.62,0,1.21,.32,1.21,1.01s-.58,1.04-1.24,1.04h-1.32v-.76h1.11c.28,0,.46-.07,.46-.3s-.18-.29-.46-.29h-.58v-1.07c-1.25-.19-2.12-1.17-2.12-2.63,0-1.62,1.06-2.66,2.55-2.66Z"/><path class="h" d="M633.11,225.56c.83,0,1.39,.39,1.7,.82v-.73h1.31v5.15h-1.31v-.75c-.31,.45-.89,.84-1.71,.84-1.3,0-2.34-1.07-2.34-2.68s1.04-2.64,2.35-2.64Zm0-1.63c.53,0,.77,.41,1.14,.41,.21,0,.36-.12,.4-.4h.7c-.12,.85-.56,1.22-1.15,1.22-.53,0-.77-.42-1.14-.42-.21,0-.36,.13-.41,.41h-.69c.12-.85,.56-1.22,1.15-1.22Zm.34,2.77c-.7,0-1.36,.52-1.36,1.5s.66,1.53,1.36,1.53,1.37-.54,1.37-1.51-.65-1.51-1.37-1.51Z"/><path class="h" d="M639.68,230.87c-1.49,0-2.61-1.04-2.61-2.66s1.16-2.66,2.65-2.66,2.65,1.03,2.65,2.66-1.19,2.66-2.69,2.66Zm0-1.13c.69,0,1.35-.5,1.35-1.52s-.64-1.52-1.33-1.52-1.31,.49-1.31,1.52,.59,1.52,1.29,1.52Z"/></g><g><path class="h" d="M514.7,239.29h-2.64v2.17h2.36v.7h-2.36v2.23h2.64v.7h-3.48v-6.49h3.48v.7Z"/><path class="h" d="M517.43,243.18l-1.16,1.9h-.88l1.64-2.53-1.64-2.57h.96l1.21,1.89,1.15-1.89h.88l-1.64,2.52,1.64,2.57h-.96l-1.21-1.9Z"/><path class="h" d="M522.63,245.16c-1.45,0-2.52-1.02-2.52-2.64s1.03-2.62,2.52-2.62,2.44,1.04,2.44,2.43c0,.19,0,.33-.03,.51h-4.07c.07,1.03,.79,1.6,1.65,1.6,.76,0,1.25-.39,1.43-.94h.91c-.26,.93-1.08,1.65-2.34,1.65Zm-1.64-3h3.21c0-.99-.73-1.54-1.61-1.54-.83,0-1.51,.55-1.61,1.54Z"/><path class="h" d="M528.36,239.9c1.26,0,2.09,.65,2.35,1.72h-.91c-.18-.61-.69-1-1.44-1-.93,0-1.62,.66-1.62,1.91s.69,1.92,1.62,1.92c.75,0,1.25-.36,1.44-1h.91c-.26,1.01-1.09,1.72-2.35,1.72-1.45,0-2.48-1.02-2.48-2.64s1.03-2.62,2.48-2.62Z"/><path class="h" d="M536.35,245.08h-.85v-.75c-.33,.53-.95,.83-1.63,.83-1.17,0-2.09-.72-2.09-2.18v-2.98h.84v2.87c0,1.03,.57,1.56,1.42,1.56s1.46-.54,1.46-1.63v-2.8h.85v5.09Z"/><path class="h" d="M539.95,239.9c1.26,0,2.09,.65,2.35,1.72h-.91c-.18-.61-.69-1-1.44-1-.93,0-1.62,.66-1.62,1.91s.69,1.92,1.62,1.92c.75,0,1.25-.36,1.44-1h.91c-.24,.94-.98,1.62-2.09,1.71v.46c.72,0,1.2,.31,1.2,.92s-.47,.96-1.13,.96h-1.07v-.55h.9c.4,0,.59-.11,.59-.41s-.2-.4-.59-.4h-.46v-.99c-1.28-.13-2.17-1.12-2.17-2.62,0-1.6,1.03-2.62,2.48-2.62Z"/><path class="h" d="M545.52,239.9c.95,0,1.6,.48,1.9,1.01v-.93h.86v5.09h-.86v-.95c-.31,.55-.97,1.03-1.9,1.03-1.36,0-2.41-1.07-2.41-2.65s1.05-2.61,2.42-2.61Zm.17,.73c-.93,0-1.72,.68-1.72,1.88s.79,1.9,1.72,1.9,1.73-.7,1.73-1.9-.8-1.89-1.73-1.89Zm-.27-2.17c.49,0,.68,.43,1.06,.43,.21,0,.37-.13,.41-.4h.48c-.07,.63-.45,.97-.93,.97s-.69-.43-1.06-.43c-.2,0-.36,.13-.4,.41h-.49c.09-.64,.45-.98,.93-.98Z"/><path class="h" d="M551.93,245.16c-1.44,0-2.54-1.02-2.54-2.64s1.13-2.62,2.57-2.62,2.57,1.01,2.57,2.62-1.16,2.64-2.61,2.64Zm0-.74c.88,0,1.75-.6,1.75-1.9s-.85-1.89-1.72-1.89-1.7,.6-1.7,1.89,.79,1.9,1.67,1.9Z"/><path class="h" d="M560.24,239.9c.8,0,1.53,.41,1.89,.99v-2.7h.86v6.88h-.86v-.96c-.31,.57-.97,1.04-1.9,1.04-1.37,0-2.42-1.07-2.42-2.65s1.05-2.61,2.43-2.61Zm.16,.73c-.93,0-1.72,.68-1.72,1.88s.79,1.9,1.72,1.9,1.73-.7,1.73-1.9-.8-1.89-1.73-1.89Z"/><path class="h" d="M566.52,239.9c.95,0,1.6,.48,1.9,1.01v-.93h.86v5.09h-.86v-.95c-.31,.55-.97,1.03-1.9,1.03-1.36,0-2.41-1.07-2.41-2.65s1.05-2.61,2.42-2.61Zm.17,.73c-.93,0-1.72,.68-1.72,1.88s.79,1.9,1.72,1.9,1.73-.7,1.73-1.9-.8-1.89-1.73-1.89Z"/><path class="h" d="M572.5,245.16c-1.19,0-2.03-.65-2.08-1.58h.87c.05,.49,.48,.86,1.2,.86,.67,0,1.04-.33,1.04-.75,0-1.13-3.01-.47-3.01-2.37,0-.78,.73-1.42,1.87-1.42s1.87,.6,1.92,1.6h-.85c-.04-.51-.43-.88-1.11-.88-.62,0-.99,.3-.99,.71,0,1.21,2.96,.55,2.99,2.37,0,.84-.73,1.47-1.86,1.47Z"/><path class="h" d="M580.13,239.9c.95,0,1.6,.48,1.9,1.01v-.93h.86v5.09h-.86v-.95c-.31,.55-.97,1.03-1.9,1.03-1.36,0-2.41-1.07-2.41-2.65s1.05-2.61,2.42-2.61Zm.17,.73c-.93,0-1.72,.68-1.72,1.88s.79,1.9,1.72,1.9,1.73-.7,1.73-1.9-.8-1.89-1.73-1.89Z"/><path class="h" d="M584.5,240.68h-.66v-.7h.66v-1.28h.85v1.28h1.33v.7h-1.33v3c0,.5,.19,.68,.71,.68h.62v.72h-.76c-.9,0-1.41-.37-1.41-1.39v-3Z"/><path class="h" d="M587.56,238.58c0-.33,.25-.58,.58-.58,.31,0,.56,.25,.56,.58s-.25,.58-.56,.58c-.33,0-.58-.25-.58-.58Zm.14,1.4h.85v5.09h-.85v-5.09Z"/><path class="h" d="M590.29,239.99l1.59,4.31,1.58-4.31h.9l-2,5.09h-.99l-2-5.09h.91Z"/><path class="h" d="M595.06,238.58c0-.33,.25-.58,.58-.58,.31,0,.56,.25,.56,.58s-.25,.58-.56,.58c-.33,0-.58-.25-.58-.58Zm.14,1.4h.85v5.09h-.85v-5.09Z"/><path class="h" d="M599.59,239.9c.8,0,1.53,.41,1.89,.99v-2.7h.86v6.88h-.86v-.96c-.31,.57-.97,1.04-1.9,1.04-1.37,0-2.42-1.07-2.42-2.65s1.05-2.61,2.43-2.61Zm.16,.73c-.93,0-1.72,.68-1.72,1.88s.79,1.9,1.72,1.9,1.73-.7,1.73-1.9-.8-1.89-1.73-1.89Z"/><path class="h" d="M605.86,239.9c.95,0,1.6,.48,1.9,1.01v-.93h.86v5.09h-.86v-.95c-.31,.55-.97,1.03-1.9,1.03-1.36,0-2.41-1.07-2.41-2.65s1.05-2.61,2.42-2.61Zm.17,.73c-.93,0-1.72,.68-1.72,1.88s.79,1.9,1.72,1.9,1.73-.7,1.73-1.9-.8-1.89-1.73-1.89Z"/><path class="h" d="M612.16,239.9c.8,0,1.53,.41,1.89,.99v-2.7h.86v6.88h-.86v-.96c-.31,.57-.97,1.04-1.9,1.04-1.37,0-2.42-1.07-2.42-2.65s1.05-2.61,2.43-2.61Zm.16,.73c-.93,0-1.72,.68-1.72,1.88s.79,1.9,1.72,1.9,1.73-.7,1.73-1.9-.8-1.89-1.73-1.89Z"/><path class="h" d="M618.53,245.16c-1.45,0-2.52-1.02-2.52-2.64s1.03-2.62,2.52-2.62,2.44,1.04,2.44,2.43c0,.19,0,.33-.03,.51h-4.07c.07,1.03,.79,1.6,1.65,1.6,.76,0,1.25-.39,1.43-.94h.91c-.26,.93-1.08,1.65-2.34,1.65Zm-1.64-3h3.21c0-.99-.73-1.54-1.61-1.54-.83,0-1.51,.55-1.61,1.54Z"/><path class="h" d="M623.89,245.16c-1.19,0-2.03-.65-2.08-1.58h.87c.05,.49,.48,.86,1.2,.86,.67,0,1.04-.33,1.04-.75,0-1.13-3.01-.47-3.01-2.37,0-.78,.73-1.42,1.87-1.42s1.87,.6,1.92,1.6h-.85c-.04-.51-.43-.88-1.11-.88-.62,0-.99,.3-.99,.71,0,1.21,2.96,.55,2.99,2.37,0,.84-.73,1.47-1.86,1.47Z"/><path class="h" d="M631.63,245.16c-1.45,0-2.52-1.02-2.52-2.64s1.03-2.62,2.52-2.62,2.44,1.04,2.44,2.43c0,.19,0,.33-.03,.51h-4.07c.07,1.03,.79,1.6,1.65,1.6,.76,0,1.25-.39,1.43-.94h.91c-.26,.93-1.08,1.65-2.34,1.65Zm-1.64-3h3.21c0-.99-.73-1.54-1.61-1.54-.83,0-1.51,.55-1.61,1.54Z"/><path class="h" d="M639.78,239.9c.8,0,1.53,.41,1.89,.99v-2.7h.86v6.88h-.86v-.96c-.31,.57-.97,1.04-1.9,1.04-1.37,0-2.42-1.07-2.42-2.65s1.05-2.61,2.43-2.61Zm.16,.73c-.93,0-1.72,.68-1.72,1.88s.79,1.9,1.72,1.9,1.73-.7,1.73-1.9-.8-1.89-1.73-1.89Z"/><path class="h" d="M646.05,239.9c.95,0,1.6,.48,1.9,1.01v-.93h.86v5.09h-.86v-.95c-.31,.55-.97,1.03-1.9,1.03-1.36,0-2.41-1.07-2.41-2.65s1.05-2.61,2.42-2.61Zm.17,.73c-.93,0-1.72,.68-1.72,1.88s.79,1.9,1.72,1.9,1.73-.7,1.73-1.9-.8-1.89-1.73-1.89Z"/><path class="h" d="M652.04,245.16c-1.19,0-2.03-.65-2.08-1.58h.87c.05,.49,.48,.86,1.2,.86,.67,0,1.04-.33,1.04-.75,0-1.13-3.01-.47-3.01-2.37,0-.78,.73-1.42,1.87-1.42s1.87,.6,1.92,1.6h-.85c-.04-.51-.43-.88-1.11-.88-.62,0-.99,.3-.99,.71,0,1.21,2.96,.55,2.99,2.37,0,.84-.73,1.47-1.86,1.47Z"/><path class="h" d="M659.77,245.16c-1.45,0-2.52-1.02-2.52-2.64s1.03-2.62,2.52-2.62,2.44,1.04,2.44,2.43c0,.19,0,.33-.03,.51h-4.07c.07,1.03,.79,1.6,1.65,1.6,.76,0,1.25-.39,1.43-.94h.91c-.26,.93-1.08,1.65-2.34,1.65Zm-1.64-3h3.21c0-.99-.73-1.54-1.61-1.54-.83,0-1.51,.55-1.61,1.54Z"/><path class="h" d="M667.05,242.2c0-1.04-.57-1.57-1.42-1.57s-1.46,.54-1.46,1.64v2.82h-.85v-5.09h.85v.73c.33-.53,.95-.82,1.63-.82,1.18,0,2.08,.72,2.08,2.18v3h-.84v-2.88Z"/><path class="h" d="M669.46,240.68h-.66v-.7h.66v-1.28h.85v1.28h1.33v.7h-1.33v3c0,.5,.19,.68,.71,.68h.62v.72h-.76c-.9,0-1.41-.37-1.41-1.39v-3Z"/><path class="h" d="M673.5,245.08h-.85v-5.09h.85v.83c.29-.57,.84-.92,1.64-.92v.87h-.22c-.81,0-1.42,.36-1.42,1.54v2.77Z"/><path class="h" d="M678.33,245.16c-1.45,0-2.52-1.02-2.52-2.64s1.03-2.62,2.52-2.62,2.44,1.04,2.44,2.43c0,.19,0,.33-.03,.51h-4.07c.07,1.03,.79,1.6,1.65,1.6,.76,0,1.25-.39,1.43-.94h.91c-.26,.93-1.08,1.65-2.34,1.65Zm-1.64-3h3.21c0-.99-.73-1.54-1.61-1.54-.83,0-1.51,.55-1.61,1.54Z"/><path class="h" d="M683.99,239.9c.93,0,1.6,.46,1.9,1.01v-.93h.86v5.2c0,1.4-.94,2.4-2.43,2.4-1.34,0-2.3-.68-2.46-1.77h.84c.19,.61,.79,1.03,1.63,1.03,.9,0,1.58-.58,1.58-1.66v-1.07c-.31,.55-.97,1.04-1.9,1.04-1.37,0-2.42-1.07-2.42-2.65s1.05-2.61,2.42-2.61Zm.17,.73c-.93,0-1.72,.68-1.72,1.88s.79,1.9,1.72,1.9,1.73-.7,1.73-1.9-.8-1.89-1.73-1.89Z"/><path class="h" d="M690.27,239.9c.95,0,1.6,.48,1.9,1.01v-.93h.86v5.09h-.86v-.95c-.31,.55-.97,1.03-1.9,1.03-1.36,0-2.41-1.07-2.41-2.65s1.05-2.61,2.42-2.61Zm.17,.73c-.93,0-1.72,.68-1.72,1.88s.79,1.9,1.72,1.9,1.73-.7,1.73-1.9-.8-1.89-1.73-1.89Z"/><path class="h" d="M696.25,245.16c-1.19,0-2.03-.65-2.08-1.58h.87c.05,.49,.48,.86,1.2,.86,.67,0,1.04-.33,1.04-.75,0-1.13-3.01-.47-3.01-2.37,0-.78,.73-1.42,1.87-1.42s1.87,.6,1.92,1.6h-.85c-.04-.51-.43-.88-1.11-.88-.62,0-.99,.3-.99,.71,0,1.21,2.96,.55,2.99,2.37,0,.84-.73,1.47-1.86,1.47Z"/></g></g></g><g><path class="k" d="M442.79,276.93h-3.21l-.59,1.64h-1.01l2.66-7.32h1.11l2.65,7.32h-1.01l-.59-1.64Zm-1.6-4.5l-1.33,3.72h2.66l-1.33-3.72Z"/><path class="k" d="M445.9,272.78l1.81,4.9,1.79-4.9h1.02l-2.27,5.79h-1.12l-2.27-5.79h1.03Z"/><path class="k" d="M453.87,272.69c1.08,0,1.82,.55,2.15,1.15v-1.06h.97v5.79h-.97v-1.08c-.35,.62-1.1,1.17-2.17,1.17-1.54,0-2.73-1.21-2.73-3.01s1.19-2.97,2.75-2.97Zm.19,.83c-1.06,0-1.95,.77-1.95,2.13s.9,2.16,1.95,2.16,1.96-.79,1.96-2.15-.91-2.14-1.96-2.14Z"/><path class="k" d="M458.62,270.75h.96v7.81h-.96v-7.81Z"/><path class="k" d="M461.06,271.19c0-.37,.29-.65,.66-.65,.35,0,.63,.29,.63,.65s-.29,.65-.63,.65c-.37,0-.66-.28-.66-.65Zm.16,1.59h.96v5.79h-.96v-5.79Z"/><path class="k" d="M466.2,272.69c1.08,0,1.82,.55,2.15,1.15v-1.06h.97v5.79h-.97v-1.08c-.35,.62-1.1,1.17-2.17,1.17-1.54,0-2.73-1.21-2.73-3.01s1.19-2.97,2.75-2.97Zm.19,.83c-1.06,0-1.95,.77-1.95,2.13s.9,2.16,1.95,2.16,1.96-.79,1.96-2.15-.91-2.14-1.96-2.14Z"/><path class="k" d="M473.42,272.69c1.44,0,2.38,.74,2.67,1.95h-1.03c-.2-.7-.78-1.14-1.64-1.14-1.06,0-1.84,.75-1.84,2.17s.78,2.19,1.84,2.19c.86,0,1.43-.41,1.64-1.14h1.03c-.27,1.07-1.11,1.84-2.38,1.94v.53c.81-.01,1.36,.35,1.36,1.05s-.54,1.09-1.29,1.09h-1.21v-.62h1.02c.45,0,.68-.13,.68-.46s-.22-.45-.68-.45h-.53v-1.13c-1.46-.15-2.47-1.28-2.47-2.98,0-1.82,1.17-2.98,2.82-2.98Z"/><path class="k" d="M479.75,272.69c1.08,0,1.82,.55,2.15,1.15v-1.06h.97v5.79h-.97v-1.08c-.35,.62-1.1,1.17-2.17,1.17-1.54,0-2.73-1.21-2.73-3.01s1.19-2.97,2.75-2.97Zm.19,.83c-1.06,0-1.95,.77-1.95,2.13s.9,2.16,1.95,2.16,1.96-.79,1.96-2.15-.91-2.14-1.96-2.14Zm-.31-2.47c.56,0,.77,.49,1.2,.49,.23,0,.42-.15,.46-.45h.55c-.08,.72-.51,1.1-1.06,1.1s-.78-.49-1.2-.49c-.23,0-.41,.15-.45,.46h-.56c.11-.73,.51-1.11,1.06-1.11Z"/><path class="k" d="M487.03,278.66c-1.64,0-2.88-1.16-2.88-3s1.29-2.98,2.92-2.98,2.92,1.15,2.92,2.98-1.32,3-2.97,3Zm0-.84c1,0,1.98-.69,1.98-2.15s-.96-2.14-1.95-2.14-1.93,.69-1.93,2.14,.9,2.15,1.9,2.15Z"/><path class="k" d="M496.48,272.69c.91,0,1.74,.46,2.14,1.13v-3.06h.97v7.81h-.97v-1.09c-.35,.64-1.1,1.18-2.15,1.18-1.55,0-2.75-1.21-2.75-3.01s1.19-2.97,2.76-2.97Zm.18,.83c-1.06,0-1.95,.77-1.95,2.13s.9,2.16,1.95,2.16,1.96-.79,1.96-2.15-.91-2.14-1.96-2.14Z"/><path class="k" d="M503.73,278.66c-1.65,0-2.86-1.16-2.86-3s1.17-2.98,2.86-2.98,2.78,1.18,2.78,2.77c0,.21-.01,.38-.03,.58h-4.62c.07,1.17,.9,1.82,1.88,1.82,.87,0,1.42-.44,1.63-1.07h1.04c-.3,1.06-1.22,1.88-2.66,1.88Zm-1.87-3.41h3.65c.01-1.13-.83-1.75-1.83-1.75-.94,0-1.72,.62-1.83,1.75Z"/><path class="k" d="M512.97,275.49h-1.42v3.07h-.96v-7.36h2.38c1.73,0,2.54,.95,2.54,2.15,0,1.12-.72,2.13-2.54,2.13Zm0-.79c1.1,0,1.56-.52,1.56-1.34s-.46-1.36-1.56-1.36h-1.42v2.7h1.42Z"/><path class="k" d="M517.67,278.57h-.96v-5.79h.96v.94c.33-.64,.95-1.04,1.87-1.04v.99h-.25c-.92,0-1.62,.41-1.62,1.75v3.15Z"/><path class="k" d="M523.17,278.66c-1.64,0-2.88-1.16-2.88-3s1.29-2.98,2.92-2.98,2.92,1.15,2.92,2.98-1.32,3-2.97,3Zm0-.84c1,0,1.99-.69,1.99-2.15s-.96-2.14-1.95-2.14-1.93,.69-1.93,2.14,.9,2.15,1.9,2.15Z"/><path class="k" d="M529.87,272.69c1.44,0,2.38,.74,2.67,1.95h-1.03c-.2-.7-.78-1.14-1.64-1.14-1.06,0-1.84,.75-1.84,2.17s.78,2.19,1.84,2.19c.86,0,1.43-.41,1.64-1.14h1.03c-.29,1.15-1.24,1.95-2.67,1.95-1.65,0-2.82-1.16-2.82-3s1.17-2.98,2.82-2.98Z"/><path class="k" d="M536.32,278.66c-1.65,0-2.86-1.16-2.86-3s1.17-2.98,2.86-2.98,2.78,1.18,2.78,2.77c0,.21-.01,.38-.03,.58h-4.62c.07,1.17,.9,1.82,1.88,1.82,.87,0,1.42-.44,1.63-1.07h1.04c-.3,1.06-1.22,1.88-2.66,1.88Zm-1.87-3.41h3.65c.01-1.13-.83-1.75-1.83-1.75-.94,0-1.72,.62-1.83,1.75Z"/><path class="k" d="M542.41,278.66c-1.35,0-2.3-.74-2.37-1.79h.99c.05,.56,.55,.98,1.36,.98,.76,0,1.18-.38,1.18-.86,0-1.29-3.42-.54-3.42-2.69,0-.89,.83-1.62,2.12-1.62s2.12,.69,2.19,1.82h-.96c-.04-.58-.49-1-1.26-1-.71,0-1.13,.34-1.13,.8,0,1.37,3.36,.62,3.4,2.69,0,.95-.83,1.67-2.11,1.67Z"/><path class="k" d="M547.93,278.66c-1.35,0-2.3-.74-2.37-1.79h.99c.05,.56,.55,.98,1.36,.98,.76,0,1.18-.38,1.18-.86,0-1.29-3.42-.54-3.42-2.69,0-.89,.83-1.62,2.12-1.62s2.12,.69,2.19,1.82h-.96c-.04-.58-.49-1-1.26-1-.71,0-1.13,.34-1.13,.8,0,1.37,3.36,.62,3.4,2.69,0,.95-.83,1.67-2.11,1.67Z"/><path class="k" d="M553.92,278.66c-1.64,0-2.88-1.16-2.88-3s1.29-2.98,2.92-2.98,2.92,1.15,2.92,2.98-1.32,3-2.97,3Zm0-.84c1,0,1.99-.69,1.99-2.15s-.96-2.14-1.95-2.14-1.93,.69-1.93,2.14,.9,2.15,1.9,2.15Z"/></g><g><path class="k" d="M104.79,261.93h-3.21l-.59,1.64h-1.01l2.66-7.32h1.11l2.65,7.32h-1.01l-.59-1.64Zm-1.6-4.5l-1.33,3.72h2.66l-1.33-3.72Z"/><path class="k" d="M107.9,257.78l1.81,4.9,1.79-4.9h1.02l-2.27,5.79h-1.12l-2.27-5.79h1.03Z"/><path class="k" d="M115.87,257.69c1.08,0,1.82,.55,2.15,1.15v-1.06h.97v5.79h-.97v-1.08c-.35,.62-1.1,1.17-2.17,1.17-1.54,0-2.73-1.21-2.73-3.01s1.19-2.97,2.75-2.97Zm.19,.83c-1.06,0-1.95,.77-1.95,2.13s.9,2.16,1.95,2.16,1.96-.79,1.96-2.15-.91-2.14-1.96-2.14Z"/><path class="k" d="M120.62,255.75h.96v7.81h-.96v-7.81Z"/><path class="k" d="M123.06,256.19c0-.37,.29-.65,.66-.65,.35,0,.63,.29,.63,.65s-.29,.65-.63,.65c-.37,0-.66-.28-.66-.65Zm.16,1.59h.96v5.79h-.96v-5.79Z"/><path class="k" d="M128.2,257.69c1.08,0,1.82,.55,2.15,1.15v-1.06h.97v5.79h-.97v-1.08c-.35,.62-1.1,1.17-2.17,1.17-1.54,0-2.73-1.21-2.73-3.01s1.19-2.97,2.75-2.97Zm.19,.83c-1.06,0-1.95,.77-1.95,2.13s.9,2.16,1.95,2.16,1.96-.79,1.96-2.15-.91-2.14-1.96-2.14Z"/><path class="k" d="M135.42,257.69c1.44,0,2.38,.74,2.67,1.95h-1.03c-.2-.7-.78-1.14-1.64-1.14-1.06,0-1.84,.75-1.84,2.17s.78,2.19,1.84,2.19c.86,0,1.43-.41,1.64-1.14h1.03c-.27,1.07-1.11,1.84-2.38,1.94v.53c.81-.01,1.36,.35,1.36,1.05s-.54,1.09-1.29,1.09h-1.21v-.62h1.02c.45,0,.68-.13,.68-.46s-.22-.45-.68-.45h-.53v-1.13c-1.46-.15-2.47-1.28-2.47-2.98,0-1.82,1.17-2.98,2.82-2.98Z"/><path class="k" d="M141.75,257.69c1.08,0,1.82,.55,2.15,1.15v-1.06h.97v5.79h-.97v-1.08c-.35,.62-1.1,1.17-2.17,1.17-1.54,0-2.73-1.21-2.73-3.01s1.19-2.97,2.75-2.97Zm.19,.83c-1.06,0-1.95,.77-1.95,2.13s.9,2.16,1.95,2.16,1.96-.79,1.96-2.15-.91-2.14-1.96-2.14Zm-.31-2.47c.56,0,.77,.49,1.2,.49,.23,0,.42-.15,.46-.45h.55c-.08,.72-.51,1.1-1.06,1.1s-.78-.49-1.2-.49c-.23,0-.41,.15-.45,.46h-.56c.11-.73,.51-1.11,1.06-1.11Z"/><path class="k" d="M149.03,263.66c-1.64,0-2.88-1.16-2.88-3s1.29-2.98,2.92-2.98,2.92,1.15,2.92,2.98-1.32,3-2.97,3Zm0-.84c1,0,1.98-.69,1.98-2.15s-.96-2.14-1.95-2.14-1.93,.69-1.93,2.14,.9,2.15,1.9,2.15Z"/><path class="k" d="M158.48,257.69c.91,0,1.74,.46,2.14,1.13v-3.06h.97v7.81h-.97v-1.09c-.35,.64-1.1,1.18-2.15,1.18-1.55,0-2.75-1.21-2.75-3.01s1.19-2.97,2.76-2.97Zm.18,.83c-1.06,0-1.95,.77-1.95,2.13s.9,2.16,1.95,2.16,1.96-.79,1.96-2.15-.91-2.14-1.96-2.14Z"/><path class="k" d="M165.73,263.66c-1.65,0-2.86-1.16-2.86-3s1.17-2.98,2.86-2.98,2.78,1.18,2.78,2.77c0,.21-.01,.38-.03,.58h-4.62c.07,1.17,.9,1.82,1.88,1.82,.87,0,1.42-.44,1.63-1.07h1.04c-.3,1.06-1.22,1.88-2.66,1.88Zm-1.87-3.41h3.65c.01-1.13-.83-1.75-1.83-1.75-.94,0-1.72,.62-1.83,1.75Z"/><path class="k" d="M175.1,263.66c-1.65,0-2.86-1.16-2.86-3s1.17-2.98,2.86-2.98,2.78,1.18,2.78,2.77c0,.21-.01,.38-.03,.58h-4.62c.07,1.17,.9,1.82,1.88,1.82,.87,0,1.42-.44,1.63-1.07h1.04c-.3,1.06-1.22,1.88-2.66,1.88Zm-1.87-3.41h3.65c.01-1.13-.83-1.75-1.83-1.75-.94,0-1.72,.62-1.83,1.75Z"/><path class="k" d="M179.32,258.57h-.75v-.79h.75v-.41c0-1.29,.63-1.87,2.11-1.87v.8c-.87,0-1.15,.32-1.15,1.07v.41h1.21v.79h-1.21v4.99h-.96v-4.99Z"/><path class="k" d="M182.46,256.19c0-.37,.29-.65,.66-.65,.35,0,.63,.29,.63,.65s-.28,.65-.63,.65c-.37,0-.66-.28-.66-.65Zm.16,1.59h.96v5.79h-.96v-5.79Z"/><path class="k" d="M187.68,257.69c1.44,0,2.38,.74,2.67,1.95h-1.03c-.2-.7-.78-1.14-1.64-1.14-1.06,0-1.84,.75-1.84,2.17s.78,2.19,1.84,2.19c.86,0,1.43-.41,1.64-1.14h1.03c-.29,1.15-1.24,1.95-2.67,1.95-1.65,0-2.82-1.16-2.82-3s1.17-2.98,2.82-2.98Z"/><path class="k" d="M191.47,256.19c0-.37,.29-.65,.66-.65,.35,0,.63,.29,.63,.65s-.29,.65-.63,.65c-.37,0-.66-.28-.66-.65Zm.16,1.59h.96v5.79h-.96v-5.79Z"/><path class="k" d="M196.73,263.66c-1.65,0-2.86-1.16-2.86-3s1.17-2.98,2.86-2.98,2.78,1.18,2.78,2.77c0,.21-.01,.38-.03,.58h-4.62c.07,1.17,.9,1.82,1.88,1.82,.87,0,1.42-.44,1.63-1.07h1.04c-.3,1.06-1.22,1.88-2.66,1.88Zm-1.87-3.41h3.65c.01-1.13-.83-1.75-1.83-1.75-.94,0-1.72,.62-1.83,1.75Zm3.29-2.99l-1.46-.9-1.47,.9v-.76l1.47-.88,1.46,.88v.76Z"/><path class="k" d="M205.01,260.29c0-1.18-.64-1.78-1.62-1.78s-1.66,.61-1.66,1.86v3.2h-.96v-5.79h.96v.82c.38-.6,1.08-.93,1.86-.93,1.34,0,2.37,.82,2.37,2.48v3.41h-.95v-3.27Z"/><path class="k" d="M209.99,257.69c1.44,0,2.38,.74,2.67,1.95h-1.03c-.2-.7-.78-1.14-1.64-1.14-1.06,0-1.84,.75-1.84,2.17s.78,2.19,1.84,2.19c.86,0,1.43-.41,1.64-1.14h1.03c-.29,1.15-1.24,1.95-2.67,1.95-1.65,0-2.82-1.16-2.82-3s1.17-2.98,2.82-2.98Z"/><path class="k" d="M213.78,256.19c0-.37,.29-.65,.66-.65,.35,0,.63,.29,.63,.65s-.29,.65-.63,.65c-.37,0-.66-.28-.66-.65Zm.16,1.59h.96v5.79h-.96v-5.79Z"/><path class="k" d="M218.93,257.69c1.08,0,1.82,.55,2.15,1.15v-1.06h.97v5.79h-.97v-1.08c-.35,.62-1.1,1.17-2.17,1.17-1.54,0-2.73-1.21-2.73-3.01s1.19-2.97,2.75-2.97Zm.19,.83c-1.06,0-1.95,.77-1.95,2.13s.9,2.16,1.95,2.16,1.96-.79,1.96-2.15-.91-2.14-1.96-2.14Z"/></g><g><path class="k" d="M91.34,37.93h-3.21l-.59,1.64h-1.01l2.66-7.32h1.11l2.65,7.32h-1.01l-.59-1.64Zm-1.6-4.5l-1.33,3.72h2.66l-1.33-3.72Z"/><path class="k" d="M94.45,33.78l1.81,4.9,1.79-4.9h1.02l-2.27,5.79h-1.12l-2.27-5.79h1.03Z"/><path class="k" d="M102.42,33.69c1.08,0,1.82,.55,2.15,1.15v-1.06h.97v5.79h-.97v-1.08c-.35,.62-1.1,1.17-2.17,1.17-1.54,0-2.73-1.21-2.73-3.01s1.19-2.97,2.75-2.97Zm.19,.83c-1.06,0-1.95,.77-1.95,2.13s.9,2.16,1.95,2.16,1.96-.79,1.96-2.15-.91-2.14-1.96-2.14Z"/><path class="k" d="M107.17,31.75h.96v7.81h-.96v-7.81Z"/><path class="k" d="M109.61,32.19c0-.37,.29-.65,.66-.65,.35,0,.63,.29,.63,.65s-.28,.65-.63,.65c-.37,0-.66-.28-.66-.65Zm.16,1.59h.96v5.79h-.96v-5.79Z"/><path class="k" d="M114.75,33.69c1.08,0,1.82,.55,2.15,1.15v-1.06h.97v5.79h-.97v-1.08c-.35,.62-1.1,1.17-2.17,1.17-1.54,0-2.73-1.21-2.73-3.01s1.19-2.97,2.75-2.97Zm.19,.83c-1.06,0-1.95,.77-1.95,2.13s.9,2.16,1.95,2.16,1.96-.79,1.96-2.15-.91-2.14-1.96-2.14Z"/><path class="k" d="M121.97,33.69c1.44,0,2.38,.74,2.67,1.95h-1.03c-.2-.7-.78-1.14-1.64-1.14-1.06,0-1.84,.75-1.84,2.17s.78,2.19,1.84,2.19c.86,0,1.43-.41,1.64-1.14h1.03c-.27,1.07-1.11,1.84-2.38,1.94v.53c.81-.01,1.36,.35,1.36,1.05s-.54,1.09-1.29,1.09h-1.21v-.62h1.02c.45,0,.68-.13,.68-.46s-.22-.45-.68-.45h-.53v-1.13c-1.46-.15-2.47-1.28-2.47-2.98,0-1.82,1.17-2.98,2.82-2.98Z"/><path class="k" d="M128.3,33.69c1.08,0,1.82,.55,2.15,1.15v-1.06h.97v5.79h-.97v-1.08c-.35,.62-1.1,1.17-2.17,1.17-1.54,0-2.73-1.21-2.73-3.01s1.19-2.97,2.75-2.97Zm.19,.83c-1.06,0-1.95,.77-1.95,2.13s.9,2.16,1.95,2.16,1.96-.79,1.96-2.15-.91-2.14-1.96-2.14Zm-.31-2.47c.56,0,.77,.49,1.2,.49,.23,0,.42-.15,.46-.45h.55c-.08,.72-.51,1.1-1.06,1.1s-.78-.49-1.2-.49c-.23,0-.41,.15-.45,.46h-.56c.11-.73,.51-1.11,1.06-1.11Z"/><path class="k" d="M135.58,39.66c-1.64,0-2.88-1.16-2.88-3s1.29-2.98,2.92-2.98,2.92,1.15,2.92,2.98-1.32,3-2.97,3Zm0-.84c1,0,1.99-.69,1.99-2.15s-.96-2.14-1.95-2.14-1.93,.69-1.93,2.14,.9,2.15,1.9,2.15Z"/><path class="k" d="M145.03,33.69c.91,0,1.74,.46,2.14,1.13v-3.06h.97v7.81h-.97v-1.09c-.35,.64-1.1,1.18-2.15,1.18-1.55,0-2.75-1.21-2.75-3.01s1.19-2.97,2.76-2.97Zm.18,.83c-1.06,0-1.95,.77-1.95,2.13s.9,2.16,1.95,2.16,1.96-.79,1.96-2.15-.91-2.14-1.96-2.14Z"/><path class="k" d="M152.28,39.66c-1.65,0-2.86-1.16-2.86-3s1.17-2.98,2.86-2.98,2.78,1.18,2.78,2.77c0,.21-.01,.38-.03,.58h-4.62c.07,1.17,.9,1.82,1.88,1.82,.87,0,1.42-.44,1.63-1.07h1.04c-.3,1.06-1.22,1.88-2.66,1.88Zm-1.87-3.41h3.65c.01-1.13-.83-1.75-1.83-1.75-.94,0-1.72,.62-1.83,1.75Z"/><path class="k" d="M161.54,33.69c.91,0,1.74,.46,2.14,1.13v-3.06h.97v7.81h-.97v-1.09c-.35,.64-1.1,1.18-2.15,1.18-1.55,0-2.75-1.21-2.75-3.01s1.19-2.97,2.76-2.97Zm.18,.83c-1.06,0-1.95,.77-1.95,2.13s.9,2.16,1.95,2.16,1.96-.79,1.96-2.15-.91-2.14-1.96-2.14Z"/><path class="k" d="M168.79,39.66c-1.65,0-2.86-1.16-2.86-3s1.17-2.98,2.86-2.98,2.78,1.18,2.78,2.77c0,.21-.01,.38-.03,.58h-4.62c.07,1.17,.9,1.82,1.88,1.82,.87,0,1.42-.44,1.63-1.07h1.04c-.3,1.06-1.22,1.88-2.66,1.88Zm-1.87-3.41h3.65c.01-1.13-.83-1.75-1.83-1.75-.94,0-1.72,.62-1.83,1.75Z"/><path class="k" d="M181.18,36.29c0-1.18-.63-1.78-1.58-1.78s-1.64,.62-1.64,1.87v3.19h-.95v-3.27c0-1.18-.63-1.78-1.58-1.78s-1.64,.62-1.64,1.87v3.19h-.96v-5.79h.96v.83c.38-.61,1.07-.94,1.83-.94,.95,0,1.74,.42,2.12,1.29,.34-.83,1.16-1.29,2.05-1.29,1.32,0,2.34,.82,2.34,2.48v3.41h-.95v-3.27Z"/><path class="k" d="M186.1,33.69c1.08,0,1.82,.55,2.15,1.15v-1.06h.97v5.79h-.97v-1.08c-.35,.62-1.1,1.17-2.17,1.17-1.54,0-2.73-1.21-2.73-3.01s1.19-2.97,2.75-2.97Zm.19,.83c-1.06,0-1.95,.77-1.95,2.13s.9,2.16,1.95,2.16,1.96-.79,1.96-2.15-.91-2.14-1.96-2.14Z"/><path class="k" d="M195.08,36.29c0-1.18-.64-1.78-1.62-1.78s-1.66,.61-1.66,1.86v3.2h-.96v-5.79h.96v.82c.38-.6,1.08-.93,1.86-.93,1.34,0,2.37,.82,2.37,2.48v3.41h-.95v-3.27Z"/><path class="k" d="M200.01,33.69c.91,0,1.74,.46,2.14,1.13v-3.06h.97v7.81h-.97v-1.09c-.35,.64-1.1,1.18-2.15,1.18-1.55,0-2.75-1.21-2.75-3.01s1.19-2.97,2.76-2.97Zm.18,.83c-1.06,0-1.95,.77-1.95,2.13s.9,2.16,1.95,2.16,1.96-.79,1.96-2.15-.91-2.14-1.96-2.14Z"/><path class="k" d="M207.13,33.69c1.08,0,1.82,.55,2.15,1.15v-1.06h.97v5.79h-.97v-1.08c-.35,.62-1.1,1.17-2.17,1.17-1.54,0-2.73-1.21-2.73-3.01s1.19-2.97,2.75-2.97Zm.19,.83c-1.06,0-1.95,.77-1.95,2.13s.9,2.16,1.95,2.16,1.96-.79,1.96-2.15-.91-2.14-1.96-2.14Z"/><path class="k" d="M109.86,52.34c-1.64,0-2.88-1.16-2.88-3s1.29-2.98,2.92-2.98,2.92,1.15,2.92,2.98-1.32,3-2.97,3Zm0-.84c1,0,1.98-.69,1.98-2.15s-.96-2.14-1.95-2.14-1.93,.69-1.93,2.14,.9,2.15,1.9,2.15Z"/><path class="k" d="M119.23,52.24h-.96v-.86c-.37,.6-1.08,.94-1.85,.94-1.33,0-2.38-.82-2.38-2.48v-3.39h.95v3.26c0,1.17,.64,1.77,1.62,1.77s1.66-.61,1.66-1.86v-3.18h.96v5.79Z"/><path class="k" d="M127.91,48.97c0-1.18-.64-1.78-1.62-1.78s-1.66,.61-1.66,1.86v3.2h-.96v-5.79h.96v.82c.38-.6,1.08-.93,1.86-.93,1.34,0,2.37,.82,2.37,2.48v3.41h-.95v-3.27Z"/><path class="k" d="M132.94,52.34c-1.65,0-2.86-1.16-2.86-3s1.17-2.98,2.86-2.98,2.78,1.18,2.78,2.77c0,.21-.01,.38-.03,.58h-4.62c.07,1.17,.9,1.82,1.88,1.82,.87,0,1.42-.44,1.63-1.07h1.04c-.3,1.06-1.22,1.88-2.66,1.88Zm-1.87-3.41h3.65c.01-1.13-.83-1.75-1.83-1.75-.94,0-1.72,.62-1.83,1.75Z"/><path class="k" d="M139.45,46.36c1.44,0,2.38,.74,2.67,1.95h-1.03c-.2-.7-.78-1.14-1.64-1.14-1.06,0-1.84,.75-1.84,2.17s.78,2.19,1.84,2.19c.86,0,1.43-.41,1.64-1.14h1.03c-.29,1.15-1.24,1.95-2.67,1.95-1.65,0-2.82-1.16-2.82-3s1.17-2.98,2.82-2.98Z"/><path class="k" d="M145.9,52.34c-1.65,0-2.86-1.16-2.86-3s1.17-2.98,2.86-2.98,2.78,1.18,2.78,2.77c0,.21-.01,.38-.03,.58h-4.62c.07,1.17,.9,1.82,1.88,1.82,.87,0,1.42-.44,1.63-1.07h1.04c-.3,1.06-1.22,1.88-2.66,1.88Zm-1.87-3.41h3.65c.01-1.13-.83-1.75-1.83-1.75-.94,0-1.72,.62-1.83,1.75Z"/><path class="k" d="M151.99,52.34c-1.35,0-2.3-.74-2.37-1.79h.99c.05,.56,.55,.98,1.36,.98,.76,0,1.18-.38,1.18-.86,0-1.29-3.42-.54-3.42-2.69,0-.89,.83-1.62,2.12-1.62s2.12,.69,2.19,1.82h-.96c-.04-.58-.49-1-1.26-1-.71,0-1.13,.34-1.13,.8,0,1.37,3.36,.62,3.4,2.69,0,.95-.83,1.67-2.11,1.67Z"/><path class="k" d="M157.51,52.34c-1.35,0-2.3-.74-2.37-1.79h.99c.05,.56,.55,.98,1.36,.98,.76,0,1.18-.38,1.18-.86,0-1.29-3.42-.54-3.42-2.69,0-.89,.83-1.62,2.12-1.62s2.12,.69,2.19,1.82h-.96c-.04-.58-.49-1-1.26-1-.71,0-1.13,.34-1.13,.8,0,1.37,3.36,.62,3.4,2.69,0,.95-.83,1.67-2.11,1.67Z"/><path class="k" d="M160.81,44.86c0-.37,.29-.65,.66-.65,.35,0,.63,.29,.63,.65s-.29,.65-.63,.65c-.37,0-.66-.28-.66-.65Zm.16,1.59h.96v5.79h-.96v-5.79Z"/><path class="k" d="M165.97,46.36c.91,0,1.74,.46,2.14,1.13v-3.06h.97v7.81h-.97v-1.09c-.35,.64-1.1,1.18-2.15,1.18-1.55,0-2.75-1.21-2.75-3.01s1.19-2.97,2.76-2.97Zm.18,.83c-1.06,0-1.95,.77-1.95,2.13s.9,2.16,1.95,2.16,1.96-.79,1.96-2.15-.91-2.14-1.96-2.14Z"/><path class="k" d="M173.09,46.36c1.08,0,1.82,.55,2.15,1.15v-1.06h.97v5.79h-.97v-1.08c-.35,.62-1.1,1.17-2.17,1.17-1.54,0-2.73-1.21-2.73-3.01s1.19-2.97,2.75-2.97Zm.19,.83c-1.06,0-1.95,.77-1.95,2.13s.9,2.16,1.95,2.16,1.96-.79,1.96-2.15-.91-2.14-1.96-2.14Z"/><path class="k" d="M180.24,46.36c.91,0,1.74,.46,2.14,1.13v-3.06h.97v7.81h-.97v-1.09c-.35,.64-1.1,1.18-2.15,1.18-1.55,0-2.75-1.21-2.75-3.01s1.19-2.97,2.76-2.97Zm.18,.83c-1.06,0-1.95,.77-1.95,2.13s.9,2.16,1.95,2.16,1.96-.79,1.96-2.15-.91-2.14-1.96-2.14Z"/><path class="k" d="M187.49,52.34c-1.65,0-2.86-1.16-2.86-3s1.17-2.98,2.86-2.98,2.78,1.18,2.78,2.77c0,.21-.01,.38-.03,.58h-4.62c.07,1.17,.9,1.82,1.88,1.82,.87,0,1.42-.44,1.63-1.07h1.04c-.3,1.06-1.22,1.88-2.66,1.88Zm-1.87-3.41h3.65c.01-1.13-.83-1.75-1.83-1.75-.94,0-1.72,.62-1.83,1.75Z"/></g><g><path class="k" d="M442.79,17.93h-3.21l-.59,1.64h-1.01l2.66-7.32h1.11l2.65,7.32h-1.01l-.59-1.64Zm-1.6-4.5l-1.33,3.72h2.66l-1.33-3.72Z"/><path class="k" d="M445.9,13.78l1.81,4.9,1.79-4.9h1.02l-2.27,5.79h-1.12l-2.27-5.79h1.03Z"/><path class="k" d="M453.87,13.69c1.08,0,1.82,.55,2.15,1.15v-1.06h.97v5.79h-.97v-1.08c-.35,.62-1.1,1.17-2.17,1.17-1.54,0-2.73-1.21-2.73-3.01s1.19-2.97,2.75-2.97Zm.19,.83c-1.06,0-1.95,.77-1.95,2.13s.9,2.16,1.95,2.16,1.96-.79,1.96-2.15-.91-2.14-1.96-2.14Z"/><path class="k" d="M458.62,11.75h.96v7.81h-.96v-7.81Z"/><path class="k" d="M461.06,12.19c0-.37,.29-.65,.66-.65,.35,0,.63,.29,.63,.65s-.29,.65-.63,.65c-.37,0-.66-.28-.66-.65Zm.16,1.59h.96v5.79h-.96v-5.79Z"/><path class="k" d="M466.2,13.69c1.08,0,1.82,.55,2.15,1.15v-1.06h.97v5.79h-.97v-1.08c-.35,.62-1.1,1.17-2.17,1.17-1.54,0-2.73-1.21-2.73-3.01s1.19-2.97,2.75-2.97Zm.19,.83c-1.06,0-1.95,.77-1.95,2.13s.9,2.16,1.95,2.16,1.96-.79,1.96-2.15-.91-2.14-1.96-2.14Z"/><path class="k" d="M473.42,13.69c1.44,0,2.38,.74,2.67,1.95h-1.03c-.2-.7-.78-1.14-1.64-1.14-1.06,0-1.84,.75-1.84,2.17s.78,2.19,1.84,2.19c.86,0,1.43-.41,1.64-1.14h1.03c-.27,1.07-1.11,1.84-2.38,1.94v.53c.81-.01,1.36,.35,1.36,1.05s-.54,1.09-1.29,1.09h-1.21v-.62h1.02c.45,0,.68-.13,.68-.46s-.22-.45-.68-.45h-.53v-1.13c-1.46-.15-2.47-1.28-2.47-2.98,0-1.82,1.17-2.98,2.82-2.98Z"/><path class="k" d="M479.75,13.69c1.08,0,1.82,.55,2.15,1.15v-1.06h.97v5.79h-.97v-1.08c-.35,.62-1.1,1.17-2.17,1.17-1.54,0-2.73-1.21-2.73-3.01s1.19-2.97,2.75-2.97Zm.19,.83c-1.06,0-1.95,.77-1.95,2.13s.9,2.16,1.95,2.16,1.96-.79,1.96-2.15-.91-2.14-1.96-2.14Zm-.31-2.47c.56,0,.77,.49,1.2,.49,.23,0,.42-.15,.46-.45h.55c-.08,.72-.51,1.1-1.06,1.1s-.78-.49-1.2-.49c-.23,0-.41,.15-.45,.46h-.56c.11-.73,.51-1.11,1.06-1.11Z"/><path class="k" d="M487.03,19.66c-1.64,0-2.88-1.16-2.88-3s1.29-2.98,2.92-2.98,2.92,1.15,2.92,2.98-1.32,3-2.97,3Zm0-.84c1,0,1.98-.69,1.98-2.15s-.96-2.14-1.95-2.14-1.93,.69-1.93,2.14,.9,2.15,1.9,2.15Z"/><path class="k" d="M496.48,13.69c.91,0,1.74,.46,2.14,1.13v-3.06h.97v7.81h-.97v-1.09c-.35,.64-1.1,1.18-2.15,1.18-1.55,0-2.75-1.21-2.75-3.01s1.19-2.97,2.76-2.97Zm.18,.83c-1.06,0-1.95,.77-1.95,2.13s.9,2.16,1.95,2.16,1.96-.79,1.96-2.15-.91-2.14-1.96-2.14Z"/><path class="k" d="M503.73,19.66c-1.65,0-2.86-1.16-2.86-3s1.17-2.98,2.86-2.98,2.78,1.18,2.78,2.77c0,.21-.01,.38-.03,.58h-4.62c.07,1.17,.9,1.82,1.88,1.82,.87,0,1.42-.44,1.63-1.07h1.04c-.3,1.06-1.22,1.88-2.66,1.88Zm-1.87-3.41h3.65c.01-1.13-.83-1.75-1.83-1.75-.94,0-1.72,.62-1.83,1.75Z"/><path class="k" d="M512.99,13.69c.91,0,1.74,.46,2.14,1.13v-3.06h.97v7.81h-.97v-1.09c-.35,.64-1.1,1.18-2.15,1.18-1.55,0-2.75-1.21-2.75-3.01s1.19-2.97,2.76-2.97Zm.18,.83c-1.06,0-1.95,.77-1.95,2.13s.9,2.16,1.95,2.16,1.96-.79,1.96-2.15-.91-2.14-1.96-2.14Z"/><path class="k" d="M520.24,19.66c-1.65,0-2.86-1.16-2.86-3s1.17-2.98,2.86-2.98,2.78,1.18,2.78,2.77c0,.21-.01,.38-.03,.58h-4.62c.07,1.17,.9,1.82,1.88,1.82,.87,0,1.42-.44,1.63-1.07h1.04c-.3,1.06-1.22,1.88-2.66,1.88Zm-1.87-3.41h3.65c.01-1.13-.83-1.75-1.83-1.75-.94,0-1.72,.62-1.83,1.75Z"/><path class="k" d="M526.33,19.66c-1.35,0-2.3-.74-2.37-1.79h.99c.05,.56,.55,.98,1.36,.98,.76,0,1.18-.38,1.18-.86,0-1.29-3.42-.54-3.42-2.69,0-.89,.83-1.62,2.12-1.62s2.12,.69,2.19,1.82h-.96c-.04-.58-.49-1-1.26-1-.71,0-1.13,.34-1.13,.8,0,1.37,3.36,.62,3.4,2.69,0,.95-.83,1.67-2.11,1.67Z"/><path class="k" d="M532.3,19.66c-1.65,0-2.86-1.16-2.86-3s1.17-2.98,2.86-2.98,2.78,1.18,2.78,2.77c0,.21-.01,.38-.03,.58h-4.62c.07,1.17,.9,1.82,1.88,1.82,.87,0,1.42-.44,1.63-1.07h1.04c-.3,1.06-1.22,1.88-2.66,1.88Zm-1.87-3.41h3.65c.01-1.13-.83-1.75-1.83-1.75-.94,0-1.72,.62-1.83,1.75Z"/><path class="k" d="M540.58,16.29c0-1.18-.64-1.78-1.62-1.78s-1.66,.61-1.66,1.86v3.2h-.96v-5.79h.96v.82c.38-.6,1.08-.93,1.86-.93,1.34,0,2.37,.82,2.37,2.48v3.41h-.95v-3.27Z"/><path class="k" d="M543.1,11.75h.96v2.86c.38-.61,1.1-.94,1.91-.94,1.29,0,2.31,.82,2.31,2.48v3.41h-.95v-3.27c0-1.18-.64-1.78-1.62-1.78s-1.66,.61-1.66,1.86v3.2h-.96v-7.81Z"/><path class="k" d="M552.39,19.66c-1.64,0-2.88-1.16-2.88-3s1.29-2.98,2.92-2.98,2.92,1.15,2.92,2.98-1.32,3-2.97,3Zm0-.84c1,0,1.99-.69,1.99-2.15s-.96-2.14-1.95-2.14-1.93,.69-1.93,2.14,.9,2.15,1.9,2.15Z"/></g><g><path class="k" d="M286.79,153.93h-3.21l-.59,1.64h-1.01l2.66-7.32h1.11l2.65,7.32h-1.01l-.59-1.64Zm-1.6-4.5l-1.33,3.72h2.66l-1.33-3.72Z"/><path class="k" d="M289.9,149.78l1.81,4.9,1.79-4.9h1.02l-2.27,5.79h-1.12l-2.27-5.79h1.03Z"/><path class="k" d="M297.87,149.69c1.08,0,1.82,.55,2.15,1.15v-1.06h.97v5.79h-.97v-1.08c-.35,.62-1.1,1.17-2.17,1.17-1.54,0-2.73-1.21-2.73-3.01s1.19-2.97,2.75-2.97Zm.19,.83c-1.06,0-1.95,.77-1.95,2.13s.9,2.16,1.95,2.16,1.96-.79,1.96-2.15-.91-2.14-1.96-2.14Z"/><path class="k" d="M302.62,147.75h.96v7.81h-.96v-7.81Z"/><path class="k" d="M305.06,148.19c0-.37,.29-.65,.66-.65,.35,0,.63,.29,.63,.65s-.29,.65-.63,.65c-.37,0-.66-.28-.66-.65Zm.16,1.59h.96v5.79h-.96v-5.79Z"/><path class="k" d="M310.2,149.69c1.08,0,1.82,.55,2.15,1.15v-1.06h.97v5.79h-.97v-1.08c-.35,.62-1.1,1.17-2.17,1.17-1.54,0-2.73-1.21-2.73-3.01s1.19-2.97,2.75-2.97Zm.19,.83c-1.06,0-1.95,.77-1.95,2.13s.9,2.16,1.95,2.16,1.96-.79,1.96-2.15-.91-2.14-1.96-2.14Z"/><path class="k" d="M317.42,149.69c1.44,0,2.38,.74,2.67,1.95h-1.03c-.2-.7-.78-1.14-1.64-1.14-1.06,0-1.84,.75-1.84,2.17s.78,2.19,1.84,2.19c.86,0,1.43-.41,1.64-1.14h1.03c-.27,1.07-1.11,1.84-2.38,1.94v.53c.81-.01,1.36,.35,1.36,1.05s-.54,1.09-1.29,1.09h-1.21v-.62h1.02c.45,0,.68-.13,.68-.46s-.22-.45-.68-.45h-.53v-1.13c-1.46-.15-2.47-1.28-2.47-2.98,0-1.82,1.17-2.98,2.82-2.98Z"/><path class="k" d="M323.75,149.69c1.08,0,1.82,.55,2.15,1.15v-1.06h.97v5.79h-.97v-1.08c-.35,.62-1.1,1.17-2.17,1.17-1.54,0-2.73-1.21-2.73-3.01s1.19-2.97,2.75-2.97Zm.19,.83c-1.06,0-1.95,.77-1.95,2.13s.9,2.16,1.95,2.16,1.96-.79,1.96-2.15-.91-2.14-1.96-2.14Zm-.31-2.47c.56,0,.77,.49,1.2,.49,.23,0,.42-.15,.46-.45h.55c-.08,.72-.51,1.1-1.06,1.1s-.78-.49-1.2-.49c-.23,0-.41,.15-.45,.46h-.56c.11-.73,.51-1.11,1.06-1.11Z"/><path class="k" d="M331.03,155.66c-1.64,0-2.88-1.16-2.88-3s1.29-2.98,2.92-2.98,2.92,1.15,2.92,2.98-1.32,3-2.97,3Zm0-.84c1,0,1.98-.69,1.98-2.15s-.96-2.14-1.95-2.14-1.93,.69-1.93,2.14,.9,2.15,1.9,2.15Z"/><path class="k" d="M340.48,149.69c.91,0,1.74,.46,2.14,1.13v-3.06h.97v7.81h-.97v-1.09c-.35,.64-1.1,1.18-2.15,1.18-1.55,0-2.75-1.21-2.75-3.01s1.19-2.97,2.76-2.97Zm.18,.83c-1.06,0-1.95,.77-1.95,2.13s.9,2.16,1.95,2.16,1.96-.79,1.96-2.15-.91-2.14-1.96-2.14Z"/><path class="k" d="M347.73,155.66c-1.65,0-2.86-1.16-2.86-3s1.17-2.98,2.86-2.98,2.78,1.18,2.78,2.77c0,.21-.01,.38-.03,.58h-4.62c.07,1.17,.9,1.82,1.88,1.82,.87,0,1.42-.44,1.63-1.07h1.04c-.3,1.06-1.22,1.88-2.66,1.88Zm-1.87-3.41h3.65c.01-1.13-.83-1.75-1.83-1.75-.94,0-1.72,.62-1.83,1.75Z"/><path class="k" d="M355.55,155.57h-.96v-5.79h.96v.94c.33-.64,.95-1.04,1.87-1.04v.99h-.25c-.92,0-1.62,.41-1.62,1.75v3.15Z"/><path class="k" d="M361.04,155.66c-1.65,0-2.86-1.16-2.86-3s1.17-2.98,2.86-2.98,2.78,1.18,2.78,2.77c0,.21-.01,.38-.03,.58h-4.62c.07,1.17,.9,1.82,1.88,1.82,.87,0,1.42-.44,1.63-1.07h1.04c-.3,1.06-1.22,1.88-2.66,1.88Zm-1.87-3.41h3.65c.01-1.13-.83-1.75-1.83-1.75-.94,0-1.72,.62-1.83,1.75Z"/><path class="k" d="M367.13,155.66c-1.35,0-2.3-.74-2.37-1.79h.99c.05,.56,.55,.98,1.36,.98,.76,0,1.18-.38,1.18-.86,0-1.29-3.42-.54-3.42-2.69,0-.89,.83-1.62,2.12-1.62s2.12,.69,2.19,1.82h-.96c-.04-.58-.49-1-1.26-1-.71,0-1.13,.34-1.13,.8,0,1.37,3.36,.62,3.4,2.69,0,.95-.83,1.67-2.11,1.67Z"/><path class="k" d="M375.72,155.57h-.96v-.86c-.37,.6-1.08,.94-1.85,.94-1.33,0-2.38-.82-2.38-2.48v-3.39h.95v3.26c0,1.17,.64,1.77,1.62,1.77s1.66-.61,1.66-1.86v-3.18h.96v5.79Z"/><path class="k" d="M377.35,147.75h.96v7.81h-.96v-7.81Z"/><path class="k" d="M380.16,150.57h-.75v-.79h.75v-1.46h.96v1.46h1.51v.79h-1.51v3.41c0,.57,.21,.77,.8,.77h.71v.81h-.87c-1.02,0-1.6-.42-1.6-1.58v-3.41Z"/><path class="k" d="M386.18,149.69c1.08,0,1.82,.55,2.15,1.15v-1.06h.97v5.79h-.97v-1.08c-.35,.62-1.1,1.17-2.17,1.17-1.54,0-2.73-1.21-2.73-3.01s1.19-2.97,2.75-2.97Zm.19,.83c-1.06,0-1.95,.77-1.95,2.13s.9,2.16,1.95,2.16,1.96-.79,1.96-2.15-.91-2.14-1.96-2.14Z"/><path class="k" d="M393.33,149.69c.91,0,1.74,.46,2.14,1.13v-3.06h.97v7.81h-.97v-1.09c-.35,.64-1.1,1.18-2.15,1.18-1.55,0-2.75-1.21-2.75-3.01s1.19-2.97,2.76-2.97Zm.18,.83c-1.06,0-1.95,.77-1.95,2.13s.9,2.16,1.95,2.16,1.96-.79,1.96-2.15-.91-2.14-1.96-2.14Z"/><path class="k" d="M400.6,155.66c-1.64,0-2.88-1.16-2.88-3s1.29-2.98,2.92-2.98,2.92,1.15,2.92,2.98-1.32,3-2.97,3Zm0-.84c1,0,1.98-.69,1.98-2.15s-.96-2.14-1.95-2.14-1.93,.69-1.93,2.14,.9,2.15,1.9,2.15Z"/><path class="k" d="M406.88,155.66c-1.35,0-2.3-.74-2.37-1.79h.99c.05,.56,.55,.98,1.36,.98,.76,0,1.18-.38,1.18-.86,0-1.29-3.42-.54-3.42-2.69,0-.89,.83-1.62,2.12-1.62s2.12,.69,2.19,1.82h-.96c-.04-.58-.49-1-1.26-1-.71,0-1.13,.34-1.13,.8,0,1.37,3.36,.62,3.4,2.69,0,.95-.83,1.67-2.11,1.67Z"/><path class="k" d="M415.67,155.66c-1.65,0-2.86-1.16-2.86-3s1.17-2.98,2.86-2.98,2.78,1.18,2.78,2.77c0,.21-.01,.38-.03,.58h-4.62c.07,1.17,.9,1.82,1.88,1.82,.87,0,1.42-.44,1.63-1.07h1.04c-.3,1.06-1.22,1.88-2.66,1.88Zm-1.87-3.41h3.65c.01-1.13-.83-1.75-1.83-1.75-.94,0-1.72,.62-1.83,1.75Z"/><path class="k" d="M422.38,148.19c0-.37,.29-.65,.66-.65,.35,0,.63,.29,.63,.65s-.28,.65-.63,.65c-.37,0-.66-.28-.66-.65Zm.16,1.59h.96v5.79h-.96v-5.79Z"/><path class="k" d="M433.49,152.29c0-1.18-.63-1.78-1.58-1.78s-1.64,.62-1.64,1.87v3.19h-.95v-3.27c0-1.18-.63-1.78-1.58-1.78s-1.64,.62-1.64,1.87v3.19h-.96v-5.79h.96v.83c.38-.61,1.07-.94,1.83-.94,.95,0,1.74,.42,2.12,1.29,.34-.83,1.16-1.29,2.05-1.29,1.32,0,2.34,.82,2.34,2.48v3.41h-.95v-3.27Z"/><path class="k" d="M439.14,149.69c1.55,0,2.75,1.16,2.75,2.97s-1.19,3.01-2.75,3.01c-1.06,0-1.81-.57-2.16-1.16v3.81h-.96v-8.53h.96v1.07c.35-.61,1.11-1.16,2.16-1.16Zm-.2,.83c-1.05,0-1.96,.8-1.96,2.14s.92,2.15,1.96,2.15,1.96-.8,1.96-2.16-.9-2.13-1.96-2.13Z"/><path class="k" d="M445.54,149.69c1.08,0,1.82,.55,2.15,1.15v-1.06h.97v5.79h-.97v-1.08c-.35,.62-1.1,1.17-2.17,1.17-1.54,0-2.73-1.21-2.73-3.01s1.19-2.97,2.75-2.97Zm.19,.83c-1.06,0-1.95,.77-1.95,2.13s.9,2.16,1.95,2.16,1.96-.79,1.96-2.15-.91-2.14-1.96-2.14Z"/><path class="k" d="M452.75,149.69c1.44,0,2.38,.74,2.67,1.95h-1.03c-.2-.7-.78-1.14-1.64-1.14-1.06,0-1.84,.75-1.84,2.17s.78,2.19,1.84,2.19c.86,0,1.43-.41,1.64-1.14h1.03c-.29,1.15-1.24,1.95-2.67,1.95-1.65,0-2.82-1.16-2.82-3s1.17-2.98,2.82-2.98Z"/><path class="k" d="M456.91,150.57h-.75v-.79h.75v-1.46h.96v1.46h1.51v.79h-1.51v3.41c0,.57,.21,.77,.8,.77h.71v.81h-.87c-1.02,0-1.6-.42-1.6-1.58v-3.41Z"/><path class="k" d="M463.07,155.66c-1.64,0-2.88-1.16-2.88-3s1.29-2.98,2.92-2.98,2.92,1.15,2.92,2.98-1.32,3-2.97,3Zm0-.84c1,0,1.99-.69,1.99-2.15s-.96-2.14-1.95-2.14-1.93,.69-1.93,2.14,.9,2.15,1.9,2.15Z"/><path class="k" d="M469.35,155.66c-1.35,0-2.3-.74-2.37-1.79h.99c.05,.56,.55,.98,1.36,.98,.76,0,1.18-.38,1.18-.86,0-1.29-3.42-.54-3.42-2.69,0-.89,.83-1.62,2.12-1.62s2.12,.69,2.19,1.82h-.96c-.04-.58-.49-1-1.26-1-.71,0-1.13,.34-1.13,.8,0,1.37,3.36,.62,3.4,2.69,0,.95-.83,1.67-2.11,1.67Z"/></g><path class="j" d="M226.27,60H77.27V25H226.27V60Zm-148-1H225.27V26H78.27V59Z"/><path class="j" d="M235.77,271.5H86.77v-23H235.77v23Zm-148-1H234.77v-21H87.77v21Z"/><path class="j" d="M576.77,288.5h-149v-23h149v23Zm-148-1h147v-21h-147v21Z"/><path class="j" d="M576.77,28.5h-149V5.5h149V28.5Zm-148-1h147V6.5h-147V27.5Z"/><path class="j" d="M477.77,164.5h-205v-23h205v23Zm-204-1h203v-21h-203v21Z"/></svg>