<?xml version="1.0" encoding="UTF-8"?><svg id="a" xmlns="http://www.w3.org/2000/svg" viewBox="0 0 671.55 318.43"><defs><style>.d{fill:#fff;}.e{fill:#4d4d4d;}.f{fill:#3f6b71;}.g{fill:#506d8f;}.h{fill:#869fb2;}</style></defs><rect class="f" x="43.78" y="33" width="308.26" height="37.17"/><g><path class="d" d="M81.15,47.36h3v10.81h-3v-10.81Z"/><path class="d" d="M95.79,52.76c0,3.13-2.19,5.41-5.64,5.41h-4.28v-10.81h4.28c3.45,0,5.64,2.22,5.64,5.4Zm-5.87,2.76c1.73,0,2.82-.98,2.82-2.76s-1.09-2.79-2.82-2.79h-1.04v5.55h1.04Z"/><path class="d" d="M104.06,49.77h-3.91v1.76h3.45v2.28h-3.45v1.95h3.91v2.41h-6.91v-10.81h6.91v2.41Z"/><path class="d" d="M115.56,47.36v10.81h-3l-4-6.04v6.04h-3v-10.81h3l4,6.12v-6.12h3Z"/><path class="d" d="M116.69,47.36h8.74v2.39h-2.88v8.42h-3v-8.42h-2.85v-2.39Z"/><path class="d" d="M126.55,47.36h3v10.81h-3v-10.81Z"/><path class="d" d="M131.27,47.36h7.33v2.39h-4.32v1.9h3.19v2.28h-3.19v4.23h-3v-10.81Z"/><path class="d" d="M139.88,47.36h3v10.81h-3v-10.81Z"/><path class="d" d="M149.62,47.26c2.71,0,4.64,1.56,5.18,4.02h-3.24c-.38-.81-1.1-1.26-1.99-1.26-1.38,0-2.28,1.07-2.28,2.73s.9,2.74,2.28,2.74c.89,0,1.61-.44,1.99-1.26h3.24c-.54,2.45-2.47,4.02-5.18,4.02-3.25,0-5.38-2.27-5.38-5.5s2.13-5.49,5.38-5.49Z"/><path class="d" d="M163.06,56.41h-3.83l-.58,1.76h-3.16l3.94-10.81h3.46l3.92,10.81h-3.17l-.58-1.76Zm-1.92-5.79l-1.15,3.49h2.31l-1.16-3.49Z"/><path class="d" d="M172.82,47.26c2.71,0,4.64,1.56,5.18,4.02h-3.24c-.38-.81-1.1-1.26-1.99-1.26-1.38,0-2.28,1.07-2.28,2.73s.9,2.74,2.28,2.74c.89,0,1.61-.44,1.99-1.26h3.24c-.48,2.16-2.02,3.62-4.23,3.96v.55c.83,0,1.99,.44,1.99,1.81s-1.18,1.82-2.22,1.82h-2.5v-1.58h2.15c.32,0,.51-.11,.51-.32,0-.23-.18-.32-.51-.32h-1.19v-1.95c-2.77-.35-4.55-2.5-4.55-5.46,0-3.22,2.13-5.49,5.38-5.49Z"/><path class="d" d="M186.27,56.41h-3.83l-.58,1.76h-3.16l3.94-10.81h3.46l3.92,10.81h-3.17l-.58-1.76Zm-2.94-12.23c.95,0,1.49,.71,2.1,.71,.37,0,.6-.23,.67-.71h1.52c-.31,1.79-1.13,2.48-2.3,2.48-.95,0-1.49-.69-2.1-.69-.37,0-.6,.21-.69,.71h-1.5c.31-1.79,1.13-2.5,2.3-2.5Zm1.03,6.44l-1.15,3.49h2.31l-1.16-3.49Z"/><path class="d" d="M196.19,58.28c-3.07,0-5.55-2.3-5.55-5.55s2.48-5.53,5.55-5.53,5.53,2.28,5.53,5.53-2.47,5.55-5.53,5.55Zm0-2.79c1.55,0,2.48-1.09,2.48-2.76s-.93-2.77-2.48-2.77-2.48,1.07-2.48,2.77,.92,2.76,2.48,2.76Z"/><path class="d" d="M215.93,52.76c0,3.13-2.19,5.41-5.64,5.41h-4.28v-10.81h4.28c3.45,0,5.64,2.22,5.64,5.4Zm-5.87,2.76c1.73,0,2.82-.98,2.82-2.76s-1.09-2.79-2.82-2.79h-1.04v5.55h1.04Z"/><path class="d" d="M222.46,58.28c-3.07,0-5.55-2.3-5.55-5.55s2.48-5.53,5.55-5.53,5.53,2.28,5.53,5.53-2.47,5.55-5.53,5.55Zm0-2.79c1.55,0,2.48-1.09,2.48-2.76s-.93-2.77-2.48-2.77-2.48,1.07-2.48,2.77,.92,2.76,2.48,2.76Z"/><path class="d" d="M236.77,54.52h-1.49v3.65h-3v-10.81h4.49c2.68,0,4.05,1.52,4.05,3.6,0,1.89-1.3,3.56-4.05,3.56Zm-.29-2.39c.9,0,1.27-.46,1.27-1.16s-.37-1.18-1.27-1.18h-1.2v2.35h1.2Z"/><path class="d" d="M246.77,47.36c2.68,0,4.03,1.53,4.03,3.46,0,1.41-.77,2.64-2.38,3.13l2.44,4.22h-3.36l-2.15-3.99h-.32v3.99h-3v-10.81h4.74Zm-.25,2.51h-1.49v2.25h1.49c.81,0,1.23-.4,1.23-1.13,0-.67-.41-1.12-1.23-1.12Z"/><path class="d" d="M257.36,58.28c-3.07,0-5.55-2.3-5.55-5.55s2.48-5.53,5.55-5.53,5.53,2.28,5.53,5.53-2.47,5.55-5.53,5.55Zm0-2.79c1.55,0,2.48-1.09,2.48-2.76s-.93-2.77-2.48-2.77-2.48,1.07-2.48,2.77,.92,2.76,2.48,2.76Z"/><path class="d" d="M269.59,58.17h-5.35v-10.81h5.18c2.19,0,3.54,1.01,3.54,2.81,0,1.3-.77,2.16-1.82,2.45,1.29,.29,2.07,1.38,2.07,2.61,0,1.82-1.3,2.94-3.62,2.94Zm-.83-8.42h-1.52v1.9h1.52c.74,0,1.13-.31,1.13-.93s-.4-.97-1.13-.97Zm.21,4.03h-1.73v1.96h1.75c.75,0,1.13-.31,1.13-.95s-.41-1.01-1.15-1.01Z"/><path class="d" d="M277.54,47.36v8.51h3.36v2.3h-6.36v-10.81h3Z"/><path class="d" d="M288.98,49.77h-3.91v1.76h3.45v2.28h-3.45v1.95h3.91v2.41h-6.91v-10.81h6.91v2.41Z"/><path class="d" d="M290.47,47.36h3.63l2.71,7.02,2.65-7.02h3.62v10.81h-3v-5.96l-2.04,5.96h-2.51l-2.05-6.01v6.01h-3v-10.81Z"/><path class="d" d="M311.65,56.41h-3.83l-.58,1.76h-3.16l3.94-10.81h3.46l3.92,10.81h-3.17l-.58-1.76Zm-1.92-5.79l-1.15,3.49h2.31l-1.16-3.49Z"/></g><g><path class="f" d="M97.65,10.19c2.71,0,4.64,1.56,5.18,4.02h-3.23c-.38-.81-1.1-1.26-1.99-1.26-1.38,0-2.28,1.07-2.28,2.73s.9,2.74,2.28,2.74c.89,0,1.61-.44,1.99-1.26h3.23c-.54,2.45-2.47,4.02-5.18,4.02-3.25,0-5.38-2.27-5.38-5.5s2.13-5.49,5.38-5.49Z"/><path class="f" d="M108.26,21.21c-2.56,0-4.49-1.67-4.49-4.41s1.95-4.4,4.51-4.4,4.51,1.67,4.51,4.4-1.96,4.41-4.52,4.41Zm0-2.61c.77,0,1.47-.57,1.47-1.81s-.69-1.79-1.46-1.79-1.44,.57-1.44,1.79,.64,1.81,1.43,1.81Z"/><path class="f" d="M119.87,16.49c0-1-.55-1.58-1.41-1.58s-1.44,.58-1.44,1.58v4.61h-3V12.51h3v1.23c.51-.74,1.41-1.3,2.62-1.3,1.99,0,3.23,1.41,3.23,3.66v5.01h-3v-4.61Z"/><path class="f" d="M125.01,15h-1.06v-2.5h1.06v-2.08h3.02v2.08h1.56v2.5h-1.56v2.88c0,.46,.2,.66,.71,.66h.87v2.56h-1.3c-1.9,0-3.3-.8-3.3-3.27v-2.84Z"/><path class="f" d="M134.87,21.21c-2.54,0-4.37-1.67-4.37-4.41s1.79-4.4,4.37-4.4,4.34,1.64,4.34,4.31c0,.23-.02,.47-.05,.7h-5.69c.06,1,.6,1.4,1.27,1.4,.58,0,.9-.32,1.07-.67h3.2c-.4,1.76-2.01,3.08-4.15,3.08Zm-1.38-5.26h2.65c0-.77-.6-1.18-1.29-1.18s-1.23,.4-1.36,1.18Z"/><path class="f" d="M144.25,18.94l-1.23,2.16h-3.3l2.87-4.46-2.99-4.14h3.37l1.55,2.16,1.24-2.16h3.3l-2.93,4.38,3.03,4.22h-3.37l-1.55-2.16Z"/><path class="f" d="M150.54,15h-1.06v-2.5h1.06v-2.08h3.02v2.08h1.56v2.5h-1.56v2.88c0,.46,.2,.66,.71,.66h.87v2.56h-1.3c-1.9,0-3.3-.8-3.3-3.27v-2.84Z"/><path class="f" d="M160.53,21.21c-2.56,0-4.49-1.67-4.49-4.41s1.95-4.4,4.51-4.4,4.51,1.67,4.51,4.4-1.96,4.41-4.52,4.41Zm0-2.61c.77,0,1.47-.57,1.47-1.81s-.69-1.79-1.46-1.79-1.44,.57-1.44,1.79,.64,1.81,1.43,1.81Z"/><path class="f" d="M168.96,10.18c0-.87,.69-1.56,1.76-1.56s1.75,.69,1.75,1.56-.69,1.53-1.75,1.53-1.76-.67-1.76-1.53Zm.25,2.33h3v8.6h-3V12.51Z"/><path class="f" d="M179.79,16.49c0-1-.55-1.58-1.41-1.58s-1.44,.58-1.44,1.58v4.61h-3V12.51h3v1.23c.51-.74,1.41-1.3,2.62-1.3,1.99,0,3.23,1.41,3.23,3.66v5.01h-3v-4.61Z"/><path class="f" d="M184.93,15h-1.06v-2.5h1.06v-2.08h3.02v2.08h1.56v2.5h-1.56v2.88c0,.46,.2,.66,.71,.66h.87v2.56h-1.3c-1.9,0-3.3-.8-3.3-3.27v-2.84Z"/><path class="f" d="M194.79,21.21c-2.54,0-4.37-1.67-4.37-4.41s1.79-4.4,4.37-4.4,4.34,1.64,4.34,4.31c0,.23-.01,.47-.04,.7h-5.69c.06,1,.6,1.4,1.27,1.4,.58,0,.9-.32,1.07-.67h3.2c-.4,1.76-2.01,3.08-4.15,3.08Zm-1.38-5.26h2.65c0-.77-.6-1.18-1.29-1.18s-1.23,.4-1.36,1.18Z"/><path class="f" d="M203.36,21.11h-3V12.51h3v1.52c.64-.93,1.63-1.59,2.77-1.59v3.2h-.84c-1.24,0-1.93,.4-1.93,1.72v3.76Z"/><path class="f" d="M213.07,16.49c0-1-.55-1.58-1.41-1.58s-1.44,.58-1.44,1.58v4.61h-3V12.51h3v1.23c.51-.74,1.41-1.3,2.62-1.3,1.99,0,3.23,1.41,3.23,3.66v5.01h-3v-4.61Z"/><path class="f" d="M221.74,21.21c-2.56,0-4.49-1.67-4.49-4.41s1.95-4.4,4.51-4.4,4.51,1.67,4.51,4.4-1.96,4.41-4.52,4.41Zm0-2.61c.77,0,1.47-.57,1.47-1.81s-.69-1.79-1.46-1.79-1.44,.57-1.44,1.79,.64,1.81,1.43,1.81Z"/><path class="f" d="M234.3,21.21c-2.54,0-4.37-1.67-4.37-4.41s1.79-4.4,4.37-4.4,4.34,1.64,4.34,4.31c0,.23-.01,.47-.04,.7h-5.69c.06,1,.6,1.4,1.27,1.4,.58,0,.9-.32,1.07-.67h3.2c-.4,1.76-2.01,3.08-4.15,3.08Zm-1.38-5.26h2.65c0-.77-.6-1.18-1.29-1.18s-1.23,.4-1.36,1.18Z"/><path class="f" d="M246.67,21.21c-2.54,0-4.37-1.67-4.37-4.41s1.79-4.4,4.37-4.4,4.34,1.64,4.34,4.31c0,.23-.01,.47-.04,.7h-5.69c.06,1,.6,1.4,1.27,1.4,.58,0,.9-.32,1.07-.67h3.2c-.4,1.76-2.01,3.08-4.15,3.08Zm-1.38-5.26h2.65c0-.77-.6-1.18-1.29-1.18s-1.23,.4-1.36,1.18Z"/><path class="f" d="M256.06,18.94l-1.23,2.16h-3.3l2.87-4.46-2.99-4.14h3.37l1.55,2.16,1.24-2.16h3.3l-2.93,4.38,3.04,4.22h-3.37l-1.55-2.16Z"/><path class="f" d="M262.35,15h-1.06v-2.5h1.06v-2.08h3.02v2.08h1.56v2.5h-1.56v2.88c0,.46,.2,.66,.71,.66h.87v2.56h-1.3c-1.9,0-3.3-.8-3.3-3.27v-2.84Z"/><path class="f" d="M272.21,21.21c-2.54,0-4.37-1.67-4.37-4.41s1.79-4.4,4.37-4.4,4.34,1.64,4.34,4.31c0,.23-.02,.47-.05,.7h-5.69c.06,1,.6,1.4,1.27,1.4,.58,0,.9-.32,1.07-.67h3.2c-.4,1.76-2.01,3.08-4.15,3.08Zm-1.38-5.26h2.65c0-.77-.6-1.18-1.29-1.18s-1.23,.4-1.36,1.18Z"/><path class="f" d="M280.78,21.11h-3V12.51h3v1.52c.64-.93,1.63-1.59,2.77-1.59v3.2h-.84c-1.24,0-1.93,.4-1.93,1.72v3.76Z"/><path class="f" d="M290.49,16.49c0-1-.55-1.58-1.41-1.58s-1.44,.58-1.44,1.58v4.61h-3V12.51h3v1.23c.51-.74,1.41-1.3,2.62-1.3,1.99,0,3.23,1.41,3.23,3.66v5.01h-3v-4.61Z"/><path class="f" d="M299.16,21.21c-2.56,0-4.49-1.67-4.49-4.41s1.95-4.4,4.51-4.4,4.51,1.67,4.51,4.4-1.96,4.41-4.52,4.41Zm0-2.61c.77,0,1.47-.57,1.47-1.81s-.69-1.79-1.46-1.79-1.44,.57-1.44,1.79,.64,1.81,1.43,1.81Z"/></g><g><path class="f" d="M108.75,108.47h2.15v10.7h-2.15v-10.7Z"/><path class="f" d="M118.96,114.48c0-1.36-.75-2.1-1.89-2.1s-1.92,.74-1.92,2.1v4.69h-2.15v-8.49h2.15v1.06c.55-.72,1.47-1.18,2.56-1.18,1.98,0,3.39,1.29,3.39,3.63v4.98h-2.15v-4.69Z"/><path class="f" d="M123.49,112.44h-1.01v-1.76h1.01v-2.1h2.16v2.1h1.9v1.76h-1.9v4.11c0,.57,.23,.81,.9,.81h1v1.81h-1.35c-1.63,0-2.71-.69-2.71-2.64v-4.09Z"/><path class="f" d="M132.81,119.31c-2.47,0-4.26-1.72-4.26-4.38s1.75-4.38,4.26-4.38,4.18,1.67,4.18,4.2c0,.28-.01,.55-.06,.83h-6.21c.11,1.26,.97,1.96,2.04,1.96,.92,0,1.43-.46,1.7-1.03h2.31c-.46,1.56-1.87,2.81-3.97,2.81Zm-2.07-5.18h4.03c-.03-1.12-.92-1.82-2.02-1.82-1.03,0-1.84,.66-2.01,1.82Z"/><path class="f" d="M140.71,119.17h-2.15v-8.49h2.15v1.32c.54-.87,1.43-1.44,2.61-1.44v2.25h-.57c-1.27,0-2.04,.49-2.04,2.13v4.23Z"/><path class="f" d="M146.16,110.68l2.15,6.51,2.15-6.51h2.28l-3.14,8.49h-2.61l-3.13-8.49h2.3Z"/><path class="f" d="M157.66,119.31c-2.47,0-4.26-1.72-4.26-4.38s1.75-4.38,4.26-4.38,4.18,1.67,4.18,4.2c0,.28-.01,.55-.06,.83h-6.21c.11,1.26,.97,1.96,2.04,1.96,.92,0,1.43-.46,1.7-1.03h2.31c-.46,1.56-1.87,2.81-3.97,2.81Zm-2.07-5.18h4.03c-.03-1.12-.92-1.82-2.02-1.82-1.03,0-1.84,.66-2.01,1.82Z"/><path class="f" d="M169.36,114.48c0-1.36-.75-2.1-1.89-2.1s-1.92,.74-1.92,2.1v4.69h-2.15v-8.49h2.15v1.06c.55-.72,1.47-1.18,2.56-1.18,1.98,0,3.39,1.29,3.39,3.63v4.98h-2.15v-4.69Z"/><path class="f" d="M177.2,110.54c2.12,0,3.54,1.1,4,3h-2.32c-.24-.72-.81-1.18-1.7-1.18-1.2,0-1.99,.9-1.99,2.56s.8,2.54,1.99,2.54c.89,0,1.44-.4,1.7-1.17h2.32c-.41,1.62-1.6,2.74-3.36,2.96v.6c1.03,0,1.99,.52,1.99,1.67s-.97,1.72-2.04,1.72h-2.18v-1.26h1.82c.46,0,.75-.11,.75-.49s-.29-.47-.75-.47h-.95v-1.76c-2.07-.31-3.49-1.93-3.49-4.34,0-2.67,1.75-4.38,4.2-4.38Z"/><path class="f" d="M186.11,110.54c1.36,0,2.3,.64,2.81,1.35v-1.21h2.16v8.49h-2.16v-1.24c-.51,.74-1.47,1.38-2.82,1.38-2.15,0-3.86-1.76-3.86-4.41s1.72-4.35,3.88-4.35Zm-.01-2.68c.87,0,1.27,.67,1.89,.67,.35,0,.6-.2,.66-.66h1.15c-.2,1.4-.92,2.01-1.9,2.01-.87,0-1.27-.69-1.89-.69-.35,0-.6,.21-.67,.67h-1.13c.2-1.4,.92-2.01,1.9-2.01Zm.57,4.57c-1.15,0-2.24,.86-2.24,2.47s1.09,2.53,2.24,2.53,2.25-.89,2.25-2.5-1.07-2.5-2.25-2.5Z"/><path class="f" d="M196.95,119.31c-2.45,0-4.31-1.72-4.31-4.38s1.92-4.38,4.37-4.38,4.37,1.7,4.37,4.38-1.96,4.38-4.43,4.38Zm0-1.87c1.13,0,2.22-.83,2.22-2.51s-1.06-2.51-2.19-2.51-2.16,.81-2.16,2.51,.98,2.51,2.13,2.51Z"/><path class="f" d="M206.61,104.65h2.1l-4.14,17.29h-2.1l4.14-17.29Z"/><path class="f" d="M214.36,115.06h-1.79v4.11h-2.15v-10.7h3.94c2.57,0,3.86,1.46,3.86,3.31,0,1.63-1.1,3.28-3.86,3.28Zm-.09-1.73c1.21,0,1.75-.6,1.75-1.55s-.54-1.56-1.75-1.56h-1.7v3.11h1.7Z"/><path class="f" d="M221.89,119.17h-2.15v-8.49h2.15v1.32c.54-.87,1.43-1.44,2.61-1.44v2.25h-.57c-1.27,0-2.04,.49-2.04,2.13v4.23Z"/><path class="f" d="M229.71,119.31c-2.45,0-4.31-1.72-4.31-4.38s1.92-4.38,4.37-4.38,4.37,1.7,4.37,4.38-1.96,4.38-4.43,4.38Zm0-1.87c1.13,0,2.22-.83,2.22-2.51s-1.06-2.51-2.19-2.51-2.16,.81-2.16,2.51,.98,2.51,2.13,2.51Z"/><path class="f" d="M239.05,110.54c1.33,0,2.3,.61,2.81,1.35v-1.21h2.16v8.55c0,2.3-1.41,4.12-4.2,4.12-2.39,0-4.06-1.2-4.28-3.14h2.13c.21,.77,1.01,1.27,2.08,1.27,1.18,0,2.1-.67,2.1-2.25v-1.32c-.51,.74-1.47,1.39-2.81,1.39-2.16,0-3.88-1.76-3.88-4.41s1.72-4.35,3.88-4.35Zm.55,1.89c-1.15,0-2.24,.86-2.24,2.47s1.09,2.53,2.24,2.53,2.25-.89,2.25-2.5-1.07-2.5-2.25-2.5Z"/><path class="f" d="M248.27,119.17h-2.15v-8.49h2.15v1.32c.54-.87,1.43-1.44,2.61-1.44v2.25h-.57c-1.27,0-2.04,.49-2.04,2.13v4.23Z"/><path class="f" d="M255.64,110.54c1.36,0,2.3,.64,2.81,1.35v-1.21h2.16v8.49h-2.16v-1.24c-.51,.74-1.47,1.38-2.82,1.38-2.15,0-3.86-1.76-3.86-4.41s1.72-4.35,3.88-4.35Zm.55,1.89c-1.15,0-2.24,.86-2.24,2.47s1.09,2.53,2.24,2.53,2.25-.89,2.25-2.5-1.07-2.5-2.25-2.5Z"/><path class="f" d="M274.6,114.48c0-1.35-.75-2.05-1.88-2.05s-1.9,.7-1.9,2.05v4.69h-2.15v-4.69c0-1.35-.75-2.05-1.89-2.05s-1.92,.7-1.92,2.05v4.69h-2.15v-8.49h2.15v1.03c.54-.71,1.44-1.15,2.5-1.15,1.32,0,2.41,.57,2.99,1.62,.55-.97,1.67-1.62,2.91-1.62,2.04,0,3.48,1.29,3.48,3.63v4.98h-2.15v-4.69Z"/><path class="f" d="M282.12,110.54c1.36,0,2.3,.64,2.81,1.35v-1.21h2.16v8.49h-2.16v-1.24c-.51,.74-1.47,1.38-2.82,1.38-2.15,0-3.86-1.76-3.86-4.41s1.72-4.35,3.88-4.35Zm.55,1.89c-1.15,0-2.24,.86-2.24,2.47s1.09,2.53,2.24,2.53,2.25-.89,2.25-2.5-1.07-2.5-2.25-2.5Z"/></g><g><path class="g" d="M85.95,276.24h7.85v1.73h-2.85v8.97h-2.15v-8.97h-2.85v-1.73Z"/><path class="g" d="M99.38,276.24c2.58,0,3.86,1.49,3.86,3.28,0,1.3-.72,2.62-2.44,3.08l2.56,4.34h-2.48l-2.36-4.17h-1.01v4.17h-2.15v-10.7h4.02Zm-.08,1.78h-1.79v3.14h1.79c1.2,0,1.73-.63,1.73-1.6s-.54-1.55-1.73-1.55Z"/><path class="g" d="M111.76,284.91h-4.26l-.71,2.04h-2.25l3.85-10.72h2.5l3.85,10.72h-2.27l-.7-2.04Zm-2.13-6.19l-1.55,4.48h3.1l-1.55-4.48Z"/><path class="g" d="M120.79,286.95h-4.61v-10.7h4.41c2.24,0,3.48,1.17,3.48,2.76,0,1.3-.78,2.12-1.82,2.45,1.21,.21,2.07,1.33,2.07,2.59,0,1.7-1.3,2.9-3.53,2.9Zm-.51-8.97h-1.96v2.68h1.96c1.01,0,1.59-.46,1.59-1.33s-.58-1.35-1.59-1.35Zm.15,4.34h-2.11v2.88h2.16c1.04,0,1.66-.51,1.66-1.41s-.66-1.47-1.7-1.47Z"/><path class="g" d="M132.6,284.91h-4.26l-.71,2.04h-2.25l3.85-10.72h2.5l3.85,10.72h-2.27l-.7-2.04Zm-2.13-6.19l-1.55,4.48h3.1l-1.55-4.48Z"/><path class="g" d="M139.17,276.24v9h3.53v1.7h-5.67v-10.7h2.15Z"/><path class="g" d="M150.79,282.39h-4.58v4.55h-2.15v-10.7h2.15v4.4h4.58v-4.4h2.15v10.7h-2.15v-4.55Z"/><path class="g" d="M160.02,287.05c-3.02,0-5.49-2.27-5.49-5.49s2.47-5.47,5.49-5.47,5.47,2.27,5.47,5.47-2.44,5.49-5.47,5.49Zm0-1.92c1.93,0,3.26-1.4,3.26-3.57s-1.33-3.54-3.26-3.54-3.28,1.36-3.28,3.54,1.33,3.57,3.28,3.57Z"/><path class="g" d="M174.69,282.84h-1.79v4.11h-2.15v-10.7h3.94c2.57,0,3.86,1.46,3.86,3.31,0,1.63-1.1,3.28-3.86,3.28Zm-.09-1.73c1.21,0,1.75-.6,1.75-1.55s-.54-1.56-1.75-1.56h-1.7v3.11h1.7Z"/><path class="g" d="M184.09,276.24c2.57,0,3.86,1.49,3.86,3.28,0,1.3-.72,2.62-2.44,3.08l2.56,4.34h-2.48l-2.36-4.17h-1.01v4.17h-2.15v-10.7h4.02Zm-.08,1.78h-1.79v3.14h1.79c1.2,0,1.73-.63,1.73-1.6s-.54-1.55-1.73-1.55Z"/><path class="g" d="M196.11,277.98h-4.06v2.68h3.6v1.7h-3.6v2.84h4.06v1.75h-6.21v-10.72h6.21v1.75Z"/><path class="g" d="M205.39,276.24h2.28l-3.92,10.7h-2.61l-3.92-10.7h2.3l2.94,8.51,2.93-8.51Z"/><path class="g" d="M208.96,276.24h2.15v10.7h-2.15v-10.7Z"/><path class="g" d="M216.92,287.05c-2.22,0-3.94-1.17-3.97-3.19h2.3c.06,.86,.63,1.43,1.62,1.43s1.61-.54,1.61-1.3c0-2.31-5.52-.92-5.5-4.8,0-1.93,1.56-3.1,3.77-3.1s3.69,1.12,3.83,3.05h-2.36c-.05-.71-.61-1.26-1.53-1.27-.84-.03-1.47,.38-1.47,1.26,0,2.15,5.49,.95,5.49,4.72,0,1.69-1.35,3.2-3.79,3.2Z"/><path class="g" d="M222,276.24h7.85v1.73h-2.85v8.97h-2.15v-8.97h-2.85v-1.73Z"/><path class="g" d="M236.38,287.05c-3.02,0-5.49-2.27-5.49-5.49s2.47-5.47,5.49-5.47,5.47,2.27,5.47,5.47-2.44,5.49-5.47,5.49Zm0-1.92c1.93,0,3.26-1.4,3.26-3.57s-1.33-3.54-3.26-3.54-3.28,1.36-3.28,3.54,1.33,3.57,3.28,3.57Z"/></g><g id="b"><path class="f" d="M197.92,92.56l5.03-5.03c.37-.37,.96-.37,1.33,0h0c.37,.38,.37,.98,0,1.36l-5.69,5.7c-.36,.36-.93,.37-1.31,.03l-5.74-5.73c-.37-.37-.38-.97,0-1.34,.37-.37,.97-.38,1.34,0h0l5.03,5.03h0Z"/></g><g><g><rect class="g" x="64.43" y="151.06" width="82.57" height="37.17"/><g><path class="d" d="M78.3,163.79h1.16v8.9h-1.16v-8.9Z"/><path class="d" d="M88.44,163.78v8.92h-1.16l-4.67-7.09v7.09h-1.16v-8.92h1.16l4.67,7.08v-7.08h1.16Z"/><path class="d" d="M93.25,172.78c-1.79,0-3.05-1-3.08-2.47h1.24c.08,.74,.6,1.48,1.84,1.48,1.12,0,1.79-.64,1.79-1.48,0-2.4-4.82-.87-4.82-4.18,0-1.47,1.19-2.47,2.95-2.47s2.81,.93,2.95,2.29h-1.28c-.08-.6-.64-1.28-1.72-1.29-.96-.03-1.71,.47-1.71,1.43,0,2.3,4.8,.87,4.8,4.16,0,1.26-1.03,2.52-2.96,2.52Z"/><path class="d" d="M97.9,163.79h1.16v5.63c0,1.64,.88,2.34,2.2,2.34s2.18-.7,2.18-2.34v-5.63h1.16v5.62c0,2.31-1.52,3.37-3.36,3.37s-3.35-1.06-3.35-3.37v-5.62Z"/><path class="d" d="M106.56,163.86h1.25l3.27,7.31,3.27-7.31h1.24v8.84h-1.16v-6.59l-2.94,6.59h-.82l-2.95-6.6v6.6h-1.16v-8.84Z"/><path class="d" d="M121.6,172.78c-2.5,0-4.47-1.88-4.47-4.55s1.97-4.55,4.47-4.55,4.47,1.88,4.47,4.55-1.95,4.55-4.47,4.55Zm0-1.01c1.88,0,3.28-1.37,3.28-3.54s-1.41-3.54-3.28-3.54-3.28,1.35-3.28,3.54,1.4,3.54,3.28,3.54Z"/><path class="d" d="M130.43,172.78c-1.79,0-3.05-1-3.08-2.47h1.24c.08,.74,.6,1.48,1.84,1.48,1.12,0,1.79-.64,1.79-1.48,0-2.4-4.82-.87-4.82-4.18,0-1.47,1.19-2.47,2.95-2.47s2.81,.93,2.95,2.29h-1.28c-.08-.6-.64-1.28-1.72-1.29-.96-.03-1.71,.47-1.71,1.43,0,2.3,4.8,.87,4.8,4.16,0,1.26-1.03,2.52-2.96,2.52Z"/></g></g><g><rect class="g" x="179.46" y="151.06" width="82.57" height="37.17"/><g><path class="d" d="M191.39,170.71h-3.88l-.72,1.98h-1.23l3.22-8.85h1.34l3.21,8.85h-1.23l-.72-1.98Zm-1.94-5.44l-1.61,4.5h3.22l-1.61-4.5Z"/><path class="d" d="M194.19,163.79h6.03v.95h-2.43v7.96h-1.16v-7.96h-2.44v-.95Z"/><path class="d" d="M201.66,163.79h1.16v8.9h-1.16v-8.9Z"/><path class="d" d="M210.93,163.79h1.23l-3.36,8.9h-1.34l-3.36-8.9h1.24l2.8,7.68,2.8-7.68Z"/><path class="d" d="M213.44,163.79h1.16v8.9h-1.16v-8.9Z"/><path class="d" d="M224.08,168.26c0,2.76-1.8,4.43-4.73,4.43h-2.77v-8.9h2.77c2.92,0,4.73,1.71,4.73,4.47Zm-4.73,3.47c2.32,0,3.54-1.3,3.54-3.47s-1.21-3.52-3.54-3.52h-1.61v7h1.61Z"/><path class="d" d="M230.88,170.71h-3.88l-.72,1.98h-1.23l3.22-8.85h1.34l3.21,8.85h-1.23l-.72-1.98Zm-1.94-5.44l-1.61,4.5h3.22l-1.61-4.5Z"/><path class="d" d="M241.73,168.26c0,2.76-1.8,4.43-4.73,4.43h-2.77v-8.9h2.77c2.92,0,4.73,1.71,4.73,4.47Zm-4.73,3.47c2.32,0,3.54-1.3,3.54-3.47s-1.21-3.52-3.54-3.52h-1.61v7h1.61Z"/><path class="d" d="M248.06,164.74h-3.63v2.98h3.24v.96h-3.24v3.07h3.63v.96h-4.79v-8.92h4.79v.96Z"/><path class="d" d="M252.65,172.78c-1.79,0-3.05-1-3.08-2.47h1.24c.08,.74,.6,1.48,1.84,1.48,1.12,0,1.79-.64,1.79-1.48,0-2.4-4.82-.87-4.82-4.18,0-1.47,1.19-2.47,2.95-2.47s2.81,.93,2.95,2.29h-1.28c-.08-.6-.64-1.28-1.72-1.29-.96-.03-1.71,.47-1.71,1.43,0,2.3,4.8,.87,4.8,4.16,0,1.26-1.03,2.52-2.96,2.52Z"/></g></g><g><rect class="g" x="294.49" y="151.06" width="82.57" height="37.17"/><g><path class="d" d="M305.96,168.98h-1.71v3.72h-1.16v-8.9h2.87c2.09,0,3.08,1.15,3.08,2.61,0,1.35-.87,2.58-3.08,2.58Zm0-.96c1.33,0,1.89-.63,1.89-1.62s-.56-1.65-1.89-1.65h-1.71v3.27h1.71Z"/><path class="d" d="M313.36,163.79c2.09,0,3.09,1.16,3.09,2.62,0,1.14-.63,2.22-2.12,2.55l2.24,3.73h-1.39l-2.12-3.64h-1.4v3.64h-1.16v-8.9h2.87Zm0,.96h-1.71v3.37h1.71c1.32,0,1.89-.72,1.89-1.71s-.56-1.66-1.89-1.66Z"/><path class="d" d="M322.29,172.78c-2.5,0-4.47-1.88-4.47-4.55s1.97-4.55,4.47-4.55,4.47,1.88,4.47,4.55-1.95,4.55-4.47,4.55Zm0-1.01c1.88,0,3.28-1.37,3.28-3.54s-1.41-3.54-3.28-3.54-3.28,1.35-3.28,3.54,1.4,3.54,3.28,3.54Z"/><path class="d" d="M335.8,168.26c0,2.76-1.8,4.43-4.73,4.43h-2.77v-8.9h2.77c2.92,0,4.73,1.71,4.73,4.47Zm-4.73,3.47c2.32,0,3.54-1.3,3.54-3.47s-1.21-3.52-3.54-3.52h-1.61v7h1.61Z"/><path class="d" d="M337.31,163.79h1.16v5.63c0,1.64,.88,2.34,2.2,2.34s2.18-.7,2.18-2.34v-5.63h1.16v5.62c0,2.31-1.52,3.37-3.36,3.37s-3.35-1.06-3.35-3.37v-5.62Z"/><path class="d" d="M345.42,163.79h6.03v.95h-2.43v7.96h-1.16v-7.96h-2.44v-.95Z"/><path class="d" d="M356.92,172.78c-2.5,0-4.47-1.88-4.47-4.55s1.97-4.55,4.47-4.55,4.47,1.88,4.47,4.55-1.95,4.55-4.47,4.55Zm0-1.01c1.88,0,3.28-1.37,3.28-3.54s-1.41-3.54-3.28-3.54-3.28,1.35-3.28,3.54,1.41,3.54,3.28,3.54Z"/><path class="d" d="M365.75,172.78c-1.79,0-3.05-1-3.08-2.47h1.24c.08,.74,.6,1.48,1.84,1.48,1.12,0,1.79-.64,1.79-1.48,0-2.4-4.82-.87-4.82-4.18,0-1.47,1.19-2.47,2.95-2.47s2.81,.93,2.95,2.29h-1.28c-.08-.6-.64-1.28-1.72-1.29-.96-.03-1.71,.47-1.71,1.43,0,2.3,4.8,.87,4.8,4.16,0,1.26-1.03,2.52-2.96,2.52Z"/></g></g><g><rect class="g" x="409.51" y="151.06" width="82.57" height="37.17"/><g><path class="d" d="M415.61,163.79c2.09,0,3.09,1.16,3.09,2.62,0,1.14-.63,2.22-2.12,2.55l2.24,3.73h-1.39l-2.12-3.64h-1.4v3.64h-1.16v-8.9h2.87Zm0,.96h-1.71v3.37h1.71c1.32,0,1.89-.72,1.89-1.71s-.56-1.66-1.89-1.66Z"/><path class="d" d="M425.3,164.74h-3.63v2.98h3.24v.96h-3.24v3.07h3.63v.96h-4.79v-8.92h4.79v.96Z"/><path class="d" d="M429.89,172.78c-1.79,0-3.05-1-3.08-2.47h1.24c.08,.74,.6,1.48,1.84,1.48,1.12,0,1.79-.64,1.79-1.48,0-2.4-4.82-.87-4.82-4.18,0-1.47,1.19-2.47,2.95-2.47s2.81,.93,2.95,2.29h-1.28c-.08-.6-.64-1.28-1.72-1.29-.96-.03-1.71,.47-1.71,1.43,0,2.3,4.8,.87,4.8,4.16,0,1.26-1.03,2.52-2.96,2.52Z"/><path class="d" d="M434.54,163.79h1.16v5.63c0,1.64,.88,2.34,2.2,2.34s2.18-.7,2.18-2.34v-5.63h1.16v5.62c0,2.31-1.52,3.37-3.36,3.37s-3.35-1.06-3.35-3.37v-5.62Z"/><path class="d" d="M444.36,163.79v7.96h3.12v.95h-4.28v-8.9h1.16Z"/><path class="d" d="M448.17,163.79h6.03v.95h-2.43v7.96h-1.16v-7.96h-2.44v-.95Z"/><path class="d" d="M460.89,170.71h-3.88l-.72,1.98h-1.23l3.22-8.85h1.34l3.21,8.85h-1.23l-.72-1.98Zm-1.94-5.44l-1.61,4.5h3.22l-1.61-4.5Z"/><path class="d" d="M471.74,168.26c0,2.76-1.8,4.43-4.73,4.43h-2.77v-8.9h2.77c2.92,0,4.73,1.71,4.73,4.47Zm-4.73,3.47c2.32,0,3.54-1.3,3.54-3.47s-1.21-3.52-3.54-3.52h-1.61v7h1.61Z"/><path class="d" d="M477.32,172.78c-2.5,0-4.47-1.88-4.47-4.55s1.97-4.55,4.47-4.55,4.47,1.88,4.47,4.55-1.95,4.55-4.47,4.55Zm0-1.01c1.88,0,3.28-1.37,3.28-3.54s-1.41-3.54-3.28-3.54-3.28,1.35-3.28,3.54,1.41,3.54,3.28,3.54Z"/><path class="d" d="M486.15,172.78c-1.79,0-3.05-1-3.08-2.47h1.24c.08,.74,.6,1.48,1.84,1.48,1.12,0,1.79-.64,1.79-1.48,0-2.4-4.82-.87-4.82-4.18,0-1.47,1.19-2.47,2.95-2.47s2.81,.93,2.95,2.29h-1.28c-.08-.6-.64-1.28-1.72-1.29-.96-.03-1.71,.47-1.71,1.43,0,2.3,4.8,.87,4.8,4.16,0,1.26-1.03,2.52-2.96,2.52Z"/></g></g><g><rect class="g" x="524.54" y="151.06" width="82.57" height="37.17"/><g><path class="d" d="M534.57,163.79h1.16v8.9h-1.16v-8.9Z"/><path class="d" d="M537.71,163.86h1.25l3.27,7.31,3.27-7.31h1.24v8.84h-1.16v-6.59l-2.94,6.59h-.82l-2.95-6.6v6.6h-1.16v-8.84Z"/><path class="d" d="M551.59,168.98h-1.71v3.72h-1.16v-8.9h2.87c2.09,0,3.08,1.15,3.08,2.61,0,1.35-.87,2.58-3.08,2.58Zm0-.96c1.33,0,1.89-.63,1.89-1.62s-.56-1.65-1.89-1.65h-1.71v3.27h1.71Z"/><path class="d" d="M561.38,170.71h-3.88l-.72,1.98h-1.23l3.22-8.85h1.34l3.21,8.85h-1.23l-.72-1.98Zm-1.94-5.44l-1.61,4.5h3.22l-1.61-4.5Z"/><path class="d" d="M568.74,163.68c1.93,0,3.46,.97,4.13,2.7h-1.39c-.49-1.07-1.43-1.67-2.73-1.67-1.86,0-3.26,1.35-3.26,3.54s1.39,3.53,3.26,3.53c1.3,0,2.25-.6,2.73-1.66h1.39c-.66,1.71-2.2,2.67-4.13,2.67-2.49,0-4.44-1.86-4.44-4.53s1.95-4.56,4.44-4.56Z"/><path class="d" d="M574.04,163.79h6.03v.95h-2.43v7.96h-1.16v-7.96h-2.44v-.95Z"/><path class="d" d="M585.54,172.78c-2.5,0-4.47-1.88-4.47-4.55s1.97-4.55,4.47-4.55,4.47,1.88,4.47,4.55-1.95,4.55-4.47,4.55Zm0-1.01c1.88,0,3.28-1.37,3.28-3.54s-1.41-3.54-3.28-3.54-3.28,1.35-3.28,3.54,1.4,3.54,3.28,3.54Z"/><path class="d" d="M594.38,172.78c-1.79,0-3.05-1-3.08-2.47h1.24c.08,.74,.6,1.48,1.84,1.48,1.12,0,1.79-.64,1.79-1.48,0-2.4-4.82-.87-4.82-4.18,0-1.47,1.19-2.47,2.95-2.47s2.81,.93,2.95,2.29h-1.28c-.08-.6-.64-1.28-1.72-1.29-.96-.03-1.71,.47-1.71,1.43,0,2.3,4.8,.87,4.8,4.16,0,1.26-1.03,2.52-2.96,2.52Z"/></g></g><g id="c"><path class="h" d="M162.76,170.2l-5.03-5.03c-.37-.37-.37-.96,0-1.33h0c.37-.38,.98-.38,1.35,0l5.7,5.69c.36,.36,.37,.93,.03,1.31l-5.73,5.74c-.37,.37-.97,.38-1.34,0-.37-.37-.38-.97,0-1.34h0l5.03-5.04h0Z"/></g></g><g><rect class="g" x="371.24" y="93.47" width="243.33" height="42.93" rx="16.79" ry="16.79"/><g><path class="d" d="M399.47,112.16c-2.5,0-4.47-1.88-4.47-4.55s1.97-4.55,4.47-4.55,4.47,1.88,4.47,4.55-1.95,4.55-4.47,4.55Zm0-1.01c1.88,0,3.28-1.37,3.28-3.54s-1.4-3.54-3.28-3.54-3.28,1.35-3.28,3.54,1.41,3.54,3.28,3.54Z"/><path class="d" d="M409.26,104.96c1.89,0,3.32,1.4,3.32,3.59s-1.44,3.64-3.32,3.64c-1.28,0-2.18-.64-2.62-1.4v1.29h-1.16v-9.45h1.16v3.76c.45-.78,1.38-1.42,2.62-1.42Zm-.24,1.01c-1.26,0-2.38,.97-2.38,2.59s1.11,2.61,2.38,2.61,2.38-.97,2.38-2.62-1.09-2.58-2.38-2.58Z"/><path class="d" d="M415.32,105.07v8.52c0,1.26-.66,1.8-1.85,1.8h-.68v-.98h.49c.64,0,.88-.23,.88-.84v-8.49h1.16Zm-1.35-1.93c0-.45,.35-.79,.78-.79s.78,.35,.78,.79-.35,.79-.78,.79-.78-.34-.78-.79Z"/><path class="d" d="M420.31,112.19c-1.99,0-3.46-1.4-3.46-3.63s1.42-3.6,3.46-3.6,3.36,1.43,3.36,3.35c0,.26-.01,.46-.04,.7h-5.6c.09,1.42,1.09,2.2,2.27,2.2,1.05,0,1.71-.54,1.97-1.29h1.25c-.36,1.28-1.48,2.27-3.22,2.27Zm-2.26-4.13h4.42c.01-1.37-1.01-2.12-2.21-2.12-1.14,0-2.08,.75-2.21,2.12Z"/><path class="d" d="M425.46,106.03h-.91v-.96h.91v-1.76h1.16v1.76h1.83v.96h-1.83v4.13c0,.69,.26,.93,.97,.93h.86v.98h-1.05c-1.24,0-1.94-.51-1.94-1.92v-4.13Z"/><path class="d" d="M429.67,103.14c0-.45,.34-.79,.79-.79,.42,0,.77,.35,.77,.79s-.34,.79-.77,.79c-.45,0-.79-.34-.79-.79Zm.19,1.93h1.16v7h-1.16v-7Z"/><path class="d" d="M433.43,105.07l2.18,5.93,2.17-5.93h1.24l-2.75,7h-1.35l-2.75-7h1.25Z"/><path class="d" d="M443.23,112.19c-1.98,0-3.49-1.4-3.49-3.63s1.56-3.6,3.54-3.6,3.54,1.39,3.54,3.6-1.6,3.63-3.59,3.63Zm0-1.02c1.21,0,2.4-.83,2.4-2.61s-1.16-2.59-2.36-2.59-2.34,.83-2.34,2.59,1.09,2.61,2.3,2.61Z"/><path class="d" d="M450.83,112.19c-1.64,0-2.79-.89-2.86-2.17h1.2c.06,.68,.66,1.19,1.65,1.19,.92,0,1.43-.46,1.43-1.03,0-1.56-4.14-.65-4.14-3.26,0-1.07,1.01-1.95,2.57-1.95s2.57,.83,2.64,2.2h-1.16c-.05-.7-.59-1.21-1.52-1.21-.86,0-1.37,.41-1.37,.97,0,1.66,4.06,.75,4.11,3.26,0,1.15-1.01,2.02-2.55,2.02Z"/><path class="d" d="M454.95,110.46h1.28l-1.43,3.44h-.78l.93-3.44Z"/><path class="d" d="M471.07,108.11c0-1.43-.77-2.16-1.92-2.16s-1.98,.75-1.98,2.26v3.86h-1.15v-3.96c0-1.43-.77-2.16-1.92-2.16s-1.98,.75-1.98,2.26v3.86h-1.16v-7h1.16v1.01c.46-.74,1.29-1.14,2.21-1.14,1.15,0,2.11,.51,2.57,1.56,.41-1.01,1.41-1.56,2.48-1.56,1.6,0,2.84,1,2.84,3v4.13h-1.15v-3.96Z"/><path class="d" d="M477.16,112.19c-1.99,0-3.46-1.4-3.46-3.63s1.42-3.6,3.46-3.6,3.36,1.43,3.36,3.35c0,.26-.01,.46-.04,.7h-5.6c.09,1.42,1.09,2.2,2.27,2.2,1.05,0,1.71-.54,1.97-1.29h1.25c-.36,1.28-1.48,2.27-3.22,2.27Zm-2.26-4.13h4.42c.01-1.37-1.01-2.12-2.21-2.12-1.14,0-2.08,.75-2.21,2.12Z"/><path class="d" d="M482.31,106.03h-.91v-.96h.91v-1.76h1.16v1.76h1.83v.96h-1.83v4.13c0,.69,.26,.93,.97,.93h.86v.98h-1.05c-1.24,0-1.94-.51-1.94-1.92v-4.13Z"/><path class="d" d="M489.59,104.96c1.3,0,2.2,.66,2.61,1.39v-1.28h1.17v7h-1.17v-1.3c-.42,.75-1.33,1.42-2.62,1.42-1.86,0-3.31-1.47-3.31-3.64s1.44-3.59,3.32-3.59Zm.23,1.01c-1.28,0-2.36,.93-2.36,2.58s1.09,2.62,2.36,2.62,2.38-.96,2.38-2.61-1.1-2.59-2.38-2.59Z"/><path class="d" d="M497.83,112.19c-1.64,0-2.79-.89-2.86-2.17h1.2c.06,.68,.66,1.19,1.65,1.19,.92,0,1.43-.46,1.43-1.03,0-1.56-4.14-.65-4.14-3.26,0-1.07,1.01-1.95,2.57-1.95s2.57,.83,2.64,2.2h-1.16c-.05-.7-.59-1.21-1.52-1.21-.86,0-1.37,.41-1.37,.97,0,1.66,4.06,.75,4.11,3.26,0,1.15-1.01,2.02-2.55,2.02Z"/><path class="d" d="M508.46,112.19c-1.99,0-3.46-1.4-3.46-3.63s1.42-3.6,3.46-3.6,3.36,1.43,3.36,3.35c0,.26-.01,.46-.04,.7h-5.6c.09,1.42,1.09,2.2,2.27,2.2,1.05,0,1.71-.54,1.97-1.29h1.25c-.36,1.28-1.48,2.27-3.22,2.27Zm-2.26-4.13h4.42c.01-1.37-1.01-2.12-2.21-2.12-1.14,0-2.08,.75-2.21,2.12Z"/><path class="d" d="M516.58,103.14c0-.45,.34-.79,.79-.79,.42,0,.77,.35,.77,.79s-.34,.79-.77,.79c-.45,0-.79-.34-.79-.79Zm.19,1.93h1.16v7h-1.16v-7Z"/><path class="d" d="M525.03,108.11c0-1.43-.78-2.16-1.95-2.16s-2.01,.74-2.01,2.25v3.87h-1.16v-7h1.16v1c.46-.73,1.3-1.12,2.25-1.12,1.62,0,2.86,1,2.86,3v4.13h-1.15v-3.96Z"/><path class="d" d="M530.99,104.96c1.1,0,2.11,.56,2.59,1.37v-3.7h1.17v9.45h-1.17v-1.32c-.42,.78-1.33,1.43-2.61,1.43-1.88,0-3.32-1.47-3.32-3.64s1.44-3.59,3.33-3.59Zm.22,1.01c-1.28,0-2.36,.93-2.36,2.58s1.09,2.62,2.36,2.62,2.38-.96,2.38-2.61-1.1-2.59-2.38-2.59Z"/><path class="d" d="M536.54,103.14c0-.45,.34-.79,.79-.79,.42,0,.77,.35,.77,.79s-.34,.79-.77,.79c-.45,0-.79-.34-.79-.79Zm.19,1.93h1.16v7h-1.16v-7Z"/><path class="d" d="M542.85,104.96c1.74,0,2.87,.89,3.23,2.36h-1.25c-.24-.84-.94-1.38-1.98-1.38-1.28,0-2.22,.91-2.22,2.62s.94,2.64,2.22,2.64c1.03,0,1.72-.5,1.98-1.38h1.25c-.36,1.39-1.49,2.36-3.23,2.36-1.99,0-3.41-1.4-3.41-3.63s1.42-3.6,3.41-3.6Z"/><path class="d" d="M550.52,104.96c1.3,0,2.2,.66,2.61,1.39v-1.28h1.17v7h-1.17v-1.3c-.42,.75-1.33,1.42-2.62,1.42-1.86,0-3.31-1.47-3.31-3.64s1.44-3.59,3.32-3.59Zm.23,1.01c-1.28,0-2.36,.93-2.36,2.58s1.09,2.62,2.36,2.62,2.38-.96,2.38-2.61-1.1-2.59-2.38-2.59Z"/><path class="d" d="M559.17,104.96c1.1,0,2.11,.56,2.59,1.37v-3.7h1.17v9.45h-1.17v-1.32c-.42,.78-1.33,1.43-2.61,1.43-1.88,0-3.32-1.47-3.32-3.64s1.44-3.59,3.33-3.59Zm.22,1.01c-1.28,0-2.36,.93-2.36,2.58s1.09,2.62,2.36,2.62,2.38-.96,2.38-2.61-1.1-2.59-2.38-2.59Z"/><path class="d" d="M567.97,112.19c-1.98,0-3.49-1.4-3.49-3.63s1.56-3.6,3.54-3.6,3.54,1.39,3.54,3.6-1.6,3.63-3.59,3.63Zm0-1.02c1.21,0,2.4-.83,2.4-2.61s-1.16-2.59-2.36-2.59-2.34,.83-2.34,2.59,1.09,2.61,2.3,2.61Z"/><path class="d" d="M574.25,112.07h-1.16v-7h1.16v1.14c.4-.78,1.15-1.26,2.26-1.26v1.2h-.31c-1.11,0-1.95,.5-1.95,2.12v3.81Z"/><path class="d" d="M580.89,112.19c-1.99,0-3.46-1.4-3.46-3.63s1.42-3.6,3.46-3.6,3.36,1.43,3.36,3.35c0,.26-.01,.46-.04,.7h-5.6c.09,1.42,1.09,2.2,2.27,2.2,1.05,0,1.71-.54,1.97-1.29h1.25c-.36,1.28-1.48,2.27-3.22,2.27Zm-2.26-4.13h4.42c.01-1.37-1.01-2.12-2.21-2.12-1.14,0-2.08,.75-2.21,2.12Z"/><path class="d" d="M588.26,112.19c-1.64,0-2.79-.89-2.86-2.17h1.2c.06,.68,.66,1.19,1.65,1.19,.92,0,1.43-.46,1.43-1.03,0-1.56-4.14-.65-4.14-3.26,0-1.07,1.01-1.95,2.57-1.95s2.57,.83,2.64,2.2h-1.16c-.05-.7-.59-1.21-1.52-1.21-.86,0-1.37,.41-1.37,.97,0,1.66,4.06,.75,4.11,3.26,0,1.15-1.01,2.02-2.55,2.02Z"/><path class="d" d="M416.66,127.41h-1.16v-7h1.16v1.14c.4-.78,1.15-1.26,2.26-1.26v1.2h-.31c-1.11,0-1.95,.5-1.95,2.12v3.81Z"/><path class="d" d="M423.3,127.52c-1.99,0-3.46-1.41-3.46-3.63s1.42-3.6,3.46-3.6,3.36,1.43,3.36,3.35c0,.26-.01,.46-.04,.7h-5.6c.09,1.42,1.09,2.2,2.27,2.2,1.05,0,1.71-.54,1.97-1.29h1.25c-.36,1.28-1.48,2.27-3.22,2.27Zm-2.26-4.13h4.42c.01-1.37-1.01-2.12-2.21-2.12-1.14,0-2.08,.75-2.21,2.12Z"/><path class="d" d="M428.19,117.96h1.16v9.45h-1.16v-9.45Z"/><path class="d" d="M434.22,120.29c1.3,0,2.2,.67,2.61,1.39v-1.28h1.17v7h-1.17v-1.3c-.42,.75-1.33,1.42-2.62,1.42-1.86,0-3.31-1.47-3.31-3.64s1.44-3.59,3.32-3.59Zm.23,1.01c-1.28,0-2.36,.93-2.36,2.58s1.09,2.62,2.36,2.62,2.38-.96,2.38-2.6-1.1-2.59-2.38-2.59Z"/><path class="d" d="M442.95,120.29c1.74,0,2.87,.89,3.23,2.36h-1.25c-.24-.84-.94-1.38-1.98-1.38-1.28,0-2.22,.91-2.22,2.62s.94,2.64,2.22,2.64c1.03,0,1.72-.5,1.98-1.38h1.25c-.36,1.39-1.49,2.36-3.23,2.36-1.99,0-3.41-1.41-3.41-3.63s1.42-3.6,3.41-3.6Z"/><path class="d" d="M447.54,118.48c0-.45,.34-.79,.79-.79,.42,0,.77,.35,.77,.79s-.34,.79-.77,.79c-.45,0-.79-.35-.79-.79Zm.19,1.93h1.16v7h-1.16v-7Z"/><path class="d" d="M453.93,127.52c-1.98,0-3.49-1.41-3.49-3.63s1.56-3.6,3.54-3.6,3.54,1.39,3.54,3.6-1.6,3.63-3.59,3.63Zm0-1.02c1.21,0,2.4-.83,2.4-2.6s-1.16-2.59-2.36-2.59-2.34,.83-2.34,2.59,1.09,2.6,2.3,2.6Z"/><path class="d" d="M464.18,123.45c0-1.43-.78-2.16-1.95-2.16s-2.01,.74-2.01,2.25v3.87h-1.16v-7h1.16v1c.46-.73,1.3-1.12,2.25-1.12,1.62,0,2.86,1,2.86,3v4.13h-1.15v-3.96Z"/><path class="d" d="M470.12,120.29c1.3,0,2.2,.67,2.61,1.39v-1.28h1.17v7h-1.17v-1.3c-.42,.75-1.33,1.42-2.62,1.42-1.86,0-3.31-1.47-3.31-3.64s1.44-3.59,3.32-3.59Zm.23,1.01c-1.28,0-2.36,.93-2.36,2.58s1.09,2.62,2.36,2.62,2.38-.96,2.38-2.6-1.1-2.59-2.38-2.59Z"/><path class="d" d="M478.78,120.29c1.1,0,2.11,.56,2.59,1.37v-3.71h1.17v9.45h-1.17v-1.32c-.42,.78-1.33,1.43-2.61,1.43-1.88,0-3.32-1.47-3.32-3.64s1.44-3.59,3.33-3.59Zm.22,1.01c-1.28,0-2.36,.93-2.36,2.58s1.09,2.62,2.36,2.62,2.38-.96,2.38-2.6-1.1-2.59-2.38-2.59Z"/><path class="d" d="M487.57,127.52c-1.98,0-3.49-1.41-3.49-3.63s1.56-3.6,3.54-3.6,3.54,1.39,3.54,3.6-1.6,3.63-3.59,3.63Zm0-1.02c1.21,0,2.4-.83,2.4-2.6s-1.16-2.59-2.36-2.59-2.34,.83-2.34,2.59,1.09,2.6,2.3,2.6Z"/><path class="d" d="M495.18,127.52c-1.64,0-2.79-.89-2.86-2.17h1.2c.06,.68,.66,1.19,1.65,1.19,.92,0,1.43-.46,1.43-1.03,0-1.56-4.14-.65-4.14-3.26,0-1.07,1.01-1.95,2.57-1.95s2.57,.83,2.64,2.2h-1.16c-.05-.7-.59-1.21-1.52-1.21-.86,0-1.37,.41-1.37,.97,0,1.66,4.06,.75,4.11,3.26,0,1.15-1.01,2.02-2.55,2.02Z"/><path class="d" d="M505.67,120.29c1.3,0,2.2,.67,2.61,1.39v-1.28h1.17v7h-1.17v-1.3c-.42,.75-1.33,1.42-2.62,1.42-1.86,0-3.31-1.47-3.31-3.64s1.44-3.59,3.32-3.59Zm.23,1.01c-1.28,0-2.36,.93-2.36,2.58s1.09,2.62,2.36,2.62,2.38-.96,2.38-2.6-1.1-2.59-2.38-2.59Z"/><path class="d" d="M514.47,127.52c-1.98,0-3.49-1.41-3.49-3.63s1.56-3.6,3.54-3.6,3.54,1.39,3.54,3.6-1.6,3.63-3.59,3.63Zm0-1.02c1.21,0,2.4-.83,2.4-2.6s-1.16-2.59-2.36-2.59-2.34,.83-2.34,2.59,1.09,2.6,2.3,2.6Z"/><path class="d" d="M522.08,127.52c-1.64,0-2.79-.89-2.86-2.17h1.2c.06,.68,.66,1.19,1.65,1.19,.92,0,1.43-.46,1.43-1.03,0-1.56-4.14-.65-4.14-3.26,0-1.07,1.01-1.95,2.57-1.95s2.57,.83,2.64,2.2h-1.16c-.05-.7-.59-1.21-1.52-1.21-.86,0-1.37,.41-1.37,.97,0,1.66,4.06,.75,4.11,3.26,0,1.15-1.01,2.02-2.55,2.02Z"/><path class="d" d="M532.71,127.52c-1.99,0-3.46-1.41-3.46-3.63s1.42-3.6,3.46-3.6,3.36,1.43,3.36,3.35c0,.26-.01,.46-.04,.7h-5.6c.09,1.42,1.09,2.2,2.27,2.2,1.05,0,1.71-.54,1.97-1.29h1.25c-.36,1.28-1.48,2.27-3.22,2.27Zm-2.26-4.13h4.42c.01-1.37-1.01-2.12-2.21-2.12-1.14,0-2.08,.75-2.21,2.12Z"/><path class="d" d="M537.82,121.37h-.91v-.96h.91v-.5c0-1.56,.77-2.26,2.55-2.26v.97c-1.05,0-1.39,.38-1.39,1.29v.5h1.47v.96h-1.47v6.04h-1.16v-6.04Z"/><path class="d" d="M544.84,127.52c-1.99,0-3.46-1.41-3.46-3.63s1.42-3.6,3.46-3.6,3.36,1.43,3.36,3.35c0,.26-.01,.46-.04,.7h-5.6c.09,1.42,1.09,2.2,2.27,2.2,1.05,0,1.71-.54,1.97-1.29h1.25c-.36,1.28-1.48,2.27-3.22,2.27Zm-2.26-4.13h4.42c.01-1.37-1.01-2.12-2.21-2.12-1.14,0-2.08,.75-2.21,2.12Z"/><path class="d" d="M549.55,118.48c0-.45,.34-.79,.79-.79,.42,0,.77,.35,.77,.79s-.34,.79-.77,.79c-.45,0-.79-.35-.79-.79Zm.19,1.93h1.16v7h-1.16v-7Z"/><path class="d" d="M553.14,121.37h-.91v-.96h.91v-1.76h1.16v1.76h1.83v.96h-1.83v4.13c0,.69,.26,.93,.97,.93h.86v.98h-1.05c-1.24,0-1.94-.51-1.94-1.92v-4.13Z"/><path class="d" d="M560.59,127.52c-1.98,0-3.49-1.41-3.49-3.63s1.56-3.6,3.54-3.6,3.54,1.39,3.54,3.6-1.6,3.63-3.59,3.63Zm0-1.02c1.21,0,2.4-.83,2.4-2.6s-1.16-2.59-2.36-2.59-2.34,.83-2.34,2.59,1.09,2.6,2.3,2.6Z"/><path class="d" d="M568.19,127.52c-1.64,0-2.79-.89-2.86-2.17h1.2c.06,.68,.66,1.19,1.65,1.19,.92,0,1.43-.46,1.43-1.03,0-1.56-4.14-.65-4.14-3.26,0-1.07,1.01-1.95,2.57-1.95s2.57,.83,2.64,2.2h-1.16c-.05-.7-.59-1.21-1.52-1.21-.86,0-1.37,.41-1.37,.97,0,1.66,4.06,.75,4.11,3.26,0,1.15-1.01,2.02-2.55,2.02Z"/></g></g><path class="h" d="M653.38,309.81H18.17V79.12H653.38v230.69Zm-633.93-1.28H652.1V80.4H19.45v228.14Z"/><g><polygon class="g" points="263.27 251.9 62.61 251.9 62.61 241.52 65.17 241.52 65.17 249.35 260.71 249.35 260.71 241.52 263.27 241.52 263.27 251.9"/><rect class="g" x="162.01" y="250.46" width="2.56" height="9.11"/></g><g><path class="g" d="M381.66,277.98h-4.06v2.68h3.6v1.7h-3.6v2.84h4.06v1.75h-6.21v-10.72h6.21v1.75Z"/><path class="g" d="M383.61,276.24h6.61v1.73h-4.46v2.74h3.42v1.7h-3.42v4.52h-2.15v-10.7Z"/><path class="g" d="M397.95,277.98h-4.06v2.68h3.6v1.7h-3.6v2.84h4.06v1.75h-6.21v-10.72h6.21v1.75Z"/><path class="g" d="M399.9,276.24h2.15v10.7h-2.15v-10.7Z"/><path class="g" d="M403.6,276.24h7.85v1.73h-2.85v8.97h-2.15v-8.97h-2.85v-1.73Z"/><path class="g" d="M417.98,287.05c-3.02,0-5.49-2.27-5.49-5.49s2.47-5.47,5.49-5.47,5.47,2.27,5.47,5.47-2.44,5.49-5.47,5.49Zm0-1.92c1.93,0,3.27-1.4,3.27-3.57s-1.33-3.54-3.27-3.54-3.28,1.36-3.28,3.54,1.33,3.57,3.28,3.57Z"/><path class="g" d="M428.74,287.05c-2.22,0-3.94-1.17-3.97-3.19h2.3c.06,.86,.63,1.43,1.63,1.43s1.61-.54,1.61-1.3c0-2.31-5.52-.92-5.5-4.8,0-1.93,1.56-3.1,3.77-3.1s3.69,1.12,3.83,3.05h-2.36c-.05-.71-.61-1.26-1.53-1.27-.84-.03-1.47,.38-1.47,1.26,0,2.15,5.49,.95,5.49,4.72,0,1.69-1.35,3.2-3.79,3.2Z"/><path class="g" d="M444.25,277.98h-4.06v2.68h3.6v1.7h-3.6v2.84h4.06v1.75h-6.21v-10.72h6.21v1.75Z"/><path class="g" d="M449.89,287.05c-2.22,0-3.94-1.17-3.97-3.19h2.3c.06,.86,.63,1.43,1.62,1.43s1.61-.54,1.61-1.3c0-2.31-5.52-.92-5.5-4.8,0-1.93,1.56-3.1,3.77-3.1s3.69,1.12,3.83,3.05h-2.36c-.05-.71-.61-1.26-1.53-1.27-.84-.03-1.47,.38-1.47,1.26,0,2.15,5.49,.95,5.49,4.72,0,1.69-1.35,3.2-3.79,3.2Z"/><path class="g" d="M459.48,282.84h-1.79v4.11h-2.15v-10.7h3.94c2.57,0,3.86,1.46,3.86,3.31,0,1.63-1.1,3.28-3.86,3.28Zm-.09-1.73c1.21,0,1.75-.6,1.75-1.55s-.54-1.56-1.75-1.56h-1.7v3.11h1.7Z"/><path class="g" d="M471.07,277.98h-4.06v2.68h3.6v1.7h-3.6v2.84h4.06v1.75h-6.21v-10.72h6.21v1.75Z"/><path class="g" d="M477.04,276.24c2.57,0,3.86,1.49,3.86,3.28,0,1.3-.72,2.62-2.44,3.08l2.56,4.34h-2.48l-2.36-4.17h-1.01v4.17h-2.15v-10.7h4.02Zm-.08,1.78h-1.79v3.14h1.79c1.2,0,1.73-.63,1.73-1.6s-.54-1.55-1.73-1.55Z"/><path class="g" d="M489.42,284.91h-4.26l-.71,2.04h-2.25l3.85-10.72h2.5l3.85,10.72h-2.27l-.71-2.04Zm-2.13-6.19l-1.55,4.48h3.1l-1.55-4.48Z"/><path class="g" d="M503.22,281.61c0,3.23-2.22,5.33-5.64,5.33h-3.74v-10.7h3.74c3.42,0,5.64,2.12,5.64,5.37Zm-5.72,3.51c2.25,0,3.52-1.29,3.52-3.51s-1.27-3.56-3.52-3.56h-1.52v7.07h1.52Z"/><path class="g" d="M509.8,287.05c-3.02,0-5.49-2.27-5.49-5.49s2.47-5.47,5.49-5.47,5.47,2.27,5.47,5.47-2.44,5.49-5.47,5.49Zm0-1.92c1.93,0,3.26-1.4,3.26-3.57s-1.33-3.54-3.26-3.54-3.28,1.36-3.28,3.54,1.33,3.57,3.28,3.57Z"/><path class="g" d="M520.57,287.05c-2.22,0-3.94-1.17-3.97-3.19h2.3c.06,.86,.63,1.43,1.62,1.43s1.61-.54,1.61-1.3c0-2.31-5.52-.92-5.5-4.8,0-1.93,1.56-3.1,3.77-3.1s3.69,1.12,3.83,3.05h-2.36c-.05-.71-.61-1.26-1.53-1.27-.84-.03-1.47,.38-1.47,1.26,0,2.15,5.49,.95,5.49,4.72,0,1.69-1.35,3.2-3.79,3.2Z"/></g><g><polygon class="g" points="612.09 251.9 287.46 251.9 287.46 241.52 290.02 241.52 290.02 249.35 609.53 249.35 609.53 241.52 612.09 241.52 612.09 251.9"/><rect class="g" x="449.06" y="250.46" width="2.56" height="9.11"/></g><g><path class="e" d="M78.29,194.84c1.64,0,2.42,.91,2.42,2.05,0,.89-.49,1.74-1.66,2l1.75,2.92h-1.09l-1.66-2.85h-1.1v2.85h-.91v-6.97h2.25Zm0,.75h-1.34v2.64h1.34c1.03,0,1.48-.56,1.48-1.34s-.44-1.3-1.48-1.3Z"/><path class="e" d="M84.49,201.9c-1.56,0-2.71-1.1-2.71-2.84s1.11-2.82,2.71-2.82,2.63,1.12,2.63,2.62c0,.2,0,.36-.03,.55h-4.38c.07,1.11,.85,1.72,1.78,1.72,.82,0,1.34-.42,1.54-1.01h.98c-.28,1-1.16,1.78-2.52,1.78Zm-1.77-3.23h3.46c.01-1.07-.79-1.66-1.73-1.66-.89,0-1.63,.59-1.73,1.66Z"/><path class="e" d="M90.65,196.24c1.36,0,2.25,.7,2.53,1.85h-.98c-.19-.66-.74-1.08-1.55-1.08-1,0-1.74,.71-1.74,2.05s.74,2.07,1.74,2.07c.81,0,1.35-.39,1.55-1.08h.98c-.28,1.09-1.17,1.85-2.53,1.85-1.56,0-2.67-1.1-2.67-2.84s1.11-2.82,2.67-2.82Z"/><path class="e" d="M99.25,201.81h-.91v-.81c-.35,.57-1.02,.89-1.75,.89-1.26,0-2.25-.78-2.25-2.35v-3.21h.9v3.09c0,1.11,.61,1.68,1.53,1.68s1.57-.58,1.57-1.76v-3.01h.91v5.48Z"/><path class="e" d="M101.7,201.81h-.91v-5.48h.91v.89c.31-.61,.9-.99,1.77-.99v.94h-.24c-.87,0-1.53,.39-1.53,1.66v2.98Z"/><path class="e" d="M106.46,201.9c-1.28,0-2.18-.7-2.24-1.7h.94c.05,.53,.52,.93,1.29,.93,.72,0,1.12-.36,1.12-.81,0-1.22-3.24-.51-3.24-2.55,0-.84,.79-1.53,2.01-1.53s2.01,.65,2.07,1.72h-.91c-.04-.55-.46-.95-1.19-.95-.67,0-1.07,.32-1.07,.76,0,1.3,3.18,.59,3.22,2.55,0,.9-.79,1.58-2,1.58Z"/><path class="e" d="M112.13,201.9c-1.55,0-2.73-1.1-2.73-2.84s1.22-2.82,2.77-2.82,2.77,1.09,2.77,2.82-1.25,2.84-2.81,2.84Zm0-.8c.95,0,1.88-.65,1.88-2.04s-.91-2.03-1.85-2.03-1.83,.65-1.83,2.03,.85,2.04,1.8,2.04Z"/><path class="e" d="M118.08,201.9c-1.28,0-2.18-.7-2.24-1.7h.94c.05,.53,.52,.93,1.29,.93,.72,0,1.12-.36,1.12-.81,0-1.22-3.24-.51-3.24-2.55,0-.84,.79-1.53,2.01-1.53s2.01,.65,2.07,1.72h-.91c-.04-.55-.46-.95-1.19-.95-.67,0-1.07,.32-1.07,.76,0,1.3,3.18,.59,3.22,2.55,0,.9-.79,1.58-2,1.58Z"/></g><g><path class="e" d="M180.16,200.26h-3.04l-.56,1.55h-.96l2.52-6.93h1.05l2.51,6.93h-.96l-.56-1.55Zm-1.52-4.26l-1.26,3.52h2.52l-1.26-3.52Z"/><path class="e" d="M185.11,196.24c1.36,0,2.25,.7,2.53,1.85h-.98c-.19-.66-.74-1.08-1.55-1.08-1,0-1.74,.71-1.74,2.05s.74,2.07,1.74,2.07c.81,0,1.35-.39,1.55-1.08h.98c-.26,1.01-1.05,1.74-2.25,1.84v.5c.77-.01,1.29,.33,1.29,.99s-.51,1.03-1.22,1.03h-1.15v-.59h.97c.43,0,.64-.12,.64-.44s-.21-.43-.64-.43h-.5v-1.07c-1.38-.14-2.34-1.21-2.34-2.82,0-1.72,1.11-2.82,2.67-2.82Z"/><path class="e" d="M191.24,201.9c-1.55,0-2.73-1.1-2.73-2.84s1.22-2.82,2.77-2.82,2.77,1.09,2.77,2.82-1.25,2.84-2.81,2.84Zm0-.8c.95,0,1.88-.65,1.88-2.04s-.91-2.03-1.85-2.03-1.83,.65-1.83,2.03,.85,2.04,1.8,2.04Zm-.42-6.48c.53,0,.73,.46,1.14,.46,.22,0,.4-.14,.44-.43h.52c-.08,.68-.48,1.04-1,1.04s-.74-.46-1.14-.46c-.22,0-.39,.14-.43,.44h-.53c.1-.69,.48-1.05,1-1.05Z"/><path class="e" d="M197.62,201.9c-1.56,0-2.71-1.1-2.71-2.84s1.11-2.82,2.71-2.82,2.63,1.12,2.63,2.62c0,.2,0,.36-.03,.55h-4.38c.07,1.11,.85,1.72,1.78,1.72,.82,0,1.34-.42,1.54-1.01h.98c-.28,1-1.16,1.78-2.52,1.78Zm-1.77-3.23h3.46c.01-1.07-.79-1.66-1.73-1.66-.89,0-1.63,.59-1.73,1.66Z"/><path class="e" d="M203.39,201.9c-1.28,0-2.18-.7-2.24-1.7h.94c.05,.53,.52,.93,1.29,.93,.72,0,1.12-.36,1.12-.81,0-1.22-3.24-.51-3.24-2.55,0-.84,.79-1.53,2.01-1.53s2.01,.65,2.07,1.72h-.91c-.04-.55-.46-.95-1.19-.95-.67,0-1.07,.32-1.07,.76,0,1.3,3.18,.59,3.22,2.55,0,.9-.79,1.58-2,1.58Z"/><path class="e" d="M206.61,200.55h1l-1.12,2.69h-.61l.73-2.69Z"/><path class="e" d="M213.26,201.9c-1.28,0-2.18-.7-2.24-1.7h.94c.05,.53,.52,.93,1.29,.93,.72,0,1.12-.36,1.12-.81,0-1.22-3.24-.51-3.24-2.55,0-.84,.79-1.53,2.01-1.53s2.01,.65,2.07,1.72h-.91c-.04-.55-.46-.95-1.19-.95-.67,0-1.07,.32-1.07,.76,0,1.3,3.18,.59,3.22,2.55,0,.9-.79,1.58-2,1.58Z"/><path class="e" d="M218.91,201.9c-1.56,0-2.71-1.1-2.71-2.84s1.11-2.82,2.71-2.82,2.63,1.12,2.63,2.62c0,.2,0,.36-.03,.55h-4.38c.07,1.11,.85,1.72,1.78,1.72,.82,0,1.34-.42,1.54-1.01h.98c-.28,1-1.16,1.78-2.52,1.78Zm-1.77-3.23h3.46c.01-1.07-.79-1.66-1.73-1.66-.89,0-1.63,.59-1.73,1.66Z"/><path class="e" d="M223.65,201.81h-.91v-5.48h.91v.89c.31-.61,.9-.99,1.77-.99v.94h-.24c-.87,0-1.53,.39-1.53,1.66v2.98Z"/><path class="e" d="M226.8,196.33l1.71,4.64,1.7-4.64h.97l-2.15,5.48h-1.06l-2.15-5.48h.98Z"/><path class="e" d="M231.93,194.82c0-.35,.27-.62,.62-.62,.33,0,.6,.27,.6,.62s-.27,.62-.6,.62c-.35,0-.62-.27-.62-.62Zm.15,1.51h.91v5.48h-.91v-5.48Z"/><path class="e" d="M236.87,196.24c1.36,0,2.25,.7,2.53,1.85h-.98c-.19-.66-.74-1.08-1.55-1.08-1,0-1.74,.71-1.74,2.05s.74,2.07,1.74,2.07c.81,0,1.35-.39,1.55-1.08h.98c-.26,1.01-1.05,1.74-2.25,1.84v.5c.77-.01,1.29,.33,1.29,.99s-.51,1.03-1.22,1.03h-1.15v-.59h.97c.43,0,.64-.12,.64-.44s-.21-.43-.64-.43h-.5v-1.07c-1.38-.14-2.34-1.21-2.34-2.82,0-1.72,1.11-2.82,2.67-2.82Z"/><path class="e" d="M243,201.9c-1.55,0-2.73-1.1-2.73-2.84s1.22-2.82,2.77-2.82,2.77,1.09,2.77,2.82-1.25,2.84-2.81,2.84Zm0-.8c.95,0,1.88-.65,1.88-2.04s-.91-2.03-1.85-2.03-1.83,.65-1.83,2.03,.85,2.04,1.8,2.04Z"/><path class="e" d="M248.95,201.9c-1.28,0-2.18-.7-2.24-1.7h.94c.05,.53,.52,.93,1.29,.93,.72,0,1.12-.36,1.12-.81,0-1.22-3.24-.51-3.24-2.55,0-.84,.79-1.53,2.01-1.53s2.01,.65,2.07,1.72h-.91c-.04-.55-.46-.95-1.19-.95-.67,0-1.07,.32-1.07,.76,0,1.3,3.18,.59,3.22,2.55,0,.9-.79,1.58-2,1.58Z"/></g><g><path class="e" d="M528.79,195.58h-2.84v2.33h2.54v.75h-2.54v2.4h2.84v.75h-3.75v-6.98h3.75v.75Z"/><path class="e" d="M530.34,197.08h-.71v-.75h.71v-.39c0-1.22,.6-1.77,2-1.77v.76c-.82,0-1.09,.3-1.09,1.01v.39h1.15v.75h-1.15v4.73h-.91v-4.73Z"/><path class="e" d="M535.83,201.9c-1.56,0-2.71-1.1-2.71-2.84s1.11-2.82,2.71-2.82,2.63,1.12,2.63,2.62c0,.2,0,.36-.03,.55h-4.38c.07,1.11,.85,1.72,1.78,1.72,.82,0,1.34-.42,1.54-1.01h.98c-.28,1-1.16,1.78-2.52,1.78Zm-1.77-3.23h3.46c.01-1.07-.79-1.66-1.73-1.66-.89,0-1.63,.59-1.73,1.66Z"/><path class="e" d="M539.51,194.82c0-.35,.27-.62,.62-.62,.33,0,.6,.27,.6,.62s-.27,.62-.6,.62c-.35,0-.62-.27-.62-.62Zm.15,1.51h.91v5.48h-.91v-5.48Z"/><path class="e" d="M542.32,197.08h-.71v-.75h.71v-1.38h.91v1.38h1.43v.75h-1.43v3.23c0,.54,.2,.73,.76,.73h.67v.77h-.82c-.97,0-1.52-.4-1.52-1.5v-3.23Z"/><path class="e" d="M548.15,201.9c-1.55,0-2.73-1.1-2.73-2.84s1.22-2.82,2.77-2.82,2.77,1.09,2.77,2.82-1.25,2.84-2.81,2.84Zm0-.8c.95,0,1.88-.65,1.88-2.04s-.91-2.03-1.85-2.03-1.83,.65-1.83,2.03,.85,2.04,1.8,2.04Z"/><path class="e" d="M554.1,201.9c-1.28,0-2.18-.7-2.24-1.7h.94c.05,.53,.52,.93,1.29,.93,.72,0,1.12-.36,1.12-.81,0-1.22-3.24-.51-3.24-2.55,0-.84,.79-1.53,2.01-1.53s2.01,.65,2.07,1.72h-.91c-.04-.55-.46-.95-1.19-.95-.67,0-1.07,.32-1.07,.76,0,1.3,3.18,.59,3.22,2.55,0,.9-.79,1.58-2,1.58Z"/><path class="e" d="M560.22,197.08h-.71v-.75h.71v-.39c0-1.22,.6-1.77,2-1.77v.76c-.82,0-1.09,.3-1.09,1.01v.39h1.15v.75h-1.15v4.73h-.91v-4.73Z"/><path class="e" d="M563.19,194.82c0-.35,.27-.62,.62-.62,.33,0,.6,.27,.6,.62s-.27,.62-.6,.62c-.35,0-.62-.27-.62-.62Zm.15,1.51h.91v5.48h-.91v-5.48Z"/><path class="e" d="M569.81,198.71c0-1.12-.61-1.69-1.53-1.69s-1.57,.58-1.57,1.76v3.03h-.91v-5.48h.91v.78c.36-.57,1.02-.88,1.76-.88,1.27,0,2.24,.78,2.24,2.35v3.23h-.9v-3.1Z"/><path class="e" d="M574.46,196.24c1.02,0,1.72,.52,2.04,1.09v-1h.92v5.48h-.92v-1.02c-.33,.59-1.04,1.11-2.05,1.11-1.46,0-2.59-1.15-2.59-2.85s1.13-2.81,2.6-2.81Zm.18,.79c-1,0-1.85,.73-1.85,2.02s.85,2.05,1.85,2.05,1.86-.75,1.86-2.04-.86-2.03-1.86-2.03Z"/><path class="e" d="M578.96,194.41h.91v7.4h-.91v-7.4Z"/><path class="e" d="M582.85,193.99v.79l-2.13,1.14v-.68l2.13-1.25Zm-1.43,2.34h.91v5.48h-.91v-5.48Z"/><path class="e" d="M585.82,201.9c-1.28,0-2.18-.7-2.24-1.7h.94c.05,.53,.52,.93,1.29,.93,.72,0,1.12-.36,1.12-.81,0-1.22-3.24-.51-3.24-2.55,0-.84,.79-1.53,2.01-1.53s2.01,.65,2.07,1.72h-.91c-.04-.55-.46-.95-1.19-.95-.67,0-1.07,.32-1.07,.76,0,1.3,3.18,.59,3.22,2.55,0,.9-.79,1.58-2,1.58Z"/><path class="e" d="M589.3,197.08h-.71v-.75h.71v-1.38h.91v1.38h1.43v.75h-1.43v3.23c0,.54,.2,.73,.76,.73h.67v.77h-.82c-.97,0-1.52-.4-1.52-1.5v-3.23Z"/><path class="e" d="M592.59,194.82c0-.35,.27-.62,.62-.62,.33,0,.6,.27,.6,.62s-.27,.62-.6,.62c-.35,0-.62-.27-.62-.62Zm.15,1.51h.91v5.48h-.91v-5.48Z"/><path class="e" d="M597.53,196.24c1.36,0,2.25,.7,2.53,1.85h-.98c-.19-.66-.74-1.08-1.55-1.08-1,0-1.74,.71-1.74,2.05s.74,2.07,1.74,2.07c.81,0,1.35-.39,1.55-1.08h.98c-.28,1.09-1.17,1.85-2.53,1.85-1.56,0-2.67-1.1-2.67-2.84s1.11-2.82,2.67-2.82Z"/><path class="e" d="M603.66,201.9c-1.55,0-2.73-1.1-2.73-2.84s1.22-2.82,2.77-2.82,2.77,1.09,2.77,2.82-1.25,2.84-2.81,2.84Zm0-.8c.95,0,1.88-.65,1.88-2.04s-.91-2.03-1.85-2.03-1.83,.65-1.83,2.03,.85,2.04,1.8,2.04Z"/><path class="e" d="M609.61,201.9c-1.28,0-2.18-.7-2.24-1.7h.94c.05,.53,.52,.93,1.29,.93,.72,0,1.12-.36,1.12-.81,0-1.22-3.24-.51-3.24-2.55,0-.84,.79-1.53,2.01-1.53s2.01,.65,2.07,1.72h-.91c-.04-.55-.46-.95-1.19-.95-.67,0-1.07,.32-1.07,.76,0,1.3,3.18,.59,3.22,2.55,0,.9-.79,1.58-2,1.58Z"/><path class="e" d="M612.83,200.55h1l-1.12,2.69h-.61l.73-2.69Z"/><path class="e" d="M527.3,208.24c1,0,1.72,.5,2.04,1.09v-1h.92v5.6c0,1.51-1.01,2.58-2.62,2.58-1.44,0-2.47-.73-2.65-1.9h.9c.2,.66,.85,1.11,1.75,1.11,.97,0,1.7-.62,1.7-1.79v-1.15c-.33,.59-1.04,1.12-2.04,1.12-1.47,0-2.6-1.15-2.6-2.85s1.13-2.81,2.6-2.81Zm.18,.79c-1,0-1.85,.73-1.85,2.02s.85,2.05,1.85,2.05,1.86-.75,1.86-2.04-.86-2.03-1.86-2.03Z"/><path class="e" d="M534.17,213.9c-1.56,0-2.71-1.1-2.71-2.84s1.11-2.82,2.71-2.82,2.63,1.12,2.63,2.62c0,.2,0,.36-.03,.55h-4.38c.07,1.11,.85,1.72,1.78,1.72,.82,0,1.34-.42,1.54-1.01h.98c-.28,1-1.16,1.78-2.52,1.78Zm-1.77-3.23h3.46c.01-1.07-.79-1.66-1.73-1.66-.89,0-1.63,.59-1.73,1.66Z"/><path class="e" d="M538.91,213.81h-.91v-5.48h.91v.89c.31-.61,.9-.99,1.77-.99v.94h-.24c-.87,0-1.53,.39-1.53,1.66v2.98Z"/><path class="e" d="M543.99,208.24c1.02,0,1.72,.52,2.04,1.09v-1h.92v5.48h-.92v-1.02c-.33,.59-1.04,1.11-2.05,1.11-1.46,0-2.59-1.15-2.59-2.85s1.13-2.81,2.6-2.81Zm.18,.79c-1,0-1.85,.73-1.85,2.02s.85,2.05,1.85,2.05,1.86-.75,1.86-2.04-.86-2.03-1.86-2.03Z"/><path class="e" d="M548.49,206.41h.91v7.4h-.91v-7.4Z"/><path class="e" d="M558.86,210.71c0-1.12-.6-1.69-1.5-1.69s-1.55,.59-1.55,1.77v3.02h-.9v-3.1c0-1.12-.6-1.69-1.5-1.69s-1.55,.59-1.55,1.77v3.02h-.91v-5.48h.91v.79c.36-.58,1.01-.89,1.73-.89,.9,0,1.65,.4,2.01,1.22,.32-.79,1.1-1.22,1.94-1.22,1.25,0,2.22,.78,2.22,2.35v3.23h-.9v-3.1Z"/><path class="e" d="M563.62,213.9c-1.56,0-2.71-1.1-2.71-2.84s1.11-2.82,2.71-2.82,2.63,1.12,2.63,2.62c0,.2,0,.36-.03,.55h-4.38c.07,1.11,.85,1.72,1.78,1.72,.82,0,1.34-.42,1.54-1.01h.98c-.28,1-1.16,1.78-2.52,1.78Zm-1.77-3.23h3.46c0-1.07-.79-1.66-1.73-1.66-.89,0-1.63,.59-1.73,1.66Z"/><path class="e" d="M571.46,210.71c0-1.12-.61-1.69-1.53-1.69s-1.57,.58-1.57,1.76v3.03h-.91v-5.48h.91v.78c.36-.57,1.02-.88,1.76-.88,1.27,0,2.24,.78,2.24,2.35v3.23h-.9v-3.1Z"/><path class="e" d="M574.05,209.08h-.71v-.75h.71v-1.38h.91v1.38h1.43v.75h-1.43v3.23c0,.54,.2,.73,.76,.73h.67v.77h-.82c-.97,0-1.52-.4-1.52-1.5v-3.23Z"/><path class="e" d="M579.86,213.9c-1.56,0-2.71-1.1-2.71-2.84s1.11-2.82,2.71-2.82,2.63,1.12,2.63,2.62c0,.2,0,.36-.03,.55h-4.38c.07,1.11,.85,1.72,1.78,1.72,.82,0,1.34-.42,1.54-1.01h.98c-.28,1-1.16,1.78-2.52,1.78Zm-1.77-3.23h3.46c.01-1.07-.79-1.66-1.73-1.66-.89,0-1.63,.59-1.73,1.66Z"/><path class="e" d="M590.37,210.71c0-1.12-.61-1.69-1.53-1.69s-1.57,.58-1.57,1.76v3.03h-.91v-5.48h.91v.78c.36-.57,1.02-.88,1.76-.88,1.27,0,2.24,.78,2.24,2.35v3.23h-.9v-3.1Z"/><path class="e" d="M595.02,208.24c1.02,0,1.72,.52,2.04,1.09v-1h.92v5.48h-.92v-1.02c-.33,.59-1.04,1.11-2.05,1.11-1.46,0-2.59-1.15-2.59-2.85s1.13-2.81,2.6-2.81Zm.18,.79c-1,0-1.85,.73-1.85,2.02s.85,2.05,1.85,2.05,1.86-.75,1.86-2.04-.86-2.03-1.86-2.03Z"/><path class="e" d="M528,220.24c1.47,0,2.6,1.1,2.6,2.81s-1.13,2.85-2.6,2.85c-1,0-1.71-.54-2.05-1.1v3.61h-.91v-8.08h.91v1.01c.33-.58,1.05-1.1,2.05-1.1Zm-.19,.79c-.99,0-1.86,.76-1.86,2.03s.87,2.04,1.86,2.04,1.86-.76,1.86-2.05-.85-2.02-1.86-2.02Z"/><path class="e" d="M534.19,225.9c-1.55,0-2.73-1.1-2.73-2.84s1.22-2.82,2.77-2.82,2.77,1.09,2.77,2.82-1.25,2.84-2.81,2.84Zm0-.8c.95,0,1.88-.65,1.88-2.04s-.91-2.03-1.85-2.03-1.83,.65-1.83,2.03,.85,2.04,1.8,2.04Z"/><path class="e" d="M541.16,220.24c1.47,0,2.6,1.1,2.6,2.81s-1.13,2.85-2.6,2.85c-1,0-1.71-.54-2.05-1.1v3.61h-.91v-8.08h.91v1.01c.33-.58,1.05-1.1,2.05-1.1Zm-.19,.79c-.99,0-1.86,.76-1.86,2.03s.87,2.04,1.86,2.04,1.86-.76,1.86-2.05-.85-2.02-1.86-2.02Z"/><path class="e" d="M549.82,225.81h-.91v-.81c-.35,.57-1.02,.89-1.75,.89-1.26,0-2.25-.78-2.25-2.35v-3.21h.9v3.09c0,1.11,.61,1.68,1.53,1.68s1.57-.58,1.57-1.76v-3.01h.91v5.48Z"/><path class="e" d="M551.36,218.41h.91v7.4h-.91v-7.4Z"/><path class="e" d="M556.08,220.24c1.02,0,1.72,.52,2.04,1.09v-1h.92v5.48h-.92v-1.02c-.33,.59-1.04,1.11-2.05,1.11-1.46,0-2.59-1.15-2.59-2.85s1.13-2.81,2.6-2.81Zm.18,.79c-1,0-1.85,.73-1.85,2.02s.85,2.05,1.85,2.05,1.86-.75,1.86-2.04-.86-2.03-1.86-2.03Z"/><path class="e" d="M562.91,220.24c1.36,0,2.25,.7,2.53,1.85h-.98c-.19-.66-.74-1.08-1.55-1.08-1,0-1.74,.71-1.74,2.05s.74,2.07,1.74,2.07c.81,0,1.35-.39,1.55-1.08h.98c-.26,1.01-1.05,1.74-2.25,1.84v.5c.77-.01,1.29,.33,1.29,.99s-.51,1.03-1.22,1.03h-1.15v-.59h.97c.43,0,.64-.12,.64-.44s-.21-.43-.64-.43h-.5v-1.07c-1.38-.14-2.34-1.21-2.34-2.82,0-1.72,1.11-2.82,2.67-2.82Z"/><path class="e" d="M568.91,220.24c1.02,0,1.72,.52,2.04,1.09v-1h.92v5.48h-.92v-1.02c-.33,.59-1.04,1.11-2.05,1.11-1.46,0-2.59-1.15-2.59-2.85s1.13-2.81,2.6-2.81Zm.18,.79c-1,0-1.85,.73-1.85,2.02s.85,2.05,1.85,2.05,1.86-.75,1.86-2.04-.86-2.03-1.86-2.03Zm-.29-2.34c.53,0,.73,.46,1.14,.46,.22,0,.4-.14,.44-.43h.52c-.08,.68-.48,1.04-1,1.04s-.74-.46-1.14-.46c-.22,0-.39,.14-.43,.44h-.53c.1-.69,.48-1.05,1-1.05Z"/><path class="e" d="M575.8,225.9c-1.55,0-2.73-1.1-2.73-2.84s1.22-2.82,2.77-2.82,2.77,1.09,2.77,2.82-1.25,2.84-2.81,2.84Zm0-.8c.95,0,1.88-.65,1.88-2.04s-.91-2.03-1.85-2.03-1.83,.65-1.83,2.03,.85,2.04,1.8,2.04Z"/><path class="e" d="M584.74,220.24c1,0,1.72,.5,2.04,1.09v-1h.92v5.6c0,1.51-1.01,2.58-2.62,2.58-1.44,0-2.47-.73-2.65-1.9h.9c.2,.66,.85,1.11,1.75,1.11,.97,0,1.7-.62,1.7-1.79v-1.15c-.33,.59-1.04,1.12-2.04,1.12-1.47,0-2.6-1.15-2.6-2.85s1.13-2.81,2.6-2.81Zm.18,.79c-1,0-1.85,.73-1.85,2.02s.85,2.05,1.85,2.05,1.86-.75,1.86-2.04-.86-2.03-1.86-2.03Z"/><path class="e" d="M591.61,225.9c-1.56,0-2.71-1.1-2.71-2.84s1.11-2.82,2.71-2.82,2.63,1.12,2.63,2.62c0,.2,0,.36-.03,.55h-4.38c.07,1.11,.85,1.72,1.78,1.72,.82,0,1.34-.42,1.54-1.01h.98c-.28,1-1.16,1.78-2.52,1.78Zm-1.77-3.23h3.46c0-1.07-.79-1.66-1.73-1.66-.89,0-1.63,.59-1.73,1.66Z"/><path class="e" d="M596.35,225.81h-.91v-5.48h.91v.89c.31-.61,.9-.99,1.77-.99v.94h-.24c-.87,0-1.53,.39-1.53,1.66v2.98Z"/><path class="e" d="M601.43,220.24c1.02,0,1.72,.52,2.04,1.09v-1h.92v5.48h-.92v-1.02c-.33,.59-1.04,1.11-2.05,1.11-1.46,0-2.59-1.15-2.59-2.85s1.13-2.81,2.6-2.81Zm.18,.79c-1,0-1.85,.73-1.85,2.02s.85,2.05,1.85,2.05,1.86-.75,1.86-2.04-.86-2.03-1.86-2.03Z"/><path class="e" d="M605.93,218.41h.91v7.4h-.91v-7.4Z"/></g><g><path class="e" d="M300.79,195.58h-2.84v2.33h2.54v.75h-2.54v2.4h2.84v.75h-3.75v-6.98h3.75v.75Z"/><path class="e" d="M302.34,197.08h-.71v-.75h.71v-.39c0-1.22,.6-1.77,2-1.77v.76c-.82,0-1.09,.3-1.09,1.01v.39h1.15v.75h-1.15v4.73h-.91v-4.73Z"/><path class="e" d="M307.83,201.9c-1.56,0-2.71-1.1-2.71-2.84s1.11-2.82,2.71-2.82,2.63,1.12,2.63,2.62c0,.2,0,.36-.03,.55h-4.38c.07,1.11,.85,1.72,1.78,1.72,.82,0,1.34-.42,1.54-1.01h.98c-.28,1-1.16,1.78-2.52,1.78Zm-1.77-3.23h3.46c.01-1.07-.79-1.66-1.73-1.66-.89,0-1.63,.59-1.73,1.66Z"/><path class="e" d="M311.51,194.82c0-.35,.27-.62,.62-.62,.33,0,.6,.27,.6,.62s-.27,.62-.6,.62c-.35,0-.62-.27-.62-.62Zm.15,1.51h.91v5.48h-.91v-5.48Z"/><path class="e" d="M314.32,197.08h-.71v-.75h.71v-1.38h.91v1.38h1.43v.75h-1.43v3.23c0,.54,.2,.73,.76,.73h.67v.77h-.82c-.97,0-1.52-.4-1.52-1.5v-3.23Z"/><path class="e" d="M320.15,201.9c-1.55,0-2.73-1.1-2.73-2.84s1.22-2.82,2.77-2.82,2.77,1.09,2.77,2.82-1.25,2.84-2.81,2.84Zm0-.8c.95,0,1.88-.65,1.88-2.04s-.91-2.03-1.85-2.03-1.83,.65-1.83,2.03,.85,2.04,1.8,2.04Z"/><path class="e" d="M326.1,201.9c-1.28,0-2.18-.7-2.24-1.7h.94c.05,.53,.52,.93,1.29,.93,.72,0,1.12-.36,1.12-.81,0-1.22-3.24-.51-3.24-2.55,0-.84,.79-1.53,2.01-1.53s2.01,.65,2.07,1.72h-.91c-.04-.55-.46-.95-1.19-.95-.67,0-1.07,.32-1.07,.76,0,1.3,3.18,.59,3.22,2.55,0,.9-.79,1.58-2,1.58Z"/><path class="e" d="M331.9,194.82c0-.35,.27-.62,.62-.62,.33,0,.6,.27,.6,.62s-.27,.62-.6,.62c-.35,0-.62-.27-.62-.62Zm.15,1.51h.91v5.48h-.91v-5.48Z"/><path class="e" d="M342.42,198.71c0-1.12-.6-1.69-1.5-1.69s-1.55,.59-1.55,1.77v3.02h-.9v-3.1c0-1.12-.6-1.69-1.5-1.69s-1.55,.59-1.55,1.77v3.02h-.91v-5.48h.91v.79c.36-.58,1.01-.89,1.73-.89,.9,0,1.65,.4,2.01,1.22,.32-.79,1.1-1.22,1.94-1.22,1.25,0,2.22,.78,2.22,2.35v3.23h-.9v-3.1Z"/><path class="e" d="M347.18,201.9c-1.56,0-2.71-1.1-2.71-2.84s1.11-2.82,2.71-2.82,2.63,1.12,2.63,2.62c0,.2,0,.36-.03,.55h-4.38c.07,1.11,.85,1.72,1.78,1.72,.82,0,1.34-.42,1.54-1.01h.98c-.28,1-1.16,1.78-2.52,1.78Zm-1.77-3.23h3.46c.01-1.07-.79-1.66-1.73-1.66-.89,0-1.63,.59-1.73,1.66Z"/><path class="e" d="M353.28,196.24c.86,0,1.65,.44,2.03,1.07v-2.9h.92v7.4h-.92v-1.03c-.33,.61-1.04,1.12-2.04,1.12-1.47,0-2.6-1.15-2.6-2.85s1.13-2.81,2.61-2.81Zm.17,.79c-1,0-1.85,.73-1.85,2.02s.85,2.05,1.85,2.05,1.86-.75,1.86-2.04-.86-2.03-1.86-2.03Z"/><path class="e" d="M357.62,194.82c0-.35,.27-.62,.62-.62,.33,0,.6,.27,.6,.62s-.27,.62-.6,.62c-.35,0-.62-.27-.62-.62Zm.15,1.51h.91v5.48h-.91v-5.48Z"/><path class="e" d="M362.49,196.24c1.02,0,1.72,.52,2.04,1.09v-1h.92v5.48h-.92v-1.02c-.33,.59-1.04,1.11-2.05,1.11-1.46,0-2.59-1.15-2.59-2.85s1.13-2.81,2.6-2.81Zm.18,.79c-1,0-1.85,.73-1.85,2.02s.85,2.05,1.85,2.05,1.86-.75,1.86-2.04-.86-2.03-1.86-2.03Z"/><path class="e" d="M367.19,197.08h-.71v-.75h.71v-1.38h.91v1.38h1.43v.75h-1.43v3.23c0,.54,.2,.73,.76,.73h.67v.77h-.82c-.97,0-1.52-.4-1.52-1.5v-3.23Z"/><path class="e" d="M373.02,201.9c-1.55,0-2.73-1.1-2.73-2.84s1.22-2.82,2.77-2.82,2.77,1.09,2.77,2.82-1.25,2.84-2.81,2.84Zm0-.8c.95,0,1.88-.65,1.88-2.04s-.91-2.03-1.85-2.03-1.83,.65-1.83,2.03,.85,2.04,1.8,2.04Z"/><path class="e" d="M378.97,201.9c-1.28,0-2.18-.7-2.24-1.7h.94c.05,.53,.52,.93,1.29,.93,.72,0,1.12-.36,1.12-.81,0-1.22-3.24-.51-3.24-2.55,0-.84,.79-1.53,2.01-1.53s2.01,.65,2.07,1.72h-.91c-.04-.55-.46-.95-1.19-.95-.67,0-1.07,.32-1.07,.76,0,1.3,3.18,.59,3.22,2.55,0,.9-.79,1.58-2,1.58Z"/><path class="e" d="M299.31,208.24c.86,0,1.65,.44,2.03,1.07v-2.9h.92v7.4h-.92v-1.03c-.33,.61-1.04,1.12-2.04,1.12-1.47,0-2.6-1.15-2.6-2.85s1.13-2.81,2.61-2.81Zm.17,.79c-1,0-1.85,.73-1.85,2.02s.85,2.05,1.85,2.05,1.86-.75,1.86-2.04-.86-2.03-1.86-2.03Z"/><path class="e" d="M306.19,213.9c-1.55,0-2.73-1.1-2.73-2.84s1.22-2.82,2.77-2.82,2.77,1.09,2.77,2.82-1.25,2.84-2.81,2.84Zm0-.8c.95,0,1.88-.65,1.88-2.04s-.91-2.03-1.85-2.03-1.83,.65-1.83,2.03,.85,2.04,1.8,2.04Z"/><path class="e" d="M315.83,208.24c1.47,0,2.6,1.1,2.6,2.81s-1.13,2.85-2.6,2.85c-1,0-1.71-.54-2.05-1.1v3.61h-.91v-8.08h.91v1.01c.33-.58,1.05-1.1,2.05-1.1Zm-.19,.79c-.99,0-1.86,.76-1.86,2.03s.87,2.04,1.86,2.04,1.86-.76,1.86-2.05-.85-2.02-1.86-2.02Z"/><path class="e" d="M320.54,213.81h-.91v-5.48h.91v.89c.31-.61,.9-.99,1.77-.99v.94h-.24c-.87,0-1.53,.39-1.53,1.66v2.98Z"/><path class="e" d="M325.75,213.9c-1.55,0-2.73-1.1-2.73-2.84s1.22-2.82,2.77-2.82,2.77,1.09,2.77,2.82-1.25,2.84-2.81,2.84Zm0-.8c.95,0,1.88-.65,1.88-2.04s-.91-2.03-1.85-2.03-1.83,.65-1.83,2.03,.85,2.04,1.8,2.04Z"/><path class="e" d="M332.09,208.24c1.36,0,2.25,.7,2.53,1.85h-.98c-.19-.66-.74-1.08-1.55-1.08-1,0-1.74,.71-1.74,2.05s.74,2.07,1.74,2.07c.81,0,1.35-.39,1.55-1.08h.98c-.28,1.09-1.17,1.85-2.53,1.85-1.56,0-2.67-1.1-2.67-2.84s1.11-2.82,2.67-2.82Z"/><path class="e" d="M338.2,213.9c-1.56,0-2.71-1.1-2.71-2.84s1.11-2.82,2.71-2.82,2.63,1.12,2.63,2.62c0,.2,0,.36-.03,.55h-4.38c.07,1.11,.85,1.72,1.78,1.72,.82,0,1.34-.42,1.54-1.01h.98c-.28,1-1.16,1.78-2.52,1.78Zm-1.77-3.23h3.46c.01-1.07-.79-1.66-1.73-1.66-.89,0-1.63,.59-1.73,1.66Z"/><path class="e" d="M343.97,213.9c-1.28,0-2.18-.7-2.24-1.7h.94c.05,.53,.52,.93,1.29,.93,.72,0,1.12-.36,1.12-.81,0-1.22-3.24-.51-3.24-2.55,0-.84,.79-1.53,2.01-1.53s2.01,.65,2.07,1.72h-.91c-.04-.55-.46-.95-1.19-.95-.67,0-1.07,.32-1.07,.76,0,1.3,3.18,.59,3.22,2.55,0,.9-.79,1.58-2,1.58Z"/><path class="e" d="M349.19,213.9c-1.28,0-2.18-.7-2.24-1.7h.94c.05,.53,.52,.93,1.29,.93,.72,0,1.12-.36,1.12-.81,0-1.22-3.24-.51-3.24-2.55,0-.84,.79-1.53,2.01-1.53s2.01,.65,2.07,1.72h-.91c-.04-.55-.46-.95-1.19-.95-.67,0-1.07,.32-1.07,.76,0,1.3,3.18,.59,3.22,2.55,0,.9-.79,1.58-2,1.58Z"/><path class="e" d="M354.86,213.9c-1.55,0-2.73-1.1-2.73-2.84s1.22-2.82,2.77-2.82,2.77,1.09,2.77,2.82-1.25,2.84-2.81,2.84Zm0-.8c.95,0,1.88-.65,1.88-2.04s-.91-2.03-1.85-2.03-1.83,.65-1.83,2.03,.85,2.04,1.8,2.04Z"/><path class="e" d="M358.81,212.55h1l-1.12,2.69h-.61l.73-2.69Z"/><path class="e" d="M365.79,208.24c.86,0,1.65,.44,2.03,1.07v-2.9h.92v7.4h-.92v-1.03c-.33,.61-1.04,1.12-2.04,1.12-1.47,0-2.6-1.15-2.6-2.85s1.13-2.81,2.61-2.81Zm.17,.79c-1,0-1.85,.73-1.85,2.02s.85,2.05,1.85,2.05,1.86-.75,1.86-2.04-.86-2.03-1.86-2.03Z"/><path class="e" d="M372.65,213.9c-1.56,0-2.71-1.1-2.71-2.84s1.11-2.82,2.71-2.82,2.63,1.12,2.63,2.62c0,.2,0,.36-.03,.55h-4.38c.07,1.11,.85,1.72,1.78,1.72,.82,0,1.34-.42,1.54-1.01h.98c-.28,1-1.16,1.78-2.52,1.78Zm-1.77-3.23h3.46c.01-1.07-.79-1.66-1.73-1.66-.89,0-1.63,.59-1.73,1.66Z"/><path class="e" d="M300,220.24c1.47,0,2.6,1.1,2.6,2.81s-1.13,2.85-2.6,2.85c-1,0-1.71-.54-2.05-1.1v3.61h-.91v-8.08h.91v1.01c.33-.58,1.05-1.1,2.05-1.1Zm-.19,.79c-.99,0-1.86,.76-1.86,2.03s.87,2.04,1.86,2.04,1.86-.76,1.86-2.05-.85-2.02-1.86-2.02Z"/><path class="e" d="M304.71,225.81h-.91v-5.48h.91v.89c.31-.61,.9-.99,1.77-.99v.94h-.24c-.87,0-1.53,.39-1.53,1.66v2.98Z"/><path class="e" d="M309.92,225.9c-1.55,0-2.73-1.1-2.73-2.84s1.22-2.82,2.77-2.82,2.77,1.09,2.77,2.82-1.25,2.84-2.81,2.84Zm0-.8c.95,0,1.88-.65,1.88-2.04s-.91-2.03-1.85-2.03-1.83,.65-1.83,2.03,.85,2.04,1.8,2.04Z"/><path class="e" d="M316.2,220.24c.86,0,1.65,.44,2.03,1.07v-2.9h.92v7.4h-.92v-1.03c-.33,.61-1.04,1.12-2.04,1.12-1.47,0-2.6-1.15-2.6-2.85s1.13-2.81,2.61-2.81Zm.17,.79c-1,0-1.85,.73-1.85,2.02s.85,2.05,1.85,2.05,1.86-.75,1.86-2.04-.86-2.03-1.86-2.03Z"/><path class="e" d="M325.55,225.81h-.91v-.81c-.35,.57-1.02,.89-1.75,.89-1.26,0-2.25-.78-2.25-2.35v-3.21h.9v3.09c0,1.11,.61,1.68,1.53,1.68s1.57-.58,1.57-1.76v-3.01h.91v5.48Z"/><path class="e" d="M329.42,220.24c1.36,0,2.25,.7,2.53,1.85h-.98c-.19-.66-.74-1.08-1.55-1.08-1,0-1.74,.71-1.74,2.05s.74,2.07,1.74,2.07c.81,0,1.35-.39,1.55-1.08h.98c-.26,1.01-1.05,1.74-2.25,1.84v.5c.77-.01,1.29,.33,1.29,.99s-.51,1.03-1.22,1.03h-1.15v-.59h.97c.43,0,.64-.12,.64-.44s-.21-.43-.64-.43h-.5v-1.07c-1.38-.14-2.34-1.21-2.34-2.82,0-1.72,1.11-2.82,2.67-2.82Z"/><path class="e" d="M335.42,220.24c1.02,0,1.72,.52,2.04,1.09v-1h.92v5.48h-.92v-1.02c-.33,.59-1.04,1.11-2.05,1.11-1.46,0-2.59-1.15-2.59-2.85s1.13-2.81,2.6-2.81Zm.18,.79c-1,0-1.85,.73-1.85,2.02s.85,2.05,1.85,2.05,1.86-.75,1.86-2.04-.86-2.03-1.86-2.03Zm-.29-2.34c.53,0,.73,.46,1.14,.46,.22,0,.4-.14,.44-.43h.52c-.08,.68-.48,1.04-1,1.04s-.74-.46-1.14-.46c-.22,0-.39,.14-.43,.44h-.53c.1-.69,.48-1.05,1-1.05Z"/><path class="e" d="M342.31,225.9c-1.55,0-2.73-1.1-2.73-2.84s1.22-2.82,2.77-2.82,2.77,1.09,2.77,2.82-1.25,2.84-2.81,2.84Zm0-.8c.95,0,1.88-.65,1.88-2.04s-.91-2.03-1.85-2.03-1.83,.65-1.83,2.03,.85,2.04,1.8,2.04Z"/></g><g><path class="e" d="M406.29,195.58h-2.84v2.33h2.54v.75h-2.54v2.4h2.84v.75h-3.75v-6.98h3.75v.75Z"/><path class="e" d="M407.84,197.08h-.71v-.75h.71v-.39c0-1.22,.6-1.77,2-1.77v.76c-.82,0-1.09,.3-1.09,1.01v.39h1.15v.75h-1.15v4.73h-.91v-4.73Z"/><path class="e" d="M413.33,201.9c-1.56,0-2.71-1.1-2.71-2.84s1.11-2.82,2.71-2.82,2.63,1.12,2.63,2.62c0,.2,0,.36-.03,.55h-4.38c.07,1.11,.85,1.72,1.78,1.72,.82,0,1.34-.42,1.54-1.01h.98c-.28,1-1.16,1.78-2.52,1.78Zm-1.77-3.23h3.46c.01-1.07-.79-1.66-1.73-1.66-.89,0-1.63,.59-1.73,1.66Z"/><path class="e" d="M417.01,194.82c0-.35,.27-.62,.62-.62,.33,0,.6,.27,.6,.62s-.27,.62-.6,.62c-.35,0-.62-.27-.62-.62Zm.15,1.51h.91v5.48h-.91v-5.48Z"/><path class="e" d="M419.82,197.08h-.71v-.75h.71v-1.38h.91v1.38h1.43v.75h-1.43v3.23c0,.54,.2,.73,.76,.73h.67v.77h-.82c-.97,0-1.52-.4-1.52-1.5v-3.23Z"/><path class="e" d="M425.65,201.9c-1.55,0-2.73-1.1-2.73-2.84s1.22-2.82,2.77-2.82,2.77,1.09,2.77,2.82-1.25,2.84-2.81,2.84Zm0-.8c.95,0,1.88-.65,1.88-2.04s-.91-2.03-1.85-2.03-1.83,.65-1.83,2.03,.85,2.04,1.8,2.04Z"/><path class="e" d="M431.6,201.9c-1.28,0-2.18-.7-2.24-1.7h.94c.05,.53,.52,.93,1.29,.93,.72,0,1.12-.36,1.12-.81,0-1.22-3.24-.51-3.24-2.55,0-.84,.79-1.53,2.01-1.53s2.01,.65,2.07,1.72h-.91c-.04-.55-.46-.95-1.19-.95-.67,0-1.07,.32-1.07,.76,0,1.3,3.18,.59,3.22,2.55,0,.9-.79,1.58-2,1.58Z"/><path class="e" d="M437.4,194.82c0-.35,.27-.62,.62-.62,.33,0,.6,.27,.6,.62s-.27,.62-.6,.62c-.35,0-.62-.27-.62-.62Zm.15,1.51h.91v5.48h-.91v-5.48Z"/><path class="e" d="M444.02,198.71c0-1.12-.61-1.69-1.53-1.69s-1.57,.58-1.57,1.76v3.03h-.91v-5.48h.91v.78c.36-.57,1.02-.88,1.76-.88,1.27,0,2.24,.78,2.24,2.35v3.23h-.9v-3.1Z"/><path class="e" d="M446.61,197.08h-.71v-.75h.71v-1.38h.91v1.38h1.43v.75h-1.43v3.23c0,.54,.2,.73,.76,.73h.67v.77h-.82c-.97,0-1.52-.4-1.52-1.5v-3.23Z"/><path class="e" d="M452.42,201.9c-1.56,0-2.71-1.1-2.71-2.84s1.11-2.82,2.71-2.82,2.63,1.12,2.63,2.62c0,.2,0,.36-.03,.55h-4.38c.07,1.11,.85,1.72,1.78,1.72,.82,0,1.34-.42,1.54-1.01h.98c-.28,1-1.16,1.78-2.52,1.78Zm-1.77-3.23h3.46c.01-1.07-.79-1.66-1.73-1.66-.89,0-1.63,.59-1.73,1.66Z"/><path class="e" d="M457.16,201.81h-.91v-5.48h.91v.89c.31-.61,.9-.99,1.77-.99v.94h-.24c-.87,0-1.53,.39-1.53,1.66v2.98Z"/><path class="e" d="M467.89,198.71c0-1.12-.6-1.69-1.5-1.69s-1.55,.59-1.55,1.77v3.02h-.9v-3.1c0-1.12-.6-1.69-1.5-1.69s-1.55,.59-1.55,1.77v3.02h-.91v-5.48h.91v.79c.36-.58,1.01-.89,1.73-.89,.9,0,1.65,.4,2.01,1.22,.32-.79,1.1-1.22,1.94-1.22,1.25,0,2.22,.78,2.22,2.35v3.23h-.9v-3.1Z"/><path class="e" d="M472.65,201.9c-1.56,0-2.71-1.1-2.71-2.84s1.11-2.82,2.71-2.82,2.63,1.12,2.63,2.62c0,.2,0,.36-.03,.55h-4.38c.07,1.11,.85,1.72,1.78,1.72,.82,0,1.34-.42,1.54-1.01h.98c-.28,1-1.16,1.78-2.52,1.78Zm-1.77-3.23h3.46c.01-1.07-.79-1.66-1.73-1.66-.89,0-1.63,.59-1.73,1.66Z"/><path class="e" d="M478.75,196.24c.86,0,1.65,.44,2.03,1.07v-2.9h.92v7.4h-.92v-1.03c-.33,.61-1.04,1.12-2.04,1.12-1.47,0-2.6-1.15-2.6-2.85s1.13-2.81,2.61-2.81Zm.17,.79c-1,0-1.85,.73-1.85,2.02s.85,2.05,1.85,2.05,1.86-.75,1.86-2.04-.86-2.03-1.86-2.03Z"/><path class="e" d="M483.09,194.82c0-.35,.27-.62,.62-.62,.33,0,.6,.27,.6,.62s-.27,.62-.6,.62c-.35,0-.62-.27-.62-.62Zm.15,1.51h.91v5.48h-.91v-5.48Z"/><path class="e" d="M487.96,196.24c1.02,0,1.72,.52,2.04,1.09v-1h.92v5.48h-.92v-1.02c-.33,.59-1.04,1.11-2.05,1.11-1.46,0-2.59-1.15-2.59-2.85s1.13-2.81,2.6-2.81Zm.18,.79c-1,0-1.85,.73-1.85,2.02s.85,2.05,1.85,2.05,1.86-.75,1.86-2.04-.86-2.03-1.86-2.03Zm1.15-3.04v.79l-2.13,1.14v-.68l2.13-1.25Z"/><path class="e" d="M493.37,201.81h-.91v-5.48h.91v.89c.31-.61,.9-.99,1.77-.99v.94h-.24c-.87,0-1.53,.39-1.53,1.66v2.98Z"/><path class="e" d="M496.04,194.82c0-.35,.27-.62,.62-.62,.33,0,.6,.27,.6,.62s-.27,.62-.6,.62c-.35,0-.62-.27-.62-.62Zm.15,1.51h.91v5.48h-.91v-5.48Z"/><path class="e" d="M501.04,201.9c-1.55,0-2.73-1.1-2.73-2.84s1.22-2.82,2.77-2.82,2.77,1.09,2.77,2.82-1.25,2.84-2.81,2.84Zm0-.8c.95,0,1.88-.65,1.88-2.04s-.91-2.03-1.85-2.03-1.83,.65-1.83,2.03,.85,2.04,1.8,2.04Z"/><path class="e" d="M506.99,201.9c-1.28,0-2.18-.7-2.24-1.7h.94c.05,.53,.52,.93,1.29,.93,.72,0,1.12-.36,1.12-.81,0-1.22-3.24-.51-3.24-2.55,0-.84,.79-1.53,2.01-1.53s2.01,.65,2.07,1.72h-.91c-.04-.55-.46-.95-1.19-.95-.67,0-1.07,.32-1.07,.76,0,1.3,3.18,.59,3.22,2.55,0,.9-.79,1.58-2,1.58Z"/><path class="e" d="M510.21,200.55h1l-1.12,2.69h-.61l.73-2.69Z"/><path class="e" d="M404.8,208.24c1,0,1.72,.5,2.04,1.09v-1h.92v5.6c0,1.51-1.01,2.58-2.62,2.58-1.44,0-2.47-.73-2.65-1.9h.9c.2,.66,.85,1.11,1.75,1.11,.97,0,1.7-.62,1.7-1.79v-1.15c-.33,.59-1.04,1.12-2.04,1.12-1.47,0-2.6-1.15-2.6-2.85s1.13-2.81,2.6-2.81Zm.18,.79c-1,0-1.85,.73-1.85,2.02s.85,2.05,1.85,2.05,1.86-.75,1.86-2.04-.86-2.03-1.86-2.03Z"/><path class="e" d="M411.67,213.9c-1.56,0-2.71-1.1-2.71-2.84s1.11-2.82,2.71-2.82,2.63,1.12,2.63,2.62c0,.2,0,.36-.03,.55h-4.38c.07,1.11,.85,1.72,1.78,1.72,.82,0,1.34-.42,1.54-1.01h.98c-.28,1-1.16,1.78-2.52,1.78Zm-1.77-3.23h3.46c.01-1.07-.79-1.66-1.73-1.66-.89,0-1.63,.59-1.73,1.66Z"/><path class="e" d="M416.41,213.81h-.91v-5.48h.91v.89c.31-.61,.9-.99,1.77-.99v.94h-.24c-.87,0-1.53,.39-1.53,1.66v2.98Z"/><path class="e" d="M421.49,208.24c1.02,0,1.72,.52,2.04,1.09v-1h.92v5.48h-.92v-1.02c-.33,.59-1.04,1.11-2.05,1.11-1.46,0-2.59-1.15-2.59-2.85s1.13-2.81,2.6-2.81Zm.18,.79c-1,0-1.85,.73-1.85,2.02s.85,2.05,1.85,2.05,1.86-.75,1.86-2.04-.86-2.03-1.86-2.03Z"/><path class="e" d="M425.99,206.41h.91v7.4h-.91v-7.4Z"/><path class="e" d="M436.36,210.71c0-1.12-.6-1.69-1.5-1.69s-1.55,.59-1.55,1.77v3.02h-.9v-3.1c0-1.12-.6-1.69-1.5-1.69s-1.55,.59-1.55,1.77v3.02h-.91v-5.48h.91v.79c.36-.58,1.01-.89,1.73-.89,.9,0,1.65,.4,2.01,1.22,.32-.79,1.1-1.22,1.94-1.22,1.25,0,2.22,.78,2.22,2.35v3.23h-.9v-3.1Z"/><path class="e" d="M441.12,213.9c-1.56,0-2.71-1.1-2.71-2.84s1.11-2.82,2.71-2.82,2.63,1.12,2.63,2.62c0,.2,0,.36-.03,.55h-4.38c.07,1.11,.85,1.72,1.78,1.72,.82,0,1.34-.42,1.54-1.01h.98c-.28,1-1.16,1.78-2.52,1.78Zm-1.77-3.23h3.46c0-1.07-.79-1.66-1.73-1.66-.89,0-1.63,.59-1.73,1.66Z"/><path class="e" d="M448.96,210.71c0-1.12-.61-1.69-1.53-1.69s-1.57,.58-1.57,1.76v3.03h-.91v-5.48h.91v.78c.36-.57,1.02-.88,1.76-.88,1.27,0,2.24,.78,2.24,2.35v3.23h-.9v-3.1Z"/><path class="e" d="M451.55,209.08h-.71v-.75h.71v-1.38h.91v1.38h1.43v.75h-1.43v3.23c0,.54,.2,.73,.76,.73h.67v.77h-.82c-.97,0-1.52-.4-1.52-1.5v-3.23Z"/><path class="e" d="M457.36,213.9c-1.56,0-2.71-1.1-2.71-2.84s1.11-2.82,2.71-2.82,2.63,1.12,2.63,2.62c0,.2,0,.36-.03,.55h-4.38c.07,1.11,.85,1.72,1.78,1.72,.82,0,1.34-.42,1.54-1.01h.98c-.28,1-1.16,1.78-2.52,1.78Zm-1.77-3.23h3.46c.01-1.07-.79-1.66-1.73-1.66-.89,0-1.63,.59-1.73,1.66Z"/><path class="e" d="M467.87,210.71c0-1.12-.61-1.69-1.53-1.69s-1.57,.58-1.57,1.76v3.03h-.91v-5.48h.91v.78c.36-.57,1.02-.88,1.76-.88,1.27,0,2.24,.78,2.24,2.35v3.23h-.9v-3.1Z"/><path class="e" d="M472.52,208.24c1.02,0,1.72,.52,2.04,1.09v-1h.92v5.48h-.92v-1.02c-.33,.59-1.04,1.11-2.05,1.11-1.46,0-2.59-1.15-2.59-2.85s1.13-2.81,2.6-2.81Zm.18,.79c-1,0-1.85,.73-1.85,2.02s.85,2.05,1.85,2.05,1.86-.75,1.86-2.04-.86-2.03-1.86-2.03Z"/><path class="e" d="M405.5,220.24c1.47,0,2.6,1.1,2.6,2.81s-1.13,2.85-2.6,2.85c-1,0-1.71-.54-2.05-1.1v3.61h-.91v-8.08h.91v1.01c.33-.58,1.05-1.1,2.05-1.1Zm-.19,.79c-.99,0-1.86,.76-1.86,2.03s.87,2.04,1.86,2.04,1.86-.76,1.86-2.05-.85-2.02-1.86-2.02Z"/><path class="e" d="M411.69,225.9c-1.55,0-2.73-1.1-2.73-2.84s1.22-2.82,2.77-2.82,2.77,1.09,2.77,2.82-1.25,2.84-2.81,2.84Zm0-.8c.95,0,1.88-.65,1.88-2.04s-.91-2.03-1.85-2.03-1.83,.65-1.83,2.03,.85,2.04,1.8,2.04Z"/><path class="e" d="M418.66,220.24c1.47,0,2.6,1.1,2.6,2.81s-1.13,2.85-2.6,2.85c-1,0-1.71-.54-2.05-1.1v3.61h-.91v-8.08h.91v1.01c.33-.58,1.05-1.1,2.05-1.1Zm-.19,.79c-.99,0-1.86,.76-1.86,2.03s.87,2.04,1.86,2.04,1.86-.76,1.86-2.05-.85-2.02-1.86-2.02Z"/><path class="e" d="M427.32,225.81h-.91v-.81c-.35,.57-1.02,.89-1.75,.89-1.26,0-2.25-.78-2.25-2.35v-3.21h.9v3.09c0,1.11,.61,1.68,1.53,1.68s1.57-.58,1.57-1.76v-3.01h.91v5.48Z"/><path class="e" d="M428.86,218.41h.91v7.4h-.91v-7.4Z"/><path class="e" d="M433.58,220.24c1.02,0,1.72,.52,2.04,1.09v-1h.92v5.48h-.92v-1.02c-.33,.59-1.04,1.11-2.05,1.11-1.46,0-2.59-1.15-2.59-2.85s1.13-2.81,2.6-2.81Zm.18,.79c-1,0-1.85,.73-1.85,2.02s.85,2.05,1.85,2.05,1.86-.75,1.86-2.04-.86-2.03-1.86-2.03Z"/><path class="e" d="M440.41,220.24c1.36,0,2.25,.7,2.53,1.85h-.98c-.19-.66-.74-1.08-1.55-1.08-1,0-1.74,.71-1.74,2.05s.74,2.07,1.74,2.07c.81,0,1.35-.39,1.55-1.08h.98c-.26,1.01-1.05,1.74-2.25,1.84v.5c.77-.01,1.29,.33,1.29,.99s-.51,1.03-1.22,1.03h-1.15v-.59h.97c.43,0,.64-.12,.64-.44s-.21-.43-.64-.43h-.5v-1.07c-1.38-.14-2.34-1.21-2.34-2.82,0-1.72,1.11-2.82,2.67-2.82Z"/><path class="e" d="M446.41,220.24c1.02,0,1.72,.52,2.04,1.09v-1h.92v5.48h-.92v-1.02c-.33,.59-1.04,1.11-2.05,1.11-1.46,0-2.59-1.15-2.59-2.85s1.13-2.81,2.6-2.81Zm.18,.79c-1,0-1.85,.73-1.85,2.02s.85,2.05,1.85,2.05,1.86-.75,1.86-2.04-.86-2.03-1.86-2.03Zm-.29-2.34c.53,0,.73,.46,1.14,.46,.22,0,.4-.14,.44-.43h.52c-.08,.68-.48,1.04-1,1.04s-.74-.46-1.14-.46c-.22,0-.39,.14-.43,.44h-.53c.1-.69,.48-1.05,1-1.05Z"/><path class="e" d="M453.3,225.9c-1.55,0-2.73-1.1-2.73-2.84s1.22-2.82,2.77-2.82,2.77,1.09,2.77,2.82-1.25,2.84-2.81,2.84Zm0-.8c.95,0,1.88-.65,1.88-2.04s-.91-2.03-1.85-2.03-1.83,.65-1.83,2.03,.85,2.04,1.8,2.04Z"/><path class="e" d="M462.24,220.24c1.02,0,1.72,.52,2.04,1.09v-1h.92v5.48h-.92v-1.02c-.33,.59-1.04,1.11-2.05,1.11-1.46,0-2.59-1.15-2.59-2.85s1.13-2.81,2.6-2.81Zm.18,.79c-1,0-1.85,.73-1.85,2.02s.85,2.05,1.85,2.05,1.86-.75,1.86-2.04-.86-2.03-1.86-2.03Z"/><path class="e" d="M466.74,218.41h.91v7.4h-.91v-7.4Z"/><path class="e" d="M469.53,220.33l1.71,4.64,1.7-4.64h.97l-2.15,5.48h-1.06l-2.15-5.48h.98Z"/><path class="e" d="M477.2,225.9c-1.55,0-2.73-1.1-2.73-2.84s1.22-2.82,2.77-2.82,2.77,1.09,2.77,2.82-1.25,2.84-2.81,2.84Zm0-.8c.95,0,1.88-.65,1.88-2.04s-.91-2.03-1.85-2.03-1.83,.65-1.83,2.03,.85,2.04,1.8,2.04Z"/><path class="e" d="M486.15,220.24c.86,0,1.65,.44,2.03,1.07v-2.9h.92v7.4h-.92v-1.03c-.33,.61-1.04,1.12-2.04,1.12-1.47,0-2.6-1.15-2.6-2.85s1.13-2.81,2.61-2.81Zm.17,.79c-1,0-1.85,.73-1.85,2.02s.85,2.05,1.85,2.05,1.86-.75,1.86-2.04-.86-2.03-1.86-2.03Z"/><path class="e" d="M492.9,220.24c1.02,0,1.72,.52,2.04,1.09v-1h.92v5.48h-.92v-1.02c-.33,.59-1.04,1.11-2.05,1.11-1.46,0-2.59-1.15-2.59-2.85s1.13-2.81,2.6-2.81Zm.18,.79c-1,0-1.85,.73-1.85,2.02s.85,2.05,1.85,2.05,1.86-.75,1.86-2.04-.86-2.03-1.86-2.03Z"/><path class="e" d="M402.39,230.82c0-.35,.27-.62,.62-.62,.33,0,.6,.27,.6,.62s-.27,.62-.6,.62c-.35,0-.62-.27-.62-.62Zm.15,1.51h.91v5.48h-.91v-5.48Z"/><path class="e" d="M409.01,234.71c0-1.12-.61-1.69-1.53-1.69s-1.57,.58-1.57,1.76v3.03h-.91v-5.48h.91v.78c.36-.57,1.02-.88,1.76-.88,1.27,0,2.24,.78,2.24,2.35v3.23h-.9v-3.1Z"/><path class="e" d="M411.6,233.08h-.71v-.75h.71v-1.38h.91v1.38h1.43v.75h-1.43v3.23c0,.54,.2,.73,.76,.73h.67v.77h-.82c-.97,0-1.52-.4-1.52-1.5v-3.23Z"/><path class="e" d="M417.41,237.9c-1.56,0-2.71-1.1-2.71-2.84s1.11-2.82,2.71-2.82,2.63,1.12,2.63,2.62c0,.2,0,.36-.03,.55h-4.38c.07,1.11,.85,1.72,1.78,1.72,.82,0,1.34-.42,1.54-1.01h.98c-.28,1-1.16,1.78-2.52,1.78Zm-1.77-3.23h3.46c.01-1.07-.79-1.66-1.73-1.66-.89,0-1.63,.59-1.73,1.66Z"/><path class="e" d="M422.15,237.81h-.91v-5.48h.91v.89c.31-.61,.9-.99,1.77-.99v.94h-.24c-.87,0-1.53,.39-1.53,1.66v2.98Z"/><path class="e" d="M425.3,232.33l1.71,4.64,1.7-4.64h.97l-2.15,5.48h-1.06l-2.15-5.48h.98Z"/><path class="e" d="M432.95,237.9c-1.56,0-2.71-1.1-2.71-2.84s1.11-2.82,2.71-2.82,2.63,1.12,2.63,2.62c0,.2,0,.36-.03,.55h-4.38c.07,1.11,.85,1.72,1.78,1.72,.82,0,1.34-.42,1.54-1.01h.98c-.28,1-1.16,1.78-2.52,1.78Zm-1.77-3.23h3.46c0-1.07-.79-1.66-1.73-1.66-.89,0-1.63,.59-1.73,1.66Z"/><path class="e" d="M440.79,234.71c0-1.12-.61-1.69-1.53-1.69s-1.57,.58-1.57,1.76v3.03h-.91v-5.48h.91v.78c.36-.57,1.02-.88,1.76-.88,1.27,0,2.24,.78,2.24,2.35v3.23h-.9v-3.1Z"/><path class="e" d="M445.51,232.24c1.36,0,2.25,.7,2.53,1.85h-.98c-.19-.66-.74-1.08-1.55-1.08-1,0-1.74,.71-1.74,2.05s.74,2.07,1.74,2.07c.81,0,1.35-.39,1.55-1.08h.98c-.26,1.01-1.05,1.74-2.25,1.84v.5c.77-.01,1.29,.33,1.29,.99s-.51,1.03-1.22,1.03h-1.15v-.59h.97c.43,0,.64-.12,.64-.44s-.21-.43-.64-.43h-.5v-1.07c-1.38-.14-2.34-1.21-2.34-2.82,0-1.72,1.11-2.82,2.67-2.82Z"/><path class="e" d="M451.51,232.24c1.02,0,1.72,.52,2.04,1.09v-1h.92v5.48h-.92v-1.02c-.33,.59-1.04,1.11-2.05,1.11-1.46,0-2.59-1.15-2.59-2.85s1.13-2.81,2.6-2.81Zm.18,.79c-1,0-1.85,.73-1.85,2.02s.85,2.05,1.85,2.05,1.86-.75,1.86-2.04-.86-2.03-1.86-2.03Zm-.29-2.34c.53,0,.73,.46,1.14,.46,.22,0,.4-.14,.44-.43h.52c-.08,.68-.48,1.04-1,1.04s-.74-.46-1.14-.46c-.22,0-.39,.14-.43,.44h-.53c.1-.69,.48-1.05,1-1.05Z"/><path class="e" d="M458.4,237.9c-1.55,0-2.73-1.1-2.73-2.84s1.22-2.82,2.77-2.82,2.77,1.09,2.77,2.82-1.25,2.84-2.81,2.84Zm0-.8c.95,0,1.88-.65,1.88-2.04s-.91-2.03-1.85-2.03-1.83,.65-1.83,2.03,.85,2.04,1.8,2.04Z"/></g></svg>