<?xml version="1.0" encoding="UTF-8"?><svg id="a" xmlns="http://www.w3.org/2000/svg" viewBox="0 0 585 165.97"><defs><style>.k{fill:#fff;font-family:Poppins-ExtraBold, Poppins;font-size:27.3px;}.l{fill:#1b8992;}.l,.m,.n,.o{fill-rule:evenodd;}.m{fill:#3f6b71;}.n{fill:#506d8f;}.o{fill:#ffa800;}.p{fill:#869fb2;}</style></defs><path class="m" d="M0,31.47C0,14.09,14.05,0,31.39,0s31.39,14.09,31.39,31.47-14.05,31.47-31.39,31.47S0,48.84,0,31.47H0Z"/><path class="n" d="M129.9,31.47c0-17.38,14.05-31.47,31.39-31.47s31.39,14.09,31.39,31.47-14.05,31.47-31.39,31.47-31.39-14.09-31.39-31.47h0Z"/><path class="n" d="M259.79,31.47c0-17.38,14.05-31.47,31.39-31.47s31.39,14.09,31.39,31.47-14.05,31.47-31.39,31.47-31.39-14.09-31.39-31.47h0Z"/><path class="l" d="M388.81,31.47c0-17.38,14.05-31.47,31.39-31.47s31.39,14.09,31.39,31.47-14.05,31.47-31.39,31.47-31.39-14.09-31.39-31.47h0Z"/><path class="l" d="M522.23,31.47c0-17.38,14.05-31.47,31.39-31.47s31.39,14.09,31.39,31.47-14.05,31.47-31.39,31.47-31.39-14.09-31.39-31.47h0Z"/><path class="m" d="M0,134.5c0-17.38,14.05-31.47,31.39-31.47s31.39,14.09,31.39,31.47-14.05,31.47-31.39,31.47S0,151.88,0,134.5H0Z"/><path class="m" d="M129.9,134.5c0-17.38,14.05-31.47,31.39-31.47s31.39,14.09,31.39,31.47-14.05,31.47-31.39,31.47-31.39-14.09-31.39-31.47h0Z"/><path class="n" d="M259.79,134.5c0-17.38,14.05-31.47,31.39-31.47s31.39,14.09,31.39,31.47-14.05,31.47-31.39,31.47-31.39-14.09-31.39-31.47h0Z"/><path class="l" d="M388.81,134.5c0-17.38,14.05-31.47,31.39-31.47s31.39,14.09,31.39,31.47-14.05,31.47-31.39,31.47-31.39-14.09-31.39-31.47h0Z"/><path class="o" d="M522.23,134.5c0-17.38,14.05-31.47,31.39-31.47s31.39,14.09,31.39,31.47-14.05,31.47-31.39,31.47-31.39-14.09-31.39-31.47h0Z"/><path id="b" class="p" d="M31.4,84.56l7-7.02c.51-.51,1.34-.52,1.85,0h0c.52,.53,.52,1.37,0,1.89l-7.93,7.94c-.5,.5-1.3,.52-1.82,.04l-8-7.98c-.52-.51-.52-1.35,0-1.87,.51-.52,1.35-.52,1.87,0h0l7.02,7.01h0Z"/><path id="c" class="p" d="M291.19,84.56l7-7.02c.51-.51,1.34-.52,1.85,0h0c.52,.53,.52,1.37,0,1.89l-7.93,7.94c-.5,.5-1.3,.52-1.82,.04l-8-7.98c-.52-.51-.52-1.35,0-1.87,.51-.52,1.35-.52,1.87,0h0l7.02,7.01h0Z"/><path id="d" class="p" d="M553.63,84.56l7-7.02c.51-.51,1.34-.52,1.85,0h0c.52,.53,.52,1.37,0,1.89l-7.93,7.94c-.5,.5-1.3,.52-1.82,.04l-8-7.98c-.52-.51-.52-1.35,0-1.87,.51-.52,1.35-.52,1.87,0h0l7.02,7.01h0Z"/><path id="e" class="p" d="M98.66,134.49l-7.02-7c-.51-.51-.52-1.34,0-1.85h0c.52-.53,1.36-.53,1.88,0l7.94,7.93c.5,.5,.52,1.3,.04,1.82l-7.98,8c-.51,.52-1.35,.52-1.87,0-.52-.51-.52-1.35,0-1.87h0l7-7.03h0Z"/><path id="f" class="p" d="M357.57,134.49l-7.02-7c-.51-.51-.52-1.34,0-1.85h0c.52-.53,1.36-.53,1.88,0l7.94,7.93c.5,.5,.52,1.3,.04,1.82l-7.98,8c-.51,.52-1.35,.52-1.87,0-.52-.51-.52-1.35,0-1.87h0l7-7.03h0Z"/><path id="g" class="p" d="M161.27,80.35l-7,7.02c-.51,.51-1.34,.52-1.85,0h0c-.52-.53-.52-1.37,0-1.89l7.93-7.94c.5-.5,1.3-.52,1.82-.04l8,7.98c.52,.51,.52,1.35,0,1.87-.51,.52-1.35,.52-1.87,0h0l-7.02-7.01h0Z"/><path id="h" class="p" d="M420.18,80.35l-7,7.02c-.51,.51-1.34,.52-1.85,0h0c-.52-.53-.52-1.37,0-1.89l7.93-7.94c.5-.5,1.3-.52,1.82-.04l8,7.98c.52,.51,.52,1.35,0,1.87-.51,.52-1.35,.52-1.87,0h0l-7.02-7.01h0Z"/><path id="i" class="p" d="M228.11,31.45l-7.02-7c-.51-.51-.52-1.34,0-1.85h0c.52-.53,1.36-.53,1.88,0l7.94,7.93c.5,.5,.52,1.3,.04,1.82l-7.98,8c-.51,.52-1.35,.52-1.87,0-.52-.51-.52-1.35,0-1.87h0l7-7.03h0Z"/><path id="j" class="p" d="M487.03,31.45l-7.02-7c-.51-.51-.52-1.34,0-1.85h0c.52-.53,1.36-.53,1.88,0l7.94,7.93c.5,.5,.52,1.3,.04,1.82l-7.98,8c-.51,.52-1.35,.52-1.87,0-.52-.51-.52-1.35,0-1.87h0l7-7.03h0Z"/><text class="k" transform="translate(26.13 41.09)"><tspan x="0" y="0">1</tspan></text><text class="k" transform="translate(23.65 144.13)"><tspan x="0" y="0">2</tspan></text><text class="k" transform="translate(151.71 41.09)"><tspan x="0" y="0">4</tspan></text><text class="k" transform="translate(151.71 144.13)"><tspan x="0" y="0">3</tspan></text><text class="k" transform="translate(282.48 41.09)"><tspan x="0" y="0">5</tspan></text><text class="k" transform="translate(282.48 144.13)"><tspan x="0" y="0">6</tspan></text><text class="k" transform="translate(411.05 41.09)"><tspan x="0" y="0">8</tspan></text><text class="k" transform="translate(412.83 144.13)"><tspan x="0" y="0">7</tspan></text><text class="k" transform="translate(545.7 41.09)"><tspan x="0" y="0">9</tspan></text><text class="k" transform="translate(539.73 144.13)"><tspan x="0" y="0">10</tspan></text></svg>