<?xml version="1.0" encoding="UTF-8"?><svg id="Camada_1" xmlns="http://www.w3.org/2000/svg" viewBox="0 0 391 281"><defs><style>.cls-1{fill:#fff;}.cls-2{fill:#f3feff;}.cls-3{fill:#ffa800;}.cls-4{fill:#506d8f;}</style></defs><rect class="cls-3" x="130.37" y="32.76" width="136.14" height="36.49" rx="13" ry="13"/><g><path class="cls-1" d="M156.33,55.38h-4.41l-.71,2.09h-3.01l4.28-11.82h3.33l4.28,11.82h-3.05l-.71-2.09Zm-2.21-6.55l-1.45,4.33h2.91l-1.46-4.33Z"/><path class="cls-1" d="M169.43,45.66h3.05l-4.19,11.82h-3.6l-4.19-11.82h3.06l2.93,8.92,2.95-8.92Z"/><path class="cls-1" d="M181.03,55.38h-4.41l-.71,2.09h-3.01l4.28-11.82h3.33l4.28,11.82h-3.05l-.71-2.09Zm-2.21-6.55l-1.45,4.33h2.91l-1.46-4.33Z"/><path class="cls-1" d="M188.97,45.66v9.59h3.77v2.22h-6.65v-11.82h2.88Z"/><path class="cls-1" d="M194.12,45.66h2.88v11.82h-2.88v-11.82Z"/><path class="cls-1" d="M206.45,55.38h-4.41l-.71,2.09h-3.01l4.28-11.82h3.33l4.28,11.82h-3.05l-.71-2.09Zm-2.21-6.55l-1.45,4.33h2.91l-1.46-4.33Z"/><path class="cls-1" d="M216.96,45.52c2.81,0,4.93,1.58,5.61,4.14h-3.16c-.49-1.01-1.38-1.52-2.47-1.52-1.77,0-2.98,1.31-2.98,3.4s1.21,3.4,2.98,3.4c1.09,0,1.99-.51,2.47-1.52h3.16c-.61,2.27-2.34,3.77-4.7,4.07v.66c1.01,0,2.19,.52,2.19,1.92s-1.18,1.95-2.34,1.95h-2.59v-1.58h2.21c.42,0,.67-.1,.67-.44,0-.32-.25-.42-.67-.42h-1.2v-2.09c-3.05-.35-5.12-2.71-5.12-5.96,0-3.53,2.46-6.03,5.94-6.03Z"/><path class="cls-1" d="M231.69,55.38h-4.41l-.71,2.09h-3.01l4.28-11.82h3.33l4.28,11.82h-3.05l-.71-2.09Zm-3.23-13.05c1.01,0,1.53,.76,2.21,.76,.39,0,.66-.24,.72-.76h1.48c-.29,1.77-1.14,2.49-2.32,2.49-1.01,0-1.53-.76-2.21-.76-.39,0-.66,.24-.74,.76h-1.47c.29-1.77,1.13-2.49,2.32-2.49Zm1.03,6.5l-1.45,4.33h2.91l-1.47-4.33Z"/><path class="cls-1" d="M242.34,57.59c-3.35,0-6.08-2.51-6.08-6.06s2.73-6.04,6.08-6.04,6.04,2.49,6.04,6.04-2.69,6.06-6.04,6.06Zm0-2.63c1.89,0,3.11-1.36,3.11-3.43s-1.23-3.43-3.11-3.43-3.13,1.33-3.13,3.43,1.21,3.43,3.13,3.43Z"/></g><rect class="cls-3" x="13.6" y="211.75" width="161.4" height="36.49" rx="13" ry="13"/><g><path class="cls-1" d="M31.27,224.69h2.83l2.76,6.82,2.74-6.82h2.82v9.85h-2.4v-5.91l-2.2,5.91h-1.94l-2.22-5.92v5.92h-2.4v-9.85Z"/><path class="cls-1" d="M48.82,234.63c-2.79,0-5.06-2.09-5.06-5.05s2.27-5.04,5.06-5.04,5.04,2.08,5.04,5.04-2.24,5.05-5.04,5.05Zm0-2.19c1.57,0,2.59-1.14,2.59-2.86s-1.02-2.86-2.59-2.86-2.61,1.11-2.61,2.86,1.01,2.86,2.61,2.86Z"/><path class="cls-1" d="M64,224.69v9.85h-2.4l-4.01-6.07v6.07h-2.4v-9.85h2.4l4.01,6.1v-6.1h2.4Z"/><path class="cls-1" d="M65.74,224.69h2.4v9.85h-2.4v-9.85Z"/><path class="cls-1" d="M69.35,224.69h7.62v1.92h-2.61v7.92h-2.4v-7.92h-2.61v-1.92Z"/><path class="cls-1" d="M82.84,234.63c-2.79,0-5.06-2.09-5.06-5.05s2.27-5.04,5.06-5.04,5.04,2.08,5.04,5.04-2.24,5.05-5.04,5.05Zm0-2.19c1.57,0,2.59-1.14,2.59-2.86s-1.02-2.86-2.59-2.86-2.61,1.11-2.61,2.86,1.01,2.86,2.61,2.86Z"/><path class="cls-1" d="M93.24,224.69c2.41,0,3.62,1.39,3.62,3.1,0,1.23-.67,2.4-2.19,2.85l2.27,3.9h-2.71l-2.05-3.72h-.57v3.72h-2.4v-9.85h4.03Zm-.14,1.99h-1.49v2.44h1.49c.9,0,1.32-.46,1.32-1.23,0-.73-.42-1.21-1.32-1.21Z"/><path class="cls-1" d="M104.49,232.79h-3.68l-.59,1.74h-2.51l3.56-9.85h2.78l3.56,9.85h-2.54l-.59-1.74Zm-1.84-5.46l-1.21,3.6h2.43l-1.22-3.6Z"/><path class="cls-1" d="M108.7,224.69h2.83l2.76,6.82,2.74-6.82h2.82v9.85h-2.4v-5.91l-2.2,5.91h-1.94l-2.22-5.92v5.92h-2.4v-9.85Z"/><path class="cls-1" d="M127.62,226.61h-3.63v1.99h3.21v1.85h-3.21v2.16h3.63v1.92h-6.03v-9.85h6.03v1.92Z"/><path class="cls-1" d="M137.99,224.69v9.85h-2.4l-4.01-6.07v6.07h-2.4v-9.85h2.4l4.01,6.1v-6.1h2.4Z"/><path class="cls-1" d="M139.2,224.69h7.62v1.92h-2.61v7.92h-2.4v-7.92h-2.61v-1.92Z"/><path class="cls-1" d="M152.69,234.63c-2.79,0-5.06-2.09-5.06-5.05s2.27-5.04,5.06-5.04,5.04,2.08,5.04,5.04-2.24,5.05-5.04,5.05Zm0-2.19c1.57,0,2.59-1.14,2.59-2.86s-1.02-2.86-2.59-2.86-2.61,1.11-2.61,2.86,1.01,2.86,2.61,2.86Z"/></g><g><circle class="cls-4" cx="43.02" cy="134.03" r="34.2"/><rect class="cls-2" x="0" y="121.33" width="86.04" height="25.41" rx="9.05" ry="9.05"/><g><path class="cls-4" d="M17.38,131.36c0,2.44-1.69,4.12-4.32,4.12h-3.09v-8.24h3.09c2.63,0,4.32,1.67,4.32,4.12Zm-4.45,2.38c1.51,0,2.41-.87,2.41-2.38s-.89-2.41-2.41-2.41h-.95v4.79h.95Z"/><path class="cls-4" d="M23.54,128.85h-3.04v1.67h2.69v1.55h-2.69v1.81h3.04v1.61h-5.05v-8.24h5.05v1.61Z"/><path class="cls-4" d="M27.82,135.56c-1.77,0-3.16-.88-3.22-2.55h2.14c.06,.63,.46,.94,1.02,.94s.96-.29,.96-.77c0-1.53-4.12-.7-4.1-3.63,0-1.56,1.28-2.43,3-2.43s3,.89,3.09,2.47h-2.17c-.03-.53-.41-.85-.95-.86-.48-.01-.84,.23-.84,.75,0,1.43,4.07,.79,4.07,3.54,0,1.39-1.08,2.54-3,2.54Z"/><path class="cls-4" d="M35.85,127.15c1.96,0,3.44,1.1,3.91,2.89h-2.21c-.34-.7-.96-1.06-1.72-1.06-1.23,0-2.08,.92-2.08,2.37s.84,2.37,2.08,2.37c.76,0,1.38-.35,1.72-1.06h2.21c-.47,1.78-1.95,2.88-3.91,2.88-2.43,0-4.14-1.73-4.14-4.19s1.71-4.2,4.14-4.2Z"/><path class="cls-4" d="M44.35,127.24c2.02,0,3.03,1.16,3.03,2.59,0,1.03-.56,2.01-1.83,2.38l1.9,3.26h-2.27l-1.71-3.11h-.48v3.11h-2.01v-8.24h3.37Zm-.12,1.67h-1.24v2.04h1.24c.75,0,1.1-.39,1.1-1.03,0-.61-.35-1.01-1.1-1.01Z"/><path class="cls-4" d="M53.68,128.85h-3.04v1.67h2.69v1.55h-2.69v1.81h3.04v1.61h-5.05v-8.24h5.05v1.61Z"/><path class="cls-4" d="M60.58,127.24h2.12l-2.92,8.24h-2.51l-2.92-8.24h2.14l2.04,6.22,2.05-6.22Z"/><path class="cls-4" d="M68.58,128.85h-3.04v1.67h2.69v1.55h-2.69v1.81h3.04v1.61h-5.05v-8.24h5.05v1.61Z"/><path class="cls-4" d="M73.25,127.24c2.02,0,3.03,1.16,3.03,2.59,0,1.03-.56,2.01-1.83,2.38l1.9,3.26h-2.27l-1.71-3.11h-.48v3.11h-2.01v-8.24h3.37Zm-.12,1.67h-1.24v2.04h1.24c.75,0,1.1-.39,1.1-1.03,0-.61-.35-1.01-1.1-1.01Z"/></g></g><g><circle class="cls-4" cx="144.67" cy="134.03" r="34.2"/><rect class="cls-2" x="101.65" y="121.33" width="86.04" height="25.41" rx="9.05" ry="9.05"/><g><path class="cls-4" d="M121.2,134.02h-3.07l-.49,1.46h-2.1l2.98-8.24h2.32l2.98,8.24h-2.12l-.49-1.46Zm-1.54-4.57l-1.01,3.02h2.03l-1.02-3.02Z"/><path class="cls-4" d="M132.09,127.24v8.24h-2.01l-3.36-5.08v5.08h-2.01v-8.24h2.01l3.36,5.11v-5.11h2.01Z"/><path class="cls-4" d="M138.66,134.02h-3.07l-.49,1.46h-2.1l2.98-8.24h2.32l2.98,8.24h-2.12l-.49-1.46Zm-1.54-4.57l-1.01,3.02h2.03l-1.02-3.02Z"/><path class="cls-4" d="M144.18,127.24v6.69h2.63v1.55h-4.64v-8.24h2.01Z"/><path class="cls-4" d="M147.77,127.24h2.01v8.24h-2.01v-8.24Z"/><path class="cls-4" d="M154.21,135.56c-1.77,0-3.16-.88-3.22-2.55h2.14c.06,.63,.46,.94,1.02,.94s.96-.29,.96-.77c0-1.53-4.12-.7-4.1-3.63,0-1.56,1.28-2.43,3-2.43s3,.89,3.09,2.47h-2.17c-.03-.53-.41-.85-.95-.86-.48-.01-.84,.23-.84,.75,0,1.43,4.07,.79,4.07,3.54,0,1.39-1.08,2.54-3,2.54Z"/><path class="cls-4" d="M163.57,134.02h-3.07l-.49,1.46h-2.1l2.98-8.24h2.32l2.98,8.24h-2.12l-.49-1.46Zm-1.54-4.57l-1.01,3.02h2.03l-1.02-3.02Z"/><path class="cls-4" d="M170.45,127.24c2.02,0,3.03,1.16,3.03,2.59,0,1.03-.56,2.01-1.83,2.38l1.9,3.26h-2.27l-1.71-3.11h-.48v3.11h-2.01v-8.24h3.37Zm-.12,1.67h-1.24v2.04h1.24c.75,0,1.1-.39,1.1-1.03,0-.61-.35-1.01-1.1-1.01Z"/></g></g><g><circle class="cls-4" cx="246.33" cy="134.03" r="34.2"/><rect class="cls-2" x="203.31" y="121.33" width="86.04" height="25.41" rx="9.05" ry="9.05"/><g><path class="cls-4" d="M223.94,128.85h-3.04v1.67h2.69v1.55h-2.69v1.81h3.04v1.61h-5.05v-8.24h5.05v1.61Z"/><path class="cls-4" d="M228.61,132.95l-1.48,2.52h-2.28l2.64-4.19-2.7-4.05h2.34l1.66,2.49,1.45-2.49h2.28l-2.62,4.15,2.72,4.08h-2.33l-1.68-2.52Z"/><path class="cls-4" d="M236.87,132.52h-1.24v2.96h-2.01v-8.24h3.25c2.02,0,3.03,1.14,3.03,2.65,0,1.36-.93,2.63-3.03,2.63Zm-.15-1.6c.8,0,1.14-.4,1.14-1.03s-.34-1.03-1.14-1.03h-1.09v2.07h1.09Z"/><path class="cls-4" d="M242.95,127.24v6.69h2.63v1.55h-4.64v-8.24h2.01Z"/><path class="cls-4" d="M246.53,127.24h2.01v8.24h-2.01v-8.24Z"/><path class="cls-4" d="M253.79,127.15c1.96,0,3.44,1.1,3.91,2.89h-2.21c-.34-.7-.96-1.06-1.72-1.06-1.23,0-2.08,.92-2.08,2.37s.85,2.37,2.08,2.37c.76,0,1.38-.35,1.72-1.06h2.21c-.47,1.78-1.95,2.88-3.91,2.88-2.43,0-4.14-1.73-4.14-4.19s1.71-4.2,4.14-4.2Z"/><path class="cls-4" d="M264.05,134.02h-3.07l-.49,1.46h-2.1l2.98-8.24h2.32l2.98,8.24h-2.12l-.49-1.46Zm-1.54-4.57l-1.01,3.02h2.03l-1.02-3.02Z"/><path class="cls-4" d="M270.94,127.24c2.02,0,3.03,1.16,3.03,2.59,0,1.03-.56,2.01-1.83,2.38l1.9,3.26h-2.27l-1.71-3.11h-.48v3.11h-2.01v-8.24h3.37Zm-.12,1.67h-1.24v2.04h1.24c.75,0,1.1-.39,1.1-1.03,0-.61-.35-1.01-1.1-1.01Z"/></g></g><g><circle class="cls-4" cx="347.98" cy="134.03" r="34.2"/><rect class="cls-2" x="304.96" y="121.33" width="86.04" height="25.41" rx="9.05" ry="9.05"/><g><path class="cls-4" d="M328.94,127.24h2.01v5.61c0,1.77-1.08,2.71-2.71,2.71s-2.88-.99-2.88-2.84h2c0,.7,.31,1.04,.82,1.04,.48,0,.76-.31,.76-.92v-5.61Z"/><path class="cls-4" d="M332.52,127.24h2.01v4.93c0,.97,.48,1.54,1.43,1.54s1.45-.56,1.45-1.54v-4.93h2.01v4.92c0,2.28-1.6,3.4-3.5,3.4s-3.4-1.13-3.4-3.4v-4.92Z"/><path class="cls-4" d="M342.83,127.24v6.69h2.63v1.55h-4.64v-8.24h2.01Z"/><path class="cls-4" d="M354.1,129.84h-2.22c-.31-.55-.87-.85-1.62-.85-1.29,0-2.15,.92-2.15,2.35,0,1.53,.87,2.42,2.31,2.42,1,0,1.69-.53,2-1.46h-2.55v-1.48h4.37v1.87c-.42,1.42-1.8,2.84-3.97,2.84-2.46,0-4.2-1.73-4.2-4.19s1.73-4.2,4.19-4.2c1.97,0,3.4,1.01,3.84,2.7Z"/><path class="cls-4" d="M360.48,134.02h-3.07l-.49,1.46h-2.1l2.98-8.24h2.32l2.98,8.24h-2.12l-.49-1.46Zm-1.54-4.57l-1.01,3.02h2.03l-1.02-3.02Z"/><path class="cls-4" d="M367.36,127.24c2.02,0,3.03,1.16,3.03,2.59,0,1.03-.56,2.01-1.83,2.38l1.9,3.26h-2.27l-1.71-3.11h-.48v3.11h-2.01v-8.24h3.37Zm-.12,1.67h-1.24v2.04h1.24c.75,0,1.1-.39,1.1-1.03,0-.61-.35-1.01-1.1-1.01Z"/></g></g><g><polygon class="cls-4" points="149.36 198.4 38.81 198.4 38.81 187 41.62 187 41.62 195.59 146.55 195.59 146.55 187 149.36 187 149.36 198.4"/><rect class="cls-4" x="92.87" y="196.82" width="2.81" height="10"/></g><g><polygon class="cls-4" points="349.39 94.54 346.58 94.54 346.58 85.95 44.42 85.95 44.42 94.54 41.62 94.54 41.62 83.14 349.39 83.14 349.39 94.54"/><rect class="cls-4" x="244.45" y="84.54" width="2.81" height="10"/><rect class="cls-4" x="196.73" y="74.72" width="2.81" height="10"/><rect class="cls-4" x="143.39" y="85.95" width="2.81" height="10"/></g></svg>