<?xml version="1.0" encoding="UTF-8"?><svg id="Camada_1" xmlns="http://www.w3.org/2000/svg" viewBox="0 0 757 294"><defs><style>.cls-1{fill:#fff;}.cls-2{fill:#3f6b71;}.cls-3{fill:none;stroke:#869fb2;stroke-miterlimit:10;stroke-width:3px;}.cls-4{fill:#506d8f;}.cls-5{fill:#869fb2;}</style></defs><g><rect class="cls-2" x="5.91" y="138.2" width="217.97" height="40.73"/><g><path class="cls-1" d="M31.62,157.45h-1.12v2.66h-1.81v-7.41h2.92c1.82,0,2.72,1.02,2.72,2.39,0,1.23-.83,2.37-2.72,2.37Zm-.14-1.44c.72,0,1.02-.36,1.02-.93s-.31-.93-1.02-.93h-.98v1.86h.98Z"/><path class="cls-1" d="M38.31,152.7c1.82,0,2.72,1.04,2.72,2.33,0,.93-.51,1.81-1.65,2.14l1.71,2.94h-2.04l-1.54-2.8h-.43v2.8h-1.81v-7.41h3.03Zm-.11,1.5h-1.12v1.84h1.12c.68,0,.99-.35,.99-.93,0-.55-.32-.91-.99-.91Z"/><path class="cls-1" d="M45.67,160.19c-2.1,0-3.81-1.57-3.81-3.8s1.71-3.79,3.81-3.79,3.79,1.56,3.79,3.79-1.69,3.8-3.79,3.8Zm0-1.65c1.18,0,1.95-.86,1.95-2.15s-.77-2.15-1.95-2.15-1.96,.83-1.96,2.15,.76,2.15,1.96,2.15Z"/><path class="cls-1" d="M53.92,160.11h-3.45v-7.41h3.34c1.51,0,2.41,.75,2.41,1.92,0,.9-.54,1.48-1.26,1.69,.87,.18,1.43,.94,1.43,1.78,0,1.22-.9,2.02-2.46,2.02Zm-.46-5.97h-1.18v1.55h1.18c.59,0,.92-.26,.92-.77s-.33-.78-.92-.78Zm.13,2.87h-1.31v1.64h1.33c.6,0,.95-.27,.95-.8s-.37-.83-.97-.83Z"/><path class="cls-1" d="M59.23,152.7v6.02h2.37v1.39h-4.17v-7.41h1.81Z"/><path class="cls-1" d="M67,154.15h-2.73v1.5h2.42v1.39h-2.42v1.63h2.73v1.45h-4.54v-7.41h4.54v1.45Z"/><path class="cls-1" d="M68.17,152.7h2.13l2.08,5.13,2.06-5.13h2.12v7.41h-1.81v-4.45l-1.66,4.45h-1.46l-1.67-4.46v4.46h-1.81v-7.41Z"/><path class="cls-1" d="M82.48,158.8h-2.77l-.44,1.31h-1.89l2.68-7.41h2.09l2.68,7.41h-1.91l-.44-1.31Zm-1.38-4.11l-.91,2.71h1.83l-.92-2.71Z"/><path class="cls-1" d="M88.33,160.19c-1.59,0-2.84-.79-2.89-2.29h1.92c.05,.57,.41,.84,.92,.84s.87-.26,.87-.7c0-1.37-3.71-.63-3.69-3.26,0-1.4,1.15-2.19,2.7-2.19s2.7,.8,2.78,2.22h-1.95c-.03-.47-.37-.76-.85-.77-.43-.01-.76,.21-.76,.68,0,1.29,3.66,.71,3.66,3.19,0,1.25-.97,2.28-2.7,2.28Z"/><path class="cls-1" d="M98.92,154.15h-2.73v1.5h2.42v1.39h-2.42v1.63h2.73v1.45h-4.54v-7.41h4.54v1.45Z"/><path class="cls-1" d="M108.99,156.4c0,2.2-1.52,3.71-3.89,3.71h-2.78v-7.41h2.78c2.37,0,3.89,1.5,3.89,3.71Zm-4,2.14c1.36,0,2.16-.78,2.16-2.14s-.8-2.17-2.16-2.17h-.85v4.31h.85Z"/><path class="cls-1" d="M114.55,154.15h-2.73v1.5h2.42v1.39h-2.42v1.63h2.73v1.45h-4.54v-7.41h4.54v1.45Z"/><path class="cls-1" d="M115.72,152.7h2.13l2.08,5.13,2.06-5.13h2.12v7.41h-1.81v-4.45l-1.66,4.45h-1.46l-1.67-4.46v4.46h-1.81v-7.41Z"/><path class="cls-1" d="M130.03,158.8h-2.77l-.44,1.31h-1.89l2.68-7.41h2.09l2.68,7.41h-1.91l-.44-1.31Zm-1.38-4.11l-.91,2.71h1.83l-.92-2.71Z"/><path class="cls-1" d="M139.83,152.7v7.41h-1.81l-3.02-4.57v4.57h-1.81v-7.41h1.81l3.02,4.59v-4.59h1.81Z"/><path class="cls-1" d="M147.8,156.4c0,2.2-1.52,3.71-3.89,3.71h-2.78v-7.41h2.78c2.37,0,3.89,1.5,3.89,3.71Zm-4,2.14c1.36,0,2.16-.78,2.16-2.14s-.8-2.17-2.16-2.17h-.85v4.31h.85Z"/><path class="cls-1" d="M153.43,158.8h-2.77l-.44,1.31h-1.89l2.68-7.41h2.09l2.68,7.41h-1.91l-.44-1.31Zm-1.38-4.11l-.91,2.71h1.83l-.92-2.71Z"/><path class="cls-1" d="M159.28,160.19c-1.59,0-2.84-.79-2.89-2.29h1.92c.05,.57,.41,.84,.92,.84s.87-.26,.87-.7c0-1.37-3.71-.63-3.69-3.26,0-1.4,1.15-2.19,2.7-2.19s2.7,.8,2.78,2.22h-1.95c-.03-.47-.37-.76-.85-.77-.43-.01-.76,.21-.76,.68,0,1.29,3.66,.71,3.66,3.19,0,1.25-.97,2.28-2.7,2.28Z"/><path class="cls-1" d="M168.01,160.19c-1.59,0-2.84-.79-2.89-2.29h1.92c.05,.57,.41,.84,.92,.84s.87-.26,.87-.7c0-1.37-3.71-.63-3.69-3.26,0-1.4,1.15-2.19,2.7-2.19s2.7,.8,2.78,2.22h-1.95c-.03-.47-.37-.76-.85-.77-.43-.01-.76,.21-.76,.68,0,1.29,3.66,.71,3.66,3.19,0,1.25-.97,2.28-2.7,2.28Z"/><path class="cls-1" d="M175.32,160.19c-2.1,0-3.81-1.57-3.81-3.8s1.71-3.79,3.81-3.79,3.79,1.56,3.79,3.79-1.69,3.8-3.79,3.8Zm0-1.65c1.18,0,1.95-.86,1.95-2.15s-.77-2.15-1.95-2.15-1.96,.83-1.96,2.15,.76,2.15,1.96,2.15Z"/><path class="cls-1" d="M183.54,152.61c1.76,0,3.09,.99,3.52,2.6h-1.98c-.31-.63-.87-.95-1.55-.95-1.11,0-1.87,.82-1.87,2.13s.76,2.13,1.87,2.13c.69,0,1.25-.32,1.55-.95h1.98c-.42,1.6-1.75,2.59-3.52,2.59-2.19,0-3.73-1.55-3.73-3.77s1.54-3.78,3.73-3.78Z"/><path class="cls-1" d="M188.16,152.7h1.81v7.41h-1.81v-7.41Z"/><path class="cls-1" d="M195.89,158.8h-2.77l-.44,1.31h-1.89l2.68-7.41h2.09l2.68,7.41h-1.91l-.44-1.31Zm-1.38-4.11l-.91,2.71h1.83l-.92-2.71Z"/><path class="cls-1" d="M199.06,152.7h1.81v7.41h-1.81v-7.41Z"/><path class="cls-1" d="M204.86,160.19c-1.59,0-2.84-.79-2.89-2.29h1.92c.05,.57,.41,.84,.92,.84s.87-.26,.87-.7c0-1.37-3.71-.63-3.69-3.26,0-1.4,1.15-2.19,2.7-2.19s2.7,.8,2.78,2.22h-1.95c-.03-.47-.37-.76-.85-.77-.43-.01-.76,.21-.76,.68,0,1.29,3.66,.71,3.66,3.19,0,1.25-.97,2.28-2.7,2.28Z"/></g></g><path id="Caminho_6091" class="cls-5" d="M242.12,59.96l-5.51-5.51c-.4-.4-.41-1.05,0-1.46h0c.41-.41,1.07-.41,1.48,0l6.24,6.24c.39,.39,.41,1.02,.03,1.43l-6.27,6.29c-.4,.41-1.06,.41-1.47,0-.41-.4-.41-1.06,0-1.47h0l5.51-5.52h0Z"/><path id="Caminho_6091-2" class="cls-5" d="M117.6,204.47l5.51,5.51c.4,.4,1.05,.41,1.46,0h0c.41-.42,.41-1.08,0-1.49l-6.24-6.24c-.39-.39-1.02-.41-1.43-.03l-6.29,6.27c-.41,.4-.41,1.06,0,1.47,.4,.41,1.06,.41,1.47,0h0l5.51-5.51h0Z"/><path id="Caminho_6091-3" class="cls-5" d="M511.41,57.93l-5.51-5.51c-.4-.4-.41-1.05,0-1.46h0c.41-.41,1.07-.41,1.48,0l6.24,6.24c.39,.39,.41,1.02,.03,1.43l-6.27,6.29c-.4,.41-1.06,.41-1.47,0-.41-.4-.41-1.06,0-1.47h0l5.51-5.52h0Z"/><path id="Caminho_6091-4" class="cls-5" d="M508.11,247.96l5.51-5.51c.4-.4,.41-1.05,0-1.46h0c-.41-.41-1.07-.41-1.48,0l-6.24,6.24c-.39,.39-.41,1.02-.03,1.43l6.27,6.29c.4,.41,1.06,.41,1.47,0,.41-.4,.41-1.06,0-1.47h0l-5.51-5.52h0Z"/><path id="Caminho_6091-5" class="cls-5" d="M635.33,106.87l5.51-5.51c.4-.4,1.05-.41,1.46,0h0c.41,.42,.41,1.08,0,1.49l-6.24,6.24c-.39,.39-1.02,.41-1.43,.03l-6.29-6.27c-.41-.4-.41-1.06,0-1.47,.4-.41,1.06-.41,1.47,0h0l5.51,5.51h0Z"/><path id="Caminho_6091-6" class="cls-5" d="M635.33,202.04l5.51-5.51c.4-.4,1.05-.41,1.46,0h0c.41,.42,.41,1.08,0,1.49l-6.24,6.24c-.39,.39-1.02,.41-1.43,.03l-6.29-6.27c-.41-.4-.41-1.06,0-1.47,.4-.41,1.06-.41,1.47,0h0l5.51,5.51h0Z"/><polyline class="cls-3" points="226.58 59.93 117.59 59.93 117.59 124.84"/><polyline class="cls-3" points="226.58 249.83 117.59 249.83 117.59 212.86"/><g><g><rect class="cls-4" x="267.46" y="21.91" width="217.97" height="76.18"/><g><path class="cls-1" d="M300.25,52.62c1.73,0,2.56,.96,2.56,2.16,0,.94-.52,1.84-1.75,2.11l1.85,3.08h-1.15l-1.75-3.01h-1.16v3.01h-.96v-7.36h2.38Zm0,.79h-1.42v2.79h1.42c1.09,0,1.56-.59,1.56-1.42s-.46-1.37-1.56-1.37Z"/><path class="cls-1" d="M306.79,60.07c-1.65,0-2.86-1.16-2.86-3s1.17-2.98,2.86-2.98,2.78,1.18,2.78,2.77c0,.21-.01,.38-.03,.58h-4.62c.07,1.17,.9,1.82,1.88,1.82,.87,0,1.42-.44,1.63-1.07h1.04c-.3,1.06-1.23,1.88-2.66,1.88Zm-1.87-3.41h3.65c.01-1.13-.83-1.75-1.83-1.75-.94,0-1.72,.62-1.83,1.75Z"/><path class="cls-1" d="M313.3,54.09c1.44,0,2.38,.74,2.67,1.95h-1.03c-.2-.7-.78-1.14-1.64-1.14-1.06,0-1.84,.75-1.84,2.16s.78,2.19,1.84,2.19c.85,0,1.43-.41,1.64-1.14h1.03c-.3,1.15-1.24,1.95-2.67,1.95-1.65,0-2.82-1.16-2.82-3s1.17-2.98,2.82-2.98Z"/><path class="cls-1" d="M319.77,60.07c-1.64,0-2.88-1.16-2.88-3s1.29-2.98,2.92-2.98,2.92,1.15,2.92,2.98-1.32,3-2.97,3Zm0-.84c1,0,1.99-.69,1.99-2.15s-.96-2.14-1.95-2.14-1.93,.69-1.93,2.14,.9,2.15,1.9,2.15Z"/><path class="cls-1" d="M328.24,56.7c0-1.18-.64-1.78-1.62-1.78s-1.66,.61-1.66,1.86v3.2h-.96v-5.79h.96v.82c.38-.6,1.08-.93,1.86-.93,1.34,0,2.37,.82,2.37,2.48v3.41h-.95v-3.27Z"/><path class="cls-1" d="M330.76,52.16h.96v2.86c.38-.61,1.1-.94,1.91-.94,1.29,0,2.31,.82,2.31,2.48v3.41h-.95v-3.27c0-1.18-.64-1.78-1.62-1.78s-1.66,.61-1.66,1.86v3.2h-.96v-7.81Z"/><path class="cls-1" d="M340.02,60.07c-1.65,0-2.86-1.16-2.86-3s1.17-2.98,2.86-2.98,2.78,1.18,2.78,2.77c0,.21-.01,.38-.03,.58h-4.62c.07,1.17,.9,1.82,1.88,1.82,.87,0,1.42-.44,1.63-1.07h1.03c-.3,1.06-1.23,1.88-2.66,1.88Zm-1.87-3.41h3.65c.01-1.13-.83-1.75-1.83-1.75-.94,0-1.72,.62-1.83,1.75Z"/><path class="cls-1" d="M346.53,54.09c1.44,0,2.38,.74,2.67,1.95h-1.03c-.2-.7-.78-1.14-1.64-1.14-1.06,0-1.84,.75-1.84,2.16s.78,2.19,1.84,2.19c.85,0,1.43-.41,1.64-1.14h1.03c-.3,1.15-1.24,1.95-2.67,1.95-1.65,0-2.82-1.16-2.82-3s1.17-2.98,2.82-2.98Z"/><path class="cls-1" d="M350.32,52.6c0-.37,.29-.65,.65-.65,.35,0,.63,.29,.63,.65s-.29,.65-.63,.65c-.37,0-.65-.29-.65-.65Zm.16,1.59h.96v5.79h-.96v-5.79Z"/><path class="cls-1" d="M361.43,56.7c0-1.18-.63-1.78-1.58-1.78s-1.64,.62-1.64,1.87v3.19h-.95v-3.27c0-1.18-.63-1.78-1.58-1.78s-1.64,.62-1.64,1.87v3.19h-.96v-5.79h.96v.83c.38-.61,1.07-.94,1.83-.94,.95,0,1.74,.42,2.12,1.29,.34-.83,1.16-1.29,2.05-1.29,1.32,0,2.34,.82,2.34,2.48v3.41h-.95v-3.27Z"/><path class="cls-1" d="M366.45,60.07c-1.65,0-2.86-1.16-2.86-3s1.17-2.98,2.86-2.98,2.78,1.18,2.78,2.77c0,.21-.01,.38-.03,.58h-4.62c.07,1.17,.9,1.82,1.88,1.82,.87,0,1.42-.44,1.63-1.07h1.04c-.3,1.06-1.23,1.88-2.66,1.88Zm-1.87-3.41h3.65c.01-1.13-.83-1.75-1.83-1.75-.94,0-1.72,.62-1.83,1.75Z"/><path class="cls-1" d="M374.73,56.7c0-1.18-.64-1.78-1.62-1.78s-1.66,.61-1.66,1.86v3.2h-.96v-5.79h.96v.82c.38-.6,1.08-.93,1.86-.93,1.34,0,2.37,.82,2.37,2.48v3.41h-.95v-3.27Z"/><path class="cls-1" d="M377.47,54.98h-.75v-.79h.75v-1.46h.96v1.46h1.51v.79h-1.51v3.41c0,.57,.21,.77,.8,.77h.71v.81h-.87c-1.02,0-1.6-.42-1.6-1.58v-3.41Z"/><path class="cls-1" d="M383.63,60.07c-1.64,0-2.88-1.16-2.88-3s1.29-2.98,2.92-2.98,2.92,1.15,2.92,2.98-1.32,3-2.97,3Zm0-.84c1,0,1.99-.69,1.99-2.15s-.96-2.14-1.95-2.14-1.93,.69-1.93,2.14,.9,2.15,1.9,2.15Z"/><path class="cls-1" d="M405.42,54.09c.91,0,1.74,.46,2.14,1.13v-3.06h.97v7.81h-.97v-1.09c-.35,.64-1.1,1.18-2.15,1.18-1.55,0-2.75-1.21-2.75-3.01s1.19-2.97,2.76-2.97Zm.18,.83c-1.06,0-1.95,.77-1.95,2.13s.9,2.16,1.95,2.16,1.96-.79,1.96-2.15-.91-2.14-1.96-2.14Z"/><path class="cls-1" d="M412.66,60.07c-1.65,0-2.86-1.16-2.86-3s1.17-2.98,2.86-2.98,2.78,1.18,2.78,2.77c0,.21-.01,.38-.03,.58h-4.62c.07,1.17,.9,1.82,1.88,1.82,.87,0,1.42-.44,1.63-1.07h1.04c-.3,1.06-1.22,1.88-2.66,1.88Zm-1.87-3.41h3.65c.01-1.13-.83-1.75-1.83-1.75-.94,0-1.72,.62-1.83,1.75Z"/><path class="cls-1" d="M437,59.98h-.96v-.86c-.37,.6-1.08,.94-1.85,.94-1.33,0-2.38-.82-2.38-2.48v-3.39h.95v3.26c0,1.17,.64,1.77,1.62,1.77s1.66-.61,1.66-1.86v-3.18h.96v5.79Z"/><path class="cls-1" d="M446.98,56.7c0-1.18-.63-1.78-1.58-1.78s-1.64,.62-1.64,1.87v3.19h-.95v-3.27c0-1.18-.63-1.78-1.58-1.78s-1.64,.62-1.64,1.87v3.19h-.96v-5.79h.96v.83c.38-.61,1.07-.94,1.83-.94,.95,0,1.74,.42,2.12,1.29,.34-.83,1.16-1.29,2.05-1.29,1.32,0,2.34,.82,2.34,2.48v3.41h-.95v-3.27Z"/><path class="cls-1" d="M451.89,54.09c1.08,0,1.82,.55,2.15,1.15v-1.06h.97v5.79h-.97v-1.08c-.35,.62-1.1,1.17-2.17,1.17-1.54,0-2.73-1.21-2.73-3.01s1.19-2.97,2.75-2.97Zm.19,.83c-1.06,0-1.95,.77-1.95,2.13s.9,2.16,1.95,2.16,1.96-.79,1.96-2.15-.91-2.14-1.96-2.14Z"/><path class="cls-1" d="M300.27,66.77c1.06,0,1.82,.55,2.14,1.15v-1.06h.97v8.53h-.97v-3.81c-.33,.59-1.1,1.16-2.18,1.16-1.53,0-2.72-1.21-2.72-3.01s1.19-2.97,2.76-2.97Zm.18,.83c-1.06,0-1.95,.77-1.95,2.13s.9,2.16,1.95,2.16,1.96-.79,1.96-2.15-.91-2.14-1.96-2.14Z"/><path class="cls-1" d="M310.14,72.65h-.96v-.86c-.37,.6-1.08,.94-1.85,.94-1.33,0-2.38-.82-2.38-2.48v-3.39h.95v3.26c0,1.17,.64,1.77,1.62,1.77s1.66-.61,1.66-1.86v-3.18h.96v5.79Z"/><path class="cls-1" d="M314.27,72.74c-1.65,0-2.86-1.16-2.86-3s1.17-2.98,2.86-2.98,2.78,1.18,2.78,2.77c0,.21-.01,.38-.03,.58h-4.62c.07,1.17,.9,1.82,1.88,1.82,.87,0,1.42-.44,1.63-1.07h1.03c-.3,1.06-1.23,1.88-2.66,1.88Zm-1.87-3.41h3.65c.01-1.13-.83-1.75-1.83-1.75-.94,0-1.72,.62-1.83,1.75Z"/><path class="cls-1" d="M320.36,72.74c-1.35,0-2.3-.74-2.37-1.8h.99c.05,.56,.55,.98,1.36,.98,.76,0,1.18-.38,1.18-.86,0-1.29-3.42-.54-3.42-2.69,0-.89,.83-1.62,2.12-1.62s2.12,.69,2.19,1.82h-.96c-.04-.58-.49-1-1.26-1-.71,0-1.13,.34-1.13,.8,0,1.37,3.36,.62,3.4,2.69,0,.95-.83,1.67-2.11,1.67Z"/><path class="cls-1" d="M324.04,67.65h-.75v-.79h.75v-1.46h.96v1.46h1.51v.79h-1.51v3.41c0,.57,.21,.77,.8,.77h.71v.81h-.87c-1.02,0-1.6-.42-1.6-1.58v-3.41Z"/><path class="cls-1" d="M330.06,66.77c1.08,0,1.82,.55,2.15,1.15v-1.06h.97v5.79h-.97v-1.08c-.35,.62-1.1,1.17-2.16,1.17-1.54,0-2.73-1.21-2.73-3.01s1.19-2.97,2.75-2.97Zm.19,.83c-1.06,0-1.95,.77-1.95,2.13s.9,2.16,1.95,2.16,1.96-.79,1.96-2.15-.91-2.14-1.96-2.14Zm-.31-2.47c.56,0,.77,.49,1.2,.49,.23,0,.42-.15,.46-.45h.55c-.08,.72-.51,1.1-1.06,1.1s-.78-.49-1.2-.49c-.23,0-.41,.15-.45,.46h-.56c.11-.73,.51-1.11,1.06-1.11Z"/><path class="cls-1" d="M337.33,72.74c-1.64,0-2.88-1.16-2.88-3s1.29-2.98,2.92-2.98,2.92,1.15,2.92,2.98-1.32,3-2.97,3Zm0-.84c1,0,1.98-.69,1.98-2.15s-.96-2.14-1.95-2.14-1.93,.69-1.93,2.14,.9,2.15,1.9,2.15Z"/><path class="cls-1" d="M348.78,66.77c1.06,0,1.82,.55,2.14,1.15v-1.06h.97v8.53h-.97v-3.81c-.33,.59-1.1,1.16-2.18,1.16-1.53,0-2.72-1.21-2.72-3.01s1.19-2.97,2.76-2.97Zm.18,.83c-1.06,0-1.95,.77-1.95,2.13s.9,2.16,1.95,2.16,1.96-.79,1.96-2.15-.91-2.14-1.96-2.14Z"/><path class="cls-1" d="M358.66,72.65h-.96v-.86c-.37,.6-1.08,.94-1.85,.94-1.33,0-2.38-.82-2.38-2.48v-3.39h.95v3.26c0,1.17,.64,1.77,1.62,1.77s1.66-.61,1.66-1.86v-3.18h.96v5.79Z"/><path class="cls-1" d="M362.78,72.74c-1.65,0-2.86-1.16-2.86-3s1.17-2.98,2.86-2.98,2.78,1.18,2.78,2.77c0,.21-.01,.38-.03,.58h-4.62c.07,1.17,.9,1.82,1.88,1.82,.87,0,1.42-.44,1.63-1.07h1.03c-.3,1.06-1.23,1.88-2.66,1.88Zm-1.87-3.41h3.65c.01-1.13-.83-1.75-1.83-1.75-.94,0-1.72,.62-1.83,1.75Z"/><path class="cls-1" d="M374.04,66.77c.91,0,1.74,.46,2.14,1.13v-3.06h.97v7.81h-.97v-1.09c-.35,.64-1.1,1.18-2.15,1.18-1.55,0-2.75-1.21-2.75-3.01s1.19-2.97,2.76-2.97Zm.18,.83c-1.06,0-1.95,.77-1.95,2.13s.9,2.16,1.95,2.16,1.96-.79,1.96-2.15-.91-2.14-1.96-2.14Z"/><path class="cls-1" d="M381.29,72.74c-1.65,0-2.86-1.16-2.86-3s1.17-2.98,2.86-2.98,2.78,1.18,2.78,2.77c0,.21-.01,.38-.03,.58h-4.63c.07,1.17,.9,1.82,1.88,1.82,.87,0,1.42-.44,1.63-1.07h1.04c-.3,1.06-1.22,1.88-2.66,1.88Zm-1.87-3.41h3.65c.01-1.13-.83-1.75-1.83-1.75-.94,0-1.72,.62-1.83,1.75Z"/><path class="cls-1" d="M393.68,69.37c0-1.18-.63-1.78-1.58-1.78s-1.64,.62-1.64,1.87v3.19h-.95v-3.27c0-1.18-.63-1.78-1.58-1.78s-1.64,.62-1.64,1.87v3.19h-.96v-5.79h.96v.83c.38-.61,1.07-.94,1.83-.94,.95,0,1.74,.42,2.12,1.29,.34-.83,1.16-1.29,2.05-1.29,1.32,0,2.34,.82,2.34,2.48v3.41h-.95v-3.27Z"/><path class="cls-1" d="M398.59,66.77c1.08,0,1.82,.55,2.15,1.15v-1.06h.97v5.79h-.97v-1.08c-.35,.62-1.1,1.17-2.17,1.17-1.54,0-2.73-1.21-2.73-3.01s1.19-2.97,2.75-2.97Zm.19,.83c-1.06,0-1.95,.77-1.95,2.13s.9,2.16,1.95,2.16,1.96-.79,1.96-2.15-.91-2.14-1.96-2.14Z"/><path class="cls-1" d="M407.58,69.37c0-1.18-.64-1.78-1.62-1.78s-1.66,.61-1.66,1.86v3.2h-.96v-5.79h.96v.82c.38-.6,1.08-.93,1.86-.93,1.34,0,2.37,.82,2.37,2.48v3.41h-.95v-3.27Z"/><path class="cls-1" d="M412.5,66.77c.91,0,1.74,.46,2.14,1.13v-3.06h.97v7.81h-.97v-1.09c-.35,.64-1.1,1.18-2.15,1.18-1.55,0-2.75-1.21-2.75-3.01s1.19-2.97,2.76-2.97Zm.18,.83c-1.06,0-1.95,.77-1.95,2.13s.9,2.16,1.95,2.16,1.96-.79,1.96-2.15-.91-2.14-1.96-2.14Z"/><path class="cls-1" d="M419.63,66.77c1.08,0,1.82,.55,2.15,1.15v-1.06h.97v5.79h-.97v-1.08c-.35,.62-1.1,1.17-2.17,1.17-1.54,0-2.73-1.21-2.73-3.01s1.19-2.97,2.75-2.97Zm.19,.83c-1.06,0-1.95,.77-1.95,2.13s.9,2.16,1.95,2.16,1.96-.79,1.96-2.15-.91-2.14-1.96-2.14Z"/><path class="cls-1" d="M431.58,66.77c1.08,0,1.82,.55,2.15,1.15v-1.06h.97v5.79h-.97v-1.08c-.35,.62-1.1,1.17-2.17,1.17-1.54,0-2.73-1.21-2.73-3.01s1.19-2.97,2.75-2.97Zm.19,.83c-1.06,0-1.95,.77-1.95,2.13s.9,2.16,1.95,2.16,1.96-.79,1.96-2.15-.91-2.14-1.96-2.14Z"/><path class="cls-1" d="M438.8,66.77c1.44,0,2.38,.74,2.67,1.95h-1.03c-.2-.7-.78-1.14-1.64-1.14-1.06,0-1.84,.75-1.84,2.16s.78,2.19,1.84,2.19c.86,0,1.43-.41,1.64-1.14h1.03c-.27,1.07-1.11,1.84-2.38,1.94v.53c.81-.01,1.36,.35,1.36,1.05s-.54,1.09-1.29,1.09h-1.21v-.62h1.02c.45,0,.68-.13,.68-.46s-.22-.45-.68-.45h-.53v-1.13c-1.46-.15-2.47-1.28-2.47-2.98,0-1.82,1.17-2.98,2.82-2.98Z"/><path class="cls-1" d="M445.13,66.77c1.08,0,1.82,.55,2.15,1.15v-1.06h.97v5.79h-.97v-1.08c-.35,.62-1.1,1.17-2.17,1.17-1.54,0-2.73-1.21-2.73-3.01s1.19-2.97,2.75-2.97Zm.19,.83c-1.06,0-1.95,.77-1.95,2.13s.9,2.16,1.95,2.16,1.96-.79,1.96-2.15-.91-2.14-1.96-2.14Zm-.31-2.47c.56,0,.77,.49,1.2,.49,.23,0,.42-.15,.46-.45h.55c-.08,.72-.51,1.1-1.06,1.1s-.78-.49-1.2-.49c-.23,0-.41,.15-.45,.46h-.56c.11-.73,.51-1.11,1.06-1.11Z"/><path class="cls-1" d="M452.41,72.74c-1.64,0-2.88-1.16-2.88-3s1.29-2.98,2.92-2.98,2.92,1.15,2.92,2.98-1.32,3-2.97,3Zm0-.84c1,0,1.98-.69,1.98-2.15s-.96-2.14-1.95-2.14-1.93,.69-1.93,2.14,.9,2.15,1.9,2.15Z"/><path class="cls-1" d="M301,79.44c1.55,0,2.75,1.16,2.75,2.97s-1.19,3.01-2.75,3.01c-1.06,0-1.81-.57-2.16-1.16v3.81h-.96v-8.53h.96v1.07c.35-.61,1.11-1.16,2.16-1.16Zm-.2,.83c-1.05,0-1.96,.8-1.96,2.14s.92,2.15,1.96,2.15,1.96-.8,1.96-2.17-.9-2.13-1.96-2.13Z"/><path class="cls-1" d="M305.97,85.32h-.96v-5.79h.96v.94c.33-.64,.95-1.05,1.87-1.05v.99h-.25c-.92,0-1.62,.41-1.62,1.75v3.15Z"/><path class="cls-1" d="M308.79,77.94c0-.37,.29-.65,.65-.65,.35,0,.63,.29,.63,.65s-.29,.65-.63,.65c-.37,0-.65-.29-.65-.65Zm.16,1.59h.96v5.79h-.96v-5.79Z"/><path class="cls-1" d="M314.07,85.41c-1.64,0-2.88-1.16-2.88-3s1.29-2.98,2.92-2.98,2.92,1.15,2.92,2.98-1.32,3-2.97,3Zm0-.84c1,0,1.99-.69,1.99-2.15s-.96-2.14-1.95-2.14-1.93,.69-1.93,2.14,.9,2.15,1.9,2.15Z"/><path class="cls-1" d="M319.27,85.32h-.96v-5.79h.96v.94c.33-.64,.95-1.05,1.87-1.05v.99h-.25c-.92,0-1.62,.41-1.62,1.75v3.15Z"/><path class="cls-1" d="M322.08,77.94c0-.37,.29-.65,.65-.65,.35,0,.63,.29,.63,.65s-.29,.65-.63,.65c-.37,0-.65-.29-.65-.65Zm.16,1.59h.96v5.79h-.96v-5.79Z"/><path class="cls-1" d="M325.05,80.32h-.75v-.79h.75v-1.46h.96v1.46h1.51v.79h-1.51v3.41c0,.57,.21,.77,.8,.77h.71v.81h-.87c-1.02,0-1.6-.42-1.6-1.58v-3.41Z"/><path class="cls-1" d="M331.07,79.44c1.08,0,1.82,.55,2.15,1.15v-1.06h.97v5.79h-.97v-1.08c-.35,.62-1.1,1.17-2.16,1.17-1.54,0-2.73-1.21-2.73-3.01s1.19-2.97,2.75-2.97Zm.19,.83c-1.06,0-1.95,.77-1.95,2.13s.9,2.17,1.95,2.17,1.96-.79,1.96-2.15-.91-2.14-1.96-2.14Zm1.21-3.21v.83l-2.25,1.2v-.72l2.25-1.32Z"/><path class="cls-1" d="M336.78,85.32h-.96v-5.79h.96v.94c.33-.64,.95-1.05,1.87-1.05v.99h-.25c-.92,0-1.62,.41-1.62,1.75v3.15Z"/><path class="cls-1" d="M339.6,77.94c0-.37,.29-.65,.65-.65,.35,0,.63,.29,.63,.65s-.29,.65-.63,.65c-.37,0-.65-.29-.65-.65Zm.16,1.59h.96v5.79h-.96v-5.79Z"/><path class="cls-1" d="M344.74,79.44c1.08,0,1.82,.55,2.15,1.15v-1.06h.97v5.79h-.97v-1.08c-.35,.62-1.1,1.17-2.16,1.17-1.54,0-2.73-1.21-2.73-3.01s1.19-2.97,2.75-2.97Zm.19,.83c-1.06,0-1.95,.77-1.95,2.13s.9,2.17,1.95,2.17,1.96-.79,1.96-2.15-.91-2.14-1.96-2.14Z"/><path class="cls-1" d="M349.8,85.38c-.37,0-.65-.29-.65-.65s.29-.65,.65-.65c.35,0,.63,.29,.63,.65s-.29,.65-.63,.65Z"/></g></g><g><path class="cls-1" d="M327.48,38.17c0,2.23-1.53,3.67-3.89,3.67h-2.58v-7.37h2.58c2.35,0,3.89,1.46,3.89,3.7Zm-3.94,2.42c1.55,0,2.43-.89,2.43-2.42s-.88-2.45-2.43-2.45h-1.05v4.87h1.05Z"/><path class="cls-1" d="M331.14,41.94c-1.7,0-2.94-1.18-2.94-3.02s1.2-3.02,2.94-3.02,2.88,1.15,2.88,2.89c0,.19-.01,.38-.04,.57h-4.28c.07,.87,.67,1.35,1.4,1.35,.63,0,.98-.32,1.17-.71h1.59c-.32,1.08-1.29,1.93-2.73,1.93Zm-1.43-3.57h2.78c-.02-.77-.63-1.26-1.39-1.26-.71,0-1.27,.45-1.38,1.26Z"/><path class="cls-1" d="M335.26,37.21h-.67v-1.21h.67v-.3c0-1.44,.81-2.1,2.46-2.06v1.25c-.72-.02-.96,.21-.96,.87v.24h1.02v1.21h-1.02v4.64h-1.5v-4.64Z"/><path class="cls-1" d="M338.59,34.43c0-.49,.38-.87,.91-.87s.91,.38,.91,.87-.39,.87-.91,.87-.91-.38-.91-.87Zm.16,1.56h1.48v5.85h-1.48v-5.85Z"/><path class="cls-1" d="M345.78,38.61c0-.94-.52-1.45-1.3-1.45s-1.32,.51-1.32,1.45v3.23h-1.48v-5.85h1.48v.73c.38-.5,1.01-.81,1.76-.81,1.36,0,2.33,.89,2.33,2.5v3.43h-1.48v-3.23Z"/><path class="cls-1" d="M348.5,34.43c0-.49,.38-.87,.91-.87s.91,.38,.91,.87-.39,.87-.91,.87-.91-.38-.91-.87Zm.16,1.56h1.48v5.85h-1.48v-5.85Z"/><path class="cls-1" d="M354.11,35.9c1.46,0,2.44,.76,2.76,2.07h-1.59c-.17-.5-.56-.81-1.17-.81-.82,0-1.37,.62-1.37,1.76s.55,1.75,1.37,1.75c.61,0,.99-.27,1.17-.8h1.59c-.29,1.12-1.1,1.89-2.31,2.04v.41c.71,0,1.37,.36,1.37,1.15s-.67,1.18-1.4,1.18h-1.5v-.87h1.26c.32,0,.52-.07,.52-.34s-.2-.33-.52-.33h-.65v-1.21c-1.43-.21-2.41-1.33-2.41-2.99,0-1.84,1.2-3.02,2.89-3.02Z"/><path class="cls-1" d="M360.24,35.9c.94,0,1.58,.44,1.93,.93v-.83h1.49v5.85h-1.49v-.86c-.35,.51-1.01,.95-1.94,.95-1.48,0-2.66-1.21-2.66-3.04s1.18-3,2.67-3Zm-.01-1.85c.6,0,.88,.46,1.3,.46,.24,0,.41-.14,.45-.45h.79c-.14,.96-.63,1.38-1.31,1.38-.6,0-.88-.48-1.3-.48-.24,0-.41,.15-.46,.46h-.78c.14-.96,.63-1.38,1.31-1.38Zm.39,3.15c-.79,0-1.54,.59-1.54,1.7s.75,1.74,1.54,1.74,1.55-.61,1.55-1.72-.74-1.72-1.55-1.72Z"/><path class="cls-1" d="M367.71,41.94c-1.69,0-2.97-1.18-2.97-3.02s1.32-3.02,3.01-3.02,3.01,1.17,3.01,3.02-1.35,3.02-3.05,3.02Zm0-1.29c.78,0,1.53-.57,1.53-1.73s-.73-1.73-1.51-1.73-1.49,.56-1.49,1.73,.68,1.73,1.47,1.73Z"/><path class="cls-1" d="M376.66,35.9c.77,0,1.51,.36,1.91,.91v-2.78h1.5v7.81h-1.5v-.87c-.35,.54-1,.96-1.92,.96-1.49,0-2.67-1.21-2.67-3.04s1.18-3,2.68-3Zm.37,1.3c-.79,0-1.54,.59-1.54,1.7s.75,1.74,1.54,1.74,1.55-.61,1.55-1.72-.74-1.72-1.55-1.72Z"/><path class="cls-1" d="M383.81,35.9c.94,0,1.58,.44,1.93,.93v-.83h1.49v5.85h-1.49v-.86c-.35,.51-1.01,.95-1.94,.95-1.48,0-2.66-1.21-2.66-3.04s1.18-3,2.67-3Zm.38,1.3c-.79,0-1.54,.59-1.54,1.7s.75,1.74,1.54,1.74,1.55-.61,1.55-1.72-.74-1.72-1.55-1.72Z"/><path class="cls-1" d="M393.48,35.9c.94,0,1.58,.44,1.93,.93v-.83h1.49v5.85h-1.49v-.86c-.35,.51-1.01,.95-1.94,.95-1.48,0-2.66-1.21-2.66-3.04s1.18-3,2.67-3Zm.38,1.3c-.79,0-1.54,.59-1.54,1.7s.75,1.74,1.54,1.74,1.55-.61,1.55-1.72-.74-1.72-1.55-1.72Z"/><path class="cls-1" d="M400.64,35.9c.92,0,1.58,.42,1.93,.93v-.83h1.49v5.89c0,1.58-.97,2.84-2.89,2.84-1.65,0-2.8-.82-2.95-2.16h1.47c.15,.53,.7,.88,1.44,.88,.81,0,1.45-.46,1.45-1.55v-.91c-.35,.51-1.01,.96-1.93,.96-1.49,0-2.67-1.21-2.67-3.04s1.18-3,2.67-3Zm.38,1.3c-.79,0-1.54,.59-1.54,1.7s.75,1.74,1.54,1.74,1.55-.61,1.55-1.72-.74-1.72-1.55-1.72Z"/><path class="cls-1" d="M408.07,41.94c-1.7,0-2.94-1.18-2.94-3.02s1.2-3.02,2.94-3.02,2.88,1.15,2.88,2.89c0,.19-.01,.38-.04,.57h-4.28c.07,.87,.67,1.35,1.4,1.35,.63,0,.98-.32,1.17-.71h1.59c-.32,1.08-1.29,1.93-2.73,1.93Zm-1.43-3.57h2.78c-.02-.77-.63-1.26-1.39-1.26-.71,0-1.27,.45-1.38,1.26Z"/><path class="cls-1" d="M416.12,38.61c0-.94-.52-1.45-1.3-1.45s-1.32,.51-1.32,1.45v3.23h-1.48v-5.85h1.48v.73c.38-.5,1.01-.81,1.76-.81,1.36,0,2.33,.89,2.33,2.5v3.43h-1.48v-3.23Z"/><path class="cls-1" d="M421.31,35.9c.77,0,1.51,.36,1.91,.91v-2.78h1.5v7.81h-1.5v-.87c-.35,.54-1,.96-1.92,.96-1.49,0-2.67-1.21-2.67-3.04s1.18-3,2.68-3Zm.37,1.3c-.79,0-1.54,.59-1.54,1.7s.75,1.74,1.54,1.74,1.55-.61,1.55-1.72-.74-1.72-1.55-1.72Z"/><path class="cls-1" d="M428.46,35.9c.94,0,1.58,.44,1.93,.93v-.83h1.49v5.85h-1.49v-.86c-.35,.51-1.01,.95-1.94,.95-1.48,0-2.66-1.21-2.66-3.04s1.18-3,2.67-3Zm.38,1.3c-.79,0-1.54,.59-1.54,1.7s.75,1.74,1.54,1.74,1.55-.61,1.55-1.72-.74-1.72-1.55-1.72Z"/></g></g><g><rect class="cls-4" x="267.46" y="227.6" width="217.97" height="40.73"/><g><path class="cls-1" d="M351.56,239.92h-2.94l-.49,1.4h-1.55l2.65-7.38h1.72l2.65,7.38h-1.56l-.49-1.4Zm-1.47-4.27l-1.07,3.08h2.13l-1.07-3.08Z"/><path class="cls-1" d="M355.56,235.47l1.48,4.49,1.48-4.49h1.57l-2.16,5.85h-1.79l-2.15-5.85h1.58Z"/><path class="cls-1" d="M363.21,235.38c.94,0,1.58,.44,1.93,.93v-.83h1.49v5.85h-1.49v-.86c-.35,.51-1.01,.95-1.94,.95-1.48,0-2.66-1.21-2.66-3.04s1.18-3,2.67-3Zm.38,1.3c-.79,0-1.54,.59-1.54,1.7s.75,1.74,1.54,1.74,1.55-.61,1.55-1.72-.74-1.72-1.55-1.72Z"/><path class="cls-1" d="M368.08,233.51h1.48v7.81h-1.48v-7.81Z"/><path class="cls-1" d="M370.86,233.91c0-.49,.38-.87,.91-.87s.91,.38,.91,.87-.39,.87-.91,.87-.91-.38-.91-.87Zm.16,1.56h1.48v5.85h-1.48v-5.85Z"/><path class="cls-1" d="M376.24,235.38c.94,0,1.58,.44,1.93,.93v-.83h1.49v5.85h-1.49v-.86c-.35,.51-1.01,.95-1.94,.95-1.48,0-2.66-1.21-2.66-3.04s1.18-3,2.67-3Zm.38,1.3c-.79,0-1.54,.59-1.54,1.7s.75,1.74,1.54,1.74,1.55-.61,1.55-1.72-.74-1.72-1.55-1.72Z"/><path class="cls-1" d="M383.63,235.38c1.46,0,2.44,.76,2.76,2.07h-1.59c-.17-.5-.56-.81-1.17-.81-.82,0-1.37,.62-1.37,1.76s.55,1.75,1.37,1.75c.61,0,.99-.27,1.17-.8h1.59c-.29,1.12-1.1,1.89-2.31,2.04v.41c.71,0,1.37,.36,1.37,1.15s-.67,1.18-1.4,1.18h-1.5v-.87h1.26c.32,0,.52-.07,.52-.34s-.2-.33-.52-.33h-.65v-1.21c-1.43-.21-2.41-1.33-2.41-2.99,0-1.84,1.2-3.02,2.89-3.02Z"/><path class="cls-1" d="M389.76,235.38c.94,0,1.58,.44,1.93,.93v-.83h1.49v5.85h-1.49v-.86c-.35,.51-1.01,.95-1.94,.95-1.48,0-2.66-1.21-2.66-3.04s1.18-3,2.67-3Zm0-1.85c.6,0,.88,.46,1.3,.46,.24,0,.41-.14,.45-.45h.79c-.14,.96-.63,1.38-1.31,1.38-.6,0-.88-.48-1.3-.48-.24,0-.41,.15-.46,.46h-.78c.14-.96,.63-1.38,1.31-1.38Zm.39,3.15c-.79,0-1.54,.59-1.54,1.7s.75,1.74,1.54,1.74,1.55-.61,1.55-1.72-.74-1.72-1.55-1.72Z"/><path class="cls-1" d="M397.23,241.41c-1.69,0-2.97-1.18-2.97-3.02s1.32-3.02,3.01-3.02,3.01,1.17,3.01,3.02-1.35,3.02-3.05,3.02Zm0-1.29c.78,0,1.53-.57,1.53-1.73s-.73-1.73-1.51-1.73-1.49,.56-1.49,1.73,.68,1.73,1.47,1.73Z"/></g><g><path class="cls-1" d="M295.18,255.92h-3.21l-.59,1.64h-1.01l2.66-7.32h1.11l2.65,7.32h-1.01l-.59-1.64Zm-1.6-4.5l-1.33,3.72h2.66l-1.33-3.72Z"/><path class="cls-1" d="M302.18,254.28c0-1.18-.64-1.78-1.62-1.78s-1.66,.61-1.66,1.86v3.2h-.96v-5.79h.96v.82c.38-.6,1.08-.93,1.86-.93,1.34,0,2.37,.82,2.37,2.48v3.41h-.95v-3.27Z"/><path class="cls-1" d="M307.09,251.67c1.08,0,1.82,.55,2.15,1.15v-1.06h.97v5.79h-.97v-1.08c-.35,.62-1.1,1.17-2.16,1.17-1.54,0-2.73-1.21-2.73-3.01s1.19-2.97,2.75-2.97Zm.19,.83c-1.06,0-1.95,.77-1.95,2.13s.9,2.16,1.95,2.16,1.96-.79,1.96-2.15-.91-2.14-1.96-2.14Zm1.21-3.21v.83l-2.25,1.2v-.72l2.25-1.32Z"/><path class="cls-1" d="M311.84,249.74h.96v7.81h-.96v-7.81Z"/><path class="cls-1" d="M314.28,250.17c0-.37,.29-.65,.65-.65,.35,0,.63,.29,.63,.65s-.29,.65-.63,.65c-.37,0-.65-.28-.65-.65Zm.16,1.59h.96v5.79h-.96v-5.79Z"/><path class="cls-1" d="M319.08,257.65c-1.35,0-2.3-.74-2.37-1.79h.99c.05,.56,.55,.98,1.36,.98,.76,0,1.18-.38,1.18-.86,0-1.29-3.42-.54-3.42-2.69,0-.89,.83-1.62,2.12-1.62s2.12,.69,2.19,1.82h-.96c-.04-.58-.49-1-1.26-1-.71,0-1.13,.34-1.13,.8,0,1.37,3.36,.62,3.4,2.69,0,.95-.83,1.67-2.11,1.67Z"/><path class="cls-1" d="M325.05,257.65c-1.65,0-2.86-1.16-2.86-3s1.17-2.98,2.86-2.98,2.78,1.18,2.78,2.77c0,.21-.01,.38-.03,.58h-4.62c.07,1.17,.9,1.82,1.88,1.82,.87,0,1.42-.44,1.63-1.07h1.03c-.3,1.06-1.23,1.88-2.66,1.88Zm-1.87-3.41h3.65c.01-1.13-.83-1.75-1.83-1.75-.94,0-1.72,.62-1.83,1.75Z"/><path class="cls-1" d="M334.31,251.67c.91,0,1.74,.46,2.14,1.13v-3.06h.97v7.81h-.97v-1.09c-.35,.64-1.1,1.18-2.15,1.18-1.55,0-2.75-1.21-2.75-3.01s1.19-2.97,2.76-2.97Zm.18,.83c-1.06,0-1.95,.77-1.95,2.13s.9,2.16,1.95,2.16,1.96-.79,1.96-2.15-.91-2.14-1.96-2.14Z"/><path class="cls-1" d="M341.57,257.65c-1.64,0-2.88-1.16-2.88-3s1.29-2.98,2.92-2.98,2.92,1.15,2.92,2.98-1.32,3-2.97,3Zm0-.84c1,0,1.98-.69,1.98-2.15s-.96-2.14-1.95-2.14-1.93,.69-1.93,2.14,.9,2.15,1.9,2.15Z"/><path class="cls-1" d="M347.86,257.65c-1.35,0-2.3-.74-2.37-1.79h.99c.05,.56,.55,.98,1.36,.98,.76,0,1.18-.38,1.18-.86,0-1.29-3.42-.54-3.42-2.69,0-.89,.83-1.62,2.12-1.62s2.12,.69,2.19,1.82h-.96c-.04-.58-.49-1-1.26-1-.71,0-1.13,.34-1.13,.8,0,1.37,3.36,.62,3.4,2.69,0,.95-.83,1.67-2.11,1.67Z"/><path class="cls-1" d="M355.1,257.56h-.96v-5.79h.96v.94c.33-.64,.95-1.04,1.87-1.04v.99h-.25c-.92,0-1.62,.41-1.62,1.75v3.15Z"/><path class="cls-1" d="M360.58,257.65c-1.65,0-2.86-1.16-2.86-3s1.17-2.98,2.86-2.98,2.78,1.18,2.78,2.77c0,.21-.01,.38-.03,.58h-4.62c.07,1.17,.9,1.82,1.88,1.82,.87,0,1.42-.44,1.63-1.07h1.04c-.3,1.06-1.23,1.88-2.66,1.88Zm-1.87-3.41h3.65c.01-1.13-.83-1.75-1.83-1.75-.94,0-1.72,.62-1.83,1.75Z"/><path class="cls-1" d="M366.67,257.65c-1.35,0-2.3-.74-2.37-1.79h.99c.05,.56,.55,.98,1.36,.98,.76,0,1.18-.38,1.18-.86,0-1.29-3.42-.54-3.42-2.69,0-.89,.83-1.62,2.12-1.62s2.12,.69,2.19,1.82h-.96c-.04-.58-.49-1-1.26-1-.71,0-1.13,.34-1.13,.8,0,1.37,3.36,.62,3.4,2.69,0,.95-.83,1.67-2.11,1.67Z"/><path class="cls-1" d="M375.27,257.56h-.96v-.86c-.37,.6-1.08,.94-1.85,.94-1.33,0-2.38-.82-2.38-2.48v-3.39h.95v3.26c0,1.17,.64,1.77,1.62,1.77s1.66-.61,1.66-1.86v-3.18h.96v5.79Z"/><path class="cls-1" d="M376.89,249.74h.96v7.81h-.96v-7.81Z"/><path class="cls-1" d="M379.7,252.56h-.75v-.79h.75v-1.46h.96v1.46h1.51v.79h-1.51v3.41c0,.57,.21,.77,.8,.77h.71v.81h-.87c-1.02,0-1.6-.42-1.6-1.58v-3.41Z"/><path class="cls-1" d="M385.72,251.67c1.08,0,1.82,.55,2.15,1.15v-1.06h.97v5.79h-.97v-1.08c-.35,.62-1.1,1.17-2.17,1.17-1.54,0-2.73-1.21-2.73-3.01s1.19-2.97,2.75-2.97Zm.19,.83c-1.06,0-1.95,.77-1.95,2.13s.9,2.16,1.95,2.16,1.96-.79,1.96-2.15-.91-2.14-1.96-2.14Z"/><path class="cls-1" d="M392.87,251.67c.91,0,1.74,.46,2.14,1.13v-3.06h.97v7.81h-.97v-1.09c-.35,.64-1.1,1.18-2.15,1.18-1.55,0-2.75-1.21-2.75-3.01s1.19-2.97,2.76-2.97Zm.18,.83c-1.06,0-1.95,.77-1.95,2.13s.9,2.16,1.95,2.16,1.96-.79,1.96-2.15-.91-2.14-1.96-2.14Z"/><path class="cls-1" d="M400.14,257.65c-1.64,0-2.88-1.16-2.88-3s1.29-2.98,2.92-2.98,2.92,1.15,2.92,2.98-1.32,3-2.97,3Zm0-.84c1,0,1.99-.69,1.99-2.15s-.96-2.14-1.95-2.14-1.93,.69-1.93,2.14,.9,2.15,1.9,2.15Z"/><path class="cls-1" d="M406.42,257.65c-1.35,0-2.3-.74-2.37-1.79h.99c.05,.56,.55,.98,1.36,.98,.76,0,1.18-.38,1.18-.86,0-1.29-3.42-.54-3.42-2.69,0-.89,.83-1.62,2.12-1.62s2.12,.69,2.19,1.82h-.96c-.04-.58-.49-1-1.26-1-.71,0-1.13,.34-1.13,.8,0,1.37,3.36,.62,3.4,2.69,0,.95-.83,1.67-2.11,1.67Z"/><path class="cls-1" d="M415.2,257.65c-1.65,0-2.86-1.16-2.86-3s1.17-2.98,2.86-2.98,2.78,1.18,2.78,2.77c0,.21-.01,.38-.03,.58h-4.62c.07,1.17,.9,1.82,1.88,1.82,.87,0,1.42-.44,1.63-1.07h1.04c-.3,1.06-1.22,1.88-2.66,1.88Zm-1.87-3.41h3.65c.01-1.13-.83-1.75-1.83-1.75-.94,0-1.72,.62-1.83,1.75Z"/><path class="cls-1" d="M421.91,250.17c0-.37,.29-.65,.66-.65,.35,0,.63,.29,.63,.65s-.29,.65-.63,.65c-.37,0-.66-.28-.66-.65Zm.16,1.59h.96v5.79h-.96v-5.79Z"/><path class="cls-1" d="M433.02,254.28c0-1.18-.63-1.78-1.58-1.78s-1.64,.62-1.64,1.87v3.19h-.95v-3.27c0-1.18-.63-1.78-1.58-1.78s-1.64,.62-1.64,1.87v3.19h-.96v-5.79h.96v.83c.38-.61,1.07-.94,1.83-.94,.95,0,1.74,.42,2.12,1.29,.34-.83,1.16-1.29,2.05-1.29,1.32,0,2.34,.82,2.34,2.48v3.41h-.95v-3.27Z"/><path class="cls-1" d="M438.67,251.67c1.55,0,2.75,1.16,2.75,2.97s-1.19,3.01-2.75,3.01c-1.06,0-1.81-.57-2.16-1.16v3.81h-.96v-8.53h.96v1.07c.35-.61,1.11-1.16,2.16-1.16Zm-.2,.83c-1.05,0-1.96,.8-1.96,2.14s.92,2.15,1.96,2.15,1.96-.8,1.96-2.16-.9-2.13-1.96-2.13Z"/><path class="cls-1" d="M445.06,251.67c1.08,0,1.82,.55,2.15,1.15v-1.06h.97v5.79h-.97v-1.08c-.35,.62-1.1,1.17-2.17,1.17-1.54,0-2.73-1.21-2.73-3.01s1.19-2.97,2.75-2.97Zm.19,.83c-1.06,0-1.95,.77-1.95,2.13s.9,2.16,1.95,2.16,1.96-.79,1.96-2.15-.91-2.14-1.96-2.14Z"/><path class="cls-1" d="M452.28,251.67c1.44,0,2.38,.74,2.67,1.95h-1.03c-.2-.7-.78-1.14-1.64-1.14-1.06,0-1.84,.75-1.84,2.17s.78,2.19,1.84,2.19c.86,0,1.43-.41,1.64-1.14h1.03c-.29,1.15-1.24,1.95-2.67,1.95-1.65,0-2.82-1.16-2.82-3s1.17-2.98,2.82-2.98Z"/><path class="cls-1" d="M456.44,252.56h-.75v-.79h.75v-1.46h.96v1.46h1.51v.79h-1.51v3.41c0,.57,.21,.77,.8,.77h.71v.81h-.87c-1.02,0-1.6-.42-1.6-1.58v-3.41Z"/><path class="cls-1" d="M462.59,257.65c-1.64,0-2.88-1.16-2.88-3s1.29-2.98,2.92-2.98,2.92,1.15,2.92,2.98-1.32,3-2.97,3Zm0-.84c1,0,1.99-.69,1.99-2.15s-.96-2.14-1.95-2.14-1.93,.69-1.93,2.14,.9,2.15,1.9,2.15Z"/><path class="cls-1" d="M468.87,257.65c-1.35,0-2.3-.74-2.37-1.79h.99c.05,.56,.55,.98,1.36,.98,.76,0,1.18-.38,1.18-.86,0-1.29-3.42-.54-3.42-2.69,0-.89,.83-1.62,2.12-1.62s2.12,.69,2.19,1.82h-.96c-.04-.58-.49-1-1.26-1-.71,0-1.13,.34-1.13,.8,0,1.37,3.36,.62,3.4,2.69,0,.95-.83,1.67-2.11,1.67Z"/></g></g><g><rect class="cls-4" x="526.34" y="37.27" width="217.97" height="40.73"/><g><path class="cls-1" d="M603.56,43.61h4.55v1.19h-3.07v1.89h2.35v1.17h-2.35v3.11h-1.48v-7.37Z"/><path class="cls-1" d="M611.75,51.08c-1.69,0-2.97-1.18-2.97-3.02s1.32-3.02,3.01-3.02,3.01,1.17,3.01,3.02-1.35,3.02-3.05,3.02Zm0-1.29c.78,0,1.53-.57,1.53-1.73s-.73-1.73-1.51-1.73-1.49,.56-1.49,1.73,.68,1.73,1.47,1.73Z"/><path class="cls-1" d="M617.37,50.99h-1.48v-5.85h1.48v.91c.37-.6,.98-.99,1.79-.99v1.55h-.39c-.88,0-1.4,.34-1.4,1.47v2.91Z"/><path class="cls-1" d="M628.34,47.75c0-.93-.52-1.42-1.3-1.42s-1.31,.49-1.31,1.42v3.23h-1.48v-3.23c0-.93-.52-1.42-1.3-1.42s-1.32,.49-1.32,1.42v3.23h-1.48v-5.85h1.48v.71c.37-.49,.99-.79,1.72-.79,.91,0,1.66,.39,2.06,1.12,.38-.67,1.15-1.12,2.01-1.12,1.4,0,2.4,.89,2.4,2.5v3.43h-1.48v-3.23Z"/><path class="cls-1" d="M636.75,50.99h-1.49v-.74c-.37,.5-1.01,.81-1.74,.81-1.36,0-2.34-.89-2.34-2.49v-3.43h1.48v3.22c0,.94,.52,1.45,1.3,1.45s1.31-.51,1.31-1.45v-3.22h1.49v5.85Z"/><path class="cls-1" d="M638.2,43.17h1.48v7.81h-1.48v-7.81Z"/><path class="cls-1" d="M643.43,45.04c.94,0,1.58,.44,1.93,.93v-.83h1.49v5.85h-1.49v-.86c-.35,.51-1.01,.95-1.94,.95-1.48,0-2.66-1.21-2.66-3.04s1.18-3,2.67-3Zm.38,1.3c-.79,0-1.54,.59-1.54,1.7s.75,1.74,1.54,1.74,1.55-.61,1.55-1.72-.74-1.72-1.55-1.72Z"/><path class="cls-1" d="M650.81,45.04c1.46,0,2.44,.76,2.76,2.07h-1.59c-.17-.5-.56-.81-1.17-.81-.82,0-1.37,.62-1.37,1.76s.55,1.75,1.37,1.75c.61,0,.99-.27,1.17-.8h1.59c-.28,1.12-1.1,1.89-2.31,2.04v.41c.71,0,1.37,.36,1.37,1.15s-.67,1.18-1.4,1.18h-1.5v-.87h1.26c.32,0,.52-.07,.52-.34s-.2-.33-.52-.33h-.65v-1.21c-1.43-.21-2.41-1.33-2.41-2.99,0-1.84,1.2-3.02,2.89-3.02Z"/><path class="cls-1" d="M656.94,45.04c.94,0,1.58,.44,1.93,.93v-.83h1.49v5.85h-1.49v-.86c-.35,.51-1.01,.95-1.94,.95-1.48,0-2.66-1.21-2.66-3.04s1.18-3,2.67-3Zm0-1.85c.6,0,.88,.46,1.3,.46,.24,0,.41-.14,.45-.45h.79c-.14,.96-.63,1.38-1.31,1.38-.6,0-.88-.48-1.3-.48-.24,0-.41,.15-.46,.46h-.78c.14-.96,.63-1.38,1.31-1.38Zm.39,3.15c-.79,0-1.54,.59-1.54,1.7s.75,1.74,1.54,1.74,1.55-.61,1.55-1.72-.74-1.72-1.55-1.72Z"/><path class="cls-1" d="M664.41,51.08c-1.69,0-2.97-1.18-2.97-3.02s1.32-3.02,3.01-3.02,3.01,1.17,3.01,3.02-1.35,3.02-3.05,3.02Zm0-1.29c.78,0,1.53-.57,1.53-1.73s-.73-1.73-1.51-1.73-1.49,.56-1.49,1.73,.68,1.73,1.47,1.73Z"/></g><g><path class="cls-1" d="M540.18,63.56c0,2.28-1.49,3.66-3.91,3.66h-2.29v-7.36h2.29c2.42,0,3.91,1.42,3.91,3.7Zm-3.91,2.87c1.92,0,2.92-1.08,2.92-2.87s-1-2.91-2.92-2.91h-1.33v5.79h1.33Z"/><path class="cls-1" d="M541.29,59.84c0-.37,.29-.65,.66-.65,.35,0,.63,.29,.63,.65s-.29,.65-.63,.65c-.37,0-.66-.29-.66-.65Zm.16,1.59h.96v5.79h-.96v-5.79Z"/><path class="cls-1" d="M546.43,61.34c1.08,0,1.82,.55,2.15,1.15v-1.06h.97v5.79h-.97v-1.08c-.35,.62-1.1,1.17-2.17,1.17-1.54,0-2.73-1.21-2.73-3.01s1.19-2.97,2.75-2.97Zm.19,.83c-1.06,0-1.95,.77-1.95,2.13s.9,2.17,1.95,2.17,1.96-.79,1.96-2.15-.91-2.14-1.96-2.14Z"/><path class="cls-1" d="M553.57,61.34c1.06,0,1.82,.53,2.15,1.15v-1.06h.97v5.91c0,1.59-1.07,2.72-2.77,2.72-1.52,0-2.61-.77-2.8-2.01h.95c.21,.7,.9,1.17,1.85,1.17,1.02,0,1.79-.65,1.79-1.89v-1.21c-.35,.62-1.1,1.18-2.15,1.18-1.55,0-2.75-1.21-2.75-3.01s1.19-2.97,2.75-2.97Zm.19,.83c-1.06,0-1.95,.77-1.95,2.13s.9,2.17,1.95,2.17,1.96-.79,1.96-2.15-.91-2.14-1.96-2.14Z"/><path class="cls-1" d="M562.55,63.95c0-1.18-.64-1.78-1.62-1.78s-1.66,.61-1.66,1.86v3.2h-.96v-5.79h.96v.82c.38-.6,1.08-.93,1.86-.93,1.34,0,2.37,.82,2.37,2.48v3.41h-.95v-3.27Z"/><path class="cls-1" d="M567.6,67.32c-1.64,0-2.88-1.16-2.88-3s1.29-2.98,2.92-2.98,2.92,1.15,2.92,2.98-1.32,3-2.97,3Zm0-.84c1,0,1.99-.69,1.99-2.15s-.96-2.14-1.95-2.14-1.93,.69-1.93,2.14,.9,2.15,1.9,2.15Zm1.08-7.58v.83l-2.25,1.2v-.72l2.25-1.32Z"/><path class="cls-1" d="M573.88,67.32c-1.35,0-2.3-.74-2.37-1.8h.99c.05,.56,.55,.98,1.36,.98,.76,0,1.18-.38,1.18-.85,0-1.29-3.42-.54-3.42-2.69,0-.89,.83-1.62,2.12-1.62s2.12,.69,2.19,1.82h-.96c-.04-.58-.49-1-1.26-1-.71,0-1.13,.34-1.13,.8,0,1.37,3.36,.62,3.4,2.69,0,.95-.83,1.67-2.11,1.67Z"/><path class="cls-1" d="M577.56,62.23h-.75v-.79h.75v-1.46h.96v1.46h1.51v.79h-1.51v3.41c0,.57,.21,.77,.8,.77h.71v.81h-.87c-1.02,0-1.6-.42-1.6-1.58v-3.41Z"/><path class="cls-1" d="M581.03,59.84c0-.37,.29-.65,.66-.65,.35,0,.63,.29,.63,.65s-.29,.65-.63,.65c-.37,0-.66-.29-.66-.65Zm.16,1.59h.96v5.79h-.96v-5.79Z"/><path class="cls-1" d="M586.25,61.34c1.44,0,2.38,.74,2.67,1.95h-1.03c-.2-.7-.78-1.14-1.64-1.14-1.06,0-1.84,.75-1.84,2.16s.78,2.19,1.84,2.19c.86,0,1.43-.41,1.64-1.14h1.03c-.29,1.15-1.24,1.95-2.67,1.95-1.65,0-2.82-1.16-2.82-3s1.17-2.98,2.82-2.98Z"/><path class="cls-1" d="M592.72,67.32c-1.64,0-2.88-1.16-2.88-3s1.29-2.98,2.92-2.98,2.92,1.15,2.92,2.98-1.32,3-2.97,3Zm0-.84c1,0,1.98-.69,1.98-2.15s-.96-2.14-1.95-2.14-1.93,.69-1.93,2.14,.9,2.15,1.9,2.15Z"/><path class="cls-1" d="M602.28,67.32c-1.65,0-2.86-1.16-2.86-3s1.17-2.98,2.86-2.98,2.78,1.18,2.78,2.77c0,.21-.01,.38-.03,.58h-4.62c.07,1.17,.9,1.82,1.88,1.82,.87,0,1.42-.44,1.63-1.07h1.04c-.3,1.06-1.22,1.88-2.66,1.88Zm-1.87-3.41h3.65c.01-1.13-.83-1.75-1.83-1.75-.94,0-1.72,.62-1.83,1.75Z"/><path class="cls-1" d="M611.54,61.34c.91,0,1.74,.46,2.14,1.13v-3.06h.97v7.81h-.97v-1.09c-.35,.64-1.1,1.18-2.15,1.18-1.55,0-2.75-1.21-2.75-3.01s1.19-2.97,2.76-2.97Zm.18,.83c-1.06,0-1.95,.77-1.95,2.13s.9,2.17,1.95,2.17,1.96-.79,1.96-2.15-.91-2.14-1.96-2.14Z"/><path class="cls-1" d="M618.78,67.32c-1.65,0-2.86-1.16-2.86-3s1.17-2.98,2.86-2.98,2.78,1.18,2.78,2.77c0,.21-.01,.38-.03,.58h-4.62c.07,1.17,.9,1.82,1.88,1.82,.87,0,1.42-.44,1.63-1.07h1.04c-.3,1.06-1.22,1.88-2.66,1.88Zm-1.87-3.41h3.65c.01-1.13-.83-1.75-1.83-1.75-.94,0-1.72,.62-1.83,1.75Z"/><path class="cls-1" d="M624.87,67.32c-1.35,0-2.3-.74-2.37-1.8h.99c.05,.56,.55,.98,1.36,.98,.76,0,1.18-.38,1.18-.85,0-1.29-3.42-.54-3.42-2.69,0-.89,.83-1.62,2.12-1.62s2.12,.69,2.19,1.82h-.96c-.04-.58-.49-1-1.26-1-.71,0-1.13,.34-1.13,.8,0,1.37,3.36,.62,3.4,2.69,0,.95-.83,1.67-2.11,1.67Z"/><path class="cls-1" d="M630.84,67.32c-1.65,0-2.86-1.16-2.86-3s1.17-2.98,2.86-2.98,2.78,1.18,2.78,2.77c0,.21-.01,.38-.03,.58h-4.62c.07,1.17,.9,1.82,1.88,1.82,.87,0,1.42-.44,1.63-1.07h1.04c-.3,1.06-1.22,1.88-2.66,1.88Zm-1.87-3.41h3.65c.01-1.13-.83-1.75-1.83-1.75-.94,0-1.72,.62-1.83,1.75Z"/><path class="cls-1" d="M639.12,63.95c0-1.18-.64-1.78-1.62-1.78s-1.66,.61-1.66,1.86v3.2h-.96v-5.79h.96v.82c.38-.6,1.08-.93,1.86-.93,1.34,0,2.37,.82,2.37,2.48v3.41h-.95v-3.27Z"/><path class="cls-1" d="M641.64,59.41h.96v2.86c.38-.61,1.1-.94,1.91-.94,1.29,0,2.31,.82,2.31,2.48v3.41h-.95v-3.27c0-1.18-.64-1.78-1.62-1.78s-1.66,.61-1.66,1.86v3.2h-.96v-7.81Z"/><path class="cls-1" d="M650.92,67.32c-1.64,0-2.88-1.16-2.88-3s1.29-2.98,2.92-2.98,2.92,1.15,2.92,2.98-1.32,3-2.97,3Zm0-.84c1,0,1.99-.69,1.99-2.15s-.96-2.14-1.95-2.14-1.93,.69-1.93,2.14,.9,2.15,1.9,2.15Z"/><path class="cls-1" d="M660.37,61.34c.91,0,1.74,.46,2.14,1.13v-3.06h.97v7.81h-.97v-1.09c-.35,.64-1.1,1.18-2.15,1.18-1.55,0-2.75-1.21-2.75-3.01s1.19-2.97,2.76-2.97Zm.18,.83c-1.06,0-1.95,.77-1.95,2.13s.9,2.17,1.95,2.17,1.96-.79,1.96-2.15-.91-2.14-1.96-2.14Z"/><path class="cls-1" d="M667.5,61.34c1.08,0,1.82,.55,2.15,1.15v-1.06h.97v5.79h-.97v-1.08c-.35,.62-1.1,1.17-2.17,1.17-1.54,0-2.73-1.21-2.73-3.01s1.19-2.97,2.75-2.97Zm.19,.83c-1.06,0-1.95,.77-1.95,2.13s.9,2.17,1.95,2.17,1.96-.79,1.96-2.15-.91-2.14-1.96-2.14Z"/><path class="cls-1" d="M674.91,59.84c0-.37,.29-.65,.66-.65,.35,0,.63,.29,.63,.65s-.29,.65-.63,.65c-.37,0-.66-.29-.66-.65Zm.16,1.59h.96v5.79h-.96v-5.79Z"/><path class="cls-1" d="M681.9,63.95c0-1.18-.64-1.78-1.62-1.78s-1.66,.61-1.66,1.86v3.2h-.96v-5.79h.96v.82c.38-.6,1.08-.93,1.86-.93,1.34,0,2.37,.82,2.37,2.48v3.41h-.95v-3.27Z"/><path class="cls-1" d="M684.64,62.23h-.75v-.79h.75v-1.46h.96v1.46h1.51v.79h-1.51v3.41c0,.57,.21,.77,.8,.77h.71v.81h-.87c-1.02,0-1.6-.42-1.6-1.58v-3.41Z"/><path class="cls-1" d="M690.77,67.32c-1.65,0-2.86-1.16-2.86-3s1.17-2.98,2.86-2.98,2.78,1.18,2.78,2.77c0,.21-.01,.38-.03,.58h-4.62c.07,1.17,.9,1.82,1.88,1.82,.87,0,1.42-.44,1.63-1.07h1.04c-.3,1.06-1.22,1.88-2.66,1.88Zm-1.87-3.41h3.65c.01-1.13-.83-1.75-1.83-1.75-.94,0-1.72,.62-1.83,1.75Z"/><path class="cls-1" d="M695.78,67.22h-.96v-5.79h.96v.94c.33-.64,.95-1.05,1.87-1.05v.99h-.25c-.92,0-1.62,.41-1.62,1.75v3.15Z"/><path class="cls-1" d="M699.1,61.43l1.81,4.9,1.79-4.9h1.02l-2.27,5.79h-1.12l-2.27-5.79h1.03Z"/><path class="cls-1" d="M707.18,67.32c-1.65,0-2.86-1.16-2.86-3s1.17-2.98,2.86-2.98,2.78,1.18,2.78,2.77c0,.21-.01,.38-.03,.58h-4.62c.07,1.17,.9,1.82,1.88,1.82,.87,0,1.42-.44,1.63-1.07h1.04c-.3,1.06-1.22,1.88-2.66,1.88Zm-1.87-3.41h3.65c.01-1.13-.83-1.75-1.83-1.75-.94,0-1.72,.62-1.83,1.75Z"/><path class="cls-1" d="M715.46,63.95c0-1.18-.64-1.78-1.62-1.78s-1.66,.61-1.66,1.86v3.2h-.96v-5.79h.96v.82c.38-.6,1.08-.93,1.86-.93,1.34,0,2.37,.82,2.37,2.48v3.41h-.95v-3.27Z"/><path class="cls-1" d="M720.45,61.34c1.44,0,2.38,.74,2.67,1.95h-1.03c-.2-.7-.78-1.14-1.64-1.14-1.06,0-1.84,.75-1.84,2.16s.78,2.19,1.84,2.19c.86,0,1.43-.41,1.64-1.14h1.03c-.27,1.07-1.11,1.84-2.38,1.94v.53c.81-.01,1.36,.35,1.36,1.05s-.54,1.09-1.29,1.09h-1.21v-.62h1.02c.45,0,.68-.13,.68-.46s-.22-.45-.68-.45h-.53v-1.13c-1.46-.15-2.47-1.28-2.47-2.98,0-1.82,1.17-2.98,2.82-2.98Z"/><path class="cls-1" d="M726.78,61.34c1.08,0,1.82,.55,2.15,1.15v-1.06h.97v5.79h-.97v-1.08c-.35,.62-1.1,1.17-2.17,1.17-1.54,0-2.73-1.21-2.73-3.01s1.19-2.97,2.75-2.97Zm.19,.83c-1.06,0-1.95,.77-1.95,2.13s.9,2.17,1.95,2.17,1.96-.79,1.96-2.15-.91-2.14-1.96-2.14Zm-.31-2.47c.56,0,.77,.49,1.2,.49,.23,0,.42-.15,.46-.45h.55c-.08,.72-.51,1.1-1.06,1.1s-.78-.49-1.2-.49c-.23,0-.41,.15-.45,.46h-.56c.11-.73,.51-1.11,1.06-1.11Z"/><path class="cls-1" d="M734.06,67.32c-1.64,0-2.88-1.16-2.88-3s1.29-2.98,2.92-2.98,2.92,1.15,2.92,2.98-1.32,3-2.97,3Zm0-.84c1,0,1.98-.69,1.98-2.15s-.96-2.14-1.95-2.14-1.93,.69-1.93,2.14,.9,2.15,1.9,2.15Z"/></g></g><g><rect class="cls-4" x="519.56" y="132.44" width="231.53" height="40.73"/><g><path class="cls-1" d="M582.11,138.78h5.41v1.19h-1.96v6.18h-1.48v-6.18h-1.96v-1.19Z"/><path class="cls-1" d="M591.19,146.25c-1.69,0-2.97-1.18-2.97-3.02s1.32-3.02,3.01-3.02,3.01,1.17,3.01,3.02-1.35,3.02-3.05,3.02Zm0-1.29c.78,0,1.53-.57,1.53-1.73s-.73-1.73-1.51-1.73-1.49,.56-1.49,1.73,.68,1.73,1.47,1.73Z"/><path class="cls-1" d="M603.52,142.92c0-.93-.52-1.42-1.3-1.42s-1.31,.49-1.31,1.42v3.23h-1.48v-3.23c0-.93-.52-1.42-1.3-1.42s-1.32,.49-1.32,1.42v3.23h-1.48v-5.85h1.48v.71c.37-.49,.99-.79,1.72-.79,.91,0,1.66,.39,2.06,1.12,.38-.67,1.15-1.12,2.01-1.12,1.4,0,2.4,.89,2.4,2.5v3.43h-1.48v-3.23Z"/><path class="cls-1" d="M608.69,140.21c.94,0,1.58,.44,1.93,.93v-.83h1.49v5.85h-1.49v-.86c-.35,.51-1.01,.95-1.94,.95-1.48,0-2.66-1.21-2.66-3.04s1.18-3,2.67-3Zm.38,1.3c-.79,0-1.54,.59-1.54,1.7s.75,1.74,1.54,1.74,1.55-.61,1.55-1.72-.74-1.72-1.55-1.72Z"/><path class="cls-1" d="M615.86,140.21c.77,0,1.51,.36,1.91,.91v-2.78h1.5v7.81h-1.5v-.87c-.35,.54-1,.96-1.92,.96-1.49,0-2.67-1.21-2.67-3.04s1.18-3,2.68-3Zm.37,1.3c-.79,0-1.54,.59-1.54,1.7s.75,1.74,1.54,1.74,1.55-.61,1.55-1.72-.74-1.72-1.55-1.72Z"/><path class="cls-1" d="M623.01,140.21c.94,0,1.58,.44,1.93,.93v-.83h1.49v5.85h-1.49v-.86c-.35,.51-1.01,.95-1.94,.95-1.48,0-2.66-1.21-2.66-3.04s1.18-3,2.67-3Zm.38,1.3c-.79,0-1.54,.59-1.54,1.7s.75,1.74,1.54,1.74,1.55-.61,1.55-1.72-.74-1.72-1.55-1.72Z"/><path class="cls-1" d="M632.69,140.21c.77,0,1.51,.36,1.91,.91v-2.78h1.5v7.81h-1.5v-.87c-.35,.54-1,.96-1.92,.96-1.49,0-2.67-1.21-2.67-3.04s1.18-3,2.68-3Zm.37,1.3c-.79,0-1.54,.59-1.54,1.7s.75,1.74,1.54,1.74,1.55-.61,1.55-1.72-.74-1.72-1.55-1.72Z"/><path class="cls-1" d="M640.1,146.25c-1.7,0-2.94-1.18-2.94-3.02s1.2-3.02,2.94-3.02,2.88,1.15,2.88,2.89c0,.19-.01,.38-.04,.57h-4.28c.07,.87,.67,1.35,1.4,1.35,.63,0,.98-.32,1.17-.71h1.59c-.32,1.08-1.29,1.93-2.73,1.93Zm-1.43-3.57h2.78c-.02-.77-.63-1.26-1.39-1.26-.71,0-1.27,.45-1.38,1.26Z"/><path class="cls-1" d="M653.04,142.48c0,2.23-1.53,3.67-3.89,3.67h-2.58v-7.37h2.58c2.35,0,3.89,1.46,3.89,3.7Zm-3.94,2.42c1.55,0,2.43-.89,2.43-2.42s-.88-2.45-2.43-2.45h-1.04v4.87h1.04Z"/><path class="cls-1" d="M656.7,146.25c-1.7,0-2.94-1.18-2.94-3.02s1.2-3.02,2.94-3.02,2.88,1.15,2.88,2.89c0,.19,0,.38-.04,.57h-4.28c.07,.87,.67,1.35,1.4,1.35,.63,0,.98-.32,1.17-.71h1.59c-.32,1.08-1.29,1.93-2.73,1.93Zm-1.43-3.57h2.78c-.02-.77-.63-1.26-1.39-1.26-.71,0-1.27,.45-1.38,1.26Z"/><path class="cls-1" d="M663.17,140.21c1.46,0,2.44,.76,2.76,2.07h-1.59c-.17-.5-.56-.81-1.17-.81-.82,0-1.37,.62-1.37,1.76s.55,1.75,1.37,1.75c.61,0,.99-.27,1.17-.8h1.59c-.32,1.25-1.3,2.07-2.76,2.07-1.69,0-2.89-1.18-2.89-3.02s1.2-3.02,2.89-3.02Z"/><path class="cls-1" d="M666.86,138.74c0-.49,.38-.87,.91-.87s.91,.38,.91,.87-.39,.87-.91,.87-.91-.38-.91-.87Zm.16,1.56h1.48v5.85h-1.48v-5.85Z"/><path class="cls-1" d="M672.19,146.25c-1.47,0-2.49-.86-2.55-1.94h1.49c.05,.44,.46,.78,1.06,.78s.9-.26,.9-.6c0-1.05-3.31-.38-3.31-2.52,0-.97,.87-1.75,2.31-1.75s2.27,.77,2.35,1.93h-1.42c-.04-.45-.4-.76-.98-.76-.55,0-.83,.22-.83,.56,0,1.07,3.24,.4,3.28,2.54,0,1-.88,1.76-2.3,1.76Z"/><path class="cls-1" d="M678,140.21c.94,0,1.58,.44,1.93,.93v-.83h1.49v5.85h-1.49v-.86c-.35,.51-1.01,.95-1.94,.95-1.48,0-2.66-1.21-2.66-3.04s1.18-3,2.67-3Zm0-1.85c.6,0,.88,.46,1.3,.46,.24,0,.41-.14,.45-.45h.79c-.14,.96-.63,1.38-1.31,1.38-.6,0-.88-.48-1.3-.48-.24,0-.41,.15-.46,.46h-.78c.14-.96,.63-1.38,1.31-1.38Zm.39,3.15c-.79,0-1.54,.59-1.54,1.7s.75,1.74,1.54,1.74,1.55-.61,1.55-1.72-.74-1.72-1.55-1.72Z"/><path class="cls-1" d="M685.46,146.25c-1.69,0-2.97-1.18-2.97-3.02s1.32-3.02,3.01-3.02,3.01,1.17,3.01,3.02-1.35,3.02-3.05,3.02Zm0-1.29c.78,0,1.53-.57,1.53-1.73s-.73-1.73-1.51-1.73-1.49,.56-1.49,1.73,.68,1.73,1.47,1.73Z"/></g><g><path class="cls-1" d="M532.9,158.72c0,2.28-1.49,3.66-3.91,3.66h-2.29v-7.36h2.29c2.42,0,3.91,1.42,3.91,3.7Zm-3.91,2.87c1.92,0,2.92-1.08,2.92-2.87s-1-2.91-2.92-2.91h-1.33v5.79h1.33Z"/><path class="cls-1" d="M536.67,162.48c-1.65,0-2.86-1.16-2.86-3s1.17-2.98,2.86-2.98,2.78,1.18,2.78,2.77c0,.21-.01,.38-.03,.58h-4.62c.07,1.17,.9,1.82,1.88,1.82,.87,0,1.42-.44,1.63-1.07h1.04c-.3,1.06-1.22,1.88-2.66,1.88Zm-1.87-3.41h3.65c.01-1.13-.83-1.75-1.83-1.75-.94,0-1.72,.62-1.83,1.75Z"/><path class="cls-1" d="M543.17,156.51c1.44,0,2.38,.74,2.67,1.95h-1.03c-.2-.7-.78-1.14-1.64-1.14-1.06,0-1.84,.75-1.84,2.17s.78,2.19,1.84,2.19c.86,0,1.43-.41,1.64-1.14h1.03c-.29,1.15-1.24,1.95-2.67,1.95-1.65,0-2.82-1.16-2.82-3s1.17-2.98,2.82-2.98Z"/><path class="cls-1" d="M546.96,155.01c0-.37,.29-.65,.66-.65,.35,0,.63,.29,.63,.65s-.29,.65-.63,.65c-.37,0-.66-.29-.66-.65Zm.16,1.59h.96v5.79h-.96v-5.79Z"/><path class="cls-1" d="M551.77,162.48c-1.35,0-2.3-.74-2.37-1.79h.99c.05,.56,.55,.98,1.36,.98,.76,0,1.18-.38,1.18-.86,0-1.29-3.42-.54-3.42-2.69,0-.89,.83-1.62,2.12-1.62s2.12,.69,2.19,1.82h-.96c-.04-.58-.49-1-1.26-1-.71,0-1.13,.34-1.13,.8,0,1.37,3.36,.62,3.4,2.69,0,.95-.83,1.67-2.11,1.67Z"/><path class="cls-1" d="M557.62,156.51c1.08,0,1.82,.55,2.15,1.15v-1.06h.97v5.79h-.97v-1.08c-.35,.62-1.1,1.17-2.17,1.17-1.54,0-2.73-1.21-2.73-3.01s1.19-2.97,2.75-2.97Zm.19,.83c-1.06,0-1.95,.77-1.95,2.13s.9,2.16,1.95,2.16,1.96-.79,1.96-2.15-.91-2.14-1.96-2.14Zm-.31-2.47c.56,0,.77,.49,1.2,.49,.23,0,.42-.15,.46-.45h.55c-.08,.72-.51,1.1-1.06,1.1s-.78-.49-1.2-.49c-.23,0-.41,.15-.45,.46h-.56c.11-.73,.51-1.11,1.06-1.11Z"/><path class="cls-1" d="M564.89,162.48c-1.64,0-2.88-1.16-2.88-3s1.29-2.98,2.92-2.98,2.92,1.15,2.92,2.98-1.32,3-2.97,3Zm0-.84c1,0,1.98-.69,1.98-2.15s-.96-2.14-1.95-2.14-1.93,.69-1.93,2.14,.9,2.15,1.9,2.15Z"/><path class="cls-1" d="M575.07,156.51c1.55,0,2.75,1.16,2.75,2.97s-1.19,3.01-2.75,3.01c-1.06,0-1.81-.57-2.17-1.16v3.81h-.96v-8.53h.96v1.07c.35-.61,1.11-1.16,2.17-1.16Zm-.2,.83c-1.05,0-1.96,.8-1.96,2.14s.92,2.15,1.96,2.15,1.96-.8,1.96-2.16-.9-2.13-1.96-2.13Z"/><path class="cls-1" d="M581.61,162.48c-1.64,0-2.88-1.16-2.88-3s1.29-2.98,2.92-2.98,2.92,1.15,2.92,2.98-1.32,3-2.97,3Zm0-.84c1,0,1.98-.69,1.98-2.15s-.96-2.14-1.95-2.14-1.93,.69-1.93,2.14,.9,2.15,1.9,2.15Z"/><path class="cls-1" d="M586.8,162.39h-.96v-5.79h.96v.94c.33-.64,.95-1.04,1.87-1.04v.99h-.25c-.92,0-1.62,.41-1.62,1.75v3.15Z"/><path class="cls-1" d="M594.99,156.51c1.08,0,1.82,.55,2.15,1.15v-1.06h.97v5.79h-.97v-1.08c-.35,.62-1.1,1.17-2.17,1.17-1.54,0-2.73-1.21-2.73-3.01s1.19-2.97,2.75-2.97Zm.19,.83c-1.06,0-1.95,.77-1.95,2.13s.9,2.16,1.95,2.16,1.96-.79,1.96-2.15-.91-2.14-1.96-2.14Z"/><path class="cls-1" d="M599.74,154.57h.96v7.81h-.96v-7.81Z"/><path class="cls-1" d="M604.72,156.51c1.06,0,1.82,.53,2.15,1.15v-1.06h.97v5.91c0,1.59-1.07,2.72-2.77,2.72-1.52,0-2.61-.77-2.8-2.01h.95c.21,.7,.9,1.17,1.85,1.17,1.02,0,1.79-.65,1.79-1.89v-1.21c-.35,.62-1.1,1.18-2.15,1.18-1.55,0-2.75-1.21-2.75-3.01s1.19-2.97,2.75-2.97Zm.19,.83c-1.06,0-1.95,.77-1.95,2.13s.9,2.16,1.95,2.16,1.96-.79,1.96-2.15-.91-2.14-1.96-2.14Z"/><path class="cls-1" d="M614.6,162.39h-.96v-.86c-.37,.6-1.08,.94-1.85,.94-1.33,0-2.38-.82-2.38-2.48v-3.39h.95v3.26c0,1.17,.64,1.77,1.62,1.77s1.66-.61,1.66-1.86v-3.18h.96v5.79Z"/><path class="cls-1" d="M624.58,159.11c0-1.18-.63-1.78-1.58-1.78s-1.64,.62-1.64,1.87v3.19h-.95v-3.27c0-1.18-.63-1.78-1.58-1.78s-1.64,.62-1.64,1.87v3.19h-.96v-5.79h.96v.83c.38-.61,1.07-.94,1.83-.94,.95,0,1.74,.42,2.12,1.29,.34-.83,1.16-1.29,2.05-1.29,1.32,0,2.34,.82,2.34,2.48v3.41h-.95v-3.27Z"/><path class="cls-1" d="M629.49,156.51c1.08,0,1.82,.55,2.15,1.15v-1.06h.97v5.79h-.97v-1.08c-.35,.62-1.1,1.17-2.17,1.17-1.54,0-2.73-1.21-2.73-3.01s1.19-2.97,2.75-2.97Zm.19,.83c-1.06,0-1.95,.77-1.95,2.13s.9,2.16,1.95,2.16,1.96-.79,1.96-2.15-.91-2.14-1.96-2.14Z"/><path class="cls-1" d="M639.45,156.51c1.08,0,1.82,.55,2.15,1.15v-1.06h.97v5.79h-.97v-1.08c-.35,.62-1.1,1.17-2.17,1.17-1.54,0-2.73-1.21-2.73-3.01s1.19-2.97,2.75-2.97Zm.19,.83c-1.06,0-1.95,.77-1.95,2.13s.9,2.16,1.95,2.16,1.96-.79,1.96-2.15-.91-2.14-1.96-2.14Z"/><path class="cls-1" d="M644.2,154.57h.96v7.81h-.96v-7.81Z"/><path class="cls-1" d="M647.01,157.39h-.75v-.79h.75v-1.46h.96v1.46h1.51v.79h-1.51v3.41c0,.57,.21,.77,.8,.77h.71v.81h-.87c-1.02,0-1.6-.42-1.6-1.58v-3.41Z"/><path class="cls-1" d="M653.15,162.48c-1.65,0-2.86-1.16-2.86-3s1.17-2.98,2.86-2.98,2.78,1.18,2.78,2.77c0,.21-.01,.38-.03,.58h-4.62c.07,1.17,.9,1.82,1.88,1.82,.87,0,1.42-.44,1.63-1.07h1.04c-.3,1.06-1.22,1.88-2.66,1.88Zm-1.87-3.41h3.65c.01-1.13-.83-1.75-1.83-1.75-.94,0-1.72,.62-1.83,1.75Z"/><path class="cls-1" d="M658.15,162.39h-.96v-5.79h.96v.94c.33-.64,.95-1.04,1.87-1.04v.99h-.25c-.92,0-1.62,.41-1.62,1.75v3.15Z"/><path class="cls-1" d="M665.36,159.11c0-1.18-.64-1.78-1.62-1.78s-1.66,.61-1.66,1.86v3.2h-.96v-5.79h.96v.82c.38-.6,1.08-.93,1.86-.93,1.34,0,2.37,.82,2.37,2.48v3.41h-.95v-3.27Z"/><path class="cls-1" d="M670.27,156.51c1.08,0,1.82,.55,2.15,1.15v-1.06h.97v5.79h-.97v-1.08c-.35,.62-1.1,1.17-2.17,1.17-1.54,0-2.73-1.21-2.73-3.01s1.19-2.97,2.75-2.97Zm.19,.83c-1.06,0-1.95,.77-1.95,2.13s.9,2.16,1.95,2.16,1.96-.79,1.96-2.15-.91-2.14-1.96-2.14Z"/><path class="cls-1" d="M675.24,157.39h-.75v-.79h.75v-1.46h.96v1.46h1.51v.79h-1.51v3.41c0,.57,.21,.77,.8,.77h.71v.81h-.87c-1.02,0-1.6-.42-1.6-1.58v-3.41Z"/><path class="cls-1" d="M678.71,155.01c0-.37,.29-.65,.66-.65,.35,0,.63,.29,.63,.65s-.28,.65-.63,.65c-.37,0-.66-.29-.66-.65Zm.16,1.59h.96v5.79h-.96v-5.79Z"/><path class="cls-1" d="M681.81,156.6l1.81,4.9,1.79-4.9h1.02l-2.27,5.79h-1.12l-2.27-5.79h1.03Z"/><path class="cls-1" d="M689.78,156.51c1.08,0,1.82,.55,2.15,1.15v-1.06h.97v5.79h-.97v-1.08c-.35,.62-1.1,1.17-2.17,1.17-1.54,0-2.73-1.21-2.73-3.01s1.19-2.97,2.75-2.97Zm.19,.83c-1.06,0-1.95,.77-1.95,2.13s.9,2.16,1.95,2.16,1.96-.79,1.96-2.15-.91-2.14-1.96-2.14Z"/><path class="cls-1" d="M700.47,156.51c1.55,0,2.75,1.16,2.75,2.97s-1.19,3.01-2.75,3.01c-1.06,0-1.81-.57-2.16-1.16v3.81h-.96v-8.53h.96v1.07c.35-.61,1.11-1.16,2.16-1.16Zm-.2,.83c-1.05,0-1.96,.8-1.96,2.14s.92,2.15,1.96,2.15,1.96-.8,1.96-2.16-.9-2.13-1.96-2.13Z"/><path class="cls-1" d="M705.44,162.39h-.96v-5.79h.96v.94c.33-.64,.95-1.04,1.87-1.04v.99h-.25c-.92,0-1.62,.41-1.62,1.75v3.15Z"/><path class="cls-1" d="M710.95,162.48c-1.64,0-2.88-1.16-2.88-3s1.29-2.98,2.92-2.98,2.92,1.15,2.92,2.98-1.32,3-2.97,3Zm0-.84c1,0,1.98-.69,1.98-2.15s-.96-2.14-1.95-2.14-1.93,.69-1.93,2.14,.9,2.15,1.9,2.15Z"/><path class="cls-1" d="M718.31,156.51c1.55,0,2.75,1.16,2.75,2.97s-1.19,3.01-2.75,3.01c-1.06,0-1.81-.57-2.16-1.16v3.81h-.96v-8.53h.96v1.07c.35-.61,1.11-1.16,2.16-1.16Zm-.2,.83c-1.05,0-1.96,.8-1.96,2.14s.92,2.15,1.96,2.15,1.96-.8,1.96-2.16-.9-2.13-1.96-2.13Z"/><path class="cls-1" d="M724.84,162.48c-1.64,0-2.88-1.16-2.88-3s1.29-2.98,2.92-2.98,2.92,1.15,2.92,2.98-1.32,3-2.97,3Zm0-.84c1,0,1.99-.69,1.99-2.15s-.96-2.14-1.95-2.14-1.93,.69-1.93,2.14,.9,2.15,1.9,2.15Z"/><path class="cls-1" d="M731.12,162.48c-1.35,0-2.3-.74-2.37-1.79h.99c.05,.56,.55,.98,1.36,.98,.76,0,1.18-.38,1.18-.86,0-1.29-3.42-.54-3.42-2.69,0-.89,.83-1.62,2.12-1.62s2.12,.69,2.19,1.82h-.96c-.04-.58-.49-1-1.26-1-.71,0-1.13,.34-1.13,.8,0,1.37,3.36,.62,3.4,2.69,0,.95-.83,1.67-2.11,1.67Z"/><path class="cls-1" d="M734.8,157.39h-.75v-.79h.75v-1.46h.96v1.46h1.51v.79h-1.51v3.41c0,.57,.21,.77,.8,.77h.71v.81h-.87c-1.02,0-1.6-.42-1.6-1.58v-3.41Z"/><path class="cls-1" d="M740.82,156.51c1.08,0,1.82,.55,2.15,1.15v-1.06h.97v5.79h-.97v-1.08c-.35,.62-1.1,1.17-2.17,1.17-1.54,0-2.73-1.21-2.73-3.01s1.19-2.97,2.75-2.97Zm.19,.83c-1.06,0-1.95,.77-1.95,2.13s.9,2.16,1.95,2.16,1.96-.79,1.96-2.15-.91-2.14-1.96-2.14Z"/></g></g><g><rect class="cls-4" x="526.34" y="227.6" width="217.97" height="40.73"/><g><path class="cls-1" d="M592.71,233.95h1.48v7.37h-1.48v-7.37Z"/><path class="cls-1" d="M603.83,238.09c0-.93-.52-1.42-1.3-1.42s-1.31,.49-1.31,1.42v3.23h-1.48v-3.23c0-.93-.52-1.42-1.3-1.42s-1.32,.49-1.32,1.42v3.23h-1.48v-5.85h1.48v.71c.37-.49,.99-.79,1.72-.79,.91,0,1.66,.39,2.06,1.12,.38-.67,1.15-1.12,2.01-1.12,1.4,0,2.4,.89,2.4,2.5v3.43h-1.48v-3.23Z"/><path class="cls-1" d="M610.13,235.38c1.5,0,2.67,1.17,2.67,3s-1.17,3.04-2.67,3.04c-.92,0-1.57-.45-1.93-.93v3.62h-1.48v-8.64h1.48v.84c.35-.5,1.02-.94,1.93-.94Zm-.39,1.3c-.79,0-1.54,.61-1.54,1.72s.75,1.72,1.54,1.72,1.55-.63,1.55-1.74-.75-1.7-1.55-1.7Z"/><path class="cls-1" d="M613.87,233.51h1.48v7.81h-1.48v-7.81Z"/><path class="cls-1" d="M619.37,241.41c-1.7,0-2.94-1.18-2.94-3.02s1.2-3.02,2.94-3.02,2.88,1.15,2.88,2.89c0,.19,0,.38-.04,.57h-4.28c.07,.87,.67,1.35,1.4,1.35,.63,0,.98-.32,1.17-.71h1.59c-.32,1.08-1.29,1.93-2.73,1.93Zm-1.43-3.57h2.78c-.02-.77-.63-1.26-1.39-1.26-.71,0-1.27,.45-1.38,1.26Z"/><path class="cls-1" d="M631.51,238.09c0-.93-.52-1.42-1.3-1.42s-1.31,.49-1.31,1.42v3.23h-1.48v-3.23c0-.93-.52-1.42-1.3-1.42s-1.32,.49-1.32,1.42v3.23h-1.48v-5.85h1.48v.71c.37-.49,.99-.79,1.72-.79,.91,0,1.66,.39,2.06,1.12,.38-.67,1.15-1.12,2.01-1.12,1.4,0,2.4,.89,2.4,2.5v3.43h-1.48v-3.23Z"/><path class="cls-1" d="M636.95,241.41c-1.7,0-2.94-1.18-2.94-3.02s1.2-3.02,2.94-3.02,2.88,1.15,2.88,2.89c0,.19-.01,.38-.04,.57h-4.28c.07,.87,.67,1.35,1.4,1.35,.63,0,.98-.32,1.17-.71h1.59c-.32,1.08-1.29,1.93-2.73,1.93Zm-1.43-3.57h2.78c-.02-.77-.63-1.26-1.39-1.26-.71,0-1.27,.45-1.38,1.26Z"/><path class="cls-1" d="M645,238.09c0-.94-.52-1.45-1.3-1.45s-1.32,.51-1.32,1.45v3.23h-1.48v-5.85h1.48v.73c.38-.5,1.01-.81,1.76-.81,1.36,0,2.33,.89,2.33,2.5v3.43h-1.48v-3.23Z"/><path class="cls-1" d="M648.12,236.68h-.7v-1.21h.7v-1.45h1.49v1.45h1.31v1.21h-1.31v2.83c0,.39,.16,.56,.62,.56h.69v1.25h-.93c-1.12,0-1.87-.48-1.87-1.82v-2.82Z"/><path class="cls-1" d="M654.27,235.38c.94,0,1.58,.44,1.93,.93v-.83h1.49v5.85h-1.49v-.86c-.35,.51-1.01,.95-1.94,.95-1.48,0-2.66-1.21-2.66-3.04s1.18-3,2.67-3Zm.38,1.3c-.79,0-1.54,.59-1.54,1.7s.75,1.74,1.54,1.74,1.55-.61,1.55-1.72-.74-1.72-1.55-1.72Z"/><path class="cls-1" d="M661.65,235.38c1.46,0,2.44,.76,2.76,2.07h-1.59c-.17-.5-.56-.81-1.17-.81-.82,0-1.37,.62-1.37,1.76s.55,1.75,1.37,1.75c.61,0,.99-.27,1.17-.8h1.59c-.28,1.12-1.1,1.89-2.31,2.04v.41c.71,0,1.37,.36,1.37,1.15s-.67,1.18-1.4,1.18h-1.5v-.87h1.26c.32,0,.52-.07,.52-.34s-.2-.33-.52-.33h-.65v-1.21c-1.43-.21-2.41-1.33-2.41-2.99,0-1.84,1.2-3.02,2.89-3.02Z"/><path class="cls-1" d="M667.79,235.38c.94,0,1.58,.44,1.93,.93v-.83h1.49v5.85h-1.49v-.86c-.35,.51-1.01,.95-1.94,.95-1.48,0-2.66-1.21-2.66-3.04s1.18-3,2.67-3Zm0-1.85c.6,0,.88,.46,1.3,.46,.24,0,.41-.14,.45-.45h.79c-.14,.96-.63,1.38-1.31,1.38-.6,0-.88-.48-1.3-.48-.24,0-.41,.15-.46,.46h-.78c.14-.96,.63-1.38,1.31-1.38Zm.39,3.15c-.79,0-1.54,.59-1.54,1.7s.75,1.74,1.54,1.74,1.55-.61,1.55-1.72-.74-1.72-1.55-1.72Z"/><path class="cls-1" d="M675.25,241.41c-1.69,0-2.97-1.18-2.97-3.02s1.32-3.02,3.01-3.02,3.01,1.17,3.01,3.02-1.35,3.02-3.05,3.02Zm0-1.29c.78,0,1.53-.57,1.53-1.73s-.73-1.73-1.51-1.73-1.49,.56-1.49,1.73,.68,1.73,1.47,1.73Z"/></g><g><path class="cls-1" d="M533.24,250.98h-3v2.46h2.68v.79h-2.68v2.53h3v.79h-3.96v-7.37h3.96v.79Z"/><path class="cls-1" d="M536.35,255.4l-1.32,2.15h-1l1.87-2.87-1.87-2.91h1.09l1.37,2.14,1.31-2.14h1l-1.86,2.86,1.87,2.92h-1.09l-1.37-2.15Z"/><path class="cls-1" d="M542.26,257.65c-1.65,0-2.86-1.16-2.86-3s1.17-2.98,2.86-2.98,2.78,1.18,2.78,2.77c0,.21-.01,.38-.03,.58h-4.62c.07,1.17,.9,1.82,1.88,1.82,.87,0,1.42-.44,1.63-1.07h1.04c-.3,1.06-1.22,1.88-2.66,1.88Zm-1.87-3.41h3.65c.01-1.13-.83-1.75-1.83-1.75-.94,0-1.72,.62-1.83,1.75Z"/><path class="cls-1" d="M548.77,251.67c1.44,0,2.38,.74,2.67,1.95h-1.03c-.2-.7-.78-1.14-1.64-1.14-1.06,0-1.84,.75-1.84,2.17s.78,2.19,1.84,2.19c.86,0,1.43-.41,1.64-1.14h1.03c-.29,1.15-1.24,1.95-2.67,1.95-1.65,0-2.82-1.16-2.82-3s1.17-2.98,2.82-2.98Z"/><path class="cls-1" d="M557.85,257.56h-.96v-.86c-.37,.6-1.08,.94-1.85,.94-1.33,0-2.38-.82-2.38-2.48v-3.39h.95v3.26c0,1.17,.64,1.77,1.62,1.77s1.66-.61,1.66-1.86v-3.18h.96v5.79Z"/><path class="cls-1" d="M561.93,251.67c1.44,0,2.38,.74,2.67,1.95h-1.03c-.2-.7-.78-1.14-1.64-1.14-1.06,0-1.84,.75-1.84,2.17s.78,2.19,1.84,2.19c.86,0,1.43-.41,1.64-1.14h1.03c-.27,1.07-1.11,1.84-2.38,1.94v.53c.81-.01,1.36,.35,1.36,1.05s-.54,1.09-1.29,1.09h-1.21v-.62h1.02c.45,0,.68-.13,.68-.46s-.22-.45-.68-.45h-.53v-1.13c-1.46-.15-2.47-1.28-2.47-2.98,0-1.82,1.17-2.98,2.82-2.98Z"/><path class="cls-1" d="M568.27,251.67c1.08,0,1.82,.55,2.15,1.15v-1.06h.97v5.79h-.97v-1.08c-.35,.62-1.1,1.17-2.17,1.17-1.54,0-2.73-1.21-2.73-3.01s1.19-2.97,2.75-2.97Zm.19,.83c-1.06,0-1.95,.77-1.95,2.13s.9,2.16,1.95,2.16,1.96-.79,1.96-2.15-.91-2.14-1.96-2.14Zm-.31-2.47c.56,0,.77,.49,1.2,.49,.23,0,.42-.15,.46-.45h.55c-.08,.72-.51,1.1-1.06,1.1s-.78-.49-1.2-.49c-.23,0-.41,.15-.45,.46h-.56c.11-.73,.51-1.11,1.06-1.11Z"/><path class="cls-1" d="M575.54,257.65c-1.64,0-2.88-1.16-2.88-3s1.29-2.98,2.92-2.98,2.92,1.15,2.92,2.98-1.32,3-2.97,3Zm0-.84c1,0,1.99-.69,1.99-2.15s-.96-2.14-1.95-2.14-1.93,.69-1.93,2.14,.9,2.15,1.9,2.15Z"/><path class="cls-1" d="M584.99,251.67c.91,0,1.74,.46,2.14,1.13v-3.06h.97v7.81h-.97v-1.09c-.35,.64-1.1,1.18-2.15,1.18-1.55,0-2.75-1.21-2.75-3.01s1.19-2.97,2.76-2.97Zm.18,.83c-1.06,0-1.95,.77-1.95,2.13s.9,2.16,1.95,2.16,1.96-.79,1.96-2.15-.91-2.14-1.96-2.14Z"/><path class="cls-1" d="M592.12,251.67c1.08,0,1.82,.55,2.15,1.15v-1.06h.97v5.79h-.97v-1.08c-.35,.62-1.1,1.17-2.17,1.17-1.54,0-2.73-1.21-2.73-3.01s1.19-2.97,2.75-2.97Zm.19,.83c-1.06,0-1.95,.77-1.95,2.13s.9,2.16,1.95,2.16,1.96-.79,1.96-2.15-.91-2.14-1.96-2.14Z"/><path class="cls-1" d="M598.92,257.65c-1.35,0-2.3-.74-2.37-1.79h.99c.05,.56,.55,.98,1.36,.98,.76,0,1.18-.38,1.18-.86,0-1.29-3.42-.54-3.42-2.69,0-.89,.83-1.62,2.12-1.62s2.12,.69,2.19,1.82h-.96c-.04-.58-.49-1-1.26-1-.71,0-1.13,.34-1.13,.8,0,1.37,3.36,.62,3.4,2.69,0,.95-.83,1.67-2.11,1.67Z"/><path class="cls-1" d="M607.59,251.67c1.08,0,1.82,.55,2.15,1.15v-1.06h.97v5.79h-.97v-1.08c-.35,.62-1.1,1.17-2.17,1.17-1.54,0-2.73-1.21-2.73-3.01s1.19-2.97,2.75-2.97Zm.19,.83c-1.06,0-1.95,.77-1.95,2.13s.9,2.16,1.95,2.16,1.96-.79,1.96-2.15-.91-2.14-1.96-2.14Z"/><path class="cls-1" d="M612.55,252.56h-.75v-.79h.75v-1.46h.96v1.46h1.51v.79h-1.51v3.41c0,.57,.21,.77,.8,.77h.71v.81h-.87c-1.02,0-1.6-.42-1.6-1.58v-3.41Z"/><path class="cls-1" d="M616.03,250.17c0-.37,.29-.65,.66-.65,.35,0,.63,.29,.63,.65s-.28,.65-.63,.65c-.37,0-.66-.28-.66-.65Zm.16,1.59h.96v5.79h-.96v-5.79Z"/><path class="cls-1" d="M619.13,251.77l1.81,4.9,1.79-4.9h1.02l-2.27,5.79h-1.12l-2.27-5.79h1.03Z"/><path class="cls-1" d="M624.55,250.17c0-.37,.29-.65,.66-.65,.35,0,.63,.29,.63,.65s-.28,.65-.63,.65c-.37,0-.66-.28-.66-.65Zm.16,1.59h.96v5.79h-.96v-5.79Z"/><path class="cls-1" d="M629.7,251.67c.91,0,1.74,.46,2.14,1.13v-3.06h.97v7.81h-.97v-1.09c-.35,.64-1.1,1.18-2.15,1.18-1.55,0-2.75-1.21-2.75-3.01s1.19-2.97,2.76-2.97Zm.18,.83c-1.06,0-1.95,.77-1.95,2.13s.9,2.16,1.95,2.16,1.96-.79,1.96-2.15-.91-2.14-1.96-2.14Z"/><path class="cls-1" d="M636.83,251.67c1.08,0,1.82,.55,2.15,1.15v-1.06h.97v5.79h-.97v-1.08c-.35,.62-1.1,1.17-2.17,1.17-1.54,0-2.73-1.21-2.73-3.01s1.19-2.97,2.75-2.97Zm.19,.83c-1.06,0-1.95,.77-1.95,2.13s.9,2.16,1.95,2.16,1.96-.79,1.96-2.15-.91-2.14-1.96-2.14Z"/><path class="cls-1" d="M643.98,251.67c.91,0,1.74,.46,2.14,1.13v-3.06h.97v7.81h-.97v-1.09c-.35,.64-1.1,1.18-2.15,1.18-1.55,0-2.75-1.21-2.75-3.01s1.19-2.97,2.76-2.97Zm.18,.83c-1.06,0-1.95,.77-1.95,2.13s.9,2.16,1.95,2.16,1.96-.79,1.96-2.15-.91-2.14-1.96-2.14Z"/><path class="cls-1" d="M651.22,257.65c-1.65,0-2.86-1.16-2.86-3s1.17-2.98,2.86-2.98,2.78,1.18,2.78,2.77c0,.21-.01,.38-.03,.58h-4.62c.07,1.17,.9,1.82,1.88,1.82,.87,0,1.42-.44,1.63-1.07h1.04c-.3,1.06-1.22,1.88-2.66,1.88Zm-1.87-3.41h3.65c.01-1.13-.83-1.75-1.83-1.75-.94,0-1.72,.62-1.83,1.75Z"/><path class="cls-1" d="M657.31,257.65c-1.35,0-2.3-.74-2.37-1.79h.99c.05,.56,.55,.98,1.36,.98,.76,0,1.18-.38,1.18-.86,0-1.29-3.42-.54-3.42-2.69,0-.89,.83-1.62,2.12-1.62s2.12,.69,2.19,1.82h-.96c-.04-.58-.49-1-1.26-1-.71,0-1.13,.34-1.13,.8,0,1.37,3.36,.62,3.4,2.69,0,.95-.83,1.67-2.11,1.67Z"/><path class="cls-1" d="M666.1,257.65c-1.65,0-2.86-1.16-2.86-3s1.17-2.98,2.86-2.98,2.78,1.18,2.78,2.77c0,.21-.01,.38-.03,.58h-4.62c.07,1.17,.9,1.82,1.88,1.82,.87,0,1.42-.44,1.63-1.07h1.04c-.3,1.06-1.22,1.88-2.66,1.88Zm-1.87-3.41h3.65c.01-1.13-.83-1.75-1.83-1.75-.94,0-1.72,.62-1.83,1.75Z"/><path class="cls-1" d="M675.36,251.67c.91,0,1.74,.46,2.14,1.13v-3.06h.97v7.81h-.97v-1.09c-.35,.64-1.1,1.18-2.15,1.18-1.55,0-2.75-1.21-2.75-3.01s1.19-2.97,2.76-2.97Zm.18,.83c-1.06,0-1.95,.77-1.95,2.13s.9,2.16,1.95,2.16,1.96-.79,1.96-2.15-.91-2.14-1.96-2.14Z"/><path class="cls-1" d="M682.48,251.67c1.08,0,1.82,.55,2.15,1.15v-1.06h.97v5.79h-.97v-1.08c-.35,.62-1.1,1.17-2.17,1.17-1.54,0-2.73-1.21-2.73-3.01s1.19-2.97,2.75-2.97Zm.19,.83c-1.06,0-1.95,.77-1.95,2.13s.9,2.16,1.95,2.16,1.96-.79,1.96-2.15-.91-2.14-1.96-2.14Z"/><path class="cls-1" d="M689.28,257.65c-1.35,0-2.3-.74-2.37-1.79h.99c.05,.56,.55,.98,1.36,.98,.76,0,1.18-.38,1.18-.86,0-1.29-3.42-.54-3.42-2.69,0-.89,.83-1.62,2.12-1.62s2.12,.69,2.19,1.82h-.96c-.04-.58-.49-1-1.26-1-.71,0-1.13,.34-1.13,.8,0,1.37,3.36,.62,3.4,2.69,0,.95-.83,1.67-2.11,1.67Z"/><path class="cls-1" d="M698.07,257.65c-1.65,0-2.86-1.16-2.86-3s1.17-2.98,2.86-2.98,2.78,1.18,2.78,2.77c0,.21-.01,.38-.03,.58h-4.62c.07,1.17,.9,1.82,1.88,1.82,.87,0,1.42-.44,1.63-1.07h1.04c-.3,1.06-1.22,1.88-2.66,1.88Zm-1.87-3.41h3.65c.01-1.13-.83-1.75-1.83-1.75-.94,0-1.72,.62-1.83,1.75Z"/><path class="cls-1" d="M706.35,254.28c0-1.18-.64-1.78-1.62-1.78s-1.66,.61-1.66,1.86v3.2h-.96v-5.79h.96v.82c.38-.6,1.08-.93,1.86-.93,1.34,0,2.37,.82,2.37,2.48v3.41h-.95v-3.27Z"/><path class="cls-1" d="M709.08,252.56h-.75v-.79h.75v-1.46h.96v1.46h1.51v.79h-1.51v3.41c0,.57,.21,.77,.8,.77h.71v.81h-.87c-1.02,0-1.6-.42-1.6-1.58v-3.41Z"/><path class="cls-1" d="M713.68,257.56h-.96v-5.79h.96v.94c.33-.64,.95-1.04,1.87-1.04v.99h-.25c-.92,0-1.62,.41-1.62,1.75v3.15Z"/><path class="cls-1" d="M719.16,257.65c-1.65,0-2.86-1.16-2.86-3s1.17-2.98,2.86-2.98,2.78,1.18,2.78,2.77c0,.21-.01,.38-.03,.58h-4.62c.07,1.17,.9,1.82,1.88,1.82,.87,0,1.42-.44,1.63-1.07h1.04c-.3,1.06-1.22,1.88-2.66,1.88Zm-1.87-3.41h3.65c.01-1.13-.83-1.75-1.83-1.75-.94,0-1.72,.62-1.83,1.75Z"/><path class="cls-1" d="M725.59,251.67c1.06,0,1.82,.53,2.15,1.15v-1.06h.97v5.91c0,1.59-1.07,2.72-2.77,2.72-1.52,0-2.61-.77-2.8-2.01h.95c.21,.7,.9,1.17,1.85,1.17,1.02,0,1.79-.65,1.79-1.89v-1.21c-.35,.62-1.1,1.18-2.15,1.18-1.55,0-2.75-1.21-2.75-3.01s1.19-2.97,2.75-2.97Zm.19,.83c-1.06,0-1.95,.77-1.95,2.13s.9,2.16,1.95,2.16,1.96-.79,1.96-2.15-.91-2.14-1.96-2.14Z"/><path class="cls-1" d="M732.72,251.67c1.08,0,1.82,.55,2.15,1.15v-1.06h.97v5.79h-.97v-1.08c-.35,.62-1.1,1.17-2.17,1.17-1.54,0-2.73-1.21-2.73-3.01s1.19-2.97,2.75-2.97Zm.19,.83c-1.06,0-1.95,.77-1.95,2.13s.9,2.16,1.95,2.16,1.96-.79,1.96-2.15-.91-2.14-1.96-2.14Z"/><path class="cls-1" d="M739.52,257.65c-1.35,0-2.3-.74-2.37-1.79h.99c.05,.56,.55,.98,1.36,.98,.76,0,1.18-.38,1.18-.86,0-1.29-3.42-.54-3.42-2.69,0-.89,.83-1.62,2.12-1.62s2.12,.69,2.19,1.82h-.96c-.04-.58-.49-1-1.26-1-.71,0-1.13,.34-1.13,.8,0,1.37,3.36,.62,3.4,2.69,0,.95-.83,1.67-2.11,1.67Z"/></g></g></svg>