<?xml version="1.0" encoding="UTF-8"?><svg id="a" xmlns="http://www.w3.org/2000/svg" viewBox="0 0 563 210"><defs><style>.e{fill:#fff;}.f{fill:#3f6b71;}.g{fill:#ffa800;}.h{fill:#506d8f;}.i{fill:#869fb2;}</style></defs><rect class="f" x="36.15" y="31.81" width="241.93" height="43.24"/><g><path class="e" d="M67.05,45.43h-1.27v3.02h-2.05v-8.42h3.32c2.06,0,3.09,1.16,3.09,2.71,0,1.39-.95,2.69-3.09,2.69Zm-.16-1.63c.82,0,1.16-.41,1.16-1.06s-.35-1.06-1.16-1.06h-1.12v2.11h1.12Z"/><path class="e" d="M74.66,40.03c2.06,0,3.09,1.19,3.09,2.65,0,1.06-.58,2.05-1.87,2.44l1.94,3.33h-2.31l-1.75-3.18h-.49v3.18h-2.05v-8.42h3.44Zm-.12,1.7h-1.27v2.09h1.27c.77,0,1.13-.4,1.13-1.06,0-.62-.36-1.03-1.13-1.03Z"/><path class="e" d="M83.02,48.53c-2.39,0-4.33-1.79-4.33-4.32s1.94-4.31,4.33-4.31,4.31,1.78,4.31,4.31-1.92,4.32-4.31,4.32Zm0-1.87c1.34,0,2.22-.97,2.22-2.45s-.88-2.45-2.22-2.45-2.23,.95-2.23,2.45,.86,2.45,2.23,2.45Z"/><path class="e" d="M92.39,48.45h-3.92v-8.42h3.79c1.71,0,2.73,.85,2.73,2.18,0,1.02-.61,1.68-1.43,1.92,.98,.2,1.62,1.07,1.62,2.03,0,1.39-1.02,2.29-2.79,2.29Zm-.53-6.78h-1.34v1.76h1.34c.67,0,1.04-.3,1.04-.88s-.37-.89-1.04-.89Zm.14,3.26h-1.49v1.86h1.51c.68,0,1.08-.31,1.08-.91s-.42-.95-1.1-.95Z"/><path class="e" d="M98.43,40.03v6.84h2.69v1.58h-4.74v-8.42h2.05Z"/><path class="e" d="M107.26,41.67h-3.11v1.7h2.75v1.58h-2.75v1.85h3.11v1.64h-5.16v-8.42h5.16v1.64Z"/><path class="e" d="M108.59,40.03h2.42l2.36,5.83,2.34-5.83h2.41v8.42h-2.05v-5.05l-1.88,5.05h-1.66l-1.9-5.06v5.06h-2.05v-8.42Z"/><path class="e" d="M124.85,46.96h-3.14l-.5,1.49h-2.15l3.05-8.42h2.37l3.05,8.42h-2.17l-.5-1.49Zm-1.57-4.67l-1.03,3.08h2.07l-1.04-3.08Z"/><path class="e" d="M131.5,48.53c-1.81,0-3.23-.9-3.29-2.6h2.18c.06,.65,.47,.96,1.04,.96s.98-.3,.98-.79c0-1.56-4.21-.72-4.19-3.71,0-1.6,1.31-2.48,3.07-2.48s3.07,.91,3.15,2.52h-2.22c-.04-.54-.42-.86-.97-.88-.49-.01-.86,.24-.86,.77,0,1.46,4.16,.8,4.16,3.62,0,1.42-1.1,2.59-3.07,2.59Z"/><path class="e" d="M143.53,41.67h-3.11v1.7h2.75v1.58h-2.75v1.85h3.11v1.64h-5.16v-8.42h5.16v1.64Z"/><path class="e" d="M144.87,40.03h2.42l2.36,5.83,2.34-5.83h2.41v8.42h-2.05v-5.05l-1.88,5.05h-1.66l-1.9-5.06v5.06h-2.05v-8.42Z"/><path class="e" d="M161.48,48.53c-1.81,0-3.23-.9-3.29-2.6h2.18c.06,.65,.47,.96,1.04,.96s.98-.3,.98-.79c0-1.56-4.21-.72-4.19-3.71,0-1.6,1.31-2.48,3.07-2.48s3.07,.91,3.15,2.52h-2.22c-.04-.54-.42-.86-.97-.88-.49-.01-.86,.24-.86,.77,0,1.46,4.16,.8,4.16,3.62,0,1.42-1.1,2.59-3.07,2.59Z"/><path class="e" d="M171.05,46.96h-3.14l-.5,1.49h-2.15l3.05-8.42h2.37l3.05,8.42h-2.17l-.5-1.49Zm-1.57-4.67l-1.03,3.08h2.08l-1.04-3.08Z"/><path class="e" d="M174.62,40.03h2.05v5.04c0,1,.49,1.57,1.46,1.57s1.49-.58,1.49-1.57v-5.04h2.05v5.03c0,2.33-1.63,3.48-3.57,3.48s-3.48-1.15-3.48-3.48v-5.03Zm4.92-3.29v1.6l-2.89,1.21v-1.42l2.89-1.39Z"/><path class="e" d="M190.68,44.24c0,2.49-1.73,4.21-4.41,4.21h-3.15v-8.42h3.15c2.69,0,4.41,1.7,4.41,4.21Zm-4.54,2.43c1.55,0,2.46-.89,2.46-2.43s-.91-2.46-2.46-2.46h-.97v4.89h.97Z"/><path class="e" d="M196.99,41.67h-3.11v1.7h2.75v1.58h-2.75v1.85h3.11v1.64h-5.16v-8.42h5.16v1.64Z"/><path class="e" d="M204.19,45.43h-1.27v3.02h-2.05v-8.42h3.32c2.06,0,3.09,1.16,3.09,2.71,0,1.39-.95,2.69-3.09,2.69Zm-.16-1.63c.82,0,1.16-.41,1.16-1.06s-.35-1.06-1.16-1.06h-1.12v2.11h1.12Z"/><path class="e" d="M208.32,40.03h2.05v5.04c0,1,.49,1.57,1.46,1.57s1.49-.58,1.49-1.57v-5.04h2.05v5.03c0,2.33-1.63,3.48-3.57,3.48s-3.48-1.15-3.48-3.48v-5.03Zm4.92-3.29v1.6l-2.89,1.21v-1.42l2.89-1.39Z"/><path class="e" d="M220.74,48.45h-3.92v-8.42h3.79c1.71,0,2.73,.85,2.73,2.18,0,1.02-.61,1.68-1.43,1.92,.98,.2,1.62,1.07,1.62,2.03,0,1.39-1.02,2.29-2.79,2.29Zm-.53-6.78h-1.34v1.76h1.34c.67,0,1.04-.3,1.04-.88s-.37-.89-1.04-.89Zm.14,3.26h-1.49v1.86h1.51c.68,0,1.08-.31,1.08-.91s-.42-.95-1.1-.95Z"/><path class="e" d="M226.78,40.03v6.84h2.69v1.58h-4.74v-8.42h2.05Z"/><path class="e" d="M230.45,40.03h2.05v8.42h-2.05v-8.42Z"/><path class="e" d="M237.88,39.93c2,0,3.51,1.13,3.99,2.95h-2.25c-.35-.72-.98-1.08-1.76-1.08-1.26,0-2.12,.94-2.12,2.42s.86,2.42,2.12,2.42c.78,0,1.42-.36,1.76-1.08h2.25c-.48,1.82-1.99,2.94-3.99,2.94-2.48,0-4.23-1.76-4.23-4.28s1.75-4.29,4.23-4.29Z"/><path class="e" d="M248.38,46.96h-3.14l-.5,1.49h-2.15l3.05-8.42h2.37l3.05,8.42h-2.17l-.5-1.49Zm-1.57-4.67l-1.03,3.08h2.08l-1.04-3.08Z"/><path class="e" d="M113.97,65.36c-1.55-1.49-2.46-3.97-2.46-6.68s.91-5.25,2.58-6.78h2.01v.19c-1.71,1.69-2.63,4.17-2.63,6.58s.91,4.82,2.52,6.49v.19h-2.03Z"/><path class="e" d="M119.98,62.93c-1.81,0-3.23-.9-3.29-2.6h2.18c.06,.65,.47,.96,1.04,.96s.98-.3,.98-.79c0-1.56-4.21-.72-4.19-3.71,0-1.6,1.31-2.48,3.07-2.48s3.07,.91,3.15,2.52h-2.22c-.04-.54-.42-.86-.97-.88-.49-.01-.86,.24-.86,.77,0,1.46,4.16,.8,4.16,3.62,0,1.42-1.1,2.59-3.07,2.59Z"/><path class="e" d="M124.12,54.36c0-.62,.49-1.12,1.22-1.12s1.21,.49,1.21,1.12-.49,1.1-1.21,1.1-1.22-.49-1.22-1.1Zm.19,1.8h2.05v6.69h-2.05v-6.69Z"/><path class="e" d="M128.18,57.86h-.82v-1.7h.82v-1.63h2.05v1.63h1.34v1.7h-1.34v2.69c0,.4,.17,.56,.62,.56h.73v1.74h-1.04c-1.39,0-2.36-.59-2.36-2.33v-2.66Z"/><path class="e" d="M139.33,62.85h-2.05v-.91c-.41,.58-1.13,.98-2.03,.98-1.55,0-2.59-1.07-2.59-2.85v-3.91h2.04v3.63c0,.91,.52,1.42,1.28,1.42s1.3-.5,1.3-1.42v-3.63h2.05v6.69Z"/><path class="e" d="M143.36,56.06c1,0,1.7,.46,2.06,1.04v-.95h2.05v6.69h-2.05v-.95c-.37,.59-1.08,1.04-2.07,1.04-1.63,0-2.94-1.34-2.94-3.45s1.31-3.43,2.95-3.43Zm.6,1.79c-.77,0-1.46,.58-1.46,1.64s.7,1.67,1.46,1.67,1.46-.59,1.46-1.66-.68-1.66-1.46-1.66Z"/><path class="e" d="M151.91,56.06c1.68,0,2.87,.92,3.21,2.52h-2.18c-.17-.47-.5-.77-1.07-.77-.73,0-1.24,.58-1.24,1.69s.5,1.69,1.24,1.69c.56,0,.89-.28,1.07-.77h2.18c-.3,1.36-1.26,2.27-2.61,2.47v.44c.72,0,1.56,.37,1.56,1.37s-.84,1.39-1.67,1.39h-1.85v-1.13h1.57c.3,0,.48-.07,.48-.31s-.18-.3-.48-.3h-.85v-1.46c-1.62-.25-2.72-1.51-2.72-3.39,0-2.11,1.39-3.44,3.36-3.44Z"/><path class="e" d="M158.76,56.06c1,0,1.7,.46,2.06,1.04v-.95h2.05v6.69h-2.05v-.95c-.37,.59-1.08,1.04-2.07,1.04-1.63,0-2.94-1.34-2.94-3.45s1.31-3.43,2.95-3.43Zm.08-2.24c.72,0,1.09,.54,1.57,.54,.28,0,.47-.17,.52-.54h1.06c-.2,1.26-.82,1.78-1.65,1.78-.72,0-1.09-.54-1.57-.54-.28,0-.47,.17-.53,.54h-1.04c.2-1.26,.8-1.78,1.66-1.78Zm.52,4.03c-.77,0-1.46,.58-1.46,1.64s.7,1.67,1.46,1.67,1.46-.59,1.46-1.66-.68-1.66-1.46-1.66Z"/><path class="e" d="M167.42,62.94c-1.97,0-3.45-1.32-3.45-3.44s1.52-3.44,3.48-3.44,3.48,1.32,3.48,3.44-1.54,3.44-3.5,3.44Zm0-1.77c.73,0,1.42-.54,1.42-1.67s-.67-1.67-1.39-1.67-1.39,.53-1.39,1.67,.62,1.67,1.37,1.67Z"/><path class="e" d="M176.61,62.85h-2.05v-6.69h2.05v1.12c.47-.71,1.2-1.19,2.1-1.19v2.17h-.56c-.97,0-1.54,.34-1.54,1.49v3.11Z"/><path class="e" d="M182.67,62.94c-1.97,0-3.38-1.32-3.38-3.44s1.39-3.44,3.38-3.44,3.33,1.29,3.33,3.33c0,.19-.01,.4-.04,.6h-4.64c.07,.88,.61,1.28,1.27,1.28,.58,0,.9-.29,1.07-.65h2.18c-.32,1.31-1.51,2.31-3.18,2.31Zm-1.33-4.09h2.57c0-.73-.58-1.15-1.26-1.15s-1.19,.41-1.31,1.15Z"/><path class="e" d="M189.63,56.06c1,0,1.7,.46,2.06,1.04v-.95h2.05v6.69h-2.05v-.95c-.37,.59-1.08,1.04-2.07,1.04-1.63,0-2.94-1.34-2.94-3.45s1.31-3.43,2.95-3.43Zm.6,1.79c-.77,0-1.46,.58-1.46,1.64s.7,1.67,1.46,1.67,1.46-.59,1.46-1.66-.68-1.66-1.46-1.66Z"/><path class="e" d="M195.23,53.97h2.05v8.88h-2.05v-8.88Z"/><path class="e" d="M198.22,65.36v-.19c1.61-1.67,2.52-4.05,2.52-6.49s-.91-4.89-2.63-6.58v-.19h2.01c1.67,1.52,2.58,4.07,2.58,6.78s-.91,5.19-2.46,6.68h-2.03Z"/></g><g><rect class="h" x="322.19" y="16.9" width="209.04" height="73.06"/><g><path class="e" d="M341.77,24.57c1.66,0,2.45,.92,2.45,2.08,0,.9-.5,1.76-1.68,2.03l1.77,2.96h-1.1l-1.68-2.89h-1.12v2.89h-.92v-7.06h2.28Zm0,.76h-1.36v2.67h1.36c1.04,0,1.5-.57,1.5-1.36s-.45-1.32-1.5-1.32Z"/><path class="e" d="M348.05,31.73c-1.58,0-2.75-1.11-2.75-2.88s1.12-2.86,2.75-2.86,2.66,1.13,2.66,2.65c0,.2,0,.36-.03,.56h-4.44c.07,1.12,.86,1.74,1.8,1.74,.83,0,1.36-.43,1.56-1.02h.99c-.28,1.01-1.18,1.8-2.55,1.8Zm-1.79-3.27h3.5c.01-1.08-.8-1.68-1.75-1.68-.9,0-1.65,.6-1.75,1.68Z"/><path class="e" d="M354.22,25.99c1.03,0,1.74,.53,2.07,1.1v-1.01h.93v5.55h-.93v-1.03c-.33,.6-1.05,1.12-2.08,1.12-1.48,0-2.62-1.17-2.62-2.89s1.15-2.85,2.63-2.85Zm.18,.8c-1.01,0-1.88,.74-1.88,2.05s.86,2.08,1.88,2.08,1.88-.76,1.88-2.07-.87-2.06-1.88-2.06Z"/><path class="e" d="M358.77,24.14h.92v7.5h-.92v-7.5Z"/><path class="e" d="M361.11,24.55c0-.35,.27-.63,.63-.63,.33,0,.61,.27,.61,.63s-.27,.63-.61,.63c-.35,0-.63-.27-.63-.63Zm.15,1.53h.92v5.55h-.92v-5.55Z"/><path class="e" d="M366.06,25.99c.87,0,1.67,.45,2.06,1.08v-2.94h.93v7.5h-.93v-1.04c-.33,.62-1.05,1.13-2.07,1.13-1.49,0-2.63-1.17-2.63-2.89s1.15-2.85,2.64-2.85Zm.17,.8c-1.01,0-1.88,.74-1.88,2.05s.86,2.08,1.88,2.08,1.88-.76,1.88-2.07-.87-2.06-1.88-2.06Z"/><path class="e" d="M372.89,25.99c1.03,0,1.74,.53,2.07,1.1v-1.01h.93v5.55h-.93v-1.03c-.33,.6-1.05,1.12-2.08,1.12-1.48,0-2.62-1.17-2.62-2.89s1.15-2.85,2.63-2.85Zm.18,.8c-1.01,0-1.88,.74-1.88,2.05s.86,2.08,1.88,2.08,1.88-.76,1.88-2.07-.87-2.06-1.88-2.06Z"/><path class="e" d="M379.75,25.99c.87,0,1.67,.45,2.06,1.08v-2.94h.93v7.5h-.93v-1.04c-.33,.62-1.05,1.13-2.07,1.13-1.49,0-2.63-1.17-2.63-2.89s1.15-2.85,2.64-2.85Zm.17,.8c-1.01,0-1.88,.74-1.88,2.05s.86,2.08,1.88,2.08,1.88-.76,1.88-2.07-.87-2.06-1.88-2.06Z"/><path class="e" d="M386.69,31.73c-1.58,0-2.75-1.11-2.75-2.88s1.12-2.86,2.75-2.86,2.67,1.13,2.67,2.65c0,.2-.01,.36-.03,.56h-4.44c.07,1.12,.86,1.74,1.8,1.74,.83,0,1.36-.43,1.56-1.02h.99c-.29,1.01-1.18,1.8-2.55,1.8Zm-1.79-3.27h3.51c0-1.08-.8-1.68-1.75-1.68-.9,0-1.65,.6-1.75,1.68Z"/><path class="e" d="M393.12,24.55c0-.35,.27-.63,.63-.63,.33,0,.61,.27,.61,.63s-.27,.63-.61,.63c-.35,0-.63-.27-.63-.63Zm.15,1.53h.92v5.55h-.92v-5.55Z"/><path class="e" d="M399.83,28.5c0-1.13-.62-1.71-1.55-1.71s-1.59,.59-1.59,1.78v3.07h-.92v-5.55h.92v.79c.37-.58,1.03-.89,1.78-.89,1.29,0,2.27,.79,2.27,2.38v3.27h-.91v-3.14Z"/><path class="e" d="M404.21,31.73c-1.3,0-2.21-.71-2.27-1.72h.95c.05,.54,.53,.94,1.31,.94,.73,0,1.13-.36,1.13-.82,0-1.24-3.28-.52-3.28-2.58,0-.85,.8-1.55,2.04-1.55s2.04,.66,2.1,1.74h-.92c-.04-.56-.46-.96-1.21-.96-.68,0-1.08,.32-1.08,.77,0,1.32,3.22,.6,3.26,2.58,0,.91-.8,1.6-2.03,1.6Z"/><path class="e" d="M409.82,25.99c1.03,0,1.74,.53,2.07,1.1v-1.01h.93v5.55h-.93v-1.03c-.33,.6-1.05,1.12-2.08,1.12-1.48,0-2.62-1.17-2.62-2.89s1.15-2.85,2.63-2.85Zm.18,.8c-1.01,0-1.88,.74-1.88,2.05s.86,2.08,1.88,2.08,1.88-.76,1.88-2.07-.87-2.06-1.88-2.06Z"/><path class="e" d="M414.58,26.84h-.72v-.76h.72v-1.4h.92v1.4h1.45v.76h-1.45v3.27c0,.55,.2,.74,.77,.74h.68v.78h-.83c-.98,0-1.54-.41-1.54-1.52v-3.27Z"/><path class="e" d="M417.91,24.55c0-.35,.27-.63,.63-.63,.33,0,.61,.27,.61,.63s-.27,.63-.61,.63c-.35,0-.63-.27-.63-.63Zm.15,1.53h.92v5.55h-.92v-5.55Z"/><path class="e" d="M422.52,31.73c-1.3,0-2.21-.71-2.27-1.72h.95c.05,.54,.53,.94,1.31,.94,.73,0,1.13-.36,1.13-.82,0-1.24-3.28-.52-3.28-2.58,0-.85,.8-1.55,2.04-1.55s2.04,.66,2.1,1.74h-.92c-.04-.56-.47-.96-1.21-.96-.68,0-1.08,.32-1.08,.77,0,1.32,3.22,.6,3.26,2.58,0,.91-.8,1.6-2.03,1.6Z"/><path class="e" d="M426.01,26.84h-.72v-.76h.72v-.4c0-1.24,.61-1.79,2.03-1.79v.77c-.83,0-1.1,.3-1.1,1.02v.4h1.17v.76h-1.17v4.79h-.92v-4.79Z"/><path class="e" d="M431.46,25.99c1.03,0,1.74,.53,2.07,1.1v-1.01h.93v5.55h-.93v-1.03c-.33,.6-1.05,1.12-2.08,1.12-1.48,0-2.62-1.17-2.62-2.89s1.15-2.85,2.63-2.85Zm.18,.8c-1.01,0-1.88,.74-1.88,2.05s.86,2.08,1.88,2.08,1.88-.76,1.88-2.07-.87-2.06-1.88-2.06Z"/><path class="e" d="M436.22,26.84h-.72v-.76h.72v-1.4h.92v1.4h1.45v.76h-1.45v3.27c0,.55,.2,.74,.77,.74h.68v.78h-.83c-.98,0-1.54-.41-1.54-1.52v-3.27Z"/><path class="e" d="M442.13,31.73c-1.57,0-2.77-1.11-2.77-2.88s1.24-2.86,2.81-2.86,2.81,1.1,2.81,2.86-1.27,2.88-2.85,2.88Zm0-.81c.96,0,1.9-.66,1.9-2.07s-.92-2.06-1.87-2.06-1.85,.66-1.85,2.06,.86,2.07,1.82,2.07Zm1.03-7.27v.8l-2.16,1.15v-.69l2.16-1.27Z"/><path class="e" d="M447.11,31.64h-.92v-5.55h.92v.9c.31-.62,.91-1,1.79-1v.95h-.24c-.88,0-1.55,.4-1.55,1.68v3.02Z"/><path class="e" d="M449.81,24.55c0-.35,.27-.63,.63-.63,.33,0,.61,.27,.61,.63s-.27,.63-.61,.63c-.35,0-.63-.27-.63-.63Zm.15,1.53h.92v5.55h-.92v-5.55Z"/><path class="e" d="M454.74,25.99c1.03,0,1.74,.53,2.07,1.1v-1.01h.93v5.55h-.93v-1.03c-.33,.6-1.05,1.12-2.08,1.12-1.48,0-2.62-1.17-2.62-2.89s1.15-2.85,2.63-2.85Zm.18,.8c-1.01,0-1.87,.74-1.87,2.05s.86,2.08,1.87,2.08,1.88-.76,1.88-2.07-.87-2.06-1.88-2.06Z"/><path class="e" d="M464.3,25.99c.87,0,1.67,.45,2.06,1.08v-2.94h.93v7.5h-.93v-1.04c-.33,.62-1.05,1.13-2.07,1.13-1.49,0-2.63-1.17-2.63-2.89s1.15-2.85,2.64-2.85Zm.17,.8c-1.01,0-1.88,.74-1.88,2.05s.86,2.08,1.88,2.08,1.88-.76,1.88-2.07-.87-2.06-1.88-2.06Z"/><path class="e" d="M471.25,31.73c-1.58,0-2.75-1.11-2.75-2.88s1.12-2.86,2.75-2.86,2.67,1.13,2.67,2.65c0,.2-.01,.36-.03,.56h-4.44c.07,1.12,.86,1.74,1.8,1.74,.83,0,1.36-.43,1.56-1.02h.99c-.29,1.01-1.18,1.8-2.55,1.8Zm-1.79-3.27h3.51c0-1.08-.8-1.68-1.75-1.68-.9,0-1.65,.6-1.75,1.68Z"/><path class="e" d="M479.8,31.73c-1.3,0-2.21-.71-2.27-1.72h.95c.05,.54,.53,.94,1.31,.94,.73,0,1.13-.36,1.13-.82,0-1.24-3.28-.52-3.28-2.58,0-.85,.8-1.55,2.04-1.55s2.04,.66,2.1,1.74h-.92c-.04-.56-.47-.96-1.21-.96-.68,0-1.08,.32-1.08,.77,0,1.32,3.22,.6,3.26,2.58,0,.91-.8,1.6-2.03,1.6Z"/><path class="e" d="M485.41,25.99c1.03,0,1.74,.53,2.07,1.1v-1.01h.93v5.55h-.93v-1.03c-.33,.6-1.05,1.12-2.08,1.12-1.48,0-2.62-1.17-2.62-2.89s1.14-2.85,2.63-2.85Zm.18,.8c-1.01,0-1.88,.74-1.88,2.05s.86,2.08,1.88,2.08,1.88-.76,1.88-2.07-.87-2.06-1.88-2.06Z"/><path class="e" d="M494.89,31.64h-.92v-.82c-.35,.58-1.03,.9-1.77,.9-1.28,0-2.28-.79-2.28-2.38v-3.25h.91v3.13c0,1.12,.62,1.7,1.55,1.7s1.59-.59,1.59-1.78v-3.05h.92v5.55Zm-1.47-7.92v.8l-2.16,1.15v-.69l2.16-1.27Z"/><path class="e" d="M498.74,25.99c.87,0,1.67,.45,2.06,1.08v-2.94h.93v7.5h-.93v-1.04c-.33,.62-1.05,1.13-2.07,1.13-1.49,0-2.63-1.17-2.63-2.89s1.14-2.85,2.64-2.85Zm.17,.8c-1.01,0-1.87,.74-1.87,2.05s.86,2.08,1.87,2.08,1.88-.76,1.88-2.07-.87-2.06-1.88-2.06Z"/><path class="e" d="M505.69,31.73c-1.58,0-2.75-1.11-2.75-2.88s1.12-2.86,2.75-2.86,2.66,1.13,2.66,2.65c0,.2,0,.36-.03,.56h-4.44c.07,1.12,.86,1.74,1.8,1.74,.83,0,1.36-.43,1.56-1.02h.99c-.28,1.01-1.18,1.8-2.55,1.8Zm-1.79-3.27h3.5c.01-1.08-.8-1.68-1.75-1.68-.9,0-1.65,.6-1.75,1.68Z"/><path class="e" d="M341.79,38.14c1.01,0,1.74,.53,2.06,1.1v-1.01h.93v8.19h-.93v-3.66c-.31,.57-1.05,1.11-2.09,1.11-1.47,0-2.61-1.17-2.61-2.89s1.14-2.85,2.64-2.85Zm.17,.8c-1.01,0-1.88,.74-1.88,2.05s.86,2.08,1.88,2.08,1.88-.76,1.88-2.07-.87-2.06-1.88-2.06Z"/><path class="e" d="M351.26,43.79h-.92v-.82c-.35,.58-1.03,.9-1.77,.9-1.28,0-2.28-.79-2.28-2.38v-3.25h.91v3.13c0,1.12,.62,1.7,1.55,1.7s1.59-.59,1.59-1.78v-3.05h.92v5.55Z"/><path class="e" d="M355.22,43.88c-1.58,0-2.75-1.11-2.75-2.88s1.12-2.86,2.75-2.86,2.66,1.13,2.66,2.65c0,.2,0,.36-.03,.56h-4.44c.07,1.12,.86,1.74,1.8,1.74,.83,0,1.36-.43,1.56-1.02h.99c-.28,1.01-1.18,1.8-2.55,1.8Zm-1.79-3.27h3.5c.01-1.08-.8-1.68-1.75-1.68-.9,0-1.65,.6-1.75,1.68Z"/><path class="e" d="M364.8,38.14c1.49,0,2.63,1.11,2.63,2.85s-1.15,2.89-2.63,2.89c-1.01,0-1.73-.55-2.08-1.11v3.66h-.92v-8.19h.92v1.02c.33-.59,1.06-1.11,2.08-1.11Zm-.19,.8c-1,0-1.88,.77-1.88,2.06s.88,2.07,1.88,2.07,1.88-.77,1.88-2.08-.86-2.05-1.88-2.05Z"/><path class="e" d="M371.07,43.88c-1.57,0-2.77-1.11-2.77-2.88s1.24-2.86,2.81-2.86,2.81,1.1,2.81,2.86-1.27,2.88-2.85,2.88Zm0-.81c.96,0,1.9-.66,1.9-2.07s-.92-2.06-1.87-2.06-1.85,.66-1.85,2.06,.86,2.07,1.82,2.07Z"/><path class="e" d="M377.43,38.14c.87,0,1.67,.45,2.06,1.08v-2.94h.93v7.5h-.93v-1.04c-.33,.62-1.05,1.13-2.07,1.13-1.49,0-2.63-1.17-2.63-2.89s1.14-2.85,2.64-2.85Zm.17,.8c-1.01,0-1.87,.74-1.87,2.05s.86,2.08,1.87,2.08,1.88-.76,1.88-2.07-.87-2.06-1.88-2.06Z"/><path class="e" d="M384.38,43.88c-1.58,0-2.75-1.11-2.75-2.88s1.12-2.86,2.75-2.86,2.66,1.13,2.66,2.65c0,.2,0,.36-.03,.56h-4.44c.07,1.12,.86,1.74,1.8,1.74,.83,0,1.36-.43,1.56-1.02h.99c-.28,1.01-1.18,1.8-2.55,1.8Zm-1.79-3.27h3.5c.01-1.08-.8-1.68-1.75-1.68-.9,0-1.65,.6-1.75,1.68Z"/><path class="e" d="M392.92,43.88c-1.3,0-2.21-.71-2.27-1.72h.95c.05,.54,.53,.94,1.31,.94,.73,0,1.13-.36,1.13-.82,0-1.24-3.28-.52-3.28-2.58,0-.85,.8-1.55,2.04-1.55s2.04,.66,2.1,1.74h-.92c-.04-.56-.47-.96-1.21-.96-.68,0-1.08,.32-1.08,.77,0,1.32,3.22,.6,3.26,2.58,0,.91-.8,1.6-2.03,1.6Z"/><path class="e" d="M398.64,43.88c-1.58,0-2.75-1.11-2.75-2.88s1.12-2.86,2.75-2.86,2.67,1.13,2.67,2.65c0,.2-.01,.36-.03,.56h-4.44c.07,1.12,.86,1.74,1.8,1.74,.83,0,1.36-.43,1.56-1.02h.99c-.28,1.01-1.17,1.8-2.55,1.8Zm-1.79-3.27h3.51c0-1.08-.8-1.68-1.75-1.68-.9,0-1.65,.6-1.75,1.68Z"/><path class="e" d="M403.44,43.79h-.92v-5.55h.92v.9c.31-.62,.91-1,1.79-1v.95h-.24c-.88,0-1.55,.4-1.55,1.68v3.02Z"/><path class="e" d="M410.97,43.88c-1.3,0-2.21-.71-2.27-1.72h.95c.05,.54,.53,.94,1.31,.94,.73,0,1.13-.36,1.13-.82,0-1.24-3.28-.52-3.28-2.58,0-.85,.8-1.55,2.04-1.55s2.04,.66,2.1,1.74h-.92c-.04-.56-.47-.96-1.21-.96-.68,0-1.08,.32-1.08,.77,0,1.32,3.22,.6,3.26,2.58,0,.91-.8,1.6-2.03,1.6Z"/><path class="e" d="M419.21,43.79h-.92v-.82c-.36,.58-1.03,.9-1.77,.9-1.28,0-2.28-.79-2.28-2.38v-3.25h.91v3.13c0,1.12,.62,1.7,1.55,1.7s1.59-.59,1.59-1.78v-3.05h.92v5.55Z"/><path class="e" d="M423.77,38.14c1.49,0,2.63,1.11,2.63,2.85s-1.14,2.89-2.63,2.89c-1.01,0-1.73-.55-2.08-1.11v3.66h-.92v-8.19h.92v1.02c.33-.59,1.06-1.11,2.08-1.11Zm-.19,.8c-1,0-1.88,.77-1.88,2.06s.88,2.07,1.88,2.07,1.88-.77,1.88-2.08-.86-2.05-1.88-2.05Z"/><path class="e" d="M430.01,43.88c-1.58,0-2.75-1.11-2.75-2.88s1.12-2.86,2.75-2.86,2.67,1.13,2.67,2.65c0,.2-.01,.36-.03,.56h-4.44c.07,1.12,.86,1.74,1.8,1.74,.83,0,1.36-.43,1.56-1.02h.99c-.29,1.01-1.18,1.8-2.55,1.8Zm-1.79-3.27h3.51c0-1.08-.8-1.68-1.75-1.68-.9,0-1.65,.6-1.75,1.68Z"/><path class="e" d="M434.81,43.79h-.92v-5.55h.92v.9c.31-.62,.91-1,1.79-1v.95h-.24c-.88,0-1.55,.4-1.55,1.68v3.02Z"/><path class="e" d="M439.96,38.14c1.03,0,1.74,.53,2.07,1.1v-1.01h.93v5.55h-.93v-1.03c-.33,.6-1.05,1.12-2.08,1.12-1.48,0-2.62-1.17-2.62-2.89s1.14-2.85,2.63-2.85Zm.18,.8c-1.01,0-1.88,.74-1.88,2.05s.86,2.08,1.88,2.08,1.88-.76,1.88-2.07-.87-2.06-1.88-2.06Z"/><path class="e" d="M446.81,38.14c.87,0,1.67,.45,2.06,1.08v-2.94h.93v7.5h-.93v-1.04c-.33,.62-1.05,1.13-2.07,1.13-1.49,0-2.63-1.17-2.63-2.89s1.14-2.85,2.64-2.85Zm.17,.8c-1.01,0-1.88,.74-1.88,2.05s.86,2.08,1.88,2.08,1.88-.76,1.88-2.07-.87-2.06-1.88-2.06Z"/><path class="e" d="M453.65,38.14c1.03,0,1.74,.53,2.07,1.1v-1.01h.93v5.55h-.93v-1.03c-.33,.6-1.05,1.12-2.08,1.12-1.48,0-2.62-1.17-2.62-2.89s1.14-2.85,2.63-2.85Zm.18,.8c-1.01,0-1.88,.74-1.88,2.05s.86,2.08,1.88,2.08,1.88-.76,1.88-2.07-.87-2.06-1.88-2.06Z"/><path class="e" d="M463.91,38.14c1.49,0,2.63,1.11,2.63,2.85s-1.15,2.89-2.63,2.89c-1.01,0-1.73-.55-2.08-1.11v3.66h-.92v-8.19h.92v1.02c.33-.59,1.06-1.11,2.08-1.11Zm-.19,.8c-1,0-1.88,.77-1.88,2.06s.88,2.07,1.88,2.07,1.88-.77,1.88-2.08-.86-2.05-1.88-2.05Z"/><path class="e" d="M470.18,43.88c-1.57,0-2.77-1.11-2.77-2.88s1.24-2.86,2.81-2.86,2.81,1.1,2.81,2.86-1.27,2.88-2.85,2.88Zm0-.81c.96,0,1.91-.66,1.91-2.07s-.92-2.06-1.87-2.06-1.85,.66-1.85,2.06,.86,2.07,1.82,2.07Z"/><path class="e" d="M475.16,43.79h-.92v-5.55h.92v.9c.31-.62,.91-1,1.79-1v.95h-.24c-.88,0-1.55,.4-1.55,1.68v3.02Z"/><path class="e" d="M488.73,40.65c0-1.13-.61-1.71-1.52-1.71s-1.57,.6-1.57,1.79v3.06h-.91v-3.14c0-1.13-.61-1.71-1.52-1.71s-1.57,.6-1.57,1.79v3.06h-.92v-5.55h.92v.8c.36-.59,1.02-.9,1.75-.9,.91,0,1.67,.41,2.04,1.24,.32-.8,1.11-1.24,1.96-1.24,1.27,0,2.25,.79,2.25,2.38v3.27h-.91v-3.14Z"/><path class="e" d="M493.55,43.88c-1.58,0-2.75-1.11-2.75-2.88s1.12-2.86,2.75-2.86,2.67,1.13,2.67,2.65c0,.2-.01,.36-.03,.56h-4.44c.07,1.12,.86,1.74,1.8,1.74,.83,0,1.36-.43,1.56-1.02h.99c-.29,1.01-1.18,1.8-2.55,1.8Zm-1.79-3.27h3.51c0-1.08-.8-1.68-1.75-1.68-.9,0-1.65,.6-1.75,1.68Z"/><path class="e" d="M497.27,36.71c0-.35,.27-.63,.63-.63,.33,0,.61,.27,.61,.63s-.27,.63-.61,.63c-.35,0-.63-.27-.63-.63Zm.15,1.53h.92v5.55h-.92v-5.55Z"/><path class="e" d="M502.34,43.88c-1.57,0-2.77-1.11-2.77-2.88s1.24-2.86,2.81-2.86,2.81,1.1,2.81,2.86-1.27,2.88-2.85,2.88Zm0-.81c.96,0,1.9-.66,1.9-2.07s-.92-2.06-1.88-2.06-1.85,.66-1.85,2.06,.86,2.07,1.82,2.07Z"/><path class="e" d="M341.79,50.3c.87,0,1.67,.45,2.06,1.08v-2.94h.93v7.5h-.93v-1.04c-.33,.62-1.05,1.13-2.07,1.13-1.49,0-2.63-1.17-2.63-2.89s1.14-2.85,2.64-2.85Zm.17,.8c-1.01,0-1.88,.74-1.88,2.05s.86,2.08,1.88,2.08,1.88-.76,1.88-2.07-.87-2.06-1.88-2.06Z"/><path class="e" d="M348.63,50.3c1.03,0,1.74,.53,2.07,1.1v-1.01h.93v5.55h-.93v-1.03c-.33,.6-1.05,1.12-2.08,1.12-1.48,0-2.62-1.17-2.62-2.89s1.14-2.85,2.63-2.85Zm.18,.8c-1.01,0-1.88,.74-1.88,2.05s.86,2.08,1.88,2.08,1.88-.76,1.88-2.07-.87-2.06-1.88-2.06Z"/><path class="e" d="M363.9,52.8c0-1.13-.61-1.71-1.52-1.71s-1.57,.6-1.57,1.79v3.06h-.91v-3.14c0-1.13-.61-1.71-1.52-1.71s-1.57,.6-1.57,1.79v3.06h-.92v-5.55h.92v.8c.36-.59,1.02-.9,1.75-.9,.91,0,1.67,.41,2.04,1.24,.32-.8,1.11-1.24,1.96-1.24,1.27,0,2.25,.79,2.25,2.38v3.27h-.91v-3.14Z"/><path class="e" d="M368.74,56.03c-1.57,0-2.77-1.11-2.77-2.88s1.24-2.86,2.81-2.86,2.81,1.1,2.81,2.86-1.27,2.88-2.85,2.88Zm0-.81c.96,0,1.91-.66,1.91-2.07s-.92-2.06-1.88-2.06-1.85,.66-1.85,2.06,.86,2.07,1.82,2.07Z"/><path class="e" d="M375.8,50.3c1.5,0,2.63,1.11,2.63,2.85s-1.14,2.89-2.63,2.89c-1.01,0-1.73-.51-2.08-1.11v1.02h-.92v-7.5h.92v2.98c.35-.62,1.09-1.12,2.08-1.12Zm-.19,.8c-1,0-1.88,.77-1.88,2.06s.88,2.07,1.88,2.07,1.88-.77,1.88-2.08-.86-2.05-1.88-2.05Z"/><path class="e" d="M379.49,48.86c0-.35,.27-.63,.63-.63,.33,0,.61,.27,.61,.63s-.27,.63-.61,.63c-.36,0-.63-.27-.63-.63Zm.15,1.53h.92v5.55h-.92v-5.55Z"/><path class="e" d="M382.14,48.44h.92v7.5h-.92v-7.5Z"/><path class="e" d="M384.47,48.86c0-.35,.27-.63,.63-.63,.33,0,.61,.27,.61,.63s-.27,.63-.61,.63c-.36,0-.63-.27-.63-.63Zm.15,1.53h.92v5.55h-.92v-5.55Z"/><path class="e" d="M390.51,51.14l-2.71,4.04h2.73v.76h-3.78v-.76l2.69-4.04h-2.67v-.75h3.74v.75Z"/><path class="e" d="M394.02,50.3c1.03,0,1.74,.53,2.07,1.1v-1.01h.93v5.55h-.93v-1.03c-.33,.6-1.05,1.12-2.08,1.12-1.48,0-2.62-1.17-2.62-2.89s1.14-2.85,2.63-2.85Zm.18,.8c-1.01,0-1.87,.74-1.87,2.05s.86,2.08,1.87,2.08,1.88-.76,1.88-2.07-.87-2.06-1.88-2.06Z"/><path class="e" d="M400.93,50.3c1.38,0,2.28,.71,2.56,1.87h-.99c-.19-.67-.75-1.09-1.57-1.09-1.01,0-1.76,.72-1.76,2.08s.75,2.1,1.76,2.1c.82,0,1.37-.4,1.57-1.09h.99c-.26,1.02-1.06,1.76-2.28,1.86v.51c.78-.01,1.31,.33,1.31,1s-.52,1.04-1.24,1.04h-1.17v-.6h.98c.44,0,.65-.12,.65-.45s-.21-.44-.65-.44h-.51v-1.08c-1.4-.14-2.37-1.23-2.37-2.86,0-1.74,1.12-2.86,2.71-2.86Z"/><path class="e" d="M407.01,50.3c1.03,0,1.74,.53,2.07,1.1v-1.01h.93v5.55h-.93v-1.03c-.33,.6-1.05,1.12-2.08,1.12-1.48,0-2.62-1.17-2.62-2.89s1.15-2.85,2.63-2.85Zm.18,.8c-1.01,0-1.87,.74-1.87,2.05s.86,2.08,1.87,2.08,1.88-.76,1.88-2.07-.87-2.06-1.88-2.06Zm-.29-2.37c.54,0,.74,.47,1.15,.47,.22,0,.41-.14,.45-.44h.53c-.08,.69-.49,1.05-1.01,1.05s-.75-.47-1.16-.47c-.22,0-.39,.14-.44,.45h-.54c.1-.7,.49-1.06,1.01-1.06Z"/><path class="e" d="M413.99,56.03c-1.57,0-2.77-1.11-2.77-2.88s1.24-2.86,2.81-2.86,2.81,1.1,2.81,2.86-1.27,2.88-2.85,2.88Zm0-.81c.96,0,1.91-.66,1.91-2.07s-.92-2.06-1.88-2.06-1.85,.66-1.85,2.06,.86,2.07,1.82,2.07Z"/><path class="e" d="M423.05,50.3c.87,0,1.67,.45,2.06,1.08v-2.94h.93v7.5h-.93v-1.04c-.33,.62-1.05,1.13-2.07,1.13-1.49,0-2.63-1.17-2.63-2.89s1.14-2.85,2.64-2.85Zm.17,.8c-1.01,0-1.88,.74-1.88,2.05s.86,2.08,1.88,2.08,1.88-.76,1.88-2.07-.87-2.06-1.88-2.06Z"/><path class="e" d="M430,56.03c-1.58,0-2.75-1.11-2.75-2.88s1.12-2.86,2.75-2.86,2.66,1.13,2.66,2.65c0,.2,0,.36-.03,.56h-4.44c.07,1.12,.86,1.74,1.8,1.74,.83,0,1.36-.43,1.56-1.02h.99c-.28,1.01-1.18,1.8-2.55,1.8Zm-1.79-3.27h3.5c.01-1.08-.8-1.68-1.75-1.68-.9,0-1.65,.6-1.75,1.68Z"/><path class="e" d="M437.5,55.94h-.92v-5.55h.92v.9c.31-.62,.91-1,1.79-1v.95h-.24c-.88,0-1.55,.4-1.55,1.68v3.02Z"/><path class="e" d="M442.75,56.03c-1.58,0-2.75-1.11-2.75-2.88s1.12-2.86,2.75-2.86,2.67,1.13,2.67,2.65c0,.2-.01,.36-.03,.56h-4.44c.07,1.12,.86,1.74,1.8,1.74,.83,0,1.36-.43,1.56-1.02h.99c-.28,1.01-1.17,1.8-2.55,1.8Zm-1.79-3.27h3.51c0-1.08-.8-1.68-1.75-1.68-.9,0-1.65,.6-1.75,1.68Z"/><path class="e" d="M448.99,50.3c1.38,0,2.28,.71,2.56,1.87h-.99c-.19-.67-.75-1.09-1.57-1.09-1.01,0-1.76,.72-1.76,2.08s.75,2.1,1.76,2.1c.82,0,1.37-.4,1.57-1.09h.99c-.28,1.1-1.19,1.87-2.56,1.87-1.58,0-2.71-1.11-2.71-2.88s1.12-2.86,2.71-2.86Z"/><path class="e" d="M457.7,55.94h-.92v-.82c-.35,.58-1.03,.9-1.77,.9-1.28,0-2.28-.79-2.28-2.38v-3.25h.91v3.13c0,1.12,.62,1.7,1.55,1.7s1.59-.59,1.59-1.78v-3.05h.92v5.55Z"/><path class="e" d="M460.18,55.94h-.92v-5.55h.92v.9c.31-.62,.91-1,1.79-1v.95h-.24c-.88,0-1.55,.4-1.55,1.68v3.02Z"/><path class="e" d="M465,56.03c-1.3,0-2.21-.71-2.27-1.72h.95c.05,.54,.53,.94,1.31,.94,.73,0,1.13-.36,1.13-.82,0-1.24-3.28-.52-3.28-2.58,0-.85,.8-1.55,2.04-1.55s2.04,.66,2.1,1.74h-.92c-.04-.56-.46-.96-1.21-.96-.68,0-1.08,.32-1.08,.77,0,1.32,3.22,.6,3.26,2.58,0,.91-.8,1.6-2.03,1.6Z"/><path class="e" d="M470.74,56.03c-1.57,0-2.77-1.11-2.77-2.88s1.24-2.86,2.81-2.86,2.81,1.1,2.81,2.86-1.27,2.88-2.85,2.88Zm0-.81c.96,0,1.9-.66,1.9-2.07s-.92-2.06-1.88-2.06-1.85,.66-1.85,2.06,.86,2.07,1.82,2.07Z"/><path class="e" d="M476.77,56.03c-1.3,0-2.21-.71-2.27-1.72h.95c.05,.54,.53,.94,1.31,.94,.73,0,1.13-.36,1.13-.82,0-1.24-3.28-.52-3.28-2.58,0-.85,.8-1.55,2.04-1.55s2.04,.66,2.1,1.74h-.92c-.04-.56-.47-.96-1.21-.96-.68,0-1.08,.32-1.08,.77,0,1.32,3.22,.6,3.26,2.58,0,.91-.8,1.6-2.03,1.6Z"/><path class="e" d="M485.19,56.03c-1.58,0-2.75-1.11-2.75-2.88s1.12-2.86,2.75-2.86,2.67,1.13,2.67,2.65c0,.2-.01,.36-.03,.56h-4.44c.07,1.12,.86,1.74,1.8,1.74,.83,0,1.36-.43,1.56-1.02h.99c-.29,1.01-1.18,1.8-2.55,1.8Zm-1.79-3.27h3.51c0-1.08-.8-1.68-1.75-1.68-.9,0-1.65,.6-1.75,1.68Z"/><path class="e" d="M494.07,50.3c.87,0,1.67,.45,2.06,1.08v-2.94h.93v7.5h-.93v-1.04c-.33,.62-1.05,1.13-2.07,1.13-1.49,0-2.63-1.17-2.63-2.89s1.15-2.85,2.64-2.85Zm.17,.8c-1.01,0-1.87,.74-1.87,2.05s.86,2.08,1.87,2.08,1.88-.76,1.88-2.07-.87-2.06-1.88-2.06Z"/><path class="e" d="M500.91,50.3c1.03,0,1.74,.53,2.07,1.1v-1.01h.93v5.55h-.93v-1.03c-.33,.6-1.05,1.12-2.08,1.12-1.48,0-2.62-1.17-2.62-2.89s1.15-2.85,2.63-2.85Zm.18,.8c-1.01,0-1.87,.74-1.87,2.05s.86,2.08,1.87,2.08,1.88-.76,1.88-2.07-.87-2.06-1.88-2.06Z"/><path class="e" d="M339.34,61.01c0-.35,.27-.63,.63-.63,.33,0,.61,.27,.61,.63s-.27,.63-.61,.63c-.35,0-.63-.27-.63-.63Zm.15,1.53h.92v5.55h-.92v-5.55Z"/><path class="e" d="M350,64.95c0-1.13-.61-1.71-1.52-1.71s-1.57,.6-1.57,1.79v3.06h-.91v-3.14c0-1.13-.61-1.71-1.52-1.71s-1.57,.6-1.57,1.79v3.06h-.92v-5.55h.92v.8c.36-.59,1.02-.9,1.75-.9,.91,0,1.67,.41,2.04,1.24,.32-.8,1.11-1.24,1.96-1.24,1.27,0,2.25,.79,2.25,2.38v3.27h-.91v-3.14Z"/><path class="e" d="M355.41,62.45c1.49,0,2.63,1.11,2.63,2.85s-1.14,2.89-2.63,2.89c-1.01,0-1.73-.55-2.08-1.11v3.66h-.92v-8.19h.92v1.02c.33-.59,1.06-1.11,2.08-1.11Zm-.19,.8c-1,0-1.88,.77-1.88,2.06s.88,2.07,1.88,2.07,1.88-.77,1.88-2.08-.86-2.05-1.88-2.05Z"/><path class="e" d="M359.26,60.59h.92v7.5h-.92v-7.5Z"/><path class="e" d="M364.15,68.18c-1.58,0-2.75-1.11-2.75-2.88s1.12-2.86,2.75-2.86,2.66,1.13,2.66,2.65c0,.2,0,.37-.03,.56h-4.44c.07,1.12,.86,1.74,1.8,1.74,.83,0,1.36-.42,1.56-1.02h.99c-.28,1.01-1.18,1.8-2.55,1.8Zm-1.79-3.27h3.5c.01-1.08-.8-1.68-1.75-1.68-.9,0-1.65,.6-1.75,1.68Z"/><path class="e" d="M376.04,64.95c0-1.13-.61-1.71-1.52-1.71s-1.57,.6-1.57,1.79v3.06h-.91v-3.14c0-1.13-.61-1.71-1.52-1.71s-1.57,.6-1.57,1.79v3.06h-.92v-5.55h.92v.8c.37-.59,1.02-.9,1.75-.9,.91,0,1.67,.41,2.04,1.24,.32-.8,1.12-1.24,1.97-1.24,1.27,0,2.25,.79,2.25,2.38v3.27h-.91v-3.14Z"/><path class="e" d="M380.86,68.18c-1.58,0-2.75-1.11-2.75-2.88s1.12-2.86,2.75-2.86,2.66,1.13,2.66,2.65c0,.2,0,.37-.03,.56h-4.44c.07,1.12,.86,1.74,1.8,1.74,.83,0,1.36-.42,1.56-1.02h.99c-.28,1.01-1.18,1.8-2.55,1.8Zm-1.79-3.27h3.5c.01-1.08-.8-1.68-1.75-1.68-.9,0-1.65,.6-1.75,1.68Z"/><path class="e" d="M388.8,64.95c0-1.13-.62-1.71-1.55-1.71s-1.59,.59-1.59,1.78v3.07h-.92v-5.55h.92v.79c.36-.58,1.03-.89,1.78-.89,1.29,0,2.27,.79,2.27,2.38v3.27h-.91v-3.14Z"/><path class="e" d="M391.42,63.3h-.72v-.76h.72v-1.4h.92v1.4h1.45v.76h-1.45v3.27c0,.55,.2,.74,.77,.74h.68v.78h-.83c-.98,0-1.54-.41-1.54-1.52v-3.27Z"/><path class="e" d="M397.19,62.45c1.03,0,1.74,.53,2.07,1.1v-1.01h.93v5.55h-.93v-1.03c-.33,.6-1.05,1.12-2.08,1.12-1.48,0-2.62-1.17-2.62-2.89s1.14-2.85,2.63-2.85Zm.18,.8c-1.01,0-1.88,.74-1.88,2.05s.86,2.08,1.88,2.08,1.88-.76,1.88-2.07-.87-2.06-1.88-2.06Z"/><path class="e" d="M404.11,62.45c1.38,0,2.28,.71,2.56,1.87h-.99c-.19-.67-.75-1.09-1.57-1.09-1.01,0-1.76,.72-1.76,2.08s.75,2.1,1.76,2.1c.82,0,1.37-.39,1.57-1.09h.99c-.26,1.02-1.06,1.76-2.28,1.86v.51c.78-.01,1.31,.33,1.31,1s-.52,1.04-1.24,1.04h-1.17v-.6h.98c.44,0,.65-.12,.65-.45s-.21-.44-.65-.44h-.51v-1.08c-1.4-.14-2.37-1.23-2.37-2.86,0-1.74,1.12-2.86,2.71-2.86Z"/><path class="e" d="M410.19,62.45c1.03,0,1.74,.53,2.07,1.1v-1.01h.93v5.55h-.93v-1.03c-.33,.6-1.05,1.12-2.08,1.12-1.48,0-2.62-1.17-2.62-2.89s1.14-2.85,2.63-2.85Zm.18,.8c-1.01,0-1.87,.74-1.87,2.05s.86,2.08,1.87,2.08,1.88-.76,1.88-2.07-.87-2.06-1.88-2.06Zm-.29-2.37c.54,0,.74,.47,1.15,.47,.22,0,.41-.14,.45-.44h.53c-.08,.69-.49,1.05-1.01,1.05s-.75-.47-1.15-.47c-.22,0-.39,.14-.44,.45h-.54c.1-.7,.49-1.06,1.01-1.06Z"/><path class="e" d="M417.16,68.18c-1.57,0-2.77-1.11-2.77-2.88s1.24-2.86,2.81-2.86,2.81,1.1,2.81,2.86-1.27,2.88-2.85,2.88Zm0-.81c.96,0,1.91-.66,1.91-2.07s-.92-2.06-1.87-2.06-1.85,.66-1.85,2.06,.86,2.07,1.82,2.07Z"/><path class="e" d="M426.23,62.45c.87,0,1.67,.45,2.06,1.08v-2.94h.93v7.5h-.93v-1.04c-.33,.62-1.05,1.13-2.07,1.13-1.49,0-2.63-1.17-2.63-2.89s1.15-2.85,2.64-2.85Zm.17,.8c-1.01,0-1.88,.74-1.88,2.05s.86,2.08,1.88,2.08,1.88-.76,1.88-2.07-.87-2.06-1.88-2.06Z"/><path class="e" d="M433.17,68.18c-1.58,0-2.75-1.11-2.75-2.88s1.12-2.86,2.75-2.86,2.67,1.13,2.67,2.65c0,.2-.01,.37-.03,.56h-4.44c.07,1.12,.86,1.74,1.8,1.74,.83,0,1.36-.42,1.56-1.02h.99c-.29,1.01-1.18,1.8-2.55,1.8Zm-1.79-3.27h3.51c0-1.08-.8-1.68-1.75-1.68-.9,0-1.65,.6-1.75,1.68Z"/><path class="e" d="M442.04,62.45c1.03,0,1.74,.53,2.07,1.1v-1.01h.93v5.55h-.93v-1.03c-.33,.6-1.05,1.12-2.08,1.12-1.48,0-2.62-1.17-2.62-2.89s1.15-2.85,2.63-2.85Zm.18,.8c-1.01,0-1.87,.74-1.87,2.05s.86,2.08,1.87,2.08,1.88-.76,1.88-2.07-.87-2.06-1.88-2.06Z"/><path class="e" d="M448.96,62.45c1.38,0,2.28,.71,2.56,1.87h-.99c-.19-.67-.75-1.09-1.57-1.09-1.01,0-1.76,.72-1.76,2.08s.75,2.1,1.76,2.1c.82,0,1.37-.39,1.57-1.09h.99c-.26,1.02-1.06,1.76-2.28,1.86v.51c.78-.01,1.31,.33,1.31,1s-.52,1.04-1.24,1.04h-1.17v-.6h.98c.44,0,.65-.12,.65-.45s-.21-.44-.65-.44h-.51v-1.08c-1.4-.14-2.37-1.23-2.37-2.86,0-1.74,1.12-2.86,2.71-2.86Z"/><path class="e" d="M455.17,68.18c-1.57,0-2.77-1.11-2.77-2.88s1.24-2.86,2.81-2.86,2.81,1.1,2.81,2.86-1.27,2.88-2.85,2.88Zm0-.81c.96,0,1.9-.66,1.9-2.07s-.92-2.06-1.88-2.06-1.85,.66-1.85,2.06,.86,2.07,1.82,2.07Zm-.43-6.56c.54,0,.74,.47,1.15,.47,.22,0,.41-.14,.45-.44h.53c-.08,.69-.49,1.05-1.01,1.05s-.75-.47-1.16-.47c-.22,0-.39,.14-.44,.45h-.54c.1-.7,.49-1.06,1.01-1.06Z"/><path class="e" d="M461.63,68.18c-1.58,0-2.75-1.11-2.75-2.88s1.12-2.86,2.75-2.86,2.66,1.13,2.66,2.65c0,.2,0,.37-.03,.56h-4.44c.07,1.12,.86,1.74,1.8,1.74,.83,0,1.36-.42,1.56-1.02h.99c-.28,1.01-1.18,1.8-2.55,1.8Zm-1.79-3.27h3.5c.01-1.08-.8-1.68-1.75-1.68-.9,0-1.65,.6-1.75,1.68Z"/><path class="e" d="M467.47,68.18c-1.3,0-2.21-.71-2.27-1.72h.95c.05,.54,.53,.94,1.31,.94,.73,0,1.13-.36,1.13-.82,0-1.24-3.28-.52-3.28-2.58,0-.85,.8-1.55,2.04-1.55s2.04,.66,2.1,1.74h-.92c-.04-.56-.47-.96-1.21-.96-.68,0-1.08,.32-1.08,.77,0,1.32,3.22,.6,3.26,2.58,0,.91-.8,1.6-2.03,1.6Z"/><path class="e" d="M341.89,80.33c-1.58,0-2.75-1.11-2.75-2.88s1.12-2.86,2.75-2.86,2.66,1.13,2.66,2.65c0,.2,0,.37-.03,.56h-4.44c.07,1.12,.86,1.74,1.8,1.74,.83,0,1.36-.42,1.56-1.02h.99c-.28,1.01-1.18,1.8-2.55,1.8Zm-1.79-3.27h3.5c.01-1.08-.8-1.68-1.75-1.68-.9,0-1.65,.6-1.75,1.68Z"/><path class="e" d="M347.74,80.33c-1.3,0-2.21-.71-2.27-1.72h.95c.05,.54,.53,.94,1.31,.94,.73,0,1.13-.36,1.13-.82,0-1.24-3.28-.52-3.28-2.58,0-.85,.8-1.55,2.04-1.55s2.04,.66,2.1,1.74h-.92c-.04-.56-.47-.96-1.21-.96-.68,0-1.08,.32-1.08,.77,0,1.32,3.22,.6,3.26,2.58,0,.91-.8,1.6-2.03,1.6Z"/><path class="e" d="M351.26,75.45h-.72v-.76h.72v-1.4h.92v1.4h1.45v.76h-1.45v3.27c0,.55,.2,.74,.77,.74h.68v.78h-.83c-.98,0-1.54-.41-1.54-1.52v-3.27Z"/><path class="e" d="M355.67,80.24h-.92v-5.55h.92v.9c.31-.62,.91-1,1.79-1v.95h-.24c-.88,0-1.55,.4-1.55,1.68v3.02Z"/><path class="e" d="M360.81,74.6c1.03,0,1.74,.53,2.07,1.1v-1.01h.93v5.55h-.93v-1.03c-.33,.6-1.05,1.12-2.08,1.12-1.48,0-2.62-1.17-2.62-2.89s1.14-2.85,2.63-2.85Zm.18,.8c-1.01,0-1.88,.74-1.88,2.05s.86,2.08,1.88,2.08,1.88-.76,1.88-2.07-.87-2.06-1.88-2.06Z"/><path class="e" d="M365.57,75.45h-.72v-.76h.72v-1.4h.92v1.4h1.45v.76h-1.45v3.27c0,.55,.2,.74,.77,.74h.68v.78h-.83c-.98,0-1.54-.41-1.54-1.52v-3.27Z"/><path class="e" d="M371.45,80.33c-1.58,0-2.75-1.11-2.75-2.88s1.12-2.86,2.75-2.86,2.66,1.13,2.66,2.65c0,.2,0,.37-.03,.56h-4.44c.07,1.12,.86,1.74,1.8,1.74,.83,0,1.36-.42,1.56-1.02h.99c-.28,1.01-1.18,1.8-2.55,1.8Zm-1.79-3.27h3.5c.01-1.08-.8-1.68-1.75-1.68-.9,0-1.65,.6-1.75,1.68Z"/><path class="e" d="M377.62,74.6c1.01,0,1.74,.51,2.07,1.1v-1.01h.93v5.67c0,1.53-1.02,2.61-2.65,2.61-1.46,0-2.5-.74-2.69-1.92h.91c.2,.67,.86,1.12,1.77,1.12,.98,0,1.72-.63,1.72-1.81v-1.17c-.33,.6-1.05,1.13-2.07,1.13-1.49,0-2.63-1.17-2.63-2.89s1.15-2.85,2.63-2.85Zm.18,.8c-1.01,0-1.88,.74-1.88,2.05s.86,2.08,1.88,2.08,1.88-.76,1.88-2.07-.87-2.06-1.88-2.06Z"/><path class="e" d="M382.02,73.16c0-.35,.27-.63,.63-.63,.33,0,.61,.27,.61,.63s-.27,.63-.61,.63c-.36,0-.63-.27-.63-.63Zm.15,1.53h.92v5.55h-.92v-5.55Z"/><path class="e" d="M387.03,74.6c1.38,0,2.28,.71,2.56,1.87h-.99c-.19-.67-.75-1.09-1.57-1.09-1.01,0-1.76,.72-1.76,2.08s.75,2.1,1.76,2.1c.82,0,1.37-.39,1.57-1.09h.99c-.28,1.1-1.18,1.87-2.56,1.87-1.58,0-2.71-1.11-2.71-2.88s1.12-2.86,2.71-2.86Z"/><path class="e" d="M393.1,74.6c1.03,0,1.74,.53,2.07,1.1v-1.01h.93v5.55h-.93v-1.03c-.33,.6-1.05,1.12-2.08,1.12-1.48,0-2.62-1.17-2.62-2.89s1.15-2.85,2.63-2.85Zm.18,.8c-1.01,0-1.87,.74-1.87,2.05s.86,2.08,1.87,2.08,1.88-.76,1.88-2.07-.87-2.06-1.88-2.06Z"/><path class="e" d="M405.67,77.1c0-1.13-.61-1.71-1.52-1.71s-1.57,.6-1.57,1.79v3.06h-.91v-3.14c0-1.13-.61-1.71-1.52-1.71s-1.57,.6-1.57,1.79v3.06h-.92v-5.55h.92v.8c.36-.59,1.02-.9,1.75-.9,.91,0,1.67,.41,2.04,1.24,.32-.8,1.11-1.24,1.96-1.24,1.27,0,2.25,.79,2.25,2.38v3.27h-.91v-3.14Z"/><path class="e" d="M410.49,80.33c-1.58,0-2.75-1.11-2.75-2.88s1.12-2.86,2.75-2.86,2.67,1.13,2.67,2.65c0,.2-.01,.37-.03,.56h-4.44c.07,1.12,.86,1.74,1.8,1.74,.83,0,1.36-.42,1.56-1.02h.99c-.29,1.01-1.18,1.8-2.55,1.8Zm-1.79-3.27h3.51c0-1.08-.8-1.68-1.75-1.68-.9,0-1.65,.6-1.75,1.68Z"/><path class="e" d="M418.43,77.1c0-1.13-.62-1.71-1.55-1.71s-1.59,.59-1.59,1.78v3.07h-.92v-5.55h.92v.79c.36-.58,1.03-.89,1.78-.89,1.29,0,2.27,.79,2.27,2.38v3.27h-.91v-3.14Z"/><path class="e" d="M421.05,75.45h-.72v-.76h.72v-1.4h.92v1.4h1.45v.76h-1.45v3.27c0,.55,.2,.74,.77,.74h.68v.78h-.83c-.98,0-1.54-.41-1.54-1.52v-3.27Z"/><path class="e" d="M426.94,80.33c-1.58,0-2.75-1.11-2.75-2.88s1.12-2.86,2.75-2.86,2.67,1.13,2.67,2.65c0,.2-.01,.37-.03,.56h-4.44c.07,1.12,.86,1.74,1.8,1.74,.83,0,1.36-.42,1.56-1.02h.99c-.29,1.01-1.18,1.8-2.55,1.8Zm-1.79-3.27h3.51c0-1.08-.8-1.68-1.75-1.68-.9,0-1.65,.6-1.75,1.68Z"/><path class="e" d="M435.94,80.33c-1.57,0-2.77-1.11-2.77-2.88s1.24-2.86,2.81-2.86,2.81,1.1,2.81,2.86-1.27,2.88-2.85,2.88Zm0-.81c.96,0,1.91-.66,1.91-2.07s-.92-2.06-1.88-2.06-1.85,.66-1.85,2.06,.86,2.07,1.82,2.07Z"/><path class="e" d="M440.92,80.24h-.92v-5.55h.92v.9c.31-.62,.91-1,1.79-1v.95h-.24c-.88,0-1.55,.4-1.55,1.68v3.02Z"/><path class="e" d="M446.06,74.6c1.01,0,1.74,.51,2.07,1.1v-1.01h.93v5.67c0,1.53-1.02,2.61-2.65,2.61-1.46,0-2.5-.74-2.68-1.92h.91c.2,.67,.86,1.12,1.77,1.12,.98,0,1.72-.63,1.72-1.81v-1.17c-.33,.6-1.05,1.13-2.07,1.13-1.49,0-2.63-1.17-2.63-2.89s1.15-2.85,2.63-2.85Zm.18,.8c-1.01,0-1.87,.74-1.87,2.05s.86,2.08,1.87,2.08,1.88-.76,1.88-2.07-.87-2.06-1.88-2.06Z"/><path class="e" d="M452.91,74.6c1.03,0,1.74,.53,2.07,1.1v-1.01h.93v5.55h-.93v-1.03c-.33,.6-1.05,1.12-2.08,1.12-1.48,0-2.62-1.17-2.62-2.89s1.15-2.85,2.63-2.85Zm.18,.8c-1.01,0-1.87,.74-1.87,2.05s.86,2.08,1.87,2.08,1.88-.76,1.88-2.07-.87-2.06-1.88-2.06Z"/><path class="e" d="M461.53,77.1c0-1.13-.62-1.71-1.55-1.71s-1.59,.59-1.59,1.78v3.07h-.92v-5.55h.92v.79c.36-.58,1.03-.89,1.78-.89,1.29,0,2.27,.79,2.27,2.38v3.27h-.91v-3.14Z"/><path class="e" d="M463.79,73.16c0-.35,.27-.63,.63-.63,.33,0,.61,.27,.61,.63s-.27,.63-.61,.63c-.36,0-.63-.27-.63-.63Zm.15,1.53h.92v5.55h-.92v-5.55Z"/><path class="e" d="M469.83,75.44l-2.71,4.04h2.73v.76h-3.78v-.76l2.69-4.04h-2.67v-.75h3.74v.75Z"/><path class="e" d="M473.34,74.6c1.03,0,1.74,.53,2.07,1.1v-1.01h.93v5.55h-.93v-1.03c-.33,.6-1.05,1.12-2.08,1.12-1.48,0-2.62-1.17-2.62-2.89s1.14-2.85,2.63-2.85Zm.18,.8c-1.01,0-1.87,.74-1.87,2.05s.86,2.08,1.87,2.08,1.88-.76,1.88-2.07-.87-2.06-1.88-2.06Z"/><path class="e" d="M480.19,74.6c.87,0,1.67,.45,2.06,1.08v-2.94h.93v7.5h-.93v-1.04c-.33,.62-1.05,1.13-2.07,1.13-1.49,0-2.63-1.17-2.63-2.89s1.14-2.85,2.64-2.85Zm.17,.8c-1.01,0-1.87,.74-1.87,2.05s.86,2.08,1.87,2.08,1.88-.76,1.88-2.07-.87-2.06-1.88-2.06Z"/><path class="e" d="M487.03,74.6c1.03,0,1.74,.53,2.07,1.1v-1.01h.93v5.55h-.93v-1.03c-.33,.6-1.05,1.12-2.08,1.12-1.48,0-2.62-1.17-2.62-2.89s1.14-2.85,2.63-2.85Zm.18,.8c-1.01,0-1.87,.74-1.87,2.05s.86,2.08,1.87,2.08,1.88-.76,1.88-2.07-.87-2.06-1.88-2.06Z"/><path class="e" d="M493.55,80.33c-1.3,0-2.21-.71-2.27-1.72h.95c.05,.54,.53,.94,1.31,.94,.73,0,1.13-.36,1.13-.82,0-1.24-3.28-.52-3.28-2.58,0-.85,.8-1.55,2.04-1.55s2.04,.66,2.1,1.74h-.92c-.04-.56-.46-.96-1.21-.96-.68,0-1.08,.32-1.08,.77,0,1.32,3.22,.6,3.26,2.58,0,.91-.8,1.6-2.03,1.6Z"/><path class="e" d="M497.16,80.3c-.35,0-.63-.27-.63-.63s.27-.63,.63-.63c.33,0,.61,.27,.61,.63s-.27,.63-.61,.63Z"/></g></g><g><rect class="f" x="87.27" y="107.74" width="136.87" height="81.97" rx="11.66" ry="11.66"/><rect class="g" x="92.95" y="136.4" width="125.52" height="43.24" rx="21.62" ry="21.62"/><g><path class="e" d="M131.65,117.21c1.69,0,2.97,.95,3.37,2.49h-1.9c-.29-.61-.83-.91-1.49-.91-1.06,0-1.79,.79-1.79,2.05s.73,2.05,1.79,2.05c.66,0,1.2-.3,1.49-.91h1.9c-.41,1.54-1.68,2.48-3.37,2.48-2.1,0-3.58-1.49-3.58-3.62s1.48-3.63,3.58-3.63Z"/><path class="e" d="M139.44,124.48c-2.02,0-3.66-1.51-3.66-3.65s1.64-3.64,3.66-3.64,3.64,1.5,3.64,3.64-1.62,3.65-3.64,3.65Zm0-1.58c1.13,0,1.87-.82,1.87-2.07s-.74-2.07-1.87-2.07-1.88,.8-1.88,2.07,.73,2.07,1.88,2.07Z"/><path class="e" d="M150.4,117.29v7.11h-1.73l-2.9-4.39v4.39h-1.73v-7.11h1.73l2.9,4.41v-4.41h1.73Z"/><path class="e" d="M151.27,117.29h5.5v1.39h-1.88v5.72h-1.73v-5.72h-1.88v-1.39Z"/><path class="e" d="M161.99,118.68h-2.62v1.44h2.32v1.34h-2.32v1.56h2.62v1.39h-4.36v-7.11h4.36v1.39Z"/><path class="e" d="M166.02,122.23l-1.28,2.18h-1.96l2.28-3.62-2.33-3.5h2.02l1.43,2.15,1.26-2.15h1.97l-2.26,3.59,2.35,3.53h-2.02l-1.45-2.18Z"/><path class="e" d="M169.97,117.29h5.5v1.39h-1.88v5.72h-1.73v-5.72h-1.88v-1.39Z"/><path class="e" d="M179.71,124.48c-2.02,0-3.66-1.51-3.66-3.65s1.64-3.64,3.66-3.64,3.64,1.5,3.64,3.64-1.62,3.65-3.64,3.65Zm0-1.58c1.13,0,1.87-.82,1.87-2.07s-.74-2.07-1.87-2.07-1.88,.8-1.88,2.07,.73,2.07,1.88,2.07Z"/></g><g><path class="e" d="M120.18,154.29h1.73v7.11h-1.73v-7.11Z"/><path class="e" d="M129.54,154.29v7.11h-1.73l-2.9-4.39v4.39h-1.73v-7.11h1.73l2.9,4.41v-4.41h1.73Z"/><path class="e" d="M130.4,154.29h5.5v1.39h-1.88v5.72h-1.73v-5.72h-1.88v-1.39Z"/><path class="e" d="M141.13,155.68h-2.62v1.44h2.32v1.34h-2.32v1.56h2.62v1.39h-4.36v-7.11h4.36v1.39Z"/><path class="e" d="M145.16,154.29c1.74,0,2.61,1,2.61,2.24,0,.89-.49,1.73-1.58,2.06l1.64,2.82h-1.96l-1.48-2.68h-.42v2.68h-1.73v-7.11h2.91Zm-.1,1.44h-1.07v1.76h1.07c.65,0,.95-.33,.95-.89,0-.53-.3-.87-.95-.87Z"/><path class="e" d="M153.7,154.29h1.83l-2.52,7.11h-2.17l-2.52-7.11h1.84l1.76,5.37,1.77-5.37Z"/><path class="e" d="M160.6,155.68h-2.62v1.44h2.32v1.34h-2.32v1.56h2.62v1.39h-4.36v-7.11h4.36v1.39Z"/><path class="e" d="M168.09,154.29v7.11h-1.73l-2.9-4.39v4.39h-1.73v-7.11h1.73l2.9,4.41v-4.41h1.73Z"/><path class="e" d="M172.62,154.21c1.69,0,2.97,.95,3.37,2.49h-1.91c-.29-.61-.83-.91-1.49-.91-1.06,0-1.79,.79-1.79,2.05s.73,2.05,1.79,2.05c.66,0,1.2-.3,1.49-.91h1.91c-.37,1.37-1.41,2.27-2.83,2.45v.39c.61,0,1.32,.31,1.32,1.16s-.71,1.18-1.41,1.18h-1.56v-.95h1.33c.25,0,.41-.06,.41-.26s-.15-.25-.41-.25h-.72v-1.26c-1.83-.21-3.08-1.63-3.08-3.59,0-2.13,1.48-3.63,3.58-3.63Z"/><path class="e" d="M181.48,160.15h-2.65l-.43,1.26h-1.81l2.57-7.11h2.01l2.57,7.11h-1.83l-.43-1.26Zm-1.95-7.85c.61,0,.92,.46,1.33,.46,.23,0,.4-.14,.44-.46h.89c-.17,1.06-.69,1.5-1.4,1.5-.61,0-.92-.46-1.33-.46-.23,0-.39,.14-.45,.46h-.88c.17-1.06,.68-1.5,1.4-1.5Zm.62,3.91l-.87,2.6h1.75l-.88-2.6Z"/><path class="e" d="M187.88,161.48c-2.02,0-3.66-1.51-3.66-3.65s1.64-3.64,3.66-3.64,3.64,1.5,3.64,3.64-1.62,3.65-3.64,3.65Zm0-1.58c1.13,0,1.87-.82,1.87-2.07s-.74-2.07-1.87-2.07-1.88,.8-1.88,2.07,.73,2.07,1.88,2.07Z"/></g></g><g><rect class="f" x="358.28" y="107.74" width="136.87" height="81.97" rx="40.98" ry="40.98"/><g><path class="e" d="M385.75,138.17h-2.62v1.44h2.32v1.34h-2.32v1.56h2.62v1.39h-4.36v-7.11h4.36v1.39Z"/><path class="e" d="M387.04,139.68h-.63v-1.44h.63v-.16c0-1.48,.91-2.21,2.63-2.12v1.47c-.67-.04-.9,.16-.9,.76v.05h.93v1.44h-.93v4.21h-1.73v-4.21Z"/><path class="e" d="M393.03,143.97c-1.66,0-2.86-1.11-2.86-2.91s1.18-2.91,2.86-2.91,2.82,1.09,2.82,2.82c0,.16,0,.33-.03,.51h-3.92c.06,.74,.52,1.08,1.07,1.08,.49,0,.76-.24,.9-.55h1.84c-.27,1.1-1.28,1.96-2.68,1.96Zm-1.12-3.46h2.17c0-.62-.49-.97-1.06-.97s-1,.34-1.1,.97Z"/><path class="e" d="M396.59,136.72c0-.53,.42-.94,1.03-.94s1.02,.42,1.02,.94-.42,.93-1.02,.93-1.03-.42-1.03-.93Zm.16,1.52h1.73v5.65h-1.73v-5.65Z"/><path class="e" d="M400.01,139.68h-.69v-1.44h.69v-1.38h1.73v1.38h1.13v1.44h-1.13v2.27c0,.33,.14,.48,.53,.48h.62v1.47h-.88c-1.18,0-2-.5-2-1.97v-2.25Z"/><path class="e" d="M406.43,143.97c-1.66,0-2.92-1.11-2.92-2.91s1.29-2.91,2.94-2.91,2.94,1.11,2.94,2.91-1.3,2.91-2.96,2.91Zm0-1.5c.62,0,1.2-.46,1.2-1.41s-.57-1.41-1.18-1.41-1.17,.45-1.17,1.41,.53,1.41,1.16,1.41Z"/><path class="e" d="M412.6,143.97c-1.51,0-2.52-.84-2.6-1.94h1.71c.04,.4,.4,.66,.87,.66,.45,0,.68-.2,.68-.46,0-.91-3.08-.25-3.08-2.33,0-.96,.82-1.75,2.3-1.75s2.27,.81,2.38,1.92h-1.6c-.05-.38-.34-.64-.83-.64-.41,0-.63,.16-.63,.44,0,.9,3.06,.26,3.09,2.37,0,.98-.87,1.72-2.29,1.72Z"/><path class="e" d="M420.61,143.97c-1.66,0-2.86-1.11-2.86-2.91s1.17-2.91,2.86-2.91,2.82,1.09,2.82,2.82c0,.16-.01,.33-.03,.51h-3.92c.06,.74,.52,1.08,1.07,1.08,.49,0,.76-.24,.9-.55h1.84c-.27,1.1-1.28,1.96-2.69,1.96Zm-1.12-3.46h2.17c0-.62-.49-.97-1.06-.97s-1,.34-1.1,.97Z"/><path class="e" d="M426.64,143.97c-1.51,0-2.52-.84-2.6-1.94h1.71c.04,.4,.4,.66,.87,.66,.45,0,.68-.2,.68-.46,0-.91-3.08-.25-3.08-2.33,0-.96,.82-1.75,2.3-1.75s2.27,.81,2.38,1.92h-1.6c-.05-.38-.34-.64-.83-.64-.41,0-.63,.16-.63,.44,0,.9,3.06,.26,3.09,2.37,0,.98-.87,1.72-2.29,1.72Z"/><path class="e" d="M433.46,138.16c1.39,0,2.49,1.11,2.49,2.9s-1.1,2.92-2.49,2.92c-.83,0-1.43-.4-1.74-.87v3.49h-1.73v-8.35h1.73v.8c.31-.5,.91-.88,1.74-.88Zm-.52,1.51c-.65,0-1.24,.5-1.24,1.4s.59,1.4,1.24,1.4,1.25-.51,1.25-1.41-.59-1.39-1.25-1.39Z"/><path class="e" d="M439.38,143.97c-1.66,0-2.86-1.11-2.86-2.91s1.18-2.91,2.86-2.91,2.82,1.09,2.82,2.82c0,.16,0,.33-.03,.51h-3.92c.06,.74,.52,1.08,1.07,1.08,.49,0,.76-.24,.9-.55h1.84c-.27,1.1-1.28,1.96-2.68,1.96Zm-1.12-3.46h2.17c0-.62-.49-.97-1.06-.97s-1,.34-1.1,.97Z"/><path class="e" d="M444.83,143.89h-1.73v-5.65h1.73v.94c.39-.6,1.01-1,1.77-1v1.83h-.48c-.82,0-1.3,.28-1.3,1.26v2.62Z"/><path class="e" d="M449.58,138.16c.84,0,1.44,.38,1.74,.88v-.8h1.73v5.65h-1.73v-.8c-.31,.5-.91,.88-1.75,.88-1.38,0-2.48-1.13-2.48-2.92s1.1-2.9,2.49-2.9Zm.51,1.51c-.65,0-1.24,.49-1.24,1.39s.59,1.41,1.24,1.41,1.24-.5,1.24-1.4-.58-1.4-1.24-1.4Z"/><path class="e" d="M456.46,138.16c.75,0,1.4,.34,1.74,.86v-2.62h1.73v7.5h-1.73v-.81c-.31,.52-.91,.89-1.74,.89-1.39,0-2.49-1.13-2.49-2.92s1.1-2.9,2.49-2.9Zm.51,1.51c-.65,0-1.24,.49-1.24,1.39s.59,1.41,1.24,1.41,1.24-.5,1.24-1.4-.58-1.4-1.24-1.4Z"/><path class="e" d="M463.76,143.97c-1.66,0-2.92-1.11-2.92-2.91s1.29-2.91,2.94-2.91,2.94,1.11,2.94,2.91-1.3,2.91-2.96,2.91Zm0-1.5c.62,0,1.2-.46,1.2-1.41s-.57-1.41-1.18-1.41-1.17,.45-1.17,1.41,.53,1.41,1.16,1.41Z"/><path class="e" d="M469.94,143.97c-1.51,0-2.52-.84-2.6-1.94h1.71c.04,.4,.39,.66,.87,.66,.45,0,.68-.2,.68-.46,0-.91-3.08-.25-3.08-2.33,0-.96,.82-1.75,2.3-1.75s2.27,.81,2.38,1.92h-1.6c-.05-.38-.34-.64-.83-.64-.41,0-.63,.16-.63,.44,0,.9,3.06,.26,3.09,2.37,0,.98-.87,1.72-2.29,1.72Z"/><path class="e" d="M385.49,156.13c-1.66,0-2.86-1.11-2.86-2.91s1.18-2.91,2.86-2.91,2.82,1.09,2.82,2.82c0,.16,0,.33-.03,.51h-3.92c.06,.74,.52,1.08,1.07,1.08,.49,0,.76-.24,.9-.55h1.84c-.27,1.1-1.28,1.96-2.68,1.96Zm-1.12-3.46h2.17c0-.62-.49-.97-1.06-.97s-1,.34-1.1,.97Z"/><path class="e" d="M395.26,152.97c0-.77-.42-1.2-1.08-1.2s-1.08,.43-1.08,1.2v3.07h-1.73v-5.65h1.73v.75c.34-.48,.95-.81,1.71-.81,1.31,0,2.18,.89,2.18,2.41v3.3h-1.72v-3.07Z"/><path class="e" d="M400.33,150.31c.84,0,1.44,.38,1.74,.88v-.8h1.73v5.65h-1.73v-.8c-.31,.5-.91,.88-1.75,.88-1.38,0-2.48-1.13-2.48-2.92s1.1-2.9,2.49-2.9Zm.07-1.89c.61,0,.92,.46,1.33,.46,.23,0,.4-.14,.44-.46h.89c-.17,1.06-.69,1.5-1.4,1.5-.61,0-.92-.46-1.33-.46-.23,0-.39,.14-.45,.46h-.88c.17-1.06,.68-1.5,1.4-1.5Zm.44,3.4c-.65,0-1.24,.49-1.24,1.39s.59,1.41,1.24,1.41,1.24-.5,1.24-1.4-.58-1.4-1.24-1.4Z"/><path class="e" d="M407.64,156.13c-1.66,0-2.92-1.11-2.92-2.91s1.29-2.91,2.94-2.91,2.94,1.11,2.94,2.91-1.3,2.91-2.96,2.91Zm0-1.5c.62,0,1.2-.46,1.2-1.41s-.57-1.41-1.18-1.41-1.17,.45-1.17,1.41,.53,1.41,1.16,1.41Z"/><path class="e" d="M416.17,156.13c-1.66,0-2.86-1.11-2.86-2.91s1.18-2.91,2.86-2.91,2.82,1.09,2.82,2.82c0,.16,0,.33-.03,.51h-3.92c.06,.74,.52,1.08,1.07,1.08,.49,0,.76-.24,.9-.55h1.84c-.27,1.1-1.28,1.96-2.68,1.96Zm-1.12-3.46h2.17c0-.62-.49-.97-1.06-.97s-1,.34-1.1,.97Z"/><path class="e" d="M422.2,156.13c-1.51,0-2.52-.84-2.6-1.94h1.71c.04,.4,.4,.66,.87,.66,.45,0,.68-.2,.68-.46,0-.91-3.08-.25-3.08-2.33,0-.96,.82-1.75,2.3-1.75s2.27,.81,2.38,1.92h-1.6c-.05-.38-.34-.64-.83-.64-.41,0-.63,.16-.63,.44,0,.9,3.06,.26,3.09,2.37,0,.98-.87,1.72-2.29,1.72Z"/><path class="e" d="M429.02,150.31c1.39,0,2.49,1.11,2.49,2.9s-1.1,2.92-2.49,2.92c-.83,0-1.43-.4-1.74-.87v3.49h-1.73v-8.35h1.73v.8c.31-.5,.91-.88,1.74-.88Zm-.52,1.51c-.65,0-1.24,.5-1.24,1.4s.59,1.4,1.24,1.4,1.25-.51,1.25-1.41-.59-1.39-1.25-1.39Z"/><path class="e" d="M434.94,156.13c-1.66,0-2.86-1.11-2.86-2.91s1.18-2.91,2.86-2.91,2.82,1.09,2.82,2.82c0,.16,0,.33-.03,.51h-3.92c.06,.74,.52,1.08,1.07,1.08,.49,0,.76-.24,.9-.55h1.84c-.27,1.1-1.28,1.96-2.68,1.96Zm-1.12-3.46h2.17c0-.62-.49-.97-1.06-.97s-1,.34-1.1,.97Z"/><path class="e" d="M440.39,156.04h-1.73v-5.65h1.73v.94c.39-.6,1.01-1,1.77-1v1.83h-.48c-.82,0-1.3,.28-1.3,1.26v2.62Z"/><path class="e" d="M445.14,150.31c.84,0,1.44,.38,1.74,.88v-.8h1.73v5.65h-1.73v-.8c-.31,.5-.91,.88-1.75,.88-1.38,0-2.48-1.13-2.48-2.92s1.1-2.9,2.49-2.9Zm.51,1.51c-.65,0-1.24,.49-1.24,1.39s.59,1.41,1.24,1.41,1.24-.5,1.24-1.4-.58-1.4-1.24-1.4Z"/><path class="e" d="M452.02,150.31c.75,0,1.4,.34,1.74,.86v-2.62h1.73v7.5h-1.73v-.81c-.31,.52-.91,.89-1.74,.89-1.39,0-2.49-1.13-2.49-2.92s1.1-2.9,2.49-2.9Zm.51,1.51c-.65,0-1.24,.49-1.24,1.39s.59,1.41,1.24,1.41,1.24-.5,1.24-1.4-.58-1.4-1.24-1.4Z"/><path class="e" d="M459.32,156.13c-1.66,0-2.92-1.11-2.92-2.91s1.29-2.91,2.94-2.91,2.94,1.11,2.94,2.91-1.3,2.91-2.96,2.91Zm0-1.5c.62,0,1.2-.46,1.2-1.41s-.57-1.41-1.17-1.41-1.18,.45-1.18,1.41,.53,1.41,1.16,1.41Z"/><path class="e" d="M465.5,156.13c-1.51,0-2.52-.84-2.6-1.94h1.71c.04,.4,.39,.66,.87,.66,.45,0,.68-.2,.68-.46,0-.91-3.08-.25-3.08-2.33,0-.96,.82-1.75,2.3-1.75s2.27,.81,2.38,1.92h-1.6c-.05-.38-.34-.64-.83-.64-.41,0-.63,.16-.63,.44,0,.9,3.06,.26,3.09,2.37,0,.98-.87,1.72-2.29,1.72Z"/><path class="e" d="M469.66,156.13c-.62,0-1.03-.42-1.03-.93s.42-.95,1.03-.95,1.02,.42,1.02,.95-.42,.93-1.02,.93Z"/></g></g><g id="b"><path class="i" d="M157.26,89.02l5.28-5.29c.38-.39,1.01-.39,1.4,0h0c.39,.4,.39,1.03,0,1.43l-5.98,5.99c-.38,.38-.98,.39-1.37,.03l-6.03-6.02c-.39-.39-.4-1.02,0-1.41,.39-.39,1.02-.4,1.41,0h0l5.29,5.29h0Z"/></g><g id="c"><path class="i" d="M301.84,53.42l-5.29-5.28c-.39-.38-.39-1.01,0-1.4h0c.39-.4,1.03-.4,1.42,0l5.99,5.98c.38,.38,.39,.98,.03,1.37l-6.02,6.03c-.39,.39-1.02,.4-1.41,0-.39-.39-.4-1.02,0-1.41h0l5.28-5.3h0Z"/></g><g id="d"><path class="i" d="M301.84,148.71l-5.29-5.28c-.39-.38-.39-1.01,0-1.4h0c.39-.4,1.03-.4,1.42,0l5.99,5.98c.38,.38,.39,.98,.03,1.37l-6.02,6.03c-.39,.39-1.02,.4-1.41,0-.39-.39-.4-1.02,0-1.41h0l5.28-5.3h0Z"/></g></svg>