<?xml version="1.0" encoding="UTF-8"?><svg id="a" xmlns="http://www.w3.org/2000/svg" viewBox="0 0 670 181"><defs><style>.b{fill:#54bfcd;}.c{fill:#fff;}.d{fill:#29696d;}.e{fill:#108141;}.f{fill:#1b8992;}.g{fill:#ffa800;}.h{fill:#506d8f;}</style></defs><g><polygon class="b" points="125.46 116.82 25.49 116.82 48.18 90.45 25.49 64.07 125.46 64.07 148.15 90.45 125.46 116.82"/><path class="b" d="M124.86,115.5H28.7l21.36-25.05-21.36-25.05H124.86l21.55,25.05-21.55,25.05Zm-95.24-.38H124.68l21.22-24.67-21.22-24.67H29.61l20.98,24.67-20.98,24.67Z"/></g><g><polygon class="h" points="242.46 116.82 142.49 116.82 165.18 90.45 142.49 64.07 242.46 64.07 265.15 90.45 242.46 116.82"/><path class="h" d="M241.86,115.5h-96.16l21.36-25.05-21.36-25.05h96.16l21.55,25.05-21.55,25.05Zm-95.24-.38h95.07l21.22-24.67-21.22-24.67h-95.07l20.98,24.67-20.98,24.67Z"/></g><g><polygon class="f" points="364.46 116.82 264.49 116.82 287.18 90.45 264.49 64.07 364.46 64.07 387.15 90.45 364.46 116.82"/><path class="f" d="M363.86,115.5h-96.16l21.36-25.05-21.36-25.05h96.16l21.55,25.05-21.55,25.05Zm-95.24-.38h95.07l21.22-24.67-21.22-24.67h-95.07l20.98,24.67-20.98,24.67Z"/></g><g><polygon class="e" points="491.46 116.82 381.49 116.82 404.18 90.45 381.49 64.07 491.46 64.07 514.15 90.45 491.46 116.82"/><path class="e" d="M490.86,115.5h-106.16l21.36-25.05-21.36-25.05h106.16l21.55,25.05-21.55,25.05Zm-105.24-.38h105.07l21.22-24.67-21.22-24.67h-105.07l20.98,24.67-20.98,24.67Z"/></g><g><polygon class="d" points="621.46 116.82 521.49 116.82 544.18 90.45 521.49 64.07 621.46 64.07 644.15 90.45 621.46 116.82"/><path class="d" d="M620.86,115.5h-96.16l21.36-25.05-21.36-25.05h96.16l21.55,25.05-21.55,25.05Zm-95.24-.38h95.07l21.22-24.67-21.22-24.67h-95.07l20.98,24.67-20.98,24.67Z"/></g><rect class="h" x="25.51" y="12.4" width="619" height="33.42"/><rect class="g" x="57.73" y="142.6" width="153.61" height="26" rx="13" ry="13"/><g><path class="c" d="M72.33,150.41h6.51v1.64h-2.23v6.78h-2.05v-6.78h-2.23v-1.64Z"/><path class="c" d="M83.32,150.41c2.06,0,3.09,1.19,3.09,2.65,0,1.05-.58,2.05-1.87,2.43l1.94,3.33h-2.31l-1.75-3.18h-.49v3.18h-2.05v-8.42h3.44Zm-.12,1.7h-1.27v2.09h1.27c.77,0,1.13-.4,1.13-1.05,0-.62-.36-1.03-1.13-1.03Z"/><path class="c" d="M92.94,157.34h-3.14l-.5,1.49h-2.15l3.05-8.42h2.37l3.05,8.42h-2.17l-.5-1.49Zm-1.57-4.67l-1.03,3.08h2.07l-1.04-3.08Z"/><path class="c" d="M100.47,158.83h-3.92v-8.42h3.79c1.71,0,2.73,.85,2.73,2.18,0,1.02-.61,1.68-1.43,1.92,.98,.2,1.62,1.07,1.62,2.03,0,1.39-1.02,2.29-2.79,2.29Zm-.53-6.78h-1.34v1.76h1.34c.67,0,1.04-.3,1.04-.88s-.37-.89-1.04-.89Zm.14,3.26h-1.49v1.86h1.51c.68,0,1.08-.31,1.08-.91s-.42-.95-1.1-.95Z"/><path class="c" d="M109.69,157.34h-3.14l-.5,1.49h-2.15l3.05-8.42h2.37l3.05,8.42h-2.17l-.5-1.49Zm-1.57-4.67l-1.03,3.08h2.07l-1.04-3.08Z"/><path class="c" d="M115.35,150.41v6.84h2.69v1.58h-4.74v-8.42h2.05Z"/><path class="c" d="M124.26,155.36h-3.19v3.47h-2.05v-8.42h2.05v3.3h3.19v-3.3h2.05v8.42h-2.05v-3.47Z"/><path class="c" d="M131.77,158.91c-2.39,0-4.33-1.79-4.33-4.32s1.94-4.31,4.33-4.31,4.31,1.77,4.31,4.31-1.92,4.32-4.31,4.32Zm0-1.87c1.34,0,2.22-.97,2.22-2.45s-.88-2.45-2.22-2.45-2.23,.95-2.23,2.45,.86,2.45,2.23,2.45Z"/><path class="c" d="M143.09,155.81h-1.27v3.02h-2.05v-8.42h3.32c2.06,0,3.09,1.16,3.09,2.71,0,1.39-.95,2.69-3.09,2.69Zm-.16-1.63c.82,0,1.16-.41,1.16-1.06s-.35-1.06-1.16-1.06h-1.12v2.11h1.12Z"/><path class="c" d="M150.7,150.41c2.06,0,3.09,1.19,3.09,2.65,0,1.05-.58,2.05-1.87,2.43l1.94,3.33h-2.31l-1.75-3.18h-.49v3.18h-2.05v-8.42h3.44Zm-.12,1.7h-1.27v2.09h1.27c.77,0,1.13-.4,1.13-1.05,0-.62-.36-1.03-1.13-1.03Z"/><path class="c" d="M160.24,152.05h-3.11v1.7h2.75v1.58h-2.75v1.85h3.11v1.64h-5.16v-8.42h5.16v1.64Z"/><path class="c" d="M167.3,150.41h2.17l-2.99,8.42h-2.57l-2.99-8.42h2.18l2.09,6.36,2.1-6.36Z"/><path class="c" d="M170.33,150.41h2.05v8.42h-2.05v-8.42Z"/><path class="c" d="M176.92,158.91c-1.81,0-3.23-.9-3.29-2.6h2.18c.06,.65,.47,.96,1.04,.96s.98-.3,.98-.79c0-1.56-4.21-.72-4.19-3.71,0-1.59,1.31-2.48,3.07-2.48s3.07,.91,3.15,2.52h-2.22c-.04-.54-.42-.86-.97-.88-.49-.01-.86,.24-.86,.77,0,1.46,4.16,.8,4.16,3.62,0,1.42-1.1,2.59-3.07,2.59Z"/><path class="c" d="M180.79,150.41h6.51v1.64h-2.23v6.78h-2.05v-6.78h-2.23v-1.64Z"/><path class="c" d="M192.32,158.91c-2.39,0-4.33-1.79-4.33-4.32s1.94-4.31,4.33-4.31,4.31,1.77,4.31,4.31-1.92,4.32-4.31,4.32Zm0-1.87c1.34,0,2.22-.97,2.22-2.45s-.88-2.45-2.22-2.45-2.23,.95-2.23,2.45,.86,2.45,2.23,2.45Z"/></g><rect class="g" x="371.38" y="142.6" width="153.61" height="26" rx="13" ry="13"/><g><path class="c" d="M394.29,152.05h-3.11v1.7h2.75v1.58h-2.75v1.85h3.11v1.64h-5.16v-8.42h5.16v1.64Z"/><path class="c" d="M395.63,150.41h5.48v1.64h-3.43v1.78h2.57v1.59h-2.57v3.41h-2.05v-8.42Z"/><path class="c" d="M407.35,152.05h-3.11v1.7h2.75v1.58h-2.75v1.85h3.11v1.64h-5.16v-8.42h5.16v1.64Z"/><path class="c" d="M408.68,150.41h2.05v8.42h-2.05v-8.42Z"/><path class="c" d="M411.77,150.41h6.51v1.64h-2.23v6.78h-2.05v-6.78h-2.23v-1.64Z"/><path class="c" d="M423.3,158.91c-2.39,0-4.33-1.79-4.33-4.32s1.94-4.31,4.33-4.31,4.31,1.77,4.31,4.31-1.92,4.32-4.31,4.32Zm0-1.87c1.34,0,2.22-.97,2.22-2.45s-.88-2.45-2.22-2.45-2.23,.95-2.23,2.45,.86,2.45,2.23,2.45Z"/><path class="c" d="M431.79,158.91c-1.81,0-3.23-.9-3.29-2.6h2.18c.06,.65,.47,.96,1.04,.96s.98-.3,.98-.79c0-1.56-4.21-.72-4.19-3.71,0-1.59,1.31-2.48,3.07-2.48s3.07,.91,3.15,2.52h-2.22c-.04-.54-.42-.86-.97-.88-.49-.01-.86,.24-.86,.77,0,1.46,4.16,.8,4.16,3.62,0,1.42-1.1,2.59-3.07,2.59Z"/><path class="c" d="M443.83,152.05h-3.11v1.7h2.75v1.58h-2.75v1.85h3.11v1.64h-5.16v-8.42h5.16v1.64Z"/><path class="c" d="M448.21,158.91c-1.81,0-3.23-.9-3.29-2.6h2.18c.06,.65,.47,.96,1.04,.96s.98-.3,.98-.79c0-1.56-4.21-.72-4.19-3.71,0-1.59,1.31-2.48,3.07-2.48s3.07,.91,3.15,2.52h-2.22c-.04-.54-.42-.86-.97-.88-.49-.01-.86,.24-.86,.77,0,1.46,4.16,.8,4.16,3.62,0,1.42-1.1,2.59-3.07,2.59Z"/><path class="c" d="M455.86,155.81h-1.27v3.02h-2.05v-8.42h3.32c2.06,0,3.09,1.16,3.09,2.71,0,1.39-.95,2.69-3.09,2.69Zm-.16-1.63c.82,0,1.16-.41,1.16-1.06s-.35-1.06-1.16-1.06h-1.12v2.11h1.12Z"/><path class="c" d="M465.19,152.05h-3.11v1.7h2.75v1.58h-2.75v1.85h3.11v1.64h-5.16v-8.42h5.16v1.64Z"/><path class="c" d="M469.96,150.41c2.06,0,3.09,1.19,3.09,2.65,0,1.05-.58,2.05-1.87,2.43l1.94,3.33h-2.31l-1.75-3.18h-.49v3.18h-2.05v-8.42h3.44Zm-.12,1.7h-1.27v2.09h1.27c.77,0,1.13-.4,1.13-1.05,0-.62-.36-1.03-1.13-1.03Z"/><path class="c" d="M479.59,157.34h-3.14l-.5,1.49h-2.15l3.05-8.42h2.38l3.05,8.42h-2.17l-.5-1.49Zm-1.57-4.67l-1.03,3.08h2.07l-1.04-3.08Z"/><path class="c" d="M490.76,154.62c0,2.5-1.73,4.21-4.41,4.21h-3.15v-8.42h3.15c2.69,0,4.41,1.7,4.41,4.21Zm-4.55,2.43c1.55,0,2.46-.89,2.46-2.43s-.91-2.46-2.46-2.46h-.97v4.89h.97Z"/><path class="c" d="M495.89,158.91c-2.39,0-4.33-1.79-4.33-4.32s1.94-4.31,4.33-4.31,4.31,1.77,4.31,4.31-1.92,4.32-4.31,4.32Zm0-1.87c1.34,0,2.22-.97,2.22-2.45s-.88-2.45-2.22-2.45-2.23,.95-2.23,2.45,.86,2.45,2.23,2.45Z"/><path class="c" d="M504.39,158.91c-1.81,0-3.23-.9-3.29-2.6h2.18c.06,.65,.47,.96,1.04,.96s.98-.3,.98-.79c0-1.56-4.21-.72-4.19-3.71,0-1.59,1.31-2.48,3.07-2.48s3.07,.91,3.15,2.52h-2.22c-.04-.54-.42-.86-.97-.88-.49-.01-.86,.24-.86,.77,0,1.46,4.16,.8,4.16,3.62,0,1.42-1.1,2.59-3.07,2.59Z"/></g><g><polygon class="h" points="173.63 133.08 94.86 133.08 94.86 124.96 96.86 124.96 96.86 131.08 171.63 131.08 171.63 124.96 173.63 124.96 173.63 133.08"/><rect class="h" x="133.38" y="131.96" width="2" height="7.12"/></g><g><polygon class="h" points="584.51 133.08 310.51 133.08 310.51 124.96 312.51 124.96 312.51 131.08 582.51 131.08 582.51 124.96 584.51 124.96 584.51 133.08"/><rect class="h" x="446.98" y="131.96" width="2" height="7.12"/></g><g><path class="c" d="M274.78,23.51h2.74v11.24h-2.74v-11.24Z"/><path class="c" d="M289.55,23.51v11.24h-2.74l-4.58-6.93v6.93h-2.74v-11.24h2.74l4.58,6.96v-6.96h2.74Z"/><path class="c" d="M290.92,23.51h8.69v2.19h-2.98v9.04h-2.74v-9.04h-2.98v-2.19Z"/><path class="c" d="M307.87,25.7h-4.15v2.27h3.67v2.11h-3.67v2.46h4.15v2.19h-6.88v-11.24h6.88v2.19Z"/><path class="c" d="M314.23,23.51c2.75,0,4.13,1.58,4.13,3.54,0,1.41-.77,2.74-2.5,3.25l2.59,4.45h-3.09l-2.34-4.24h-.66v4.24h-2.74v-11.24h4.59Zm-.16,2.27h-1.7v2.79h1.7c1.02,0,1.5-.53,1.5-1.41,0-.83-.48-1.38-1.5-1.38Z"/><path class="c" d="M327.72,23.51h2.9l-3.99,11.24h-3.43l-3.99-11.24h2.91l2.79,8.48,2.8-8.48Z"/><path class="c" d="M338.63,25.7h-4.15v2.27h3.67v2.11h-3.67v2.46h4.15v2.19h-6.88v-11.24h6.88v2.19Z"/><path class="c" d="M350.46,23.51v11.24h-2.74l-4.58-6.93v6.93h-2.74v-11.24h2.74l4.58,6.96v-6.96h2.74Z"/><path class="c" d="M357.63,23.38c2.67,0,4.69,1.5,5.33,3.94h-3.01c-.46-.96-1.31-1.44-2.35-1.44-1.68,0-2.83,1.25-2.83,3.23s1.15,3.23,2.83,3.23c1.04,0,1.89-.48,2.35-1.44h3.01c-.58,2.16-2.23,3.59-4.47,3.87v.62c.96,0,2.08,.5,2.08,1.83s-1.12,1.86-2.22,1.86h-2.46v-1.5h2.1c.4,0,.64-.1,.64-.42,0-.3-.24-.4-.64-.4h-1.14v-1.98c-2.9-.34-4.87-2.58-4.87-5.67,0-3.36,2.34-5.73,5.65-5.73Z"/><path class="c" d="M371.63,32.76h-4.19l-.67,1.98h-2.86l4.07-11.24h3.17l4.07,11.24h-2.9l-.67-1.98Zm-3.07-12.41c.96,0,1.46,.72,2.1,.72,.37,0,.62-.22,.69-.72h1.41c-.27,1.68-1.09,2.37-2.21,2.37-.96,0-1.46-.72-2.1-.72-.37,0-.62,.22-.7,.72h-1.39c.27-1.68,1.07-2.37,2.21-2.37Zm.98,6.18l-1.38,4.11h2.77l-1.39-4.11Z"/><path class="c" d="M381.74,34.86c-3.19,0-5.78-2.38-5.78-5.76s2.59-5.75,5.78-5.75,5.75,2.37,5.75,5.75-2.56,5.76-5.75,5.76Zm0-2.5c1.79,0,2.96-1.3,2.96-3.27s-1.17-3.27-2.96-3.27-2.98,1.26-2.98,3.27,1.15,3.27,2.98,3.27Z"/></g><g><path class="c" d="M60.17,84.47h2.4v9.83h-2.4v-9.83Z"/><path class="c" d="M73.1,84.47v9.83h-2.4l-4.01-6.07v6.07h-2.4v-9.83h2.4l4.01,6.09v-6.09h2.4Z"/><path class="c" d="M78.38,94.4c-2.12,0-3.77-1.05-3.84-3.04h2.55c.07,.76,.55,1.12,1.22,1.12s1.15-.35,1.15-.92c0-1.82-4.92-.84-4.89-4.33,0-1.86,1.53-2.9,3.59-2.9s3.59,1.06,3.68,2.94h-2.59c-.04-.63-.49-1.01-1.13-1.02-.57-.01-1.01,.28-1.01,.9,0,1.71,4.86,.94,4.86,4.23,0,1.65-1.29,3.03-3.59,3.03Z"/><path class="c" d="M83.4,84.47h2.4v5.88c0,1.16,.57,1.83,1.71,1.83s1.74-.67,1.74-1.83v-5.88h2.4v5.87c0,2.72-1.91,4.06-4.17,4.06s-4.06-1.34-4.06-4.06v-5.87Z"/><path class="c" d="M93.31,84.47h2.83l2.76,6.81,2.73-6.81h2.82v9.83h-2.4v-5.9l-2.2,5.9h-1.93l-2.21-5.91v5.91h-2.4v-9.83Z"/><path class="c" d="M110.81,94.4c-2.79,0-5.06-2.09-5.06-5.04s2.27-5.03,5.06-5.03,5.03,2.07,5.03,5.03-2.24,5.04-5.03,5.04Zm0-2.18c1.57,0,2.59-1.13,2.59-2.86s-1.02-2.86-2.59-2.86-2.61,1.11-2.61,2.86,1.01,2.86,2.61,2.86Z"/><path class="c" d="M120.72,94.4c-2.12,0-3.77-1.05-3.84-3.04h2.55c.07,.76,.55,1.12,1.22,1.12s1.15-.35,1.15-.92c0-1.82-4.92-.84-4.89-4.33,0-1.86,1.53-2.9,3.59-2.9s3.59,1.06,3.68,2.94h-2.59c-.04-.63-.49-1.01-1.13-1.02-.57-.01-1.01,.28-1.01,.9,0,1.71,4.86,.94,4.86,4.23,0,1.65-1.29,3.03-3.59,3.03Z"/></g><g><path class="c" d="M177,92.56h-3.67l-.59,1.74h-2.51l3.56-9.83h2.77l3.56,9.83h-2.54l-.59-1.74Zm-1.83-5.45l-1.2,3.6h2.42l-1.22-3.6Z"/><path class="c" d="M180.67,84.47h7.61v1.92h-2.61v7.91h-2.4v-7.91h-2.61v-1.92Z"/><path class="c" d="M189.48,84.47h2.4v9.83h-2.4v-9.83Z"/><path class="c" d="M200.3,84.47h2.54l-3.49,9.83h-3l-3.49-9.83h2.55l2.44,7.42,2.45-7.42Z"/><path class="c" d="M203.83,84.47h2.4v9.83h-2.4v-9.83Z"/><path class="c" d="M216.79,89.38c0,2.91-2.02,4.92-5.15,4.92h-3.68v-9.83h3.68c3.14,0,5.15,1.99,5.15,4.92Zm-5.31,2.84c1.81,0,2.87-1.04,2.87-2.84s-1.06-2.87-2.87-2.87h-1.13v5.71h1.13Z"/><path class="c" d="M224.25,92.56h-3.67l-.59,1.74h-2.51l3.56-9.83h2.77l3.56,9.83h-2.54l-.59-1.74Zm-1.83-5.45l-1.2,3.6h2.42l-1.22-3.6Z"/><path class="c" d="M237.29,89.38c0,2.91-2.02,4.92-5.15,4.92h-3.68v-9.83h3.68c3.14,0,5.15,1.99,5.15,4.92Zm-5.31,2.84c1.81,0,2.87-1.04,2.87-2.84s-1.06-2.87-2.87-2.87h-1.13v5.71h1.13Z"/><path class="c" d="M244.65,86.39h-3.63v1.99h3.21v1.85h-3.21v2.16h3.63v1.92h-6.02v-9.83h6.02v1.92Z"/><path class="c" d="M249.76,94.4c-2.12,0-3.77-1.05-3.84-3.04h2.55c.07,.76,.55,1.12,1.22,1.12s1.15-.35,1.15-.92c0-1.82-4.92-.84-4.89-4.33,0-1.86,1.53-2.9,3.59-2.9s3.59,1.06,3.68,2.94h-2.59c-.04-.63-.49-1.01-1.13-1.02-.57-.01-1.01,.28-1.01,.9,0,1.71,4.86,.94,4.86,4.23,0,1.65-1.29,3.03-3.59,3.03Z"/></g><g><path class="c" d="M298.2,90.77h-1.48v3.53h-2.4v-9.83h3.88c2.41,0,3.61,1.36,3.61,3.17,0,1.62-1.11,3.14-3.61,3.14Zm-.18-1.9c.95,0,1.36-.48,1.36-1.23s-.41-1.23-1.36-1.23h-1.3v2.47h1.3Z"/><path class="c" d="M307.08,84.47c2.41,0,3.61,1.39,3.61,3.1,0,1.23-.67,2.39-2.19,2.84l2.27,3.89h-2.7l-2.05-3.71h-.57v3.71h-2.4v-9.83h4.02Zm-.14,1.99h-1.48v2.44h1.48c.9,0,1.32-.46,1.32-1.23,0-.73-.42-1.21-1.32-1.21Z"/><path class="c" d="M316.84,94.4c-2.79,0-5.06-2.09-5.06-5.04s2.27-5.03,5.06-5.03,5.03,2.07,5.03,5.03-2.24,5.04-5.03,5.04Zm0-2.18c1.57,0,2.59-1.13,2.59-2.86s-1.02-2.86-2.59-2.86-2.61,1.11-2.61,2.86,1.01,2.86,2.61,2.86Z"/><path class="c" d="M332.03,89.38c0,2.91-2.02,4.92-5.15,4.92h-3.68v-9.83h3.68c3.14,0,5.15,1.99,5.15,4.92Zm-5.31,2.84c1.81,0,2.87-1.04,2.87-2.84s-1.06-2.87-2.87-2.87h-1.13v5.71h1.13Z"/><path class="c" d="M333.33,84.47h2.4v5.88c0,1.16,.57,1.83,1.71,1.83s1.74-.67,1.74-1.83v-5.88h2.4v5.87c0,2.72-1.91,4.06-4.17,4.06s-4.06-1.34-4.06-4.06v-5.87Z"/><path class="c" d="M342.71,84.47h7.61v1.92h-2.61v7.91h-2.4v-7.91h-2.61v-1.92Z"/><path class="c" d="M356.16,94.4c-2.79,0-5.06-2.09-5.06-5.04s2.27-5.03,5.06-5.03,5.03,2.07,5.03,5.03-2.24,5.04-5.03,5.04Zm0-2.18c1.57,0,2.59-1.13,2.59-2.86s-1.02-2.86-2.59-2.86-2.61,1.11-2.61,2.86,1.01,2.86,2.61,2.86Z"/><path class="c" d="M366.08,94.4c-2.12,0-3.77-1.05-3.84-3.04h2.55c.07,.76,.55,1.12,1.22,1.12s1.15-.35,1.15-.92c0-1.82-4.92-.84-4.89-4.33,0-1.86,1.53-2.9,3.59-2.9s3.59,1.06,3.68,2.94h-2.59c-.04-.63-.49-1.01-1.13-1.02-.57-.01-1.01,.28-1.01,.9,0,1.71,4.86,.94,4.86,4.23,0,1.65-1.29,3.03-3.59,3.03Z"/></g><g><path class="c" d="M417.5,85.47c2.41,0,3.61,1.39,3.61,3.1,0,1.23-.67,2.39-2.19,2.84l2.27,3.89h-2.7l-2.05-3.71h-.57v3.71h-2.39v-9.83h4.02Zm-.14,1.99h-1.49v2.44h1.49c.9,0,1.32-.46,1.32-1.23,0-.73-.42-1.21-1.32-1.21Z"/><path class="c" d="M428.63,87.39h-3.63v1.99h3.21v1.85h-3.21v2.16h3.63v1.92h-6.02v-9.83h6.02v1.92Z"/><path class="c" d="M433.74,95.4c-2.12,0-3.77-1.05-3.84-3.04h2.55c.07,.76,.55,1.12,1.22,1.12s1.15-.35,1.15-.92c0-1.82-4.92-.84-4.89-4.33,0-1.86,1.53-2.9,3.59-2.9s3.59,1.06,3.68,2.94h-2.59c-.04-.63-.49-1.01-1.13-1.02-.57-.01-1.01,.28-1.01,.9,0,1.71,4.86,.94,4.86,4.23,0,1.65-1.29,3.03-3.59,3.03Z"/><path class="c" d="M438.75,85.47h2.39v5.88c0,1.16,.57,1.83,1.71,1.83s1.74-.67,1.74-1.83v-5.88h2.4v5.87c0,2.72-1.91,4.06-4.17,4.06s-4.06-1.34-4.06-4.06v-5.87Z"/><path class="c" d="M451.06,85.47v7.98h3.14v1.85h-5.53v-9.83h2.4Z"/><path class="c" d="M454.81,85.47h7.61v1.92h-2.61v7.91h-2.4v-7.91h-2.6v-1.92Z"/><path class="c" d="M469.74,93.56h-3.67l-.59,1.74h-2.51l3.56-9.83h2.77l3.56,9.83h-2.54l-.59-1.74Zm-1.83-5.45l-1.2,3.6h2.42l-1.22-3.6Z"/><path class="c" d="M482.77,90.38c0,2.91-2.02,4.92-5.15,4.92h-3.68v-9.83h3.68c3.14,0,5.15,1.99,5.15,4.92Zm-5.31,2.84c1.81,0,2.87-1.04,2.87-2.84s-1.06-2.87-2.87-2.87h-1.13v5.71h1.13Z"/><path class="c" d="M488.76,95.4c-2.79,0-5.06-2.09-5.06-5.04s2.27-5.03,5.06-5.03,5.03,2.07,5.03,5.03-2.24,5.04-5.03,5.04Zm0-2.18c1.57,0,2.59-1.13,2.59-2.86s-1.02-2.86-2.59-2.86-2.61,1.11-2.61,2.86,1.01,2.86,2.61,2.86Z"/><path class="c" d="M498.67,95.4c-2.12,0-3.77-1.05-3.84-3.04h2.55c.07,.76,.55,1.12,1.22,1.12s1.15-.35,1.15-.92c0-1.82-4.92-.84-4.89-4.33,0-1.86,1.53-2.9,3.59-2.9s3.59,1.06,3.68,2.94h-2.59c-.04-.63-.49-1.01-1.13-1.02-.57-.01-1.01,.28-1.01,.9,0,1.71,4.86,.94,4.86,4.23,0,1.65-1.29,3.03-3.59,3.03Z"/></g><g><path class="c" d="M555.19,84.47h2.39v9.83h-2.39v-9.83Z"/><path class="c" d="M559.32,84.47h2.83l2.76,6.81,2.73-6.81h2.82v9.83h-2.4v-5.9l-2.2,5.9h-1.93l-2.21-5.91v5.91h-2.39v-9.83Z"/><path class="c" d="M576.05,90.77h-1.48v3.53h-2.4v-9.83h3.88c2.41,0,3.61,1.36,3.61,3.17,0,1.62-1.11,3.14-3.61,3.14Zm-.18-1.9c.95,0,1.36-.48,1.36-1.23s-.41-1.23-1.36-1.23h-1.3v2.47h1.3Z"/><path class="c" d="M587.02,92.56h-3.67l-.59,1.74h-2.51l3.56-9.83h2.77l3.56,9.83h-2.54l-.59-1.74Zm-1.83-5.45l-1.21,3.6h2.42l-1.22-3.6Z"/><path class="c" d="M595.76,84.36c2.34,0,4.1,1.32,4.67,3.45h-2.63c-.41-.84-1.15-1.26-2.06-1.26-1.47,0-2.48,1.09-2.48,2.83s1.01,2.83,2.48,2.83c.91,0,1.65-.42,2.06-1.26h2.63c-.56,2.13-2.33,3.43-4.67,3.43-2.9,0-4.94-2.06-4.94-5s2.04-5.01,4.94-5.01Z"/><path class="c" d="M601.36,84.47h7.61v1.92h-2.61v7.91h-2.4v-7.91h-2.61v-1.92Z"/><path class="c" d="M614.81,94.4c-2.79,0-5.06-2.09-5.06-5.04s2.27-5.03,5.06-5.03,5.03,2.07,5.03,5.03-2.24,5.04-5.03,5.04Zm0-2.18c1.57,0,2.59-1.13,2.59-2.86s-1.02-2.86-2.59-2.86-2.61,1.11-2.61,2.86,1.01,2.86,2.61,2.86Z"/><path class="c" d="M624.72,94.4c-2.12,0-3.77-1.05-3.84-3.04h2.55c.07,.76,.55,1.12,1.22,1.12s1.15-.35,1.15-.92c0-1.82-4.92-.84-4.89-4.33,0-1.86,1.53-2.9,3.59-2.9s3.59,1.06,3.68,2.94h-2.59c-.04-.63-.49-1.01-1.13-1.02-.57-.01-1.01,.28-1.01,.9,0,1.71,4.86,.94,4.86,4.23,0,1.65-1.29,3.03-3.59,3.03Z"/></g></svg>