<?xml version="1.0" encoding="UTF-8"?><svg id="Camada_1" xmlns="http://www.w3.org/2000/svg" xmlns:xlink="http://www.w3.org/1999/xlink" viewBox="0 0 329.66 314.62"><defs><style>.cls-1{opacity:.75;}.cls-1,.cls-2,.cls-3{fill:#dbdbdb;isolation:isolate;}.cls-4{fill:#fff;}.cls-5{fill:#29696d;}.cls-6{fill:#108141;}.cls-7{clip-path:url(#clippath-2);}.cls-8{clip-path:url(#clippath-1);}.cls-9{clip-path:url(#clippath-4);}.cls-10{fill:#e6e6e6;}.cls-2{opacity:.6;}.cls-11{fill:#6dafcc;}.cls-12{fill:#f4bb2a;}.cls-13{clip-path:url(#clippath);}.cls-14{fill:none;}.cls-3{opacity:.5;}.cls-15{clip-path:url(#clippath-3);}.cls-16{fill:#1b8992;}.cls-17{fill:#cdcdcd;}</style><clipPath id="clippath"><rect class="cls-14" x="58.7" y="75.5" width="66.8" height="42.3"/></clipPath><clipPath id="clippath-1"><rect class="cls-14" x="171.3" y="55.5" width="86.7" height="54.9"/></clipPath><clipPath id="clippath-2"><rect class="cls-14" x="144.56" y="210.9" width="86.7" height="54.9"/></clipPath><clipPath id="clippath-3"><rect class="cls-14" x="200.55" y="133.2" width="100.9" height="54.9"/></clipPath><clipPath id="clippath-4"><rect class="cls-14" x="35.96" y="155.9" width="100.9" height="54.9"/></clipPath></defs><circle class="cls-3" cx="165.5" cy="156.8" r="155"/><circle class="cls-2" cx="165.5" cy="156.8" r="126.5"/><circle class="cls-1" cx="165.5" cy="156.8" r="98"/><g><g class="cls-13"><path id="u" class="cls-10" d="M116.2,117.8h-48.2c-5.1,0-9.3-4.2-9.3-9.3h0v-23.7c0-5.1,4.2-9.3,9.3-9.3h48.2c5.1,0,9.3,4.1,9.3,9.3h0v23.8c0,5-4.2,9.2-9.3,9.2h0"/></g><path id="v" class="cls-16" d="M115.2,116.4h-48.2c-5.1,0-9.3-4.2-9.3-9.3h0v-23.8c0-5.1,4.2-9.3,9.3-9.3h48.2c5.1,0,9.3,4.1,9.3,9.3h0v23.8c0,5.1-4.1,9.3-9.3,9.3h0"/></g><g><g class="cls-8"><path id="x" class="cls-17" d="M248.8,110.4h-68.2c-5.1,0-9.3-4.2-9.3-9.3v-36.3c0-5.1,4.1-9.3,9.3-9.3h68.2c5.1,0,9.3,4.2,9.3,9.3v36.4c0,5.1-4.2,9.2-9.3,9.2"/></g><path id="y" class="cls-11" d="M246.6,108.3h-68.2c-5.1,0-9.3-4.2-9.3-9.3V62.7c0-5.1,4.1-9.3,9.3-9.3h68.2c5.1,0,9.3,4.2,9.3,9.3v36.4c-.1,5.1-4.2,9.3-9.3,9.2"/></g><g><g class="cls-7"><path id="ad" class="cls-17" d="M222.06,265.8h-68.2c-5.1,0-9.3-4.1-9.3-9.3v-36.4c0-5.1,4.1-9.3,9.3-9.3h68.2c5.1,0,9.3,4.1,9.3,9.3v36.4c0,5.2-4.2,9.3-9.3,9.3"/></g><path id="ae" class="cls-12" d="M219.86,263.8h-68.2c-5.1,0-9.3-4.1-9.3-9.3v-36.4c0-5.1,4.1-9.3,9.3-9.3h68.2c5.1,0,9.3,4.1,9.3,9.3v36.4c0,5.1-4.2,9.3-9.3,9.3"/></g><g><g class="cls-15"><path id="ag" class="cls-17" d="M290.75,188.1h-79.4c-6,0-10.8-4.1-10.8-9.3v-36.4c0-5.1,4.8-9.3,10.8-9.3h79.4c6,0,10.8,4.1,10.8,9.3v36.4c0,5.2-4.8,9.3-10.8,9.3"/></g><path id="ah" class="cls-5" d="M288.55,186.1h-79.4c-6,0-10.8-4.1-10.8-9.3v-36.4c0-5.1,4.8-9.3,10.8-9.3h79.4c6,0,10.8,4.1,10.8,9.3v36.4c0,5.1-4.9,9.3-10.8,9.3"/></g><g><g class="cls-9"><path id="ag-2" class="cls-17" d="M126.16,210.8H46.76c-6,0-10.8-4.1-10.8-9.3v-36.4c0-5.1,4.8-9.3,10.8-9.3H126.16c6,0,10.8,4.1,10.8,9.3v36.4c0,5.2-4.8,9.3-10.8,9.3"/></g><path id="ah-2" class="cls-6" d="M123.96,208.8H44.56c-6,0-10.8-4.1-10.8-9.3v-36.4c0-5.1,4.8-9.3,10.8-9.3H123.96c6,0,10.8,4.1,10.8,9.3v36.4c0,5.1-4.9,9.3-10.8,9.3"/></g><g><path class="cls-4" d="M63.84,91.74h2.04v8.39h-2.04v-8.39Z"/><path class="cls-4" d="M74.87,91.74v8.39h-2.04l-3.42-5.17v5.17h-2.04v-8.39h2.04l3.42,5.2v-5.2h2.04Z"/><path class="cls-4" d="M79.39,100.21c-1.8,0-3.21-.9-3.27-2.59h2.17c.06,.65,.47,.96,1.04,.96s.98-.3,.98-.79c0-1.55-4.19-.72-4.17-3.69,0-1.59,1.3-2.47,3.06-2.47s3.06,.91,3.14,2.51h-2.21c-.04-.54-.42-.86-.97-.87-.49-.01-.86,.24-.86,.76,0,1.46,4.15,.8,4.15,3.61,0,1.41-1.1,2.58-3.06,2.58Z"/><path class="cls-4" d="M83.67,91.74h2.04v5.02c0,.99,.49,1.56,1.46,1.56s1.48-.57,1.48-1.56v-5.02h2.04v5.01c0,2.32-1.62,3.46-3.56,3.46s-3.46-1.15-3.46-3.46v-5.01Z"/><path class="cls-4" d="M92.13,91.74h2.41l2.35,5.81,2.33-5.81h2.4v8.39h-2.04v-5.03l-1.88,5.03h-1.65l-1.89-5.04v5.04h-2.04v-8.39Z"/><path class="cls-4" d="M107.06,100.21c-2.38,0-4.31-1.78-4.31-4.3s1.94-4.29,4.31-4.29,4.29,1.77,4.29,4.29-1.91,4.3-4.29,4.3Zm0-1.86c1.34,0,2.21-.97,2.21-2.44s-.87-2.44-2.21-2.44-2.22,.94-2.22,2.44,.86,2.44,2.22,2.44Z"/><path class="cls-4" d="M115.52,100.21c-1.8,0-3.21-.9-3.27-2.59h2.17c.06,.65,.47,.96,1.04,.96s.98-.3,.98-.79c0-1.55-4.19-.72-4.17-3.69,0-1.59,1.3-2.47,3.06-2.47s3.06,.91,3.14,2.51h-2.21c-.04-.54-.42-.86-.97-.87-.49-.01-.86,.24-.86,.76,0,1.46,4.15,.8,4.15,3.61,0,1.41-1.1,2.58-3.06,2.58Z"/></g><g><path class="cls-4" d="M155.58,230.36h2.05v8.42h-2.05v-8.42Z"/><path class="cls-4" d="M159.12,230.36h2.42l2.36,5.83,2.34-5.83h2.41v8.42h-2.05v-5.05l-1.88,5.05h-1.66l-1.9-5.06v5.06h-2.05v-8.42Z"/><path class="cls-4" d="M173.46,235.75h-1.27v3.02h-2.05v-8.42h3.32c2.06,0,3.09,1.16,3.09,2.71,0,1.39-.95,2.69-3.09,2.69Zm-.16-1.63c.82,0,1.16-.41,1.16-1.06s-.35-1.05-1.16-1.05h-1.12v2.11h1.12Z"/><path class="cls-4" d="M182.87,237.29h-3.14l-.5,1.49h-2.15l3.05-8.42h2.38l3.05,8.42h-2.17l-.5-1.49Zm-1.57-4.67l-1.03,3.08h2.07l-1.04-3.08Z"/><path class="cls-4" d="M190.36,230.26c2,0,3.51,1.13,3.99,2.95h-2.25c-.35-.72-.98-1.08-1.76-1.08-1.26,0-2.12,.94-2.12,2.42s.86,2.42,2.12,2.42c.78,0,1.42-.36,1.76-1.08h2.25c-.48,1.82-1.99,2.94-3.99,2.94-2.48,0-4.23-1.76-4.23-4.28s1.75-4.29,4.23-4.29Z"/><path class="cls-4" d="M195.16,230.36h6.51v1.64h-2.23v6.78h-2.05v-6.78h-2.23v-1.64Z"/><path class="cls-4" d="M206.69,238.86c-2.39,0-4.33-1.79-4.33-4.32s1.94-4.31,4.33-4.31,4.31,1.78,4.31,4.31-1.92,4.32-4.31,4.32Zm0-1.87c1.34,0,2.22-.97,2.22-2.45s-.88-2.45-2.22-2.45-2.23,.95-2.23,2.45,.86,2.45,2.23,2.45Z"/><path class="cls-4" d="M215.19,238.86c-1.81,0-3.23-.9-3.29-2.6h2.18c.06,.65,.47,.96,1.04,.96s.98-.3,.98-.79c0-1.56-4.21-.72-4.19-3.71,0-1.59,1.31-2.48,3.07-2.48s3.07,.91,3.15,2.52h-2.22c-.04-.54-.42-.86-.97-.88-.49-.01-.86,.24-.86,.77,0,1.46,4.16,.8,4.16,3.62,0,1.42-1.1,2.59-3.07,2.59Z"/></g><g><path class="cls-4" d="M55.32,182.29h-3.14l-.5,1.49h-2.15l3.05-8.42h2.37l3.05,8.42h-2.17l-.5-1.49Zm-1.57-4.67l-1.03,3.08h2.07l-1.04-3.08Z"/><path class="cls-4" d="M58.47,175.36h6.51v1.64h-2.23v6.78h-2.05v-6.78h-2.23v-1.64Z"/><path class="cls-4" d="M66.02,175.36h2.05v8.42h-2.05v-8.42Z"/><path class="cls-4" d="M75.29,175.36h2.17l-2.99,8.42h-2.57l-2.99-8.42h2.18l2.09,6.36,2.1-6.36Z"/><path class="cls-4" d="M78.32,175.36h2.05v8.42h-2.05v-8.42Z"/><path class="cls-4" d="M89.43,179.57c0,2.49-1.73,4.21-4.41,4.21h-3.15v-8.42h3.15c2.69,0,4.41,1.7,4.41,4.21Zm-4.55,2.43c1.55,0,2.46-.89,2.46-2.43s-.91-2.46-2.46-2.46h-.97v4.89h.97Z"/><path class="cls-4" d="M95.82,182.29h-3.14l-.5,1.49h-2.15l3.05-8.42h2.37l3.05,8.42h-2.17l-.5-1.49Zm-1.57-4.67l-1.03,3.08h2.07l-1.04-3.08Z"/><path class="cls-4" d="M106.99,179.57c0,2.49-1.73,4.21-4.41,4.21h-3.15v-8.42h3.15c2.69,0,4.41,1.7,4.41,4.21Zm-4.55,2.43c1.55,0,2.46-.89,2.46-2.43s-.91-2.46-2.46-2.46h-.97v4.89h.97Z"/><path class="cls-4" d="M113.31,177h-3.11v1.7h2.75v1.58h-2.75v1.85h3.11v1.64h-5.16v-8.42h5.16v1.64Z"/><path class="cls-4" d="M117.69,183.86c-1.81,0-3.23-.9-3.29-2.6h2.18c.06,.65,.47,.96,1.04,.96s.98-.3,.98-.79c0-1.56-4.21-.72-4.19-3.71,0-1.59,1.31-2.48,3.07-2.48s3.07,.91,3.15,2.52h-2.22c-.04-.54-.42-.86-.97-.88-.49-.01-.86,.24-.86,.77,0,1.46,4.16,.8,4.16,3.62,0,1.42-1.1,2.59-3.07,2.59Z"/></g><g><path class="cls-4" d="M221.05,158.05h-1.27v3.02h-2.05v-8.42h3.32c2.06,0,3.09,1.16,3.09,2.71,0,1.39-.95,2.69-3.09,2.69Zm-.16-1.63c.82,0,1.16-.41,1.16-1.06s-.35-1.06-1.16-1.06h-1.12v2.11h1.12Z"/><path class="cls-4" d="M228.66,152.66c2.06,0,3.09,1.19,3.09,2.65,0,1.06-.58,2.05-1.87,2.44l1.94,3.33h-2.32l-1.75-3.18h-.49v3.18h-2.05v-8.42h3.44Zm-.12,1.7h-1.27v2.09h1.27c.77,0,1.13-.4,1.13-1.06,0-.62-.36-1.03-1.13-1.03Z"/><path class="cls-4" d="M237.02,161.16c-2.39,0-4.33-1.79-4.33-4.32s1.94-4.31,4.33-4.31,4.31,1.77,4.31,4.31-1.92,4.32-4.31,4.32Zm0-1.87c1.34,0,2.22-.97,2.22-2.45s-.88-2.45-2.22-2.45-2.23,.95-2.23,2.45,.86,2.45,2.23,2.45Z"/><path class="cls-4" d="M250.04,156.87c0,2.49-1.73,4.21-4.41,4.21h-3.15v-8.42h3.15c2.69,0,4.41,1.7,4.41,4.21Zm-4.54,2.43c1.55,0,2.46-.89,2.46-2.43s-.91-2.46-2.46-2.46h-.97v4.89h.97Z"/><path class="cls-4" d="M251.16,152.66h2.05v5.04c0,1,.49,1.57,1.46,1.57s1.49-.58,1.49-1.57v-5.04h2.05v5.03c0,2.33-1.63,3.48-3.57,3.48s-3.48-1.15-3.48-3.48v-5.03Z"/><path class="cls-4" d="M259.2,152.66h6.51v1.64h-2.23v6.78h-2.05v-6.78h-2.23v-1.64Z"/><path class="cls-4" d="M270.73,161.16c-2.39,0-4.33-1.79-4.33-4.32s1.94-4.31,4.33-4.31,4.31,1.77,4.31,4.31-1.92,4.32-4.31,4.32Zm0-1.87c1.34,0,2.22-.97,2.22-2.45s-.88-2.45-2.22-2.45-2.23,.95-2.23,2.45,.86,2.45,2.23,2.45Z"/><path class="cls-4" d="M279.23,161.16c-1.81,0-3.23-.9-3.29-2.6h2.18c.06,.65,.47,.96,1.04,.96s.98-.3,.98-.79c0-1.56-4.21-.72-4.19-3.71,0-1.6,1.31-2.48,3.07-2.48s3.07,.91,3.15,2.52h-2.22c-.04-.54-.42-.86-.97-.88-.49-.01-.86,.24-.86,.77,0,1.46,4.16,.8,4.16,3.62,0,1.42-1.1,2.59-3.07,2.59Z"/></g><g><path class="cls-4" d="M177.52,77.36c2.06,0,3.09,1.19,3.09,2.65,0,1.06-.58,2.05-1.87,2.44l1.94,3.33h-2.32l-1.75-3.18h-.49v3.18h-2.05v-8.42h3.44Zm-.12,1.7h-1.27v2.09h1.27c.77,0,1.13-.4,1.13-1.06,0-.62-.36-1.03-1.13-1.03Z"/><path class="cls-4" d="M187.06,79h-3.11v1.7h2.75v1.58h-2.75v1.85h3.11v1.64h-5.16v-8.42h5.16v1.64Z"/><path class="cls-4" d="M191.44,85.86c-1.81,0-3.23-.9-3.29-2.6h2.18c.06,.65,.47,.96,1.04,.96s.98-.3,.98-.79c0-1.56-4.21-.72-4.19-3.71,0-1.6,1.31-2.48,3.07-2.48s3.07,.91,3.15,2.52h-2.22c-.04-.54-.42-.86-.97-.88-.49-.01-.86,.24-.86,.77,0,1.46,4.16,.8,4.16,3.62,0,1.42-1.1,2.59-3.07,2.59Z"/><path class="cls-4" d="M195.74,77.36h2.05v5.04c0,1,.49,1.57,1.46,1.57s1.49-.58,1.49-1.57v-5.04h2.05v5.03c0,2.33-1.63,3.48-3.57,3.48s-3.48-1.15-3.48-3.48v-5.03Z"/><path class="cls-4" d="M206.29,77.36v6.84h2.69v1.58h-4.74v-8.42h2.05Z"/><path class="cls-4" d="M209.51,77.36h6.51v1.64h-2.23v6.78h-2.05v-6.78h-2.23v-1.64Z"/><path class="cls-4" d="M222.3,84.29h-3.14l-.5,1.49h-2.15l3.05-8.42h2.38l3.05,8.42h-2.17l-.5-1.49Zm-1.57-4.67l-1.03,3.08h2.07l-1.04-3.08Z"/><path class="cls-4" d="M233.47,81.57c0,2.49-1.73,4.21-4.41,4.21h-3.15v-8.42h3.15c2.69,0,4.41,1.7,4.41,4.21Zm-4.54,2.43c1.55,0,2.46-.89,2.46-2.43s-.91-2.46-2.46-2.46h-.97v4.89h.97Z"/><path class="cls-4" d="M238.6,85.86c-2.39,0-4.33-1.79-4.33-4.32s1.94-4.31,4.33-4.31,4.31,1.77,4.31,4.31-1.92,4.32-4.31,4.32Zm0-1.87c1.34,0,2.22-.97,2.22-2.45s-.88-2.45-2.22-2.45-2.23,.95-2.23,2.45,.86,2.45,2.23,2.45Z"/><path class="cls-4" d="M247.1,85.86c-1.81,0-3.23-.9-3.29-2.6h2.18c.06,.65,.47,.96,1.04,.96s.98-.3,.98-.79c0-1.56-4.21-.72-4.19-3.71,0-1.6,1.31-2.48,3.07-2.48s3.07,.91,3.15,2.52h-2.22c-.04-.54-.42-.86-.97-.88-.49-.01-.86,.24-.86,.77,0,1.46,4.16,.8,4.16,3.62,0,1.42-1.1,2.59-3.07,2.59Z"/></g></svg>