<?xml version="1.0" encoding="UTF-8"?><svg xmlns="http://www.w3.org/2000/svg" viewBox="0 0 500 500"><defs><style>.k,.l,.m,.n,.o,.p,.q,.r{stroke:#263238;stroke-linecap:round;stroke-linejoin:round;}.k,.s{fill:#e9a527;}.l{fill:#3f5677;}.t{stroke:#000;stroke-miterlimit:10;}.t,.p,.q{fill:none;}.m{stroke-width:2px;}.m,.u{fill:#92e3a9;}.v{opacity:.2;}.w{fill:#cdf4f9;}.n{fill:#999;}.x{opacity:.3;}.o{fill:#fff;}.q{stroke-width:5px;}.r,.y{fill:#263238;}</style></defs><g id="a"><g><path class="u" d="M352.61,56.58c-24.29,1.01-48.1,4.44-65.95,6.13-42.14,3.98-84.24,8.49-126.06,14.58-27.14,3.95-54.59,7.23-80.86,14.74-15.42,4.41-34.48,11.18-39.92,26.98-6.28,18.23,3.72,41.81,8.59,59.64,9.43,34.53,21.99,68.41,35.68,101.71,18.52,45.02,38,96.42,70.46,134.81,43.4,51.34,163.14,60.23,211.76-9.65,48.62-69.88,103.75-252.02,92.48-298.32-11.08-45.55-59.5-52.57-106.19-50.63Z"/><path class="w" d="M352.61,56.58c-24.29,1.01-48.1,4.44-65.95,6.13-42.14,3.98-84.24,8.49-126.06,14.58-27.14,3.95-54.59,7.23-80.86,14.74-15.42,4.41-34.48,11.18-39.92,26.98-6.28,18.23,3.72,41.81,8.59,59.64,9.43,34.53,21.99,68.41,35.68,101.71,18.52,45.02,38,96.42,70.46,134.81,43.4,51.34,163.14,60.23,211.76-9.65,48.62-69.88,103.75-252.02,92.48-298.32-11.08-45.55-59.5-52.57-106.19-50.63Z"/></g></g><g id="b"><g class="x"><path class="t" d="M393.39,312.23v-10.94c2.94-2.59,5.61-5.18,7.99-7.77,2.38-2.59,4.28-5.33,5.69-8.21,1.41-2.88,2.12-6.03,2.12-9.44,0-2.77-.72-5.06-2.16-6.89-1.44-1.82-3.55-2.74-6.31-2.74-2.35,0-4.22,.68-5.61,2.03-1.38,1.35-2.07,3.09-2.07,5.21,0,.77,.06,1.49,.18,2.16,.12,.68,.26,1.43,.44,2.25l-8.83,1.68c-.3-.88-.53-1.81-.71-2.78s-.26-1.9-.26-2.78c0-4.71,1.47-8.55,4.41-11.52,2.94-2.97,7.09-4.46,12.45-4.46s9.94,1.58,13.06,4.72c3.12,3.15,4.68,7.61,4.68,13.37,0,3.94-.74,7.5-2.21,10.68-1.47,3.18-3.47,6.12-6,8.83-2.53,2.71-5.36,5.38-8.48,8.03v8.56h-8.39Zm-.44,17.92v-9.71h9.44v9.71h-9.44Z"/></g><g class="x"><path class="t" d="M199.15,107.47v-7.98c2.15-1.89,4.09-3.78,5.83-5.67,1.74-1.89,3.12-3.89,4.15-5.99,1.03-2.1,1.55-4.4,1.55-6.89,0-2.02-.53-3.69-1.58-5.02-1.05-1.33-2.59-2-4.6-2-1.72,0-3.08,.49-4.09,1.48-1.01,.99-1.51,2.25-1.51,3.8,0,.56,.04,1.09,.13,1.58,.09,.49,.19,1.04,.32,1.64l-6.44,1.22c-.22-.64-.39-1.32-.52-2.03-.13-.71-.19-1.38-.19-2.03,0-3.43,1.07-6.24,3.22-8.4,2.15-2.17,5.17-3.25,9.08-3.25s7.25,1.15,9.53,3.45c2.28,2.3,3.41,5.55,3.41,9.76,0,2.88-.54,5.47-1.61,7.79-1.07,2.32-2.53,4.47-4.38,6.44-1.85,1.98-3.91,3.93-6.18,5.86v6.25h-6.12Zm-.32,13.07v-7.08h6.89v7.08h-6.89Z"/></g><g class="x"><path class="t" d="M73.4,338.2v-7.98c2.15-1.89,4.09-3.78,5.83-5.67,1.74-1.89,3.12-3.89,4.15-5.99,1.03-2.1,1.55-4.4,1.55-6.89,0-2.02-.53-3.69-1.58-5.02-1.05-1.33-2.59-2-4.6-2-1.72,0-3.08,.49-4.09,1.48-1.01,.99-1.51,2.25-1.51,3.8,0,.56,.04,1.09,.13,1.58,.09,.49,.19,1.04,.32,1.64l-6.44,1.22c-.22-.64-.39-1.32-.52-2.03-.13-.71-.19-1.38-.19-2.03,0-3.43,1.07-6.24,3.22-8.4,2.15-2.17,5.17-3.25,9.08-3.25s7.25,1.15,9.53,3.45c2.28,2.3,3.41,5.55,3.41,9.76,0,2.88-.54,5.47-1.61,7.79-1.07,2.32-2.53,4.47-4.38,6.44-1.85,1.98-3.91,3.93-6.18,5.86v6.25h-6.12Zm-.32,13.07v-7.08h6.89v7.08h-6.89Z"/></g><g class="x"><path class="t" d="M314.47,128.68v-5.23c1.41-1.24,2.68-2.48,3.82-3.71,1.14-1.24,2.05-2.55,2.72-3.93,.68-1.38,1.01-2.88,1.01-4.52,0-1.32-.35-2.42-1.03-3.29-.69-.87-1.7-1.31-3.02-1.31-1.13,0-2.02,.32-2.68,.97-.66,.65-.99,1.48-.99,2.49,0,.37,.03,.71,.08,1.03,.06,.32,.13,.68,.21,1.08l-4.22,.8c-.14-.42-.25-.87-.34-1.33-.08-.46-.13-.91-.13-1.33,0-2.25,.7-4.09,2.11-5.51,1.41-1.42,3.39-2.13,5.95-2.13s4.76,.75,6.25,2.26c1.49,1.51,2.24,3.64,2.24,6.4,0,1.89-.35,3.59-1.06,5.11-.7,1.52-1.66,2.93-2.87,4.22-1.21,1.29-2.56,2.57-4.05,3.84v4.09h-4.01Zm-.21,8.57v-4.64h4.52v4.64h-4.52Z"/></g><g class="x"><path class="t" d="M314.28,391.96v-5.23c1.41-1.24,2.68-2.48,3.82-3.71,1.14-1.24,2.05-2.55,2.72-3.93,.68-1.38,1.01-2.88,1.01-4.52,0-1.32-.35-2.42-1.03-3.29-.69-.87-1.7-1.31-3.02-1.31-1.13,0-2.02,.32-2.68,.97-.66,.65-.99,1.48-.99,2.49,0,.37,.03,.71,.08,1.03,.06,.32,.13,.68,.21,1.08l-4.22,.8c-.14-.42-.25-.87-.34-1.33-.08-.46-.13-.91-.13-1.33,0-2.25,.7-4.09,2.11-5.51,1.41-1.42,3.39-2.13,5.95-2.13s4.76,.75,6.25,2.26c1.49,1.51,2.24,3.64,2.24,6.4,0,1.89-.35,3.59-1.06,5.11-.7,1.52-1.66,2.93-2.87,4.22-1.21,1.29-2.56,2.57-4.05,3.84v4.09h-4.01Zm-.21,8.57v-4.64h4.52v4.64h-4.52Z"/></g><g class="x"><path class="t" d="M58.12,146.35v-5.23c1.41-1.24,2.68-2.48,3.82-3.71,1.14-1.24,2.05-2.55,2.72-3.93,.68-1.38,1.01-2.88,1.01-4.52,0-1.32-.35-2.42-1.03-3.29-.69-.87-1.7-1.31-3.02-1.31-1.13,0-2.02,.32-2.68,.97-.66,.65-.99,1.48-.99,2.49,0,.37,.03,.71,.08,1.03,.06,.32,.13,.68,.21,1.08l-4.22,.8c-.14-.42-.25-.87-.34-1.33-.08-.46-.13-.91-.13-1.33,0-2.25,.7-4.09,2.11-5.51,1.41-1.42,3.39-2.13,5.95-2.13s4.76,.75,6.25,2.26c1.49,1.51,2.24,3.64,2.24,6.4,0,1.89-.35,3.59-1.06,5.11-.7,1.52-1.66,2.93-2.87,4.22-1.21,1.29-2.56,2.57-4.05,3.84v4.09h-4.01Zm-.21,8.57v-4.64h4.52v4.64h-4.52Z"/></g><g class="x"><path class="t" d="M138.51,255.75v-5.23c1.41-1.24,2.68-2.48,3.82-3.71,1.14-1.24,2.05-2.55,2.72-3.93,.68-1.38,1.01-2.88,1.01-4.52,0-1.32-.35-2.42-1.03-3.29-.69-.87-1.7-1.31-3.02-1.31-1.13,0-2.02,.32-2.68,.97-.66,.65-.99,1.48-.99,2.49,0,.37,.03,.71,.08,1.03,.06,.32,.13,.68,.21,1.08l-4.22,.8c-.14-.42-.25-.87-.34-1.33-.08-.46-.13-.91-.13-1.33,0-2.25,.7-4.09,2.11-5.51,1.41-1.42,3.39-2.13,5.95-2.13s4.76,.75,6.25,2.26c1.49,1.51,2.24,3.64,2.24,6.4,0,1.89-.35,3.59-1.06,5.11-.7,1.52-1.66,2.93-2.87,4.22-1.21,1.29-2.56,2.57-4.05,3.84v4.09h-4.01Zm-.21,8.57v-4.64h4.52v4.64h-4.52Z"/></g><g class="x"><path class="t" d="M444.64,191.01v-5.23c1.41-1.24,2.68-2.48,3.82-3.71,1.14-1.24,2.05-2.55,2.72-3.93,.68-1.38,1.01-2.88,1.01-4.52,0-1.32-.35-2.42-1.03-3.29-.69-.87-1.7-1.31-3.02-1.31-1.13,0-2.02,.32-2.68,.97-.66,.65-.99,1.48-.99,2.49,0,.37,.03,.71,.08,1.03,.06,.32,.13,.68,.21,1.08l-4.22,.8c-.14-.42-.25-.87-.34-1.33-.08-.46-.13-.91-.13-1.33,0-2.25,.7-4.09,2.11-5.51,1.41-1.42,3.39-2.13,5.95-2.13s4.76,.75,6.25,2.26c1.49,1.51,2.24,3.64,2.24,6.4,0,1.89-.35,3.59-1.06,5.11-.7,1.52-1.66,2.93-2.87,4.22-1.21,1.29-2.56,2.57-4.05,3.84v4.09h-4.01Zm-.21,8.57v-4.64h4.52v4.64h-4.52Z"/></g></g><g id="c"><g><g><circle class="o" cx="375.45" cy="109.5" r="25.86" transform="translate(-15.06 88.18) rotate(-13.13)"/><circle class="m" cx="375.45" cy="109.5" r="20.1" transform="translate(109.99 396.71) rotate(-63.51)"/></g><g><line class="q" x1="366.69" y1="100.74" x2="384.21" y2="118.26"/><line class="q" x1="384.21" y1="100.74" x2="366.69" y2="118.26"/></g></g></g><g id="d"><g><g><circle class="o" cx="119.28" cy="109.46" r="25.86" transform="translate(-42.47 116.4) rotate(-45)"/><circle class="m" cx="119.28" cy="109.46" r="20.1"/></g><polyline class="q" points="105.59 107.94 112.54 118.22 129.18 101.54"/></g></g><g id="e"><g><path class="y" d="M102.77,161.92c-3.61,0-6.42-1.72-6.6-5.2h4.81c.09,1.22,.8,1.63,1.63,1.63s1.43-.41,1.43-1.17c-.02-2.6-7.89-1.38-7.82-7.01,0-3.17,2.64-4.88,6.07-4.88,3.73,0,6.16,1.82,6.32,5.04h-4.9c-.05-1.01-.67-1.47-1.49-1.47-.67-.02-1.2,.37-1.2,1.15,0,2.41,7.8,1.63,7.8,6.83,0,2.85-2.21,5.08-6.05,5.08Z"/><path class="y" d="M110.92,145.55h4.51v16.21h-4.51v-16.21Z"/><path class="y" d="M118,145.55h5.45l4.07,10.53,3.98-10.53h5.43v16.21h-4.51v-8.94l-3.06,8.94h-3.77l-3.08-9.01v9.01h-4.51v-16.21Z"/></g><g><path class="y" d="M371.55,145.55v16.21h-4.51l-6-9.06v9.06h-4.51v-16.21h4.51l6,9.17v-9.17h4.51Z"/><path class="y" d="M384.38,159.12h-5.75l-.88,2.64h-4.74l5.91-16.21h5.2l5.89,16.21h-4.76l-.87-2.64Zm-4.42-18.35c1.43,0,2.23,1.06,3.15,1.06,.55,0,.9-.35,1.01-1.06h2.28c-.46,2.69-1.7,3.73-3.45,3.73-1.43,0-2.23-1.04-3.15-1.04-.55,0-.9,.32-1.04,1.06h-2.25c.46-2.69,1.7-3.75,3.45-3.75Zm1.54,9.66l-1.72,5.24h3.47l-1.75-5.24Z"/><path class="y" d="M399.26,161.92c-4.6,0-8.32-3.45-8.32-8.32s3.73-8.3,8.32-8.3,8.3,3.43,8.3,8.3-3.7,8.32-8.3,8.32Zm0-4.19c2.32,0,3.73-1.63,3.73-4.14s-1.4-4.16-3.73-4.16-3.72,1.61-3.72,4.16,1.38,4.14,3.72,4.14Z"/></g></g><g id="f"/><g id="g"><g><path class="y" d="M150.36,393.58c-1.98,.83-6.8,.65-6.81,.65-.05,0,1.09-3.14,1.18-3.33,1.09-2.2,4.49-5.8,7.21-5.39,1.96,.3,3.02,2.27,2.55,4.11-.48,1.88-2.44,3.25-4.13,3.96Z"/><path class="y" d="M95.16,396.51c1.91-.05,5.52-1.73,6.31-2.11,.66,1.1,1.3,2.24,1.91,3.47,1.05,2.12,2.05,4.43,2.77,6.91,.04,.14,.06,.29,.1,.42-.28-.41-1.95-2.58-2.09-2.72-1.71-1.76-6.05-4.15-8.51-2.92-1.77,.88-2.18,3.09-1.16,4.7,1.03,1.64,3.31,2.35,5.14,2.5,2.1,.18,6.48-1.4,6.65-1.46,.64,2.33,1.12,4.77,1.47,7.28,.26,1.82,.44,3.67,.61,5.53-.37-.53-1.93-2.55-2.06-2.68-1.71-1.76-6.05-4.15-8.51-2.92-1.77,.88-2.18,3.09-1.16,4.69,1.03,1.64,3.31,2.35,5.14,2.5,2.05,.18,6.26-1.32,6.61-1.44,.08,.84,.15,1.69,.22,2.53,.23,2.76,.44,5.53,.74,8.26,.1,.95,.24,1.87,.37,2.8-.58-.78-1.67-2.18-1.77-2.29-1.71-1.76-6.05-4.15-8.51-2.92-1.77,.88-2.18,3.09-1.16,4.7,1.03,1.64,3.31,2.35,5.14,2.5,1.83,.16,5.4-1.02,6.39-1.37,.23,1.55,.49,3.07,.82,4.57,.16,.64,.27,1.3,.46,1.91,.17,.61,.35,1.22,.52,1.83,.4,1.23,.76,2.38,1.16,3.52,.2,.58,.4,1.12,.59,1.68-.47-.88-1.24-2.26-1.33-2.38-1.43-2-5.35-5.01-7.97-4.18-1.89,.6-2.62,2.72-1.86,4.46,.77,1.78,2.92,2.82,4.7,3.25,1.96,.47,6.2-.32,6.72-.42,.49,1.36,.99,2.69,1.47,3.92,.21,.53,.41,1.04,.62,1.55l1.82,.03c-.3-.7-.61-1.42-.93-2.18-.46-1.1-.93-2.28-1.4-3.49,.47-.22,4.1-1.95,5.53-3.45,1.6,.93,3.41,1.69,3.73,1.82-.34,1.41-.66,2.79-.94,4.08-.25,1.16-.47,2.26-.67,3.3h1.72c.16-.94,.34-1.93,.54-2.98,.22-1.17,.48-2.41,.75-3.69,.53,.08,4.79,.68,6.73,.12,1.76-.51,3.86-1.65,4.55-3.46,.68-1.77-.15-3.86-2.06-4.38-2.65-.72-6.44,2.47-7.78,4.52-.09,.13-.92,1.8-1.33,2.66,.17-.77,.34-1.53,.52-2.33,.26-1.15,.58-2.35,.88-3.52,.18-.6,.36-1.21,.54-1.82,.17-.62,.41-1.19,.61-1.8,.32-.88,.69-1.78,1.06-2.67,1.15,.34,4.55,1.28,6.31,1.05,1.82-.24,4.07-1.04,5.03-2.73,.94-1.65,.44-3.84-1.37-4.64-2.51-1.11-6.74,1.46-8.38,3.29-.05,.06-.36,.48-.72,.99,.39-.86,.77-1.73,1.19-2.59,1.19-2.44,2.49-4.89,3.77-7.35,.27-.51,.53-1.03,.79-1.54,.97,.29,4.64,1.34,6.49,1.1,1.82-.24,4.07-1.04,5.03-2.73,.94-1.65,.44-3.84-1.37-4.64-2.51-1.11-6.74,1.46-8.38,3.29-.06,.07-.42,.57-.82,1.14,.68-1.35,1.34-2.7,1.95-4.06,1.07-2.38,2-4.78,2.72-7.18,.34,.11,4.62,1.42,6.67,1.15,1.82-.24,4.06-1.04,5.03-2.73,.94-1.65,.44-3.84-1.37-4.64-2.51-1.11-6.74,1.46-8.38,3.29-.12,.13-1.42,1.97-1.86,2.64,0-.03,.02-.06,.03-.09,.73-2.52,1.11-5.02,1.36-7.41,.25-2.38,.29-4.65,.26-6.73-.02-2.09-.16-3.99-.3-5.68-.08-.91-.18-1.75-.27-2.52l.05,.03s1.01-3.16,1.05-3.37c.44-2.41-.13-7.33-2.55-8.63-1.74-.94-3.78,.01-4.5,1.77-.74,1.79,0,4.06,.93,5.64,.95,1.62,4.09,3.91,4.88,4.47,.08,.81,.16,1.67,.23,2.63,.1,1.68,.21,3.59,.18,5.67,0,.55-.04,1.15-.05,1.73-.17-.98-.43-2.32-.47-2.45-.72-2.34-3.49-6.45-6.24-6.49-1.98-.03-3.35,1.75-3.18,3.64,.17,1.93,1.88,3.6,3.43,4.58,1.62,1.02,5.56,1.6,6.42,1.72-.06,1.28-.15,2.59-.32,3.95-.3,2.34-.73,4.83-1.5,7.29-.04,.14-.1,.27-.15,.41,0-.5-.2-3.23-.24-3.42-.46-2.41-2.76-6.8-5.49-7.13-1.96-.24-3.52,1.38-3.56,3.27-.04,1.94,1.47,3.79,2.91,4.92,1.66,1.31,6.18,2.41,6.35,2.45-.75,2.3-1.7,4.6-2.79,6.88-.79,1.66-1.66,3.3-2.54,4.94-.02-.65-.21-3.19-.24-3.37-.46-2.41-2.76-6.8-5.49-7.13-1.96-.24-3.52,1.38-3.56,3.27-.04,1.94,1.47,3.79,2.91,4.92,1.62,1.28,5.95,2.35,6.31,2.44-.4,.75-.8,1.49-1.21,2.24-1.34,2.43-2.69,4.86-3.94,7.3-.44,.84-.83,1.69-1.24,2.54-.06-.97-.19-2.74-.22-2.89-.46-2.41-2.76-6.8-5.49-7.13-1.96-.24-3.52,1.38-3.56,3.27-.04,1.94,1.47,3.79,2.91,4.92,1.44,1.14,5.06,2.13,6.09,2.39-.66,1.42-1.28,2.84-1.83,4.26-.22,.62-.49,1.24-.67,1.85-.19,.61-.39,1.21-.58,1.81-.35,1.25-.68,2.41-.98,3.58-.15,.59-.29,1.15-.43,1.73,.09-.99,.21-2.57,.2-2.71-.09-2.45-1.7-7.14-4.34-7.88-1.9-.54-3.69,.83-4.02,2.7-.04,.24-.06,.48-.06,.72-1.18,1.84-1.8,4.48-1.79,6.11,0,.16,.22,2.01,.36,2.96-.28-.73-.57-1.46-.85-2.23-.41-1.1-.81-2.28-1.21-3.42-.18-.6-.37-1.2-.55-1.81-.2-.61-.32-1.22-.48-1.84-.22-.91-.41-1.86-.59-2.81,1.15-.35,4.5-1.45,5.84-2.61,1.39-1.2,2.82-3.11,2.69-5.05-.13-1.9-1.75-3.44-3.7-3.12-2.71,.46-4.82,4.94-5.17,7.37-.01,.08-.03,.6-.05,1.22-.15-.93-.31-1.86-.43-2.81-.35-2.7-.63-5.45-.91-8.21-.06-.58-.13-1.15-.19-1.72,.97-.29,4.61-1.45,6.02-2.66,1.38-1.2,2.82-3.11,2.69-5.05-.13-1.89-1.75-3.44-3.7-3.11-2.71,.46-4.82,4.94-5.17,7.37-.01,.09-.04,.71-.06,1.4-.18-1.5-.37-2.99-.61-4.46-.42-2.58-.97-5.09-1.69-7.49,.34-.1,4.64-1.37,6.2-2.72,1.39-1.2,2.82-3.11,2.69-5.05-.13-1.89-1.75-3.44-3.7-3.11-2.71,.46-4.82,4.94-5.17,7.37-.03,.17-.1,2.42-.09,3.23,0-.03-.01-.06-.02-.09-.78-2.51-1.84-4.8-2.95-6.93-1.1-2.13-2.33-4.03-3.49-5.76-1.16-1.73-2.34-3.24-3.38-4.57-.57-.72-1.11-1.36-1.62-1.95h.06c.05,0-.9-3.2-.98-3.39-.96-2.26-4.15-6.05-6.89-5.8-1.97,.18-3.14,2.1-2.78,3.96,.37,1.9,2.25,3.38,3.89,4.19,1.69,.82,5.57,1,6.54,1.03,.52,.63,1.06,1.31,1.64,2.07,1.02,1.35,2.15,2.88,3.27,4.63,.3,.46,.6,.98,.91,1.47-.68-.72-1.63-1.7-1.74-1.78-1.89-1.56-6.47-3.46-8.78-1.97-1.66,1.07-1.82,3.31-.64,4.79,1.21,1.52,3.55,1.97,5.38,1.92Z"/><path class="y" d="M101.58,393.89s-.83-3.22-.85-3.43c-.3-2.43,.55-7.31,3.04-8.47,1.79-.83,3.77,.23,4.39,2.03,.64,1.83-.24,4.05-1.26,5.58-1.2,1.79-5.32,4.29-5.32,4.3Z"/></g><g><path class="y" d="M400.31,393.58c-1.98,.83-6.8,.65-6.81,.65-.05,0,1.08-3.14,1.18-3.33,1.09-2.2,4.49-5.8,7.21-5.39,1.96,.3,3.02,2.27,2.55,4.11-.48,1.88-2.44,3.25-4.13,3.96Z"/><path class="y" d="M345.1,396.51c1.91-.05,5.52-1.73,6.31-2.11,.65,1.1,1.3,2.24,1.91,3.47,1.05,2.12,2.05,4.43,2.77,6.91,.04,.14,.06,.29,.1,.42-.28-.41-1.95-2.58-2.09-2.72-1.71-1.76-6.05-4.15-8.51-2.92-1.77,.88-2.18,3.09-1.16,4.7,1.03,1.64,3.31,2.35,5.14,2.5,2.1,.18,6.48-1.4,6.65-1.46,.64,2.33,1.12,4.77,1.47,7.28,.26,1.82,.44,3.67,.61,5.53-.37-.53-1.93-2.55-2.06-2.68-1.71-1.76-6.05-4.15-8.51-2.92-1.77,.88-2.18,3.09-1.16,4.69,1.03,1.64,3.31,2.35,5.14,2.5,2.05,.18,6.26-1.32,6.61-1.44,.08,.84,.15,1.69,.22,2.53,.23,2.76,.44,5.53,.74,8.26,.1,.95,.24,1.87,.37,2.8-.58-.78-1.67-2.18-1.77-2.29-1.71-1.76-6.05-4.15-8.51-2.92-1.77,.88-2.18,3.09-1.16,4.7,1.03,1.64,3.31,2.35,5.14,2.5,1.83,.16,5.4-1.02,6.39-1.37,.23,1.55,.49,3.07,.82,4.57,.16,.64,.27,1.3,.46,1.91,.17,.61,.35,1.22,.52,1.83,.4,1.23,.76,2.38,1.16,3.52,.2,.58,.4,1.12,.59,1.68-.47-.88-1.24-2.26-1.33-2.38-1.43-2-5.35-5.01-7.97-4.18-1.89,.6-2.62,2.72-1.86,4.46,.77,1.78,2.92,2.82,4.7,3.25,1.96,.47,6.2-.32,6.72-.42,.49,1.36,.99,2.69,1.47,3.92,.21,.53,.41,1.04,.62,1.55l1.82,.03c-.3-.7-.61-1.42-.93-2.18-.46-1.1-.93-2.28-1.4-3.49,.47-.22,4.1-1.95,5.53-3.45,1.6,.93,3.41,1.69,3.73,1.82-.34,1.41-.66,2.79-.94,4.08-.25,1.16-.47,2.26-.67,3.3h1.72c.16-.94,.34-1.93,.54-2.98,.22-1.17,.48-2.41,.75-3.69,.53,.08,4.79,.68,6.73,.12,1.76-.51,3.86-1.65,4.55-3.46,.68-1.77-.15-3.86-2.06-4.38-2.65-.72-6.44,2.47-7.78,4.52-.09,.13-.92,1.8-1.33,2.66,.17-.77,.34-1.53,.52-2.33,.26-1.15,.58-2.35,.88-3.52,.18-.6,.36-1.21,.54-1.82,.17-.62,.41-1.19,.61-1.8,.32-.88,.69-1.78,1.06-2.67,1.15,.34,4.55,1.28,6.31,1.05,1.82-.24,4.07-1.04,5.03-2.73,.94-1.65,.44-3.84-1.37-4.64-2.51-1.11-6.74,1.46-8.38,3.29-.05,.06-.36,.48-.72,.99,.39-.86,.77-1.73,1.19-2.59,1.19-2.44,2.49-4.89,3.77-7.35,.27-.51,.53-1.03,.79-1.54,.97,.29,4.64,1.34,6.49,1.1,1.82-.24,4.07-1.04,5.03-2.73,.94-1.65,.44-3.84-1.37-4.64-2.51-1.11-6.74,1.46-8.38,3.29-.06,.07-.42,.57-.82,1.14,.68-1.35,1.34-2.7,1.95-4.06,1.07-2.38,2-4.78,2.72-7.18,.34,.11,4.62,1.42,6.67,1.15,1.82-.24,4.06-1.04,5.03-2.73,.94-1.65,.44-3.84-1.37-4.64-2.51-1.11-6.74,1.46-8.38,3.29-.12,.13-1.42,1.97-1.86,2.64,0-.03,.02-.06,.03-.09,.73-2.52,1.11-5.02,1.36-7.41,.25-2.38,.29-4.65,.26-6.73-.02-2.09-.16-3.99-.3-5.68-.08-.91-.18-1.75-.27-2.52l.05,.03s1.01-3.16,1.05-3.37c.44-2.41-.13-7.33-2.55-8.63-1.74-.94-3.78,.01-4.5,1.77-.74,1.79,0,4.06,.93,5.64,.95,1.62,4.09,3.91,4.88,4.47,.08,.81,.16,1.67,.23,2.63,.1,1.68,.21,3.59,.18,5.67,0,.55-.04,1.15-.05,1.73-.17-.98-.43-2.32-.47-2.45-.72-2.34-3.49-6.45-6.24-6.49-1.98-.03-3.35,1.75-3.18,3.64,.17,1.93,1.88,3.6,3.43,4.58,1.62,1.02,5.56,1.6,6.42,1.72-.06,1.28-.15,2.59-.32,3.95-.3,2.34-.73,4.83-1.5,7.29-.04,.14-.1,.27-.15,.41,0-.5-.2-3.23-.24-3.42-.46-2.41-2.76-6.8-5.49-7.13-1.96-.24-3.52,1.38-3.56,3.27-.04,1.94,1.47,3.79,2.91,4.92,1.66,1.31,6.18,2.41,6.35,2.45-.75,2.3-1.7,4.6-2.79,6.88-.79,1.66-1.66,3.3-2.54,4.94-.02-.65-.21-3.19-.24-3.37-.46-2.41-2.76-6.8-5.49-7.13-1.96-.24-3.52,1.38-3.56,3.27-.04,1.94,1.47,3.79,2.91,4.92,1.62,1.28,5.95,2.35,6.31,2.44-.4,.75-.8,1.49-1.21,2.24-1.34,2.43-2.69,4.86-3.94,7.3-.44,.84-.83,1.69-1.24,2.54-.06-.97-.19-2.74-.22-2.89-.46-2.41-2.76-6.8-5.49-7.13-1.96-.24-3.52,1.38-3.56,3.27-.04,1.94,1.47,3.79,2.91,4.92,1.44,1.14,5.06,2.13,6.09,2.39-.66,1.42-1.28,2.84-1.83,4.26-.22,.62-.49,1.24-.67,1.85-.19,.61-.39,1.21-.58,1.81-.35,1.25-.68,2.41-.98,3.58-.15,.59-.29,1.15-.43,1.73,.09-.99,.21-2.57,.2-2.71-.09-2.45-1.7-7.14-4.34-7.88-1.9-.54-3.69,.83-4.02,2.7-.04,.24-.06,.48-.06,.72-1.18,1.84-1.8,4.48-1.79,6.11,0,.16,.22,2.01,.36,2.96-.28-.73-.57-1.46-.85-2.23-.41-1.1-.81-2.28-1.21-3.42-.18-.6-.37-1.2-.55-1.81-.2-.61-.32-1.22-.48-1.84-.22-.91-.41-1.86-.59-2.81,1.15-.35,4.5-1.45,5.84-2.61,1.39-1.2,2.82-3.11,2.69-5.05-.13-1.9-1.75-3.44-3.7-3.12-2.71,.46-4.82,4.94-5.17,7.37-.01,.08-.03,.6-.05,1.22-.15-.93-.31-1.86-.43-2.81-.35-2.7-.63-5.45-.91-8.21-.06-.58-.13-1.15-.19-1.72,.97-.29,4.61-1.45,6.02-2.66,1.38-1.2,2.82-3.11,2.69-5.05-.13-1.89-1.75-3.44-3.7-3.11-2.71,.46-4.82,4.94-5.17,7.37-.01,.09-.04,.71-.06,1.4-.18-1.5-.37-2.99-.61-4.46-.42-2.58-.97-5.09-1.69-7.49,.34-.1,4.64-1.37,6.2-2.72,1.39-1.2,2.82-3.11,2.69-5.05-.13-1.89-1.75-3.44-3.7-3.11-2.71,.46-4.82,4.94-5.17,7.37-.03,.17-.1,2.42-.09,3.23,0-.03-.01-.06-.02-.09-.78-2.51-1.84-4.8-2.95-6.93-1.1-2.13-2.33-4.03-3.49-5.76-1.16-1.73-2.34-3.24-3.38-4.57-.57-.72-1.11-1.36-1.62-1.95h.06c.05,0-.9-3.2-.98-3.39-.96-2.26-4.15-6.05-6.89-5.8-1.97,.18-3.14,2.1-2.78,3.96,.37,1.9,2.25,3.38,3.89,4.19,1.69,.82,5.57,1,6.54,1.03,.52,.63,1.06,1.31,1.64,2.07,1.02,1.35,2.15,2.88,3.27,4.63,.3,.46,.6,.98,.91,1.47-.68-.72-1.63-1.7-1.74-1.78-1.89-1.56-6.47-3.46-8.78-1.97-1.66,1.07-1.82,3.31-.64,4.79,1.21,1.52,3.55,1.97,5.38,1.92Z"/><path class="y" d="M351.53,393.89s-.83-3.22-.85-3.43c-.3-2.43,.55-7.31,3.04-8.47,1.79-.83,3.77,.23,4.39,2.03,.64,1.83-.24,4.05-1.26,5.58-1.2,1.79-5.32,4.29-5.32,4.3Z"/></g></g><g id="h"><g><line class="p" x1="436.05" y1="452.31" x2="451.07" y2="452.31"/><line class="p" x1="52.28" y1="452.31" x2="426.37" y2="452.31"/></g></g><g id="i"><line class="p" x1="253.99" y1="36.31" x2="253.99" y2="452.34"/></g><g id="j"><g><path class="v" d="M350.76,285.38c-.8-1.07-1.77-1.93-2.54-2.62-.3-.27-.57-.5-.77-.71-.17-.17-23.64-28.63-25.56-31.9-.57-.97-1.28-2.45-2.03-4.02-2.09-4.38-3.68-7.53-5.1-8.17-.1-.05-7.32-3.24-12.82-5.34,3.46-1.38,7.13-3.48,6.41-8.2-.52-3.42-2.37-6.04-4-8.35-1.99-2.83-3.72-5.27-2.44-8.35,.87-2.1,2.18-3.72,3.44-5.3,2.25-2.79,4.57-5.67,4.22-11.07-.48-7.29-4.85-25.38-14.72-31.62-9.18-5.81-31.74-6.25-32.99-6.27-1.17-.12-10.46-1-12.61,2.13l-.29,.42c-.47,.68-.93,1.34-1.28,2.01-2.74-.46-6.33-.44-8.24,2.17-2.34,3.2,1.22,8.64,3.64,11.69-.65,1.08-1.29,2.16-1.89,3.2-3.47,6.03-3.53,6.14-2.82,7.35l.1,.17c.5,.88,.84,2.62,.95,3.22-2.11,2.49-5.58,6.42-6.35,6.86-.44,.25-.58,.61-.61,.87-.14,1.02,1.03,2.3,2.46,3.74l1.28,1.29c.17,1.03,1.1,6.59,1.82,10.71-.05-.04-.08-.1-.14-.13-.78-.47-1.7,.38-2.01,.66-1.98,1.81-6.41,9.03-6.77,11.03-.24,1.35-.31,5.73-.33,8.12-.49,.64-.94,1.25-1.34,1.8-10.95,2.71-21.28,5.66-21.5,7.2-.36,2.54-.92,32.71,0,46.64,.45,6.81,.05,11.84-.24,15.51-.3,3.83-.5,6.37,.48,8.14,.73,1.31,2.36,3.03,4.17,4.71,1.95,3.47,6,9.63,9.54,12.3-.07,.18-.13,.34-.21,.52,0,.01,0,.03,0,.04-3.85,9.89-11.36,31.13-12.55,49.31-1.6,24.52,13.72,76.8,13.88,77.33,.06,.2,.25,.34,.46,.34h33.73c.27,0,.48-.21,.48-.48v-64.57c0-.56,.46-1.02,1.02-1.02s1.02,.46,1.02,1.02v64.57c0,.27,.21,.48,.48,.48h33.73c.19,0,.36-.11,.44-.29,.21-.48,20.57-47.84,16.44-78.57-1.14-8.49-2.63-16.18-4.19-22.88,.87,.17,1.67,.27,2.17,.21,1.68-.19,4.81-2.01,5.78-3.36,.84-1.18,2.1-4.1,2.3-4.59l20.54-24.78c1.78,.9,2.61,1.15,3.03,1.15,.3,0,.39-.13,.45-.22,.13-.19,.44-.63,.86-1.21,5.67-7.92,5.84-8.81,5.44-9.34-.13-.17-1.06-.67-2.51-1.37,1.86-2.76,7.24-10.85,8.16-13.94,1.14-3.8,1.12-6.65-.07-8.24Zm-29.03,13.27l-.7,1.4s-.03,.07-.04,.11l-1.75,8.07c-.04,.19,.04,.39,.2,.5,.24,.16,.47,.31,.71,.47l-13.55,27.37c-1.09-1.19-2.65-2.89-3.38-3.76l-.17-.21c-.47-.55-1.44-1.7-3.14-3.96-.51-.68-.92-1.93-1.32-3.14-.59-1.8-1.06-3.23-1.95-3.53-.17-.06-.42-.09-.7,.01-.11-1.26-.52-3.05-.91-4.79-.33-1.44-.63-2.8-.7-3.58-.17-1.92,1.26-11.97,1.25-11.98l9.91-29.56,18.57,21.3c-.98,.05-2.31,.23-2.83,.87-.23,.28-.31,.63-.21,.99,.19,.74,.59,2.06,.96,3.2-.1,.04-.18,.11-.23,.22Zm-82.92-84.99c.45,1.98,2.33,3.47,3.73,3.57,.95,.07,4.54-.19,5.79-.28,.13,.63,.4,1.93,.77,3.67-.94,.47-2.55,1.53-3.3,3.45-1.04-.91-2.28-1.95-3.47-2.86-.21-2.49-.67-3.95-1.44-4.56-.38-.3-.83-.4-1.31-.28-.99,.23-1.55,1.18-1.86,2.39-.46-.03-.8,.05-1,.27-.12,.12-.18,.27-.19,.4-.46,.54-1.25,1.48-2.21,2.62l-.14-2.65c.65-1.03,3.79-6,4.12-7.3,.02-.06,.06-.27,.11-.55,.18,.98,.32,1.74,.4,2.09Z"/><g><path class="l" d="M295.59,370.72c-4.33-32.25-13.38-53.22-13.38-53.22l-76.16-2.62s-13.72,31.29-15.4,57.04c-1.68,25.75,14.44,80.39,14.44,80.39h35.14v-67.27c0-.86,.7-1.56,1.56-1.56s1.56,.7,1.56,1.56v67.27h35.14s21.42-49.34,17.09-81.59Z"/><g><path class="n" d="M282.21,317.5l-76.16-2.62s-.94,2.16-2.36,5.78c4.36,1.7,15.53,5.26,36.78,7.22,21.17,1.96,36.16-4.76,42.53-8.4-.5-1.29-.8-1.97-.8-1.97Z"/><g><path class="n" d="M242.38,329.86s15.21,4.69,17.5,3.93c2.29-.76,2.16-4.57,0-6.1-2.16-1.52-16.9-5.28-16.9-5.28,0,0-3.56-.69-4.95,.96-1.4,1.65-.76,4.7,.38,5.59,1.14,.89,3.97,.9,3.97,.9Z"/><path class="o" d="M242.38,329.86c-2.16,0-3.91-1.68-3.91-3.75s1.75-3.75,3.91-3.75c.21,0,.4,.03,.6,.06-.66-.35-1.41-.57-2.22-.57-2.56,0-4.64,1.99-4.64,4.45s2.08,4.45,4.64,4.45c1.2,0,.88,.26,1.7-.45-.46,.18,.44-.43-.08-.43Z"/></g></g><g><path class="s" d="M232.51,217.09s-42.72,9.3-43.1,11.96c-.38,2.65-.95,34.09,0,48.49,.95,14.39-1.7,21.02,.19,24.43s10.23,9.85,11.36,10.8,6.25,5.49,6.25,5.49c0,0,8.9,3.22,32.58,5.49,23.67,2.27,42.24-4.36,42.43-6.25,.19-1.89-1.52-7.58-1.7-9.66-.19-2.08,1.33-12.69,1.33-12.69l10.61-31.63,20.64,23.67s-4.17-.19-3.79,1.33c.38,1.52,1.7,5.49,1.7,5.49l19.32,8.14s7.95-11.55,9.09-15.34,1.14-6.63,0-8.14c-1.14-1.52-2.65-2.65-3.41-3.41s-24.81-30.11-26.71-33.33-5.11-11.55-7.2-12.5c-2.08-.95-16.48-7.2-19.13-7.39-2.65-.19-20.05-8.19-50.46-4.95Z"/><g><line class="p" x1="209.4" y1="249.92" x2="208.92" y2="246.66"/><line class="p" x1="212.33" y1="269.77" x2="209.8" y2="252.67"/><line class="p" x1="292.44" y1="263.52" x2="297.56" y2="248.18"/><line class="p" x1="299.39" y1="250.72" x2="300.78" y2="247.61"/><line class="p" x1="294.71" y1="261.24" x2="298.36" y2="253.04"/><path class="p" d="M241.35,307.31c-1.04,6.05-2.74,10.52-2.32,10.95,.57,.57,1.89,2.65,1.89,2.65"/><path class="p" d="M242.06,260.3s.38,31.44,0,40.53c-.05,1.3-.17,2.57-.32,3.8"/><path class="p" d="M262.72,275.77c-3.61-.15-4.56-.51-4.56-.51"/><path class="p" d="M257.21,267.87s11.55,1.14,14.77,1.14,14.96-.95,14.96-.95l-.76,6.63s-13.64,1.14-20.08,1.14"/><path class="p" d="M279.37,291.17c3.79-1.33,5.11-12.31,5.11-12.31"/><path class="p" d="M257.4,278.1s-1.52,12.12-.76,13.07c.57,.71,10.94,1.1,17.69,.69"/><polyline class="p" points="227.86 264.46 235.24 264.46 235.43 271.66 226.15 271.66"/><path class="p" d="M234.66,277.34c.35,4.81,.65,12.12-.74,12.5-2.08,.57-9.09,.38-9.09,.38"/><path class="p" d="M234.3,273.18s.13,1.24,.28,3.05"/><path class="p" d="M332.23,287.2c1.09,.08,2.06,.2,2.83,.37"/><path class="p" d="M316.12,287.57s7.47-.61,13.45-.49"/><path class="p" d="M327.48,280.94s-8.14,.95-13.26,4.92"/></g></g><g><path class="r" d="M236.05,147.17s-8.58-3.37-11.83,1.07c-3.25,4.44,5.77,13.89,5.77,13.89l12.29-15.04-6.23,.08Z"/><g><path class="k" d="M234.8,211.05s-3.35,1.14-4.1,4.36c-.76,3.22,.95,24.62,.38,29.17-.57,4.55,3.79,0,3.79,0l3.79-6.25s6.7,8.29,7.89,7.84c1.2-.45,5.36-5.94,6.12-5.19,.76,.76,5.68,9.28,6.25,4.17,.57-5.11,5.49-16.86,3.41-26.89-2.08-10.04-4.3-8.04-4.3-8.04l-23.22,.84Z"/><path class="o" d="M235.01,149.27s-5.19,7.94-8.94,14.44c-3.74,6.5-3.52,6.13-2.83,7.34,.69,1.21,1.09,3.75,1.09,3.75,0,0-5.69,6.75-6.9,7.44s.59,2.55,2.04,4.01l1.44,1.45s2.31,13.88,2.75,15.84c.44,1.96,2.28,3.25,3.44,3.33s6.4-.32,6.4-.32c0,0,3.41,17.26,7.26,28.24,3.85,10.99,4.63,12.34,5.78,11.37,1.16-.96,7.13-11.37,11.95-30.45,4.82-19.08,6.11-20.12,6.11-20.12,0,0,3.59-20.81-2.48-30.7s-19.69-19.54-27.11-15.62Z"/><path class="y" d="M235.82,173.93c0,1.42-.76,2.58-1.7,2.58s-1.7-1.16-1.7-2.58,.76-2.58,1.7-2.58,1.7,1.16,1.7,2.58Z"/><path class="p" d="M241.27,167.54c-5.35-7.67-10.13-.97-10.13-.97"/><path class="p" d="M224.33,174.8s1.21-.69,1.34-2.61l.13-1.92"/><polygon class="r" points="233.5 206.55 243.47 205.79 236.72 219.9 233.5 206.55"/><line class="p" x1="226.39" y1="190.57" x2="229.59" y2="189.68"/></g><path class="r" d="M247.15,141.43s-10.55-1.13-12.7,2.01c-2.15,3.13-4.04,5.32,.7,9.32s10.64,8.09,10.4,11.55c-.24,3.46,3.14,7.56,5.78,8.52,2.64,.96,6.19-2.85,4.64,2.64-1.55,5.49-11.05,5.99-9.28,13.84,1.77,7.85,8.39,9.86,5.73,12-2.66,2.13-11.27,8.24-9.72,17.29,1.54,9.06,12.14,15.42,10.79,19.47s-12.91,5.01-13.11,10.99c-.19,5.98,7.13,12.72,11.56,13.68,4.43,.96,10.02-.39,10.02-.39,0,0-5.2-6.94-3.28-7.9,1.93-.96,11.18-.96,19.66-4.24,8.48-3.28,9.83-15.03,8.1-18.5-1.73-3.47-5.01-3.85-3.28-6.17,1.73-2.31,13.15-2.8,11.96-10.61-1.19-7.81-9.24-11.47-6.68-17.67,2.56-6.2,8.5-8.29,7.94-16.83-.56-8.54-5.48-26.47-15.1-32.55s-34.13-6.45-34.13-6.45Z"/></g><path class="k" d="M198.69,288.9s-6.63,13.45-5.87,15.72,9.85,17.24,14.2,16.1,10.23-7.95,11.55-11.36c1.33-3.41,2.84-13.45,2.84-13.45,0,0-10.23,2.35-12.88,1.55-2.65-.8-9.85-8.56-9.85-8.56Z"/><g><path class="o" d="M229.38,234.78s-.88-2.01-2.14-5.29c-1.26-3.27-.76-10.57-.76-14.22s-.25-8.81-2.39-8.31c-2.14,.5-2.01,5.41-1.64,7.8s-.77,9.79-1.33,10.43c-.56,.64-.93,1.4-.93,1.4,0,0,4.91,9.06,6.8,10.82,1.89,1.76,2.39-2.64,2.39-2.64Z"/><g><path class="o" d="M213.2,221.23s0-8.11,.34-10c.34-1.9,4.83-9.31,6.9-11.21,2.07-1.9,2.07,.52,1.72,1.9-.34,1.38-4.31,7.59-4.31,7.59l.34,6.73-5,5Z"/><path class="o" d="M221.3,209.85s-10.87,12.76-11.04,14.31c-.17,1.55,10,17.94,10.18,18.45,.17,.52-12.76,30.01-12.76,30.01l-6.21,14.31s4.83,7.76,7.07,10.52c2.24,2.76,4.14,3.1,5.86,2.24,1.72-.86,7.07-5.35,7.07-5.35l7.42-51.22s1.72-3.62,1.72-5.69-9.49-12.24-9.49-12.24l1.55-2.24s10.35,3.45,11.55,2.59c1.21-.86-.2-2.34-.2-2.34l-3.07-1.8s2.76,.42,2.76-.69c0-.5-.69-1.38-.69-1.38,0,0,.34-1.21-.52-2.24-.86-1.03-7.66-6.94-9.55-7.46-1.9-.52-1.66,.21-1.66,.21Z"/><path class="o" d="M233.03,219.33s-8.46-5.87-9.83-7.14c-1.37-1.27-5.78,4.48-6.66,5.66"/><path class="o" d="M230.96,221.4s-5.35-2.07-7.22-3.34c-1.86-1.27-3.63-.98-4.12-.59-.49,.39-5.1,5.78-5.1,5.78"/></g></g><path class="k" d="M202.86,279.99s7.77,15.15,10.04,15.15,9.85-6.63,9.85-6.63c0,0,3.03,6.44,2.46,7.77s-13.45,9.47-15.91,9.47-14.39-13.83-12.69-16.86,5.11-9.66,6.25-8.9Z"/><g><g><path class="o" d="M294.67,333.39s-3.52-3.78-4.78-5.28c-.42-.5-1.45-1.67-3.47-4.36-1.49-1.99-2.08-7.82-3.79-6.65-1.7,1.17-1.62,4.72-.92,5.97,.7,1.25,1.3,2.13,1.38,2.7,.08,.57,2.17,6.04,2.17,6.04,0,0,7.62,7.28,8.1,5.69,.48-1.58,1.31-4.1,1.31-4.1Z"/><path class="o" d="M309.47,301.2l-16.26,32.84s-14.45-9.63-15.18-9.63-8.78,4.94-10.05,5.85c-1.28,.91-3.11,6.76-3.47,8.41-.37,1.65-.18,2.93,1.1,2.01,1.28-.91,4.94-7.13,4.94-7.13l5.85-2.56s-6.03,6.58-6.22,7.31c-.18,.73-4.2,8.78-4.2,9.87s2.38-.37,2.38-.37c0,0-.91,3.47,0,3.47s4.75-2.74,6.03-3.84c1.28-1.1,4.02-3.47,4.02-3.47l4.2-2.38s-4.39,5.85-5.12,6.76c-.73,.91-4.94,5.48-3.11,5.85,1.83,.37,7.5-5.12,7.5-5.12l5.12-4.02s5.3,1.65,6.95,1.46c1.65-.18,4.75-2.01,5.67-3.29,.91-1.28,2.38-4.75,2.38-4.75l23.95-28.89-16.45-8.41Z"/><path class="o" d="M268.33,347.81l8.41-9.32s3.47-3.29,6.4-2.74"/><path class="o" d="M276.38,331s2.19-2.19,3.84-2.19"/></g><path class="k" d="M309.29,293.88l-1.83,8.41s18.83,12.43,19.56,11.33,7.13-9.69,6.58-10.42-23.58-10.79-23.58-10.79l-.73,1.46Z"/></g></g></g></g></svg>