<?xml version="1.0" encoding="UTF-8"?><svg id="a" xmlns="http://www.w3.org/2000/svg" viewBox="0 0 740 286"><defs><style>.h{fill:#fff;}.i{fill:#3f6b71;}.j{fill:#ffa800;}.k{fill:#506d8f;}.l{fill:#869fb2;}</style></defs><g><rect class="i" x="251.48" y="12.14" width="241.86" height="39.22"/><g><path class="h" d="M310.23,26.41h3.42v12.29h-3.42v-12.29Z"/><path class="h" d="M326.98,26.41v12.29h-3.42l-4.55-6.87v6.87h-3.42v-12.29h3.42l4.55,6.96v-6.96h3.42Z"/><path class="h" d="M328.26,26.41h9.94v2.72h-3.28v9.57h-3.42v-9.57h-3.24v-2.72Z"/><path class="h" d="M347.33,29.14h-4.45v2h3.92v2.6h-3.92v2.21h4.45v2.74h-7.86v-12.29h7.86v2.74Z"/><path class="h" d="M354.4,26.41c3.05,0,4.58,1.74,4.58,3.94,0,1.6-.87,3-2.7,3.56l2.77,4.79h-3.82l-2.44-4.53h-.37v4.53h-3.42v-12.29h5.39Zm-.28,2.86h-1.69v2.56h1.69c.92,0,1.39-.45,1.39-1.29,0-.77-.47-1.27-1.39-1.27Z"/><path class="h" d="M368.85,26.41h3.64l-4.24,12.29h-4.38l-4.25-12.29h3.66l2.79,8.87,2.77-8.87Z"/><path class="h" d="M381.42,29.14h-4.45v2h3.92v2.6h-3.92v2.21h4.45v2.74h-7.86v-12.29h7.86v2.74Z"/><path class="h" d="M394.5,26.41v12.29h-3.42l-4.55-6.87v6.87h-3.42v-12.29h3.42l4.55,6.96v-6.96h3.42Z"/><path class="h" d="M402.15,26.28c3.09,0,5.28,1.78,5.89,4.57h-3.68c-.44-.92-1.26-1.43-2.27-1.43-1.57,0-2.6,1.22-2.6,3.1s1.03,3.12,2.6,3.12c1.01,0,1.83-.51,2.27-1.43h3.68c-.54,2.46-2.3,4.11-4.81,4.5v.63c.94,0,2.27,.51,2.27,2.06s-1.34,2.07-2.53,2.07h-2.84v-1.8h2.44c.37,0,.58-.12,.58-.37,0-.26-.21-.37-.58-.37h-1.36v-2.21c-3.15-.4-5.18-2.84-5.18-6.21,0-3.66,2.42-6.24,6.12-6.24Z"/><path class="h" d="M417.43,36.69h-4.36l-.66,2h-3.59l4.48-12.29h3.94l4.46,12.29h-3.61l-.66-2Zm-3.35-13.91c1.08,0,1.69,.8,2.39,.8,.42,0,.68-.26,.77-.8h1.73c-.35,2.04-1.29,2.82-2.62,2.82-1.08,0-1.69-.78-2.39-.78-.42,0-.68,.24-.78,.8h-1.71c.35-2.04,1.29-2.84,2.62-2.84Zm1.17,7.32l-1.31,3.97h2.63l-1.32-3.97Z"/><path class="h" d="M428.71,38.82c-3.49,0-6.31-2.61-6.31-6.31s2.82-6.29,6.31-6.29,6.29,2.6,6.29,6.29-2.81,6.31-6.29,6.31Zm0-3.17c1.76,0,2.82-1.24,2.82-3.14s-1.06-3.16-2.82-3.16-2.82,1.22-2.82,3.16,1.05,3.14,2.82,3.14Z"/></g><g><rect class="k" x="8.18" y="91.49" width="209.9" height="39.22"/><g><path class="h" d="M26.09,112.58c-1.42,0-2.43-.79-2.45-1.96h.99c.06,.59,.48,1.18,1.47,1.18,.9,0,1.42-.51,1.42-1.18,0-1.91-3.84-.69-3.84-3.33,0-1.17,.95-1.96,2.35-1.96s2.24,.74,2.35,1.82h-1.02c-.06-.48-.51-1.02-1.37-1.03-.76-.02-1.36,.38-1.36,1.14,0,1.83,3.83,.69,3.83,3.32,0,1.01-.82,2-2.36,2Z"/><path class="h" d="M29.66,105.4c0-.36,.27-.63,.63-.63,.34,0,.61,.27,.61,.63s-.27,.63-.61,.63c-.36,0-.63-.27-.63-.63Zm.15,1.54h.93v5.58h-.93v-5.58Z"/><path class="h" d="M34.29,112.6c-1.3,0-2.22-.71-2.28-1.73h.96c.05,.54,.53,.95,1.31,.95,.73,0,1.14-.37,1.14-.82,0-1.24-3.3-.52-3.3-2.59,0-.85,.8-1.56,2.04-1.56s2.04,.66,2.11,1.75h-.93c-.04-.56-.47-.97-1.21-.97-.68,0-1.09,.33-1.09,.77,0,1.32,3.24,.6,3.28,2.59,0,.92-.8,1.61-2.03,1.61Z"/><path class="h" d="M37.83,107.69h-.72v-.76h.72v-1.4h.93v1.4h1.46v.76h-1.46v3.29c0,.55,.2,.74,.77,.74h.68v.78h-.83c-.99,0-1.55-.41-1.55-1.53v-3.29Z"/><path class="h" d="M43.73,112.6c-1.59,0-2.76-1.12-2.76-2.89s1.13-2.87,2.76-2.87,2.68,1.14,2.68,2.67c0,.2-.01,.37-.03,.56h-4.46c.07,1.13,.86,1.75,1.81,1.75,.83,0,1.36-.43,1.57-1.03h1c-.28,1.02-1.18,1.81-2.56,1.81Zm-1.8-3.29h3.52c.01-1.09-.8-1.69-1.76-1.69-.91,0-1.66,.6-1.76,1.69Z"/><path class="h" d="M55.68,109.35c0-1.14-.61-1.72-1.53-1.72s-1.58,.6-1.58,1.8v3.07h-.92v-3.15c0-1.14-.61-1.72-1.53-1.72s-1.58,.6-1.58,1.8v3.07h-.93v-5.58h.93v.8c.37-.59,1.03-.91,1.76-.91,.92,0,1.68,.41,2.05,1.24,.33-.8,1.12-1.24,1.97-1.24,1.27,0,2.26,.79,2.26,2.39v3.29h-.92v-3.15Z"/><path class="h" d="M60.4,106.84c1.04,0,1.75,.53,2.08,1.11v-1.02h.94v5.58h-.94v-1.04c-.34,.6-1.06,1.13-2.09,1.13-1.49,0-2.64-1.17-2.64-2.9s1.15-2.86,2.64-2.86Zm.18,.8c-1.02,0-1.88,.74-1.88,2.06s.86,2.09,1.88,2.09,1.89-.76,1.89-2.08-.88-2.07-1.89-2.07Z"/><path class="h" d="M70,106.84c.87,0,1.68,.45,2.07,1.09v-2.95h.94v7.53h-.94v-1.05c-.34,.62-1.06,1.14-2.08,1.14-1.5,0-2.64-1.17-2.64-2.9s1.15-2.86,2.66-2.86Zm.17,.8c-1.02,0-1.88,.74-1.88,2.06s.86,2.09,1.88,2.09,1.89-.76,1.89-2.08-.88-2.07-1.89-2.07Z"/><path class="h" d="M76.97,112.6c-1.59,0-2.76-1.12-2.76-2.89s1.13-2.87,2.76-2.87,2.68,1.14,2.68,2.67c0,.2-.01,.37-.03,.56h-4.46c.07,1.13,.86,1.75,1.81,1.75,.83,0,1.36-.43,1.57-1.03h1c-.28,1.02-1.18,1.81-2.56,1.81Zm-1.8-3.29h3.52c.01-1.09-.8-1.69-1.76-1.69-.91,0-1.66,.6-1.76,1.69Z"/><path class="h" d="M85.88,106.84c1.04,0,1.75,.53,2.08,1.11v-1.02h.94v5.58h-.94v-1.04c-.34,.6-1.06,1.13-2.09,1.13-1.49,0-2.64-1.17-2.64-2.9s1.15-2.86,2.64-2.86Zm.18,.8c-1.02,0-1.88,.74-1.88,2.06s.86,2.09,1.88,2.09,1.89-.76,1.89-2.08-.88-2.07-1.89-2.07Z"/><path class="h" d="M92.83,106.84c1.38,0,2.29,.71,2.57,1.88h-1c-.19-.67-.75-1.1-1.58-1.1-1.02,0-1.77,.72-1.77,2.09s.75,2.11,1.77,2.11c.82,0,1.37-.4,1.58-1.1h1c-.26,1.03-1.07,1.77-2.29,1.87v.51c.78-.01,1.31,.34,1.31,1.01s-.52,1.05-1.24,1.05h-1.17v-.6h.99c.44,0,.65-.12,.65-.45s-.21-.44-.65-.44h-.51v-1.09c-1.4-.14-2.38-1.23-2.38-2.87,0-1.75,1.13-2.87,2.72-2.87Z"/><path class="h" d="M99.06,112.6c-1.58,0-2.78-1.12-2.78-2.89s1.24-2.87,2.82-2.87,2.82,1.11,2.82,2.87-1.27,2.89-2.86,2.89Zm0-.81c.97,0,1.91-.66,1.91-2.08s-.93-2.07-1.88-2.07-1.86,.66-1.86,2.07,.86,2.08,1.83,2.08Zm-.43-6.59c.54,0,.74,.47,1.16,.47,.22,0,.41-.14,.45-.44h.53c-.08,.69-.49,1.06-1.02,1.06s-.75-.47-1.16-.47c-.22,0-.4,.14-.44,.45h-.54c.1-.7,.49-1.07,1.02-1.07Z"/><path class="h" d="M105.55,112.6c-1.59,0-2.76-1.12-2.76-2.89s1.13-2.87,2.76-2.87,2.68,1.14,2.68,2.67c0,.2-.01,.37-.03,.56h-4.46c.07,1.13,.86,1.75,1.81,1.75,.83,0,1.36-.43,1.57-1.03h1c-.28,1.02-1.18,1.81-2.56,1.81Zm-1.8-3.29h3.52c.01-1.09-.8-1.69-1.76-1.69-.91,0-1.66,.6-1.76,1.69Z"/><path class="h" d="M111.41,112.6c-1.3,0-2.22-.71-2.28-1.73h.96c.05,.54,.53,.95,1.31,.95,.73,0,1.14-.37,1.14-.82,0-1.24-3.3-.52-3.3-2.59,0-.85,.8-1.56,2.04-1.56s2.04,.66,2.11,1.75h-.93c-.04-.56-.47-.97-1.21-.97-.68,0-1.09,.33-1.09,.77,0,1.32,3.24,.6,3.28,2.59,0,.92-.8,1.61-2.03,1.61Z"/><path class="h" d="M117.67,107.69h-.72v-.76h.72v-1.4h.93v1.4h1.46v.76h-1.46v3.29c0,.55,.2,.74,.77,.74h.68v.78h-.83c-.99,0-1.55-.41-1.55-1.53v-3.29Z"/><path class="h" d="M122.09,112.51h-.93v-5.58h.93v.91c.32-.62,.92-1.01,1.8-1.01v.96h-.24c-.89,0-1.56,.4-1.56,1.69v3.03Z"/><path class="h" d="M127.26,106.84c1.04,0,1.75,.53,2.08,1.11v-1.02h.94v5.58h-.94v-1.04c-.34,.6-1.06,1.13-2.09,1.13-1.49,0-2.64-1.17-2.64-2.9s1.15-2.86,2.64-2.86Zm.18,.8c-1.02,0-1.88,.74-1.88,2.06s.86,2.09,1.88,2.09,1.89-.76,1.89-2.08-.88-2.07-1.89-2.07Z"/><path class="h" d="M135.91,109.35c0-1.14-.62-1.72-1.56-1.72s-1.6,.59-1.6,1.79v3.08h-.93v-5.58h.93v.79c.37-.58,1.04-.9,1.79-.9,1.29,0,2.28,.79,2.28,2.39v3.29h-.92v-3.15Z"/><path class="h" d="M140.31,112.6c-1.3,0-2.22-.71-2.28-1.73h.96c.05,.54,.53,.95,1.31,.95,.73,0,1.14-.37,1.14-.82,0-1.24-3.3-.52-3.3-2.59,0-.85,.8-1.56,2.04-1.56s2.04,.66,2.11,1.75h-.93c-.04-.56-.47-.97-1.21-.97-.68,0-1.09,.33-1.09,.77,0,1.32,3.24,.6,3.28,2.59,0,.92-.8,1.61-2.03,1.61Z"/><path class="h" d="M143.82,107.69h-.72v-.76h.72v-.4c0-1.24,.61-1.8,2.03-1.8v.77c-.83,0-1.11,.31-1.11,1.03v.4h1.17v.76h-1.17v4.81h-.93v-4.81Z"/><path class="h" d="M149.42,112.6c-1.58,0-2.78-1.12-2.78-2.89s1.24-2.87,2.82-2.87,2.82,1.11,2.82,2.87-1.27,2.89-2.86,2.89Zm0-.81c.97,0,1.91-.66,1.91-2.08s-.93-2.07-1.88-2.07-1.86,.66-1.86,2.07,.86,2.08,1.83,2.08Z"/><path class="h" d="M154.43,112.51h-.93v-5.58h.93v.91c.32-.62,.92-1.01,1.8-1.01v.96h-.24c-.89,0-1.56,.4-1.56,1.69v3.03Z"/><path class="h" d="M165.34,109.35c0-1.14-.61-1.72-1.53-1.72s-1.58,.6-1.58,1.8v3.07h-.92v-3.15c0-1.14-.61-1.72-1.53-1.72s-1.58,.6-1.58,1.8v3.07h-.93v-5.58h.93v.8c.37-.59,1.03-.91,1.76-.91,.92,0,1.68,.41,2.05,1.24,.33-.8,1.12-1.24,1.97-1.24,1.27,0,2.26,.79,2.26,2.39v3.29h-.92v-3.15Z"/><path class="h" d="M170.06,106.84c1.04,0,1.75,.53,2.08,1.11v-1.02h.94v5.58h-.94v-1.04c-.34,.6-1.06,1.13-2.09,1.13-1.49,0-2.64-1.17-2.64-2.9s1.15-2.86,2.64-2.86Zm.18,.8c-1.02,0-1.88,.74-1.88,2.06s.86,2.09,1.88,2.09,1.89-.76,1.89-2.08-.88-2.07-1.89-2.07Z"/><path class="h" d="M176.95,106.84c.87,0,1.68,.45,2.07,1.09v-2.95h.94v7.53h-.94v-1.05c-.34,.62-1.06,1.14-2.08,1.14-1.5,0-2.64-1.17-2.64-2.9s1.15-2.86,2.66-2.86Zm.17,.8c-1.02,0-1.88,.74-1.88,2.06s.86,2.09,1.88,2.09,1.89-.76,1.89-2.08-.88-2.07-1.89-2.07Z"/><path class="h" d="M183.94,112.6c-1.58,0-2.78-1.12-2.78-2.89s1.24-2.87,2.82-2.87,2.82,1.11,2.82,2.87-1.27,2.89-2.86,2.89Zm0-.81c.97,0,1.91-.66,1.91-2.08s-.93-2.07-1.88-2.07-1.86,.66-1.86,2.07,.86,2.08,1.83,2.08Z"/><path class="h" d="M188.95,112.51h-.93v-5.58h.93v.91c.32-.62,.92-1.01,1.8-1.01v.96h-.24c-.89,0-1.56,.4-1.56,1.69v3.03Z"/><path class="h" d="M194.11,106.84c1.04,0,1.75,.53,2.08,1.11v-1.02h.94v5.58h-.94v-1.04c-.34,.6-1.06,1.13-2.09,1.13-1.49,0-2.64-1.17-2.64-2.9s1.15-2.86,2.64-2.86Zm.18,.8c-1.02,0-1.88,.74-1.88,2.06s.86,2.09,1.88,2.09,1.89-.76,1.89-2.08-.88-2.07-1.89-2.07Z"/><path class="h" d="M200.66,112.6c-1.3,0-2.22-.71-2.28-1.73h.96c.05,.54,.53,.95,1.31,.95,.73,0,1.14-.37,1.14-.82,0-1.24-3.3-.52-3.3-2.59,0-.85,.8-1.56,2.04-1.56s2.04,.66,2.11,1.75h-.93c-.04-.56-.47-.97-1.21-.97-.68,0-1.09,.33-1.09,.77,0,1.32,3.24,.6,3.28,2.59,0,.92-.8,1.61-2.03,1.61Z"/></g></g><g><rect class="k" x="269.95" y="91.27" width="209.9" height="39.22"/><g><path class="h" d="M287.73,99.85h-2.89v2.37h2.58v.76h-2.58v2.44h2.89v.76h-3.82v-7.1h3.82v.76Z"/><path class="h" d="M291.1,106.28c-1.3,0-2.22-.71-2.28-1.73h.96c.05,.54,.53,.95,1.31,.95,.73,0,1.14-.37,1.14-.82,0-1.24-3.3-.52-3.3-2.59,0-.85,.8-1.56,2.04-1.56s2.04,.66,2.11,1.75h-.93c-.04-.56-.47-.97-1.21-.97-.68,0-1.09,.33-1.09,.77,0,1.32,3.24,.6,3.28,2.59,0,.92-.8,1.61-2.03,1.61Z"/><path class="h" d="M294.64,101.38h-.72v-.76h.72v-1.4h.93v1.4h1.46v.76h-1.46v3.29c0,.55,.2,.74,.77,.74h.68v.78h-.83c-.99,0-1.55-.41-1.55-1.53v-3.29Z"/><path class="h" d="M300.44,100.52c1.04,0,1.75,.53,2.08,1.11v-1.02h.94v5.57h-.94v-1.04c-.34,.6-1.06,1.13-2.09,1.13-1.49,0-2.64-1.17-2.64-2.9s1.15-2.86,2.64-2.86Zm.18,.8c-1.02,0-1.88,.74-1.88,2.05s.86,2.09,1.88,2.09,1.89-.76,1.89-2.08-.88-2.07-1.89-2.07Zm-.3-2.38c.54,0,.74,.47,1.16,.47,.22,0,.41-.14,.45-.44h.53c-.08,.69-.49,1.06-1.02,1.06s-.75-.47-1.16-.47c-.22,0-.4,.14-.44,.45h-.54c.1-.7,.49-1.07,1.02-1.07Z"/><path class="h" d="M307.44,106.28c-1.58,0-2.78-1.12-2.78-2.89s1.24-2.87,2.82-2.87,2.82,1.11,2.82,2.87-1.27,2.89-2.86,2.89Zm0-.81c.97,0,1.91-.66,1.91-2.08s-.93-2.07-1.88-2.07-1.86,.66-1.86,2.07,.86,2.08,1.83,2.08Z"/><path class="h" d="M316.64,106.28c-1.59,0-2.76-1.12-2.76-2.89s1.13-2.87,2.76-2.87,2.68,1.14,2.68,2.67c0,.2-.01,.37-.03,.56h-4.46c.07,1.13,.86,1.75,1.81,1.75,.83,0,1.36-.43,1.57-1.03h1c-.28,1.02-1.18,1.81-2.56,1.81Zm-1.8-3.29h3.52c.01-1.09-.8-1.69-1.76-1.69-.91,0-1.66,.6-1.76,1.69Z"/><path class="h" d="M328.58,103.03c0-1.14-.61-1.72-1.53-1.72s-1.58,.6-1.58,1.8v3.07h-.92v-3.15c0-1.14-.61-1.72-1.53-1.72s-1.58,.6-1.58,1.8v3.07h-.93v-5.57h.93v.8c.37-.59,1.03-.91,1.76-.91,.92,0,1.68,.41,2.05,1.24,.33-.8,1.12-1.24,1.97-1.24,1.27,0,2.26,.79,2.26,2.39v3.29h-.92v-3.15Z"/><path class="h" d="M336.1,100.52c1.38,0,2.29,.71,2.57,1.88h-1c-.19-.67-.75-1.1-1.58-1.1-1.02,0-1.77,.72-1.77,2.09s.75,2.11,1.77,2.11c.82,0,1.37-.4,1.58-1.1h1c-.28,1.11-1.19,1.88-2.57,1.88-1.59,0-2.72-1.12-2.72-2.89s1.13-2.87,2.72-2.87Z"/><path class="h" d="M342.33,106.28c-1.58,0-2.78-1.12-2.78-2.89s1.24-2.87,2.82-2.87,2.82,1.11,2.82,2.87-1.27,2.89-2.86,2.89Zm0-.81c.97,0,1.91-.66,1.91-2.08s-.93-2.07-1.88-2.07-1.86,.66-1.86,2.07,.86,2.08,1.83,2.08Z"/><path class="h" d="M350.48,103.03c0-1.14-.62-1.72-1.56-1.72s-1.6,.59-1.6,1.79v3.08h-.93v-5.57h.93v.79c.37-.58,1.04-.9,1.79-.9,1.29,0,2.28,.79,2.28,2.39v3.29h-.92v-3.15Z"/><path class="h" d="M354.89,106.28c-1.3,0-2.22-.71-2.28-1.73h.96c.05,.54,.53,.95,1.31,.95,.73,0,1.14-.37,1.14-.82,0-1.24-3.3-.52-3.3-2.59,0-.85,.8-1.56,2.04-1.56s2.04,.66,2.11,1.75h-.93c-.04-.56-.47-.97-1.21-.97-.68,0-1.09,.33-1.09,.77,0,1.32,3.24,.6,3.28,2.59,0,.92-.8,1.61-2.03,1.61Z"/><path class="h" d="M358.42,101.38h-.72v-.76h.72v-1.4h.93v1.4h1.46v.76h-1.46v3.29c0,.55,.2,.74,.77,.74h.68v.78h-.83c-.99,0-1.55-.41-1.55-1.53v-3.29Z"/><path class="h" d="M364.22,100.52c1.04,0,1.75,.53,2.08,1.11v-1.02h.94v5.57h-.94v-1.04c-.34,.6-1.06,1.13-2.09,1.13-1.49,0-2.64-1.17-2.64-2.9s1.15-2.86,2.64-2.86Zm.18,.8c-1.02,0-1.88,.74-1.88,2.05s.86,2.09,1.88,2.09,1.89-.76,1.89-2.08-.88-2.07-1.89-2.07Z"/><path class="h" d="M372.88,103.03c0-1.14-.62-1.72-1.56-1.72s-1.6,.59-1.6,1.79v3.08h-.93v-5.57h.93v.79c.37-.58,1.04-.9,1.79-.9,1.29,0,2.28,.79,2.28,2.39v3.29h-.91v-3.15Z"/><path class="h" d="M375.51,101.38h-.72v-.76h.72v-1.4h.93v1.4h1.45v.76h-1.45v3.29c0,.55,.2,.74,.77,.74h.68v.78h-.83c-.99,0-1.55-.41-1.55-1.53v-3.29Z"/><path class="h" d="M381.42,106.28c-1.59,0-2.76-1.12-2.76-2.89s1.13-2.87,2.76-2.87,2.68,1.14,2.68,2.67c0,.2-.01,.37-.03,.56h-4.46c.07,1.13,.86,1.75,1.81,1.75,.83,0,1.36-.43,1.57-1.03h1c-.29,1.02-1.18,1.81-2.56,1.81Zm-1.8-3.29h3.52c.01-1.09-.8-1.69-1.76-1.69-.91,0-1.66,.6-1.76,1.69Z"/><path class="h" d="M388.23,101.38h-.72v-.76h.72v-1.4h.93v1.4h1.45v.76h-1.45v3.29c0,.55,.2,.74,.77,.74h.68v.78h-.83c-.99,0-1.55-.41-1.55-1.53v-3.29Z"/><path class="h" d="M392.65,106.19h-.93v-5.57h.93v.91c.32-.62,.92-1.01,1.8-1.01v.96h-.24c-.89,0-1.56,.4-1.56,1.69v3.03Z"/><path class="h" d="M397.82,100.52c1.04,0,1.75,.53,2.08,1.11v-1.02h.94v5.57h-.94v-1.04c-.34,.6-1.06,1.13-2.09,1.13-1.49,0-2.64-1.17-2.64-2.9s1.15-2.86,2.64-2.86Zm.18,.8c-1.02,0-1.88,.74-1.88,2.05s.87,2.09,1.88,2.09,1.89-.76,1.89-2.08-.88-2.07-1.89-2.07Z"/><path class="h" d="M406.47,103.03c0-1.14-.62-1.72-1.56-1.72s-1.6,.59-1.6,1.79v3.08h-.93v-5.57h.93v.79c.37-.58,1.04-.9,1.79-.9,1.29,0,2.28,.79,2.28,2.39v3.29h-.92v-3.15Z"/><path class="h" d="M410.87,106.28c-1.3,0-2.22-.71-2.28-1.73h.96c.05,.54,.53,.95,1.31,.95,.73,0,1.14-.37,1.14-.82,0-1.24-3.3-.52-3.3-2.59,0-.85,.8-1.56,2.04-1.56s2.04,.66,2.11,1.75h-.93c-.04-.56-.47-.97-1.21-.97-.68,0-1.09,.33-1.09,.77,0,1.32,3.24,.6,3.28,2.59,0,.92-.8,1.61-2.03,1.61Z"/><path class="h" d="M414.38,101.38h-.72v-.76h.72v-.4c0-1.24,.61-1.8,2.03-1.8v.77c-.83,0-1.11,.3-1.11,1.03v.4h1.17v.76h-1.17v4.81h-.93v-4.81Z"/><path class="h" d="M419.98,106.28c-1.58,0-2.78-1.12-2.78-2.89s1.24-2.87,2.82-2.87,2.82,1.11,2.82,2.87-1.27,2.89-2.86,2.89Zm0-.81c.97,0,1.91-.66,1.91-2.08s-.93-2.07-1.88-2.07-1.86,.66-1.86,2.07,.87,2.08,1.83,2.08Z"/><path class="h" d="M424.99,106.19h-.93v-5.57h.93v.91c.32-.62,.92-1.01,1.8-1.01v.96h-.24c-.89,0-1.56,.4-1.56,1.69v3.03Z"/><path class="h" d="M435.9,103.03c0-1.14-.61-1.72-1.53-1.72s-1.58,.6-1.58,1.8v3.07h-.92v-3.15c0-1.14-.61-1.72-1.53-1.72s-1.58,.6-1.58,1.8v3.07h-.93v-5.57h.93v.8c.37-.59,1.03-.91,1.76-.91,.92,0,1.68,.41,2.04,1.24,.33-.8,1.12-1.24,1.97-1.24,1.27,0,2.26,.79,2.26,2.39v3.29h-.92v-3.15Z"/><path class="h" d="M440.63,100.52c1.04,0,1.75,.53,2.08,1.11v-1.02h.94v5.57h-.94v-1.04c-.34,.6-1.06,1.13-2.09,1.13-1.49,0-2.64-1.17-2.64-2.9s1.15-2.86,2.64-2.86Zm.18,.8c-1.02,0-1.88,.74-1.88,2.05s.87,2.09,1.88,2.09,1.89-.76,1.89-2.08-.88-2.07-1.89-2.07Z"/><path class="h" d="M447.57,100.52c1.38,0,2.29,.71,2.57,1.88h-1c-.19-.67-.75-1.1-1.58-1.1-1.02,0-1.77,.72-1.77,2.09s.75,2.11,1.77,2.11c.82,0,1.37-.4,1.58-1.1h1c-.26,1.03-1.07,1.77-2.29,1.87v.51c.78,0,1.31,.34,1.31,1.01s-.52,1.05-1.24,1.05h-1.17v-.6h.99c.44,0,.65-.12,.65-.45s-.21-.44-.65-.44h-.51v-1.09c-1.4-.14-2.38-1.23-2.38-2.87,0-1.75,1.13-2.87,2.72-2.87Z"/><path class="h" d="M453.67,100.52c1.04,0,1.75,.53,2.08,1.11v-1.02h.94v5.57h-.94v-1.04c-.34,.6-1.06,1.13-2.09,1.13-1.49,0-2.64-1.17-2.64-2.9s1.15-2.86,2.64-2.86Zm.18,.8c-1.02,0-1.88,.74-1.88,2.05s.87,2.09,1.88,2.09,1.89-.76,1.89-2.08-.88-2.07-1.89-2.07Zm-.3-2.38c.54,0,.74,.47,1.16,.47,.22,0,.41-.14,.45-.44h.53c-.08,.69-.49,1.06-1.02,1.06s-.75-.47-1.16-.47c-.22,0-.4,.14-.44,.45h-.54c.1-.7,.49-1.07,1.02-1.07Z"/><path class="h" d="M460.68,106.28c-1.58,0-2.78-1.12-2.78-2.89s1.24-2.87,2.82-2.87,2.82,1.11,2.82,2.87-1.27,2.89-2.86,2.89Zm0-.81c.97,0,1.91-.66,1.91-2.08s-.93-2.07-1.88-2.07-1.86,.66-1.86,2.07,.87,2.08,1.83,2.08Z"/><path class="h" d="M287.99,115.24c0-1.14-.62-1.72-1.56-1.72s-1.6,.59-1.6,1.79v3.08h-.93v-5.57h.93v.79c.37-.58,1.04-.9,1.79-.9,1.29,0,2.28,.79,2.28,2.39v3.29h-.92v-3.15Z"/><path class="h" d="M292.85,118.48c-1.58,0-2.78-1.12-2.78-2.89s1.24-2.87,2.82-2.87,2.82,1.11,2.82,2.87-1.27,2.89-2.86,2.89Zm0-.81c.97,0,1.91-.66,1.91-2.08s-.93-2.07-1.88-2.07-1.86,.66-1.86,2.07,.86,2.08,1.83,2.08Z"/><path class="h" d="M299.85,113.58h-.72v-.76h.72v-1.4h.93v1.4h1.46v.76h-1.46v3.29c0,.55,.2,.74,.77,.74h.68v.78h-.83c-.99,0-1.55-.41-1.55-1.53v-3.29Z"/><path class="h" d="M305.75,118.48c-1.59,0-2.76-1.12-2.76-2.89s1.13-2.87,2.76-2.87,2.68,1.14,2.68,2.67c0,.2-.01,.37-.03,.56h-4.46c.07,1.13,.86,1.75,1.81,1.75,.83,0,1.36-.43,1.57-1.03h1c-.28,1.02-1.18,1.81-2.56,1.81Zm-1.8-3.29h3.52c.01-1.09-.8-1.69-1.76-1.69-.91,0-1.66,.6-1.76,1.69Z"/><path class="h" d="M317.69,115.24c0-1.14-.61-1.72-1.53-1.72s-1.58,.6-1.58,1.8v3.07h-.92v-3.15c0-1.14-.61-1.72-1.53-1.72s-1.58,.6-1.58,1.8v3.07h-.93v-5.57h.93v.8c.37-.59,1.03-.91,1.76-.91,.92,0,1.68,.41,2.05,1.24,.33-.8,1.12-1.24,1.97-1.24,1.27,0,2.26,.79,2.26,2.39v3.29h-.92v-3.15Z"/><path class="h" d="M323.13,112.72c1.5,0,2.65,1.12,2.65,2.86s-1.15,2.9-2.65,2.9c-1.02,0-1.74-.55-2.09-1.12v3.67h-.93v-8.22h.93v1.03c.34-.59,1.07-1.12,2.09-1.12Zm-.19,.8c-1.01,0-1.89,.77-1.89,2.07s.89,2.08,1.89,2.08,1.89-.77,1.89-2.09-.86-2.05-1.89-2.05Z"/><path class="h" d="M329.43,118.48c-1.58,0-2.78-1.12-2.78-2.89s1.24-2.87,2.82-2.87,2.82,1.11,2.82,2.87-1.27,2.89-2.86,2.89Zm0-.81c.97,0,1.91-.66,1.91-2.08s-.93-2.07-1.88-2.07-1.86,.66-1.86,2.07,.86,2.08,1.83,2.08Z"/><path class="h" d="M338.63,118.48c-1.59,0-2.76-1.12-2.76-2.89s1.13-2.87,2.76-2.87,2.68,1.14,2.68,2.67c0,.2-.01,.37-.03,.56h-4.46c.07,1.13,.86,1.75,1.81,1.75,.83,0,1.36-.43,1.57-1.03h1c-.28,1.02-1.18,1.81-2.56,1.81Zm-1.8-3.29h3.52c.01-1.09-.8-1.69-1.76-1.69-.91,0-1.66,.6-1.76,1.69Z"/><path class="h" d="M349.32,115.24c0-1.14-.62-1.72-1.56-1.72s-1.6,.59-1.6,1.79v3.08h-.93v-5.57h.93v.79c.37-.58,1.04-.9,1.79-.9,1.29,0,2.28,.79,2.28,2.39v3.29h-.91v-3.15Z"/><path class="h" d="M354.18,118.48c-1.58,0-2.78-1.12-2.78-2.89s1.24-2.87,2.82-2.87,2.82,1.11,2.82,2.87-1.27,2.89-2.86,2.89Zm0-.81c.97,0,1.91-.66,1.91-2.08s-.93-2.07-1.88-2.07-1.86,.66-1.86,2.07,.86,2.08,1.83,2.08Z"/><path class="h" d="M363.38,118.48c-1.59,0-2.76-1.12-2.76-2.89s1.13-2.87,2.76-2.87,2.68,1.14,2.68,2.67c0,.2-.01,.37-.03,.56h-4.46c.07,1.13,.86,1.75,1.81,1.75,.83,0,1.36-.43,1.57-1.03h1c-.29,1.02-1.18,1.81-2.56,1.81Zm-1.8-3.29h3.52c.01-1.09-.8-1.69-1.76-1.69-.91,0-1.66,.6-1.76,1.69Z"/><path class="h" d="M369.24,118.48c-1.3,0-2.22-.71-2.28-1.73h.96c.05,.54,.53,.95,1.31,.95,.73,0,1.14-.37,1.14-.82,0-1.24-3.3-.52-3.3-2.59,0-.85,.8-1.56,2.04-1.56s2.04,.66,2.11,1.75h-.93c-.04-.56-.47-.97-1.21-.97-.68,0-1.09,.33-1.09,.77,0,1.32,3.24,.6,3.28,2.59,0,.92-.8,1.61-2.03,1.61Z"/><path class="h" d="M375.59,112.72c1.5,0,2.64,1.12,2.64,2.86s-1.15,2.9-2.64,2.9c-1.02,0-1.74-.55-2.09-1.12v3.67h-.93v-8.22h.93v1.03c.34-.59,1.07-1.12,2.09-1.12Zm-.19,.8c-1.01,0-1.89,.77-1.89,2.07s.89,2.08,1.89,2.08,1.89-.77,1.89-2.09-.86-2.05-1.89-2.05Z"/><path class="h" d="M381.75,112.72c1.04,0,1.75,.53,2.08,1.11v-1.02h.94v5.57h-.94v-1.04c-.34,.6-1.06,1.13-2.09,1.13-1.49,0-2.64-1.17-2.64-2.9s1.15-2.86,2.64-2.86Zm.18,.8c-1.02,0-1.88,.74-1.88,2.05s.87,2.09,1.88,2.09,1.89-.76,1.89-2.08-.88-2.07-1.89-2.07Z"/><path class="h" d="M388.7,112.72c1.38,0,2.29,.71,2.57,1.88h-1c-.19-.67-.75-1.1-1.58-1.1-1.02,0-1.77,.72-1.77,2.09s.75,2.11,1.77,2.11c.82,0,1.37-.4,1.58-1.1h1c-.26,1.03-1.07,1.77-2.29,1.87v.51c.78,0,1.31,.34,1.31,1.01s-.52,1.05-1.24,1.05h-1.17v-.6h.99c.44,0,.65-.12,.65-.45s-.21-.44-.65-.44h-.51v-1.09c-1.4-.14-2.38-1.23-2.38-2.87,0-1.75,1.13-2.87,2.72-2.87Z"/><path class="h" d="M394.93,118.48c-1.58,0-2.78-1.12-2.78-2.89s1.24-2.87,2.82-2.87,2.82,1.11,2.82,2.87-1.27,2.89-2.86,2.89Zm0-.81c.97,0,1.91-.66,1.91-2.08s-.93-2.07-1.88-2.07-1.86,.66-1.86,2.07,.87,2.08,1.83,2.08Z"/><path class="h" d="M403.69,118.48c-1.3,0-2.22-.71-2.28-1.73h.96c.05,.54,.53,.95,1.31,.95,.73,0,1.14-.37,1.14-.82,0-1.24-3.3-.52-3.3-2.59,0-.85,.8-1.56,2.04-1.56s2.04,.66,2.11,1.75h-.93c-.04-.56-.47-.97-1.21-.97-.68,0-1.09,.33-1.09,.77,0,1.32,3.24,.6,3.28,2.59,0,.92-.8,1.61-2.03,1.61Z"/><path class="h" d="M409.46,118.48c-1.58,0-2.78-1.12-2.78-2.89s1.24-2.87,2.82-2.87,2.82,1.11,2.82,2.87-1.27,2.89-2.86,2.89Zm0-.81c.97,0,1.91-.66,1.91-2.08s-.93-2.07-1.88-2.07-1.86,.66-1.86,2.07,.86,2.08,1.83,2.08Z"/><path class="h" d="M415.91,112.72c1.38,0,2.29,.71,2.57,1.88h-1c-.19-.67-.75-1.1-1.58-1.1-1.02,0-1.77,.72-1.77,2.09s.75,2.11,1.77,2.11c.82,0,1.37-.4,1.58-1.1h1c-.29,1.11-1.19,1.88-2.57,1.88-1.59,0-2.72-1.12-2.72-2.89s1.13-2.87,2.72-2.87Z"/><path class="h" d="M419.56,111.28c0-.36,.27-.63,.63-.63,.34,0,.61,.27,.61,.63s-.27,.63-.61,.63c-.36,0-.63-.27-.63-.63Zm.15,1.54h.93v5.57h-.93v-5.57Z"/><path class="h" d="M424.51,112.72c1.04,0,1.75,.53,2.08,1.11v-1.02h.94v5.57h-.94v-1.04c-.34,.6-1.06,1.13-2.09,1.13-1.49,0-2.64-1.17-2.64-2.9s1.15-2.86,2.64-2.86Zm.18,.8c-1.02,0-1.88,.74-1.88,2.05s.87,2.09,1.88,2.09,1.89-.76,1.89-2.08-.88-2.07-1.89-2.07Z"/><path class="h" d="M429.08,110.86h.93v7.53h-.93v-7.53Z"/></g></g><g><rect class="k" x="521.91" y="166.66" width="209.9" height="39.22"/><g><path class="h" d="M532.64,175.24h-2.89v2.37h2.58v.76h-2.58v2.44h2.89v.76h-3.82v-7.1h3.82v.76Z"/><path class="h" d="M536.01,181.67c-1.3,0-2.22-.71-2.28-1.73h.96c.05,.54,.53,.95,1.31,.95,.73,0,1.14-.37,1.14-.82,0-1.24-3.3-.52-3.3-2.59,0-.85,.8-1.56,2.04-1.56s2.04,.66,2.11,1.75h-.93c-.04-.56-.47-.97-1.21-.97-.68,0-1.09,.33-1.09,.77,0,1.32,3.24,.6,3.28,2.59,0,.92-.8,1.61-2.03,1.61Z"/><path class="h" d="M539.55,176.77h-.72v-.76h.72v-1.4h.93v1.4h1.46v.76h-1.46v3.29c0,.55,.2,.74,.77,.74h.68v.78h-.83c-.99,0-1.55-.41-1.55-1.53v-3.29Z"/><path class="h" d="M545.35,175.91c1.04,0,1.75,.53,2.08,1.11v-1.02h.94v5.58h-.94v-1.04c-.34,.6-1.06,1.13-2.09,1.13-1.49,0-2.64-1.17-2.64-2.9s1.15-2.86,2.64-2.86Zm.18,.8c-1.02,0-1.88,.74-1.88,2.05s.87,2.09,1.88,2.09,1.89-.76,1.89-2.08-.88-2.07-1.89-2.07Z"/><path class="h" d="M552.48,174.47c0-.36,.27-.63,.63-.63,.34,0,.61,.27,.61,.63s-.27,.63-.61,.63c-.36,0-.63-.27-.63-.63Zm.15,1.54h.93v5.58h-.93v-5.58Z"/><path class="h" d="M559.22,178.43c0-1.14-.62-1.72-1.56-1.72s-1.6,.59-1.6,1.79v3.08h-.93v-5.58h.93v.79c.37-.58,1.04-.9,1.79-.9,1.29,0,2.28,.79,2.28,2.39v3.29h-.91v-3.15Z"/><path class="h" d="M561.85,176.77h-.72v-.76h.72v-1.4h.93v1.4h1.45v.76h-1.45v3.29c0,.55,.2,.74,.77,.74h.68v.78h-.83c-.99,0-1.55-.41-1.55-1.53v-3.29Z"/><path class="h" d="M567.76,181.67c-1.59,0-2.76-1.12-2.76-2.89s1.13-2.87,2.76-2.87,2.68,1.14,2.68,2.67c0,.2-.01,.37-.03,.56h-4.46c.07,1.13,.86,1.75,1.81,1.75,.83,0,1.36-.43,1.57-1.03h1c-.29,1.02-1.18,1.81-2.56,1.81Zm-1.8-3.29h3.52c.01-1.09-.8-1.69-1.76-1.69-.91,0-1.66,.6-1.76,1.69Z"/><path class="h" d="M572.58,181.58h-.93v-5.58h.93v.91c.32-.62,.92-1.01,1.8-1.01v.96h-.24c-.89,0-1.56,.4-1.56,1.69v3.03Z"/><path class="h" d="M577.74,175.91c1.04,0,1.75,.53,2.08,1.11v-1.02h.94v5.58h-.94v-1.04c-.34,.6-1.06,1.13-2.09,1.13-1.49,0-2.64-1.17-2.64-2.9s1.15-2.86,2.64-2.86Zm.18,.8c-1.02,0-1.88,.74-1.88,2.05s.87,2.09,1.88,2.09,1.89-.76,1.89-2.08-.88-2.07-1.89-2.07Z"/><path class="h" d="M584.69,175.91c1.38,0,2.29,.71,2.57,1.88h-1c-.19-.67-.75-1.1-1.58-1.1-1.02,0-1.77,.72-1.77,2.09s.75,2.11,1.77,2.11c.82,0,1.37-.4,1.58-1.1h1c-.26,1.03-1.07,1.77-2.29,1.87v.51c.78-.01,1.31,.34,1.31,1.01s-.52,1.05-1.24,1.05h-1.17v-.6h.99c.44,0,.65-.12,.65-.45s-.21-.44-.65-.44h-.51v-1.09c-1.4-.14-2.38-1.23-2.38-2.87,0-1.75,1.13-2.87,2.72-2.87Z"/><path class="h" d="M590.79,175.91c1.04,0,1.75,.53,2.08,1.11v-1.02h.94v5.58h-.94v-1.04c-.34,.6-1.06,1.13-2.09,1.13-1.49,0-2.64-1.17-2.64-2.9s1.15-2.86,2.64-2.86Zm.18,.8c-1.02,0-1.88,.74-1.88,2.05s.87,2.09,1.88,2.09,1.89-.76,1.89-2.08-.88-2.07-1.89-2.07Zm-.3-2.38c.54,0,.74,.47,1.16,.47,.22,0,.41-.14,.45-.44h.53c-.08,.69-.49,1.06-1.02,1.06s-.75-.47-1.16-.47c-.22,0-.4,.14-.44,.45h-.54c.1-.7,.49-1.07,1.02-1.07Z"/><path class="h" d="M597.79,181.67c-1.58,0-2.78-1.12-2.78-2.89s1.24-2.87,2.82-2.87,2.82,1.11,2.82,2.87-1.27,2.89-2.86,2.89Zm0-.81c.97,0,1.91-.66,1.91-2.08s-.93-2.07-1.88-2.07-1.86,.66-1.86,2.07,.87,2.08,1.83,2.08Z"/><path class="h" d="M607.6,175.91c1.5,0,2.64,1.12,2.64,2.86s-1.15,2.9-2.64,2.9c-1.02,0-1.74-.55-2.09-1.12v3.67h-.93v-8.22h.93v1.03c.34-.59,1.07-1.12,2.09-1.12Zm-.19,.8c-1.01,0-1.89,.77-1.89,2.07s.89,2.08,1.89,2.08,1.89-.77,1.89-2.09-.86-2.05-1.89-2.05Z"/><path class="h" d="M613.89,181.67c-1.58,0-2.78-1.12-2.78-2.89s1.24-2.87,2.82-2.87,2.82,1.11,2.82,2.87-1.27,2.89-2.86,2.89Zm0-.81c.97,0,1.91-.66,1.91-2.08s-.93-2.07-1.88-2.07-1.86,.66-1.86,2.07,.87,2.08,1.83,2.08Z"/><path class="h" d="M620.28,175.91c.88,0,1.68,.45,2.07,1.09v-2.95h.94v7.53h-.94v-1.05c-.34,.62-1.06,1.14-2.08,1.14-1.5,0-2.64-1.17-2.64-2.9s1.15-2.86,2.65-2.86Zm.17,.8c-1.02,0-1.88,.74-1.88,2.05s.87,2.09,1.88,2.09,1.89-.76,1.89-2.08-.88-2.07-1.89-2.07Z"/><path class="h" d="M627.25,181.67c-1.59,0-2.76-1.12-2.76-2.89s1.13-2.87,2.76-2.87,2.68,1.14,2.68,2.67c0,.2,0,.37-.03,.56h-4.46c.07,1.13,.87,1.75,1.81,1.75,.83,0,1.36-.43,1.57-1.03h1c-.28,1.02-1.18,1.81-2.56,1.81Zm-1.8-3.29h3.52c0-1.09-.8-1.69-1.76-1.69-.91,0-1.66,.6-1.76,1.69Z"/><path class="h" d="M635.83,181.67c-1.3,0-2.22-.71-2.28-1.73h.96c.05,.54,.53,.95,1.31,.95,.73,0,1.14-.37,1.14-.82,0-1.24-3.3-.52-3.3-2.59,0-.85,.8-1.56,2.04-1.56s2.04,.66,2.11,1.75h-.93c-.04-.56-.47-.97-1.21-.97-.68,0-1.09,.33-1.09,.77,0,1.32,3.24,.6,3.28,2.59,0,.92-.8,1.61-2.03,1.61Z"/><path class="h" d="M641.58,181.67c-1.59,0-2.76-1.12-2.76-2.89s1.13-2.87,2.76-2.87,2.68,1.14,2.68,2.67c0,.2,0,.37-.03,.56h-4.46c.07,1.13,.87,1.75,1.81,1.75,.83,0,1.36-.43,1.57-1.03h1c-.28,1.02-1.18,1.81-2.56,1.81Zm-1.8-3.29h3.52c0-1.09-.8-1.69-1.76-1.69-.91,0-1.66,.6-1.76,1.69Z"/><path class="h" d="M646.4,181.58h-.93v-5.58h.93v.91c.32-.62,.92-1.01,1.8-1.01v.96h-.24c-.89,0-1.56,.4-1.56,1.69v3.03Z"/><path class="h" d="M660.03,178.43c0-1.14-.61-1.72-1.53-1.72s-1.58,.6-1.58,1.8v3.07h-.92v-3.15c0-1.14-.61-1.72-1.53-1.72s-1.58,.6-1.58,1.8v3.07h-.93v-5.58h.93v.8c.37-.59,1.03-.91,1.76-.91,.92,0,1.68,.41,2.04,1.24,.33-.8,1.12-1.24,1.97-1.24,1.27,0,2.26,.79,2.26,2.39v3.29h-.92v-3.15Z"/><path class="h" d="M664.86,181.67c-1.59,0-2.76-1.12-2.76-2.89s1.13-2.87,2.76-2.87,2.68,1.14,2.68,2.67c0,.2,0,.37-.03,.56h-4.46c.07,1.13,.87,1.75,1.81,1.75,.83,0,1.36-.43,1.57-1.03h1c-.28,1.02-1.18,1.81-2.56,1.81Zm-1.8-3.29h3.52c0-1.09-.8-1.69-1.76-1.69-.91,0-1.66,.6-1.76,1.69Z"/><path class="h" d="M671.07,175.91c.87,0,1.68,.45,2.07,1.09v-2.95h.94v7.53h-.94v-1.05c-.34,.62-1.06,1.14-2.08,1.14-1.5,0-2.64-1.17-2.64-2.9s1.15-2.86,2.66-2.86Zm.17,.8c-1.02,0-1.88,.74-1.88,2.05s.86,2.09,1.88,2.09,1.89-.76,1.89-2.08-.88-2.07-1.89-2.07Z"/><path class="h" d="M675.48,174.47c0-.36,.27-.63,.63-.63,.34,0,.61,.27,.61,.63s-.27,.63-.61,.63c-.36,0-.63-.27-.63-.63Zm.15,1.54h.93v5.58h-.93v-5.58Z"/><path class="h" d="M680.43,175.91c1.04,0,1.75,.53,2.08,1.11v-1.02h.94v5.58h-.94v-1.04c-.34,.6-1.06,1.13-2.09,1.13-1.49,0-2.64-1.17-2.64-2.9s1.15-2.86,2.64-2.86Zm.18,.8c-1.02,0-1.88,.74-1.88,2.05s.87,2.09,1.88,2.09,1.89-.76,1.89-2.08-.88-2.07-1.89-2.07Z"/><path class="h" d="M687.32,175.91c.88,0,1.68,.45,2.07,1.09v-2.95h.94v7.53h-.94v-1.05c-.34,.62-1.06,1.14-2.08,1.14-1.5,0-2.64-1.17-2.64-2.9s1.15-2.86,2.65-2.86Zm.17,.8c-1.02,0-1.88,.74-1.88,2.05s.87,2.09,1.88,2.09,1.89-.76,1.89-2.08-.88-2.07-1.89-2.07Z"/><path class="h" d="M694.18,175.91c1.04,0,1.75,.53,2.08,1.11v-1.02h.94v5.58h-.94v-1.04c-.34,.6-1.06,1.13-2.09,1.13-1.49,0-2.64-1.17-2.64-2.9s1.15-2.86,2.64-2.86Zm.18,.8c-1.02,0-1.88,.74-1.88,2.05s.87,2.09,1.88,2.09,1.89-.76,1.89-2.08-.88-2.07-1.89-2.07Z"/><path class="h" d="M531.83,188.11c1.5,0,2.65,1.12,2.65,2.86s-1.15,2.9-2.65,2.9c-1.02,0-1.74-.55-2.09-1.12v3.67h-.93v-8.22h.93v1.03c.34-.59,1.07-1.12,2.09-1.12Zm-.19,.8c-1.01,0-1.89,.77-1.89,2.07s.89,2.08,1.89,2.08,1.89-.77,1.89-2.09-.86-2.06-1.89-2.06Z"/><path class="h" d="M538.13,193.87c-1.58,0-2.78-1.12-2.78-2.89s1.24-2.87,2.82-2.87,2.82,1.11,2.82,2.87-1.27,2.89-2.86,2.89Zm0-.81c.97,0,1.91-.66,1.91-2.08s-.93-2.07-1.88-2.07-1.86,.66-1.86,2.07,.86,2.08,1.83,2.08Z"/><path class="h" d="M543.13,193.78h-.93v-5.57h.93v.91c.32-.62,.92-1.01,1.8-1.01v.96h-.24c-.89,0-1.56,.4-1.56,1.69v3.03Z"/><path class="h" d="M551.72,188.11c1.5,0,2.65,1.12,2.65,2.86s-1.15,2.9-2.65,2.9c-1.02,0-1.74-.55-2.09-1.12v3.67h-.93v-8.22h.93v1.03c.34-.59,1.07-1.12,2.09-1.12Zm-.19,.8c-1.01,0-1.89,.77-1.89,2.07s.89,2.08,1.89,2.08,1.89-.77,1.89-2.09-.86-2.06-1.89-2.06Z"/><path class="h" d="M556.51,193.78h-.93v-5.57h.93v.91c.32-.62,.92-1.01,1.8-1.01v.96h-.24c-.89,0-1.56,.4-1.56,1.69v3.03Z"/><path class="h" d="M561.81,193.87c-1.58,0-2.78-1.12-2.78-2.89s1.24-2.87,2.82-2.87,2.82,1.11,2.82,2.87-1.27,2.89-2.86,2.89Zm0-.81c.97,0,1.91-.66,1.91-2.08s-.93-2.07-1.88-2.07-1.86,.66-1.86,2.07,.86,2.08,1.83,2.08Z"/><path class="h" d="M568.26,188.11c1.38,0,2.29,.71,2.57,1.88h-1c-.19-.67-.75-1.1-1.58-1.1-1.02,0-1.77,.72-1.77,2.09s.75,2.11,1.77,2.11c.82,0,1.37-.4,1.58-1.1h1c-.29,1.11-1.19,1.88-2.57,1.88-1.59,0-2.72-1.12-2.72-2.89s1.13-2.87,2.72-2.87Z"/><path class="h" d="M574.47,193.87c-1.59,0-2.76-1.12-2.76-2.89s1.13-2.87,2.76-2.87,2.68,1.14,2.68,2.67c0,.2-.01,.37-.03,.56h-4.46c.07,1.13,.86,1.75,1.81,1.75,.83,0,1.36-.43,1.57-1.03h1c-.29,1.02-1.18,1.81-2.56,1.81Zm-1.8-3.29h3.52c.01-1.09-.8-1.69-1.76-1.69-.91,0-1.66,.6-1.76,1.69Z"/><path class="h" d="M580.34,193.87c-1.3,0-2.22-.71-2.28-1.73h.96c.05,.54,.53,.95,1.31,.95,.73,0,1.14-.37,1.14-.82,0-1.24-3.3-.52-3.3-2.59,0-.86,.8-1.56,2.04-1.56s2.04,.66,2.11,1.75h-.93c-.04-.56-.47-.97-1.21-.97-.68,0-1.09,.32-1.09,.77,0,1.32,3.24,.6,3.28,2.59,0,.91-.8,1.61-2.03,1.61Z"/><path class="h" d="M585.64,193.87c-1.3,0-2.22-.71-2.28-1.73h.96c.05,.54,.53,.95,1.31,.95,.73,0,1.14-.37,1.14-.82,0-1.24-3.3-.52-3.3-2.59,0-.86,.8-1.56,2.04-1.56s2.04,.66,2.11,1.75h-.93c-.04-.56-.47-.97-1.21-.97-.68,0-1.09,.32-1.09,.77,0,1.32,3.24,.6,3.28,2.59,0,.91-.8,1.61-2.03,1.61Z"/><path class="h" d="M591.41,193.87c-1.58,0-2.78-1.12-2.78-2.89s1.24-2.87,2.82-2.87,2.82,1.11,2.82,2.87-1.27,2.89-2.86,2.89Zm0-.81c.97,0,1.91-.66,1.91-2.08s-.93-2.07-1.88-2.07-1.86,.66-1.86,2.07,.87,2.08,1.83,2.08Z"/><path class="h" d="M600.57,188.11c1.38,0,2.29,.71,2.57,1.88h-1c-.19-.67-.75-1.1-1.58-1.1-1.02,0-1.77,.72-1.77,2.09s.75,2.11,1.77,2.11c.82,0,1.37-.4,1.58-1.1h1c-.28,1.11-1.19,1.88-2.57,1.88-1.59,0-2.72-1.12-2.72-2.89s1.13-2.87,2.72-2.87Z"/><path class="h" d="M606.8,193.87c-1.58,0-2.78-1.12-2.78-2.89s1.24-2.87,2.82-2.87,2.82,1.11,2.82,2.87-1.27,2.89-2.86,2.89Zm0-.81c.97,0,1.91-.66,1.91-2.08s-.93-2.07-1.88-2.07-1.86,.66-1.86,2.07,.87,2.08,1.83,2.08Z"/><path class="h" d="M614.96,190.63c0-1.14-.62-1.72-1.56-1.72s-1.6,.59-1.6,1.79v3.08h-.93v-5.57h.93v.79c.37-.58,1.04-.9,1.79-.9,1.29,0,2.28,.79,2.28,2.39v3.29h-.92v-3.15Z"/><path class="h" d="M617.59,188.97h-.72v-.76h.72v-1.4h.93v1.4h1.46v.76h-1.46v3.29c0,.55,.2,.74,.77,.74h.68v.78h-.83c-.99,0-1.55-.41-1.55-1.53v-3.29Z"/><path class="h" d="M622.54,185.83v.8l-2.17,1.16v-.69l2.17-1.27Zm-1.45,2.38h.93v5.57h-.93v-5.57Z"/><path class="h" d="M627.67,190.63c0-1.14-.62-1.72-1.56-1.72s-1.6,.59-1.6,1.79v3.08h-.93v-5.57h.93v.79c.37-.58,1.04-.9,1.79-.9,1.29,0,2.28,.79,2.28,2.39v3.29h-.91v-3.15Z"/><path class="h" d="M635.04,193.78h-.93v-.82c-.36,.58-1.04,.91-1.78,.91-1.28,0-2.29-.79-2.29-2.39v-3.27h.92v3.14c0,1.13,.62,1.71,1.56,1.71s1.6-.59,1.6-1.79v-3.06h.93v5.57Z"/><path class="h" d="M639.04,193.87c-1.58,0-2.78-1.12-2.78-2.89s1.24-2.87,2.82-2.87,2.82,1.11,2.82,2.87-1.27,2.89-2.86,2.89Zm0-.81c.97,0,1.91-.66,1.91-2.08s-.93-2.07-1.88-2.07-1.86,.66-1.86,2.07,.86,2.08,1.83,2.08Z"/><path class="h" d="M648.14,188.11c.87,0,1.68,.45,2.07,1.09v-2.95h.94v7.53h-.94v-1.05c-.34,.62-1.06,1.14-2.08,1.14-1.5,0-2.64-1.17-2.64-2.9s1.15-2.86,2.66-2.86Zm.17,.8c-1.02,0-1.88,.74-1.88,2.06s.86,2.09,1.88,2.09,1.89-.76,1.89-2.08-.88-2.07-1.89-2.07Z"/><path class="h" d="M655.11,193.87c-1.59,0-2.76-1.12-2.76-2.89s1.13-2.87,2.76-2.87,2.68,1.14,2.68,2.67c0,.2-.01,.37-.03,.56h-4.46c.07,1.13,.86,1.75,1.81,1.75,.83,0,1.36-.43,1.57-1.03h1c-.29,1.02-1.18,1.81-2.56,1.81Zm-1.8-3.29h3.52c.01-1.09-.8-1.69-1.76-1.69-.91,0-1.66,.6-1.76,1.69Z"/><path class="h" d="M662.65,193.78h-.93v-5.57h.93v.91c.32-.62,.92-1.01,1.8-1.01v.96h-.24c-.89,0-1.56,.4-1.56,1.69v3.03Z"/><path class="h" d="M667.93,193.87c-1.59,0-2.76-1.12-2.76-2.89s1.13-2.87,2.76-2.87,2.68,1.14,2.68,2.67c0,.2-.01,.37-.03,.56h-4.46c.07,1.13,.86,1.75,1.81,1.75,.83,0,1.36-.43,1.57-1.03h1c-.29,1.02-1.18,1.81-2.56,1.81Zm-1.8-3.29h3.52c.01-1.09-.8-1.69-1.76-1.69-.91,0-1.66,.6-1.76,1.69Z"/><path class="h" d="M671.99,188.97h-.72v-.76h.72v-.4c0-1.24,.61-1.8,2.03-1.8v.77c-.83,0-1.11,.3-1.11,1.03v.4h1.17v.76h-1.17v4.81h-.93v-4.81Z"/><path class="h" d="M675.16,186.25h.93v7.53h-.93v-7.53Z"/><path class="h" d="M680.08,193.87c-1.59,0-2.76-1.12-2.76-2.89s1.13-2.87,2.76-2.87,2.68,1.14,2.68,2.67c0,.2-.01,.37-.03,.56h-4.46c.07,1.13,.86,1.75,1.81,1.75,.83,0,1.36-.43,1.57-1.03h1c-.29,1.02-1.18,1.81-2.56,1.81Zm-1.8-3.29h3.52c.01-1.09-.8-1.69-1.76-1.69-.91,0-1.66,.6-1.76,1.69Z"/><path class="h" d="M685.56,191.71l-1.27,2.08h-.97l1.8-2.77-1.8-2.81h1.05l1.32,2.07,1.26-2.07h.97l-1.79,2.76,1.8,2.82h-1.05l-1.32-2.08Z"/><path class="h" d="M688.69,186.67c0-.36,.27-.63,.63-.63,.34,0,.61,.27,.61,.63s-.27,.63-.61,.63c-.36,0-.63-.28-.63-.63Zm.15,1.54h.93v5.57h-.93v-5.57Z"/><path class="h" d="M691.68,188.21l1.74,4.72,1.73-4.72h.99l-2.19,5.57h-1.08l-2.19-5.57h1Z"/><path class="h" d="M696.89,186.67c0-.36,.27-.63,.63-.63,.34,0,.61,.27,.61,.63s-.27,.63-.61,.63c-.36,0-.63-.28-.63-.63Zm.15,1.54h.93v5.57h-.93v-5.57Z"/><path class="h" d="M701.86,188.11c.88,0,1.68,.45,2.07,1.09v-2.95h.94v7.53h-.94v-1.05c-.34,.62-1.06,1.14-2.08,1.14-1.5,0-2.64-1.17-2.64-2.9s1.15-2.86,2.65-2.86Zm.17,.8c-1.02,0-1.88,.74-1.88,2.06s.87,2.09,1.88,2.09,1.89-.76,1.89-2.08-.88-2.07-1.89-2.07Z"/><path class="h" d="M708.72,188.11c1.04,0,1.75,.53,2.08,1.11v-1.02h.94v5.57h-.94v-1.04c-.34,.6-1.06,1.13-2.09,1.13-1.49,0-2.64-1.17-2.64-2.9s1.15-2.86,2.64-2.86Zm.18,.8c-1.02,0-1.88,.74-1.88,2.06s.87,2.09,1.88,2.09,1.89-.76,1.89-2.08-.88-2.07-1.89-2.07Z"/><path class="h" d="M715.6,188.11c.88,0,1.68,.45,2.07,1.09v-2.95h.94v7.53h-.94v-1.05c-.34,.62-1.06,1.14-2.08,1.14-1.5,0-2.64-1.17-2.64-2.9s1.15-2.86,2.65-2.86Zm.17,.8c-1.02,0-1.88,.74-1.88,2.06s.87,2.09,1.88,2.09,1.89-.76,1.89-2.08-.88-2.07-1.89-2.07Z"/><path class="h" d="M722.58,193.87c-1.59,0-2.76-1.12-2.76-2.89s1.13-2.87,2.76-2.87,2.68,1.14,2.68,2.67c0,.2,0,.37-.03,.56h-4.46c.07,1.13,.87,1.75,1.81,1.75,.83,0,1.36-.43,1.57-1.03h1c-.28,1.02-1.18,1.81-2.56,1.81Zm-1.8-3.29h3.52c0-1.09-.8-1.69-1.76-1.69-.91,0-1.66,.6-1.76,1.69Z"/></g></g><g><rect class="j" x="521.91" y="234.64" width="209.9" height="39.22"/><g><path class="h" d="M545.8,248.6h2.06l2,4.94,1.98-4.94h2.04v7.14h-1.74v-4.28l-1.6,4.28h-1.4l-1.61-4.29v4.29h-1.74v-7.14Z"/><path class="h" d="M558.52,255.81c-2.03,0-3.67-1.52-3.67-3.66s1.65-3.65,3.67-3.65,3.65,1.51,3.65,3.65-1.63,3.66-3.65,3.66Zm0-1.59c1.14,0,1.88-.82,1.88-2.08s-.74-2.08-1.88-2.08-1.89,.8-1.89,2.08,.73,2.08,1.89,2.08Z"/><path class="h" d="M569.52,248.6v7.14h-1.74l-2.91-4.41v4.41h-1.74v-7.14h1.74l2.91,4.43v-4.43h1.74Z"/><path class="h" d="M570.78,248.6h1.74v7.14h-1.74v-7.14Z"/><path class="h" d="M573.39,248.6h5.52v1.39h-1.89v5.75h-1.74v-5.75h-1.89v-1.39Z"/><path class="h" d="M583.16,255.81c-2.03,0-3.67-1.52-3.67-3.66s1.65-3.65,3.67-3.65,3.65,1.51,3.65,3.65-1.63,3.66-3.65,3.66Zm0-1.59c1.14,0,1.88-.82,1.88-2.08s-.74-2.08-1.88-2.08-1.89,.8-1.89,2.08,.73,2.08,1.89,2.08Z"/><path class="h" d="M590.7,248.6c1.75,0,2.63,1.01,2.63,2.25,0,.9-.49,1.74-1.59,2.07l1.65,2.83h-1.96l-1.49-2.7h-.42v2.7h-1.74v-7.14h2.92Zm-.1,1.44h-1.08v1.77h1.08c.65,0,.96-.34,.96-.9,0-.53-.3-.87-.96-.87Z"/><path class="h" d="M598.85,254.48h-2.67l-.43,1.26h-1.82l2.58-7.14h2.01l2.58,7.14h-1.84l-.43-1.26Zm-1.33-3.96l-.88,2.61h1.76l-.89-2.61Z"/><path class="h" d="M601.9,248.6h2.06l2,4.94,1.98-4.94h2.04v7.14h-1.74v-4.28l-1.6,4.28h-1.4l-1.61-4.29v4.29h-1.74v-7.14Z"/><path class="h" d="M615.61,249.99h-2.64v1.44h2.33v1.34h-2.33v1.57h2.64v1.39h-4.37v-7.14h4.37v1.39Z"/><path class="h" d="M623.13,248.6v7.14h-1.74l-2.91-4.41v4.41h-1.74v-7.14h1.74l2.91,4.43v-4.43h1.74Z"/><path class="h" d="M624,248.6h5.52v1.39h-1.89v5.75h-1.74v-5.75h-1.89v-1.39Z"/><path class="h" d="M633.77,255.81c-2.03,0-3.67-1.52-3.67-3.66s1.65-3.65,3.67-3.65,3.65,1.51,3.65,3.65-1.63,3.66-3.65,3.66Zm0-1.59c1.14,0,1.88-.82,1.88-2.08s-.74-2.08-1.88-2.08-1.89,.8-1.89,2.08,.73,2.08,1.89,2.08Z"/><path class="h" d="M644.92,249.99h-2.64v1.44h2.33v1.34h-2.33v1.57h2.64v1.39h-4.37v-7.14h4.37v1.39Z"/><path class="h" d="M652.64,254.48h-2.67l-.43,1.26h-1.82l2.58-7.14h2.01l2.58,7.14h-1.84l-.43-1.26Zm-1.33-3.96l-.87,2.61h1.76l-.89-2.61Z"/><path class="h" d="M660.55,248.6h1.84l-2.53,7.14h-2.18l-2.53-7.14h1.85l1.77,5.39,1.78-5.39Z"/><path class="h" d="M667.56,254.48h-2.67l-.43,1.26h-1.82l2.58-7.14h2.01l2.58,7.14h-1.84l-.43-1.26Zm-1.33-3.96l-.87,2.61h1.76l-.89-2.61Z"/><path class="h" d="M672.35,248.6v5.8h2.28v1.34h-4.02v-7.14h1.74Z"/><path class="h" d="M675.46,248.6h1.74v7.14h-1.74v-7.14Z"/><path class="h" d="M682.9,254.48h-2.67l-.43,1.26h-1.82l2.58-7.14h2.01l2.58,7.14h-1.84l-.43-1.26Zm-1.33-3.96l-.87,2.61h1.76l-.89-2.61Z"/><path class="h" d="M689.25,248.52c1.7,0,2.98,.96,3.39,2.5h-1.91c-.3-.61-.83-.92-1.5-.92-1.07,0-1.8,.79-1.8,2.05s.73,2.06,1.8,2.06c.66,0,1.2-.31,1.5-.92h1.91c-.37,1.37-1.41,2.28-2.84,2.46v.4c.61,0,1.32,.32,1.32,1.16s-.71,1.18-1.41,1.18h-1.57v-.96h1.33c.25,0,.41-.06,.41-.26,0-.19-.15-.25-.41-.25h-.72v-1.26c-1.84-.21-3.09-1.64-3.09-3.6,0-2.14,1.49-3.64,3.59-3.64Z"/><path class="h" d="M698.15,254.48h-2.67l-.43,1.26h-1.82l2.58-7.14h2.01l2.58,7.14h-1.84l-.43-1.26Zm-1.95-7.89c.61,0,.93,.46,1.33,.46,.23,0,.4-.14,.44-.46h.9c-.17,1.07-.69,1.51-1.4,1.51-.61,0-.93-.46-1.33-.46-.23,0-.4,.14-.45,.46h-.89c.17-1.07,.68-1.51,1.4-1.51Zm.62,3.93l-.88,2.61h1.76l-.89-2.61Z"/><path class="h" d="M704.57,255.81c-2.02,0-3.67-1.52-3.67-3.66s1.65-3.65,3.67-3.65,3.65,1.51,3.65,3.65-1.63,3.66-3.65,3.66Zm0-1.59c1.14,0,1.88-.82,1.88-2.08s-.74-2.08-1.88-2.08-1.89,.8-1.89,2.08,.73,2.08,1.89,2.08Z"/></g></g><g><rect class="k" x="269.95" y="166.66" width="209.9" height="39.22"/><g><path class="h" d="M288.94,181.34h-2.89v2.37h2.58v.76h-2.58v2.44h2.89v.76h-3.82v-7.1h3.82v.76Z"/><path class="h" d="M292.32,187.77c-1.3,0-2.22-.71-2.28-1.73h.96c.05,.54,.53,.95,1.31,.95,.73,0,1.14-.37,1.14-.82,0-1.24-3.3-.52-3.3-2.59,0-.85,.8-1.56,2.04-1.56s2.04,.66,2.11,1.75h-.93c-.04-.56-.47-.97-1.21-.97-.68,0-1.09,.33-1.09,.77,0,1.32,3.24,.6,3.28,2.59,0,.91-.8,1.61-2.03,1.61Z"/><path class="h" d="M295.85,182.87h-.72v-.76h.72v-1.4h.93v1.4h1.46v.76h-1.46v3.29c0,.55,.2,.74,.77,.74h.68v.78h-.83c-.99,0-1.55-.41-1.55-1.53v-3.29Z"/><path class="h" d="M301.65,182.01c1.04,0,1.75,.53,2.08,1.11v-1.02h.94v5.58h-.94v-1.04c-.34,.6-1.06,1.13-2.09,1.13-1.49,0-2.64-1.17-2.64-2.9s1.15-2.86,2.64-2.86Zm.18,.8c-1.02,0-1.88,.74-1.88,2.06s.86,2.09,1.88,2.09,1.89-.76,1.89-2.08-.88-2.07-1.89-2.07Zm-.3-2.38c.54,0,.74,.47,1.16,.47,.22,0,.41-.14,.45-.44h.53c-.08,.69-.49,1.06-1.02,1.06s-.75-.47-1.16-.47c-.22,0-.4,.14-.44,.45h-.54c.1-.7,.49-1.07,1.02-1.07Z"/><path class="h" d="M308.66,187.77c-1.58,0-2.78-1.12-2.78-2.89s1.24-2.87,2.82-2.87,2.82,1.11,2.82,2.87-1.27,2.89-2.86,2.89Zm0-.81c.97,0,1.91-.66,1.91-2.08s-.93-2.07-1.88-2.07-1.86,.66-1.86,2.07,.86,2.08,1.83,2.08Z"/><path class="h" d="M317.86,187.77c-1.59,0-2.76-1.12-2.76-2.89s1.13-2.87,2.76-2.87,2.68,1.14,2.68,2.67c0,.2-.01,.37-.03,.56h-4.46c.07,1.13,.86,1.75,1.81,1.75,.83,0,1.36-.43,1.57-1.03h1c-.28,1.02-1.18,1.81-2.56,1.81Zm-1.8-3.29h3.52c.01-1.09-.8-1.69-1.76-1.69-.91,0-1.66,.6-1.76,1.69Z"/><path class="h" d="M329.8,184.53c0-1.14-.61-1.72-1.53-1.72s-1.58,.6-1.58,1.8v3.07h-.92v-3.15c0-1.14-.61-1.72-1.53-1.72s-1.58,.6-1.58,1.8v3.07h-.93v-5.58h.93v.8c.37-.59,1.03-.91,1.76-.91,.92,0,1.68,.41,2.05,1.24,.33-.8,1.12-1.24,1.97-1.24,1.27,0,2.26,.79,2.26,2.39v3.29h-.92v-3.15Z"/><path class="h" d="M334.79,180.57c0-.36,.27-.63,.63-.63,.34,0,.61,.27,.61,.63s-.27,.63-.61,.63c-.36,0-.63-.27-.63-.63Zm.15,1.54h.93v5.58h-.93v-5.58Z"/><path class="h" d="M341.52,184.53c0-1.14-.62-1.72-1.56-1.72s-1.6,.59-1.6,1.79v3.08h-.93v-5.58h.93v.79c.37-.58,1.04-.9,1.79-.9,1.29,0,2.28,.79,2.28,2.39v3.29h-.92v-3.15Z"/><path class="h" d="M344.15,182.87h-.72v-.76h.72v-1.4h.93v1.4h1.46v.76h-1.46v3.29c0,.55,.2,.74,.77,.74h.68v.78h-.83c-.99,0-1.55-.41-1.55-1.53v-3.29Z"/><path class="h" d="M350.06,187.77c-1.59,0-2.76-1.12-2.76-2.89s1.13-2.87,2.76-2.87,2.68,1.14,2.68,2.67c0,.2,0,.37-.03,.56h-4.46c.07,1.13,.86,1.75,1.81,1.75,.83,0,1.36-.43,1.57-1.03h1c-.28,1.02-1.18,1.81-2.56,1.81Zm-1.8-3.29h3.52c0-1.09-.8-1.69-1.76-1.69-.91,0-1.66,.6-1.76,1.69Z"/><path class="h" d="M354.88,187.68h-.93v-5.58h.93v.91c.32-.62,.92-1.01,1.8-1.01v.96h-.24c-.89,0-1.56,.4-1.56,1.69v3.03Z"/><path class="h" d="M360.05,182.01c1.04,0,1.75,.53,2.08,1.11v-1.02h.94v5.58h-.94v-1.04c-.34,.6-1.06,1.13-2.09,1.13-1.49,0-2.64-1.17-2.64-2.9s1.15-2.86,2.64-2.86Zm.18,.8c-1.02,0-1.88,.74-1.88,2.06s.86,2.09,1.88,2.09,1.89-.76,1.89-2.08-.88-2.07-1.89-2.07Z"/><path class="h" d="M366.99,182.01c1.38,0,2.29,.71,2.57,1.88h-1c-.19-.67-.75-1.1-1.58-1.1-1.02,0-1.77,.72-1.77,2.09s.75,2.11,1.77,2.11c.82,0,1.37-.4,1.58-1.1h1c-.26,1.03-1.07,1.77-2.29,1.87v.51c.78-.01,1.31,.34,1.31,1.01s-.52,1.05-1.24,1.05h-1.17v-.6h.99c.44,0,.65-.12,.65-.45s-.21-.44-.65-.44h-.51v-1.09c-1.4-.14-2.38-1.23-2.38-2.87,0-1.75,1.13-2.87,2.72-2.87Z"/><path class="h" d="M373.09,182.01c1.04,0,1.75,.53,2.08,1.11v-1.02h.94v5.58h-.94v-1.04c-.34,.6-1.06,1.13-2.09,1.13-1.49,0-2.64-1.17-2.64-2.9s1.15-2.86,2.64-2.86Zm.18,.8c-1.02,0-1.88,.74-1.88,2.06s.86,2.09,1.88,2.09,1.89-.76,1.89-2.08-.88-2.07-1.89-2.07Zm-.3-2.38c.54,0,.74,.47,1.16,.47,.22,0,.41-.14,.45-.44h.53c-.08,.69-.49,1.06-1.02,1.06s-.75-.47-1.16-.47c-.22,0-.4,.14-.44,.45h-.54c.1-.7,.49-1.07,1.02-1.07Z"/><path class="h" d="M380.1,187.77c-1.58,0-2.78-1.12-2.78-2.89s1.24-2.87,2.82-2.87,2.82,1.11,2.82,2.87-1.27,2.89-2.86,2.89Zm0-.81c.97,0,1.91-.66,1.91-2.08s-.93-2.07-1.88-2.07-1.86,.66-1.86,2.07,.86,2.08,1.83,2.08Z"/><path class="h" d="M389.26,182.01c1.38,0,2.29,.71,2.57,1.88h-1c-.19-.67-.75-1.1-1.58-1.1-1.02,0-1.77,.72-1.77,2.09s.75,2.11,1.77,2.11c.82,0,1.37-.4,1.58-1.1h1c-.29,1.11-1.19,1.88-2.57,1.88-1.59,0-2.72-1.12-2.72-2.89s1.13-2.87,2.72-2.87Z"/><path class="h" d="M395.49,187.77c-1.58,0-2.78-1.12-2.78-2.89s1.24-2.87,2.82-2.87,2.82,1.11,2.82,2.87-1.27,2.89-2.86,2.89Zm0-.81c.97,0,1.91-.66,1.91-2.08s-.93-2.07-1.88-2.07-1.86,.66-1.86,2.07,.86,2.08,1.83,2.08Z"/><path class="h" d="M407.62,184.53c0-1.14-.61-1.72-1.53-1.72s-1.58,.6-1.58,1.8v3.07h-.92v-3.15c0-1.14-.61-1.72-1.53-1.72s-1.58,.6-1.58,1.8v3.07h-.93v-5.58h.93v.8c.37-.59,1.03-.91,1.76-.91,.92,0,1.68,.41,2.04,1.24,.33-.8,1.12-1.24,1.97-1.24,1.27,0,2.26,.79,2.26,2.39v3.29h-.92v-3.15Z"/><path class="h" d="M415.19,187.77c-1.58,0-2.78-1.12-2.78-2.89s1.24-2.87,2.82-2.87,2.82,1.11,2.82,2.87-1.27,2.89-2.86,2.89Zm0-.81c.97,0,1.91-.66,1.91-2.08s-.93-2.07-1.88-2.07-1.86,.66-1.86,2.07,.86,2.08,1.83,2.08Z"/><path class="h" d="M424.35,182.01c1.38,0,2.29,.71,2.57,1.88h-1c-.19-.67-.75-1.1-1.58-1.1-1.02,0-1.77,.72-1.77,2.09s.75,2.11,1.77,2.11c.82,0,1.37-.4,1.58-1.1h1c-.29,1.11-1.19,1.88-2.57,1.88-1.59,0-2.72-1.12-2.72-2.89s1.13-2.87,2.72-2.87Z"/><path class="h" d="M430.58,187.77c-1.58,0-2.78-1.12-2.78-2.89s1.24-2.87,2.82-2.87,2.82,1.11,2.82,2.87-1.27,2.89-2.86,2.89Zm0-.81c.97,0,1.91-.66,1.91-2.08s-.93-2.07-1.88-2.07-1.86,.66-1.86,2.07,.86,2.08,1.83,2.08Z"/><path class="h" d="M438.74,184.53c0-1.14-.62-1.72-1.56-1.72s-1.6,.59-1.6,1.79v3.08h-.93v-5.58h.93v.79c.37-.58,1.04-.9,1.79-.9,1.29,0,2.28,.79,2.28,2.39v3.29h-.92v-3.15Z"/><path class="h" d="M441.37,182.87h-.72v-.76h.72v-1.4h.93v1.4h1.45v.76h-1.45v3.29c0,.55,.2,.74,.77,.74h.68v.78h-.83c-.99,0-1.55-.41-1.55-1.53v-3.29Z"/><path class="h" d="M447.28,187.77c-1.59,0-2.76-1.12-2.76-2.89s1.13-2.87,2.76-2.87,2.68,1.14,2.68,2.67c0,.2,0,.37-.03,.56h-4.46c.07,1.13,.86,1.75,1.81,1.75,.83,0,1.36-.43,1.57-1.03h1c-.28,1.02-1.18,1.81-2.56,1.81Zm-1.8-3.29h3.52c0-1.09-.8-1.69-1.76-1.69-.91,0-1.66,.6-1.76,1.69Z"/><path class="h" d="M452.76,185.6l-1.27,2.08h-.97l1.8-2.77-1.8-2.81h1.05l1.32,2.07,1.26-2.07h.97l-1.79,2.76,1.8,2.82h-1.05l-1.32-2.08Z"/><path class="h" d="M456.25,182.87h-.72v-.76h.72v-1.4h.93v1.4h1.46v.76h-1.46v3.29c0,.55,.2,.74,.77,.74h.68v.78h-.83c-.99,0-1.55-.41-1.55-1.53v-3.29Z"/><path class="h" d="M462.18,187.77c-1.58,0-2.78-1.12-2.78-2.89s1.24-2.87,2.82-2.87,2.82,1.11,2.82,2.87-1.27,2.89-2.86,2.89Zm0-.81c.97,0,1.91-.66,1.91-2.08s-.93-2.07-1.88-2.07-1.86,.66-1.86,2.07,.86,2.08,1.83,2.08Z"/></g></g><g><rect class="k" x="8.18" y="166.66" width="209.9" height="73.36"/><g><path class="h" d="M41.67,184.14h-3.09l-.57,1.58h-.98l2.56-7.05h1.07l2.55,7.05h-.98l-.57-1.58Zm-1.55-4.33l-1.28,3.58h2.56l-1.28-3.58Z"/><path class="h" d="M46.7,180.05c1.38,0,2.29,.71,2.57,1.88h-1c-.19-.67-.75-1.1-1.58-1.1-1.02,0-1.77,.72-1.77,2.09s.75,2.11,1.77,2.11c.82,0,1.37-.4,1.58-1.1h1c-.26,1.03-1.07,1.77-2.29,1.87v.51c.78,0,1.31,.34,1.31,1.01s-.52,1.05-1.24,1.05h-1.17v-.6h.99c.44,0,.65-.12,.65-.45s-.21-.44-.65-.44h-.51v-1.09c-1.4-.14-2.38-1.23-2.38-2.87,0-1.75,1.13-2.87,2.72-2.87Z"/><path class="h" d="M52.93,185.81c-1.58,0-2.78-1.12-2.78-2.89s1.24-2.87,2.82-2.87,2.82,1.11,2.82,2.87-1.27,2.89-2.86,2.89Zm0-.81c.97,0,1.91-.66,1.91-2.08s-.93-2.06-1.88-2.06-1.86,.66-1.86,2.06,.86,2.08,1.83,2.08Zm-.43-6.59c.54,0,.74,.47,1.16,.47,.22,0,.41-.14,.45-.44h.53c-.08,.69-.49,1.06-1.02,1.06s-.75-.47-1.16-.47c-.22,0-.4,.14-.44,.45h-.54c.1-.7,.49-1.07,1.02-1.07Z"/><path class="h" d="M59.42,185.81c-1.59,0-2.76-1.12-2.76-2.89s1.13-2.87,2.76-2.87,2.68,1.14,2.68,2.67c0,.2-.01,.37-.03,.56h-4.46c.07,1.13,.86,1.75,1.81,1.75,.83,0,1.36-.43,1.57-1.03h1c-.28,1.02-1.18,1.81-2.56,1.81Zm-1.8-3.29h3.52c.01-1.09-.8-1.69-1.76-1.69-.91,0-1.66,.6-1.76,1.69Z"/><path class="h" d="M65.29,185.81c-1.3,0-2.22-.71-2.28-1.73h.96c.05,.54,.53,.95,1.31,.95,.73,0,1.14-.37,1.14-.82,0-1.24-3.3-.52-3.3-2.59,0-.85,.8-1.56,2.04-1.56s2.04,.66,2.11,1.75h-.93c-.04-.56-.47-.97-1.21-.97-.68,0-1.09,.33-1.09,.77,0,1.32,3.24,.6,3.28,2.59,0,.92-.8,1.61-2.03,1.61Z"/><path class="h" d="M73.77,185.81c-1.58,0-2.78-1.12-2.78-2.89s1.24-2.87,2.82-2.87,2.82,1.11,2.82,2.87-1.27,2.89-2.86,2.89Zm0-.81c.97,0,1.91-.66,1.91-2.08s-.93-2.06-1.88-2.06-1.86,.66-1.86,2.06,.86,2.08,1.83,2.08Z"/><path class="h" d="M78.77,185.72h-.93v-5.57h.93v.91c.32-.62,.92-1.01,1.8-1.01v.96h-.24c-.89,0-1.56,.4-1.56,1.69v3.03Z"/><path class="h" d="M83.94,180.05c1.02,0,1.75,.51,2.08,1.11v-1.02h.94v5.7c0,1.54-1.03,2.63-2.67,2.63-1.47,0-2.51-.74-2.7-1.93h.92c.2,.67,.86,1.13,1.78,1.13,.99,0,1.73-.63,1.73-1.82v-1.17c-.34,.6-1.06,1.14-2.08,1.14-1.5,0-2.64-1.17-2.64-2.9s1.15-2.86,2.64-2.86Zm.18,.8c-1.02,0-1.88,.74-1.88,2.05s.86,2.09,1.88,2.09,1.89-.76,1.89-2.08-.88-2.06-1.89-2.06Z"/><path class="h" d="M90.81,180.05c1.04,0,1.75,.53,2.08,1.11v-1.02h.94v5.57h-.94v-1.04c-.34,.6-1.06,1.13-2.09,1.13-1.49,0-2.64-1.17-2.64-2.9s1.15-2.86,2.64-2.86Zm.18,.8c-1.02,0-1.88,.74-1.88,2.05s.86,2.09,1.88,2.09,1.89-.76,1.89-2.08-.88-2.06-1.89-2.06Z"/><path class="h" d="M99.46,182.56c0-1.14-.62-1.72-1.56-1.72s-1.6,.59-1.6,1.79v3.08h-.93v-5.57h.93v.79c.37-.58,1.04-.9,1.79-.9,1.29,0,2.28,.79,2.28,2.39v3.29h-.92v-3.15Z"/><path class="h" d="M101.74,178.6c0-.36,.27-.63,.63-.63,.34,0,.61,.28,.61,.63s-.27,.63-.61,.63c-.36,0-.63-.27-.63-.63Zm.15,1.54h.93v5.57h-.93v-5.57Z"/><path class="h" d="M107.8,180.89l-2.72,4.06h2.74v.76h-3.8v-.76l2.71-4.06h-2.69v-.75h3.75v.75Z"/><path class="h" d="M111.32,180.05c1.04,0,1.75,.53,2.08,1.11v-1.02h.94v5.57h-.94v-1.04c-.34,.6-1.06,1.13-2.09,1.13-1.49,0-2.64-1.17-2.64-2.9s1.15-2.86,2.64-2.86Zm.18,.8c-1.02,0-1.88,.74-1.88,2.05s.86,2.09,1.88,2.09,1.89-.76,1.89-2.08-.88-2.06-1.89-2.06Z"/><path class="h" d="M118.2,180.05c.87,0,1.68,.45,2.07,1.09v-2.95h.94v7.53h-.94v-1.05c-.34,.62-1.06,1.14-2.08,1.14-1.5,0-2.64-1.17-2.64-2.9s1.15-2.86,2.66-2.86Zm.17,.8c-1.02,0-1.88,.74-1.88,2.05s.86,2.09,1.88,2.09,1.89-.76,1.89-2.08-.88-2.06-1.89-2.06Z"/><path class="h" d="M125.07,180.05c1.04,0,1.75,.53,2.08,1.11v-1.02h.94v5.57h-.94v-1.04c-.34,.6-1.06,1.13-2.09,1.13-1.49,0-2.64-1.17-2.64-2.9s1.15-2.86,2.64-2.86Zm.18,.8c-1.02,0-1.88,.74-1.88,2.05s.86,2.09,1.88,2.09,1.89-.76,1.89-2.08-.88-2.06-1.89-2.06Z"/><path class="h" d="M131.61,185.81c-1.3,0-2.22-.71-2.28-1.73h.96c.05,.54,.53,.95,1.31,.95,.73,0,1.14-.37,1.14-.82,0-1.24-3.3-.52-3.3-2.59,0-.85,.8-1.56,2.04-1.56s2.04,.66,2.11,1.75h-.93c-.04-.56-.47-.97-1.21-.97-.68,0-1.09,.33-1.09,.77,0,1.32,3.24,.6,3.28,2.59,0,.92-.8,1.61-2.03,1.61Z"/><path class="h" d="M140.67,180.05c1.5,0,2.65,1.12,2.65,2.86s-1.15,2.9-2.65,2.9c-1.02,0-1.74-.55-2.09-1.12v3.67h-.93v-8.22h.93v1.03c.34-.59,1.07-1.12,2.09-1.12Zm-.19,.8c-1.01,0-1.89,.77-1.89,2.06s.88,2.08,1.89,2.08,1.89-.77,1.89-2.09-.86-2.05-1.89-2.05Z"/><path class="h" d="M146.83,180.05c1.04,0,1.75,.53,2.08,1.11v-1.02h.94v5.57h-.94v-1.04c-.34,.6-1.06,1.13-2.09,1.13-1.49,0-2.64-1.17-2.64-2.9s1.15-2.86,2.64-2.86Zm.18,.8c-1.02,0-1.88,.74-1.88,2.05s.86,2.09,1.88,2.09,1.89-.76,1.89-2.08-.88-2.06-1.89-2.06Z"/><path class="h" d="M152.34,185.72h-.93v-5.57h.93v.91c.32-.62,.92-1.01,1.8-1.01v.96h-.24c-.89,0-1.56,.4-1.56,1.69v3.03Z"/><path class="h" d="M157.5,180.05c1.04,0,1.75,.53,2.08,1.11v-1.02h.94v5.57h-.94v-1.04c-.34,.6-1.06,1.13-2.09,1.13-1.49,0-2.64-1.17-2.64-2.9s1.15-2.86,2.64-2.86Zm.18,.8c-1.02,0-1.88,.74-1.88,2.05s.86,2.09,1.88,2.09,1.89-.76,1.89-2.08-.88-2.06-1.89-2.06Z"/><path class="h" d="M167.22,185.81c-1.58,0-2.78-1.12-2.78-2.89s1.24-2.87,2.82-2.87,2.82,1.11,2.82,2.87-1.27,2.89-2.86,2.89Zm0-.81c.97,0,1.91-.66,1.91-2.08s-.93-2.06-1.88-2.06-1.86,.66-1.86,2.06,.86,2.08,1.83,2.08Z"/><path class="h" d="M39.89,198.01c-1.59,0-2.76-1.12-2.76-2.89s1.13-2.87,2.76-2.87,2.68,1.14,2.68,2.67c0,.2-.01,.37-.03,.56h-4.46c.07,1.13,.86,1.75,1.81,1.75,.83,0,1.36-.43,1.57-1.03h1c-.28,1.02-1.18,1.81-2.56,1.81Zm-1.8-3.29h3.52c.01-1.09-.8-1.69-1.76-1.69-.91,0-1.66,.6-1.76,1.69Z"/><path class="h" d="M47.86,194.76c0-1.14-.62-1.72-1.56-1.72s-1.6,.59-1.6,1.79v3.08h-.93v-5.57h.93v.79c.37-.58,1.04-.9,1.79-.9,1.29,0,2.28,.79,2.28,2.39v3.29h-.92v-3.15Z"/><path class="h" d="M50.46,193.11h-.72v-.76h.72v-.4c0-1.24,.61-1.8,2.03-1.8v.77c-.83,0-1.11,.3-1.11,1.03v.4h1.17v.76h-1.17v4.81h-.93v-4.81Z"/><path class="h" d="M54.56,197.92h-.93v-5.57h.93v.91c.32-.62,.92-1.01,1.8-1.01v.96h-.24c-.89,0-1.56,.4-1.56,1.69v3.03Z"/><path class="h" d="M59.84,198.01c-1.59,0-2.76-1.12-2.76-2.89s1.13-2.87,2.76-2.87,2.68,1.14,2.68,2.67c0,.2-.01,.37-.03,.56h-4.46c.07,1.13,.86,1.75,1.81,1.75,.83,0,1.36-.43,1.57-1.03h1c-.28,1.02-1.18,1.81-2.56,1.81Zm-1.8-3.29h3.52c.01-1.09-.8-1.69-1.76-1.69-.91,0-1.66,.6-1.76,1.69Z"/><path class="h" d="M67.81,194.76c0-1.14-.62-1.72-1.56-1.72s-1.6,.59-1.6,1.79v3.08h-.93v-5.57h.93v.79c.37-.58,1.04-.9,1.79-.9,1.29,0,2.28,.79,2.28,2.39v3.29h-.92v-3.15Z"/><path class="h" d="M70.44,193.11h-.72v-.76h.72v-1.4h.93v1.4h1.46v.76h-1.46v3.29c0,.55,.2,.74,.77,.74h.68v.78h-.83c-.99,0-1.55-.41-1.55-1.53v-3.29Z"/><path class="h" d="M76.24,192.25c1.04,0,1.75,.53,2.08,1.11v-1.02h.94v5.57h-.94v-1.04c-.34,.6-1.06,1.13-2.09,1.13-1.49,0-2.64-1.17-2.64-2.9s1.15-2.86,2.64-2.86Zm.18,.8c-1.02,0-1.88,.74-1.88,2.05s.86,2.09,1.88,2.09,1.89-.76,1.89-2.08-.88-2.06-1.89-2.06Z"/><path class="h" d="M88.86,194.76c0-1.14-.61-1.72-1.53-1.72s-1.58,.6-1.58,1.8v3.07h-.92v-3.15c0-1.14-.61-1.72-1.53-1.72s-1.58,.6-1.58,1.8v3.07h-.93v-5.57h.93v.8c.37-.59,1.03-.91,1.76-.91,.92,0,1.68,.41,2.05,1.24,.33-.8,1.12-1.24,1.97-1.24,1.27,0,2.26,.79,2.26,2.39v3.29h-.92v-3.15Z"/><path class="h" d="M93.7,198.01c-1.59,0-2.76-1.12-2.76-2.89s1.13-2.87,2.76-2.87,2.68,1.14,2.68,2.67c0,.2-.01,.37-.03,.56h-4.46c.07,1.13,.86,1.75,1.81,1.75,.83,0,1.36-.43,1.57-1.03h1c-.28,1.02-1.18,1.81-2.56,1.81Zm-1.8-3.29h3.52c.01-1.09-.8-1.69-1.76-1.69-.91,0-1.66,.6-1.76,1.69Z"/><path class="h" d="M101.67,194.76c0-1.14-.62-1.72-1.56-1.72s-1.6,.59-1.6,1.79v3.08h-.93v-5.57h.93v.79c.37-.58,1.04-.9,1.79-.9,1.29,0,2.28,.79,2.28,2.39v3.29h-.92v-3.15Z"/><path class="h" d="M104.3,193.11h-.72v-.76h.72v-1.4h.93v1.4h1.46v.76h-1.46v3.29c0,.55,.2,.74,.77,.74h.68v.78h-.83c-.99,0-1.55-.41-1.55-1.53v-3.29Z"/><path class="h" d="M110.23,198.01c-1.58,0-2.78-1.12-2.78-2.89s1.24-2.87,2.82-2.87,2.82,1.11,2.82,2.87-1.27,2.89-2.86,2.89Zm0-.81c.97,0,1.91-.66,1.91-2.08s-.93-2.06-1.88-2.06-1.86,.66-1.86,2.06,.86,2.08,1.83,2.08Z"/><path class="h" d="M119.33,192.25c.87,0,1.68,.45,2.07,1.09v-2.95h.94v7.53h-.94v-1.05c-.34,.62-1.06,1.14-2.08,1.14-1.5,0-2.64-1.17-2.64-2.9s1.15-2.86,2.66-2.86Zm.17,.8c-1.02,0-1.88,.74-1.88,2.05s.86,2.09,1.88,2.09,1.89-.76,1.89-2.08-.88-2.06-1.89-2.06Z"/><path class="h" d="M126.31,198.01c-1.59,0-2.76-1.12-2.76-2.89s1.13-2.87,2.76-2.87,2.68,1.14,2.68,2.67c0,.2-.01,.37-.03,.56h-4.46c.07,1.13,.86,1.75,1.81,1.75,.83,0,1.36-.43,1.57-1.03h1c-.28,1.02-1.18,1.81-2.56,1.81Zm-1.8-3.29h3.52c.01-1.09-.8-1.69-1.76-1.69-.91,0-1.66,.6-1.76,1.69Z"/><path class="h" d="M135.93,192.25c1.5,0,2.65,1.12,2.65,2.86s-1.15,2.9-2.65,2.9c-1.02,0-1.74-.55-2.09-1.12v3.67h-.93v-8.22h.93v1.03c.34-.59,1.07-1.12,2.09-1.12Zm-.19,.8c-1.01,0-1.89,.77-1.89,2.06s.89,2.08,1.89,2.08,1.89-.77,1.89-2.09-.86-2.05-1.89-2.05Z"/><path class="h" d="M140.71,197.92h-.93v-5.57h.93v.91c.32-.62,.92-1.01,1.8-1.01v.96h-.24c-.89,0-1.56,.4-1.56,1.69v3.03Z"/><path class="h" d="M146.01,198.01c-1.58,0-2.78-1.12-2.78-2.89s1.24-2.87,2.82-2.87,2.82,1.11,2.82,2.87-1.27,2.89-2.86,2.89Zm0-.81c.97,0,1.91-.66,1.91-2.08s-.93-2.06-1.88-2.06-1.86,.66-1.86,2.06,.86,2.08,1.83,2.08Z"/><path class="h" d="M153.1,192.25c1.51,0,2.65,1.12,2.65,2.86s-1.15,2.9-2.65,2.9c-1.02,0-1.74-.51-2.09-1.12v1.03h-.93v-7.53h.93v2.99c.36-.62,1.1-1.13,2.09-1.13Zm-.19,.8c-1.01,0-1.89,.77-1.89,2.06s.89,2.08,1.89,2.08,1.89-.77,1.89-2.09-.86-2.05-1.89-2.05Z"/><path class="h" d="M156.96,190.39h.93v7.53h-.93v-7.53Z"/><path class="h" d="M161.87,198.01c-1.59,0-2.76-1.12-2.76-2.89s1.13-2.87,2.76-2.87,2.68,1.14,2.68,2.67c0,.2-.01,.37-.03,.56h-4.46c.07,1.13,.86,1.75,1.81,1.75,.83,0,1.36-.43,1.57-1.03h1c-.28,1.02-1.18,1.81-2.56,1.81Zm-1.8-3.29h3.52c.01-1.09-.8-1.69-1.76-1.69-.91,0-1.66,.6-1.76,1.69Z"/><path class="h" d="M173.82,194.76c0-1.14-.61-1.72-1.53-1.72s-1.58,.6-1.58,1.8v3.07h-.92v-3.15c0-1.14-.61-1.72-1.53-1.72s-1.58,.6-1.58,1.8v3.07h-.93v-5.57h.93v.8c.37-.59,1.03-.91,1.76-.91,.92,0,1.68,.41,2.05,1.24,.33-.8,1.12-1.24,1.97-1.24,1.27,0,2.26,.79,2.26,2.39v3.29h-.92v-3.15Z"/><path class="h" d="M178.54,192.25c1.04,0,1.75,.53,2.08,1.11v-1.02h.94v5.57h-.94v-1.04c-.34,.6-1.06,1.13-2.09,1.13-1.49,0-2.64-1.17-2.64-2.9s1.15-2.86,2.64-2.86Zm.18,.8c-1.02,0-1.88,.74-1.88,2.05s.86,2.09,1.88,2.09,1.89-.76,1.89-2.08-.88-2.06-1.89-2.06Z"/><path class="h" d="M185.09,198.01c-1.3,0-2.22-.71-2.28-1.73h.96c.05,.54,.53,.95,1.31,.95,.73,0,1.14-.37,1.14-.82,0-1.24-3.3-.52-3.3-2.59,0-.85,.8-1.56,2.04-1.56s2.04,.66,2.11,1.75h-.93c-.04-.56-.47-.97-1.21-.97-.68,0-1.09,.33-1.09,.77,0,1.32,3.24,.6,3.28,2.59,0,.92-.8,1.61-2.03,1.61Z"/><path class="h" d="M39.89,210.21c-1.59,0-2.76-1.12-2.76-2.89s1.13-2.87,2.76-2.87,2.68,1.14,2.68,2.67c0,.2-.01,.37-.03,.56h-4.46c.07,1.13,.86,1.75,1.81,1.75,.83,0,1.36-.43,1.57-1.03h1c-.28,1.02-1.18,1.81-2.56,1.81Zm-1.8-3.29h3.52c.01-1.09-.8-1.69-1.76-1.69-.91,0-1.66,.6-1.76,1.69Z"/><path class="h" d="M49.51,204.45c1.5,0,2.65,1.12,2.65,2.86s-1.15,2.9-2.65,2.9c-1.02,0-1.74-.55-2.09-1.12v3.67h-.93v-8.22h.93v1.03c.34-.59,1.07-1.12,2.09-1.12Zm-.19,.8c-1.01,0-1.89,.77-1.89,2.06s.89,2.08,1.89,2.08,1.89-.77,1.89-2.09-.86-2.05-1.89-2.05Z"/><path class="h" d="M55.67,204.45c1.04,0,1.75,.53,2.08,1.11v-1.02h.94v5.57h-.94v-1.04c-.34,.6-1.06,1.13-2.09,1.13-1.49,0-2.64-1.17-2.64-2.9s1.15-2.86,2.64-2.86Zm.18,.8c-1.02,0-1.88,.74-1.88,2.05s.86,2.09,1.88,2.09,1.89-.76,1.89-2.08-.88-2.06-1.89-2.06Z"/><path class="h" d="M61.17,210.12h-.93v-5.57h.93v.91c.32-.62,.92-1.01,1.8-1.01v.96h-.24c-.89,0-1.56,.4-1.56,1.69v3.03Z"/><path class="h" d="M66.33,204.45c1.04,0,1.75,.53,2.08,1.11v-1.02h.94v5.57h-.94v-1.04c-.34,.6-1.06,1.13-2.09,1.13-1.49,0-2.64-1.17-2.64-2.9s1.15-2.86,2.64-2.86Zm.18,.8c-1.02,0-1.88,.74-1.88,2.05s.86,2.09,1.88,2.09,1.89-.76,1.89-2.08-.88-2.06-1.89-2.06Z"/><path class="h" d="M76.05,210.21c-1.58,0-2.78-1.12-2.78-2.89s1.24-2.87,2.82-2.87,2.82,1.11,2.82,2.87-1.27,2.89-2.86,2.89Zm0-.81c.97,0,1.91-.66,1.91-2.08s-.93-2.06-1.88-2.06-1.86,.66-1.86,2.06,.86,2.08,1.83,2.08Z"/><path class="h" d="M85.14,204.45c1.04,0,1.75,.53,2.08,1.11v-1.02h.94v5.57h-.94v-1.04c-.34,.6-1.06,1.13-2.09,1.13-1.49,0-2.64-1.17-2.64-2.9s1.15-2.86,2.64-2.86Zm.18,.8c-1.02,0-1.88,.74-1.88,2.05s.86,2.09,1.88,2.09,1.89-.76,1.89-2.08-.88-2.06-1.89-2.06Z"/><path class="h" d="M89.92,205.31h-.72v-.76h.72v-1.4h.93v1.4h1.46v.76h-1.46v3.29c0,.55,.2,.74,.77,.74h.68v.78h-.83c-.99,0-1.55-.41-1.55-1.53v-3.29Z"/><path class="h" d="M95.83,210.21c-1.59,0-2.76-1.12-2.76-2.89s1.13-2.87,2.76-2.87,2.68,1.14,2.68,2.67c0,.2-.01,.37-.03,.56h-4.46c.07,1.13,.86,1.75,1.81,1.75,.83,0,1.36-.43,1.57-1.03h1c-.28,1.02-1.18,1.81-2.56,1.81Zm-1.8-3.29h3.52c.01-1.09-.8-1.69-1.76-1.69-.91,0-1.66,.6-1.76,1.69Z"/><path class="h" d="M103.8,206.97c0-1.14-.62-1.72-1.56-1.72s-1.6,.59-1.6,1.79v3.08h-.93v-5.57h.93v.79c.37-.58,1.04-.9,1.79-.9,1.29,0,2.28,.79,2.28,2.39v3.29h-.92v-3.15Z"/><path class="h" d="M108.54,204.45c.87,0,1.68,.45,2.07,1.09v-2.95h.94v7.53h-.94v-1.05c-.34,.62-1.06,1.14-2.08,1.14-1.5,0-2.64-1.17-2.64-2.9s1.15-2.86,2.66-2.86Zm.17,.8c-1.02,0-1.88,.74-1.88,2.05s.86,2.09,1.88,2.09,1.89-.76,1.89-2.08-.88-2.06-1.89-2.06Z"/><path class="h" d="M112.95,203.01c0-.36,.27-.63,.63-.63,.34,0,.61,.28,.61,.63s-.27,.63-.61,.63c-.36,0-.63-.27-.63-.63Zm.15,1.54h.93v5.57h-.93v-5.57Z"/><path class="h" d="M123.65,206.97c0-1.14-.61-1.72-1.53-1.72s-1.58,.6-1.58,1.8v3.07h-.92v-3.15c0-1.14-.61-1.72-1.53-1.72s-1.58,.6-1.58,1.8v3.07h-.93v-5.57h.93v.8c.37-.59,1.03-.91,1.76-.91,.92,0,1.68,.41,2.05,1.24,.33-.8,1.12-1.24,1.97-1.24,1.27,0,2.26,.79,2.26,2.39v3.29h-.92v-3.15Z"/><path class="h" d="M128.49,210.21c-1.59,0-2.76-1.12-2.76-2.89s1.13-2.87,2.76-2.87,2.68,1.14,2.68,2.67c0,.2-.01,.37-.03,.56h-4.46c.07,1.13,.86,1.75,1.81,1.75,.83,0,1.36-.43,1.57-1.03h1c-.28,1.02-1.18,1.81-2.56,1.81Zm-1.8-3.29h3.52c.01-1.09-.8-1.69-1.76-1.69-.91,0-1.66,.6-1.76,1.69Z"/><path class="h" d="M136.46,206.97c0-1.14-.62-1.72-1.56-1.72s-1.6,.59-1.6,1.79v3.08h-.93v-5.57h.93v.79c.37-.58,1.04-.9,1.79-.9,1.29,0,2.28,.79,2.28,2.39v3.29h-.92v-3.15Z"/><path class="h" d="M139.1,205.31h-.72v-.76h.72v-1.4h.93v1.4h1.46v.76h-1.46v3.29c0,.55,.2,.74,.77,.74h.68v.78h-.83c-.99,0-1.55-.41-1.55-1.53v-3.29Z"/><path class="h" d="M145.03,210.21c-1.58,0-2.78-1.12-2.78-2.89s1.24-2.87,2.82-2.87,2.82,1.11,2.82,2.87-1.27,2.89-2.86,2.89Zm0-.81c.97,0,1.91-.66,1.91-2.08s-.93-2.06-1.88-2.06-1.86,.66-1.86,2.06,.86,2.08,1.83,2.08Z"/><path class="h" d="M154.13,204.45c.87,0,1.68,.45,2.07,1.09v-2.95h.94v7.53h-.94v-1.05c-.34,.62-1.06,1.14-2.08,1.14-1.5,0-2.64-1.17-2.64-2.9s1.15-2.86,2.66-2.86Zm.17,.8c-1.02,0-1.88,.74-1.88,2.05s.86,2.09,1.88,2.09,1.89-.76,1.89-2.08-.88-2.06-1.89-2.06Z"/><path class="h" d="M161.1,210.21c-1.59,0-2.76-1.12-2.76-2.89s1.13-2.87,2.76-2.87,2.68,1.14,2.68,2.67c0,.2-.01,.37-.03,.56h-4.46c.07,1.13,.86,1.75,1.81,1.75,.83,0,1.36-.43,1.57-1.03h1c-.28,1.02-1.18,1.81-2.56,1.81Zm-1.8-3.29h3.52c.01-1.09-.8-1.69-1.76-1.69-.91,0-1.66,.6-1.76,1.69Z"/><path class="h" d="M41.56,219.17c0-1.14-.62-1.72-1.56-1.72s-1.6,.59-1.6,1.79v3.08h-.93v-5.57h.93v.79c.37-.58,1.04-.9,1.79-.9,1.29,0,2.28,.79,2.28,2.39v3.29h-.92v-3.15Z"/><path class="h" d="M46.39,222.41c-1.59,0-2.76-1.12-2.76-2.89s1.13-2.87,2.76-2.87,2.68,1.14,2.68,2.67c0,.2-.01,.37-.03,.56h-4.46c.07,1.13,.86,1.75,1.81,1.75,.83,0,1.36-.43,1.57-1.03h1c-.28,1.02-1.18,1.81-2.56,1.81Zm-1.8-3.29h3.52c.01-1.09-.8-1.69-1.76-1.69-.91,0-1.66,.6-1.76,1.69Z"/><path class="h" d="M52.66,216.66c1.38,0,2.29,.71,2.57,1.88h-1c-.19-.67-.75-1.1-1.58-1.1-1.02,0-1.77,.72-1.77,2.09s.75,2.11,1.77,2.11c.82,0,1.37-.4,1.58-1.1h1c-.28,1.11-1.19,1.88-2.57,1.88-1.59,0-2.72-1.12-2.72-2.89s1.13-2.87,2.72-2.87Z"/><path class="h" d="M58.87,222.41c-1.59,0-2.76-1.12-2.76-2.89s1.13-2.87,2.76-2.87,2.68,1.14,2.68,2.67c0,.2-.01,.37-.03,.56h-4.46c.07,1.13,.86,1.75,1.81,1.75,.83,0,1.36-.43,1.57-1.03h1c-.28,1.02-1.18,1.81-2.56,1.81Zm-1.8-3.29h3.52c.01-1.09-.8-1.69-1.76-1.69-.91,0-1.66,.6-1.76,1.69Z"/><path class="h" d="M64.74,222.41c-1.3,0-2.22-.71-2.28-1.73h.96c.05,.54,.53,.95,1.31,.95,.73,0,1.14-.37,1.14-.82,0-1.24-3.3-.52-3.3-2.59,0-.85,.8-1.56,2.04-1.56s2.04,.66,2.11,1.75h-.93c-.04-.56-.47-.97-1.21-.97-.68,0-1.09,.33-1.09,.77,0,1.32,3.24,.6,3.28,2.59,0,.92-.8,1.61-2.03,1.61Z"/><path class="h" d="M70.04,222.41c-1.3,0-2.22-.71-2.28-1.73h.96c.05,.54,.53,.95,1.31,.95,.73,0,1.14-.37,1.14-.82,0-1.24-3.3-.52-3.3-2.59,0-.85,.8-1.56,2.04-1.56s2.04,.66,2.11,1.75h-.93c-.04-.56-.47-.97-1.21-.97-.68,0-1.09,.33-1.09,.77,0,1.32,3.24,.6,3.28,2.59,0,.92-.8,1.61-2.03,1.61Z"/><path class="h" d="M73.23,215.21c0-.36,.27-.63,.63-.63,.34,0,.61,.28,.61,.63s-.27,.63-.61,.63c-.36,0-.63-.27-.63-.63Zm.15,1.54h.93v5.57h-.93v-5.57Z"/><path class="h" d="M78.19,216.66c.87,0,1.68,.45,2.07,1.09v-2.95h.94v7.53h-.94v-1.05c-.34,.62-1.06,1.14-2.08,1.14-1.5,0-2.64-1.17-2.64-2.9s1.15-2.86,2.66-2.86Zm.17,.8c-1.02,0-1.88,.74-1.88,2.05s.86,2.09,1.88,2.09,1.89-.76,1.89-2.08-.88-2.06-1.89-2.06Z"/><path class="h" d="M85.05,216.66c1.04,0,1.75,.53,2.08,1.11v-1.02h.94v5.57h-.94v-1.04c-.34,.6-1.06,1.13-2.09,1.13-1.49,0-2.64-1.17-2.64-2.9s1.15-2.86,2.64-2.86Zm.18,.8c-1.02,0-1.88,.74-1.88,2.05s.86,2.09,1.88,2.09,1.89-.76,1.89-2.08-.88-2.06-1.89-2.06Z"/><path class="h" d="M91.94,216.66c.87,0,1.68,.45,2.07,1.09v-2.95h.94v7.53h-.94v-1.05c-.34,.62-1.06,1.14-2.08,1.14-1.5,0-2.64-1.17-2.64-2.9s1.15-2.86,2.66-2.86Zm.17,.8c-1.02,0-1.88,.74-1.88,2.05s.86,2.09,1.88,2.09,1.89-.76,1.89-2.08-.88-2.06-1.89-2.06Z"/><path class="h" d="M98.91,222.41c-1.59,0-2.76-1.12-2.76-2.89s1.13-2.87,2.76-2.87,2.68,1.14,2.68,2.67c0,.2-.01,.37-.03,.56h-4.46c.07,1.13,.86,1.75,1.81,1.75,.83,0,1.36-.43,1.57-1.03h1c-.28,1.02-1.18,1.81-2.56,1.81Zm-1.8-3.29h3.52c.01-1.09-.8-1.69-1.76-1.69-.91,0-1.66,.6-1.76,1.69Z"/><path class="h" d="M104.78,222.41c-1.3,0-2.22-.71-2.28-1.73h.96c.05,.54,.53,.95,1.31,.95,.73,0,1.14-.37,1.14-.82,0-1.24-3.3-.52-3.3-2.59,0-.85,.8-1.56,2.04-1.56s2.04,.66,2.11,1.75h-.93c-.04-.56-.47-.97-1.21-.97-.68,0-1.09,.33-1.09,.77,0,1.32,3.24,.6,3.28,2.59,0,.92-.8,1.61-2.03,1.61Z"/><path class="h" d="M112.8,222.41c-1.3,0-2.22-.71-2.28-1.73h.96c.05,.54,.53,.95,1.31,.95,.73,0,1.14-.37,1.14-.82,0-1.24-3.3-.52-3.3-2.59,0-.85,.8-1.56,2.04-1.56s2.04,.66,2.11,1.75h-.93c-.04-.56-.47-.97-1.21-.97-.68,0-1.09,.33-1.09,.77,0,1.32,3.24,.6,3.28,2.59,0,.92-.8,1.61-2.03,1.61Z"/><path class="h" d="M118.57,222.41c-1.58,0-2.78-1.12-2.78-2.89s1.24-2.87,2.82-2.87,2.82,1.11,2.82,2.87-1.27,2.89-2.86,2.89Zm0-.81c.97,0,1.91-.66,1.91-2.08s-.93-2.06-1.88-2.06-1.86,.66-1.86,2.06,.86,2.08,1.83,2.08Z"/><path class="h" d="M125.01,216.66c1.38,0,2.29,.71,2.57,1.88h-1c-.19-.67-.75-1.1-1.58-1.1-1.02,0-1.77,.72-1.77,2.09s.75,2.11,1.77,2.11c.82,0,1.37-.4,1.58-1.1h1c-.28,1.11-1.19,1.88-2.57,1.88-1.59,0-2.72-1.12-2.72-2.89s1.13-2.87,2.72-2.87Z"/><path class="h" d="M128.66,215.21c0-.36,.27-.63,.63-.63,.34,0,.61,.28,.61,.63s-.27,.63-.61,.63c-.36,0-.63-.27-.63-.63Zm.15,1.54h.93v5.57h-.93v-5.57Z"/><path class="h" d="M133.62,216.66c1.04,0,1.75,.53,2.08,1.11v-1.02h.94v5.57h-.94v-1.04c-.34,.6-1.06,1.13-2.09,1.13-1.49,0-2.64-1.17-2.64-2.9s1.15-2.86,2.64-2.86Zm.18,.8c-1.02,0-1.88,.74-1.88,2.05s.86,2.09,1.88,2.09,1.89-.76,1.89-2.08-.88-2.06-1.89-2.06Z"/><path class="h" d="M138.04,215.21c0-.36,.27-.63,.63-.63,.34,0,.61,.28,.61,.63s-.27,.63-.61,.63c-.36,0-.63-.27-.63-.63Zm.15,1.54h.93v5.57h-.93v-5.57Z"/><path class="h" d="M142.67,222.41c-1.3,0-2.22-.71-2.28-1.73h.96c.05,.54,.53,.95,1.31,.95,.73,0,1.14-.37,1.14-.82,0-1.24-3.3-.52-3.3-2.59,0-.85,.8-1.56,2.04-1.56s2.04,.66,2.11,1.75h-.93c-.04-.56-.47-.97-1.21-.97-.68,0-1.09,.33-1.09,.77,0,1.32,3.24,.6,3.28,2.59,0,.92-.8,1.61-2.03,1.61Z"/></g></g><path id="b" class="l" d="M113.15,68l5.3-5.31c.39-.39,1.01-.39,1.4,0h0c.39,.4,.39,1.04,0,1.43l-6,6.01c-.38,.38-.99,.39-1.38,.03l-6.06-6.04c-.39-.39-.4-1.02,0-1.42,.39-.39,1.02-.4,1.42,0h0l5.31,5.31h0Z"/><path id="c" class="l" d="M113.15,150.07l5.3-5.31c.39-.39,1.01-.39,1.4,0h0c.39,.4,.39,1.04,0,1.43l-6,6.01c-.38,.38-.99,.39-1.38,.03l-6.06-6.04c-.39-.39-.4-1.02,0-1.42,.39-.39,1.02-.4,1.42,0h0l5.31,5.31h0Z"/><path id="d" class="l" d="M374.92,68l5.3-5.31c.39-.39,1.01-.39,1.4,0h0c.39,.4,.39,1.04,0,1.43l-6,6.01c-.38,.38-.99,.39-1.38,.03l-6.06-6.04c-.39-.39-.4-1.02,0-1.42,.39-.39,1.02-.4,1.42,0h0l5.31,5.31h0Z"/><path id="e" class="l" d="M374.92,150.07l5.3-5.31c.39-.39,1.01-.39,1.4,0h0c.39,.4,.39,1.04,0,1.43l-6,6.01c-.38,.38-.99,.39-1.38,.03l-6.06-6.04c-.39-.39-.4-1.02,0-1.42,.39-.39,1.02-.4,1.42,0h0l5.31,5.31h0Z"/><path id="f" class="l" d="M502.15,186.97l-5.31-5.3c-.39-.39-.39-1.01,0-1.4h0c.39-.4,1.03-.4,1.43,0l6.01,6c.38,.38,.39,.99,.03,1.38l-6.04,6.06c-.39,.39-1.02,.4-1.42,0-.39-.39-.4-1.02,0-1.42h0l5.3-5.32h0Z"/><path id="g" class="j" d="M626.85,218.79l-5.3,5.31c-.39,.39-1.01,.39-1.4,0h0c-.39-.4-.39-1.04,0-1.43l6-6.01c.38-.38,.99-.39,1.38-.03l6.06,6.04c.39,.39,.4,1.02,0,1.42-.39,.39-1.02,.4-1.42,0h0l-5.31-5.31h0Z"/></g><polygon class="l" points="114.23 62.38 112.05 62.38 112.05 30.66 218.09 30.66 218.09 32.84 114.23 32.84 114.23 62.38"/></svg>