<?xml version="1.0" encoding="UTF-8"?><svg id="a" xmlns="http://www.w3.org/2000/svg" viewBox="0 0 605 170"><defs><style>.b{fill:#fff;}.c{fill:#29696d;}.d{fill:#0e8041;}.e{fill:#1b8790;}</style></defs><path class="e" d="M583.05,53.86H25.99c-6.46,0-11.72-5.26-11.72-11.72V16.58c0-6.46,5.26-11.72,11.72-11.72H583.05c6.46,0,11.72,5.26,11.72,11.72v25.56c0,6.46-5.26,11.72-11.72,11.72ZM25.99,5.86c-5.91,0-10.72,4.81-10.72,10.72v25.56c0,5.91,4.81,10.72,10.72,10.72H583.05c5.91,0,10.72-4.81,10.72-10.72V16.58c0-5.91-4.81-10.72-10.72-10.72H25.99Z"/><rect class="e" x="14.77" y="5.36" width="113" height="48" rx="11.22" ry="11.22"/><rect class="c" x="14.77" y="62.36" width="113" height="48" rx="11.22" ry="11.22"/><rect class="d" x="13.5" y="119.36" width="113" height="48" rx="11.22" ry="11.22"/><g><path class="b" d="M28.25,24.25h-3.14l-.5,1.49h-2.15l3.05-8.42h2.37l3.05,8.42h-2.17l-.5-1.49Zm-1.57-4.67l-1.03,3.08h2.07l-1.04-3.08Z"/><path class="b" d="M39.56,18.96h-3.11v1.7h2.75v1.58h-2.75v1.85h3.11v1.64h-5.16v-8.42h5.16v1.64Z"/><path class="b" d="M44.33,23.16l-1.51,2.58h-2.33l2.7-4.28-2.76-4.14h2.39l1.69,2.54,1.49-2.54h2.33l-2.67,4.25,2.78,4.17h-2.39l-1.72-2.58Z"/><path class="b" d="M54.63,18.96h-3.11v1.7h2.75v1.58h-2.75v1.85h3.11v1.64h-5.16v-8.42h5.16v1.64Z"/><path class="b" d="M59.85,17.22c2,0,3.51,1.13,3.99,2.95h-2.25c-.35-.72-.98-1.08-1.76-1.08-1.26,0-2.12,.94-2.12,2.42s.86,2.42,2.12,2.42c.78,0,1.42-.36,1.76-1.08h2.25c-.48,1.82-1.99,2.94-3.99,2.94-2.48,0-4.23-1.76-4.23-4.28s1.75-4.29,4.23-4.29Z"/><path class="b" d="M65.07,17.32h2.05v5.04c0,1,.49,1.57,1.46,1.57s1.49-.58,1.49-1.57v-5.04h2.05v5.03c0,2.33-1.63,3.48-3.57,3.48s-3.48-1.15-3.48-3.48v-5.03Z"/><path class="b" d="M77.45,17.22c2,0,3.51,1.13,3.99,2.95h-2.25c-.35-.72-.98-1.08-1.76-1.08-1.26,0-2.12,.94-2.12,2.42s.86,2.42,2.12,2.42c.78,0,1.42-.36,1.76-1.08h2.25c-.43,1.62-1.67,2.69-3.35,2.9v.47c.72,0,1.56,.37,1.56,1.37s-.84,1.39-1.67,1.39h-1.85v-1.13h1.57c.3,0,.48-.07,.48-.31s-.18-.3-.48-.3h-.85v-1.49c-2.17-.25-3.65-1.93-3.65-4.25,0-2.52,1.75-4.29,4.23-4.29Z"/><path class="b" d="M87.95,24.25h-3.14l-.5,1.49h-2.15l3.05-8.42h2.37l3.05,8.42h-2.17l-.5-1.49Zm-2.3-9.29c.72,0,1.09,.54,1.57,.54,.28,0,.47-.17,.52-.54h1.06c-.2,1.26-.82,1.78-1.66,1.78-.72,0-1.09-.54-1.57-.54-.28,0-.47,.17-.53,.54h-1.04c.2-1.26,.8-1.78,1.66-1.78Zm.73,4.63l-1.03,3.08h2.07l-1.04-3.08Z"/><path class="b" d="M95.54,25.82c-2.39,0-4.33-1.79-4.33-4.32s1.94-4.31,4.33-4.31,4.31,1.77,4.31,4.31-1.92,4.32-4.31,4.32Zm0-1.87c1.34,0,2.22-.97,2.22-2.45s-.88-2.45-2.22-2.45-2.23,.95-2.23,2.45,.86,2.45,2.23,2.45Z"/><path class="b" d="M30.58,35.93c0,2.49-1.73,4.21-4.41,4.21h-3.15v-8.42h3.15c2.69,0,4.41,1.7,4.41,4.21Zm-4.55,2.43c1.55,0,2.46-.89,2.46-2.43s-.91-2.46-2.46-2.46h-.97v4.89h.97Z"/><path class="b" d="M36.98,38.65h-3.14l-.5,1.49h-2.15l3.05-8.42h2.37l3.05,8.42h-2.17l-.5-1.49Zm-1.57-4.67l-1.03,3.08h2.07l-1.04-3.08Z"/><path class="b" d="M43.63,40.22c-1.81,0-3.23-.9-3.29-2.6h2.18c.06,.65,.47,.96,1.04,.96s.98-.3,.98-.79c0-1.56-4.21-.72-4.19-3.71,0-1.6,1.31-2.48,3.07-2.48s3.07,.91,3.15,2.52h-2.22c-.04-.54-.42-.86-.97-.88-.49-.01-.86,.24-.86,.77,0,1.46,4.16,.8,4.16,3.62,0,1.42-1.1,2.59-3.07,2.59Z"/><path class="b" d="M55.74,38.65h-3.14l-.5,1.49h-2.15l3.05-8.42h2.37l3.05,8.42h-2.17l-.5-1.49Zm-1.57-4.67l-1.03,3.08h2.07l-1.04-3.08Z"/><path class="b" d="M58.89,31.72h6.51v1.64h-2.23v6.78h-2.05v-6.78h-2.23v-1.64Z"/><path class="b" d="M66.44,31.72h2.05v8.42h-2.05v-8.42Z"/><path class="b" d="M75.71,31.72h2.17l-2.99,8.42h-2.57l-2.99-8.42h2.18l2.09,6.36,2.1-6.36Z"/><path class="b" d="M78.74,31.72h2.05v8.42h-2.05v-8.42Z"/><path class="b" d="M89.85,35.93c0,2.49-1.73,4.21-4.41,4.21h-3.15v-8.42h3.15c2.69,0,4.41,1.7,4.41,4.21Zm-4.55,2.43c1.55,0,2.46-.89,2.46-2.43s-.91-2.46-2.46-2.46h-.97v4.89h.97Z"/><path class="b" d="M96.24,38.65h-3.14l-.5,1.49h-2.15l3.05-8.42h2.37l3.05,8.42h-2.17l-.5-1.49Zm-1.57-4.67l-1.03,3.08h2.07l-1.04-3.08Z"/><path class="b" d="M107.41,35.93c0,2.49-1.73,4.21-4.41,4.21h-3.15v-8.42h3.15c2.69,0,4.41,1.7,4.41,4.21Zm-4.55,2.43c1.55,0,2.46-.89,2.46-2.43s-.91-2.46-2.46-2.46h-.97v4.89h.97Z"/><path class="b" d="M113.73,33.36h-3.11v1.7h2.75v1.58h-2.75v1.85h3.11v1.64h-5.16v-8.42h5.16v1.64Z"/><path class="b" d="M118.11,40.22c-1.81,0-3.23-.9-3.29-2.6h2.18c.06,.65,.47,.96,1.04,.96s.98-.3,.98-.79c0-1.56-4.21-.72-4.19-3.71,0-1.6,1.31-2.48,3.07-2.48s3.07,.91,3.15,2.52h-2.22c-.04-.54-.42-.86-.97-.88-.49-.01-.86,.24-.86,.77,0,1.46,4.16,.8,4.16,3.62,0,1.42-1.1,2.59-3.07,2.59Z"/></g><g><path class="b" d="M29.99,81.82c-2.39,0-4.33-1.79-4.33-4.32s1.94-4.31,4.33-4.31,4.31,1.77,4.31,4.31-1.92,4.32-4.31,4.32Zm0-1.87c1.34,0,2.22-.97,2.22-2.45s-.88-2.45-2.22-2.45-2.23,.95-2.23,2.45,.86,2.45,2.23,2.45Z"/><path class="b" d="M43.23,80.25h-3.14l-.5,1.49h-2.15l3.05-8.42h2.37l3.05,8.42h-2.17l-.5-1.49Zm-1.57-4.67l-1.03,3.08h2.07l-1.04-3.08Z"/><path class="b" d="M48.88,73.32v6.84h2.69v1.58h-4.74v-8.42h2.05Z"/><path class="b" d="M56.44,73.22c2,0,3.51,1.13,3.99,2.95h-2.25c-.35-.72-.98-1.08-1.76-1.08-1.26,0-2.12,.94-2.12,2.42s.86,2.42,2.12,2.42c.78,0,1.42-.36,1.76-1.08h2.25c-.48,1.82-1.99,2.94-3.99,2.94-2.48,0-4.23-1.76-4.23-4.28s1.75-4.29,4.23-4.29Z"/><path class="b" d="M66.94,80.25h-3.14l-.5,1.49h-2.15l3.05-8.42h2.37l3.05,8.42h-2.17l-.5-1.49Zm-1.57-4.67l-1.03,3.08h2.07l-1.04-3.08Z"/><path class="b" d="M78.08,73.32v8.42h-2.05l-3.43-5.19v5.19h-2.05v-8.42h2.05l3.43,5.22v-5.22h2.05Z"/><path class="b" d="M83.45,73.22c2,0,3.51,1.13,3.99,2.95h-2.25c-.35-.72-.98-1.08-1.76-1.08-1.26,0-2.12,.94-2.12,2.42s.86,2.42,2.12,2.42c.78,0,1.42-.36,1.76-1.08h2.25c-.48,1.82-1.99,2.94-3.99,2.94-2.48,0-4.23-1.76-4.23-4.28s1.75-4.29,4.23-4.29Z"/><path class="b" d="M93.87,74.96h-3.11v1.7h2.75v1.58h-2.75v1.85h3.11v1.64h-5.16v-8.42h5.16v1.64Z"/><path class="b" d="M105.32,77.53c0,2.49-1.73,4.21-4.41,4.21h-3.15v-8.42h3.15c2.69,0,4.41,1.7,4.41,4.21Zm-4.55,2.43c1.55,0,2.46-.89,2.46-2.43s-.91-2.46-2.46-2.46h-.97v4.89h.97Z"/><path class="b" d="M110.45,81.82c-2.39,0-4.33-1.79-4.33-4.32s1.94-4.31,4.33-4.31,4.31,1.77,4.31,4.31-1.92,4.32-4.31,4.32Zm0-1.87c1.34,0,2.22-.97,2.22-2.45s-.88-2.45-2.22-2.45-2.23,.95-2.23,2.45,.86,2.45,2.23,2.45Z"/><path class="b" d="M118.95,81.82c-1.81,0-3.23-.9-3.29-2.6h2.18c.06,.65,.47,.96,1.04,.96s.98-.3,.98-.79c0-1.56-4.21-.72-4.19-3.71,0-1.6,1.31-2.48,3.07-2.48s3.07,.91,3.15,2.52h-2.22c-.04-.54-.42-.86-.97-.88-.49-.01-.86,.24-.86,.77,0,1.46,4.16,.8,4.16,3.62,0,1.42-1.1,2.59-3.07,2.59Z"/><path class="b" d="M29.45,87.72c2.06,0,3.09,1.19,3.09,2.65,0,1.06-.58,2.05-1.87,2.43l1.94,3.33h-2.31l-1.75-3.18h-.49v3.18h-2.05v-8.42h3.44Zm-.12,1.7h-1.27v2.09h1.27c.77,0,1.13-.4,1.13-1.06,0-.62-.36-1.03-1.13-1.03Z"/><path class="b" d="M38.99,89.36h-3.11v1.7h2.75v1.58h-2.75v1.85h3.11v1.64h-5.16v-8.42h5.16v1.64Z"/><path class="b" d="M43.37,96.22c-1.81,0-3.23-.9-3.29-2.6h2.18c.06,.65,.47,.96,1.04,.96s.98-.3,.98-.79c0-1.56-4.21-.72-4.19-3.71,0-1.59,1.31-2.48,3.07-2.48s3.07,.91,3.15,2.52h-2.22c-.04-.54-.42-.86-.97-.88-.49-.01-.86,.24-.86,.77,0,1.46,4.16,.8,4.16,3.62,0,1.42-1.1,2.59-3.07,2.59Z"/><path class="b" d="M47.67,87.72h2.05v5.04c0,1,.49,1.57,1.46,1.57s1.49-.58,1.49-1.57v-5.04h2.05v5.03c0,2.33-1.63,3.48-3.57,3.48s-3.48-1.15-3.48-3.48v-5.03Z"/><path class="b" d="M58.22,87.72v6.84h2.69v1.58h-4.74v-8.42h2.05Z"/><path class="b" d="M61.44,87.72h6.51v1.64h-2.23v6.78h-2.05v-6.78h-2.23v-1.64Z"/><path class="b" d="M74.22,94.65h-3.14l-.5,1.49h-2.15l3.05-8.42h2.37l3.05,8.42h-2.17l-.5-1.49Zm-1.57-4.67l-1.03,3.08h2.07l-1.04-3.08Z"/><path class="b" d="M85.39,91.93c0,2.49-1.73,4.21-4.41,4.21h-3.15v-8.42h3.15c2.69,0,4.41,1.7,4.41,4.21Zm-4.55,2.43c1.55,0,2.46-.89,2.46-2.43s-.91-2.46-2.46-2.46h-.97v4.89h.97Z"/><path class="b" d="M90.53,96.22c-2.39,0-4.33-1.79-4.33-4.32s1.94-4.31,4.33-4.31,4.31,1.78,4.31,4.31-1.92,4.32-4.31,4.32Zm0-1.87c1.34,0,2.22-.97,2.22-2.45s-.88-2.45-2.22-2.45-2.23,.95-2.23,2.45,.86,2.45,2.23,2.45Z"/><path class="b" d="M99.03,96.22c-1.81,0-3.23-.9-3.29-2.6h2.18c.06,.65,.47,.96,1.04,.96s.98-.3,.98-.79c0-1.56-4.21-.72-4.19-3.71,0-1.59,1.31-2.48,3.07-2.48s3.07,.91,3.15,2.52h-2.22c-.04-.54-.42-.86-.97-.88-.49-.01-.86,.24-.86,.77,0,1.46,4.16,.8,4.16,3.62,0,1.42-1.1,2.59-3.07,2.59Z"/></g><g><path class="b" d="M29.99,148.82c-2.39,0-4.33-1.79-4.33-4.32s1.94-4.31,4.33-4.31,4.31,1.77,4.31,4.31-1.92,4.32-4.31,4.32Zm0-1.87c1.34,0,2.22-.97,2.22-2.45s-.88-2.45-2.22-2.45-2.23,.95-2.23,2.45,.86,2.45,2.23,2.45Z"/><path class="b" d="M38.49,148.82c-1.81,0-3.23-.9-3.29-2.6h2.18c.06,.65,.47,.96,1.04,.96s.98-.3,.98-.79c0-1.56-4.21-.72-4.19-3.71,0-1.59,1.31-2.48,3.07-2.48s3.07,.91,3.15,2.52h-2.22c-.04-.54-.42-.86-.97-.88-.49-.01-.86,.24-.86,.77,0,1.46,4.16,.8,4.16,3.62,0,1.42-1.1,2.59-3.07,2.59Z"/><path class="b" d="M45.37,140.32h2.05v8.42h-2.05v-8.42Z"/><path class="b" d="M48.91,140.32h2.42l2.36,5.83,2.34-5.83h2.41v8.42h-2.05v-5.05l-1.88,5.05h-1.66l-1.9-5.06v5.06h-2.05v-8.42Z"/><path class="b" d="M63.25,145.71h-1.27v3.02h-2.05v-8.42h3.32c2.06,0,3.09,1.16,3.09,2.71,0,1.39-.95,2.69-3.09,2.69Zm-.16-1.63c.82,0,1.16-.41,1.16-1.06s-.35-1.06-1.16-1.06h-1.12v2.11h1.12Z"/><path class="b" d="M72.65,147.25h-3.14l-.5,1.49h-2.15l3.05-8.42h2.37l3.05,8.42h-2.17l-.5-1.49Zm-1.57-4.67l-1.03,3.08h2.07l-1.04-3.08Z"/><path class="b" d="M80.14,140.22c2,0,3.51,1.13,3.99,2.95h-2.25c-.35-.72-.98-1.08-1.76-1.08-1.26,0-2.12,.94-2.12,2.42s.86,2.42,2.12,2.42c.78,0,1.42-.36,1.76-1.08h2.25c-.48,1.82-1.99,2.94-3.99,2.94-2.48,0-4.23-1.76-4.23-4.28s1.75-4.29,4.23-4.29Z"/><path class="b" d="M84.94,140.32h6.51v1.64h-2.23v6.78h-2.05v-6.78h-2.23v-1.64Z"/><path class="b" d="M96.47,148.82c-2.39,0-4.33-1.79-4.33-4.32s1.94-4.31,4.33-4.31,4.31,1.77,4.31,4.31-1.92,4.32-4.31,4.32Zm0-1.87c1.34,0,2.22-.97,2.22-2.45s-.88-2.45-2.22-2.45-2.23,.95-2.23,2.45,.86,2.45,2.23,2.45Z"/><path class="b" d="M104.97,148.82c-1.81,0-3.23-.9-3.29-2.6h2.18c.06,.65,.47,.96,1.04,.96s.98-.3,.98-.79c0-1.56-4.21-.72-4.19-3.71,0-1.59,1.31-2.48,3.07-2.48s3.07,.91,3.15,2.52h-2.22c-.04-.54-.42-.86-.97-.88-.49-.01-.86,.24-.86,.77,0,1.46,4.16,.8,4.16,3.62,0,1.42-1.1,2.59-3.07,2.59Z"/></g><g><path d="M143,16.02c0-1.34-.73-2.03-1.83-2.03s-1.88,.7-1.88,2.11v3.63h-1.09v-6.57h1.09v.94c.43-.68,1.22-1.06,2.11-1.06,1.52,0,2.69,.94,2.69,2.82v3.87h-1.08v-3.72Z"/><path d="M151.7,19.74h-1.09v-.97c-.42,.68-1.22,1.07-2.1,1.07-1.51,0-2.7-.94-2.7-2.82v-3.85h1.08v3.71c0,1.33,.73,2.01,1.83,2.01s1.88-.7,1.88-2.11v-3.61h1.09v6.57Zm-1.74-9.38v.95l-2.55,1.37v-.82l2.55-1.5Z"/><path d="M163.04,16.02c0-1.34-.72-2.03-1.8-2.03s-1.86,.71-1.86,2.12v3.62h-1.08v-3.72c0-1.34-.72-2.03-1.8-2.03s-1.86,.71-1.86,2.12v3.62h-1.09v-6.57h1.09v.95c.43-.7,1.21-1.07,2.08-1.07,1.08,0,1.98,.48,2.41,1.46,.38-.95,1.32-1.46,2.33-1.46,1.5,0,2.66,.94,2.66,2.82v3.87h-1.08v-3.72Z"/><path d="M168.76,19.84c-1.87,0-3.25-1.32-3.25-3.41s1.33-3.38,3.25-3.38,3.15,1.34,3.15,3.14c0,.24-.01,.43-.04,.66h-5.25c.08,1.33,1.02,2.06,2.13,2.06,.98,0,1.61-.5,1.85-1.21h1.18c-.34,1.2-1.39,2.13-3.02,2.13Zm-2.12-3.87h4.15c.01-1.28-.95-1.99-2.08-1.99-1.07,0-1.95,.71-2.07,1.99Z"/><path d="M174.44,19.74h-1.09v-6.57h1.09v1.07c.37-.73,1.08-1.19,2.12-1.19v1.13h-.29c-1.04,0-1.84,.47-1.84,1.99v3.57Z"/><path d="M180.69,19.84c-1.86,0-3.27-1.32-3.27-3.41s1.46-3.38,3.32-3.38,3.32,1.31,3.32,3.38-1.5,3.41-3.37,3.41Zm0-.96c1.14,0,2.25-.78,2.25-2.45s-1.09-2.43-2.22-2.43-2.19,.78-2.19,2.43,1.02,2.45,2.16,2.45Z"/><path d="M191.43,13.06c1.03,0,1.98,.53,2.43,1.28v-3.48h1.1v8.88h-1.1v-1.24c-.4,.73-1.25,1.34-2.45,1.34-1.76,0-3.12-1.38-3.12-3.42s1.36-3.37,3.13-3.37Zm.2,.95c-1.2,0-2.22,.88-2.22,2.42s1.02,2.46,2.22,2.46,2.23-.9,2.23-2.45-1.03-2.43-2.23-2.43Z"/><path d="M199.67,19.84c-1.87,0-3.25-1.32-3.25-3.41s1.33-3.38,3.25-3.38,3.15,1.34,3.15,3.14c0,.24-.01,.43-.04,.66h-5.25c.08,1.33,1.02,2.06,2.14,2.06,.98,0,1.61-.5,1.85-1.21h1.18c-.34,1.2-1.39,2.13-3.02,2.13Zm-2.12-3.87h4.15c.01-1.28-.95-1.99-2.08-1.99-1.07,0-1.95,.71-2.07,1.99Z"/><path d="M210.26,13.06c1.63,0,2.7,.84,3.03,2.22h-1.18c-.23-.79-.89-1.3-1.86-1.3-1.2,0-2.09,.85-2.09,2.46s.89,2.48,2.09,2.48c.97,0,1.62-.47,1.86-1.3h1.18c-.34,1.31-1.4,2.22-3.03,2.22-1.87,0-3.2-1.32-3.2-3.41s1.33-3.38,3.2-3.38Z"/><path d="M217.46,13.06c1.22,0,2.06,.62,2.45,1.31v-1.2h1.1v6.57h-1.1v-1.22c-.4,.71-1.25,1.33-2.46,1.33-1.75,0-3.11-1.38-3.11-3.42s1.36-3.37,3.12-3.37Zm.22,.95c-1.2,0-2.22,.88-2.22,2.42s1.02,2.46,2.22,2.46,2.23-.9,2.23-2.45-1.03-2.43-2.23-2.43Z"/><path d="M226.41,13.06c1.76,0,3.12,1.32,3.12,3.37s-1.35,3.42-3.12,3.42c-1.2,0-2.05-.65-2.46-1.32v4.33h-1.09V13.16h1.09v1.21c.4-.7,1.26-1.32,2.46-1.32Zm-.23,.95c-1.19,0-2.23,.91-2.23,2.43s1.04,2.45,2.23,2.45,2.23-.91,2.23-2.46-1.02-2.42-2.23-2.42Z"/><path d="M233.69,13.06c1.22,0,2.06,.62,2.45,1.31v-1.2h1.1v6.57h-1.1v-1.22c-.4,.71-1.25,1.33-2.46,1.33-1.75,0-3.11-1.38-3.11-3.42s1.36-3.37,3.12-3.37Zm.22,.95c-1.2,0-2.22,.88-2.22,2.42s1.02,2.46,2.22,2.46,2.23-.9,2.23-2.45-1.03-2.43-2.23-2.43Z"/><path d="M241.88,13.06c1.63,0,2.7,.84,3.03,2.22h-1.18c-.23-.79-.89-1.3-1.86-1.3-1.2,0-2.09,.85-2.09,2.46s.89,2.48,2.09,2.48c.97,0,1.62-.47,1.86-1.3h1.18c-.34,1.31-1.4,2.22-3.03,2.22-1.87,0-3.2-1.32-3.2-3.41s1.33-3.38,3.2-3.38Z"/><path d="M246.19,11.35c0-.42,.32-.74,.74-.74,.4,0,.72,.32,.72,.74s-.32,.74-.72,.74c-.42,0-.74-.32-.74-.74Zm.18,1.81h1.09v6.57h-1.09v-6.57Z"/><path d="M249.56,14.06h-.85v-.9h.85v-1.66h1.09v1.66h1.71v.9h-1.71v3.87c0,.65,.24,.88,.91,.88h.8v.92h-.98c-1.16,0-1.82-.48-1.82-1.8v-3.87Z"/><path d="M256.4,13.06c1.22,0,2.06,.62,2.45,1.31v-1.2h1.1v6.57h-1.1v-1.22c-.4,.71-1.25,1.33-2.46,1.33-1.75,0-3.11-1.38-3.11-3.42s1.36-3.37,3.12-3.37Zm.22,.95c-1.2,0-2.22,.88-2.22,2.42s1.02,2.46,2.22,2.46,2.23-.9,2.23-2.45-1.03-2.43-2.23-2.43Z"/><path d="M264.6,13.06c1.63,0,2.7,.84,3.03,2.22h-1.18c-.23-.79-.89-1.3-1.86-1.3-1.2,0-2.09,.85-2.09,2.46s.89,2.48,2.09,2.48c.97,0,1.62-.47,1.86-1.3h1.18c-.31,1.21-1.26,2.09-2.7,2.21v.6c.92-.01,1.55,.4,1.55,1.19s-.61,1.24-1.46,1.24h-1.38v-.71h1.16c.52,0,.77-.14,.77-.53s-.25-.52-.77-.52h-.6v-1.28c-1.66-.17-2.81-1.45-2.81-3.38,0-2.06,1.33-3.38,3.2-3.38Z"/><path d="M271.95,19.84c-1.86,0-3.27-1.32-3.27-3.41s1.46-3.38,3.32-3.38,3.32,1.31,3.32,3.38-1.5,3.41-3.37,3.41Zm0-.96c1.14,0,2.25-.78,2.25-2.45s-1.09-2.43-2.22-2.43-2.19,.78-2.19,2.43,1.02,2.45,2.16,2.45Zm-.5-7.77c.64,0,.88,.55,1.37,.55,.26,0,.48-.17,.53-.52h.62c-.1,.82-.58,1.25-1.2,1.25s-.89-.55-1.37-.55c-.26,0-.47,.17-.52,.53h-.64c.12-.83,.58-1.26,1.2-1.26Z"/><path d="M279.61,19.84c-1.87,0-3.25-1.32-3.25-3.41s1.33-3.38,3.25-3.38,3.15,1.34,3.15,3.14c0,.24-.01,.43-.04,.66h-5.25c.08,1.33,1.02,2.06,2.13,2.06,.98,0,1.61-.5,1.85-1.21h1.18c-.34,1.2-1.39,2.13-3.02,2.13Zm-2.12-3.87h4.15c.01-1.28-.95-1.99-2.08-1.99-1.07,0-1.95,.71-2.07,1.99Z"/><path d="M286.53,19.84c-1.54,0-2.61-.84-2.69-2.04h1.13c.06,.64,.62,1.12,1.55,1.12,.86,0,1.34-.43,1.34-.97,0-1.46-3.89-.61-3.89-3.06,0-1.01,.95-1.83,2.41-1.83s2.41,.78,2.48,2.06h-1.09c-.05-.66-.55-1.14-1.43-1.14-.8,0-1.28,.38-1.28,.91,0,1.56,3.81,.71,3.86,3.06,0,1.08-.95,1.9-2.4,1.9Z"/><path d="M294.77,19.74h-1.09v-6.57h1.09v1.07c.37-.73,1.08-1.19,2.12-1.19v1.13h-.29c-1.04,0-1.84,.47-1.84,1.99v3.57Z"/><path d="M300.99,19.84c-1.87,0-3.25-1.32-3.25-3.41s1.33-3.38,3.25-3.38,3.15,1.34,3.15,3.14c0,.24-.01,.43-.04,.66h-5.25c.08,1.33,1.02,2.06,2.14,2.06,.98,0,1.61-.5,1.85-1.21h1.18c-.34,1.2-1.39,2.13-3.02,2.13Zm-2.12-3.87h4.15c.01-1.28-.95-1.99-2.08-1.99-1.07,0-1.95,.71-2.07,1.99Z"/><path d="M308.3,13.06c1.22,0,2.06,.62,2.45,1.31v-1.2h1.1v6.57h-1.1v-1.22c-.4,.71-1.25,1.33-2.46,1.33-1.75,0-3.11-1.38-3.11-3.42s1.36-3.37,3.12-3.37Zm.22,.95c-1.2,0-2.22,.88-2.22,2.42s1.02,2.46,2.22,2.46,2.23-.9,2.23-2.45-1.03-2.43-2.23-2.43Z"/><path d="M313.7,10.86h1.09v8.88h-1.09V10.86Z"/><path d="M316.47,11.35c0-.42,.32-.74,.74-.74,.4,0,.72,.32,.72,.74s-.32,.74-.72,.74c-.42,0-.74-.32-.74-.74Zm.18,1.81h1.09v6.57h-1.09v-6.57Z"/><path d="M323.62,14.05l-3.2,4.79h3.23v.9h-4.47v-.9l3.19-4.79h-3.17v-.89h4.43v.89Z"/><path d="M327.78,13.06c1.22,0,2.06,.62,2.45,1.31v-1.2h1.1v6.57h-1.1v-1.22c-.4,.71-1.25,1.33-2.46,1.33-1.75,0-3.11-1.38-3.11-3.42s1.36-3.37,3.12-3.37Zm.22,.95c-1.2,0-2.22,.88-2.22,2.42s1.02,2.46,2.22,2.46,2.23-.9,2.23-2.45-1.03-2.43-2.23-2.43Z"/><path d="M335.9,13.06c1.03,0,1.98,.53,2.43,1.28v-3.48h1.1v8.88h-1.1v-1.24c-.4,.73-1.25,1.34-2.45,1.34-1.76,0-3.12-1.38-3.12-3.42s1.36-3.37,3.13-3.37Zm.2,.95c-1.2,0-2.22,.88-2.22,2.42s1.02,2.46,2.22,2.46,2.23-.9,2.23-2.45-1.03-2.43-2.23-2.43Z"/><path d="M344,13.06c1.22,0,2.06,.62,2.45,1.31v-1.2h1.1v6.57h-1.1v-1.22c-.4,.71-1.25,1.33-2.46,1.33-1.75,0-3.11-1.38-3.11-3.42s1.36-3.37,3.12-3.37Zm.22,.95c-1.2,0-2.22,.88-2.22,2.42s1.02,2.46,2.22,2.46,2.23-.9,2.23-2.45-1.03-2.43-2.23-2.43Z"/><path d="M351.73,19.84c-1.54,0-2.61-.84-2.69-2.04h1.13c.06,.64,.62,1.12,1.55,1.12,.86,0,1.34-.43,1.34-.97,0-1.46-3.89-.61-3.89-3.06,0-1.01,.95-1.83,2.41-1.83s2.41,.78,2.48,2.06h-1.09c-.05-.66-.55-1.14-1.43-1.14-.8,0-1.28,.38-1.28,.91,0,1.56,3.81,.71,3.86,3.06,0,1.08-.95,1.9-2.4,1.9Z"/><path d="M355.89,18.23h1.2l-1.34,3.23h-.73l.88-3.23Zm.41-3.56c-.42,0-.74-.32-.74-.74s.32-.74,.74-.74c.4,0,.72,.32,.72,.74s-.32,.74-.72,.74Z"/><path d="M366.85,16.02c0-1.34-.73-2.03-1.83-2.03s-1.88,.7-1.88,2.11v3.63h-1.09v-6.57h1.09v.94c.43-.68,1.22-1.06,2.11-1.06,1.52,0,2.69,.94,2.69,2.82v3.87h-1.08v-3.72Z"/><path d="M375.55,19.74h-1.09v-.97c-.42,.68-1.22,1.07-2.1,1.07-1.51,0-2.7-.94-2.7-2.82v-3.85h1.08v3.71c0,1.33,.73,2.01,1.83,2.01s1.88-.7,1.88-2.11v-3.61h1.09v6.57Zm-1.74-9.38v.95l-2.55,1.37v-.82l2.55-1.5Z"/><path d="M386.88,16.02c0-1.34-.72-2.03-1.8-2.03s-1.86,.71-1.86,2.12v3.62h-1.08v-3.72c0-1.34-.72-2.03-1.8-2.03s-1.86,.71-1.86,2.12v3.62h-1.09v-6.57h1.09v.95c.43-.7,1.21-1.07,2.07-1.07,1.08,0,1.98,.48,2.41,1.46,.38-.95,1.32-1.46,2.33-1.46,1.5,0,2.66,.94,2.66,2.82v3.87h-1.08v-3.72Z"/><path d="M392.6,19.84c-1.87,0-3.25-1.32-3.25-3.41s1.33-3.38,3.25-3.38,3.15,1.34,3.15,3.14c0,.24-.01,.43-.04,.66h-5.25c.08,1.33,1.02,2.06,2.13,2.06,.98,0,1.61-.5,1.85-1.21h1.17c-.34,1.2-1.39,2.13-3.02,2.13Zm-2.12-3.87h4.15c.01-1.28-.95-1.99-2.08-1.99-1.07,0-1.96,.71-2.07,1.99Z"/><path d="M398.29,19.74h-1.09v-6.57h1.09v1.07c.37-.73,1.08-1.19,2.12-1.19v1.13h-.29c-1.04,0-1.83,.47-1.83,1.99v3.57Z"/><path d="M404.54,19.84c-1.86,0-3.27-1.32-3.27-3.41s1.46-3.38,3.32-3.38,3.32,1.31,3.32,3.38-1.5,3.41-3.37,3.41Zm0-.96c1.14,0,2.25-.78,2.25-2.45s-1.09-2.43-2.22-2.43-2.2,.78-2.2,2.43,1.02,2.45,2.16,2.45Z"/><path d="M415.28,13.06c1.03,0,1.98,.53,2.43,1.28v-3.48h1.1v8.88h-1.1v-1.24c-.4,.73-1.25,1.34-2.45,1.34-1.76,0-3.12-1.38-3.12-3.42s1.36-3.37,3.13-3.37Zm.2,.95c-1.2,0-2.22,.88-2.22,2.42s1.02,2.46,2.22,2.46,2.23-.9,2.23-2.45-1.03-2.43-2.23-2.43Z"/><path d="M423.51,19.84c-1.87,0-3.25-1.32-3.25-3.41s1.33-3.38,3.25-3.38,3.15,1.34,3.15,3.14c0,.24-.01,.43-.04,.66h-5.25c.08,1.33,1.02,2.06,2.13,2.06,.98,0,1.61-.5,1.85-1.21h1.17c-.34,1.2-1.39,2.13-3.02,2.13Zm-2.12-3.87h4.15c.01-1.28-.95-1.99-2.08-1.99-1.07,0-1.96,.71-2.07,1.99Z"/><path d="M434.11,13.06c1.63,0,2.7,.84,3.03,2.22h-1.17c-.23-.79-.89-1.3-1.86-1.3-1.2,0-2.09,.85-2.09,2.46s.89,2.48,2.09,2.48c.97,0,1.62-.47,1.86-1.3h1.17c-.34,1.31-1.4,2.22-3.03,2.22-1.87,0-3.2-1.32-3.2-3.41s1.33-3.38,3.2-3.38Z"/><path d="M441.46,19.84c-1.86,0-3.27-1.32-3.27-3.41s1.46-3.38,3.32-3.38,3.32,1.31,3.32,3.38-1.5,3.41-3.37,3.41Zm0-.96c1.14,0,2.25-.78,2.25-2.45s-1.09-2.43-2.22-2.43-2.2,.78-2.2,2.43,1.02,2.45,2.16,2.45Z"/><path d="M451.09,16.02c0-1.34-.73-2.03-1.83-2.03s-1.88,.7-1.88,2.11v3.63h-1.09v-6.57h1.09v.94c.43-.68,1.22-1.06,2.11-1.06,1.52,0,2.69,.94,2.69,2.82v3.87h-1.08v-3.72Z"/><path d="M456.28,19.84c-1.54,0-2.61-.84-2.69-2.04h1.13c.06,.64,.62,1.12,1.55,1.12,.86,0,1.34-.43,1.34-.97,0-1.46-3.89-.61-3.89-3.06,0-1.01,.95-1.83,2.41-1.83s2.41,.78,2.48,2.06h-1.09c-.05-.66-.55-1.14-1.43-1.14-.8,0-1.28,.38-1.28,.91,0,1.56,3.81,.71,3.86,3.06,0,1.08-.95,1.9-2.4,1.9Z"/><path d="M466.05,19.74h-1.09v-.97c-.42,.68-1.22,1.07-2.1,1.07-1.51,0-2.7-.94-2.7-2.82v-3.85h1.08v3.71c0,1.33,.73,2.01,1.83,2.01s1.88-.7,1.88-2.11v-3.61h1.09v6.57Z"/><path d="M467.9,10.86h1.09v8.88h-1.09V10.86Z"/><path d="M471.09,14.06h-.85v-.9h.85v-1.66h1.09v1.66h1.71v.9h-1.71v3.87c0,.65,.24,.88,.91,.88h.8v.92h-.98c-1.16,0-1.82-.48-1.82-1.8v-3.87Z"/><path d="M477.93,13.06c1.22,0,2.06,.62,2.45,1.31v-1.2h1.1v6.57h-1.1v-1.22c-.4,.71-1.25,1.33-2.46,1.33-1.75,0-3.11-1.38-3.11-3.42s1.36-3.37,3.12-3.37Zm.22,.95c-1.2,0-2.22,.88-2.22,2.42s1.02,2.46,2.22,2.46,2.23-.9,2.23-2.45-1.03-2.43-2.23-2.43Z"/><path d="M485.66,19.84c-1.54,0-2.61-.84-2.69-2.04h1.13c.06,.64,.62,1.12,1.55,1.12,.86,0,1.34-.43,1.34-.97,0-1.46-3.89-.61-3.89-3.06,0-1.01,.95-1.83,2.41-1.83s2.41,.78,2.48,2.06h-1.09c-.05-.66-.55-1.14-1.43-1.14-.8,0-1.28,.38-1.28,.91,0,1.56,3.81,.71,3.86,3.06,0,1.08-.95,1.9-2.4,1.9Z"/><path d="M493.89,19.74h-1.09v-6.57h1.09v1.07c.37-.73,1.08-1.19,2.12-1.19v1.13h-.29c-1.04,0-1.83,.47-1.83,1.99v3.57Z"/><path d="M500.12,19.84c-1.87,0-3.25-1.32-3.25-3.41s1.33-3.38,3.25-3.38,3.15,1.34,3.15,3.14c0,.24-.01,.43-.04,.66h-5.25c.08,1.33,1.02,2.06,2.13,2.06,.98,0,1.61-.5,1.85-1.21h1.17c-.34,1.2-1.39,2.13-3.02,2.13Zm-2.12-3.87h4.15c.01-1.28-.95-1.99-2.08-1.99-1.07,0-1.96,.71-2.07,1.99Z"/><path d="M507.43,13.06c1.22,0,2.06,.62,2.45,1.31v-1.2h1.1v6.57h-1.1v-1.22c-.4,.71-1.25,1.33-2.46,1.33-1.75,0-3.11-1.38-3.11-3.42s1.36-3.37,3.12-3.37Zm.22,.95c-1.2,0-2.22,.88-2.22,2.42s1.02,2.46,2.22,2.46,2.23-.9,2.23-2.45-1.03-2.43-2.23-2.43Z"/><path d="M512.83,10.86h1.09v8.88h-1.09V10.86Z"/><path d="M515.6,11.35c0-.42,.32-.74,.74-.74,.4,0,.72,.32,.72,.74s-.32,.74-.72,.74c-.42,0-.74-.32-.74-.74Zm.18,1.81h1.09v6.57h-1.09v-6.57Z"/><path d="M522.75,14.05l-3.2,4.79h3.23v.9h-4.47v-.9l3.19-4.79h-3.17v-.89h4.43v.89Z"/><path d="M526.9,13.06c1.22,0,2.06,.62,2.45,1.31v-1.2h1.1v6.57h-1.1v-1.22c-.4,.71-1.25,1.33-2.46,1.33-1.75,0-3.11-1.38-3.11-3.42s1.36-3.37,3.12-3.37Zm.22,.95c-1.2,0-2.22,.88-2.22,2.42s1.02,2.46,2.22,2.46,2.23-.9,2.23-2.45-1.03-2.43-2.23-2.43Z"/><path d="M535.03,13.06c1.03,0,1.98,.53,2.44,1.28v-3.48h1.1v8.88h-1.1v-1.24c-.4,.73-1.25,1.34-2.45,1.34-1.76,0-3.12-1.38-3.12-3.42s1.36-3.37,3.13-3.37Zm.2,.95c-1.2,0-2.22,.88-2.22,2.42s1.02,2.46,2.22,2.46,2.23-.9,2.23-2.45-1.03-2.43-2.23-2.43Z"/><path d="M543.13,13.06c1.22,0,2.06,.62,2.45,1.31v-1.2h1.1v6.57h-1.1v-1.22c-.4,.71-1.25,1.33-2.46,1.33-1.75,0-3.11-1.38-3.11-3.42s1.36-3.37,3.12-3.37Zm.22,.95c-1.2,0-2.22,.88-2.22,2.42s1.02,2.46,2.22,2.46,2.23-.9,2.23-2.45-1.03-2.43-2.23-2.43Z"/><path d="M550.86,19.84c-1.54,0-2.61-.84-2.69-2.04h1.13c.06,.64,.62,1.12,1.55,1.12,.86,0,1.34-.43,1.34-.97,0-1.46-3.89-.61-3.89-3.06,0-1.01,.95-1.83,2.41-1.83s2.41,.78,2.48,2.06h-1.09c-.05-.66-.55-1.14-1.43-1.14-.8,0-1.28,.38-1.28,.91,0,1.56,3.81,.71,3.86,3.06,0,1.08-.95,1.9-2.4,1.9Z"/><path d="M555.02,18.23h1.2l-1.34,3.23h-.73l.88-3.23Zm.41-3.56c-.42,0-.74-.32-.74-.74s.32-.74,.74-.74c.4,0,.72,.32,.72,.74s-.32,.74-.72,.74Z"/><path d="M143,30.42c0-1.34-.73-2.03-1.83-2.03s-1.88,.7-1.88,2.11v3.63h-1.09v-6.57h1.09v.94c.43-.68,1.22-1.06,2.11-1.06,1.52,0,2.69,.94,2.69,2.82v3.87h-1.08v-3.72Z"/><path d="M151.7,34.14h-1.09v-.97c-.42,.68-1.22,1.07-2.1,1.07-1.51,0-2.7-.94-2.7-2.82v-3.85h1.08v3.71c0,1.33,.73,2.01,1.83,2.01s1.88-.7,1.88-2.11v-3.61h1.09v6.57Zm-1.74-9.38v.95l-2.55,1.37v-.82l2.55-1.5Z"/><path d="M163.04,30.42c0-1.34-.72-2.03-1.8-2.03s-1.86,.71-1.86,2.12v3.62h-1.08v-3.72c0-1.34-.72-2.03-1.8-2.03s-1.86,.71-1.86,2.12v3.62h-1.09v-6.57h1.09v.95c.43-.7,1.21-1.07,2.08-1.07,1.08,0,1.98,.48,2.41,1.46,.38-.95,1.32-1.46,2.33-1.46,1.5,0,2.66,.94,2.66,2.82v3.87h-1.08v-3.72Z"/><path d="M168.76,34.24c-1.87,0-3.25-1.32-3.25-3.41s1.33-3.38,3.25-3.38,3.15,1.34,3.15,3.14c0,.24-.01,.43-.04,.66h-5.25c.08,1.33,1.02,2.06,2.13,2.06,.98,0,1.61-.5,1.85-1.21h1.18c-.34,1.2-1.39,2.13-3.02,2.13Zm-2.12-3.87h4.15c.01-1.28-.95-1.99-2.08-1.99-1.07,0-1.95,.71-2.07,1.99Z"/><path d="M174.44,34.14h-1.09v-6.57h1.09v1.07c.37-.73,1.08-1.19,2.12-1.19v1.13h-.29c-1.04,0-1.84,.47-1.84,1.99v3.57Z"/><path d="M180.69,34.24c-1.86,0-3.27-1.32-3.27-3.41s1.46-3.38,3.32-3.38,3.32,1.31,3.32,3.38-1.5,3.41-3.37,3.41Zm0-.96c1.14,0,2.25-.78,2.25-2.45s-1.09-2.43-2.22-2.43-2.19,.78-2.19,2.43,1.02,2.45,2.16,2.45Z"/><path d="M191.43,27.46c1.03,0,1.98,.53,2.43,1.28v-3.48h1.1v8.88h-1.1v-1.24c-.4,.73-1.25,1.34-2.45,1.34-1.76,0-3.12-1.38-3.12-3.42s1.36-3.37,3.13-3.37Zm.2,.95c-1.2,0-2.22,.88-2.22,2.42s1.02,2.46,2.22,2.46,2.23-.9,2.23-2.45-1.03-2.43-2.23-2.43Z"/><path d="M199.67,34.24c-1.87,0-3.25-1.32-3.25-3.41s1.33-3.38,3.25-3.38,3.15,1.34,3.15,3.14c0,.24-.01,.43-.04,.66h-5.25c.08,1.33,1.02,2.06,2.14,2.06,.98,0,1.61-.5,1.85-1.21h1.18c-.34,1.2-1.39,2.13-3.02,2.13Zm-2.12-3.87h4.15c.01-1.28-.95-1.99-2.08-1.99-1.07,0-1.95,.71-2.07,1.99Z"/><path d="M207.71,28.46h-.85v-.9h.85v-1.66h1.09v1.66h1.71v.9h-1.71v3.87c0,.65,.24,.88,.91,.88h.8v.92h-.98c-1.16,0-1.82-.48-1.82-1.8v-3.87Z"/><path d="M214.68,34.24c-1.87,0-3.25-1.32-3.25-3.41s1.33-3.38,3.25-3.38,3.15,1.34,3.15,3.14c0,.24-.01,.43-.04,.66h-5.25c.08,1.33,1.02,2.06,2.13,2.06,.98,0,1.61-.5,1.85-1.21h1.18c-.34,1.2-1.39,2.13-3.02,2.13Zm-2.12-3.87h4.15c.01-1.28-.95-1.99-2.08-1.99-1.07,0-1.95,.71-2.07,1.99Z"/><path d="M221.6,34.24c-1.54,0-2.61-.84-2.69-2.04h1.13c.06,.64,.62,1.12,1.55,1.12,.86,0,1.34-.43,1.34-.97,0-1.46-3.89-.61-3.89-3.06,0-1.01,.95-1.83,2.41-1.83s2.41,.78,2.48,2.06h-1.09c-.05-.66-.55-1.14-1.43-1.14-.8,0-1.28,.38-1.28,.91,0,1.56,3.81,.71,3.86,3.06,0,1.08-.95,1.9-2.4,1.9Z"/><path d="M225.78,28.46h-.85v-.9h.85v-1.66h1.09v1.66h1.71v.9h-1.71v3.87c0,.65,.24,.88,.91,.88h.8v.92h-.98c-1.16,0-1.82-.48-1.82-1.8v-3.87Z"/><path d="M232.62,27.46c1.22,0,2.06,.62,2.45,1.31v-1.2h1.1v6.57h-1.1v-1.22c-.4,.71-1.25,1.33-2.46,1.33-1.75,0-3.11-1.38-3.11-3.42s1.36-3.37,3.12-3.37Zm.22,.95c-1.2,0-2.22,.88-2.22,2.42s1.02,2.46,2.22,2.46,2.23-.9,2.23-2.45-1.03-2.43-2.23-2.43Z"/><path d="M240.73,27.46c1.2,0,2.06,.6,2.45,1.31v-1.2h1.1v6.72c0,1.81-1.21,3.09-3.14,3.09-1.73,0-2.96-.88-3.18-2.28h1.08c.24,.79,1.02,1.33,2.1,1.33,1.16,0,2.04-.74,2.04-2.15v-1.38c-.4,.71-1.25,1.34-2.45,1.34-1.76,0-3.12-1.38-3.12-3.42s1.36-3.37,3.12-3.37Zm.22,.95c-1.2,0-2.22,.88-2.22,2.42s1.02,2.46,2.22,2.46,2.23-.9,2.23-2.45-1.03-2.43-2.23-2.43Z"/><path d="M248.97,34.24c-1.87,0-3.25-1.32-3.25-3.41s1.33-3.38,3.25-3.38,3.15,1.34,3.15,3.14c0,.24-.01,.43-.04,.66h-5.25c.08,1.33,1.02,2.06,2.14,2.06,.98,0,1.61-.5,1.85-1.21h1.18c-.34,1.2-1.39,2.13-3.02,2.13Zm-2.12-3.87h4.15c.01-1.28-.95-1.99-2.08-1.99-1.07,0-1.95,.71-2.07,1.99Z"/><path d="M258.38,30.42c0-1.34-.73-2.03-1.83-2.03s-1.88,.7-1.88,2.11v3.63h-1.09v-6.57h1.09v.94c.43-.68,1.22-1.06,2.11-1.06,1.52,0,2.69,.94,2.69,2.82v3.87h-1.08v-3.72Z"/><path d="M263.58,34.24c-1.54,0-2.61-.84-2.69-2.04h1.13c.06,.64,.62,1.12,1.55,1.12,.86,0,1.34-.43,1.34-.97,0-1.46-3.89-.61-3.89-3.06,0-1.01,.95-1.83,2.41-1.83s2.41,.78,2.48,2.06h-1.09c-.05-.66-.55-1.14-1.43-1.14-.8,0-1.28,.38-1.28,.91,0,1.56,3.81,.71,3.86,3.06,0,1.08-.95,1.9-2.4,1.9Z"/><path d="M271.81,34.14h-1.09v-6.57h1.09v1.07c.37-.73,1.08-1.19,2.12-1.19v1.13h-.29c-1.04,0-1.84,.47-1.84,1.99v3.57Z"/><path d="M278.04,34.24c-1.87,0-3.25-1.32-3.25-3.41s1.33-3.38,3.25-3.38,3.15,1.34,3.15,3.14c0,.24-.01,.43-.04,.66h-5.25c.08,1.33,1.02,2.06,2.14,2.06,.98,0,1.61-.5,1.85-1.21h1.18c-.34,1.2-1.39,2.13-3.02,2.13Zm-2.12-3.87h4.15c.01-1.28-.95-1.99-2.08-1.99-1.07,0-1.95,.71-2.07,1.99Z"/><path d="M285.35,27.46c1.22,0,2.06,.62,2.45,1.31v-1.2h1.1v6.57h-1.1v-1.22c-.4,.71-1.25,1.33-2.46,1.33-1.75,0-3.11-1.38-3.11-3.42s1.36-3.37,3.12-3.37Zm.22,.95c-1.2,0-2.22,.88-2.22,2.42s1.02,2.46,2.22,2.46,2.23-.9,2.23-2.45-1.03-2.43-2.23-2.43Z"/><path d="M290.75,25.26h1.09v8.88h-1.09v-8.88Z"/><path d="M293.52,25.75c0-.42,.32-.74,.74-.74,.4,0,.72,.32,.72,.74s-.32,.74-.72,.74c-.42,0-.74-.32-.74-.74Zm.18,1.81h1.09v6.57h-1.09v-6.57Z"/><path d="M300.67,28.45l-3.2,4.79h3.23v.9h-4.47v-.9l3.19-4.79h-3.17v-.89h4.43v.89Z"/><path d="M304.82,27.46c1.22,0,2.06,.62,2.45,1.31v-1.2h1.1v6.57h-1.1v-1.22c-.4,.71-1.25,1.33-2.46,1.33-1.75,0-3.11-1.38-3.11-3.42s1.36-3.37,3.12-3.37Zm.22,.95c-1.2,0-2.22,.88-2.22,2.42s1.02,2.46,2.22,2.46,2.23-.9,2.23-2.45-1.03-2.43-2.23-2.43Z"/><path d="M312.94,27.46c1.03,0,1.98,.53,2.43,1.28v-3.48h1.1v8.88h-1.1v-1.24c-.4,.73-1.25,1.34-2.45,1.34-1.76,0-3.12-1.38-3.12-3.42s1.36-3.37,3.13-3.37Zm.2,.95c-1.2,0-2.22,.88-2.22,2.42s1.02,2.46,2.22,2.46,2.23-.9,2.23-2.45-1.03-2.43-2.23-2.43Z"/><path d="M321.04,27.46c1.22,0,2.06,.62,2.45,1.31v-1.2h1.1v6.57h-1.1v-1.22c-.4,.71-1.25,1.33-2.46,1.33-1.75,0-3.11-1.38-3.11-3.42s1.36-3.37,3.12-3.37Zm.22,.95c-1.2,0-2.22,.88-2.22,2.42s1.02,2.46,2.22,2.46,2.23-.9,2.23-2.45-1.03-2.43-2.23-2.43Z"/><path d="M328.77,34.24c-1.54,0-2.61-.84-2.69-2.04h1.13c.06,.64,.62,1.12,1.55,1.12,.86,0,1.34-.43,1.34-.97,0-1.46-3.89-.61-3.89-3.06,0-1.01,.95-1.83,2.41-1.83s2.41,.78,2.48,2.06h-1.09c-.05-.66-.55-1.14-1.43-1.14-.8,0-1.28,.38-1.28,.91,0,1.56,3.81,.71,3.86,3.06,0,1.08-.95,1.9-2.4,1.9Z"/><path d="M332.94,32.63h1.2l-1.34,3.23h-.73l.88-3.23Zm.41-3.56c-.42,0-.74-.32-.74-.74s.32-.74,.74-.74c.4,0,.72,.32,.72,.74s-.32,.74-.72,.74Z"/><path d="M343.89,30.42c0-1.34-.73-2.03-1.83-2.03s-1.88,.7-1.88,2.11v3.63h-1.09v-6.57h1.09v.94c.43-.68,1.22-1.06,2.11-1.06,1.52,0,2.69,.94,2.69,2.82v3.87h-1.08v-3.72Z"/><path d="M352.59,34.14h-1.09v-.97c-.42,.68-1.22,1.07-2.1,1.07-1.51,0-2.7-.94-2.7-2.82v-3.85h1.08v3.71c0,1.33,.73,2.01,1.83,2.01s1.88-.7,1.88-2.11v-3.61h1.09v6.57Zm-1.74-9.38v.95l-2.55,1.37v-.82l2.55-1.5Z"/><path d="M363.93,30.42c0-1.34-.72-2.03-1.8-2.03s-1.86,.71-1.86,2.12v3.62h-1.08v-3.72c0-1.34-.72-2.03-1.8-2.03s-1.86,.71-1.86,2.12v3.62h-1.09v-6.57h1.09v.95c.43-.7,1.21-1.07,2.07-1.07,1.08,0,1.98,.48,2.41,1.46,.38-.95,1.32-1.46,2.33-1.46,1.5,0,2.66,.94,2.66,2.82v3.87h-1.08v-3.72Z"/><path d="M369.64,34.24c-1.87,0-3.25-1.32-3.25-3.41s1.33-3.38,3.25-3.38,3.15,1.34,3.15,3.14c0,.24-.01,.43-.04,.66h-5.25c.08,1.33,1.02,2.06,2.14,2.06,.98,0,1.61-.5,1.85-1.21h1.18c-.34,1.2-1.39,2.13-3.02,2.13Zm-2.12-3.87h4.15c.01-1.28-.95-1.99-2.08-1.99-1.07,0-1.95,.71-2.07,1.99Z"/><path d="M375.33,34.14h-1.09v-6.57h1.09v1.07c.37-.73,1.08-1.19,2.12-1.19v1.13h-.29c-1.04,0-1.83,.47-1.83,1.99v3.57Z"/><path d="M381.58,34.24c-1.86,0-3.27-1.32-3.27-3.41s1.46-3.38,3.32-3.38,3.32,1.31,3.32,3.38-1.5,3.41-3.37,3.41Zm0-.96c1.14,0,2.25-.78,2.25-2.45s-1.09-2.43-2.22-2.43-2.19,.78-2.19,2.43,1.02,2.45,2.16,2.45Z"/><path d="M392.32,27.46c1.03,0,1.98,.53,2.43,1.28v-3.48h1.1v8.88h-1.1v-1.24c-.4,.73-1.25,1.34-2.45,1.34-1.76,0-3.12-1.38-3.12-3.42s1.35-3.37,3.13-3.37Zm.2,.95c-1.2,0-2.22,.88-2.22,2.42s1.02,2.46,2.22,2.46,2.23-.9,2.23-2.45-1.03-2.43-2.23-2.43Z"/><path d="M400.56,34.24c-1.87,0-3.25-1.32-3.25-3.41s1.33-3.38,3.25-3.38,3.15,1.34,3.15,3.14c0,.24-.01,.43-.04,.66h-5.25c.08,1.33,1.02,2.06,2.13,2.06,.98,0,1.61-.5,1.85-1.21h1.17c-.34,1.2-1.39,2.13-3.02,2.13Zm-2.12-3.87h4.15c.01-1.28-.95-1.99-2.08-1.99-1.07,0-1.96,.71-2.07,1.99Z"/><path d="M411.2,34.24c-1.87,0-3.25-1.32-3.25-3.41s1.33-3.38,3.25-3.38,3.15,1.34,3.15,3.14c0,.24-.01,.43-.04,.66h-5.25c.08,1.33,1.02,2.06,2.13,2.06,.98,0,1.61-.5,1.85-1.21h1.17c-.34,1.2-1.39,2.13-3.02,2.13Zm-2.12-3.87h4.15c.01-1.28-.95-1.99-2.08-1.99-1.07,0-1.96,.71-2.07,1.99Z"/><path d="M420.61,30.42c0-1.34-.73-2.03-1.83-2.03s-1.88,.7-1.88,2.11v3.63h-1.09v-6.57h1.09v.94c.43-.68,1.22-1.06,2.11-1.06,1.52,0,2.69,.94,2.69,2.82v3.87h-1.08v-3.72Z"/><path d="M426.27,27.46c1.63,0,2.7,.84,3.03,2.22h-1.17c-.23-.79-.89-1.3-1.86-1.3-1.2,0-2.09,.85-2.09,2.46s.89,2.48,2.09,2.48c.97,0,1.62-.47,1.86-1.3h1.17c-.34,1.31-1.4,2.22-3.03,2.22-1.87,0-3.2-1.32-3.2-3.41s1.33-3.38,3.2-3.38Z"/><path d="M433.47,27.46c1.22,0,2.06,.62,2.45,1.31v-1.2h1.1v6.57h-1.1v-1.22c-.4,.71-1.25,1.33-2.46,1.33-1.75,0-3.11-1.38-3.11-3.42s1.36-3.37,3.12-3.37Zm.22,.95c-1.2,0-2.22,.88-2.22,2.42s1.02,2.46,2.22,2.46,2.23-.9,2.23-2.45-1.03-2.43-2.23-2.43Z"/><path d="M448.36,30.42c0-1.34-.72-2.03-1.8-2.03s-1.86,.71-1.86,2.12v3.62h-1.08v-3.72c0-1.34-.72-2.03-1.8-2.03s-1.86,.71-1.86,2.12v3.62h-1.09v-6.57h1.09v.95c.43-.7,1.21-1.07,2.08-1.07,1.08,0,1.98,.48,2.41,1.46,.38-.95,1.32-1.46,2.33-1.46,1.5,0,2.66,.94,2.66,2.82v3.87h-1.08v-3.72Z"/><path d="M451.05,25.75c0-.42,.32-.74,.74-.74,.4,0,.72,.32,.72,.74s-.32,.74-.72,.74c-.42,0-.74-.32-.74-.74Zm.18,1.81h1.09v6.57h-1.09v-6.57Z"/><path d="M459,30.42c0-1.34-.73-2.03-1.83-2.03s-1.88,.7-1.88,2.11v3.63h-1.09v-6.57h1.09v.94c.43-.68,1.22-1.06,2.11-1.06,1.52,0,2.69,.94,2.69,2.82v3.87h-1.08v-3.72Z"/><path d="M461.87,25.26h1.09v3.25c.43-.7,1.25-1.07,2.17-1.07,1.46,0,2.63,.94,2.63,2.82v3.87h-1.08v-3.72c0-1.34-.73-2.03-1.83-2.03s-1.88,.7-1.88,2.11v3.63h-1.09v-8.88Z"/><path d="M472.26,27.46c1.22,0,2.06,.62,2.45,1.31v-1.2h1.1v6.57h-1.1v-1.22c-.4,.71-1.25,1.33-2.46,1.33-1.75,0-3.11-1.38-3.11-3.42s1.36-3.37,3.12-3.37Zm.22,.95c-1.2,0-2.22,.88-2.22,2.42s1.02,2.46,2.22,2.46,2.23-.9,2.23-2.45-1.03-2.43-2.23-2.43Z"/><path d="M487.14,30.42c0-1.34-.72-2.03-1.8-2.03s-1.86,.71-1.86,2.12v3.62h-1.08v-3.72c0-1.34-.72-2.03-1.8-2.03s-1.86,.71-1.86,2.12v3.62h-1.09v-6.57h1.09v.95c.43-.7,1.21-1.07,2.08-1.07,1.08,0,1.98,.48,2.41,1.46,.38-.95,1.32-1.46,2.33-1.46,1.5,0,2.66,.94,2.66,2.82v3.87h-1.08v-3.72Z"/><path d="M492.86,34.24c-1.87,0-3.25-1.32-3.25-3.41s1.33-3.38,3.25-3.38,3.15,1.34,3.15,3.14c0,.24-.01,.43-.04,.66h-5.25c.08,1.33,1.02,2.06,2.13,2.06,.98,0,1.61-.5,1.85-1.21h1.17c-.34,1.2-1.39,2.13-3.02,2.13Zm-2.12-3.87h4.15c.01-1.28-.95-1.99-2.08-1.99-1.07,0-1.96,.71-2.07,1.99Z"/><path d="M502.27,30.42c0-1.34-.73-2.03-1.83-2.03s-1.88,.7-1.88,2.11v3.63h-1.09v-6.57h1.09v.94c.43-.68,1.22-1.06,2.11-1.06,1.52,0,2.69,.94,2.69,2.82v3.87h-1.08v-3.72Z"/><path d="M505.38,28.46h-.85v-.9h.85v-1.66h1.09v1.66h1.71v.9h-1.71v3.87c0,.65,.24,.88,.91,.88h.8v.92h-.98c-1.16,0-1.82-.48-1.82-1.8v-3.87Z"/><path d="M512.37,34.24c-1.86,0-3.27-1.32-3.27-3.41s1.46-3.38,3.32-3.38,3.32,1.31,3.32,3.38-1.5,3.41-3.37,3.41Zm0-.96c1.14,0,2.25-.78,2.25-2.45s-1.09-2.43-2.22-2.43-2.2,.78-2.2,2.43,1.02,2.45,2.16,2.45Z"/><path d="M519.51,34.24c-1.54,0-2.61-.84-2.69-2.04h1.13c.06,.64,.62,1.12,1.55,1.12,.86,0,1.34-.43,1.34-.97,0-1.46-3.89-.61-3.89-3.06,0-1.01,.95-1.83,2.41-1.83s2.41,.78,2.48,2.06h-1.09c-.05-.66-.55-1.14-1.43-1.14-.8,0-1.28,.38-1.28,.91,0,1.56,3.81,.71,3.86,3.06,0,1.08-.95,1.9-2.4,1.9Z"/><path d="M139.28,48.54h-1.09v-6.57h1.09v1.07c.37-.73,1.08-1.19,2.12-1.19v1.13h-.29c-1.04,0-1.84,.47-1.84,1.99v3.57Z"/><path d="M145.51,48.64c-1.87,0-3.25-1.32-3.25-3.41s1.33-3.38,3.25-3.38,3.15,1.34,3.15,3.14c0,.24-.01,.43-.04,.66h-5.25c.08,1.33,1.02,2.06,2.14,2.06,.98,0,1.61-.5,1.85-1.21h1.18c-.34,1.2-1.39,2.13-3.02,2.13Zm-2.12-3.87h4.15c.01-1.28-.95-1.99-2.08-1.99-1.07,0-1.95,.71-2.07,1.99Z"/><path d="M152.82,41.86c1.22,0,2.06,.62,2.45,1.31v-1.2h1.1v6.57h-1.1v-1.22c-.4,.71-1.25,1.33-2.46,1.33-1.75,0-3.11-1.38-3.11-3.42s1.36-3.37,3.12-3.37Zm.22,.95c-1.2,0-2.22,.88-2.22,2.42s1.02,2.46,2.22,2.46,2.23-.9,2.23-2.45-1.03-2.43-2.23-2.43Z"/><path d="M158.22,39.66h1.09v8.88h-1.09v-8.88Z"/><path d="M160.99,40.15c0-.42,.32-.74,.74-.74,.4,0,.72,.32,.72,.74s-.32,.74-.72,.74c-.42,0-.74-.32-.74-.74Zm.18,1.81h1.09v6.57h-1.09v-6.57Z"/><path d="M168.14,42.85l-3.2,4.79h3.23v.9h-4.47v-.9l3.19-4.79h-3.17v-.89h4.43v.89Z"/><path d="M172.29,41.86c1.22,0,2.06,.62,2.45,1.31v-1.2h1.1v6.57h-1.1v-1.22c-.4,.71-1.25,1.33-2.46,1.33-1.75,0-3.11-1.38-3.11-3.42s1.36-3.37,3.12-3.37Zm.22,.95c-1.2,0-2.22,.88-2.22,2.42s1.02,2.46,2.22,2.46,2.23-.9,2.23-2.45-1.03-2.43-2.23-2.43Z"/><path d="M180.42,41.86c1.03,0,1.98,.53,2.43,1.28v-3.48h1.1v8.88h-1.1v-1.24c-.4,.73-1.25,1.34-2.45,1.34-1.76,0-3.12-1.38-3.12-3.42s1.36-3.37,3.13-3.37Zm.2,.95c-1.2,0-2.22,.88-2.22,2.42s1.02,2.46,2.22,2.46,2.23-.9,2.23-2.45-1.03-2.43-2.23-2.43Z"/><path d="M188.67,48.64c-1.86,0-3.27-1.32-3.27-3.41s1.46-3.38,3.32-3.38,3.32,1.31,3.32,3.38-1.5,3.41-3.37,3.41Zm0-.96c1.14,0,2.25-.78,2.25-2.45s-1.09-2.43-2.22-2.43-2.19,.78-2.19,2.43,1.02,2.45,2.16,2.45Z"/><path d="M195.81,48.64c-1.54,0-2.61-.84-2.69-2.04h1.13c.06,.64,.62,1.12,1.55,1.12,.86,0,1.34-.43,1.34-.97,0-1.46-3.89-.61-3.89-3.06,0-1.01,.95-1.83,2.41-1.83s2.41,.78,2.48,2.06h-1.09c-.05-.66-.55-1.14-1.43-1.14-.8,0-1.28,.38-1.28,.91,0,1.56,3.81,.71,3.86,3.06,0,1.08-.95,1.9-2.4,1.9Z"/><path d="M200.1,48.61c-.42,0-.74-.32-.74-.74s.32-.74,.74-.74c.4,0,.72,.32,.72,.74s-.32,.74-.72,.74Z"/></g><path class="c" d="M582.78,110.86H25.72c-6.46,0-11.72-5.26-11.72-11.72v-25.56c0-6.46,5.26-11.72,11.72-11.72H582.78c6.46,0,11.72,5.26,11.72,11.72v25.56c0,6.46-5.26,11.72-11.72,11.72ZM25.72,62.86c-5.91,0-10.72,4.81-10.72,10.72v25.56c0,5.91,4.81,10.72,10.72,10.72H582.78c5.91,0,10.72-4.81,10.72-10.72v-25.56c0-5.91-4.81-10.72-10.72-10.72H25.72Z"/><g><path d="M141.48,70.06c1.76,0,3.12,1.32,3.12,3.37s-1.36,3.42-3.12,3.42c-1.2,0-2.05-.65-2.46-1.32v4.33h-1.09v-9.69h1.09v1.21c.4-.7,1.26-1.32,2.46-1.32Zm-.23,.95c-1.19,0-2.23,.91-2.23,2.43s1.04,2.45,2.23,2.45,2.23-.91,2.23-2.46-1.02-2.42-2.23-2.42Z"/><path d="M148.88,76.84c-1.87,0-3.25-1.32-3.25-3.41s1.33-3.38,3.25-3.38,3.15,1.34,3.15,3.14c0,.24-.01,.43-.04,.66h-5.25c.08,1.33,1.02,2.06,2.13,2.06,.98,0,1.61-.5,1.85-1.21h1.18c-.34,1.2-1.39,2.13-3.02,2.13Zm-2.12-3.87h4.15c.01-1.28-.95-1.99-2.08-1.99-1.07,0-1.95,.71-2.07,1.99Z"/><path d="M154.57,76.74h-1.09v-6.57h1.09v1.07c.37-.73,1.08-1.19,2.12-1.19v1.13h-.29c-1.04,0-1.84,.47-1.84,1.99v3.57Z"/><path d="M160.75,70.06c1.63,0,2.7,.84,3.03,2.22h-1.18c-.23-.79-.89-1.3-1.86-1.3-1.2,0-2.09,.85-2.09,2.46s.89,2.48,2.09,2.48c.97,0,1.62-.47,1.86-1.3h1.18c-.34,1.31-1.4,2.22-3.03,2.22-1.87,0-3.2-1.32-3.2-3.41s1.33-3.38,3.2-3.38Z"/><path d="M168.08,76.84c-1.87,0-3.25-1.32-3.25-3.41s1.33-3.38,3.25-3.38,3.15,1.34,3.15,3.14c0,.24-.01,.43-.04,.66h-5.25c.08,1.33,1.02,2.06,2.14,2.06,.98,0,1.61-.5,1.85-1.21h1.18c-.34,1.2-1.39,2.13-3.02,2.13Zm-2.12-3.87h4.15c.01-1.28-.95-1.99-2.08-1.99-1.07,0-1.95,.71-2.07,1.99Z"/><path d="M177.49,73.02c0-1.34-.73-2.03-1.83-2.03s-1.88,.7-1.88,2.11v3.63h-1.09v-6.57h1.09v.94c.43-.68,1.22-1.06,2.11-1.06,1.52,0,2.69,.94,2.69,2.82v3.87h-1.08v-3.72Z"/><path d="M180.6,71.06h-.85v-.9h.85v-1.66h1.09v1.66h1.71v.9h-1.71v3.87c0,.65,.24,.88,.91,.88h.8v.92h-.98c-1.16,0-1.82-.48-1.82-1.8v-3.87Z"/><path d="M190.55,76.74h-1.09v-.97c-.42,.68-1.22,1.07-2.1,1.07-1.51,0-2.7-.94-2.7-2.82v-3.85h1.08v3.71c0,1.33,.73,2.01,1.83,2.01s1.88-.7,1.88-2.11v-3.61h1.09v6.57Z"/><path d="M195.12,70.06c1.22,0,2.06,.62,2.45,1.31v-1.2h1.1v6.57h-1.1v-1.22c-.4,.71-1.25,1.33-2.46,1.33-1.75,0-3.11-1.38-3.11-3.42s1.36-3.37,3.12-3.37Zm.22,.95c-1.2,0-2.22,.88-2.22,2.42s1.02,2.46,2.22,2.46,2.23-.9,2.23-2.45-1.03-2.43-2.23-2.43Z"/><path d="M200.52,67.86h1.09v8.88h-1.09v-8.88Z"/><path d="M209.4,70.06c1.03,0,1.98,.53,2.43,1.28v-3.48h1.1v8.88h-1.1v-1.24c-.4,.73-1.25,1.34-2.45,1.34-1.76,0-3.12-1.38-3.12-3.42s1.36-3.37,3.13-3.37Zm.2,.95c-1.2,0-2.22,.88-2.22,2.42s1.02,2.46,2.22,2.46,2.23-.9,2.23-2.45-1.03-2.43-2.23-2.43Z"/><path d="M217.63,76.84c-1.87,0-3.25-1.32-3.25-3.41s1.33-3.38,3.25-3.38,3.15,1.34,3.15,3.14c0,.24-.01,.43-.04,.66h-5.25c.08,1.33,1.02,2.06,2.14,2.06,.98,0,1.61-.5,1.85-1.21h1.18c-.34,1.2-1.39,2.13-3.02,2.13Zm-2.12-3.87h4.15c.01-1.28-.95-1.99-2.08-1.99-1.07,0-1.95,.71-2.07,1.99Z"/><path d="M225.25,68.35c0-.42,.32-.74,.74-.74,.4,0,.72,.32,.72,.74s-.32,.74-.72,.74c-.42,0-.74-.32-.74-.74Zm.18,1.81h1.09v6.57h-1.09v-6.57Z"/><path d="M233.19,73.02c0-1.34-.73-2.03-1.83-2.03s-1.88,.7-1.88,2.11v3.63h-1.09v-6.57h1.09v.94c.43-.68,1.22-1.06,2.11-1.06,1.52,0,2.69,.94,2.69,2.82v3.87h-1.08v-3.72Z"/><path d="M236.3,71.06h-.85v-.9h.85v-1.66h1.09v1.66h1.71v.9h-1.71v3.87c0,.65,.24,.88,.91,.88h.8v.92h-.98c-1.16,0-1.82-.48-1.82-1.8v-3.87Z"/><path d="M243.27,76.84c-1.87,0-3.25-1.32-3.25-3.41s1.33-3.38,3.25-3.38,3.15,1.34,3.15,3.14c0,.24-.01,.43-.04,.66h-5.25c.08,1.33,1.02,2.06,2.13,2.06,.98,0,1.61-.5,1.85-1.21h1.18c-.34,1.2-1.39,2.13-3.02,2.13Zm-2.12-3.87h4.15c.01-1.28-.95-1.99-2.08-1.99-1.07,0-1.95,.71-2.07,1.99Z"/><path d="M248.96,76.74h-1.09v-6.57h1.09v1.07c.37-.73,1.08-1.19,2.12-1.19v1.13h-.29c-1.04,0-1.84,.47-1.84,1.99v3.57Z"/><path d="M257.15,73.02c0-1.34-.73-2.03-1.83-2.03s-1.88,.7-1.88,2.11v3.63h-1.09v-6.57h1.09v.94c.43-.68,1.22-1.06,2.11-1.06,1.52,0,2.69,.94,2.69,2.82v3.87h-1.08v-3.72Z"/><path d="M262.73,70.06c1.22,0,2.06,.62,2.45,1.31v-1.2h1.1v6.57h-1.1v-1.22c-.4,.71-1.25,1.33-2.46,1.33-1.75,0-3.11-1.38-3.11-3.42s1.36-3.37,3.12-3.37Zm.22,.95c-1.2,0-2.22,.88-2.22,2.42s1.02,2.46,2.22,2.46,2.23-.9,2.23-2.45-1.03-2.43-2.23-2.43Z"/><path d="M270.93,70.06c1.63,0,2.7,.84,3.03,2.22h-1.18c-.23-.79-.89-1.3-1.86-1.3-1.2,0-2.09,.85-2.09,2.46s.89,2.48,2.09,2.48c.97,0,1.62-.47,1.86-1.3h1.18c-.31,1.21-1.26,2.09-2.7,2.21v.6c.92-.01,1.55,.4,1.55,1.19s-.61,1.24-1.46,1.24h-1.38v-.71h1.16c.52,0,.77-.14,.77-.53s-.25-.52-.77-.52h-.6v-1.28c-1.66-.17-2.81-1.45-2.81-3.38,0-2.06,1.33-3.38,3.2-3.38Z"/><path d="M278.29,76.84c-1.86,0-3.27-1.32-3.27-3.41s1.46-3.38,3.32-3.38,3.32,1.31,3.32,3.38-1.5,3.41-3.37,3.41Zm0-.96c1.14,0,2.25-.78,2.25-2.45s-1.09-2.43-2.22-2.43-2.19,.78-2.19,2.43,1.02,2.45,2.16,2.45Zm-.5-7.77c.64,0,.88,.55,1.37,.55,.26,0,.48-.17,.53-.52h.62c-.1,.82-.58,1.25-1.2,1.25s-.89-.55-1.37-.55c-.26,0-.47,.17-.52,.53h-.64c.12-.83,.58-1.26,1.2-1.26Z"/><path d="M285.94,76.84c-1.87,0-3.25-1.32-3.25-3.41s1.33-3.38,3.25-3.38,3.15,1.34,3.15,3.14c0,.24-.01,.43-.04,.66h-5.25c.08,1.33,1.02,2.06,2.13,2.06,.98,0,1.61-.5,1.85-1.21h1.18c-.34,1.2-1.39,2.13-3.02,2.13Zm-2.12-3.87h4.15c.01-1.28-.95-1.99-2.08-1.99-1.07,0-1.95,.71-2.07,1.99Z"/><path d="M292.87,76.84c-1.54,0-2.61-.84-2.69-2.04h1.13c.06,.64,.62,1.12,1.55,1.12,.86,0,1.34-.43,1.34-.97,0-1.46-3.89-.61-3.89-3.06,0-1.01,.95-1.83,2.41-1.83s2.41,.78,2.48,2.06h-1.09c-.05-.66-.55-1.14-1.43-1.14-.8,0-1.28,.38-1.28,.91,0,1.56,3.81,.71,3.86,3.06,0,1.08-.95,1.9-2.4,1.9Z"/><path d="M303.56,70.06c1.76,0,3.12,1.32,3.12,3.37s-1.36,3.42-3.12,3.42c-1.2,0-2.05-.65-2.46-1.32v4.33h-1.09v-9.69h1.09v1.21c.4-.7,1.26-1.32,2.46-1.32Zm-.23,.95c-1.19,0-2.23,.91-2.23,2.43s1.04,2.45,2.23,2.45,2.23-.91,2.23-2.46-1.02-2.42-2.23-2.42Z"/><path d="M310.99,76.84c-1.86,0-3.27-1.32-3.27-3.41s1.46-3.38,3.32-3.38,3.32,1.31,3.32,3.38-1.5,3.41-3.37,3.41Zm0-.96c1.14,0,2.25-.78,2.25-2.45s-1.09-2.43-2.22-2.43-2.19,.78-2.19,2.43,1.02,2.45,2.16,2.45Z"/><path d="M316.89,76.74h-1.09v-6.57h1.09v1.07c.37-.73,1.08-1.19,2.12-1.19v1.13h-.29c-1.04,0-1.84,.47-1.84,1.99v3.57Z"/><path d="M326.27,70.06c1.63,0,2.7,.84,3.03,2.22h-1.18c-.23-.79-.89-1.3-1.86-1.3-1.2,0-2.09,.85-2.09,2.46s.89,2.48,2.09,2.48c.97,0,1.62-.47,1.86-1.3h1.18c-.34,1.31-1.4,2.22-3.03,2.22-1.87,0-3.2-1.32-3.2-3.41s1.33-3.38,3.2-3.38Z"/><path d="M333.63,76.84c-1.86,0-3.27-1.32-3.27-3.41s1.46-3.38,3.32-3.38,3.32,1.31,3.32,3.38-1.5,3.41-3.37,3.41Zm0-.96c1.14,0,2.25-.78,2.25-2.45s-1.09-2.43-2.22-2.43-2.19,.78-2.19,2.43,1.02,2.45,2.16,2.45Z"/><path d="M338.84,70.16l2.05,5.56,2.04-5.56h1.16l-2.58,6.57h-1.27l-2.58-6.57h1.18Z"/><path d="M345,68.35c0-.42,.32-.74,.74-.74,.4,0,.72,.32,.72,.74s-.32,.74-.72,.74c-.42,0-.74-.32-.74-.74Zm.18,1.81h1.09v6.57h-1.09v-6.57Z"/><path d="M350.85,70.06c1.03,0,1.98,.53,2.43,1.28v-3.48h1.1v8.88h-1.1v-1.24c-.4,.73-1.25,1.34-2.45,1.34-1.76,0-3.12-1.38-3.12-3.42s1.36-3.37,3.13-3.37Zm.2,.95c-1.2,0-2.22,.88-2.22,2.42s1.02,2.46,2.22,2.46,2.23-.9,2.23-2.45-1.03-2.43-2.23-2.43Z"/><path d="M356.01,71.88h4.79v.92h-4.79v-.92Z"/><path d="M363.54,69.06h-1.15v-1h2.25v8.67h-1.1v-7.68Z"/><path d="M367.91,74.41c.16,.9,.73,1.43,1.74,1.43,1.27,0,1.96-.86,1.92-3.41-.35,.73-1.21,1.15-2.15,1.15-1.6,0-2.78-1-2.78-2.83,0-1.65,.98-2.85,2.85-2.85,2.35,0,3.03,1.66,3.03,4.34,0,2.89-.66,4.51-2.94,4.51-1.73,0-2.57-1.07-2.69-2.34h1.01Zm3.53-3.6c0-1.18-.67-2-1.92-2-1.13,0-1.83,.77-1.83,1.92s.62,1.93,1.92,1.93c1.04,0,1.83-.68,1.83-1.85Z"/><path d="M382.27,73.02c0-1.34-.73-2.03-1.83-2.03s-1.88,.7-1.88,2.11v3.63h-1.09v-6.57h1.09v.94c.43-.68,1.22-1.06,2.11-1.06,1.52,0,2.69,.94,2.69,2.82v3.87h-1.08v-3.72Z"/><path d="M388,76.84c-1.86,0-3.27-1.32-3.27-3.41s1.46-3.38,3.32-3.38,3.32,1.31,3.32,3.38-1.5,3.41-3.37,3.41Zm0-.96c1.14,0,2.25-.78,2.25-2.45s-1.09-2.43-2.22-2.43-2.19,.78-2.19,2.43,1.02,2.45,2.16,2.45Z"/><path d="M405.51,73.02c0-1.34-.72-2.03-1.8-2.03s-1.86,.71-1.86,2.12v3.62h-1.08v-3.72c0-1.34-.72-2.03-1.8-2.03s-1.86,.71-1.86,2.12v3.62h-1.09v-6.57h1.09v.95c.43-.7,1.21-1.07,2.08-1.07,1.08,0,1.98,.48,2.41,1.46,.38-.95,1.32-1.46,2.33-1.46,1.5,0,2.66,.94,2.66,2.82v3.87h-1.08v-3.72Z"/><path d="M414.21,76.74h-1.09v-.97c-.42,.68-1.22,1.07-2.1,1.07-1.51,0-2.7-.94-2.7-2.82v-3.85h1.08v3.71c0,1.33,.73,2.01,1.83,2.01s1.88-.7,1.88-2.11v-3.61h1.09v6.57Z"/><path d="M420.87,73.02c0-1.34-.73-2.03-1.83-2.03s-1.88,.7-1.88,2.11v3.63h-1.09v-6.57h1.09v.94c.43-.68,1.22-1.06,2.11-1.06,1.52,0,2.69,.94,2.69,2.82v3.87h-1.08v-3.72Z"/><path d="M423.56,68.35c0-.42,.32-.74,.74-.74,.4,0,.72,.32,.72,.74s-.32,.74-.72,.74c-.42,0-.74-.32-.74-.74Zm.18,1.81h1.09v6.57h-1.09v-6.57Z"/><path d="M429.49,70.06c1.63,0,2.7,.84,3.03,2.22h-1.17c-.23-.79-.89-1.3-1.86-1.3-1.2,0-2.09,.85-2.09,2.46s.89,2.48,2.09,2.48c.97,0,1.62-.47,1.86-1.3h1.17c-.34,1.31-1.4,2.22-3.03,2.22-1.87,0-3.2-1.32-3.2-3.41s1.33-3.38,3.2-3.38Z"/><path d="M435.69,67.36v.95l-2.55,1.37v-.82l2.55-1.5Zm-1.71,2.81h1.09v6.57h-1.09v-6.57Z"/><path d="M440.48,70.06c1.76,0,3.12,1.32,3.12,3.37s-1.36,3.42-3.12,3.42c-1.2,0-2.05-.65-2.46-1.32v4.33h-1.09v-9.69h1.09v1.21c.4-.7,1.26-1.32,2.46-1.32Zm-.23,.95c-1.19,0-2.23,.91-2.23,2.43s1.04,2.45,2.23,2.45,2.23-.91,2.23-2.46-1.02-2.42-2.23-2.42Z"/><path d="M444.86,68.35c0-.42,.32-.74,.74-.74,.4,0,.72,.32,.72,.74s-.32,.74-.72,.74c-.42,0-.74-.32-.74-.74Zm.18,1.81h1.09v6.57h-1.09v-6.57Z"/><path d="M450.86,76.84c-1.86,0-3.27-1.32-3.27-3.41s1.46-3.38,3.32-3.38,3.32,1.31,3.32,3.38-1.5,3.41-3.37,3.41Zm0-.96c1.14,0,2.25-.78,2.25-2.45s-1.09-2.43-2.22-2.43-2.2,.78-2.2,2.43,1.02,2.45,2.16,2.45Z"/><path d="M461.68,78.97c-1.52-1.5-2.43-3.92-2.43-6.62s.91-5.24,2.62-6.81h1.14v.11c-1.85,1.74-2.7,4.26-2.7,6.7s.85,4.8,2.52,6.51v.11h-1.14Z"/><path d="M467.12,70.06c1.63,0,2.7,.84,3.03,2.22h-1.17c-.23-.79-.89-1.3-1.86-1.3-1.2,0-2.09,.85-2.09,2.46s.89,2.48,2.09,2.48c.97,0,1.62-.47,1.86-1.3h1.17c-.34,1.31-1.4,2.22-3.03,2.22-1.87,0-3.2-1.32-3.2-3.41s1.33-3.38,3.2-3.38Z"/><path d="M474.48,76.84c-1.86,0-3.27-1.32-3.27-3.41s1.46-3.38,3.32-3.38,3.32,1.31,3.32,3.38-1.5,3.41-3.37,3.41Zm0-.96c1.14,0,2.25-.78,2.25-2.45s-1.09-2.43-2.22-2.43-2.2,.78-2.2,2.43,1.02,2.45,2.16,2.45Z"/><path d="M488.78,73.02c0-1.34-.72-2.03-1.8-2.03s-1.86,.71-1.86,2.12v3.62h-1.08v-3.72c0-1.34-.72-2.03-1.8-2.03s-1.86,.71-1.86,2.12v3.62h-1.09v-6.57h1.09v.95c.43-.7,1.21-1.07,2.08-1.07,1.08,0,1.98,.48,2.41,1.46,.38-.95,1.32-1.46,2.33-1.46,1.5,0,2.66,.94,2.66,2.82v3.87h-1.08v-3.72Z"/><path d="M495.2,70.06c1.76,0,3.12,1.32,3.12,3.37s-1.36,3.42-3.12,3.42c-1.2,0-2.05-.65-2.46-1.32v4.33h-1.09v-9.69h1.09v1.21c.4-.7,1.26-1.32,2.46-1.32Zm-.23,.95c-1.19,0-2.23,.91-2.23,2.43s1.04,2.45,2.23,2.45,2.23-.91,2.23-2.46-1.02-2.42-2.23-2.42Z"/><path d="M502.47,70.06c1.22,0,2.06,.62,2.45,1.31v-1.2h1.1v6.57h-1.1v-1.22c-.4,.71-1.25,1.33-2.46,1.33-1.75,0-3.11-1.38-3.11-3.42s1.36-3.37,3.12-3.37Zm.22,.95c-1.2,0-2.22,.88-2.22,2.42s1.02,2.46,2.22,2.46,2.23-.9,2.23-2.45-1.03-2.43-2.23-2.43Z"/><path d="M508.97,76.74h-1.09v-6.57h1.09v1.07c.37-.73,1.08-1.19,2.12-1.19v1.13h-.29c-1.04,0-1.83,.47-1.83,1.99v3.57Z"/><path d="M515.06,70.06c1.22,0,2.06,.62,2.45,1.31v-1.2h1.1v6.57h-1.1v-1.22c-.4,.71-1.25,1.33-2.46,1.33-1.75,0-3.11-1.38-3.11-3.42s1.36-3.37,3.12-3.37Zm.22,.95c-1.2,0-2.22,.88-2.22,2.42s1.02,2.46,2.22,2.46,2.23-.9,2.23-2.45-1.03-2.43-2.23-2.43Z"/><path d="M523.26,70.06c1.63,0,2.7,.84,3.03,2.22h-1.17c-.23-.79-.89-1.3-1.86-1.3-1.2,0-2.09,.85-2.09,2.46s.89,2.48,2.09,2.48c.97,0,1.62-.47,1.86-1.3h1.17c-.31,1.21-1.26,2.09-2.7,2.21v.6c.92-.01,1.55,.4,1.55,1.19s-.61,1.24-1.46,1.24h-1.38v-.71h1.16c.52,0,.77-.14,.77-.53s-.25-.52-.77-.52h-.6v-1.28c-1.66-.17-2.81-1.45-2.81-3.38,0-2.06,1.33-3.38,3.2-3.38Z"/><path d="M530.46,70.06c1.22,0,2.06,.62,2.45,1.31v-1.2h1.1v6.57h-1.1v-1.22c-.4,.71-1.25,1.33-2.46,1.33-1.75,0-3.11-1.38-3.11-3.42s1.36-3.37,3.12-3.37Zm.22,.95c-1.2,0-2.22,.88-2.22,2.42s1.02,2.46,2.22,2.46,2.23-.9,2.23-2.45-1.03-2.43-2.23-2.43Zm-.35-2.81c.64,0,.88,.55,1.37,.55,.26,0,.48-.17,.53-.52h.62c-.1,.82-.58,1.25-1.2,1.25s-.89-.55-1.37-.55c-.26,0-.47,.17-.52,.53h-.64c.12-.83,.58-1.26,1.2-1.26Z"/><path d="M538.72,76.84c-1.86,0-3.27-1.32-3.27-3.41s1.46-3.38,3.32-3.38,3.32,1.31,3.32,3.38-1.5,3.41-3.37,3.41Zm0-.96c1.14,0,2.25-.78,2.25-2.45s-1.09-2.43-2.22-2.43-2.2,.78-2.2,2.43,1.02,2.45,2.16,2.45Z"/><path d="M140.77,91.24c-1.87,0-3.25-1.32-3.25-3.41s1.33-3.38,3.25-3.38,3.15,1.34,3.15,3.14c0,.24-.01,.43-.04,.66h-5.25c.08,1.33,1.02,2.06,2.14,2.06,.98,0,1.61-.5,1.85-1.21h1.18c-.34,1.2-1.39,2.13-3.02,2.13Zm-2.12-3.87h4.15c.01-1.28-.95-1.99-2.08-1.99-1.07,0-1.95,.71-2.07,1.99Z"/><path d="M150.17,87.42c0-1.34-.73-2.03-1.83-2.03s-1.88,.7-1.88,2.11v3.63h-1.09v-6.57h1.09v.94c.43-.68,1.22-1.06,2.11-1.06,1.52,0,2.69,.94,2.69,2.82v3.87h-1.08v-3.72Z"/><path d="M153.29,85.46h-.85v-.9h.85v-1.66h1.09v1.66h1.71v.9h-1.71v3.87c0,.65,.24,.88,.91,.88h.8v.92h-.98c-1.16,0-1.82-.48-1.82-1.8v-3.87Z"/><path d="M158.5,91.14h-1.09v-6.57h1.09v1.07c.37-.73,1.08-1.19,2.12-1.19v1.13h-.29c-1.04,0-1.84,.47-1.84,1.99v3.57Z"/><path d="M164.73,91.24c-1.87,0-3.25-1.32-3.25-3.41s1.33-3.38,3.25-3.38,3.15,1.34,3.15,3.14c0,.24-.01,.43-.04,.66h-5.25c.08,1.33,1.02,2.06,2.14,2.06,.98,0,1.61-.5,1.85-1.21h1.18c-.34,1.2-1.39,2.13-3.02,2.13Zm-2.12-3.87h4.15c.01-1.28-.95-1.99-2.08-1.99-1.07,0-1.95,.71-2.07,1.99Z"/><path d="M175.4,91.24c-1.86,0-3.27-1.32-3.27-3.41s1.46-3.38,3.32-3.38,3.32,1.31,3.32,3.38-1.5,3.41-3.37,3.41Zm0-.96c1.14,0,2.25-.78,2.25-2.45s-1.09-2.43-2.22-2.43-2.19,.78-2.19,2.43,1.02,2.45,2.16,2.45Z"/><path d="M186.97,84.46c1.76,0,3.12,1.32,3.12,3.37s-1.36,3.42-3.12,3.42c-1.2,0-2.05-.65-2.46-1.32v4.33h-1.09v-9.69h1.09v1.21c.4-.7,1.26-1.32,2.46-1.32Zm-.23,.95c-1.19,0-2.23,.91-2.23,2.43s1.04,2.45,2.23,2.45,2.23-.91,2.23-2.46-1.02-2.42-2.23-2.42Z"/><path d="M194.37,91.24c-1.87,0-3.25-1.32-3.25-3.41s1.33-3.38,3.25-3.38,3.15,1.34,3.15,3.14c0,.24-.01,.43-.04,.66h-5.25c.08,1.33,1.02,2.06,2.13,2.06,.98,0,1.61-.5,1.85-1.21h1.18c-.34,1.2-1.39,2.13-3.02,2.13Zm-2.12-3.87h4.15c.01-1.28-.95-1.99-2.08-1.99-1.07,0-1.95,.71-2.07,1.99Z"/><path d="M200.06,91.14h-1.09v-6.57h1.09v1.07c.37-.73,1.08-1.19,2.12-1.19v1.13h-.29c-1.04,0-1.84,.47-1.84,1.99v3.57Z"/><path d="M206.24,84.46c1.63,0,2.7,.84,3.03,2.22h-1.18c-.23-.79-.89-1.3-1.86-1.3-1.2,0-2.09,.85-2.09,2.46s.89,2.48,2.09,2.48c.97,0,1.62-.47,1.86-1.3h1.18c-.34,1.31-1.4,2.22-3.03,2.22-1.87,0-3.2-1.32-3.2-3.41s1.33-3.38,3.2-3.38Z"/><path d="M213.57,91.24c-1.87,0-3.25-1.32-3.25-3.41s1.33-3.38,3.25-3.38,3.15,1.34,3.15,3.14c0,.24-.01,.43-.04,.66h-5.25c.08,1.33,1.02,2.06,2.14,2.06,.98,0,1.61-.5,1.85-1.21h1.18c-.34,1.2-1.39,2.13-3.02,2.13Zm-2.12-3.87h4.15c.01-1.28-.95-1.99-2.08-1.99-1.07,0-1.95,.71-2.07,1.99Z"/><path d="M222.98,87.42c0-1.34-.73-2.03-1.83-2.03s-1.88,.7-1.88,2.11v3.63h-1.09v-6.57h1.09v.94c.43-.68,1.22-1.06,2.11-1.06,1.52,0,2.69,.94,2.69,2.82v3.87h-1.08v-3.72Z"/><path d="M226.09,85.46h-.85v-.9h.85v-1.66h1.09v1.66h1.71v.9h-1.71v3.87c0,.65,.24,.88,.91,.88h.8v.92h-.98c-1.16,0-1.82-.48-1.82-1.8v-3.87Z"/><path d="M236.05,91.14h-1.09v-.97c-.42,.68-1.22,1.07-2.1,1.07-1.51,0-2.7-.94-2.7-2.82v-3.85h1.08v3.71c0,1.33,.73,2.01,1.83,2.01s1.88-.7,1.88-2.11v-3.61h1.09v6.57Z"/><path d="M240.61,84.46c1.22,0,2.06,.62,2.45,1.31v-1.2h1.1v6.57h-1.1v-1.22c-.4,.71-1.25,1.33-2.46,1.33-1.75,0-3.11-1.38-3.11-3.42s1.36-3.37,3.12-3.37Zm.22,.95c-1.2,0-2.22,.88-2.22,2.42s1.02,2.46,2.22,2.46,2.23-.9,2.23-2.45-1.03-2.43-2.23-2.43Z"/><path d="M246.01,82.26h1.09v8.87h-1.09v-8.87Z"/><path d="M254.88,84.46c1.22,0,2.06,.62,2.45,1.31v-1.2h1.1v6.57h-1.1v-1.22c-.4,.71-1.25,1.33-2.46,1.33-1.75,0-3.11-1.38-3.11-3.42s1.36-3.37,3.12-3.37Zm.22,.95c-1.2,0-2.22,.88-2.22,2.42s1.02,2.46,2.22,2.46,2.23-.9,2.23-2.45-1.03-2.43-2.23-2.43Z"/><path d="M265.09,87.42c0-1.34-.73-2.03-1.83-2.03s-1.88,.7-1.88,2.11v3.63h-1.09v-6.57h1.09v.94c.43-.68,1.22-1.06,2.11-1.06,1.52,0,2.69,.94,2.69,2.82v3.87h-1.08v-3.72Z"/><path d="M268.2,85.46h-.85v-.9h.85v-1.66h1.09v1.66h1.71v.9h-1.71v3.87c0,.65,.24,.88,.91,.88h.8v.92h-.98c-1.16,0-1.82-.48-1.82-1.8v-3.87Z"/><path d="M275.17,91.24c-1.87,0-3.25-1.32-3.25-3.41s1.33-3.38,3.25-3.38,3.15,1.34,3.15,3.14c0,.24-.01,.43-.04,.66h-5.25c.08,1.33,1.02,2.06,2.13,2.06,.98,0,1.61-.5,1.85-1.21h1.18c-.34,1.2-1.39,2.13-3.02,2.13Zm-2.12-3.87h4.15c.01-1.28-.95-1.99-2.08-1.99-1.07,0-1.95,.71-2.07,1.99Z"/><path d="M280.86,91.14h-1.09v-6.57h1.09v1.07c.37-.73,1.08-1.19,2.12-1.19v1.13h-.29c-1.04,0-1.84,.47-1.84,1.99v3.57Z"/><path d="M284.06,82.75c0-.42,.32-.74,.74-.74,.4,0,.72,.32,.72,.74s-.32,.74-.72,.74c-.42,0-.74-.32-.74-.74Zm.18,1.81h1.09v6.57h-1.09v-6.57Z"/><path d="M290.06,91.24c-1.86,0-3.27-1.32-3.27-3.41s1.46-3.38,3.32-3.38,3.32,1.31,3.32,3.38-1.5,3.41-3.37,3.41Zm0-.96c1.14,0,2.25-.78,2.25-2.45s-1.09-2.43-2.22-2.43-2.19,.78-2.19,2.43,1.02,2.45,2.16,2.45Z"/><path d="M295.96,91.14h-1.09v-6.57h1.09v1.07c.37-.73,1.08-1.19,2.12-1.19v1.13h-.29c-1.04,0-1.84,.47-1.84,1.99v3.57Z"/><path d="M305.39,91.24c-1.87,0-3.25-1.32-3.25-3.41s1.33-3.38,3.25-3.38,3.15,1.34,3.15,3.14c0,.24-.01,.43-.04,.66h-5.25c.08,1.33,1.02,2.06,2.14,2.06,.98,0,1.61-.5,1.85-1.21h1.18c-.34,1.2-1.39,2.13-3.02,2.13Zm-2.12-3.87h4.15c.01-1.28-.95-1.99-2.08-1.99-1.07,0-1.95,.71-2.07,1.99Z"/><path d="M316.75,84.46c1.76,0,3.12,1.32,3.12,3.37s-1.35,3.42-3.12,3.42c-1.2,0-2.05-.65-2.46-1.32v4.33h-1.09v-9.69h1.09v1.21c.4-.7,1.26-1.32,2.46-1.32Zm-.23,.95c-1.19,0-2.23,.91-2.23,2.43s1.04,2.45,2.23,2.45,2.23-.91,2.23-2.46-1.02-2.42-2.23-2.42Z"/><path d="M324.17,91.24c-1.86,0-3.27-1.32-3.27-3.41s1.46-3.38,3.32-3.38,3.32,1.31,3.32,3.38-1.5,3.41-3.37,3.41Zm0-.96c1.14,0,2.25-.78,2.25-2.45s-1.09-2.43-2.22-2.43-2.19,.78-2.19,2.43,1.02,2.45,2.16,2.45Z"/><path d="M331.31,91.24c-1.54,0-2.61-.84-2.69-2.04h1.13c.06,.64,.62,1.12,1.55,1.12,.86,0,1.34-.43,1.34-.97,0-1.46-3.89-.61-3.89-3.06,0-1.01,.95-1.83,2.41-1.83s2.41,.78,2.48,2.06h-1.09c-.05-.66-.55-1.14-1.43-1.14-.8,0-1.28,.38-1.28,.91,0,1.56,3.81,.71,3.86,3.06,0,1.08-.95,1.9-2.4,1.9Z"/><path d="M335.49,85.46h-.85v-.9h.85v-1.66h1.09v1.66h1.71v.9h-1.71v3.87c0,.65,.24,.88,.91,.88h.8v.92h-.98c-1.16,0-1.82-.48-1.82-1.8v-3.87Z"/><path d="M342.46,91.24c-1.87,0-3.25-1.32-3.25-3.41s1.33-3.38,3.25-3.38,3.15,1.34,3.15,3.14c0,.24-.01,.43-.04,.66h-5.25c.08,1.33,1.02,2.06,2.13,2.06,.98,0,1.61-.5,1.85-1.21h1.18c-.34,1.2-1.39,2.13-3.02,2.13Zm-2.12-3.87h4.15c.01-1.28-.95-1.99-2.08-1.99-1.07,0-1.95,.71-2.07,1.99Z"/><path d="M348.15,91.14h-1.09v-6.57h1.09v1.07c.37-.73,1.08-1.19,2.12-1.19v1.13h-.29c-1.04,0-1.84,.47-1.84,1.99v3.57Z"/><path d="M351.36,82.75c0-.42,.32-.74,.74-.74,.4,0,.72,.32,.72,.74s-.32,.74-.72,.74c-.42,0-.74-.32-.74-.74Zm.18,1.81h1.09v6.57h-1.09v-6.57Z"/><path d="M357.35,91.24c-1.86,0-3.27-1.32-3.27-3.41s1.46-3.38,3.32-3.38,3.32,1.31,3.32,3.38-1.5,3.41-3.37,3.41Zm0-.96c1.14,0,2.25-.78,2.25-2.45s-1.09-2.43-2.22-2.43-2.19,.78-2.19,2.43,1.02,2.45,2.16,2.45Z"/><path d="M363.26,91.14h-1.09v-6.57h1.09v1.07c.37-.73,1.08-1.19,2.12-1.19v1.13h-.29c-1.04,0-1.84,.47-1.84,1.99v3.57Z"/><path d="M372.56,84.46c1.22,0,2.06,.62,2.45,1.31v-1.2h1.1v6.57h-1.1v-1.22c-.4,.71-1.25,1.33-2.46,1.33-1.75,0-3.11-1.38-3.11-3.42s1.36-3.37,3.12-3.37Zm.22,.95c-1.2,0-2.22,.88-2.22,2.42s1.02,2.46,2.22,2.46,2.23-.9,2.23-2.45-1.03-2.43-2.23-2.43Zm-1.18-3.65l2.55,1.5v.82l-2.55-1.37v-.95Z"/><path d="M380.98,82.75c0-.42,.32-.74,.74-.74,.4,0,.72,.32,.72,.74s-.32,.74-.72,.74c-.42,0-.74-.32-.74-.74Zm.18,1.81h1.09v6.57h-1.09v-6.57Z"/><path d="M393.6,87.42c0-1.34-.72-2.03-1.8-2.03s-1.86,.71-1.86,2.12v3.62h-1.08v-3.72c0-1.34-.72-2.03-1.8-2.03s-1.86,.71-1.86,2.12v3.62h-1.09v-6.57h1.09v.95c.43-.7,1.21-1.07,2.08-1.07,1.08,0,1.98,.48,2.41,1.46,.38-.95,1.32-1.46,2.33-1.46,1.5,0,2.66,.94,2.66,2.82v3.87h-1.08v-3.72Z"/><path d="M400.03,84.46c1.76,0,3.12,1.32,3.12,3.37s-1.36,3.42-3.12,3.42c-1.2,0-2.05-.65-2.46-1.32v4.33h-1.09v-9.69h1.09v1.21c.4-.7,1.26-1.32,2.46-1.32Zm-.23,.95c-1.19,0-2.23,.91-2.23,2.43s1.04,2.45,2.23,2.45,2.23-.91,2.23-2.46-1.02-2.42-2.23-2.42Z"/><path d="M404.59,82.26h1.09v8.87h-1.09v-8.87Z"/><path d="M410.38,91.24c-1.87,0-3.25-1.32-3.25-3.41s1.33-3.38,3.25-3.38,3.15,1.34,3.15,3.14c0,.24-.01,.43-.04,.66h-5.25c.08,1.33,1.02,2.06,2.13,2.06,.98,0,1.61-.5,1.85-1.21h1.17c-.34,1.2-1.39,2.13-3.02,2.13Zm-2.12-3.87h4.15c.01-1.28-.95-1.99-2.08-1.99-1.07,0-1.96,.71-2.07,1.99Z"/><path d="M424.47,87.42c0-1.34-.72-2.03-1.8-2.03s-1.86,.71-1.86,2.12v3.62h-1.08v-3.72c0-1.34-.72-2.03-1.8-2.03s-1.86,.71-1.86,2.12v3.62h-1.09v-6.57h1.09v.95c.43-.7,1.21-1.07,2.08-1.07,1.08,0,1.98,.48,2.41,1.46,.38-.95,1.32-1.46,2.33-1.46,1.5,0,2.66,.94,2.66,2.82v3.87h-1.08v-3.72Z"/><path d="M430.18,91.24c-1.87,0-3.25-1.32-3.25-3.41s1.33-3.38,3.25-3.38,3.15,1.34,3.15,3.14c0,.24-.01,.43-.04,.66h-5.25c.08,1.33,1.02,2.06,2.13,2.06,.98,0,1.61-.5,1.85-1.21h1.17c-.34,1.2-1.39,2.13-3.02,2.13Zm-2.12-3.87h4.15c.01-1.28-.95-1.99-2.08-1.99-1.07,0-1.96,.71-2.07,1.99Z"/><path d="M439.59,87.42c0-1.34-.73-2.03-1.83-2.03s-1.88,.7-1.88,2.11v3.63h-1.09v-6.57h1.09v.94c.43-.68,1.22-1.06,2.11-1.06,1.52,0,2.69,.94,2.69,2.82v3.87h-1.08v-3.72Z"/><path d="M442.7,85.46h-.85v-.9h.85v-1.66h1.09v1.66h1.71v.9h-1.71v3.87c0,.65,.24,.88,.91,.88h.8v.92h-.98c-1.16,0-1.82-.48-1.82-1.8v-3.87Z"/><path d="M449.54,84.46c1.22,0,2.06,.62,2.45,1.31v-1.2h1.1v6.57h-1.1v-1.22c-.4,.71-1.25,1.33-2.46,1.33-1.75,0-3.11-1.38-3.11-3.42s1.36-3.37,3.12-3.37Zm.22,.95c-1.2,0-2.22,.88-2.22,2.42s1.02,2.46,2.22,2.46,2.23-.9,2.23-2.45-1.03-2.43-2.23-2.43Z"/><path d="M457.74,84.46c1.63,0,2.7,.84,3.03,2.22h-1.17c-.23-.79-.89-1.3-1.86-1.3-1.2,0-2.09,.85-2.09,2.46s.89,2.48,2.09,2.48c.97,0,1.62-.47,1.86-1.3h1.17c-.31,1.21-1.26,2.09-2.7,2.21v.6c.92-.01,1.55,.4,1.55,1.19s-.61,1.24-1.46,1.24h-1.38v-.71h1.16c.52,0,.77-.14,.77-.53s-.25-.52-.77-.52h-.6v-1.28c-1.66-.17-2.81-1.45-2.81-3.38,0-2.06,1.33-3.38,3.2-3.38Z"/><path d="M464.94,84.46c1.22,0,2.06,.62,2.45,1.31v-1.2h1.1v6.57h-1.1v-1.22c-.4,.71-1.25,1.33-2.46,1.33-1.75,0-3.11-1.38-3.11-3.42s1.36-3.37,3.12-3.37Zm.22,.95c-1.2,0-2.22,.88-2.22,2.42s1.02,2.46,2.22,2.46,2.23-.9,2.23-2.45-1.03-2.43-2.23-2.43Zm-.35-2.81c.64,0,.88,.55,1.37,.55,.26,0,.48-.17,.53-.52h.62c-.1,.82-.58,1.25-1.2,1.25s-.89-.55-1.37-.55c-.26,0-.47,.17-.52,.53h-.64c.12-.83,.58-1.26,1.2-1.26Z"/><path d="M473.2,91.24c-1.86,0-3.27-1.32-3.27-3.41s1.46-3.38,3.32-3.38,3.32,1.31,3.32,3.38-1.5,3.41-3.37,3.41Zm0-.96c1.14,0,2.25-.78,2.25-2.45s-1.09-2.43-2.22-2.43-2.2,.78-2.2,2.43,1.02,2.45,2.16,2.45Z"/><path d="M483.94,84.46c1.03,0,1.98,.53,2.44,1.28v-3.48h1.1v8.87h-1.1v-1.23c-.4,.73-1.25,1.34-2.45,1.34-1.76,0-3.12-1.38-3.12-3.42s1.36-3.37,3.13-3.37Zm.2,.95c-1.2,0-2.22,.88-2.22,2.42s1.02,2.46,2.22,2.46,2.23-.9,2.23-2.45-1.03-2.43-2.23-2.43Z"/><path d="M492.04,84.46c1.22,0,2.06,.62,2.45,1.31v-1.2h1.1v6.57h-1.1v-1.22c-.4,.71-1.25,1.33-2.46,1.33-1.75,0-3.11-1.38-3.11-3.42s1.36-3.37,3.12-3.37Zm.22,.95c-1.2,0-2.22,.88-2.22,2.42s1.02,2.46,2.22,2.46,2.23-.9,2.23-2.45-1.03-2.43-2.23-2.43Z"/><path d="M137.75,97.15c0-.42,.32-.74,.74-.74,.4,0,.72,.32,.72,.74s-.32,.74-.72,.74c-.42,0-.74-.32-.74-.74Zm.18,1.81h1.09v6.57h-1.09v-6.57Z"/><path d="M145.69,101.82c0-1.34-.73-2.03-1.83-2.03s-1.88,.7-1.88,2.11v3.63h-1.09v-6.57h1.09v.94c.43-.68,1.22-1.06,2.11-1.06,1.52,0,2.69,.94,2.69,2.82v3.87h-1.08v-3.72Z"/><path d="M148.8,99.86h-.85v-.9h.85v-1.66h1.09v1.66h1.71v.9h-1.71v3.87c0,.65,.24,.88,.91,.88h.8v.92h-.98c-1.16,0-1.82-.48-1.82-1.8v-3.87Z"/><path d="M155.77,105.64c-1.87,0-3.25-1.32-3.25-3.41s1.33-3.38,3.25-3.38,3.15,1.34,3.15,3.14c0,.24-.01,.43-.04,.66h-5.25c.08,1.33,1.02,2.06,2.14,2.06,.98,0,1.61-.5,1.85-1.21h1.18c-.34,1.2-1.39,2.13-3.02,2.13Zm-2.12-3.87h4.15c.01-1.28-.95-1.99-2.08-1.99-1.07,0-1.95,.71-2.07,1.99Z"/><path d="M161.46,105.54h-1.09v-6.57h1.09v1.07c.37-.73,1.08-1.19,2.12-1.19v1.13h-.29c-1.04,0-1.83,.47-1.83,1.99v3.57Z"/><path d="M165.24,98.96l2.05,5.56,2.04-5.56h1.16l-2.58,6.57h-1.27l-2.58-6.57h1.18Z"/><path d="M174.42,105.64c-1.87,0-3.25-1.32-3.25-3.41s1.33-3.38,3.25-3.38,3.15,1.34,3.15,3.14c0,.24-.01,.43-.04,.66h-5.25c.08,1.33,1.02,2.06,2.13,2.06,.98,0,1.61-.5,1.85-1.21h1.18c-.34,1.2-1.39,2.13-3.02,2.13Zm-2.12-3.87h4.15c.01-1.28-.95-1.99-2.08-1.99-1.07,0-1.95,.71-2.07,1.99Z"/><path d="M183.82,101.82c0-1.34-.73-2.03-1.83-2.03s-1.88,.7-1.88,2.11v3.63h-1.09v-6.57h1.09v.94c.43-.68,1.22-1.06,2.11-1.06,1.52,0,2.69,.94,2.69,2.82v3.87h-1.08v-3.72Z"/><path d="M189.49,98.86c1.63,0,2.7,.84,3.03,2.22h-1.18c-.23-.79-.89-1.3-1.86-1.3-1.2,0-2.09,.85-2.09,2.46s.89,2.48,2.09,2.48c.97,0,1.62-.47,1.86-1.3h1.18c-.31,1.21-1.26,2.09-2.7,2.21v.6c.92-.01,1.55,.4,1.55,1.19s-.61,1.24-1.46,1.24h-1.38v-.71h1.16c.52,0,.77-.14,.77-.53s-.25-.52-.77-.52h-.6v-1.28c-1.66-.17-2.81-1.45-2.81-3.38,0-2.06,1.33-3.38,3.2-3.38Z"/><path d="M196.69,98.86c1.22,0,2.06,.62,2.45,1.31v-1.2h1.1v6.57h-1.1v-1.22c-.4,.71-1.25,1.33-2.46,1.33-1.75,0-3.11-1.38-3.11-3.42s1.36-3.37,3.12-3.37Zm.22,.95c-1.2,0-2.22,.88-2.22,2.42s1.02,2.46,2.22,2.46,2.23-.9,2.23-2.45-1.03-2.43-2.23-2.43Zm-.35-2.81c.64,0,.88,.55,1.37,.55,.26,0,.48-.17,.53-.52h.62c-.1,.82-.58,1.25-1.2,1.25s-.89-.55-1.37-.55c-.26,0-.47,.17-.52,.53h-.64c.12-.83,.58-1.26,1.2-1.26Z"/><path d="M204.96,105.64c-1.86,0-3.27-1.32-3.27-3.41s1.46-3.38,3.32-3.38,3.32,1.31,3.32,3.38-1.5,3.41-3.37,3.41Zm0-.96c1.14,0,2.25-.78,2.25-2.45s-1.09-2.43-2.22-2.43-2.19,.78-2.19,2.43,1.02,2.45,2.16,2.45Z"/><path d="M209.42,107.77v-.11c1.67-1.71,2.52-4.08,2.52-6.51s-.85-4.97-2.7-6.7v-.11h1.14c1.7,1.57,2.61,4.1,2.61,6.81s-.91,5.12-2.44,6.62h-1.14Z"/><path d="M215.44,104.03h1.2l-1.34,3.23h-.73l.88-3.23Zm.41-3.56c-.42,0-.74-.32-.74-.74s.32-.74,.74-.74c.4,0,.72,.32,.72,.74s-.32,.74-.72,.74Z"/><path d="M225.14,98.86c1.76,0,3.12,1.32,3.12,3.37s-1.35,3.42-3.12,3.42c-1.2,0-2.05-.65-2.46-1.32v4.33h-1.09v-9.69h1.09v1.21c.4-.7,1.26-1.32,2.46-1.32Zm-.23,.95c-1.19,0-2.23,.91-2.23,2.43s1.04,2.45,2.23,2.45,2.23-.91,2.23-2.46-1.02-2.42-2.23-2.42Z"/><path d="M232.54,105.64c-1.87,0-3.25-1.32-3.25-3.41s1.33-3.38,3.25-3.38,3.15,1.34,3.15,3.14c0,.24-.01,.43-.04,.66h-5.25c.08,1.33,1.02,2.06,2.14,2.06,.98,0,1.61-.5,1.85-1.21h1.18c-.34,1.2-1.39,2.13-3.02,2.13Zm-2.12-3.87h4.15c.01-1.28-.95-1.99-2.08-1.99-1.07,0-1.95,.71-2.07,1.99Z"/><path d="M238.23,105.54h-1.09v-6.57h1.09v1.07c.37-.73,1.08-1.19,2.12-1.19v1.13h-.29c-1.04,0-1.83,.47-1.83,1.99v3.57Z"/><path d="M244.41,98.86c1.63,0,2.7,.84,3.03,2.22h-1.18c-.23-.79-.89-1.3-1.86-1.3-1.2,0-2.09,.85-2.09,2.46s.89,2.48,2.09,2.48c.97,0,1.62-.47,1.86-1.3h1.18c-.34,1.31-1.4,2.22-3.03,2.22-1.87,0-3.2-1.32-3.2-3.41s1.33-3.38,3.2-3.38Z"/><path d="M251.74,105.64c-1.87,0-3.25-1.32-3.25-3.41s1.33-3.38,3.25-3.38,3.15,1.34,3.15,3.14c0,.24-.01,.43-.04,.66h-5.25c.08,1.33,1.02,2.06,2.14,2.06,.98,0,1.61-.5,1.85-1.21h1.18c-.34,1.2-1.39,2.13-3.02,2.13Zm-2.12-3.87h4.15c.01-1.28-.95-1.99-2.08-1.99-1.07,0-1.95,.71-2.07,1.99Z"/><path d="M261.15,101.82c0-1.34-.73-2.03-1.83-2.03s-1.88,.7-1.88,2.11v3.63h-1.09v-6.57h1.09v.94c.43-.68,1.22-1.06,2.11-1.06,1.52,0,2.69,.94,2.69,2.82v3.87h-1.08v-3.72Z"/><path d="M264.26,99.86h-.85v-.9h.85v-1.66h1.09v1.66h1.71v.9h-1.71v3.87c0,.65,.24,.88,.91,.88h.8v.92h-.98c-1.16,0-1.82-.48-1.82-1.8v-3.87Z"/><path d="M274.22,105.54h-1.09v-.97c-.42,.68-1.22,1.07-2.1,1.07-1.51,0-2.7-.94-2.7-2.82v-3.85h1.08v3.71c0,1.33,.73,2.01,1.83,2.01s1.88-.7,1.88-2.11v-3.61h1.09v6.57Z"/><path d="M278.78,98.86c1.22,0,2.06,.62,2.45,1.31v-1.2h1.1v6.57h-1.1v-1.22c-.4,.71-1.25,1.33-2.46,1.33-1.75,0-3.11-1.38-3.11-3.42s1.36-3.37,3.12-3.37Zm.22,.95c-1.2,0-2.22,.88-2.22,2.42s1.02,2.46,2.22,2.46,2.23-.9,2.23-2.45-1.03-2.43-2.23-2.43Z"/><path d="M284.18,96.66h1.09v8.88h-1.09v-8.88Z"/><path d="M293.06,98.86c1.03,0,1.98,.53,2.43,1.28v-3.48h1.1v8.88h-1.1v-1.24c-.4,.73-1.25,1.34-2.45,1.34-1.76,0-3.12-1.38-3.12-3.42s1.36-3.37,3.13-3.37Zm.2,.95c-1.2,0-2.22,.88-2.22,2.42s1.02,2.46,2.22,2.46,2.23-.9,2.23-2.45-1.03-2.43-2.23-2.43Z"/><path d="M301.29,105.64c-1.87,0-3.25-1.32-3.25-3.41s1.33-3.38,3.25-3.38,3.15,1.34,3.15,3.14c0,.24-.01,.43-.04,.66h-5.25c.08,1.33,1.02,2.06,2.14,2.06,.98,0,1.61-.5,1.85-1.21h1.18c-.34,1.2-1.39,2.13-3.02,2.13Zm-2.12-3.87h4.15c.01-1.28-.95-1.99-2.08-1.99-1.07,0-1.95,.71-2.07,1.99Z"/><path d="M314.92,105.54h-1.09v-.97c-.42,.68-1.22,1.07-2.1,1.07-1.51,0-2.7-.94-2.7-2.82v-3.85h1.08v3.71c0,1.33,.73,2.01,1.83,2.01s1.88-.7,1.88-2.11v-3.61h1.09v6.57Z"/><path d="M319.1,105.64c-1.54,0-2.61-.84-2.69-2.04h1.13c.06,.64,.62,1.12,1.55,1.12,.86,0,1.34-.43,1.34-.97,0-1.46-3.89-.61-3.89-3.06,0-1.01,.95-1.83,2.41-1.83s2.41,.78,2.48,2.06h-1.09c-.05-.66-.55-1.14-1.43-1.14-.8,0-1.28,.38-1.28,.91,0,1.56,3.81,.71,3.86,3.06,0,1.08-.95,1.89-2.4,1.89Z"/><path d="M328.87,105.54h-1.09v-.97c-.42,.68-1.22,1.07-2.1,1.07-1.51,0-2.7-.94-2.7-2.82v-3.85h1.08v3.71c0,1.33,.73,2.01,1.83,2.01s1.88-.7,1.88-2.11v-3.61h1.09v6.57Z"/><path d="M333.43,98.86c1.22,0,2.06,.62,2.45,1.31v-1.2h1.1v6.57h-1.1v-1.22c-.4,.71-1.25,1.33-2.46,1.33-1.75,0-3.11-1.38-3.11-3.42s1.36-3.37,3.12-3.37Zm.22,.95c-1.2,0-2.22,.88-2.22,2.42s1.02,2.46,2.22,2.46,2.23-.9,2.23-2.45-1.03-2.43-2.23-2.43Zm1.38-3.65v.95l-2.55,1.37v-.82l2.55-1.5Z"/><path d="M339.92,105.54h-1.09v-6.57h1.09v1.07c.37-.73,1.08-1.19,2.12-1.19v1.13h-.29c-1.04,0-1.84,.47-1.84,1.99v3.57Z"/><path d="M343.12,97.15c0-.42,.32-.74,.74-.74,.4,0,.72,.32,.72,.74s-.32,.74-.72,.74c-.42,0-.74-.32-.74-.74Zm.18,1.81h1.09v6.57h-1.09v-6.57Z"/><path d="M349.12,105.64c-1.86,0-3.27-1.32-3.27-3.41s1.46-3.38,3.32-3.38,3.32,1.31,3.32,3.38-1.5,3.41-3.37,3.41Zm0-.96c1.14,0,2.25-.78,2.25-2.45s-1.09-2.43-2.22-2.43-2.19,.78-2.19,2.43,1.02,2.45,2.16,2.45Z"/><path d="M356.26,105.64c-1.54,0-2.61-.84-2.69-2.04h1.13c.06,.64,.62,1.12,1.55,1.12,.86,0,1.34-.43,1.34-.97,0-1.46-3.89-.61-3.89-3.06,0-1.01,.95-1.83,2.41-1.83s2.41,.78,2.48,2.06h-1.09c-.05-.66-.55-1.14-1.43-1.14-.8,0-1.28,.38-1.28,.91,0,1.56,3.81,.71,3.86,3.06,0,1.08-.95,1.89-2.4,1.89Z"/><path d="M366.13,98.86c1.03,0,1.98,.53,2.43,1.28v-3.48h1.1v8.88h-1.1v-1.24c-.4,.73-1.25,1.34-2.45,1.34-1.76,0-3.12-1.38-3.12-3.42s1.36-3.37,3.13-3.37Zm.2,.95c-1.2,0-2.22,.88-2.22,2.42s1.02,2.46,2.22,2.46,2.23-.9,2.23-2.45-1.03-2.43-2.23-2.43Z"/><path d="M374.38,105.64c-1.86,0-3.27-1.32-3.27-3.41s1.46-3.38,3.32-3.38,3.32,1.31,3.32,3.38-1.5,3.41-3.37,3.41Zm0-.96c1.14,0,2.25-.78,2.25-2.45s-1.09-2.43-2.22-2.43-2.19,.78-2.19,2.43,1.02,2.45,2.16,2.45Z"/><path d="M382.64,99.86h-.85v-.9h.85v-1.66h1.09v1.66h1.71v.9h-1.71v3.87c0,.65,.24,.88,.91,.88h.8v.92h-.98c-1.16,0-1.82-.48-1.82-1.8v-3.87Z"/><path d="M389.61,105.64c-1.87,0-3.25-1.32-3.25-3.41s1.33-3.38,3.25-3.38,3.15,1.34,3.15,3.14c0,.24-.01,.43-.04,.66h-5.25c.08,1.33,1.02,2.06,2.14,2.06,.98,0,1.61-.5,1.85-1.21h1.17c-.34,1.2-1.39,2.13-3.02,2.13Zm-2.12-3.87h4.15c.01-1.28-.95-1.99-2.08-1.99-1.07,0-1.96,.71-2.08,1.99Z"/><path d="M395.3,105.54h-1.09v-6.57h1.09v1.07c.37-.73,1.08-1.19,2.12-1.19v1.13h-.29c-1.04,0-1.83,.47-1.83,1.99v3.57Z"/><path d="M399.78,105.54h-1.09v-6.57h1.09v1.07c.37-.73,1.08-1.19,2.12-1.19v1.13h-.29c-1.04,0-1.83,.47-1.83,1.99v3.57Z"/><path d="M402.98,97.15c0-.42,.32-.74,.74-.74,.4,0,.72,.32,.72,.74s-.32,.74-.72,.74c-.42,0-.74-.32-.74-.74Zm.18,1.81h1.09v6.57h-1.09v-6.57Z"/><path d="M406.35,99.86h-.85v-.9h.85v-1.66h1.09v1.66h1.71v.9h-1.71v3.87c0,.65,.24,.88,.91,.88h.8v.92h-.98c-1.16,0-1.82-.48-1.82-1.8v-3.87Z"/><path d="M413.35,105.64c-1.86,0-3.27-1.32-3.27-3.41s1.46-3.38,3.32-3.38,3.32,1.31,3.32,3.38-1.5,3.41-3.37,3.41Zm0-.96c1.14,0,2.25-.78,2.25-2.45s-1.09-2.43-2.22-2.43-2.2,.78-2.2,2.43,1.02,2.45,2.16,2.45Zm1.22-8.61v.95l-2.55,1.37v-.82l2.55-1.5Z"/><path d="M419.25,105.54h-1.09v-6.57h1.09v1.07c.37-.73,1.08-1.19,2.12-1.19v1.13h-.29c-1.04,0-1.83,.47-1.83,1.99v3.57Z"/><path d="M422.46,97.15c0-.42,.32-.74,.74-.74,.4,0,.72,.32,.72,.74s-.32,.74-.72,.74c-.42,0-.74-.32-.74-.74Zm.18,1.81h1.09v6.57h-1.09v-6.57Z"/><path d="M428.45,105.64c-1.86,0-3.27-1.32-3.27-3.41s1.46-3.38,3.32-3.38,3.32,1.31,3.32,3.38-1.5,3.41-3.37,3.41Zm0-.96c1.14,0,2.25-.78,2.25-2.45s-1.09-2.43-2.22-2.43-2.2,.78-2.2,2.43,1.02,2.45,2.16,2.45Z"/><path d="M436.29,97.15c0-.42,.32-.74,.74-.74,.4,0,.72,.32,.72,.74s-.32,.74-.72,.74c-.42,0-.74-.32-.74-.74Zm.18,1.81h1.09v6.57h-1.09v-6.57Z"/><path d="M448.91,101.82c0-1.34-.72-2.03-1.8-2.03s-1.86,.71-1.86,2.12v3.62h-1.08v-3.72c0-1.34-.72-2.03-1.8-2.03s-1.86,.71-1.86,2.12v3.62h-1.09v-6.57h1.09v.95c.43-.7,1.21-1.07,2.08-1.07,1.08,0,1.98,.48,2.41,1.46,.38-.95,1.32-1.46,2.33-1.46,1.5,0,2.66,.94,2.66,2.82v3.87h-1.08v-3.72Z"/><path d="M457.61,105.54h-1.09v-.97c-.42,.68-1.22,1.07-2.1,1.07-1.51,0-2.7-.94-2.7-2.82v-3.85h1.08v3.71c0,1.33,.73,2.01,1.83,2.01s1.88-.7,1.88-2.11v-3.61h1.09v6.57Z"/><path d="M464.27,101.82c0-1.34-.73-2.03-1.83-2.03s-1.88,.7-1.88,2.11v3.63h-1.09v-6.57h1.09v.94c.43-.68,1.22-1.06,2.11-1.06,1.52,0,2.69,.94,2.69,2.82v3.87h-1.08v-3.72Z"/><path d="M466.96,97.15c0-.42,.32-.74,.74-.74,.4,0,.72,.32,.72,.74s-.32,.74-.72,.74c-.42,0-.74-.32-.74-.74Zm.18,1.81h1.09v6.57h-1.09v-6.57Z"/><path d="M474.11,99.85l-3.2,4.79h3.23v.9h-4.47v-.9l3.19-4.79h-3.17v-.89h4.43v.89Z"/><path d="M478.27,98.86c1.22,0,2.06,.62,2.45,1.31v-1.2h1.1v6.57h-1.1v-1.22c-.4,.71-1.25,1.33-2.46,1.33-1.75,0-3.11-1.38-3.11-3.42s1.36-3.37,3.12-3.37Zm.22,.95c-1.2,0-2.22,.88-2.22,2.42s1.02,2.46,2.22,2.46,2.23-.9,2.23-2.45-1.03-2.43-2.23-2.43Z"/><path d="M486.39,98.86c1.03,0,1.98,.53,2.43,1.28v-3.48h1.1v8.88h-1.1v-1.24c-.4,.73-1.25,1.34-2.45,1.34-1.76,0-3.12-1.38-3.12-3.42s1.36-3.37,3.13-3.37Zm.2,.95c-1.2,0-2.22,.88-2.22,2.42s1.02,2.46,2.22,2.46,2.23-.9,2.23-2.45-1.03-2.43-2.23-2.43Z"/><path d="M494.65,105.64c-1.86,0-3.27-1.32-3.27-3.41s1.46-3.38,3.32-3.38,3.32,1.31,3.32,3.38-1.5,3.41-3.37,3.41Zm0-.96c1.14,0,2.25-.78,2.25-2.45s-1.09-2.43-2.22-2.43-2.2,.78-2.2,2.43,1.02,2.45,2.16,2.45Z"/><path d="M501.79,105.64c-1.54,0-2.61-.84-2.69-2.04h1.13c.06,.64,.62,1.12,1.55,1.12,.86,0,1.34-.43,1.34-.97,0-1.46-3.89-.61-3.89-3.06,0-1.01,.95-1.83,2.41-1.83s2.41,.78,2.48,2.06h-1.09c-.05-.66-.55-1.14-1.43-1.14-.8,0-1.28,.38-1.28,.91,0,1.56,3.81,.71,3.86,3.06,0,1.08-.95,1.89-2.4,1.89Z"/><path d="M506.07,105.61c-.42,0-.74-.32-.74-.74s.32-.74,.74-.74c.4,0,.72,.32,.72,.74s-.32,.74-.72,.74Z"/></g><path class="d" d="M581.78,167.86H24.72c-6.46,0-11.72-5.26-11.72-11.72v-25.56c0-6.46,5.26-11.72,11.72-11.72H581.78c6.46,0,11.72,5.26,11.72,11.72v25.56c0,6.46-5.26,11.72-11.72,11.72ZM24.72,119.86c-5.91,0-10.72,4.81-10.72,10.72v25.56c0,5.91,4.81,10.72,10.72,10.72H581.78c5.91,0,10.72-4.81,10.72-10.72v-25.56c0-5.91-4.81-10.72-10.72-10.72H24.72Z"/><g><path d="M140.37,140.06h-.85v-.9h.85v-1.66h1.09v1.66h1.71v.9h-1.71v3.87c0,.65,.24,.88,.91,.88h.8v.92h-.98c-1.16,0-1.82-.48-1.82-1.8v-3.87Z"/><path d="M147.21,139.06c1.22,0,2.06,.62,2.45,1.31v-1.2h1.1v6.57h-1.1v-1.22c-.4,.71-1.25,1.33-2.46,1.33-1.75,0-3.11-1.38-3.11-3.42s1.36-3.37,3.12-3.37Zm.22,.95c-1.2,0-2.22,.88-2.22,2.42s1.02,2.46,2.22,2.46,2.23-.9,2.23-2.45-1.03-2.44-2.23-2.44Z"/><path d="M154.48,143.29l-1.5,2.45h-1.14l2.12-3.26-2.12-3.31h1.24l1.56,2.43,1.49-2.43h1.14l-2.11,3.25,2.12,3.32h-1.24l-1.56-2.45Z"/><path d="M161.07,139.06c1.22,0,2.06,.62,2.45,1.31v-1.2h1.1v6.57h-1.1v-1.22c-.4,.71-1.25,1.33-2.46,1.33-1.75,0-3.11-1.38-3.11-3.42s1.36-3.37,3.12-3.37Zm.22,.95c-1.2,0-2.22,.88-2.22,2.42s1.02,2.46,2.22,2.46,2.23-.9,2.23-2.45-1.03-2.44-2.23-2.44Z"/><path d="M172.4,139.06c1.03,0,1.98,.53,2.43,1.28v-3.48h1.1v8.88h-1.1v-1.24c-.4,.73-1.25,1.34-2.45,1.34-1.76,0-3.12-1.38-3.12-3.42s1.36-3.37,3.13-3.37Zm.2,.95c-1.2,0-2.22,.88-2.22,2.42s1.02,2.46,2.22,2.46,2.23-.9,2.23-2.45-1.03-2.44-2.23-2.44Z"/><path d="M180.63,145.85c-1.87,0-3.25-1.32-3.25-3.41s1.33-3.38,3.25-3.38,3.15,1.34,3.15,3.14c0,.24-.01,.43-.04,.66h-5.25c.08,1.33,1.02,2.06,2.13,2.06,.98,0,1.61-.5,1.85-1.21h1.18c-.34,1.2-1.39,2.13-3.02,2.13Zm-2.12-3.88h4.15c.01-1.28-.95-1.99-2.08-1.99-1.07,0-1.95,.71-2.07,1.99Z"/><path d="M197.92,142.02c0-1.34-.72-2.03-1.8-2.03s-1.86,.71-1.86,2.12v3.62h-1.08v-3.72c0-1.34-.72-2.03-1.8-2.03s-1.86,.71-1.86,2.12v3.62h-1.09v-6.57h1.09v.95c.43-.7,1.21-1.07,2.08-1.07,1.08,0,1.98,.48,2.41,1.46,.38-.95,1.32-1.46,2.33-1.46,1.5,0,2.66,.94,2.66,2.82v3.87h-1.08v-3.72Z"/><path d="M203.66,145.85c-1.86,0-3.27-1.32-3.27-3.41s1.46-3.38,3.32-3.38,3.32,1.31,3.32,3.38-1.5,3.41-3.37,3.41Zm0-.96c1.14,0,2.25-.78,2.25-2.45s-1.09-2.44-2.22-2.44-2.19,.78-2.19,2.44,1.02,2.45,2.16,2.45Z"/><path d="M209.56,145.74h-1.09v-6.57h1.09v1.07c.37-.73,1.08-1.19,2.12-1.19v1.13h-.29c-1.04,0-1.84,.47-1.84,1.99v3.57Z"/><path d="M216.5,139.06c1.77,0,3.12,1.32,3.12,3.37s-1.36,3.42-3.12,3.42c-1.2,0-2.05-.6-2.46-1.32v1.21h-1.09v-8.88h1.09v3.53c.42-.73,1.3-1.33,2.46-1.33Zm-.23,.95c-1.19,0-2.23,.91-2.23,2.44s1.04,2.45,2.23,2.45,2.23-.91,2.23-2.46-1.02-2.42-2.23-2.42Z"/><path d="M220.88,137.35c0-.42,.32-.74,.74-.74,.4,0,.72,.32,.72,.74s-.32,.74-.72,.74c-.42,0-.74-.32-.74-.74Zm.18,1.81h1.09v6.57h-1.09v-6.57Z"/><path d="M226.73,139.06c1.03,0,1.98,.53,2.43,1.28v-3.48h1.1v8.88h-1.1v-1.24c-.4,.73-1.25,1.34-2.45,1.34-1.76,0-3.12-1.38-3.12-3.42s1.36-3.37,3.13-3.37Zm.2,.95c-1.2,0-2.22,.88-2.22,2.42s1.02,2.46,2.22,2.46,2.23-.9,2.23-2.45-1.03-2.44-2.23-2.44Z"/><path d="M234.83,139.06c1.22,0,2.06,.62,2.45,1.31v-1.2h1.1v6.57h-1.1v-1.22c-.4,.71-1.25,1.33-2.46,1.33-1.75,0-3.11-1.38-3.11-3.42s1.36-3.37,3.12-3.37Zm.22,.95c-1.2,0-2.22,.88-2.22,2.42s1.02,2.46,2.22,2.46,2.23-.9,2.23-2.45-1.03-2.44-2.23-2.44Z"/><path d="M242.95,139.06c1.03,0,1.98,.53,2.43,1.28v-3.48h1.1v8.88h-1.1v-1.24c-.4,.73-1.25,1.34-2.45,1.34-1.76,0-3.12-1.38-3.12-3.42s1.36-3.37,3.13-3.37Zm.2,.95c-1.2,0-2.22,.88-2.22,2.42s1.02,2.46,2.22,2.46,2.23-.9,2.23-2.45-1.03-2.44-2.23-2.44Z"/><path d="M251.19,145.85c-1.87,0-3.25-1.32-3.25-3.41s1.33-3.38,3.25-3.38,3.15,1.34,3.15,3.14c0,.24-.01,.43-.04,.66h-5.25c.08,1.33,1.02,2.06,2.13,2.06,.98,0,1.61-.5,1.85-1.21h1.18c-.34,1.2-1.39,2.13-3.02,2.13Zm-2.12-3.88h4.15c.01-1.28-.95-1.99-2.08-1.99-1.07,0-1.95,.71-2.07,1.99Z"/><path d="M262.54,139.06c1.76,0,3.12,1.32,3.12,3.37s-1.36,3.42-3.12,3.42c-1.2,0-2.05-.65-2.46-1.32v4.33h-1.09v-9.69h1.09v1.21c.4-.7,1.26-1.32,2.46-1.32Zm-.23,.95c-1.19,0-2.23,.91-2.23,2.44s1.04,2.45,2.23,2.45,2.23-.91,2.23-2.46-1.02-2.42-2.23-2.42Z"/><path d="M269.97,145.85c-1.86,0-3.27-1.32-3.27-3.41s1.46-3.38,3.32-3.38,3.32,1.31,3.32,3.38-1.5,3.41-3.37,3.41Zm0-.96c1.14,0,2.25-.78,2.25-2.45s-1.09-2.44-2.22-2.44-2.19,.78-2.19,2.44,1.02,2.45,2.16,2.45Z"/><path d="M275.87,145.74h-1.09v-6.57h1.09v1.07c.37-.73,1.08-1.19,2.12-1.19v1.13h-.29c-1.04,0-1.84,.47-1.84,1.99v3.57Z"/><path d="M285.25,139.06c1.63,0,2.7,.84,3.03,2.22h-1.18c-.23-.79-.89-1.29-1.86-1.29-1.2,0-2.09,.85-2.09,2.46s.89,2.48,2.09,2.48c.97,0,1.62-.47,1.86-1.29h1.18c-.34,1.31-1.4,2.22-3.03,2.22-1.87,0-3.2-1.32-3.2-3.41s1.33-3.38,3.2-3.38Z"/><path d="M292.61,145.85c-1.86,0-3.27-1.32-3.27-3.41s1.46-3.38,3.32-3.38,3.32,1.31,3.32,3.38-1.5,3.41-3.37,3.41Zm0-.96c1.14,0,2.25-.78,2.25-2.45s-1.09-2.44-2.22-2.44-2.19,.78-2.19,2.44,1.02,2.45,2.16,2.45Z"/><path d="M297.82,139.16l2.05,5.57,2.04-5.57h1.16l-2.58,6.57h-1.27l-2.58-6.57h1.18Z"/><path d="M303.98,137.35c0-.42,.32-.74,.74-.74,.4,0,.72,.32,.72,.74s-.32,.74-.72,.74c-.42,0-.74-.32-.74-.74Zm.18,1.81h1.09v6.57h-1.09v-6.57Z"/><path d="M309.83,139.06c1.03,0,1.98,.53,2.43,1.28v-3.48h1.1v8.88h-1.1v-1.24c-.4,.73-1.25,1.34-2.45,1.34-1.76,0-3.12-1.38-3.12-3.42s1.36-3.37,3.13-3.37Zm.2,.95c-1.2,0-2.22,.88-2.22,2.42s1.02,2.46,2.22,2.46,2.23-.9,2.23-2.45-1.03-2.44-2.23-2.44Z"/><path d="M314.99,140.88h4.79v.92h-4.79v-.92Z"/><path d="M322.52,138.06h-1.15v-1h2.25v8.67h-1.1v-7.68Z"/><path d="M326.89,143.41c.16,.9,.73,1.43,1.74,1.43,1.27,0,1.96-.86,1.92-3.41-.35,.73-1.21,1.15-2.15,1.15-1.6,0-2.78-1-2.78-2.83,0-1.65,.98-2.85,2.85-2.85,2.35,0,3.03,1.65,3.03,4.34,0,2.89-.66,4.51-2.94,4.51-1.73,0-2.57-1.07-2.69-2.34h1.01Zm3.53-3.6c0-1.18-.67-2-1.92-2-1.13,0-1.83,.77-1.83,1.92s.62,1.93,1.92,1.93c1.04,0,1.83-.68,1.83-1.85Z"/><path d="M341.24,142.02c0-1.34-.73-2.03-1.83-2.03s-1.88,.7-1.88,2.11v3.63h-1.09v-6.57h1.09v.94c.43-.68,1.22-1.06,2.11-1.06,1.52,0,2.69,.94,2.69,2.82v3.87h-1.08v-3.72Z"/><path d="M346.98,145.85c-1.86,0-3.27-1.32-3.27-3.41s1.46-3.38,3.32-3.38,3.32,1.31,3.32,3.38-1.5,3.41-3.37,3.41Zm0-.96c1.14,0,2.25-.78,2.25-2.45s-1.09-2.44-2.22-2.44-2.19,.78-2.19,2.44,1.02,2.45,2.16,2.45Z"/><path d="M364.49,142.02c0-1.34-.72-2.03-1.8-2.03s-1.86,.71-1.86,2.12v3.62h-1.08v-3.72c0-1.34-.72-2.03-1.8-2.03s-1.86,.71-1.86,2.12v3.62h-1.09v-6.57h1.09v.95c.43-.7,1.21-1.07,2.08-1.07,1.08,0,1.98,.48,2.41,1.46,.38-.95,1.32-1.46,2.33-1.46,1.5,0,2.66,.94,2.66,2.82v3.87h-1.08v-3.72Z"/><path d="M373.19,145.74h-1.09v-.97c-.42,.68-1.22,1.07-2.1,1.07-1.51,0-2.7-.93-2.7-2.82v-3.85h1.08v3.71c0,1.33,.73,2.01,1.83,2.01s1.88-.7,1.88-2.11v-3.61h1.09v6.57Z"/><path d="M379.85,142.02c0-1.34-.73-2.03-1.83-2.03s-1.88,.7-1.88,2.11v3.63h-1.09v-6.57h1.09v.94c.43-.68,1.22-1.06,2.11-1.06,1.52,0,2.69,.94,2.69,2.82v3.87h-1.08v-3.72Z"/><path d="M382.54,137.35c0-.42,.32-.74,.74-.74,.4,0,.72,.32,.72,.74s-.32,.74-.72,.74c-.42,0-.74-.32-.74-.74Zm.18,1.81h1.09v6.57h-1.09v-6.57Z"/><path d="M388.47,139.06c1.63,0,2.7,.84,3.03,2.22h-1.17c-.23-.79-.89-1.29-1.86-1.29-1.2,0-2.09,.85-2.09,2.46s.89,2.48,2.09,2.48c.97,0,1.62-.47,1.86-1.29h1.17c-.34,1.31-1.4,2.22-3.03,2.22-1.87,0-3.2-1.32-3.2-3.41s1.33-3.38,3.2-3.38Z"/><path d="M394.67,136.36v.95l-2.55,1.37v-.82l2.55-1.5Zm-1.71,2.81h1.09v6.57h-1.09v-6.57Z"/><path d="M399.46,139.06c1.76,0,3.12,1.32,3.12,3.37s-1.36,3.42-3.12,3.42c-1.2,0-2.05-.65-2.46-1.32v4.33h-1.09v-9.69h1.09v1.21c.4-.7,1.26-1.32,2.46-1.32Zm-.23,.95c-1.19,0-2.23,.91-2.23,2.44s1.04,2.45,2.23,2.45,2.23-.91,2.23-2.46-1.02-2.42-2.23-2.42Z"/><path d="M403.84,137.35c0-.42,.32-.74,.74-.74,.4,0,.72,.32,.72,.74s-.32,.74-.72,.74c-.42,0-.74-.32-.74-.74Zm.18,1.81h1.09v6.57h-1.09v-6.57Z"/><path d="M409.84,145.85c-1.86,0-3.27-1.32-3.27-3.41s1.46-3.38,3.32-3.38,3.32,1.31,3.32,3.38-1.5,3.41-3.37,3.41Zm0-.96c1.14,0,2.25-.78,2.25-2.45s-1.09-2.44-2.22-2.44-2.2,.78-2.2,2.44,1.02,2.45,2.16,2.45Z"/><path d="M415,145.81c-.42,0-.74-.32-.74-.74s.32-.74,.74-.74c.4,0,.72,.32,.72,.74s-.32,.74-.72,.74Z"/></g></svg>