<?xml version="1.0" encoding="UTF-8"?><svg xmlns="http://www.w3.org/2000/svg" viewBox="0 0 364.5 297.89"><defs><style>.g{fill:#fff;}.h{fill:#fafafa;}.i{fill:#455a64;}.j{fill:#45696c;}.k{fill:#ffbf9d;}.l{fill:#e0e0e0;}.m{fill:#ff9a6c;}.n{fill:#ff725e;}.o{opacity:.3;}.p{fill:#ebebeb;}.q{fill:#263238;}</style></defs><g id="a"><g><polygon class="p" points="42.42 246.59 49.24 291.39 88.84 291.39 98.04 247.24 42.42 246.59"/><g><path class="h" d="M92.5,275.3c0,.13-10.15,.23-22.67,.23s-22.67-.1-22.67-.23,10.15-.23,22.67-.23,22.67,.1,22.67,.23Z"/><path class="h" d="M92.65,273.1c0,.13-10.22,.23-22.82,.23s-22.82-.1-22.82-.23,10.22-.23,22.82-.23,22.82,.1,22.82,.23Z"/><path class="h" d="M92.57,270.61c0,.13-10.22,.23-22.82,.23s-22.82-.1-22.82-.23,10.22-.23,22.82-.23,22.82,.1,22.82,.23Z"/><path class="h" d="M53.79,288.84c-.13,.02-.67-2.5-1.22-5.64-.54-3.14-.88-5.7-.76-5.72,.13-.02,.67,2.5,1.21,5.64,.54,3.14,.88,5.7,.76,5.72Z"/><path class="h" d="M56.48,288.36c-.13,0-.28-2.47-.49-5.5-.2-3.04-.39-5.51-.26-5.52,.12-.01,.52,2.44,.72,5.49,.21,3.05,.15,5.53,.03,5.54Z"/><path class="h" d="M61.39,288.36c-.12,.02-.66-2.49-1.03-5.64-.37-3.15-.43-5.72-.3-5.73,.13,0,.39,2.54,.76,5.68,.37,3.13,.7,5.68,.57,5.7Z"/><path class="h" d="M64.84,288.59c-.12,.01-.45-2.55-.55-5.73-.11-3.18,.05-5.76,.18-5.76,.13,0,.18,2.57,.29,5.74,.1,3.17,.22,5.74,.08,5.75Z"/><path class="h" d="M70.94,288.36c-.13,0-.31-2.43-.42-5.44-.1-3.01-.08-5.45,.05-5.46,.13,0,.31,2.43,.42,5.44,.1,3.01,.08,5.45-.05,5.46Z"/><path class="h" d="M75.4,288.6c-.13,0-.21-2.52-.19-5.63,.03-3.11,.15-5.63,.28-5.63,.13,0,.21,2.52,.19,5.63-.03,3.11-.15,5.63-.28,5.63Z"/><path class="h" d="M79.58,288c-.13-.01,.02-2.65,.34-5.88,.31-3.24,.67-5.85,.8-5.84,.13,.01-.02,2.65-.34,5.88-.31,3.24-.67,5.85-.8,5.84Z"/><path class="h" d="M84.97,287.41c-.12-.01,.07-2.28,.67-5,.59-2.73,1.35-4.87,1.47-4.83,.13,.04-.43,2.22-1.02,4.93-.59,2.71-.99,4.92-1.12,4.9Z"/></g><g><path class="p" d="M81.15,158.18s0,.08-.05,.22c-.05,.17-.11,.38-.19,.63-.18,.59-.43,1.4-.75,2.42-.34,1.05-.74,2.33-1.16,3.83-.43,1.5-.96,3.2-1.43,5.11-.5,1.9-1.05,3.98-1.54,6.24-.55,2.24-1.01,4.67-1.53,7.22-.95,5.11-1.82,10.75-2.43,16.72-.58,5.97-.85,11.68-.93,16.87,0,2.6-.02,5.07,.07,7.38,.04,2.31,.16,4.46,.28,6.42,.09,1.96,.27,3.73,.39,5.29,.11,1.56,.26,2.89,.38,3.99,.11,1.06,.2,1.91,.26,2.52,.02,.27,.04,.48,.06,.66,.01,.15,.01,.22,0,.23,0,0-.03-.07-.05-.22-.03-.17-.06-.39-.1-.65-.08-.61-.2-1.45-.35-2.51-.15-1.09-.32-2.43-.46-3.98-.15-1.56-.35-3.33-.46-5.29-.14-1.96-.28-4.12-.34-6.43-.11-2.31-.1-4.79-.11-7.39,.06-5.21,.31-10.93,.89-16.92,.61-5.98,1.49-11.64,2.47-16.75,.53-2.55,1.01-4.98,1.57-7.22,.51-2.26,1.08-4.34,1.6-6.24,.49-1.91,1.05-3.6,1.5-5.1,.44-1.5,.87-2.78,1.24-3.81,.35-1.01,.63-1.81,.84-2.39,.09-.25,.17-.45,.23-.62,.05-.14,.09-.21,.09-.21Z"/><path class="p" d="M74,185.93c1.07-3.2,3.29-6,6.16-7.78,.98-.61,2.22-1.1,3.26-.6,1.38,.67,1.49,2.61,1.08,4.09-.69,2.49-2.32,4.7-4.48,6.11-2.16,1.41-4.17,2.07-6.73,1.7"/><path class="p" d="M71.6,204.66c1.02-3.87,4.11-9.36,7.31-11.76,.51-.38,1.05-.74,1.66-.89,.61-.15,1.32-.05,1.78,.38,.65,.63,.59,1.68,.4,2.57-1.22,5.64-5.92,10.37-11.56,11.63"/><path class="p" d="M70.93,221.15c1.58-3.67,4.15-6.91,7.38-9.28,.76-.55,1.65-1.08,2.57-.92,1.4,.25,2.03,1.96,1.91,3.38-.25,2.92-2.48,5.25-4.78,7.07-2.48,1.95-6.82,3.51-6.82,3.51"/><path class="p" d="M71.31,233c1.62-2.76,3.63-5.35,6.28-7.14,.57-.39,1.2-.75,1.88-.84,.69-.09,1.46,.13,1.85,.7,.63,.92,.03,2.17-.64,3.06-2.33,3.08-5.27,5.41-8.96,6.57"/><path class="p" d="M71,228.19c-2.7-3.31-5.71-6.38-8.97-9.14-.51-.43-1.15-.88-1.79-.68-.49,.16-.79,.69-.82,1.21-.03,.52,.14,1.02,.34,1.5,1.96,4.74,6.58,8.45,11.55,9.72"/><path class="p" d="M71.28,212.76c-2.35-2.86-4.7-5.73-7.05-8.59-.67-.82-1.36-1.65-2.29-2.17-.92-.52-2.14-.64-3.01-.04-.86,.61-1.15,1.8-.96,2.84,.19,1.04,.77,1.96,1.38,2.82,1.43,2.06,3.07,4.03,5.14,5.46,2.07,1.42,3.95,2.35,6.44,1.98"/><path class="p" d="M72.26,195.39c-1.37-4.09-3.84-7.81-7.09-10.65-.54-.47-1.14-.94-1.85-1.08-1.41-.27-2.78,.91-3.23,2.27-.51,1.53-.16,3.26,.64,4.67,.81,1.4,2.03,2.52,3.31,3.5,2.37,1.81,5.03,3.25,7.84,4.23"/><path class="p" d="M75.08,179.91c-.68-4.98-3.28-9.13-6.28-13.16-.63-.85-1.52-1.75-2.57-1.59-.67,.1-1.21,.64-1.47,1.26-.26,.62-.3,1.32-.28,1.99,.16,6.02,4.31,11.74,9.99,13.75"/><path class="p" d="M77.05,172c-.25-2.56-.49-5.14-.26-7.7,.24-2.56,.99-5.14,2.56-7.18,.67-.88,1.52-1.66,2.56-2.04,1.04-.38,2.29-.29,3.14,.42,.79,.66,1.11,1.74,1.08,2.77-.04,1.02-.4,2.01-.79,2.95-1.88,4.52-5.01,9.52-8.28,10.79"/></g><g><path class="l" d="M46.34,177.94s.03,.22,.04,.63c0,.46,.01,1.06,.02,1.81,0,.78,0,1.75,.04,2.86,.04,1.11,.04,2.38,.14,3.78,.12,2.8,.39,6.13,.82,9.82,.46,3.68,1.08,7.71,1.95,11.9,.89,4.19,1.93,8.13,3,11.68,1.09,3.54,2.18,6.7,3.19,9.32,.48,1.32,.98,2.48,1.4,3.52,.41,1.04,.79,1.92,1.11,2.64,.29,.69,.53,1.24,.71,1.66,.16,.38,.23,.59,.22,.59-.01,0-.12-.18-.3-.55-.2-.41-.46-.96-.79-1.63-.34-.71-.75-1.58-1.18-2.61-.44-1.03-.96-2.19-1.46-3.5-1.06-2.61-2.18-5.76-3.3-9.31-1.09-3.56-2.15-7.51-3.04-11.71-.87-4.2-1.49-8.25-1.92-11.94-.4-3.7-.64-7.04-.72-9.85-.07-1.4-.06-2.68-.07-3.79-.02-1.12,0-2.08,.03-2.86,.03-.75,.05-1.35,.07-1.81,.02-.41,.04-.63,.05-.63Z"/><path class="l" d="M47.44,198.37c.04-2.41,.95-4.79,2.52-6.62,.54-.62,1.27-1.23,2.09-1.11,1.08,.16,1.58,1.46,1.62,2.55,.06,1.84-.57,3.7-1.74,5.12-1.17,1.42-2.4,2.31-4.21,2.6"/><path class="l" d="M49.84,211.64c-.14-2.85,.78-7.26,2.45-9.58,.26-.37,.56-.73,.94-.96,.39-.23,.89-.32,1.29-.12,.58,.29,.76,1.02,.82,1.66,.38,4.1-1.8,8.34-5.36,10.41"/><path class="l" d="M52.94,223.01c.28-2.84,1.34-5.6,3.03-7.9,.4-.54,.89-1.09,1.55-1.18,1.01-.13,1.81,.9,2.03,1.89,.45,2.04-.56,4.11-1.73,5.84-1.27,1.86-3.89,3.86-3.89,3.86"/><path class="l" d="M55.74,231c.51-2.22,1.32-4.42,2.73-6.22,.31-.39,.65-.77,1.1-.98,.45-.21,1.02-.23,1.41,.08,.63,.49,.49,1.47,.22,2.23-.92,2.6-2.42,4.82-4.68,6.4"/><path class="l" d="M54.49,227.79c-2.55-1.67-5.26-3.11-8.08-4.29-.44-.18-.98-.35-1.36-.08-.3,.21-.39,.64-.3,1,.09,.36,.32,.66,.56,.95,2.36,2.81,6.3,4.34,9.96,4.13"/><path class="l" d="M51.37,217.22c-2.22-1.44-4.43-2.89-6.65-4.33-.63-.41-1.28-.83-2.02-.99-.74-.15-1.6,.02-2.06,.62-.46,.6-.4,1.47-.05,2.14,.35,.67,.95,1.17,1.54,1.63,1.42,1.1,2.96,2.09,4.67,2.61,1.72,.52,3.2,.75,4.81-.04"/><path class="l" d="M48.3,205.19c-1.81-2.49-4.3-4.49-7.12-5.72-.47-.21-.98-.4-1.49-.34-1.02,.12-1.7,1.22-1.71,2.24-.02,1.16,.59,2.26,1.44,3.04,.85,.78,1.92,1.28,3.01,1.67,2,.72,4.12,1.13,6.25,1.19"/><path class="l" d="M46.88,194.04c-1.54-3.25-4.2-5.51-7.11-7.61-.61-.44-1.41-.87-2.09-.53-.43,.21-.68,.7-.73,1.18-.05,.48,.08,.96,.24,1.42,1.4,4.06,5.46,7.06,9.76,7.21"/><path class="l" d="M46.52,188.23c-.72-1.69-1.44-3.39-1.83-5.19-.39-1.8-.43-3.71,.2-5.44,.27-.74,.68-1.46,1.3-1.94,.63-.48,1.5-.69,2.23-.39,.68,.28,1.13,.95,1.33,1.65,.19,.71,.16,1.45,.09,2.18-.31,3.48-1.36,7.56-3.32,9.13"/></g><g><path class="p" d="M96.42,177.51s.03,.22,.05,.63c.02,.46,.04,1.06,.07,1.81,.03,.79,.05,1.75,.03,2.86-.01,1.12,0,2.39-.07,3.79-.08,2.81-.32,6.15-.72,9.85-.43,3.69-1.05,7.74-1.92,11.94-.89,4.2-1.95,8.16-3.04,11.71-1.12,3.55-2.24,6.71-3.3,9.31-.5,1.31-1.02,2.47-1.46,3.5-.43,1.03-.84,1.9-1.18,2.61-.33,.67-.59,1.21-.79,1.63-.19,.37-.29,.56-.3,.55-.01,0,.06-.21,.22-.59,.18-.42,.42-.98,.71-1.66,.32-.72,.7-1.6,1.11-2.64,.41-1.04,.92-2.2,1.4-3.52,1.01-2.62,2.1-5.77,3.19-9.32,1.06-3.55,2.11-7.5,3-11.68,.87-4.19,1.49-8.22,1.95-11.9,.43-3.68,.7-7.01,.82-9.82,.09-1.4,.1-2.67,.14-3.78,.04-1.11,.05-2.07,.04-2.86,0-.75,.02-1.35,.02-1.81,0-.41,.02-.63,.04-.63Z"/><path class="p" d="M95.31,197.93c-.04-2.41-.95-4.8-2.52-6.62-.54-.62-1.27-1.23-2.09-1.11-1.08,.16-1.58,1.46-1.62,2.55-.06,1.84,.57,3.7,1.74,5.12,1.17,1.42,2.4,2.31,4.21,2.6"/><path class="p" d="M92.92,211.2c.14-2.85-.78-7.26-2.45-9.58-.26-.37-.56-.73-.94-.96-.39-.23-.89-.32-1.29-.12-.58,.29-.76,1.02-.82,1.66-.38,4.1,1.8,8.34,5.36,10.41"/><path class="p" d="M89.82,222.57c-.28-2.84-1.34-5.6-3.03-7.9-.4-.54-.89-1.09-1.55-1.18-1.01-.13-1.81,.9-2.03,1.89-.45,2.04,.56,4.11,1.73,5.84,1.27,1.86,3.89,3.86,3.89,3.86"/><path class="p" d="M87.02,230.56c-.51-2.22-1.32-4.42-2.73-6.22-.31-.39-.65-.77-1.1-.98-.45-.21-1.02-.23-1.41,.08-.63,.49-.49,1.47-.22,2.23,.92,2.6,2.42,4.82,4.68,6.4"/><path class="p" d="M88.26,227.35c2.55-1.67,5.26-3.11,8.08-4.29,.44-.18,.98-.35,1.36-.08,.3,.21,.39,.64,.3,1-.09,.36-.32,.66-.56,.95-2.36,2.81-6.3,4.34-9.96,4.13"/><path class="p" d="M91.39,216.79c2.22-1.44,4.43-2.89,6.65-4.33,.63-.41,1.28-.83,2.02-.99,.74-.15,1.6,.02,2.06,.62,.46,.6,.4,1.47,.05,2.14-.35,.67-.95,1.17-1.54,1.63-1.42,1.1-2.96,2.09-4.67,2.61-1.72,.52-3.2,.75-4.81-.04"/><path class="p" d="M94.46,204.75c1.81-2.49,4.3-4.49,7.12-5.72,.47-.21,.98-.4,1.49-.34,1.02,.12,1.7,1.22,1.71,2.24,.02,1.16-.59,2.26-1.44,3.04-.85,.78-1.92,1.28-3.01,1.67-2,.72-4.12,1.13-6.25,1.19"/><path class="p" d="M95.88,193.6c1.54-3.25,4.2-5.51,7.11-7.61,.61-.44,1.41-.87,2.09-.53,.43,.21,.68,.7,.73,1.18,.05,.48-.08,.96-.24,1.42-1.4,4.06-5.46,7.06-9.76,7.21"/><path class="p" d="M96.23,187.8c.72-1.69,1.44-3.39,1.83-5.19,.39-1.8,.43-3.71-.2-5.44-.27-.74-.68-1.46-1.3-1.94-.63-.48-1.5-.69-2.23-.39-.68,.28-1.13,.95-1.33,1.65-.19,.71-.16,1.45-.09,2.18,.31,3.48,1.36,7.56,3.32,9.13"/></g><path class="p" d="M37.87,237.72v8.38c0,1.82,1.48,3.3,3.3,3.3h57.36c1.82,0,3.3-1.48,3.3-3.3v-8.38H37.87Z"/><polygon class="l" points="42.85 249.4 43.32 252.07 96.25 255.84 97.59 249.4 42.85 249.4"/></g></g><g id="b"><path class="q" d="M361.44,289.39c0,.12-79.81,.21-178.23,.21s-178.25-.09-178.25-.21,79.79-.21,178.25-.21,178.23,.09,178.23,.21Z"/></g><g id="c"><g><g><path class="i" d="M304.05,147.31l-6.19-2.77,36.9-46.47,6.03,1.67c.9,.25,1.7,.76,2.31,1.47l5.99,7.06c.86,1.02,.74,2.54-.28,3.4l-41.42,35.16c-.93,.79-2.22,.97-3.33,.47Z"/><path class="i" d="M345.93,144.04l-6.7,5.69c-.75,.64-1.78,.82-2.7,.48l-5.02-1.84c-.63-.23-1.15-.69-1.47-1.28l-27.45-51.74,6.19,1.8c.8,.23,1.51,.69,2.05,1.33l35.42,41.73c.97,1.15,.83,2.87-.31,3.84Z"/></g><g class="o"><path d="M304.05,147.31l-6.19-2.77,36.9-46.47,6.03,1.67c.9,.25,1.7,.76,2.31,1.47l5.99,7.06c.86,1.02,.74,2.54-.28,3.4l-41.42,35.16c-.93,.79-2.22,.97-3.33,.47Z"/><path d="M345.93,144.04l-6.7,5.69c-.75,.64-1.78,.82-2.7,.48l-5.02-1.84c-.63-.23-1.15-.69-1.47-1.28l-27.45-51.74,6.19,1.8c.8,.23,1.51,.69,2.05,1.33l35.42,41.73c.97,1.15,.83,2.87-.31,3.84Z"/></g><g><rect class="i" x="309.97" y="92.01" width="13.11" height="58.73" rx="2.29" ry="2.29" transform="translate(204.23 -198.48) rotate(49.68)"/><path class="i" d="M312.26,92.01h8.86c1.08,0,1.95,.88,1.95,1.95v54.49c0,1.26-1.03,2.29-2.29,2.29h-8.52c-1.26,0-2.29-1.03-2.29-2.29v-54.15c0-1.26,1.03-2.29,2.29-2.29Z" transform="translate(-3.34 233.67) rotate(-40.32)"/></g><path class="g" d="M305.73,124.01c.08,.09-2.66,2.55-6.1,5.5-3.45,2.95-6.3,5.27-6.38,5.18s2.66-2.55,6.1-5.5c3.45-2.95,6.3-5.27,6.38-5.18Z"/><path class="g" d="M333.49,100.25c.07,.09-3,2.81-6.86,6.08-3.86,3.27-7.05,5.85-7.13,5.76s3-2.81,6.86-6.08c3.86-3.27,7.05-5.85,7.13-5.76Z"/><path class="g" d="M307.08,117.4c-.09,.07-2.47-2.82-5.31-6.46-2.84-3.64-5.08-6.64-4.98-6.71s2.47,2.82,5.32,6.46c2.84,3.64,5.08,6.64,4.98,6.71Z"/><path class="g" d="M328.32,141.56c-.09,.08-2.55-2.45-5.49-5.65-2.95-3.2-5.27-5.86-5.19-5.94,.09-.08,2.55,2.45,5.5,5.65,2.95,3.2,5.27,5.86,5.19,5.94Z"/></g></g><g id="d"><g><path class="n" d="M11.5,138.55l-1.28-4.77,34.54,6.89,30.52-42.92,3.72,6.93c.58,1.07,.57,2.36-.01,3.43l-26.49,48.51c-1.98,3.63-6.57,4.92-10.15,2.84l-26.74-15.53c-2.03-1.18-3.51-3.11-4.12-5.38Z"/><g class="o"><path d="M11.5,138.55l-1.28-4.77,34.54,6.89,30.52-42.92,3.72,6.93c.58,1.07,.57,2.36-.01,3.43l-26.49,48.51c-1.98,3.63-6.57,4.92-10.15,2.84l-26.74-15.53c-2.03-1.18-3.51-3.11-4.12-5.38Z"/></g><path class="n" d="M10.32,131.51l4.98-8.81c.71-1.26,2.29-1.75,3.59-1.11l19.99,9.79c1.33,.65,2.93,.13,3.62-1.17l19.8-37.2c.74-1.39,2.51-1.87,3.85-1.05l8.06,4.95c1.24,.76,1.67,2.37,.97,3.64l-25.88,47.4c-1.74,3.19-5.73,4.39-8.94,2.68l-28.94-15.35c-1.36-.72-1.86-2.42-1.1-3.76Z"/><path class="g" d="M37.51,133.63s-.39-.13-1.07-.42c-.74-.34-1.7-.77-2.85-1.29-2.39-1.11-5.69-2.67-9.32-4.41-.91-.44-1.79-.86-2.65-1.28-.43-.21-.85-.41-1.26-.61-.4-.21-.79-.34-1.2-.37-.82-.08-1.61,.22-2.15,.7-.56,.47-.82,1.16-1.17,1.73-.62,1.09-1.15,2-1.55,2.71-.37,.64-.59,.98-.62,.97s.15-.39,.48-1.05c.38-.73,.86-1.66,1.43-2.78,.15-.29,.32-.6,.48-.92,.17-.33,.41-.66,.72-.93,.6-.55,1.49-.9,2.42-.83,.46,.03,.94,.19,1.35,.39,.41,.2,.83,.4,1.26,.6,.86,.41,1.74,.83,2.65,1.27,3.63,1.74,6.9,3.34,9.27,4.52,1.12,.57,2.06,1.04,2.79,1.41,.65,.34,1.01,.54,1,.57Z"/><path class="g" d="M44.83,132.02c-.1-.05,4.1-8.35,9.38-18.54,5.28-10.19,9.65-18.4,9.75-18.35,.1,.05-4.1,8.35-9.38,18.54-5.28,10.18-9.65,18.4-9.75,18.35Z"/></g></g><g id="e"/><g id="f"><g><g><path class="k" d="M84.16,192.5s-6.88-6.46-9.53-8.18-8.58-4.08-10.8-4.29c-2.22-.21-12.59,2.79-12.59,2.79,0,0-15.31-1.36-17.88,.43-2.57,1.79-2.36,3.65-1.29,5.01,1.07,1.36,5.22,.93,9.8,1,4.58,.07,5.79,.5,5.79,.5l-6.65,7.08,17.24,4.79,10.51-.39,3.79,4.77,11.6-13.5Z"/><path class="k" d="M31.69,176.51l.42,15.25,.74,1.9,7.52,9.17,18.35-1.21-14.62-5.7-5.2-3.95-2.01-6.52s.62-10.05-5.2-8.94Z"/><path class="k" d="M32.98,194h-4.47s-5.83-9.59-11.17-6.33l1.23,1.9s-2.41-1.09-3.93,.93l14.71,12.91h.68l15.68-1.01-12.72-8.39Z"/><path class="m" d="M35.64,196.92s-.47,.02-1.27,.05c-.78,.04-1.94,.1-3.1,.62l-.15,.07-.1-.14c-.45-.64-1.01-1.33-1.59-2.05-1.19-1.47-2.27-2.8-3.17-3.92-.81-1.01-1.3-1.63-1.26-1.67,.04-.04,.62,.52,1.49,1.48,.87,.96,2.03,2.31,3.27,3.85,.58,.72,1.13,1.41,1.59,2.1l-.25-.07c1.29-.55,2.47-.53,3.27-.51,.81,.04,1.27,.14,1.26,.19Z"/><path class="m" d="M67.44,188.05c.04,.14-2.48,.65-5.17,2.19-2.7,1.53-4.43,3.43-4.53,3.33-.04-.03,.35-.55,1.09-1.27,.74-.72,1.86-1.64,3.23-2.42,1.38-.78,2.73-1.28,3.73-1.54,1-.27,1.64-.33,1.65-.28Z"/><path class="m" d="M52.77,184.1c.08,.09-.93,1.18-2.11,2.59-1.18,1.4-2.08,2.59-2.18,2.53-.09-.06,.66-1.37,1.86-2.8,1.19-1.43,2.35-2.4,2.43-2.32Z"/><path class="m" d="M37.45,199.05s-.13-.11-.35-.35c-.25-.27-.56-.62-.95-1.06-.42-.48-.91-1.04-1.48-1.69-.29-.33-.59-.69-.92-1.06-.32-.37-.69-.76-.99-1.24-.62-.94-1.04-2.16-1.04-3.49-.03-1.3-.05-2.69-.08-4.14-.05-2.93-.1-6.14-.16-9.51v-.19l.17-.02c.15-.02,.32-.04,.49-.07,1.08-.12,2.24,.26,2.97,1.05,.73,.78,1.14,1.74,1.42,2.68,.53,1.9,.62,3.77,.55,5.5v-.07c.74,2.47,1.4,4.67,1.96,6.53l-.05-.07c1.58,1.23,2.85,2.23,3.78,2.95,.41,.33,.74,.6,1,.81,.23,.19,.34,.29,.33,.3,0,.01-.14-.07-.38-.24-.27-.2-.62-.44-1.05-.75-.95-.7-2.25-1.66-3.86-2.85l-.04-.03v-.04c-.6-1.85-1.29-4.04-2.07-6.5v-.07c.04-1.68-.06-3.54-.58-5.36-.27-.9-.67-1.81-1.33-2.5-.66-.7-1.64-1.03-2.63-.92l-.45,.06,.17-.21c.04,3.38,.08,6.59,.12,9.51,.12,2.9-.33,5.66,.99,7.48,.28,.46,.63,.84,.95,1.23,.32,.38,.61,.74,.89,1.08,.55,.67,1.02,1.24,1.42,1.73l.89,1.11c.2,.26,.3,.39,.29,.4Z"/><path class="m" d="M30.02,203.4s-.31,.04-.78-.22c-.47-.25-1.06-.73-1.73-1.38-1.33-1.3-2.95-3.3-4.61-5.57-1.66-2.28-3.07-4.41-4.06-5.97-.49-.78-.88-1.42-1.14-1.87s-.39-.7-.36-.72c.02-.02,.2,.21,.5,.63,.35,.5,.77,1.1,1.25,1.79,1.05,1.52,2.5,3.62,4.15,5.89,1.66,2.27,3.23,4.28,4.48,5.61,.63,.67,1.18,1.17,1.6,1.45,.42,.29,.7,.32,.7,.36Z"/><path class="k" d="M56.8,193.56l-8.1-.55-2.42-6.64-.45-4.46c-.22-2.18-2.04-3.9-4.23-3.87h-.08l.45,10.94,1.66,6.79,6.58,3.88h8.05l-1.47-6.1Z"/><g><path class="k" d="M56.8,193.56l-8.1-.55-2.42-6.64-.45-4.46c-.22-2.18-2.04-3.9-4.23-3.87h-.08l.45,10.94,1.66,6.79,6.58,3.88"/><path class="m" d="M50.22,199.66s-.17-.07-.48-.23c-.34-.19-.78-.43-1.32-.74-1.19-.68-2.83-1.63-4.86-2.79l-.05-.03-.02-.06c-.49-1.95-1.07-4.25-1.7-6.78v-.04c-.15-3.29-.31-7.01-.48-10.94v-.21h.2c.07-.01,.16,0,.24,0,2.04,.01,3.77,1.6,4.17,3.42,.12,.46,.14,.91,.18,1.34,.04,.43,.08,.86,.13,1.29,.08,.85,.16,1.67,.24,2.48v-.05c.88,2.47,1.68,4.71,2.37,6.65l-.13-.1c2.46,.19,4.47,.35,5.92,.47,.66,.06,1.2,.11,1.61,.15,.37,.04,.56,.07,.56,.08,0,.02-.2,.02-.56,0-.41-.02-.95-.04-1.61-.07-1.45-.08-3.47-.19-5.93-.33h-.1l-.04-.1c-.72-1.93-1.54-4.16-2.46-6.62v-.05c-.09-.8-.18-1.63-.27-2.47-.04-.42-.09-.85-.13-1.29-.05-.44-.07-.87-.18-1.28-.37-1.65-1.95-3.09-3.78-3.1-.07,0-.15,0-.22,0l.2-.22c.16,3.93,.3,7.65,.43,10.94v-.04c.6,2.54,1.15,4.85,1.62,6.8l-.07-.09c1.99,1.21,3.62,2.19,4.79,2.9,.53,.33,.95,.6,1.28,.8,.29,.19,.44,.29,.43,.3Z"/></g></g><g><path class="q" d="M230.29,64.51c-6.94-26.46-13.35-57.25-52.03-54.48,0,0-23.84,4.59-35.16,22.18-6.66,10.35-12.43,54.96-13.58,90.19h0v.02c-.05,1.43,.55,11.44,.51,12.84l102.4,8.52h18.45s-1.16-18.69-6.72-36.82c-5.41-17.64-11.41-33.09-13.87-42.45Z"/><path class="k" d="M173.11,20.12l2.42-2.31,26.15,10.54c3.78,.21,6.78,3.28,6.89,7.07l-.23,85.21c.03,5.78-1.12,10.78-4.61,15.39l-3.67,4.85c-8.37,11.06-25.6,10.15-32.23-2.04-.46-.85-.79-1.6-.92-2.2-.14-.76-.35-1.26-.39-1.91-.78-6.86-.82-12.8-.82-12.8-.47-7.53-.62-10.62-.62-10.54,0,0-16.02-1.84-20.35-22.4-2.15-10.23-1.75-24.29-1.14-38.14,.84-19.16,14.13-30.74,29.53-30.72Z"/><path class="q" d="M179.84,64.51c.02,1.41,1.23,2.55,2.7,2.55,1.47,0,2.64-1.13,2.62-2.53-.02-1.41-1.23-2.55-2.69-2.55-1.47,0-2.64,1.13-2.62,2.54Z"/><path class="q" d="M152.53,65.22c.02,1.41,1.23,2.55,2.7,2.55,1.47,0,2.64-1.13,2.62-2.53-.02-1.41-1.23-2.55-2.69-2.55-1.47,0-2.64,1.13-2.62,2.53Z"/><path class="q" d="M146.31,56.31c.35,.33,2.29-1.26,5.15-1.4,2.86-.18,5.03,1.19,5.32,.82,.15-.16-.22-.77-1.17-1.39-.93-.62-2.5-1.18-4.28-1.09-1.78,.1-3.25,.83-4.07,1.54-.85,.72-1.11,1.36-.94,1.51Z"/><path class="q" d="M174.68,55.34c.38,.29,2.15-1.49,4.98-1.92,2.82-.47,5.12,.67,5.38,.27,.13-.18-.3-.75-1.31-1.26-.99-.52-2.61-.92-4.37-.64-1.76,.28-3.14,1.16-3.89,1.96-.76,.8-.97,1.47-.78,1.6Z"/><path class="q" d="M165.34,77.43c0-.16-1.79-.38-4.69-.61-.73-.04-1.43-.15-1.58-.64-.2-.52,.07-1.32,.38-2.19,.6-1.8,1.22-3.69,1.88-5.67,2.6-8.07,4.45-14.69,4.12-14.79-.33-.1-2.7,6.36-5.3,14.42-.62,1.99-1.22,3.88-1.79,5.7-.24,.84-.66,1.81-.24,2.89,.22,.54,.78,.9,1.25,1.01,.48,.12,.89,.11,1.25,.11,2.91,.01,4.71-.07,4.71-.23Z"/><path class="m" d="M165.07,111.38s13.99,.2,27.39-8.8c0,0-6.26,14.7-27.1,13.8l-.29-5Z"/><path class="m" d="M174.28,83.25c-.8-.97-2.09-1.51-3.34-1.58-1.8-.1-3.06,.12-4.03,1.54-.45,.78-.41,1.98-.2,2.31,.21,.33,.05,.34,.37,.57,1.16,.84,2.5,1.38,3.89,1.7,1.38,.32,2.98-.01,3.7-1.14,.64-1,.41-2.43-.4-3.4Z"/><path class="q" d="M173.99,42.2c.37,.73,2.83-.02,5.86-.07,3.02-.12,5.56,.48,5.85-.27,.12-.36-.4-1.02-1.48-1.61-1.07-.6-2.71-1.07-4.52-1.02-1.81,.05-3.39,.62-4.4,1.28-1.01,.66-1.47,1.35-1.3,1.7Z"/><path class="q" d="M146.72,51.14c.54,.62,2.47-.15,4.84-.3,2.36-.23,4.4,.22,4.83-.49,.19-.34-.16-.97-1.07-1.55-.89-.57-2.37-1-3.99-.87-1.63,.13-3.01,.79-3.8,1.5-.8,.71-1.05,1.39-.81,1.7Z"/><path class="q" d="M208.05,71.78s-11.01,2.66-26.63-30.98c-5.32-11.45-15.65-22.99-15.65-22.99l9.69-1.4s28.89,8.14,29.38,8.5c.49,.36,7.29,14.94,7.29,14.94l-4.08,31.93Z"/><path class="k" d="M204.44,70.44c-.07-1.54,1.53-5.27,3.04-5.59,4.04-.84,11.39-.88,11.98,9.45,.8,14.13-13.55,12.02-13.59,11.61-.04-.32-1.17-10.15-1.42-15.48Z"/><path class="m" d="M209.88,80.32c.06-.05,.26,.16,.68,.33,.42,.16,1.12,.25,1.84-.07,1.46-.63,2.58-3.07,2.51-5.62-.04-1.29-.38-2.5-.89-3.48-.49-1.01-1.2-1.69-1.96-1.78-.76-.13-1.26,.35-1.41,.76-.17,.41-.06,.68-.13,.71-.04,.04-.32-.22-.24-.81,.04-.28,.19-.63,.51-.92,.32-.29,.81-.46,1.34-.44,1.09,.01,2.13,.96,2.69,2.04,.62,1.09,1.04,2.44,1.08,3.89,.07,2.85-1.23,5.6-3.24,6.3-.98,.31-1.83,.06-2.27-.25-.46-.32-.55-.64-.5-.66Z"/><path class="q" d="M176.11,83.82c-.04,.36-2.46,.31-5.32,.86-2.87,.53-5.1,1.45-5.27,1.13-.18-.28,1.94-1.8,5.04-2.37,3.09-.59,5.62,.05,5.56,.37Z"/></g><g><path class="k" d="M286.51,193.3s11.83-10.14,15.26-10.41c3.43-.27,12.45,1.41,12.45,1.41,0,0,5.7,.05,8.53-.3,4.26-.53,7.18-.09,8.89,.43,.85,.26,1.92,2.38-.59,3.83-1.06,.61-11.41,1.31-11.41,1.31l25.89,7.39-3.36,2.77c-.45,.37-1,.58-1.58,.6l-37.27,1.32-1.71,4.17-15.09-12.53Z"/><path class="k" d="M314.76,193.31h12.09s4.24-5.63,5.77-7.98c1.34-2.05,2.96-2.65,4.37-2.17,.37,.13,.67,.4,.86,.74h0c.28,.5,.29,1.11,.02,1.62l-5.32,9.92,2.79-.94s5.58-5.46,6.66-6.73c1.08-1.26,5.05-6.59,8.57-2.71l-4.87,5.41,4.87-3.43s3.88-3.34,5.95,.63l-14.49,12.22"/><path class="m" d="M302.18,188.3s.16-.07,.48-.17c.32-.09,.79-.27,1.44-.33,1.27-.21,3.2-.18,5.43,.56,1.11,.38,2.29,.9,3.49,1.6,.6,.35,1.2,.74,1.81,1.16,.3,.21,.61,.43,.92,.65,.29,.21,.65,.49,.89,.61,3.06,.24,6.56,.44,10.23,.7l-.17,.07c1.13-1.34,2.25-2.81,3.33-4.34,.42-.59,.82-1.2,1.22-1.79,.39-.6,.76-1.21,1.19-1.79,.43-.57,.88-1.12,1.42-1.58,.26-.24,.56-.44,.88-.61,.33-.15,.65-.31,1.11-.25h-.07c.64-.07,1.37,0,1.91,.45,.54,.47,.69,1.17,.63,1.81v.03l-.02,.04c-2.3,4.13-4.31,7.72-5.86,10.51v-.03c-.34,1.19-1.3,1.89-2.12,2.26-.85,.37-1.65,.45-2.28,.48-.63,.03-1.12,0-1.44-.01-.33-.02-.5-.04-.5-.05,0-.01,.17-.02,.5-.03,.33,0,.81,0,1.43-.06,.62-.06,1.39-.16,2.2-.53,.78-.37,1.66-1.05,1.96-2.13v-.02h.01c1.53-2.82,3.49-6.43,5.76-10.58l-.02,.07c.04-.52-.1-1.12-.51-1.46-.41-.34-1.02-.42-1.61-.36h-.07c-.21-.03-.56,.07-.82,.21-.28,.15-.55,.33-.8,.56-.5,.43-.94,.96-1.36,1.52-.8,1.12-1.54,2.39-2.4,3.57-1.09,1.54-2.21,3.01-3.36,4.36l-.07,.08h-.1c-3.69-.28-7.13-.49-10.28-.77-.46-.22-.69-.45-1.02-.68l-.91-.66c-.6-.43-1.19-.81-1.78-1.17-1.17-.7-2.33-1.24-3.41-1.62-2.18-.77-4.07-.84-5.32-.68-.64,.04-1.11,.2-1.44,.26-.33,.07-.5,.11-.5,.09Z"/><path class="m" d="M350.58,185.06s-.15,.26-.47,.66c-.32,.41-.8,.99-1.4,1.71-1.2,1.43-2.88,3.39-4.75,5.53-1.9,2.11-3.49,4.17-4.88,5.45-.69,.64-1.29,1.11-1.74,1.39-.45,.27-.74,.36-.74,.34-.02-.03,.24-.17,.65-.48,.41-.31,.98-.8,1.63-1.46,1.32-1.31,2.85-3.38,4.76-5.5,1.88-2.15,3.59-4.08,4.85-5.46,.63-.69,1.14-1.25,1.51-1.62,.36-.38,.57-.58,.59-.56Z"/><path class="m" d="M343.95,185.63s-.52,.7-1.47,1.73c-.95,1.03-2.27,2.43-3.76,3.96-1.22,1.25-2.35,2.4-3.26,3.3l-.03,.03h-.04c-1.8,.58-2.97,.88-2.99,.78,0-.02,.27-.13,.78-.32,.61-.22,1.32-.48,2.11-.77l-.07,.04c.87-.93,1.98-2.1,3.2-3.36,1.48-1.53,2.85-2.9,3.85-3.88,1-.98,1.64-1.56,1.68-1.52Z"/></g><g><path class="j" d="M246.4,133.16s17.38,4.48,19.08,28.09c.97,13.45-6.19,56.67-6.19,56.67l25.66-26.35,22.87,15.91s-31.11,38.04-38.29,43.76c-7.18,5.72-18.61,14.92-22.34,14.17-3.72-.75-3.72-17.9-3.72-17.9v-94.72l2.93-19.63Z"/><path class="j" d="M121.49,136.05s-15.46,5.08-14.83,35.28,.14,40.36,.14,40.36l-23.17-24.52-19.24,21.23s21.53,31.99,36.6,47.53c14.2,14.65,26.82,1.93,30.92-8.37,3.32-8.34,5.99-40.06,5.99-40.06l-16.41-71.45Z"/><g class="o"><path d="M247.75,187.56c1.39-8.83,1.77-18.47-2.27-26.57-9.91,24.49-9.46,52.6-5.92,78.54l7.85,22.44c4.95-15.04,.24-31.06,.35-46.78,.06-8.93-1.42-18.8-.02-27.63Z"/></g><path class="j" d="M118.27,155.28s10.33,69.5,12.33,75.59c2,6.09,2,24.02,2,24.02,0,0-10.85,20.19-11.51,34.23l130.61,.27-8.49-57.67c-.29-2.15-.31-8.78-.19-10.95,.55-10.16,1.33-31.95,4.24-45.33,3.38-15.57-1.17-42.21-1.17-42.21l-39.01-9.61c-9.23,13.27-32.27,13.45-41.36,0l-44.03,12.45-3.42,19.23Z"/><path class="q" d="M245.78,228.95s.12-.24,.39-.62c.27-.38,.68-.92,1.2-1.58,1.05-1.31,2.53-3.11,4.48-4.8,1.95-1.7,4-2.86,5.53-3.55,.77-.34,1.4-.6,1.85-.75,.44-.15,.69-.23,.7-.2,.09,.16-3.96,1.46-7.81,4.81-1.92,1.66-3.43,3.42-4.53,4.67-1.09,1.27-1.77,2.05-1.82,2.01Z"/><path class="q" d="M124.84,227.48c-.08,.02-.38-1.41-1.37-3.54-.97-2.11-2.75-4.89-5.47-7.2-2.72-2.31-5.75-3.61-7.99-4.22-2.25-.63-3.72-.69-3.71-.77,0-.03,.37-.03,1.03,.02,.66,.05,1.61,.18,2.76,.47,2.29,.55,5.41,1.83,8.19,4.19,2.78,2.36,4.55,5.22,5.47,7.39,.47,1.09,.75,2.01,.91,2.65,.16,.64,.21,1,.19,1.01Z"/><path class="q" d="M125.67,189.82s-.23-.09-.59-.32c-.37-.23-.88-.58-1.5-1.05-1.24-.92-2.86-2.32-4.49-4.03-1.62-1.71-2.95-3.39-3.87-4.62-.92-1.24-1.45-2.03-1.4-2.06,.05-.04,.66,.7,1.64,1.88,.98,1.18,2.33,2.82,3.94,4.52,1.61,1.7,3.18,3.11,4.37,4.09,1.18,.98,1.94,1.55,1.91,1.6Z"/><path class="q" d="M216.84,227.44s-.03,.06-.11,.16c-.09,.12-.21,.27-.34,.44-.32,.38-.74,.97-1.38,1.67-1.22,1.43-3.11,3.39-5.65,5.59-2.54,2.21-5.76,4.59-9.53,6.94-3.77,2.36-8.08,4.66-12.7,6.87-4.62,2.21-9.09,4.16-13.13,5.98-4.04,1.81-7.66,3.49-10.66,5-2.99,1.5-5.38,2.8-7,3.73-.82,.45-1.44,.84-1.87,1.08-.2,.11-.36,.2-.49,.28-.11,.06-.17,.09-.17,.08,0,0,.05-.05,.15-.12l.47-.31c.42-.26,1.02-.67,1.83-1.15,1.6-.98,3.96-2.32,6.95-3.86,2.98-1.54,6.59-3.25,10.63-5.08,4.04-1.84,8.5-3.8,13.11-6.01,4.61-2.21,8.91-4.49,12.67-6.82,3.76-2.32,6.99-4.67,9.54-6.84,2.55-2.16,4.47-4.08,5.73-5.47,.65-.68,1.1-1.25,1.43-1.61,.15-.17,.27-.3,.38-.42,.09-.09,.13-.14,.14-.13Z"/><path class="q" d="M121.4,288.02s0-.06,0-.17c0-.13,.01-.3,.02-.5,.03-.47,.07-1.12,.12-1.96,.23-1.7,.59-4.2,1.47-7.26,1.69-6.14,5-14.58,10.05-23.97l-.02,.11c-.52-7.56-1.3-16.01-2.21-24.89-1.72-16.77-3.53-31.93-4.85-42.9-.66-5.47-1.2-9.9-1.58-12.99-.18-1.52-.32-2.7-.42-3.53l-.1-.92c-.02-.21-.03-.31-.02-.32,0,0,.03,.1,.06,.31,.03,.23,.08,.53,.14,.91,.12,.83,.28,2.01,.5,3.52,.41,3.09,.99,7.51,1.71,12.97,1.39,10.96,3.25,26.12,4.97,42.89,.9,8.89,1.68,17.34,2.17,24.91v.06l-.02,.05c-5.06,9.34-8.42,17.75-10.17,23.85-.91,3.04-1.3,5.52-1.57,7.22l-.18,1.95-.05,.5c-.01,.11-.02,.17-.03,.17Z"/><path class="q" d="M248.88,156.91s.01,.12,.02,.34c0,.25,0,.58,0,1.01-.01,.89,.02,2.2-.07,3.89-.09,3.38-.44,8.25-1.04,14.26-.59,6.01-1.46,13.14-2.35,21.07-.88,7.93-1.76,16.66-2.04,25.86-.3,9.2,.6,17.95,1.78,25.83,1.16,7.89,2.53,14.95,3.59,20.89,1.08,5.94,1.88,10.76,2.32,14.11,.24,1.67,.38,2.98,.48,3.86,.04,.43,.08,.76,.1,1.01,.02,.23,.03,.34,.02,.34,0,0-.03-.11-.06-.34-.04-.24-.08-.58-.15-1-.12-.88-.29-2.18-.55-3.85-.5-3.34-1.34-8.15-2.45-14.08-1.1-5.93-2.5-12.99-3.68-20.89-1.2-7.89-2.12-16.67-1.82-25.9,.28-9.22,1.17-17.96,2.07-25.89,.9-7.93,1.81-15.06,2.43-21.06,.64-6,1.03-10.87,1.17-14.24,.11-1.68,.11-2.99,.15-3.88,.02-.43,.03-.76,.04-1.01,.01-.23,.02-.34,.03-.34Z"/><g class="o"><path d="M124.25,171.79c-2.33,21.84,.46,45.12,7.57,65.9l-7.57-65.9Z"/></g><g class="o"><path d="M205.04,248.79c-9.9,9.09-19.83,16.86-32,21.19,9.18,.78,18.44-2.73,25.53-8.6,7.1-5.87,12.14-12.06,15.39-20.68l-8.92,8.1Z"/></g><path class="q" d="M193.77,258.81c-.08-.09,6.08-5.73,13.75-12.61,7.67-6.88,13.95-12.39,14.03-12.3,.08,.09-6.08,5.73-13.75,12.61-7.67,6.88-13.95,12.39-14.03,12.3Z"/></g><path class="i" d="M215.66,88.25c0,2.79-2.26,5.05-5.05,5.05s-5.05-2.26-5.05-5.05,2.26-5.05,5.05-5.05,5.05,2.26,5.05,5.05Z"/><g><path class="q" d="M245.72,154.62c-1.49-12.34-2.98-24.69-4.47-37.03l-31.95-9.64c-.62,22.05-4.48,46.81-10.02,68.16,11.77,3.82,24.36,5.13,36.66,3.82,.54-5.96,1.09-11.93,1.63-17.89,.8,4.5,1.6,8.99,2.4,13.48,3.35-1.88,5.33-5.62,6-9.41,.67-3.79,.21-7.67-.25-11.49Z"/><path class="i" d="M220.72,180.02s.02-.16,.09-.47c.07-.32,.18-.77,.31-1.36,.29-1.21,.7-2.96,1.23-5.22,1.04-4.53,2.59-11.09,4.1-19.27,1.52-8.17,2.99-17.99,3.48-28.97,.48-10.96-.19-23.14-3.22-35.46-2.99-12.32-8.22-23.46-14.81-32.24-.83-1.09-1.63-2.19-2.52-3.18-.88-1.01-1.7-2.04-2.61-2.97-.45-.47-.89-.94-1.33-1.41-.45-.45-.91-.9-1.35-1.34-.88-.9-1.81-1.73-2.69-2.57-3.59-3.32-7.09-6.24-10.22-8.98-3.14-2.73-5.94-5.26-8.25-7.63-.59-.58-1.12-1.18-1.65-1.73-.54-.55-1.03-1.1-1.49-1.65-.46-.54-.91-1.05-1.33-1.54-.4-.51-.78-.99-1.14-1.45-.74-.9-1.3-1.77-1.82-2.51-.53-.73-.92-1.38-1.23-1.91l-.71-1.2c-.16-.27-.23-.42-.23-.42,0,0,.1,.13,.27,.39l.75,1.18c.32,.52,.72,1.16,1.26,1.88,.53,.72,1.1,1.59,1.84,2.48,.36,.45,.75,.93,1.15,1.44,.43,.48,.87,.99,1.34,1.52,.46,.54,.96,1.08,1.49,1.63,.54,.55,1.07,1.14,1.66,1.72,2.33,2.34,5.13,4.85,8.28,7.57,3.14,2.72,6.66,5.63,10.26,8.94,.89,.84,1.82,1.67,2.71,2.57,.45,.44,.91,.89,1.36,1.34,.44,.47,.89,.94,1.34,1.41,.92,.93,1.75,1.97,2.63,2.98,.9,1,1.7,2.1,2.54,3.2,6.64,8.81,11.91,20,14.91,32.37,3.05,12.37,3.71,24.59,3.2,35.58-.51,11.01-2.02,20.84-3.57,29.01-1.55,8.18-3.14,14.73-4.23,19.25-.55,2.26-1,4.01-1.31,5.2l-.35,1.35c-.08,.3-.13,.46-.13,.46Z"/></g></g></g></svg>