<?xml version="1.0" encoding="UTF-8"?><svg id="a" xmlns="http://www.w3.org/2000/svg" viewBox="0 0 714 403"><defs><style>.h{fill:#fff;}.i{fill:#3f6b71;}.j{fill:#ffa800;}.k{fill:#506d8f;}</style></defs><rect class="k" x="254.36" y="45.3" width="205.27" height="38.36" rx="19.18" ry="19.18"/><g><path class="h" d="M271.19,56.99h-1.33v2.9h-.91v-6.93h2.24c1.63,0,2.4,.9,2.4,2.03,0,1.05-.68,2.01-2.4,2.01Zm0-.75c1.03,0,1.47-.49,1.47-1.26s-.44-1.28-1.47-1.28h-1.33v2.55h1.33Z"/><path class="h" d="M276.96,54.34c1.01,0,1.71,.52,2.03,1.08v-.99h.92v5.45h-.92v-1.01c-.33,.59-1.03,1.1-2.04,1.1-1.45,0-2.58-1.14-2.58-2.83s1.12-2.8,2.59-2.8Zm.18,.79c-.99,0-1.84,.73-1.84,2.01s.85,2.04,1.84,2.04,1.85-.75,1.85-2.03-.86-2.02-1.85-2.02Z"/><path class="h" d="M282.34,59.89h-.91v-5.45h.91v.89c.31-.61,.9-.98,1.76-.98v.94h-.24c-.87,0-1.52,.39-1.52,1.65v2.96Z"/><path class="h" d="M287.39,54.34c1.01,0,1.71,.52,2.03,1.08v-.99h.92v5.45h-.92v-1.01c-.33,.59-1.03,1.1-2.04,1.1-1.45,0-2.58-1.14-2.58-2.83s1.12-2.8,2.59-2.8Zm.18,.79c-.99,0-1.84,.73-1.84,2.01s.85,2.04,1.84,2.04,1.85-.75,1.85-2.03-.86-2.02-1.85-2.02Z"/><path class="h" d="M296.84,54.34c1.35,0,2.24,.7,2.52,1.84h-.98c-.19-.66-.74-1.07-1.54-1.07-.99,0-1.73,.71-1.73,2.04s.74,2.06,1.73,2.06c.81,0,1.34-.39,1.54-1.07h.98c-.28,1.08-1.16,1.84-2.52,1.84-1.55,0-2.66-1.09-2.66-2.83s1.1-2.81,2.66-2.81Z"/><path class="h" d="M302.93,59.97c-1.54,0-2.72-1.09-2.72-2.83s1.21-2.81,2.76-2.81,2.76,1.08,2.76,2.81-1.24,2.83-2.8,2.83Zm0-.8c.94,0,1.87-.65,1.87-2.03s-.91-2.02-1.84-2.02-1.82,.65-1.82,2.02,.85,2.03,1.79,2.03Z"/><path class="h" d="M310.91,56.8c0-1.11-.61-1.68-1.52-1.68s-1.56,.58-1.56,1.75v3.01h-.91v-5.45h.91v.78c.36-.57,1.01-.88,1.75-.88,1.26,0,2.23,.78,2.23,2.34v3.21h-.9v-3.08Z"/><path class="h" d="M313.28,52.52h.91v2.7c.36-.58,1.03-.89,1.8-.89,1.21,0,2.18,.78,2.18,2.34v3.21h-.9v-3.08c0-1.11-.61-1.68-1.52-1.68s-1.56,.58-1.56,1.75v3.01h-.91v-7.36Z"/><path class="h" d="M322,59.97c-1.55,0-2.7-1.09-2.7-2.83s1.1-2.81,2.7-2.81,2.62,1.11,2.62,2.61c0,.2,0,.36-.03,.55h-4.36c.07,1.1,.85,1.71,1.77,1.71,.82,0,1.33-.42,1.53-1h.97c-.28,.99-1.15,1.77-2.51,1.77Zm-1.76-3.21h3.44c.01-1.06-.79-1.65-1.72-1.65-.89,0-1.62,.59-1.72,1.65Z"/><path class="h" d="M328.13,54.34c1.35,0,2.24,.7,2.52,1.84h-.98c-.19-.66-.74-1.07-1.54-1.07-.99,0-1.73,.71-1.73,2.04s.74,2.06,1.73,2.06c.81,0,1.34-.39,1.54-1.07h.98c-.28,1.08-1.16,1.84-2.52,1.84-1.55,0-2.66-1.09-2.66-2.83s1.1-2.81,2.66-2.81Z"/><path class="h" d="M334.21,59.97c-1.55,0-2.7-1.09-2.7-2.83s1.1-2.81,2.7-2.81,2.62,1.11,2.62,2.61c0,.2,0,.36-.03,.55h-4.36c.07,1.1,.85,1.71,1.77,1.71,.82,0,1.33-.42,1.53-1h.98c-.28,.99-1.15,1.77-2.51,1.77Zm-1.76-3.21h3.44c0-1.06-.79-1.65-1.72-1.65-.89,0-1.62,.59-1.72,1.65Z"/><path class="h" d="M338.92,59.89h-.91v-5.45h.91v.89c.31-.61,.9-.98,1.76-.98v.94h-.24c-.87,0-1.52,.39-1.52,1.65v2.96Z"/><path class="h" d="M346.63,54.34c1.01,0,1.71,.52,2.03,1.08v-.99h.92v5.45h-.92v-1.01c-.33,.59-1.03,1.1-2.04,1.1-1.45,0-2.58-1.14-2.58-2.83s1.12-2.8,2.59-2.8Zm.18,.79c-.99,0-1.84,.73-1.84,2.01s.85,2.04,1.84,2.04,1.85-.75,1.85-2.03-.86-2.02-1.85-2.02Z"/><path class="h" d="M355.68,59.97c-1.27,0-2.17-.7-2.23-1.69h.94c.05,.53,.52,.93,1.28,.93,.72,0,1.11-.36,1.11-.81,0-1.21-3.22-.51-3.22-2.54,0-.84,.79-1.52,2-1.52s2,.65,2.06,1.71h-.91c-.04-.55-.46-.95-1.18-.95-.67,0-1.06,.32-1.06,.76,0,1.29,3.16,.59,3.2,2.54,0,.9-.79,1.57-1.99,1.57Z"/><path class="h" d="M358.8,52.93c0-.35,.27-.62,.62-.62,.33,0,.6,.27,.6,.62s-.27,.62-.6,.62c-.35,0-.62-.27-.62-.62Zm.15,1.5h.91v5.45h-.91v-5.45Z"/><path class="h" d="M361.59,55.18h-.71v-.75h.71v-1.37h.91v1.37h1.42v.75h-1.42v3.21c0,.54,.2,.73,.76,.73h.67v.77h-.82c-.96,0-1.51-.4-1.51-1.49v-3.21Z"/><path class="h" d="M369.85,59.89h-.91v-.81c-.35,.57-1.01,.89-1.74,.89-1.25,0-2.24-.78-2.24-2.34v-3.19h.9v3.07c0,1.1,.61,1.67,1.52,1.67s1.56-.58,1.56-1.75v-2.99h.91v5.45Z"/><path class="h" d="M373.62,54.34c1.01,0,1.71,.52,2.03,1.08v-.99h.92v5.45h-.92v-1.01c-.33,.59-1.03,1.1-2.04,1.1-1.45,0-2.58-1.14-2.58-2.83s1.12-2.8,2.59-2.8Zm.18,.79c-1,0-1.84,.73-1.84,2.01s.85,2.04,1.84,2.04,1.85-.75,1.85-2.03-.86-2.02-1.85-2.02Z"/><path class="h" d="M380.41,54.34c1.35,0,2.24,.7,2.52,1.84h-.98c-.19-.66-.74-1.07-1.54-1.07-1,0-1.73,.71-1.73,2.04s.74,2.06,1.73,2.06c.81,0,1.34-.39,1.54-1.07h.98c-.26,1-1.04,1.73-2.24,1.83v.5c.77-.01,1.28,.33,1.28,.98s-.51,1.02-1.21,1.02h-1.14v-.59h.96c.43,0,.64-.12,.64-.44s-.21-.43-.64-.43h-.5v-1.06c-1.37-.14-2.33-1.2-2.33-2.81,0-1.71,1.1-2.81,2.66-2.81Z"/><path class="h" d="M386.38,54.34c1.01,0,1.71,.52,2.03,1.08v-.99h.92v5.45h-.92v-1.01c-.33,.59-1.03,1.1-2.04,1.1-1.45,0-2.58-1.14-2.58-2.83s1.12-2.8,2.59-2.8Zm.18,.79c-1,0-1.84,.73-1.84,2.01s.85,2.04,1.84,2.04,1.85-.75,1.85-2.03-.86-2.02-1.85-2.02Zm-.29-2.33c.53,0,.73,.46,1.13,.46,.22,0,.4-.14,.44-.43h.52c-.08,.68-.48,1.03-1,1.03s-.74-.46-1.13-.46c-.22,0-.39,.14-.43,.44h-.53c.1-.69,.48-1.04,1-1.04Z"/><path class="h" d="M393.23,59.97c-1.54,0-2.72-1.09-2.72-2.83s1.21-2.81,2.76-2.81,2.76,1.08,2.76,2.81-1.24,2.83-2.8,2.83Zm0-.8c.95,0,1.87-.65,1.87-2.03s-.91-2.02-1.84-2.02-1.82,.65-1.82,2.02,.84,2.03,1.79,2.03Z"/><path class="h" d="M402.13,54.34c.86,0,1.64,.44,2.02,1.06v-2.88h.92v7.36h-.92v-1.02c-.33,.61-1.03,1.11-2.03,1.11-1.46,0-2.59-1.14-2.59-2.83s1.12-2.8,2.6-2.8Zm.17,.79c-1,0-1.84,.73-1.84,2.01s.84,2.04,1.84,2.04,1.85-.75,1.85-2.03-.86-2.02-1.85-2.02Z"/><path class="h" d="M408.95,59.97c-1.55,0-2.7-1.09-2.7-2.83s1.1-2.81,2.7-2.81,2.62,1.11,2.62,2.61c0,.2,0,.36-.03,.55h-4.36c.07,1.1,.85,1.71,1.77,1.71,.82,0,1.33-.42,1.53-1h.97c-.28,.99-1.15,1.77-2.51,1.77Zm-1.76-3.21h3.44c0-1.06-.79-1.65-1.72-1.65-.89,0-1.62,.59-1.72,1.65Z"/><path class="h" d="M417.35,59.97c-1.27,0-2.17-.7-2.23-1.69h.93c.05,.53,.52,.93,1.28,.93,.72,0,1.11-.36,1.11-.81,0-1.21-3.22-.51-3.22-2.54,0-.84,.79-1.52,2-1.52s2,.65,2.06,1.71h-.91c-.04-.55-.46-.95-1.18-.95-.67,0-1.06,.32-1.06,.76,0,1.29,3.16,.59,3.2,2.54,0,.9-.79,1.57-1.99,1.57Z"/><path class="h" d="M422.85,54.34c1.01,0,1.71,.52,2.03,1.08v-.99h.92v5.45h-.92v-1.01c-.33,.59-1.03,1.1-2.04,1.1-1.45,0-2.58-1.14-2.58-2.83s1.12-2.8,2.59-2.8Zm.18,.79c-1,0-1.84,.73-1.84,2.01s.84,2.04,1.84,2.04,1.85-.75,1.85-2.03-.86-2.02-1.85-2.02Z"/><path class="h" d="M432.16,59.89h-.91v-.81c-.35,.57-1.02,.89-1.74,.89-1.25,0-2.24-.78-2.24-2.34v-3.19h.9v3.07c0,1.1,.61,1.67,1.52,1.67s1.56-.58,1.56-1.75v-2.99h.91v5.45Zm-1.44-7.78v.79l-2.12,1.13v-.68l2.12-1.24Z"/><path class="h" d="M435.95,54.34c.86,0,1.64,.44,2.02,1.06v-2.88h.92v7.36h-.92v-1.02c-.33,.61-1.03,1.11-2.03,1.11-1.46,0-2.59-1.14-2.59-2.83s1.12-2.8,2.6-2.8Zm.17,.79c-1,0-1.84,.73-1.84,2.01s.84,2.04,1.84,2.04,1.85-.75,1.85-2.03-.86-2.02-1.85-2.02Z"/><path class="h" d="M442.77,59.97c-1.55,0-2.7-1.09-2.7-2.83s1.1-2.81,2.7-2.81,2.62,1.11,2.62,2.61c0,.2,0,.36-.03,.55h-4.36c.07,1.1,.84,1.71,1.77,1.71,.82,0,1.33-.42,1.53-1h.97c-.28,.99-1.15,1.77-2.51,1.77Zm-1.76-3.21h3.44c0-1.06-.79-1.65-1.72-1.65-.89,0-1.62,.59-1.72,1.65Z"/><path class="h" d="M271.21,66.28c.86,0,1.64,.44,2.02,1.06v-2.88h.92v7.36h-.92v-1.02c-.33,.61-1.03,1.11-2.03,1.11-1.46,0-2.59-1.14-2.59-2.83s1.12-2.8,2.6-2.8Zm.17,.79c-.99,0-1.84,.73-1.84,2.01s.85,2.04,1.84,2.04,1.85-.75,1.85-2.03-.86-2.02-1.85-2.02Z"/><path class="h" d="M278.05,71.91c-1.54,0-2.72-1.09-2.72-2.83s1.21-2.81,2.76-2.81,2.76,1.08,2.76,2.81-1.24,2.83-2.8,2.83Zm0-.8c.95,0,1.87-.65,1.87-2.03s-.91-2.02-1.84-2.02-1.82,.65-1.82,2.02,.85,2.03,1.79,2.03Z"/><path class="h" d="M284.89,67.11h-.71v-.75h.71v-1.37h.91v1.37h1.42v.75h-1.42v3.21c0,.54,.2,.73,.76,.73h.67v.77h-.82c-.96,0-1.51-.4-1.51-1.49v-3.21Z"/><path class="h" d="M290.67,71.91c-1.55,0-2.7-1.09-2.7-2.83s1.1-2.81,2.7-2.81,2.62,1.11,2.62,2.61c0,.2,0,.36-.03,.55h-4.36c.07,1.1,.85,1.71,1.77,1.71,.82,0,1.33-.42,1.53-1h.97c-.28,.99-1.15,1.77-2.51,1.77Zm-1.76-3.21h3.44c.01-1.06-.79-1.65-1.72-1.65-.89,0-1.62,.59-1.72,1.65Z"/><path class="h" d="M295.38,71.82h-.91v-5.45h.91v.89c.31-.61,.9-.98,1.76-.98v.94h-.24c-.87,0-1.52,.39-1.52,1.65v2.96Z"/><path class="h" d="M299.09,71.82h-.91v-5.45h.91v.89c.31-.61,.9-.98,1.76-.98v.94h-.24c-.87,0-1.52,.39-1.52,1.65v2.96Z"/><path class="h" d="M301.75,64.86c0-.35,.27-.62,.62-.62,.33,0,.6,.27,.6,.62s-.27,.62-.6,.62c-.35,0-.62-.27-.62-.62Zm.15,1.5h.91v5.45h-.91v-5.45Z"/><path class="h" d="M304.54,67.11h-.71v-.75h.71v-1.37h.91v1.37h1.42v.75h-1.42v3.21c0,.54,.2,.73,.76,.73h.67v.77h-.82c-.96,0-1.51-.4-1.51-1.49v-3.21Z"/><path class="h" d="M310.34,71.91c-1.54,0-2.72-1.09-2.72-2.83s1.21-2.81,2.76-2.81,2.76,1.08,2.76,2.81-1.24,2.83-2.8,2.83Zm0-.8c.95,0,1.87-.65,1.87-2.03s-.91-2.02-1.84-2.02-1.82,.65-1.82,2.02,.85,2.03,1.79,2.03Zm1.02-7.14v.79l-2.12,1.13v-.68l2.12-1.24Z"/><path class="h" d="M315.23,71.82h-.91v-5.45h.91v.89c.31-.61,.9-.98,1.76-.98v.94h-.24c-.87,0-1.52,.39-1.52,1.65v2.96Z"/><path class="h" d="M317.89,64.86c0-.35,.27-.62,.62-.62,.33,0,.6,.27,.6,.62s-.27,.62-.6,.62c-.35,0-.62-.27-.62-.62Zm.15,1.5h.91v5.45h-.91v-5.45Z"/><path class="h" d="M322.86,71.91c-1.54,0-2.72-1.09-2.72-2.83s1.21-2.81,2.76-2.81,2.76,1.08,2.76,2.81-1.24,2.83-2.8,2.83Zm0-.8c.94,0,1.87-.65,1.87-2.03s-.91-2.02-1.84-2.02-1.82,.65-1.82,2.02,.85,2.03,1.79,2.03Z"/><path class="h" d="M331.86,71.91c-1.55,0-2.7-1.09-2.7-2.83s1.1-2.81,2.7-2.81,2.62,1.11,2.62,2.61c0,.2,0,.36-.03,.55h-4.36c.07,1.1,.85,1.71,1.77,1.71,.82,0,1.33-.42,1.53-1h.97c-.28,.99-1.15,1.77-2.51,1.77Zm-1.76-3.21h3.44c.01-1.06-.79-1.65-1.72-1.65-.89,0-1.62,.59-1.72,1.65Z"/><path class="h" d="M340.58,66.28c.86,0,1.64,.44,2.02,1.06v-2.88h.92v7.36h-.92v-1.02c-.33,.61-1.03,1.11-2.03,1.11-1.46,0-2.59-1.14-2.59-2.83s1.12-2.8,2.6-2.8Zm.17,.79c-.99,0-1.84,.73-1.84,2.01s.85,2.04,1.84,2.04,1.85-.75,1.85-2.03-.86-2.02-1.85-2.02Z"/><path class="h" d="M347.29,66.28c1.01,0,1.71,.52,2.03,1.08v-.99h.92v5.45h-.92v-1.01c-.33,.59-1.03,1.1-2.04,1.1-1.45,0-2.58-1.14-2.58-2.83s1.12-2.8,2.59-2.8Zm.18,.79c-.99,0-1.84,.73-1.84,2.01s.85,2.04,1.84,2.04,1.85-.75,1.85-2.03-.86-2.02-1.85-2.02Z"/><path class="h" d="M357.36,66.28c1.46,0,2.59,1.09,2.59,2.8s-1.12,2.83-2.59,2.83c-1,0-1.7-.54-2.04-1.09v3.59h-.91v-8.04h.91v1c.33-.58,1.04-1.09,2.04-1.09Zm-.19,.79c-.98,0-1.85,.76-1.85,2.02s.87,2.03,1.85,2.03,1.85-.76,1.85-2.04-.85-2.01-1.85-2.01Z"/><path class="h" d="M363.52,71.91c-1.54,0-2.72-1.09-2.72-2.83s1.21-2.81,2.76-2.81,2.76,1.08,2.76,2.81-1.24,2.83-2.79,2.83Zm0-.8c.94,0,1.87-.65,1.87-2.03s-.91-2.02-1.84-2.02-1.82,.65-1.82,2.02,.85,2.03,1.79,2.03Z"/><path class="h" d="M370.45,66.28c1.46,0,2.59,1.09,2.59,2.8s-1.12,2.83-2.59,2.83c-1,0-1.7-.54-2.04-1.09v3.59h-.91v-8.04h.91v1c.33-.58,1.04-1.09,2.04-1.09Zm-.19,.79c-.99,0-1.85,.76-1.85,2.02s.87,2.03,1.85,2.03,1.85-.76,1.85-2.04-.85-2.01-1.85-2.01Z"/><path class="h" d="M379.06,71.82h-.91v-.81c-.35,.57-1.02,.89-1.74,.89-1.25,0-2.24-.78-2.24-2.34v-3.19h.9v3.07c0,1.1,.61,1.67,1.52,1.67s1.56-.58,1.56-1.75v-2.99h.91v5.45Z"/><path class="h" d="M380.59,64.46h.91v7.36h-.91v-7.36Z"/><path class="h" d="M385.29,66.28c1.01,0,1.71,.52,2.03,1.08v-.99h.92v5.45h-.92v-1.01c-.33,.59-1.03,1.1-2.04,1.1-1.45,0-2.58-1.14-2.58-2.83s1.12-2.8,2.59-2.8Zm.18,.79c-1,0-1.84,.73-1.84,2.01s.85,2.04,1.84,2.04,1.85-.75,1.85-2.03-.86-2.02-1.85-2.02Z"/><path class="h" d="M392.08,66.28c1.35,0,2.24,.7,2.52,1.84h-.98c-.19-.66-.74-1.07-1.54-1.07-1,0-1.73,.71-1.73,2.04s.74,2.06,1.73,2.06c.81,0,1.34-.39,1.54-1.07h.98c-.26,1-1.04,1.73-2.24,1.83v.5c.77-.01,1.28,.33,1.28,.98s-.51,1.02-1.21,1.02h-1.14v-.59h.96c.43,0,.64-.12,.64-.44s-.21-.43-.64-.43h-.5v-1.06c-1.37-.14-2.33-1.2-2.33-2.81,0-1.71,1.1-2.81,2.66-2.81Z"/><path class="h" d="M398.05,66.28c1.01,0,1.71,.52,2.03,1.08v-.99h.92v5.45h-.92v-1.01c-.33,.59-1.03,1.1-2.04,1.1-1.45,0-2.58-1.14-2.58-2.83s1.12-2.8,2.59-2.8Zm.18,.79c-1,0-1.84,.73-1.84,2.01s.85,2.04,1.84,2.04,1.85-.75,1.85-2.03-.86-2.02-1.85-2.02Zm-.29-2.33c.53,0,.73,.46,1.13,.46,.22,0,.4-.14,.44-.43h.52c-.08,.68-.48,1.03-1,1.03s-.74-.46-1.13-.46c-.22,0-.39,.14-.43,.44h-.53c.1-.69,.48-1.04,1-1.04Z"/><path class="h" d="M404.9,71.91c-1.54,0-2.72-1.09-2.72-2.83s1.21-2.81,2.76-2.81,2.76,1.08,2.76,2.81-1.24,2.83-2.8,2.83Zm0-.8c.95,0,1.87-.65,1.87-2.03s-.91-2.02-1.84-2.02-1.82,.65-1.82,2.02,.84,2.03,1.79,2.03Z"/><path class="h" d="M409.17,71.88c-.35,0-.62-.27-.62-.62s.27-.62,.62-.62c.33,0,.6,.27,.6,.62s-.27,.62-.6,.62Z"/></g><rect class="k" x="254.36" y="322.3" width="205.27" height="38.36" rx="19.18" ry="19.18"/><g><path class="h" d="M269.86,333.99h-1.33v2.9h-.91v-6.93h2.24c1.63,0,2.4,.9,2.4,2.03,0,1.05-.68,2.01-2.4,2.01Zm0-.75c1.03,0,1.47-.49,1.47-1.26s-.44-1.28-1.47-1.28h-1.33v2.55h1.33Z"/><path class="h" d="M275.63,331.34c1.01,0,1.71,.52,2.03,1.08v-1h.92v5.45h-.92v-1.01c-.33,.59-1.03,1.1-2.04,1.1-1.45,0-2.58-1.14-2.58-2.83s1.12-2.8,2.59-2.8Zm.18,.79c-.99,0-1.84,.73-1.84,2.01s.85,2.04,1.84,2.04,1.85-.75,1.85-2.03-.86-2.02-1.85-2.02Z"/><path class="h" d="M281.01,336.89h-.91v-5.45h.91v.89c.31-.61,.9-.99,1.76-.99v.94h-.24c-.87,0-1.52,.39-1.52,1.65v2.96Z"/><path class="h" d="M286.06,331.34c1.01,0,1.71,.52,2.03,1.08v-1h.92v5.45h-.92v-1.01c-.33,.59-1.03,1.1-2.04,1.1-1.45,0-2.58-1.14-2.58-2.83s1.12-2.8,2.59-2.8Zm.18,.79c-.99,0-1.84,.73-1.84,2.01s.85,2.04,1.84,2.04,1.85-.75,1.85-2.03-.86-2.02-1.85-2.02Z"/><path class="h" d="M295.51,331.34c1.35,0,2.24,.7,2.52,1.84h-.98c-.19-.66-.74-1.07-1.54-1.07-.99,0-1.73,.71-1.73,2.04s.74,2.06,1.73,2.06c.81,0,1.34-.39,1.54-1.07h.98c-.28,1.08-1.16,1.84-2.52,1.84-1.55,0-2.66-1.09-2.66-2.83s1.1-2.81,2.66-2.81Z"/><path class="h" d="M301.61,336.97c-1.54,0-2.72-1.09-2.72-2.83s1.21-2.81,2.76-2.81,2.76,1.08,2.76,2.81-1.24,2.83-2.8,2.83Zm0-.8c.94,0,1.87-.65,1.87-2.03s-.91-2.02-1.84-2.02-1.82,.65-1.82,2.02,.85,2.03,1.79,2.03Z"/><path class="h" d="M309.58,333.8c0-1.11-.61-1.68-1.52-1.68s-1.56,.58-1.56,1.75v3.01h-.91v-5.45h.91v.78c.36-.57,1.01-.88,1.75-.88,1.26,0,2.23,.78,2.23,2.34v3.21h-.9v-3.08Z"/><path class="h" d="M311.96,329.52h.91v2.7c.36-.58,1.03-.89,1.8-.89,1.21,0,2.18,.78,2.18,2.34v3.21h-.9v-3.08c0-1.11-.61-1.68-1.52-1.68s-1.56,.58-1.56,1.75v3.01h-.91v-7.36Z"/><path class="h" d="M320.68,336.97c-1.55,0-2.7-1.09-2.7-2.83s1.1-2.81,2.7-2.81,2.62,1.11,2.62,2.61c0,.2,0,.36-.03,.55h-4.36c.07,1.1,.85,1.71,1.77,1.71,.82,0,1.33-.42,1.53-1h.97c-.28,1-1.15,1.77-2.51,1.77Zm-1.76-3.21h3.44c.01-1.06-.79-1.65-1.72-1.65-.89,0-1.62,.59-1.72,1.65Z"/><path class="h" d="M326.8,331.34c1.35,0,2.24,.7,2.52,1.84h-.98c-.19-.66-.74-1.07-1.54-1.07-.99,0-1.73,.71-1.73,2.04s.74,2.06,1.73,2.06c.81,0,1.34-.39,1.54-1.07h.98c-.28,1.08-1.16,1.84-2.52,1.84-1.55,0-2.66-1.09-2.66-2.83s1.1-2.81,2.66-2.81Z"/><path class="h" d="M332.88,336.97c-1.55,0-2.7-1.09-2.7-2.83s1.1-2.81,2.7-2.81,2.62,1.11,2.62,2.61c0,.2,0,.36-.03,.55h-4.36c.07,1.1,.85,1.71,1.77,1.71,.82,0,1.33-.42,1.53-1h.98c-.28,1-1.15,1.77-2.51,1.77Zm-1.76-3.21h3.44c0-1.06-.79-1.65-1.72-1.65-.89,0-1.62,.59-1.72,1.65Z"/><path class="h" d="M337.59,336.89h-.91v-5.45h.91v.89c.31-.61,.9-.99,1.76-.99v.94h-.24c-.87,0-1.52,.39-1.52,1.65v2.96Z"/><path class="h" d="M345.3,331.34c1.01,0,1.71,.52,2.03,1.08v-1h.92v5.45h-.92v-1.01c-.33,.59-1.03,1.1-2.04,1.1-1.45,0-2.58-1.14-2.58-2.83s1.12-2.8,2.59-2.8Zm.18,.79c-.99,0-1.84,.73-1.84,2.01s.85,2.04,1.84,2.04,1.85-.75,1.85-2.03-.86-2.02-1.85-2.02Z"/><path class="h" d="M354.36,336.97c-1.27,0-2.17-.7-2.23-1.69h.94c.05,.53,.52,.92,1.28,.92,.72,0,1.11-.36,1.11-.81,0-1.21-3.22-.51-3.22-2.54,0-.84,.79-1.52,2-1.52s2,.65,2.06,1.71h-.91c-.04-.55-.46-.95-1.18-.95-.67,0-1.06,.32-1.06,.76,0,1.29,3.16,.59,3.2,2.54,0,.9-.79,1.57-1.99,1.57Z"/><path class="h" d="M357.47,329.93c0-.35,.27-.62,.62-.62,.33,0,.6,.27,.6,.62s-.27,.62-.6,.62c-.35,0-.62-.27-.62-.62Zm.15,1.5h.91v5.45h-.91v-5.45Z"/><path class="h" d="M360.26,332.18h-.71v-.75h.71v-1.37h.91v1.37h1.42v.75h-1.42v3.21c0,.54,.2,.73,.76,.73h.67v.77h-.82c-.96,0-1.51-.4-1.51-1.49v-3.21Z"/><path class="h" d="M368.52,336.89h-.91v-.81c-.35,.57-1.01,.88-1.74,.88-1.25,0-2.24-.78-2.24-2.34v-3.19h.9v3.07c0,1.1,.61,1.67,1.52,1.67s1.56-.58,1.56-1.75v-2.99h.91v5.45Z"/><path class="h" d="M372.3,331.34c1.01,0,1.71,.52,2.03,1.08v-1h.92v5.45h-.92v-1.01c-.33,.59-1.03,1.1-2.04,1.1-1.45,0-2.58-1.14-2.58-2.83s1.12-2.8,2.59-2.8Zm.18,.79c-1,0-1.84,.73-1.84,2.01s.85,2.04,1.84,2.04,1.85-.75,1.85-2.03-.86-2.02-1.85-2.02Z"/><path class="h" d="M379.09,331.34c1.35,0,2.24,.7,2.52,1.84h-.98c-.19-.66-.74-1.07-1.54-1.07-1,0-1.73,.71-1.73,2.04s.74,2.06,1.73,2.06c.81,0,1.34-.39,1.54-1.07h.98c-.26,1-1.04,1.73-2.24,1.83v.5c.77-.01,1.28,.33,1.28,.98s-.51,1.02-1.21,1.02h-1.14v-.59h.96c.43,0,.64-.12,.64-.44s-.21-.43-.64-.43h-.5v-1.06c-1.37-.14-2.33-1.2-2.33-2.81,0-1.71,1.1-2.81,2.66-2.81Z"/><path class="h" d="M385.05,331.34c1.01,0,1.71,.52,2.03,1.08v-1h.92v5.45h-.92v-1.01c-.33,.59-1.03,1.1-2.04,1.1-1.45,0-2.58-1.14-2.58-2.83s1.12-2.8,2.59-2.8Zm.18,.79c-1,0-1.84,.73-1.84,2.01s.85,2.04,1.84,2.04,1.85-.75,1.85-2.03-.86-2.02-1.85-2.02Zm-.29-2.33c.53,0,.73,.46,1.13,.46,.22,0,.4-.14,.44-.43h.52c-.08,.68-.48,1.03-1,1.03s-.74-.46-1.13-.46c-.22,0-.39,.14-.43,.44h-.53c.1-.69,.48-1.04,1-1.04Z"/><path class="h" d="M391.9,336.97c-1.54,0-2.72-1.09-2.72-2.83s1.21-2.81,2.76-2.81,2.76,1.08,2.76,2.81-1.24,2.83-2.8,2.83Zm0-.8c.95,0,1.87-.65,1.87-2.03s-.91-2.02-1.84-2.02-1.82,.65-1.82,2.02,.84,2.03,1.79,2.03Z"/><path class="h" d="M400.81,331.34c.86,0,1.64,.44,2.02,1.06v-2.88h.92v7.36h-.92v-1.03c-.33,.61-1.03,1.11-2.03,1.11-1.46,0-2.59-1.14-2.59-2.83s1.12-2.8,2.6-2.8Zm.17,.79c-1,0-1.84,.73-1.84,2.01s.84,2.04,1.84,2.04,1.85-.75,1.85-2.03-.86-2.02-1.85-2.02Z"/><path class="h" d="M407.63,336.97c-1.55,0-2.7-1.09-2.7-2.83s1.1-2.81,2.7-2.81,2.62,1.11,2.62,2.61c0,.2,0,.36-.03,.55h-4.36c.07,1.1,.85,1.71,1.77,1.71,.82,0,1.33-.42,1.53-1h.97c-.28,1-1.15,1.77-2.51,1.77Zm-1.76-3.21h3.44c0-1.06-.79-1.65-1.72-1.65-.89,0-1.62,.59-1.72,1.65Z"/><path class="h" d="M416.02,336.97c-1.27,0-2.17-.7-2.23-1.69h.93c.05,.53,.52,.92,1.28,.92,.72,0,1.11-.36,1.11-.81,0-1.21-3.22-.51-3.22-2.54,0-.84,.79-1.52,2-1.52s2,.65,2.06,1.71h-.91c-.04-.55-.46-.95-1.18-.95-.67,0-1.06,.32-1.06,.76,0,1.29,3.16,.59,3.2,2.54,0,.9-.79,1.57-1.99,1.57Z"/><path class="h" d="M421.53,331.34c1.01,0,1.71,.52,2.03,1.08v-1h.92v5.45h-.92v-1.01c-.33,.59-1.03,1.1-2.04,1.1-1.45,0-2.58-1.14-2.58-2.83s1.12-2.8,2.59-2.8Zm.18,.79c-1,0-1.84,.73-1.84,2.01s.84,2.04,1.84,2.04,1.85-.75,1.85-2.03-.86-2.02-1.85-2.02Z"/><path class="h" d="M430.84,336.89h-.91v-.81c-.35,.57-1.02,.88-1.74,.88-1.25,0-2.24-.78-2.24-2.34v-3.19h.9v3.07c0,1.1,.61,1.67,1.52,1.67s1.56-.58,1.56-1.75v-2.99h.91v5.45Zm-1.44-7.78v.79l-2.12,1.13v-.68l2.12-1.24Z"/><path class="h" d="M434.62,331.34c.86,0,1.64,.44,2.02,1.06v-2.88h.92v7.36h-.92v-1.03c-.33,.61-1.03,1.11-2.03,1.11-1.46,0-2.59-1.14-2.59-2.83s1.12-2.8,2.6-2.8Zm.17,.79c-1,0-1.84,.73-1.84,2.01s.84,2.04,1.84,2.04,1.85-.75,1.85-2.03-.86-2.02-1.85-2.02Z"/><path class="h" d="M441.45,336.97c-1.55,0-2.7-1.09-2.7-2.83s1.1-2.81,2.7-2.81,2.62,1.11,2.62,2.61c0,.2,0,.36-.03,.55h-4.36c.07,1.1,.84,1.71,1.77,1.71,.82,0,1.33-.42,1.53-1h.97c-.28,1-1.15,1.77-2.51,1.77Zm-1.76-3.21h3.44c0-1.06-.79-1.65-1.72-1.65-.89,0-1.62,.59-1.72,1.65Z"/><path class="h" d="M269.88,343.28c.86,0,1.64,.44,2.02,1.06v-2.88h.92v7.36h-.92v-1.03c-.33,.61-1.03,1.11-2.03,1.11-1.46,0-2.59-1.14-2.59-2.83s1.12-2.8,2.6-2.8Zm.17,.79c-.99,0-1.84,.73-1.84,2.01s.85,2.04,1.84,2.04,1.85-.75,1.85-2.03-.86-2.02-1.85-2.02Z"/><path class="h" d="M276.73,348.91c-1.54,0-2.72-1.09-2.72-2.83s1.21-2.81,2.76-2.81,2.76,1.08,2.76,2.81-1.24,2.83-2.8,2.83Zm0-.8c.95,0,1.87-.65,1.87-2.03s-.91-2.02-1.84-2.02-1.82,.65-1.82,2.02,.85,2.03,1.79,2.03Z"/><path class="h" d="M283.57,344.11h-.71v-.75h.71v-1.37h.91v1.37h1.42v.75h-1.42v3.21c0,.54,.2,.73,.76,.73h.67v.77h-.82c-.96,0-1.51-.4-1.51-1.49v-3.21Z"/><path class="h" d="M289.34,348.91c-1.55,0-2.7-1.09-2.7-2.83s1.1-2.81,2.7-2.81,2.62,1.11,2.62,2.61c0,.2,0,.36-.03,.55h-4.36c.07,1.1,.85,1.71,1.77,1.71,.82,0,1.33-.42,1.53-1h.97c-.28,1-1.15,1.77-2.51,1.77Zm-1.76-3.21h3.44c.01-1.06-.79-1.65-1.72-1.65-.89,0-1.62,.59-1.72,1.65Z"/><path class="h" d="M294.06,348.82h-.91v-5.45h.91v.89c.31-.61,.9-.99,1.76-.99v.94h-.24c-.87,0-1.52,.39-1.52,1.65v2.96Z"/><path class="h" d="M297.77,348.82h-.91v-5.45h.91v.89c.31-.61,.9-.99,1.76-.99v.94h-.24c-.87,0-1.52,.39-1.52,1.65v2.96Z"/><path class="h" d="M300.42,341.86c0-.35,.27-.62,.62-.62,.33,0,.6,.27,.6,.62s-.27,.62-.6,.62c-.35,0-.62-.27-.62-.62Zm.15,1.5h.91v5.45h-.91v-5.45Z"/><path class="h" d="M303.21,344.11h-.71v-.75h.71v-1.37h.91v1.37h1.42v.75h-1.42v3.21c0,.54,.2,.73,.76,.73h.67v.77h-.82c-.96,0-1.51-.4-1.51-1.49v-3.21Z"/><path class="h" d="M309.01,348.91c-1.54,0-2.72-1.09-2.72-2.83s1.21-2.81,2.76-2.81,2.76,1.08,2.76,2.81-1.24,2.83-2.8,2.83Zm0-.8c.95,0,1.87-.65,1.87-2.03s-.91-2.02-1.84-2.02-1.82,.65-1.82,2.02,.85,2.03,1.79,2.03Zm1.02-7.14v.79l-2.12,1.13v-.68l2.12-1.24Z"/><path class="h" d="M313.9,348.82h-.91v-5.45h.91v.89c.31-.61,.9-.99,1.76-.99v.94h-.24c-.87,0-1.52,.39-1.52,1.65v2.96Z"/><path class="h" d="M316.56,341.86c0-.35,.27-.62,.62-.62,.33,0,.6,.27,.6,.62s-.27,.62-.6,.62c-.35,0-.62-.27-.62-.62Zm.15,1.5h.91v5.45h-.91v-5.45Z"/><path class="h" d="M321.53,348.91c-1.54,0-2.72-1.09-2.72-2.83s1.21-2.81,2.76-2.81,2.76,1.08,2.76,2.81-1.24,2.83-2.8,2.83Zm0-.8c.94,0,1.87-.65,1.87-2.03s-.91-2.02-1.84-2.02-1.82,.65-1.82,2.02,.85,2.03,1.79,2.03Z"/><path class="h" d="M330.53,348.91c-1.55,0-2.7-1.09-2.7-2.83s1.1-2.81,2.7-2.81,2.62,1.11,2.62,2.61c0,.2,0,.36-.03,.55h-4.36c.07,1.1,.85,1.71,1.77,1.71,.82,0,1.33-.42,1.53-1h.97c-.28,1-1.15,1.77-2.51,1.77Zm-1.76-3.21h3.44c.01-1.06-.79-1.65-1.72-1.65-.89,0-1.62,.59-1.72,1.65Z"/><path class="h" d="M339.25,343.28c.86,0,1.64,.44,2.02,1.06v-2.88h.92v7.36h-.92v-1.03c-.33,.61-1.03,1.11-2.03,1.11-1.46,0-2.59-1.14-2.59-2.83s1.12-2.8,2.6-2.8Zm.17,.79c-.99,0-1.84,.73-1.84,2.01s.85,2.04,1.84,2.04,1.85-.75,1.85-2.03-.86-2.02-1.85-2.02Z"/><path class="h" d="M345.96,343.28c1.01,0,1.71,.52,2.03,1.08v-1h.92v5.45h-.92v-1.01c-.33,.59-1.03,1.1-2.04,1.1-1.45,0-2.58-1.14-2.58-2.83s1.12-2.8,2.59-2.8Zm.18,.79c-.99,0-1.84,.73-1.84,2.01s.85,2.04,1.84,2.04,1.85-.75,1.85-2.03-.86-2.02-1.85-2.02Z"/><path class="h" d="M356.04,343.28c1.46,0,2.59,1.09,2.59,2.8s-1.12,2.83-2.59,2.83c-1,0-1.7-.54-2.04-1.09v3.59h-.91v-8.04h.91v1c.33-.58,1.04-1.09,2.04-1.09Zm-.19,.79c-.98,0-1.85,.76-1.85,2.02s.87,2.03,1.85,2.03,1.85-.76,1.85-2.04-.85-2.01-1.85-2.01Z"/><path class="h" d="M362.19,348.91c-1.54,0-2.72-1.09-2.72-2.83s1.21-2.81,2.76-2.81,2.76,1.08,2.76,2.81-1.24,2.83-2.79,2.83Zm0-.8c.94,0,1.87-.65,1.87-2.03s-.91-2.02-1.84-2.02-1.82,.65-1.82,2.02,.85,2.03,1.79,2.03Z"/><path class="h" d="M369.12,343.28c1.46,0,2.59,1.09,2.59,2.8s-1.12,2.83-2.59,2.83c-1,0-1.7-.54-2.04-1.09v3.59h-.91v-8.04h.91v1c.33-.58,1.04-1.09,2.04-1.09Zm-.19,.79c-.99,0-1.85,.76-1.85,2.02s.87,2.03,1.85,2.03,1.85-.76,1.85-2.04-.85-2.01-1.85-2.01Z"/><path class="h" d="M377.74,348.82h-.91v-.81c-.35,.57-1.02,.88-1.74,.88-1.25,0-2.24-.78-2.24-2.34v-3.19h.9v3.07c0,1.1,.61,1.67,1.52,1.67s1.56-.58,1.56-1.75v-2.99h.91v5.45Z"/><path class="h" d="M379.27,341.46h.91v7.36h-.91v-7.36Z"/><path class="h" d="M383.96,343.28c1.01,0,1.71,.52,2.03,1.08v-1h.92v5.45h-.92v-1.01c-.33,.59-1.03,1.1-2.04,1.1-1.45,0-2.58-1.14-2.58-2.83s1.12-2.8,2.59-2.8Zm.18,.79c-1,0-1.84,.73-1.84,2.01s.85,2.04,1.84,2.04,1.85-.75,1.85-2.03-.86-2.02-1.85-2.02Z"/><path class="h" d="M390.75,343.28c1.35,0,2.24,.7,2.52,1.84h-.98c-.19-.66-.74-1.07-1.54-1.07-1,0-1.73,.71-1.73,2.04s.74,2.06,1.73,2.06c.81,0,1.34-.39,1.54-1.07h.98c-.26,1-1.04,1.73-2.24,1.83v.5c.77-.01,1.28,.33,1.28,.98s-.51,1.02-1.21,1.02h-1.14v-.59h.96c.43,0,.64-.12,.64-.44s-.21-.43-.64-.43h-.5v-1.06c-1.37-.14-2.33-1.2-2.33-2.81,0-1.71,1.1-2.81,2.66-2.81Z"/><path class="h" d="M396.72,343.28c1.01,0,1.71,.52,2.03,1.08v-1h.92v5.45h-.92v-1.01c-.33,.59-1.03,1.1-2.04,1.1-1.45,0-2.58-1.14-2.58-2.83s1.12-2.8,2.59-2.8Zm.18,.79c-1,0-1.84,.73-1.84,2.01s.85,2.04,1.84,2.04,1.85-.75,1.85-2.03-.86-2.02-1.85-2.02Zm-.29-2.33c.53,0,.73,.46,1.13,.46,.22,0,.4-.14,.44-.43h.52c-.08,.68-.48,1.03-1,1.03s-.74-.46-1.13-.46c-.22,0-.39,.14-.43,.44h-.53c.1-.69,.48-1.04,1-1.04Z"/><path class="h" d="M403.57,348.91c-1.54,0-2.72-1.09-2.72-2.83s1.21-2.81,2.76-2.81,2.76,1.08,2.76,2.81-1.24,2.83-2.8,2.83Zm0-.8c.95,0,1.87-.65,1.87-2.03s-.91-2.02-1.84-2.02-1.82,.65-1.82,2.02,.84,2.03,1.79,2.03Z"/><path class="h" d="M407.84,348.88c-.35,0-.62-.27-.62-.62s.27-.62,.62-.62c.33,0,.6,.27,.6,.62s-.27,.62-.6,.62Z"/></g><rect class="k" x="467.46" y="128.3" width="205.27" height="38.36" rx="19.18" ry="19.18"/><g><path class="h" d="M499.34,141.99h-1.33v2.9h-.91v-6.93h2.24c1.63,0,2.4,.9,2.4,2.03,0,1.05-.68,2.01-2.4,2.01Zm0-.75c1.04,0,1.47-.49,1.47-1.26s-.44-1.28-1.47-1.28h-1.33v2.55h1.33Z"/><path class="h" d="M505.11,139.34c1.01,0,1.71,.52,2.03,1.08v-.99h.92v5.45h-.92v-1.01c-.33,.59-1.03,1.1-2.04,1.1-1.45,0-2.58-1.14-2.58-2.83s1.12-2.8,2.59-2.8Zm.18,.79c-.99,0-1.84,.73-1.84,2.01s.85,2.04,1.84,2.04,1.85-.75,1.85-2.03-.86-2.02-1.85-2.02Z"/><path class="h" d="M510.49,144.89h-.91v-5.45h.91v.89c.31-.61,.9-.98,1.76-.98v.94h-.24c-.87,0-1.52,.39-1.52,1.65v2.96Z"/><path class="h" d="M515.54,139.34c1.01,0,1.71,.52,2.03,1.08v-.99h.92v5.45h-.92v-1.01c-.33,.59-1.04,1.1-2.04,1.1-1.45,0-2.58-1.14-2.58-2.83s1.12-2.8,2.59-2.8Zm.18,.79c-1,0-1.84,.73-1.84,2.01s.85,2.04,1.84,2.04,1.85-.75,1.85-2.03-.86-2.02-1.85-2.02Z"/><path class="h" d="M524.99,139.34c1.35,0,2.24,.7,2.52,1.84h-.97c-.19-.66-.74-1.07-1.54-1.07-1,0-1.73,.71-1.73,2.04s.74,2.06,1.73,2.06c.81,0,1.34-.39,1.54-1.07h.97c-.28,1.08-1.16,1.84-2.52,1.84-1.55,0-2.66-1.09-2.66-2.83s1.1-2.81,2.66-2.81Z"/><path class="h" d="M531.08,144.97c-1.54,0-2.72-1.09-2.72-2.83s1.21-2.81,2.76-2.81,2.76,1.08,2.76,2.81-1.24,2.83-2.8,2.83Zm0-.8c.95,0,1.87-.65,1.87-2.03s-.91-2.02-1.84-2.02-1.82,.65-1.82,2.02,.85,2.03,1.79,2.03Z"/><path class="h" d="M539.06,141.8c0-1.11-.61-1.68-1.52-1.68s-1.56,.58-1.56,1.75v3.01h-.91v-5.45h.91v.78c.36-.57,1.01-.88,1.75-.88,1.26,0,2.23,.78,2.23,2.34v3.21h-.9v-3.08Z"/><path class="h" d="M541.43,137.52h.91v2.7c.36-.58,1.03-.89,1.8-.89,1.21,0,2.18,.78,2.18,2.34v3.21h-.9v-3.08c0-1.11-.61-1.68-1.52-1.68s-1.56,.58-1.56,1.75v3.01h-.91v-7.36Z"/><path class="h" d="M550.16,144.97c-1.55,0-2.7-1.09-2.7-2.83s1.1-2.81,2.7-2.81,2.62,1.11,2.62,2.61c0,.2,0,.36-.03,.55h-4.36c.07,1.1,.85,1.71,1.77,1.71,.82,0,1.33-.42,1.53-1h.97c-.28,.99-1.15,1.77-2.51,1.77Zm-1.76-3.21h3.44c0-1.06-.79-1.65-1.72-1.65-.88,0-1.62,.59-1.72,1.65Z"/><path class="h" d="M556.28,139.34c1.35,0,2.24,.7,2.52,1.84h-.98c-.19-.66-.74-1.07-1.54-1.07-.99,0-1.73,.71-1.73,2.04s.74,2.06,1.73,2.06c.81,0,1.34-.39,1.54-1.07h.98c-.28,1.08-1.16,1.84-2.52,1.84-1.55,0-2.66-1.09-2.66-2.83s1.1-2.81,2.66-2.81Z"/><path class="h" d="M562.36,144.97c-1.55,0-2.7-1.09-2.7-2.83s1.1-2.81,2.7-2.81,2.62,1.11,2.62,2.61c0,.2,0,.36-.03,.55h-4.36c.07,1.1,.85,1.71,1.77,1.71,.82,0,1.33-.42,1.53-1h.98c-.28,.99-1.15,1.77-2.51,1.77Zm-1.76-3.21h3.44c0-1.06-.79-1.65-1.72-1.65-.89,0-1.62,.59-1.72,1.65Z"/><path class="h" d="M567.07,144.89h-.91v-5.45h.91v.89c.31-.61,.9-.98,1.76-.98v.94h-.24c-.87,0-1.52,.39-1.52,1.65v2.96Z"/><path class="h" d="M574.78,139.34c1.01,0,1.71,.52,2.03,1.08v-.99h.92v5.45h-.92v-1.01c-.33,.59-1.04,1.1-2.04,1.1-1.45,0-2.58-1.14-2.58-2.83s1.12-2.8,2.59-2.8Zm.18,.79c-1,0-1.84,.73-1.84,2.01s.85,2.04,1.84,2.04,1.85-.75,1.85-2.03-.86-2.02-1.85-2.02Z"/><path class="h" d="M582.81,144.89h-.91v-5.45h.91v.89c.31-.61,.9-.98,1.76-.98v.94h-.24c-.87,0-1.52,.39-1.52,1.65v2.96Z"/><path class="h" d="M587.97,144.97c-1.55,0-2.7-1.09-2.7-2.83s1.1-2.81,2.7-2.81,2.62,1.11,2.62,2.61c0,.2,0,.36-.03,.55h-4.36c.07,1.1,.85,1.71,1.77,1.71,.82,0,1.33-.42,1.53-1h.98c-.28,.99-1.15,1.77-2.51,1.77Zm-1.76-3.21h3.44c0-1.06-.79-1.65-1.72-1.65-.89,0-1.62,.59-1.72,1.65Z"/><path class="h" d="M594.03,139.34c1.01,0,1.71,.52,2.03,1.08v-.99h.92v5.45h-.92v-1.01c-.33,.59-1.04,1.1-2.04,1.1-1.45,0-2.58-1.14-2.58-2.83s1.12-2.8,2.59-2.8Zm.18,.79c-1,0-1.84,.73-1.84,2.01s.85,2.04,1.84,2.04,1.85-.75,1.85-2.03-.86-2.02-1.85-2.02Z"/><path class="h" d="M598.5,137.52h.91v7.36h-.91v-7.36Z"/><path class="h" d="M600.8,137.93c0-.35,.27-.62,.62-.62,.33,0,.6,.27,.6,.62s-.27,.62-.6,.62c-.35,0-.62-.27-.62-.62Zm.15,1.5h.91v5.45h-.91v-5.45Z"/><path class="h" d="M605.65,139.34c.86,0,1.64,.44,2.02,1.06v-2.88h.92v7.36h-.92v-1.02c-.33,.61-1.03,1.11-2.03,1.11-1.46,0-2.59-1.14-2.59-2.83s1.12-2.8,2.6-2.8Zm.17,.79c-1,0-1.84,.73-1.84,2.01s.85,2.04,1.84,2.04,1.85-.75,1.85-2.03-.86-2.02-1.85-2.02Z"/><path class="h" d="M612.36,139.34c1.01,0,1.71,.52,2.03,1.08v-.99h.92v5.45h-.92v-1.01c-.33,.59-1.03,1.1-2.04,1.1-1.45,0-2.58-1.14-2.58-2.83s1.12-2.8,2.59-2.8Zm.18,.79c-1,0-1.84,.73-1.84,2.01s.85,2.04,1.84,2.04,1.85-.75,1.85-2.03-.86-2.02-1.85-2.02Z"/><path class="h" d="M619.1,139.34c.86,0,1.64,.44,2.02,1.06v-2.88h.92v7.36h-.92v-1.02c-.33,.61-1.03,1.11-2.03,1.11-1.46,0-2.59-1.14-2.59-2.83s1.12-2.8,2.6-2.8Zm.17,.79c-1,0-1.84,.73-1.84,2.01s.84,2.04,1.84,2.04,1.85-.75,1.85-2.03-.86-2.02-1.85-2.02Z"/><path class="h" d="M625.92,144.97c-1.55,0-2.7-1.09-2.7-2.83s1.1-2.81,2.7-2.81,2.62,1.11,2.62,2.61c0,.2,0,.36-.03,.55h-4.36c.07,1.1,.84,1.71,1.77,1.71,.82,0,1.33-.42,1.53-1h.97c-.28,.99-1.15,1.77-2.51,1.77Zm-1.76-3.21h3.44c0-1.06-.79-1.65-1.72-1.65-.89,0-1.62,.59-1.72,1.65Z"/><path class="h" d="M634.64,139.34c.86,0,1.64,.44,2.02,1.06v-2.88h.92v7.36h-.92v-1.02c-.33,.61-1.03,1.11-2.03,1.11-1.46,0-2.59-1.14-2.59-2.83s1.12-2.8,2.6-2.8Zm.17,.79c-1,0-1.84,.73-1.84,2.01s.85,2.04,1.84,2.04,1.85-.75,1.85-2.03-.86-2.02-1.85-2.02Z"/><path class="h" d="M641.48,144.97c-1.54,0-2.72-1.09-2.72-2.83s1.21-2.81,2.76-2.81,2.76,1.08,2.76,2.81-1.24,2.83-2.8,2.83Zm0-.8c.95,0,1.87-.65,1.87-2.03s-.91-2.02-1.84-2.02-1.82,.65-1.82,2.02,.85,2.03,1.79,2.03Z"/><path class="h" d="M647.4,144.97c-1.27,0-2.17-.7-2.23-1.69h.93c.05,.53,.52,.93,1.28,.93,.72,0,1.11-.36,1.11-.81,0-1.21-3.22-.51-3.22-2.54,0-.84,.79-1.52,2-1.52s2,.65,2.06,1.71h-.91c-.04-.55-.46-.95-1.18-.95-.67,0-1.06,.32-1.06,.76,0,1.29,3.16,.59,3.2,2.54,0,.9-.79,1.57-1.99,1.57Z"/><path class="h" d="M499.04,156.91c-1.27,0-2.17-.7-2.23-1.69h.93c.05,.53,.52,.93,1.28,.93,.72,0,1.11-.36,1.11-.81,0-1.21-3.22-.51-3.22-2.54,0-.84,.79-1.52,2-1.52s2,.65,2.06,1.71h-.91c-.04-.55-.46-.95-1.18-.95-.67,0-1.06,.32-1.06,.76,0,1.29,3.16,.59,3.2,2.54,0,.9-.79,1.57-1.99,1.57Z"/><path class="h" d="M504.65,156.91c-1.55,0-2.7-1.09-2.7-2.83s1.1-2.81,2.7-2.81,2.62,1.11,2.62,2.61c0,.2,0,.36-.03,.55h-4.36c.07,1.1,.85,1.71,1.77,1.71,.82,0,1.33-.42,1.53-1h.98c-.28,.99-1.15,1.77-2.51,1.77Zm-1.76-3.21h3.44c0-1.06-.79-1.65-1.72-1.65-.89,0-1.62,.59-1.72,1.65Z"/><path class="h" d="M509.37,156.82h-.91v-5.45h.91v.89c.31-.61,.9-.98,1.76-.98v.94h-.24c-.87,0-1.52,.39-1.52,1.65v2.96Z"/><path class="h" d="M512.5,151.37l1.7,4.62,1.69-4.62h.96l-2.14,5.45h-1.05l-2.14-5.45h.97Z"/><path class="h" d="M517.6,149.86c0-.35,.27-.62,.62-.62,.33,0,.6,.27,.6,.62s-.27,.62-.6,.62c-.35,0-.62-.27-.62-.62Zm.15,1.5h.91v5.45h-.91v-5.45Z"/><path class="h" d="M522.51,151.28c1.35,0,2.24,.7,2.52,1.84h-.98c-.19-.66-.74-1.07-1.54-1.07-.99,0-1.73,.71-1.73,2.04s.74,2.06,1.73,2.06c.81,0,1.34-.39,1.54-1.07h.98c-.26,1-1.04,1.73-2.24,1.83v.5c.77-.01,1.28,.33,1.28,.98s-.51,1.02-1.21,1.02h-1.14v-.59h.97c.43,0,.64-.12,.64-.44s-.21-.43-.64-.43h-.5v-1.06c-1.37-.14-2.33-1.2-2.33-2.81,0-1.71,1.1-2.81,2.66-2.81Z"/><path class="h" d="M528.61,156.91c-1.54,0-2.72-1.09-2.72-2.83s1.21-2.81,2.76-2.81,2.76,1.08,2.76,2.81-1.24,2.83-2.8,2.83Zm0-.8c.95,0,1.87-.65,1.87-2.03s-.91-2.02-1.84-2.02-1.82,.65-1.82,2.02,.85,2.03,1.79,2.03Z"/><path class="h" d="M534.52,156.91c-1.27,0-2.17-.7-2.23-1.69h.93c.05,.53,.52,.93,1.28,.93,.72,0,1.11-.36,1.11-.81,0-1.21-3.22-.51-3.22-2.54,0-.84,.79-1.52,2-1.52s2,.65,2.06,1.71h-.91c-.04-.55-.46-.95-1.18-.95-.67,0-1.06,.32-1.06,.76,0,1.29,3.16,.59,3.2,2.54,0,.9-.79,1.57-1.99,1.57Z"/><path class="h" d="M542.7,151.28c.86,0,1.64,.44,2.02,1.06v-2.88h.92v7.36h-.92v-1.02c-.33,.61-1.04,1.11-2.03,1.11-1.46,0-2.59-1.14-2.59-2.83s1.12-2.8,2.6-2.8Zm.17,.79c-1,0-1.84,.73-1.84,2.01s.85,2.04,1.84,2.04,1.85-.75,1.85-2.03-.86-2.02-1.85-2.02Z"/><path class="h" d="M549.52,156.91c-1.55,0-2.7-1.09-2.7-2.83s1.1-2.81,2.7-2.81,2.62,1.11,2.62,2.61c0,.2,0,.36-.03,.55h-4.36c.07,1.1,.85,1.71,1.77,1.71,.82,0,1.33-.42,1.53-1h.98c-.28,.99-1.15,1.77-2.51,1.77Zm-1.76-3.21h3.44c0-1.06-.79-1.65-1.72-1.65-.89,0-1.62,.59-1.72,1.65Z"/><path class="h" d="M557.91,156.91c-1.27,0-2.17-.7-2.23-1.69h.93c.05,.53,.52,.93,1.28,.93,.72,0,1.11-.36,1.11-.81,0-1.21-3.22-.51-3.22-2.54,0-.84,.79-1.52,2-1.52s2,.65,2.06,1.71h-.91c-.04-.55-.46-.95-1.18-.95-.67,0-1.06,.32-1.06,.76,0,1.29,3.16,.59,3.2,2.54,0,.9-.79,1.57-1.99,1.57Z"/><path class="h" d="M563.42,151.28c1.01,0,1.71,.52,2.03,1.08v-.99h.92v5.45h-.92v-1.01c-.33,.59-1.04,1.1-2.04,1.1-1.45,0-2.58-1.14-2.58-2.83s1.12-2.8,2.59-2.8Zm.18,.79c-1,0-1.84,.73-1.84,2.01s.85,2.04,1.84,2.04,1.85-.75,1.85-2.03-.86-2.02-1.85-2.02Z"/><path class="h" d="M572.73,156.82h-.91v-.81c-.35,.57-1.01,.89-1.74,.89-1.25,0-2.24-.78-2.24-2.34v-3.19h.9v3.07c0,1.1,.61,1.67,1.52,1.67s1.56-.58,1.56-1.75v-2.99h.91v5.45Zm-1.44-7.78v.79l-2.12,1.13v-.68l2.12-1.24Z"/><path class="h" d="M576.52,151.28c.86,0,1.64,.44,2.02,1.06v-2.88h.92v7.36h-.92v-1.02c-.33,.61-1.03,1.11-2.03,1.11-1.46,0-2.59-1.14-2.59-2.83s1.12-2.8,2.6-2.8Zm.17,.79c-.99,0-1.84,.73-1.84,2.01s.85,2.04,1.84,2.04,1.85-.75,1.85-2.03-.86-2.02-1.85-2.02Z"/><path class="h" d="M583.34,156.91c-1.55,0-2.7-1.09-2.7-2.83s1.1-2.81,2.7-2.81,2.62,1.11,2.62,2.61c0,.2,0,.36-.03,.55h-4.36c.07,1.1,.85,1.71,1.77,1.71,.82,0,1.33-.42,1.53-1h.97c-.28,.99-1.15,1.77-2.51,1.77Zm-1.76-3.21h3.44c0-1.06-.79-1.65-1.72-1.65-.88,0-1.62,.59-1.72,1.65Z"/><path class="h" d="M587.43,156.88c-.35,0-.62-.27-.62-.62s.27-.62,.62-.62c.33,0,.6,.27,.6,.62s-.27,.62-.6,.62Z"/></g><rect class="k" x="50.46" y="128.3" width="205.27" height="38.36" rx="19.18" ry="19.18"/><g><path class="h" d="M66.34,146.99h-1.33v2.9h-.91v-6.93h2.24c1.63,0,2.4,.9,2.4,2.03,0,1.05-.68,2.01-2.4,2.01Zm0-.75c1.03,0,1.47-.49,1.47-1.26s-.44-1.28-1.47-1.28h-1.33v2.55h1.33Z"/><path class="h" d="M72.11,144.34c1.01,0,1.71,.52,2.03,1.08v-.99h.92v5.45h-.92v-1.01c-.33,.59-1.03,1.1-2.04,1.1-1.45,0-2.58-1.14-2.58-2.83s1.12-2.8,2.59-2.8Zm.18,.79c-.99,0-1.84,.73-1.84,2.01s.85,2.04,1.84,2.04,1.85-.75,1.85-2.03-.86-2.02-1.85-2.02Z"/><path class="h" d="M77.49,149.89h-.91v-5.45h.91v.89c.31-.61,.9-.98,1.76-.98v.94h-.24c-.87,0-1.52,.39-1.52,1.65v2.96Z"/><path class="h" d="M82.54,144.34c1.01,0,1.71,.52,2.03,1.08v-.99h.92v5.45h-.92v-1.01c-.33,.59-1.03,1.1-2.04,1.1-1.45,0-2.58-1.14-2.58-2.83s1.12-2.8,2.59-2.8Zm.18,.79c-.99,0-1.84,.73-1.84,2.01s.85,2.04,1.84,2.04,1.85-.75,1.85-2.03-.86-2.02-1.85-2.02Z"/><path class="h" d="M97.54,146.8c0-1.11-.6-1.68-1.49-1.68s-1.54,.59-1.54,1.76v3h-.9v-3.08c0-1.11-.6-1.68-1.49-1.68s-1.54,.59-1.54,1.76v3h-.91v-5.45h.91v.79c.36-.58,1-.89,1.72-.89,.9,0,1.64,.4,2,1.21,.32-.79,1.09-1.21,1.93-1.21,1.24,0,2.21,.78,2.21,2.34v3.21h-.9v-3.08Z"/><path class="h" d="M102.27,149.97c-1.55,0-2.7-1.09-2.7-2.83s1.1-2.81,2.7-2.81,2.62,1.11,2.62,2.61c0,.2,0,.36-.03,.55h-4.36c.07,1.1,.85,1.71,1.77,1.71,.82,0,1.33-.42,1.53-1h.98c-.28,.99-1.15,1.77-2.51,1.77Zm-1.76-3.21h3.44c0-1.06-.79-1.65-1.72-1.65-.89,0-1.62,.59-1.72,1.65Z"/><path class="h" d="M106.08,142.52h.91v7.36h-.91v-7.36Z"/><path class="h" d="M108.52,142.52h.91v2.7c.36-.58,1.03-.89,1.8-.89,1.21,0,2.18,.78,2.18,2.34v3.21h-.9v-3.08c0-1.11-.61-1.68-1.52-1.68s-1.56,.58-1.56,1.75v3.01h-.91v-7.36Z"/><path class="h" d="M117.27,149.97c-1.54,0-2.72-1.09-2.72-2.83s1.21-2.81,2.76-2.81,2.76,1.08,2.76,2.81-1.24,2.83-2.8,2.83Zm0-.8c.95,0,1.87-.65,1.87-2.03s-.91-2.02-1.84-2.02-1.82,.65-1.82,2.02,.85,2.03,1.79,2.03Z"/><path class="h" d="M122.16,149.89h-.91v-5.45h.91v.89c.31-.61,.9-.98,1.76-.98v.94h-.24c-.87,0-1.52,.39-1.52,1.65v2.96Z"/><path class="h" d="M129.86,144.34c1.01,0,1.71,.52,2.03,1.08v-.99h.92v5.45h-.92v-1.01c-.33,.59-1.03,1.1-2.04,1.1-1.45,0-2.58-1.14-2.58-2.83s1.12-2.8,2.59-2.8Zm.18,.79c-.99,0-1.84,.73-1.84,2.01s.85,2.04,1.84,2.04,1.85-.75,1.85-2.03-.86-2.02-1.85-2.02Z"/><path class="h" d="M134.54,145.18h-.71v-.75h.71v-1.37h.91v1.37h1.42v.75h-1.42v3.21c0,.54,.2,.73,.76,.73h.67v.77h-.82c-.96,0-1.51-.4-1.51-1.49v-3.21Z"/><path class="h" d="M140.32,149.97c-1.55,0-2.7-1.09-2.7-2.83s1.1-2.81,2.7-2.81,2.62,1.11,2.62,2.61c0,.2,0,.36-.03,.55h-4.36c.07,1.1,.85,1.71,1.77,1.71,.82,0,1.33-.42,1.53-1h.98c-.28,.99-1.15,1.77-2.51,1.77Zm-1.76-3.21h3.44c0-1.06-.79-1.65-1.72-1.65-.89,0-1.62,.59-1.72,1.65Z"/><path class="h" d="M148.11,146.8c0-1.11-.61-1.68-1.52-1.68s-1.56,.58-1.56,1.75v3.01h-.91v-5.45h.91v.78c.36-.57,1.01-.88,1.75-.88,1.26,0,2.23,.78,2.23,2.34v3.21h-.9v-3.08Z"/><path class="h" d="M152.75,144.34c.86,0,1.64,.44,2.02,1.06v-2.88h.92v7.36h-.92v-1.02c-.33,.61-1.03,1.11-2.03,1.11-1.46,0-2.59-1.14-2.59-2.83s1.12-2.8,2.6-2.8Zm.17,.79c-.99,0-1.84,.73-1.84,2.01s.85,2.04,1.84,2.04,1.85-.75,1.85-2.03-.86-2.02-1.85-2.02Z"/><path class="h" d="M157.06,142.93c0-.35,.27-.62,.62-.62,.33,0,.6,.27,.6,.62s-.27,.62-.6,.62c-.35,0-.62-.27-.62-.62Zm.15,1.5h.91v5.45h-.91v-5.45Z"/><path class="h" d="M167.52,146.8c0-1.11-.6-1.68-1.49-1.68s-1.54,.59-1.54,1.76v3h-.9v-3.08c0-1.11-.6-1.68-1.49-1.68s-1.54,.59-1.54,1.76v3h-.91v-5.45h.91v.79c.36-.58,1-.89,1.72-.89,.9,0,1.64,.4,2,1.21,.32-.79,1.09-1.21,1.93-1.21,1.24,0,2.21,.78,2.21,2.34v3.21h-.9v-3.08Z"/><path class="h" d="M172.26,149.97c-1.55,0-2.7-1.09-2.7-2.83s1.1-2.81,2.7-2.81,2.62,1.11,2.62,2.61c0,.2,0,.36-.03,.55h-4.36c.07,1.1,.85,1.71,1.77,1.71,.82,0,1.33-.42,1.53-1h.97c-.28,.99-1.15,1.77-2.51,1.77Zm-1.76-3.21h3.44c0-1.06-.79-1.65-1.72-1.65-.89,0-1.62,.59-1.72,1.65Z"/><path class="h" d="M180.05,146.8c0-1.11-.61-1.68-1.52-1.68s-1.56,.58-1.56,1.75v3.01h-.91v-5.45h.91v.78c.36-.57,1.01-.88,1.75-.88,1.26,0,2.23,.78,2.23,2.34v3.21h-.89v-3.08Z"/><path class="h" d="M182.63,145.18h-.71v-.75h.71v-1.37h.91v1.37h1.42v.75h-1.42v3.21c0,.54,.2,.73,.76,.73h.67v.77h-.82c-.96,0-1.51-.4-1.51-1.49v-3.21Z"/><path class="h" d="M188.42,149.97c-1.54,0-2.72-1.09-2.72-2.83s1.21-2.81,2.76-2.81,2.76,1.08,2.76,2.81-1.24,2.83-2.8,2.83Zm0-.8c.95,0,1.87-.65,1.87-2.03s-.91-2.02-1.84-2.02-1.82,.65-1.82,2.02,.85,2.03,1.79,2.03Z"/><path class="h" d="M197.31,144.34c1.01,0,1.71,.52,2.03,1.08v-.99h.92v5.45h-.92v-1.01c-.33,.59-1.03,1.1-2.04,1.1-1.45,0-2.58-1.14-2.58-2.83s1.12-2.8,2.59-2.8Zm.18,.79c-1,0-1.84,.73-1.84,2.01s.85,2.04,1.84,2.04,1.85-.75,1.85-2.03-.86-2.02-1.85-2.02Z"/><path class="h" d="M204.16,149.97c-1.54,0-2.72-1.09-2.72-2.83s1.21-2.81,2.76-2.81,2.76,1.08,2.76,2.81-1.24,2.83-2.8,2.83Zm0-.8c.95,0,1.87-.65,1.87-2.03s-.91-2.02-1.84-2.02-1.82,.65-1.82,2.02,.84,2.03,1.79,2.03Z"/><path class="h" d="M215.64,149.89h-.91v-.81c-.35,.57-1.02,.89-1.74,.89-1.25,0-2.24-.78-2.24-2.34v-3.19h.9v3.07c0,1.1,.61,1.67,1.52,1.67s1.56-.58,1.56-1.75v-2.99h.91v5.45Z"/><path class="h" d="M219.1,149.97c-1.27,0-2.17-.7-2.23-1.69h.93c.05,.53,.52,.93,1.28,.93,.72,0,1.11-.36,1.11-.81,0-1.21-3.22-.51-3.22-2.54,0-.84,.79-1.52,2-1.52s2,.65,2.06,1.71h-.91c-.04-.55-.46-.95-1.18-.95-.67,0-1.06,.32-1.06,.76,0,1.29,3.16,.59,3.2,2.54,0,.9-.79,1.57-1.99,1.57Z"/><path class="h" d="M227.2,149.89h-.91v-.81c-.35,.57-1.02,.89-1.74,.89-1.25,0-2.24-.78-2.24-2.34v-3.19h.9v3.07c0,1.1,.61,1.67,1.52,1.67s1.56-.58,1.56-1.75v-2.99h.91v5.45Z"/><path class="h" d="M230.97,144.34c1.01,0,1.71,.52,2.03,1.08v-.99h.92v5.45h-.92v-1.01c-.33,.59-1.03,1.1-2.04,1.1-1.45,0-2.58-1.14-2.58-2.83s1.12-2.8,2.59-2.8Zm.18,.79c-1,0-1.84,.73-1.84,2.01s.84,2.04,1.84,2.04,1.85-.75,1.85-2.03-.86-2.02-1.85-2.02Zm1.14-3.02v.79l-2.12,1.13v-.68l2.12-1.24Z"/><path class="h" d="M236.35,149.89h-.91v-5.45h.91v.89c.31-.61,.89-.98,1.76-.98v.94h-.24c-.87,0-1.52,.39-1.52,1.65v2.96Z"/><path class="h" d="M239.01,142.93c0-.35,.27-.62,.62-.62,.33,0,.6,.27,.6,.62s-.27,.62-.6,.62c-.35,0-.62-.27-.62-.62Zm.15,1.5h.91v5.45h-.91v-5.45Z"/><path class="h" d="M243.98,149.97c-1.54,0-2.72-1.09-2.72-2.83s1.21-2.81,2.76-2.81,2.76,1.08,2.76,2.81-1.24,2.83-2.8,2.83Zm0-.8c.95,0,1.87-.65,1.87-2.03s-.91-2.02-1.84-2.02-1.82,.65-1.82,2.02,.84,2.03,1.79,2.03Z"/><path class="h" d="M248.25,149.95c-.35,0-.62-.27-.62-.62s.27-.62,.62-.62c.33,0,.6,.27,.6,.62s-.27,.62-.6,.62Z"/></g><rect class="k" x="467.46" y="234.3" width="205.27" height="38.36" rx="19.18" ry="19.18"/><g><path class="h" d="M483.34,252.99h-1.33v2.9h-.91v-6.93h2.24c1.63,0,2.4,.9,2.4,2.03,0,1.05-.68,2.01-2.4,2.01Zm0-.75c1.04,0,1.47-.49,1.47-1.26s-.44-1.28-1.47-1.28h-1.33v2.55h1.33Z"/><path class="h" d="M489.11,250.34c1.01,0,1.71,.52,2.03,1.08v-1h.92v5.45h-.92v-1.01c-.33,.59-1.03,1.1-2.04,1.1-1.45,0-2.58-1.14-2.58-2.83s1.12-2.8,2.59-2.8Zm.18,.79c-.99,0-1.84,.73-1.84,2.01s.85,2.04,1.84,2.04,1.85-.75,1.85-2.03-.86-2.02-1.85-2.02Z"/><path class="h" d="M494.49,255.89h-.91v-5.45h.91v.89c.31-.61,.9-.99,1.76-.99v.94h-.24c-.87,0-1.52,.39-1.52,1.65v2.96Z"/><path class="h" d="M499.54,250.34c1.01,0,1.71,.52,2.03,1.08v-1h.92v5.45h-.92v-1.01c-.33,.59-1.04,1.1-2.04,1.1-1.45,0-2.58-1.14-2.58-2.83s1.12-2.8,2.59-2.8Zm.18,.79c-1,0-1.84,.73-1.84,2.01s.85,2.04,1.84,2.04,1.85-.75,1.85-2.03-.86-2.02-1.85-2.02Z"/><path class="h" d="M509.62,250.34c1.46,0,2.59,1.09,2.59,2.8s-1.12,2.83-2.59,2.83c-1,0-1.7-.54-2.04-1.09v3.59h-.91v-8.04h.91v1c.33-.58,1.04-1.09,2.04-1.09Zm-.19,.79c-.98,0-1.85,.76-1.85,2.02s.87,2.03,1.85,2.03,1.85-.76,1.85-2.04-.85-2.01-1.85-2.01Z"/><path class="h" d="M513.39,248.52h.91v7.36h-.91v-7.36Z"/><path class="h" d="M518.09,250.34c1.01,0,1.71,.52,2.03,1.08v-1h.92v5.45h-.92v-1.01c-.33,.59-1.04,1.1-2.04,1.1-1.45,0-2.58-1.14-2.58-2.83s1.12-2.8,2.59-2.8Zm.18,.79c-1,0-1.84,.73-1.84,2.01s.85,2.04,1.84,2.04,1.85-.75,1.85-2.03-.86-2.02-1.85-2.02Z"/><path class="h" d="M526.55,252.8c0-1.11-.61-1.68-1.52-1.68s-1.56,.58-1.56,1.75v3.01h-.91v-5.45h.91v.78c.36-.57,1.01-.88,1.75-.88,1.26,0,2.23,.78,2.23,2.34v3.21h-.9v-3.08Z"/><path class="h" d="M531.28,255.97c-1.55,0-2.7-1.09-2.7-2.83s1.1-2.81,2.7-2.81,2.62,1.11,2.62,2.61c0,.2,0,.36-.03,.55h-4.36c.07,1.1,.85,1.71,1.77,1.71,.82,0,1.33-.42,1.53-1h.97c-.28,1-1.15,1.77-2.51,1.77Zm-1.76-3.21h3.44c0-1.06-.79-1.65-1.72-1.65-.88,0-1.62,.59-1.72,1.65Z"/><path class="h" d="M536.02,250.43v6.64c0,.99-.52,1.4-1.44,1.4h-.53v-.77h.38c.5,0,.69-.18,.69-.66v-6.62h.91Zm-1.05-1.5c0-.35,.27-.62,.61-.62s.61,.27,.61,.62-.27,.62-.61,.62-.61-.27-.61-.62Z"/><path class="h" d="M539.8,250.34c1.01,0,1.71,.52,2.03,1.08v-1h.92v5.45h-.92v-1.01c-.33,.59-1.03,1.1-2.04,1.1-1.45,0-2.58-1.14-2.58-2.83s1.12-2.8,2.59-2.8Zm.18,.79c-.99,0-1.84,.73-1.84,2.01s.85,2.04,1.84,2.04,1.85-.75,1.85-2.03-.86-2.02-1.85-2.02Z"/><path class="h" d="M545.18,255.89h-.91v-5.45h.91v.89c.31-.61,.9-.99,1.76-.99v.94h-.24c-.87,0-1.52,.39-1.52,1.65v2.96Z"/><path class="h" d="M552.89,250.34c1.01,0,1.71,.52,2.03,1.08v-1h.92v5.45h-.92v-1.01c-.33,.59-1.03,1.1-2.04,1.1-1.45,0-2.58-1.14-2.58-2.83s1.12-2.8,2.59-2.8Zm.18,.79c-.99,0-1.84,.73-1.84,2.01s.85,2.04,1.84,2.04,1.85-.75,1.85-2.03-.86-2.02-1.85-2.02Z"/><path class="h" d="M559.29,255.97c-1.27,0-2.17-.7-2.23-1.69h.93c.05,.53,.52,.92,1.28,.92,.72,0,1.11-.36,1.11-.81,0-1.21-3.22-.51-3.22-2.54,0-.84,.79-1.52,2-1.52s2,.65,2.06,1.71h-.91c-.04-.55-.46-.95-1.18-.95-.67,0-1.06,.32-1.06,.76,0,1.29,3.16,.59,3.2,2.54,0,.9-.79,1.57-1.99,1.57Z"/><path class="h" d="M567.46,250.34c1.01,0,1.71,.52,2.03,1.08v-1h.92v5.45h-.92v-1.01c-.33,.59-1.04,1.1-2.04,1.1-1.45,0-2.58-1.14-2.58-2.83s1.12-2.8,2.59-2.8Zm.18,.79c-1,0-1.84,.73-1.84,2.01s.85,2.04,1.84,2.04,1.85-.75,1.85-2.03-.86-2.02-1.85-2.02Z"/><path class="h" d="M574.25,250.34c1.35,0,2.24,.7,2.52,1.84h-.97c-.19-.66-.74-1.07-1.54-1.07-1,0-1.73,.71-1.73,2.04s.74,2.06,1.73,2.06c.81,0,1.34-.39,1.54-1.07h.97c-.26,1-1.04,1.73-2.24,1.83v.5c.77-.01,1.28,.33,1.28,.98s-.51,1.02-1.21,1.02h-1.14v-.59h.96c.43,0,.64-.12,.64-.44s-.21-.43-.64-.43h-.5v-1.06c-1.37-.14-2.33-1.2-2.33-2.81,0-1.71,1.1-2.81,2.66-2.81Z"/><path class="h" d="M580.35,255.97c-1.54,0-2.72-1.09-2.72-2.83s1.21-2.81,2.76-2.81,2.75,1.08,2.75,2.81-1.24,2.83-2.79,2.83Zm0-.8c.95,0,1.87-.65,1.87-2.03s-.91-2.02-1.84-2.02-1.82,.65-1.82,2.02,.85,2.03,1.79,2.03Zm-.42-6.45c.53,0,.73,.46,1.13,.46,.22,0,.4-.14,.44-.43h.52c-.08,.68-.48,1.04-.99,1.04s-.74-.46-1.13-.46c-.22,0-.39,.14-.43,.44h-.53c.1-.69,.48-1.04,1-1.04Z"/><path class="h" d="M586.69,255.97c-1.55,0-2.7-1.09-2.7-2.83s1.1-2.81,2.7-2.81,2.62,1.11,2.62,2.61c0,.2,0,.36-.03,.55h-4.36c.07,1.1,.85,1.71,1.77,1.71,.82,0,1.33-.42,1.53-1h.97c-.28,1-1.15,1.77-2.51,1.77Zm-1.76-3.21h3.44c0-1.06-.79-1.65-1.72-1.65-.89,0-1.62,.59-1.72,1.65Z"/><path class="h" d="M592.43,255.97c-1.27,0-2.17-.7-2.23-1.69h.93c.05,.53,.52,.92,1.28,.92,.72,0,1.11-.36,1.11-.81,0-1.21-3.22-.51-3.22-2.54,0-.84,.79-1.52,2-1.52s2,.65,2.06,1.71h-.91c-.04-.55-.46-.95-1.18-.95-.67,0-1.06,.32-1.06,.76,0,1.29,3.16,.59,3.2,2.54,0,.9-.79,1.57-1.99,1.57Z"/><path class="h" d="M600.7,255.97c-1.55,0-2.7-1.09-2.7-2.83s1.1-2.81,2.7-2.81,2.62,1.11,2.62,2.61c0,.2,0,.36-.03,.55h-4.36c.07,1.1,.84,1.71,1.77,1.71,.82,0,1.33-.42,1.53-1h.97c-.28,1-1.15,1.77-2.51,1.77Zm-1.76-3.21h3.44c0-1.06-.79-1.65-1.72-1.65-.89,0-1.62,.59-1.72,1.65Z"/><path class="h" d="M612.38,252.8c0-1.11-.6-1.68-1.49-1.68s-1.54,.59-1.54,1.76v3h-.9v-3.08c0-1.11-.6-1.68-1.49-1.68s-1.54,.59-1.54,1.76v3h-.91v-5.45h.91v.79c.36-.58,1-.89,1.72-.89,.9,0,1.64,.4,2,1.21,.32-.79,1.09-1.21,1.93-1.21,1.24,0,2.21,.78,2.21,2.34v3.21h-.9v-3.08Z"/><path class="h" d="M619.33,255.97c-1.27,0-2.17-.7-2.23-1.69h.93c.05,.53,.52,.92,1.28,.92,.72,0,1.11-.36,1.11-.81,0-1.21-3.22-.51-3.22-2.54,0-.84,.79-1.52,2-1.52s2,.65,2.06,1.71h-.91c-.04-.55-.46-.95-1.18-.95-.67,0-1.06,.32-1.06,.76,0,1.29,3.16,.59,3.2,2.54,0,.9-.79,1.57-1.99,1.57Z"/><path class="h" d="M624.84,250.34c1.01,0,1.71,.52,2.03,1.08v-1h.92v5.45h-.92v-1.01c-.33,.59-1.03,1.1-2.04,1.1-1.45,0-2.58-1.14-2.58-2.83s1.12-2.8,2.59-2.8Zm.18,.79c-1,0-1.84,.73-1.84,2.01s.85,2.04,1.84,2.04,1.85-.75,1.85-2.03-.86-2.02-1.85-2.02Z"/><path class="h" d="M634.15,255.89h-.91v-.81c-.35,.57-1.02,.88-1.74,.88-1.25,0-2.24-.78-2.24-2.34v-3.19h.9v3.07c0,1.1,.61,1.67,1.52,1.67s1.56-.58,1.56-1.75v-2.99h.91v5.45Zm-1.44-7.78v.79l-2.12,1.13v-.68l2.12-1.24Z"/><path class="h" d="M637.94,250.34c.86,0,1.64,.44,2.02,1.06v-2.88h.92v7.36h-.92v-1.03c-.33,.61-1.03,1.11-2.03,1.11-1.46,0-2.59-1.14-2.59-2.83s1.12-2.8,2.6-2.8Zm.17,.79c-1,0-1.84,.73-1.84,2.01s.84,2.04,1.84,2.04,1.85-.75,1.85-2.03-.86-2.02-1.85-2.02Z"/><path class="h" d="M644.76,255.97c-1.55,0-2.7-1.09-2.7-2.83s1.1-2.81,2.7-2.81,2.62,1.11,2.62,2.61c0,.2,0,.36-.03,.55h-4.36c.07,1.1,.85,1.71,1.77,1.71,.82,0,1.33-.42,1.53-1h.97c-.28,1-1.15,1.77-2.51,1.77Zm-1.76-3.21h3.44c0-1.06-.79-1.65-1.72-1.65-.89,0-1.62,.59-1.72,1.65Z"/><path class="h" d="M648.86,255.95c-.35,0-.62-.27-.62-.62s.27-.62,.62-.62c.33,0,.6,.27,.6,.62s-.27,.62-.6,.62Z"/></g><rect class="k" x="50.46" y="234.3" width="205.27" height="47.06" rx="23.53" ry="23.53"/><g><path class="h" d="M66.34,245.99h-1.33v2.9h-.91v-6.93h2.24c1.63,0,2.4,.9,2.4,2.03,0,1.05-.68,2.01-2.4,2.01Zm0-.75c1.03,0,1.47-.49,1.47-1.26s-.44-1.28-1.47-1.28h-1.33v2.55h1.33Z"/><path class="h" d="M72.11,243.34c1.01,0,1.71,.52,2.03,1.08v-1h.92v5.45h-.92v-1.01c-.33,.59-1.03,1.1-2.04,1.1-1.45,0-2.58-1.14-2.58-2.83s1.12-2.8,2.59-2.8Zm.18,.79c-.99,0-1.84,.73-1.84,2.01s.85,2.04,1.84,2.04,1.85-.75,1.85-2.03-.86-2.02-1.85-2.02Z"/><path class="h" d="M77.49,248.89h-.91v-5.45h.91v.89c.31-.61,.9-.99,1.76-.99v.94h-.24c-.87,0-1.52,.39-1.52,1.65v2.96Z"/><path class="h" d="M82.54,243.34c1.01,0,1.71,.52,2.03,1.08v-1h.92v5.45h-.92v-1.01c-.33,.59-1.03,1.1-2.04,1.1-1.45,0-2.58-1.14-2.58-2.83s1.12-2.8,2.59-2.8Zm.18,.79c-.99,0-1.84,.73-1.84,2.01s.85,2.04,1.84,2.04,1.85-.75,1.85-2.03-.86-2.02-1.85-2.02Z"/><path class="h" d="M91.92,243.34c1.01,0,1.71,.52,2.03,1.08v-1h.92v5.45h-.92v-1.01c-.33,.59-1.03,1.1-2.04,1.1-1.45,0-2.58-1.14-2.58-2.83s1.12-2.8,2.59-2.8Zm.18,.79c-.99,0-1.84,.73-1.84,2.01s.85,2.04,1.84,2.04,1.85-.75,1.85-2.03-.86-2.02-1.85-2.02Z"/><path class="h" d="M98.71,243.34c1.35,0,2.24,.7,2.52,1.84h-.98c-.19-.66-.74-1.07-1.54-1.07-.99,0-1.73,.71-1.73,2.04s.74,2.06,1.73,2.06c.81,0,1.34-.39,1.54-1.07h.98c-.28,1.08-1.16,1.84-2.52,1.84-1.55,0-2.66-1.09-2.66-2.83s1.1-2.81,2.66-2.81Z"/><path class="h" d="M104.81,248.97c-1.54,0-2.72-1.09-2.72-2.83s1.21-2.81,2.76-2.81,2.76,1.08,2.76,2.81-1.24,2.83-2.8,2.83Zm0-.8c.94,0,1.87-.65,1.87-2.03s-.91-2.02-1.84-2.02-1.82,.65-1.82,2.02,.85,2.03,1.79,2.03Z"/><path class="h" d="M116.66,245.8c0-1.11-.6-1.68-1.49-1.68s-1.54,.59-1.54,1.76v3h-.9v-3.08c0-1.11-.6-1.68-1.49-1.68s-1.54,.59-1.54,1.76v3h-.91v-5.45h.91v.79c.36-.58,1-.89,1.72-.89,.9,0,1.64,.4,2,1.21,.32-.79,1.09-1.21,1.93-1.21,1.24,0,2.21,.78,2.21,2.34v3.21h-.9v-3.08Z"/><path class="h" d="M121.98,243.34c1.46,0,2.59,1.09,2.59,2.8s-1.12,2.83-2.59,2.83c-1,0-1.7-.54-2.04-1.09v3.59h-.91v-8.04h.91v1c.33-.58,1.04-1.09,2.04-1.09Zm-.19,.79c-.98,0-1.85,.76-1.85,2.02s.87,2.03,1.85,2.03,1.85-.76,1.85-2.04-.85-2.01-1.85-2.01Z"/><path class="h" d="M128.01,243.34c1.01,0,1.71,.52,2.03,1.08v-1h.92v5.45h-.92v-1.01c-.33,.59-1.03,1.1-2.04,1.1-1.45,0-2.58-1.14-2.58-2.83s1.12-2.8,2.59-2.8Zm.18,.79c-.99,0-1.84,.73-1.84,2.01s.85,2.04,1.84,2.04,1.85-.75,1.85-2.03-.86-2.02-1.85-2.02Z"/><path class="h" d="M136.47,245.8c0-1.11-.61-1.68-1.52-1.68s-1.56,.58-1.56,1.75v3.01h-.91v-5.45h.91v.78c.36-.57,1.01-.88,1.75-.88,1.26,0,2.23,.78,2.23,2.34v3.21h-.9v-3.08Z"/><path class="h" d="M138.84,241.52h.91v2.7c.36-.58,1.03-.89,1.8-.89,1.21,0,2.18,.78,2.18,2.34v3.21h-.9v-3.08c0-1.11-.61-1.68-1.52-1.68s-1.56,.58-1.56,1.75v3.01h-.91v-7.36Z"/><path class="h" d="M147.46,243.34c1.01,0,1.71,.52,2.03,1.08v-1h.92v5.45h-.92v-1.01c-.33,.59-1.03,1.1-2.04,1.1-1.45,0-2.58-1.14-2.58-2.83s1.12-2.8,2.59-2.8Zm.18,.79c-.99,0-1.84,.73-1.84,2.01s.85,2.04,1.84,2.04,1.85-.75,1.85-2.03-.86-2.02-1.85-2.02Z"/><path class="h" d="M152.83,248.89h-.91v-5.45h.91v.89c.31-.61,.9-.99,1.76-.99v.94h-.24c-.87,0-1.52,.39-1.52,1.65v2.96Z"/><path class="h" d="M160.67,248.97c-1.54,0-2.72-1.09-2.72-2.83s1.21-2.81,2.76-2.81,2.76,1.08,2.76,2.81-1.24,2.83-2.8,2.83Zm0-.8c.95,0,1.87-.65,1.87-2.03s-.91-2.02-1.84-2.02-1.82,.65-1.82,2.02,.85,2.03,1.79,2.03Z"/><path class="h" d="M170.26,243.34c1.46,0,2.59,1.09,2.59,2.8s-1.12,2.83-2.59,2.83c-1,0-1.7-.54-2.04-1.09v3.59h-.91v-8.04h.91v1c.33-.58,1.04-1.09,2.04-1.09Zm-.19,.79c-.98,0-1.85,.76-1.85,2.02s.87,2.03,1.85,2.03,1.85-.76,1.85-2.04-.85-2.01-1.85-2.01Z"/><path class="h" d="M174.94,248.89h-.91v-5.45h.91v.89c.31-.61,.9-.99,1.76-.99v.94h-.24c-.87,0-1.52,.39-1.52,1.65v2.96Z"/><path class="h" d="M180.12,248.97c-1.54,0-2.72-1.09-2.72-2.83s1.21-2.81,2.76-2.81,2.76,1.08,2.76,2.81-1.24,2.83-2.8,2.83Zm0-.8c.95,0,1.87-.65,1.87-2.03s-.91-2.02-1.84-2.02-1.82,.65-1.82,2.02,.85,2.03,1.79,2.03Z"/><path class="h" d="M186.36,243.34c1,0,1.71,.5,2.03,1.08v-1h.92v5.57c0,1.5-1,2.57-2.61,2.57-1.43,0-2.46-.73-2.64-1.89h.89c.2,.66,.85,1.1,1.74,1.1,.96,0,1.69-.62,1.69-1.78v-1.14c-.33,.59-1.03,1.11-2.03,1.11-1.46,0-2.59-1.14-2.59-2.83s1.12-2.8,2.59-2.8Zm.18,.79c-1,0-1.84,.73-1.84,2.01s.84,2.04,1.84,2.04,1.85-.75,1.85-2.03-.86-2.02-1.85-2.02Z"/><path class="h" d="M191.73,248.89h-.91v-5.45h.91v.89c.31-.61,.9-.99,1.76-.99v.94h-.24c-.87,0-1.52,.39-1.52,1.65v2.96Z"/><path class="h" d="M196.9,248.97c-1.55,0-2.7-1.09-2.7-2.83s1.1-2.81,2.7-2.81,2.62,1.11,2.62,2.61c0,.2,0,.36-.03,.55h-4.36c.07,1.1,.85,1.71,1.77,1.71,.82,0,1.33-.42,1.53-1h.97c-.28,1-1.15,1.77-2.51,1.77Zm-1.76-3.21h3.44c0-1.06-.79-1.65-1.72-1.65-.89,0-1.62,.59-1.72,1.65Z"/><path class="h" d="M202.63,248.97c-1.27,0-2.17-.7-2.23-1.69h.93c.05,.53,.52,.92,1.28,.92,.72,0,1.11-.36,1.11-.81,0-1.21-3.22-.51-3.22-2.54,0-.84,.79-1.52,2-1.52s2,.65,2.06,1.71h-.91c-.04-.55-.46-.95-1.18-.95-.67,0-1.06,.32-1.06,.76,0,1.29,3.16,.59,3.2,2.54,0,.9-.79,1.57-1.99,1.57Z"/><path class="h" d="M207.82,248.97c-1.27,0-2.17-.7-2.23-1.69h.93c.05,.53,.52,.92,1.28,.92,.72,0,1.11-.36,1.11-.81,0-1.21-3.22-.51-3.22-2.54,0-.84,.79-1.52,2-1.52s2,.65,2.06,1.71h-.91c-.04-.55-.46-.95-1.18-.95-.67,0-1.06,.32-1.06,.76,0,1.29,3.16,.59,3.2,2.54,0,.9-.79,1.57-1.99,1.57Z"/><path class="h" d="M213.46,248.97c-1.54,0-2.72-1.09-2.72-2.83s1.21-2.81,2.76-2.81,2.76,1.08,2.76,2.81-1.24,2.83-2.8,2.83Zm0-.8c.95,0,1.87-.65,1.87-2.03s-.91-2.02-1.84-2.02-1.82,.65-1.82,2.02,.84,2.03,1.79,2.03Z"/><path class="h" d="M222.36,243.34c.86,0,1.64,.44,2.02,1.06v-2.88h.92v7.36h-.92v-1.03c-.33,.61-1.03,1.11-2.03,1.11-1.46,0-2.59-1.14-2.59-2.83s1.12-2.8,2.6-2.8Zm.17,.79c-1,0-1.84,.73-1.84,2.01s.84,2.04,1.84,2.04,1.85-.75,1.85-2.03-.86-2.02-1.85-2.02Z"/><path class="h" d="M229.07,243.34c1.01,0,1.71,.52,2.03,1.08v-1h.92v5.45h-.92v-1.01c-.33,.59-1.03,1.1-2.04,1.1-1.45,0-2.58-1.14-2.58-2.83s1.12-2.8,2.59-2.8Zm.18,.79c-1,0-1.84,.73-1.84,2.01s.85,2.04,1.84,2.04,1.85-.75,1.85-2.03-.86-2.02-1.85-2.02Z"/><path class="h" d="M235.48,248.97c-1.27,0-2.17-.7-2.23-1.69h.93c.05,.53,.52,.92,1.28,.92,.72,0,1.11-.36,1.11-.81,0-1.21-3.22-.51-3.22-2.54,0-.84,.79-1.52,2-1.52s2,.65,2.06,1.71h-.91c-.04-.55-.46-.95-1.18-.95-.67,0-1.06,.32-1.06,.76,0,1.29,3.16,.59,3.2,2.54,0,.9-.79,1.57-1.99,1.57Z"/><path class="h" d="M63.96,253.86c0-.35,.27-.62,.62-.62,.33,0,.6,.27,.6,.62s-.27,.62-.6,.62c-.35,0-.62-.27-.62-.62Zm.15,1.5h.91v5.45h-.91v-5.45Z"/><path class="h" d="M70.54,257.73c0-1.11-.61-1.68-1.52-1.68s-1.56,.58-1.56,1.75v3.01h-.91v-5.45h.91v.78c.36-.57,1.01-.88,1.75-.88,1.26,0,2.23,.78,2.23,2.34v3.21h-.9v-3.08Z"/><path class="h" d="M73.11,256.11h-.71v-.75h.71v-1.37h.91v1.37h1.42v.75h-1.42v3.21c0,.54,.2,.73,.76,.73h.67v.77h-.82c-.96,0-1.51-.4-1.51-1.49v-3.21Z"/><path class="h" d="M78.89,260.91c-1.55,0-2.7-1.09-2.7-2.83s1.1-2.81,2.7-2.81,2.62,1.11,2.62,2.61c0,.2,0,.36-.03,.55h-4.36c.07,1.1,.85,1.71,1.77,1.71,.82,0,1.33-.42,1.53-1h.98c-.28,1-1.15,1.77-2.51,1.77Zm-1.76-3.21h3.44c0-1.06-.79-1.65-1.72-1.65-.89,0-1.62,.59-1.72,1.65Z"/><path class="h" d="M83.61,260.82h-.91v-5.45h.91v.89c.31-.61,.9-.99,1.76-.99v.94h-.24c-.87,0-1.52,.39-1.52,1.65v2.96Z"/><path class="h" d="M86.74,255.37l1.7,4.62,1.69-4.62h.96l-2.14,5.45h-1.05l-2.14-5.45h.97Z"/><path class="h" d="M94.35,260.91c-1.55,0-2.7-1.09-2.7-2.83s1.1-2.81,2.7-2.81,2.62,1.11,2.62,2.61c0,.2,0,.36-.03,.55h-4.36c.07,1.1,.85,1.71,1.77,1.71,.82,0,1.33-.42,1.53-1h.97c-.28,1-1.15,1.77-2.51,1.77Zm-1.76-3.21h3.44c.01-1.06-.79-1.65-1.72-1.65-.89,0-1.62,.59-1.72,1.65Z"/><path class="h" d="M102.14,257.73c0-1.11-.61-1.68-1.52-1.68s-1.56,.58-1.56,1.75v3.01h-.91v-5.45h.91v.78c.36-.57,1.01-.88,1.75-.88,1.26,0,2.23,.78,2.23,2.34v3.21h-.9v-3.08Z"/><path class="h" d="M106.83,255.28c1.35,0,2.24,.7,2.52,1.84h-.98c-.19-.66-.74-1.07-1.54-1.07-.99,0-1.73,.71-1.73,2.04s.74,2.06,1.73,2.06c.81,0,1.34-.39,1.54-1.07h.98c-.26,1-1.04,1.73-2.24,1.83v.5c.77-.01,1.28,.33,1.28,.98s-.51,1.02-1.21,1.02h-1.14v-.59h.97c.43,0,.64-.12,.64-.44s-.21-.43-.64-.43h-.5v-1.06c-1.37-.14-2.33-1.2-2.33-2.81,0-1.71,1.1-2.81,2.66-2.81Z"/><path class="h" d="M112.93,260.91c-1.54,0-2.72-1.09-2.72-2.83s1.21-2.81,2.76-2.81,2.76,1.08,2.76,2.81-1.24,2.83-2.8,2.83Zm0-.8c.94,0,1.87-.65,1.87-2.03s-.91-2.02-1.84-2.02-1.82,.65-1.82,2.02,.85,2.03,1.79,2.03Zm-.42-6.45c.53,0,.73,.46,1.13,.46,.22,0,.4-.14,.44-.43h.52c-.08,.68-.48,1.04-.99,1.04s-.74-.46-1.13-.46c-.22,0-.39,.14-.43,.44h-.53c.1-.69,.48-1.04,1-1.04Z"/><path class="h" d="M119.27,260.91c-1.55,0-2.7-1.09-2.7-2.83s1.1-2.81,2.7-2.81,2.62,1.11,2.62,2.61c0,.2,0,.36-.03,.55h-4.36c.07,1.1,.85,1.71,1.77,1.71,.82,0,1.33-.42,1.53-1h.98c-.28,1-1.15,1.77-2.51,1.77Zm-1.76-3.21h3.44c0-1.06-.79-1.65-1.72-1.65-.89,0-1.62,.59-1.72,1.65Z"/><path class="h" d="M125.01,260.91c-1.27,0-2.17-.7-2.23-1.69h.94c.05,.53,.52,.92,1.28,.92,.72,0,1.11-.36,1.11-.81,0-1.21-3.22-.51-3.22-2.54,0-.84,.79-1.52,2-1.52s2,.65,2.06,1.71h-.91c-.04-.55-.46-.95-1.18-.95-.67,0-1.06,.32-1.06,.76,0,1.29,3.16,.59,3.2,2.54,0,.9-.79,1.57-1.99,1.57Z"/><path class="h" d="M133.26,262.67c-1.26-1.24-2.02-3.25-2.02-5.49s.76-4.35,2.17-5.65h.95v.09c-1.53,1.44-2.24,3.53-2.24,5.56s.71,3.98,2.09,5.4v.09h-.94Z"/><path class="h" d="M136.35,260.82h-.91v-5.45h.91v.89c.31-.61,.9-.99,1.76-.99v.94h-.24c-.87,0-1.52,.39-1.52,1.65v2.96Z"/><path class="h" d="M141.51,260.91c-1.55,0-2.7-1.09-2.7-2.83s1.1-2.81,2.7-2.81,2.62,1.11,2.62,2.61c0,.2,0,.36-.03,.55h-4.36c.07,1.1,.85,1.71,1.77,1.71,.82,0,1.33-.42,1.53-1h.97c-.28,1-1.15,1.77-2.51,1.77Zm-1.76-3.21h3.44c.01-1.06-.79-1.65-1.72-1.65-.89,0-1.62,.59-1.72,1.65Z"/><path class="h" d="M147.25,260.91c-1.27,0-2.17-.7-2.23-1.69h.94c.05,.53,.52,.92,1.28,.92,.72,0,1.11-.36,1.11-.81,0-1.21-3.22-.51-3.22-2.54,0-.84,.79-1.52,2-1.52s2,.65,2.06,1.71h-.91c-.04-.55-.46-.95-1.18-.95-.67,0-1.06,.32-1.06,.76,0,1.29,3.16,.59,3.2,2.54,0,.9-.79,1.57-1.99,1.57Z"/><path class="h" d="M155.34,260.82h-.91v-.81c-.35,.57-1.01,.88-1.74,.88-1.25,0-2.24-.78-2.24-2.34v-3.19h.9v3.07c0,1.1,.61,1.67,1.52,1.67s1.56-.58,1.56-1.75v-2.99h.91v5.45Z"/><path class="h" d="M156.87,253.46h.91v7.36h-.91v-7.36Z"/><path class="h" d="M159.52,256.11h-.71v-.75h.71v-1.37h.91v1.37h1.42v.75h-1.42v3.21c0,.54,.2,.73,.76,.73h.67v.77h-.82c-.96,0-1.51-.4-1.51-1.49v-3.21Z"/><path class="h" d="M165.18,255.28c1.01,0,1.71,.52,2.03,1.08v-1h.92v5.45h-.92v-1.01c-.33,.59-1.04,1.1-2.04,1.1-1.45,0-2.58-1.14-2.58-2.83s1.12-2.8,2.59-2.8Zm.18,.79c-1,0-1.84,.73-1.84,2.01s.85,2.04,1.84,2.04,1.85-.75,1.85-2.03-.86-2.02-1.85-2.02Z"/><path class="h" d="M171.92,255.28c.86,0,1.64,.44,2.02,1.06v-2.88h.92v7.36h-.92v-1.03c-.33,.61-1.03,1.11-2.03,1.11-1.46,0-2.59-1.14-2.59-2.83s1.12-2.8,2.6-2.8Zm.17,.79c-1,0-1.84,.73-1.84,2.01s.84,2.04,1.84,2.04,1.85-.75,1.85-2.03-.86-2.02-1.85-2.02Z"/><path class="h" d="M178.76,260.91c-1.54,0-2.72-1.09-2.72-2.83s1.21-2.81,2.76-2.81,2.76,1.08,2.76,2.81-1.24,2.83-2.8,2.83Zm0-.8c.95,0,1.87-.65,1.87-2.03s-.91-2.02-1.84-2.02-1.82,.65-1.82,2.02,.85,2.03,1.79,2.03Z"/><path class="h" d="M184.67,260.91c-1.27,0-2.17-.7-2.23-1.69h.93c.05,.53,.52,.92,1.28,.92,.72,0,1.11-.36,1.11-.81,0-1.21-3.22-.51-3.22-2.54,0-.84,.79-1.52,2-1.52s2,.65,2.06,1.71h-.91c-.04-.55-.46-.95-1.18-.95-.67,0-1.06,.32-1.06,.76,0,1.29,3.16,.59,3.2,2.54,0,.9-.79,1.57-1.99,1.57Z"/><path class="h" d="M187.87,259.56h1l-1.11,2.68h-.61l.73-2.68Z"/><path class="h" d="M200.43,257.73c0-1.11-.6-1.68-1.49-1.68s-1.54,.59-1.54,1.76v3h-.9v-3.08c0-1.11-.6-1.68-1.49-1.68s-1.54,.59-1.54,1.76v3h-.91v-5.45h.91v.79c.36-.58,1-.89,1.72-.89,.9,0,1.64,.4,2,1.21,.32-.79,1.09-1.21,1.93-1.21,1.24,0,2.21,.78,2.21,2.34v3.21h-.9v-3.08Z"/><path class="h" d="M205.16,260.91c-1.55,0-2.7-1.09-2.7-2.83s1.1-2.81,2.7-2.81,2.62,1.11,2.62,2.61c0,.2,0,.36-.03,.55h-4.36c.07,1.1,.84,1.71,1.77,1.71,.82,0,1.33-.42,1.53-1h.97c-.28,1-1.15,1.77-2.51,1.77Zm-1.76-3.21h3.44c0-1.06-.79-1.65-1.72-1.65-.89,0-1.62,.59-1.72,1.65Z"/><path class="h" d="M209.16,256.11h-.71v-.75h.71v-1.37h.91v1.37h1.42v.75h-1.42v3.21c0,.54,.2,.73,.76,.73h.67v.77h-.82c-.96,0-1.51-.4-1.51-1.49v-3.21Z"/><path class="h" d="M214.83,255.28c1.01,0,1.71,.52,2.03,1.08v-1h.92v5.45h-.92v-1.01c-.33,.59-1.03,1.1-2.04,1.1-1.45,0-2.58-1.14-2.58-2.83s1.12-2.8,2.59-2.8Zm.18,.79c-1,0-1.84,.73-1.84,2.01s.84,2.04,1.84,2.04,1.85-.75,1.85-2.03-.86-2.02-1.85-2.02Z"/><path class="h" d="M221.24,260.91c-1.27,0-2.17-.7-2.23-1.69h.93c.05,.53,.52,.92,1.28,.92,.72,0,1.11-.36,1.11-.81,0-1.21-3.22-.51-3.22-2.54,0-.84,.79-1.52,2-1.52s2,.65,2.06,1.71h-.91c-.04-.55-.46-.95-1.18-.95-.67,0-1.06,.32-1.06,.76,0,1.29,3.16,.59,3.2,2.54,0,.9-.79,1.57-1.99,1.57Z"/><path class="h" d="M224.44,259.56h1l-1.11,2.68h-.61l.73-2.68Z"/><path class="h" d="M66.48,272.84c-1.54,0-2.72-1.09-2.72-2.83s1.21-2.81,2.76-2.81,2.76,1.08,2.76,2.81-1.24,2.83-2.8,2.83Zm0-.8c.94,0,1.87-.65,1.87-2.03s-.91-2.02-1.84-2.02-1.82,.65-1.82,2.02,.85,2.03,1.79,2.03Z"/><path class="h" d="M73.41,267.21c1.47,0,2.59,1.09,2.59,2.8s-1.12,2.83-2.59,2.83c-1,0-1.7-.5-2.04-1.09v1h-.91v-7.36h.91v2.92c.35-.61,1.07-1.1,2.04-1.1Zm-.19,.79c-.98,0-1.85,.76-1.85,2.02s.87,2.03,1.85,2.03,1.85-.76,1.85-2.04-.85-2.01-1.85-2.01Z"/><path class="h" d="M78.13,267.3v6.64c0,.99-.52,1.4-1.44,1.4h-.53v-.77h.38c.5,0,.69-.18,.69-.66v-6.62h.91Zm-1.05-1.5c0-.35,.27-.62,.61-.62s.61,.27,.61,.62-.27,.62-.61,.62-.61-.27-.61-.62Z"/><path class="h" d="M82.02,272.84c-1.55,0-2.7-1.09-2.7-2.83s1.1-2.81,2.7-2.81,2.62,1.11,2.62,2.61c0,.2,0,.36-.03,.55h-4.36c.07,1.1,.85,1.71,1.77,1.71,.82,0,1.33-.42,1.53-1h.97c-.28,1-1.15,1.77-2.51,1.77Zm-1.76-3.21h3.44c.01-1.06-.79-1.65-1.72-1.65-.89,0-1.62,.59-1.72,1.65Z"/><path class="h" d="M86.02,268.04h-.71v-.75h.71v-1.37h.91v1.37h1.42v.75h-1.42v3.21c0,.54,.2,.73,.76,.73h.67v.77h-.82c-.96,0-1.51-.4-1.51-1.49v-3.21Z"/><path class="h" d="M89.29,265.8c0-.35,.27-.62,.62-.62,.33,0,.6,.27,.6,.62s-.27,.62-.6,.62c-.35,0-.62-.27-.62-.62Zm.15,1.5h.91v5.45h-.91v-5.45Z"/><path class="h" d="M92.22,267.3l1.7,4.62,1.69-4.62h.97l-2.14,5.45h-1.05l-2.14-5.45h.98Z"/><path class="h" d="M99.84,272.84c-1.54,0-2.72-1.09-2.72-2.83s1.21-2.81,2.76-2.81,2.76,1.08,2.76,2.81-1.24,2.83-2.8,2.83Zm0-.8c.94,0,1.87-.65,1.87-2.03s-.91-2.02-1.84-2.02-1.82,.65-1.82,2.02,.85,2.03,1.79,2.03Z"/><path class="h" d="M105.76,272.84c-1.27,0-2.17-.7-2.23-1.69h.94c.05,.53,.52,.92,1.28,.92,.72,0,1.11-.36,1.11-.81,0-1.21-3.22-.51-3.22-2.54,0-.84,.79-1.52,2-1.52s2,.65,2.06,1.71h-.91c-.04-.55-.46-.95-1.18-.95-.67,0-1.06,.32-1.06,.76,0,1.29,3.16,.59,3.2,2.54,0,.9-.79,1.57-1.99,1.57Z"/><path class="h" d="M108.73,274.6v-.09c1.38-1.42,2.09-3.38,2.09-5.4s-.71-4.12-2.24-5.56v-.09h.95c1.41,1.3,2.17,3.4,2.17,5.65s-.76,4.25-2.02,5.49h-.95Z"/><path class="h" d="M113.82,272.81c-.35,0-.62-.27-.62-.62s.27-.62,.62-.62c.33,0,.6,.27,.6,.62s-.27,.62-.6,.62Z"/></g><g><rect class="j" x="254.36" y="182.32" width="205.27" height="38.36" rx="19.18" ry="19.18"/><g><path class="h" d="M293.01,195.74h2.01l1.96,4.83,1.94-4.83h2v6.98h-1.7v-4.19l-1.56,4.19h-1.37l-1.57-4.2v4.2h-1.7v-6.98Z"/><path class="h" d="M305.44,202.8c-1.98,0-3.59-1.48-3.59-3.58s1.61-3.57,3.59-3.57,3.57,1.47,3.57,3.57-1.59,3.58-3.57,3.58Zm0-1.55c1.11,0,1.84-.81,1.84-2.03s-.73-2.03-1.84-2.03-1.85,.79-1.85,2.03,.72,2.03,1.85,2.03Z"/><path class="h" d="M316.2,195.74v6.98h-1.7l-2.84-4.31v4.31h-1.7v-6.98h1.7l2.84,4.33v-4.33h1.7Z"/><path class="h" d="M317.43,195.74h1.7v6.98h-1.7v-6.98Z"/><path class="h" d="M319.99,195.74h5.4v1.36h-1.85v5.62h-1.7v-5.62h-1.85v-1.36Z"/><path class="h" d="M329.55,202.8c-1.98,0-3.59-1.48-3.59-3.58s1.61-3.57,3.59-3.57,3.57,1.47,3.57,3.57-1.59,3.58-3.57,3.58Zm0-1.55c1.11,0,1.84-.81,1.84-2.03s-.73-2.03-1.84-2.03-1.85,.79-1.85,2.03,.72,2.03,1.85,2.03Z"/><path class="h" d="M336.91,195.74c1.71,0,2.57,.98,2.57,2.2,0,.88-.48,1.7-1.55,2.02l1.61,2.77h-1.92l-1.45-2.64h-.41v2.64h-1.7v-6.98h2.85Zm-.1,1.41h-1.05v1.73h1.05c.64,0,.93-.33,.93-.88,0-.52-.3-.86-.93-.86Z"/><path class="h" d="M344.89,201.49h-2.61l-.42,1.23h-1.78l2.53-6.98h1.97l2.53,6.98h-1.8l-.42-1.23Zm-1.3-3.87l-.86,2.56h1.72l-.87-2.56Z"/><path class="h" d="M347.87,195.74h2.01l1.96,4.83,1.94-4.83h2v6.98h-1.7v-4.19l-1.56,4.19h-1.37l-1.57-4.2v4.2h-1.7v-6.98Z"/><path class="h" d="M361.28,197.1h-2.58v1.41h2.28v1.31h-2.28v1.53h2.58v1.36h-4.28v-6.98h4.28v1.36Z"/><path class="h" d="M368.63,195.74v6.98h-1.7l-2.84-4.31v4.31h-1.7v-6.98h1.7l2.84,4.33v-4.33h1.7Z"/><path class="h" d="M369.48,195.74h5.4v1.36h-1.85v5.62h-1.7v-5.62h-1.85v-1.36Z"/><path class="h" d="M379.04,202.8c-1.98,0-3.59-1.48-3.59-3.58s1.61-3.57,3.59-3.57,3.57,1.47,3.57,3.57-1.59,3.58-3.57,3.58Zm0-1.55c1.11,0,1.84-.81,1.84-2.03s-.73-2.03-1.84-2.03-1.85,.79-1.85,2.03,.72,2.03,1.85,2.03Z"/><path class="h" d="M391.91,195.74v6.98h-1.7l-2.84-4.31v4.31h-1.7v-6.98h1.7l2.84,4.33v-4.33h1.7Z"/><path class="h" d="M397.48,201.49h-2.61l-.42,1.23h-1.78l2.53-6.98h1.97l2.53,6.98h-1.8l-.42-1.23Zm-1.3-3.87l-.86,2.56h1.72l-.87-2.56Z"/><path class="h" d="M406.92,201.49h-2.61l-.42,1.23h-1.78l2.53-6.98h1.97l2.53,6.98h-1.8l-.42-1.23Zm-1.3-3.87l-.86,2.56h1.72l-.87-2.56Z"/><path class="h" d="M412.66,200.22h-1.05v2.51h-1.7v-6.98h2.76c1.71,0,2.57,.96,2.57,2.25,0,1.15-.79,2.23-2.57,2.23Zm-.13-1.35c.68,0,.96-.34,.96-.88s-.29-.88-.96-.88h-.92v1.75h.92Z"/><path class="h" d="M418.63,202.8c-1.5,0-2.68-.75-2.73-2.16h1.81c.05,.54,.39,.8,.87,.8s.82-.25,.82-.66c0-1.29-3.49-.6-3.47-3.07,0-1.32,1.08-2.06,2.55-2.06s2.55,.76,2.62,2.09h-1.84c-.03-.45-.35-.72-.81-.73-.41,0-.72,.2-.72,.64,0,1.21,3.45,.67,3.45,3,0,1.17-.92,2.15-2.55,2.15Z"/></g></g><g id="b"><path class="i" d="M356.99,120.11l-5.19,5.19c-.38,.38-.99,.38-1.37,0h0c-.38-.39-.38-1.01,0-1.4l5.87-5.88c.37-.37,.96-.38,1.35-.03l5.92,5.91c.39,.38,.39,1,0,1.39-.38,.39-1,.39-1.39,0h0l-5.19-5.19h0Z"/></g><g id="c"><path class="i" d="M357.01,283.23l5.19-5.19c.38-.38,.99-.38,1.37,0h0c.38,.39,.38,1.01,0,1.4l-5.87,5.88c-.37,.37-.96,.38-1.35,.03l-5.92-5.91c-.39-.38-.39-1,0-1.39,.38-.39,1-.39,1.39,0h0l5.19,5.19h0Z"/></g><g id="d"><path class="i" d="M425.96,158.13l-7.16-1.61c-.52-.12-.85-.63-.74-1.16h0c.12-.54,.65-.87,1.18-.75l8.11,1.83c.51,.12,.84,.61,.75,1.13l-1.84,8.16c-.12,.53-.64,.86-1.17,.75-.53-.12-.86-.64-.75-1.17h0l1.61-7.17h0Z"/></g><g id="e"><path class="i" d="M288.04,245.21l7.16,1.61c.52,.12,.85,.63,.74,1.16h0c-.12,.54-.65,.87-1.18,.75l-8.11-1.83c-.51-.12-.84-.61-.75-1.13l1.84-8.16c.12-.53,.64-.86,1.17-.75,.53,.12,.86,.64,.75,1.17h0l-1.61,7.17h0Z"/></g><g><g id="f"><path class="i" d="M288.04,158.13l7.16-1.61c.52-.12,.85-.63,.74-1.16h0c-.12-.54-.65-.87-1.18-.75l-8.11,1.83c-.51,.12-.84,.61-.75,1.13l1.84,8.16c.12,.53,.64,.86,1.17,.75,.53-.12,.86-.64,.75-1.17h0l-1.61-7.17h0Z"/></g><g id="g"><path class="i" d="M425.96,245.21l-7.16,1.61c-.52,.12-.85,.63-.74,1.16h0c.12,.54,.65,.87,1.18,.75l8.11-1.83c.51-.12,.84-.61,.75-1.13l-1.84-8.16c-.12-.53-.64-.86-1.17-.75-.53,.12-.86,.64-.75,1.17h0l1.61,7.17h0Z"/></g></g></svg>