<?xml version="1.0" encoding="UTF-8"?><svg id="a" xmlns="http://www.w3.org/2000/svg" viewBox="0 0 714 403"><defs><style>.l{fill:#fff;}.m{fill:#29696d;}.n{fill:#0e8041;}.o{fill:#3f6b71;}.p{fill:#ffa800;}.q{fill:#506d8f;}.r{fill:#1b8790;}.s{fill:#55bdcb;}</style></defs><rect class="q" x="269.36" y="14.3" width="205.27" height="38.36" rx="19.18" ry="19.18"/><g><path class="l" d="M283.68,30.69h-2.83v2.32h2.53v.75h-2.53v2.39h2.83v.75h-3.73v-6.94h3.73v.75Z"/><path class="l" d="M285.05,29.52h.91v7.36h-.91v-7.36Z"/><path class="l" d="M289.75,31.34c1.01,0,1.71,.52,2.03,1.08v-.99h.92v5.45h-.92v-1.01c-.33,.59-1.03,1.1-2.04,1.1-1.45,0-2.58-1.14-2.58-2.83s1.12-2.8,2.59-2.8Zm.18,.79c-.99,0-1.84,.73-1.84,2.01s.85,2.04,1.84,2.04,1.85-.75,1.85-2.03-.86-2.02-1.85-2.02Z"/><path class="l" d="M297.17,31.34c1.47,0,2.59,1.09,2.59,2.8s-1.12,2.83-2.59,2.83c-1,0-1.7-.5-2.04-1.09v1h-.91v-7.36h.91v2.92c.35-.61,1.07-1.1,2.04-1.1Zm-.19,.79c-.98,0-1.85,.76-1.85,2.02s.87,2.03,1.85,2.03,1.85-.76,1.85-2.04-.85-2.01-1.85-2.01Z"/><path class="l" d="M303.32,36.97c-1.54,0-2.72-1.09-2.72-2.83s1.21-2.81,2.76-2.81,2.76,1.08,2.76,2.81-1.24,2.83-2.8,2.83Zm0-.8c.94,0,1.87-.65,1.87-2.03s-.91-2.02-1.84-2.02-1.82,.65-1.82,2.02,.85,2.03,1.79,2.03Z"/><path class="l" d="M308.21,36.89h-.91v-5.45h.91v.89c.31-.61,.9-.98,1.76-.98v.94h-.24c-.87,0-1.52,.39-1.52,1.65v2.96Z"/><path class="l" d="M313.27,31.34c1.01,0,1.71,.52,2.03,1.08v-.99h.92v5.45h-.92v-1.01c-.33,.59-1.03,1.1-2.04,1.1-1.45,0-2.58-1.14-2.58-2.83s1.12-2.8,2.59-2.8Zm.18,.79c-.99,0-1.84,.73-1.84,2.01s.85,2.04,1.84,2.04,1.85-.75,1.85-2.03-.86-2.02-1.85-2.02Z"/><path class="l" d="M320.06,31.34c1.35,0,2.24,.7,2.52,1.84h-.98c-.19-.66-.74-1.07-1.54-1.07-.99,0-1.73,.71-1.73,2.04s.74,2.06,1.73,2.06c.81,0,1.34-.39,1.54-1.07h.98c-.26,1-1.04,1.73-2.24,1.83v.5c.77-.01,1.28,.33,1.28,.98s-.51,1.02-1.21,1.02h-1.14v-.59h.97c.43,0,.64-.12,.64-.44s-.21-.43-.64-.43h-.5v-1.06c-1.37-.14-2.33-1.2-2.33-2.81,0-1.71,1.1-2.81,2.66-2.81Z"/><path class="l" d="M326.02,31.34c1.01,0,1.71,.52,2.03,1.08v-.99h.92v5.45h-.92v-1.01c-.33,.59-1.03,1.1-2.04,1.1-1.45,0-2.58-1.14-2.58-2.83s1.12-2.8,2.59-2.8Zm.18,.79c-.99,0-1.84,.73-1.84,2.01s.85,2.04,1.84,2.04,1.85-.75,1.85-2.03-.86-2.02-1.85-2.02Zm-.29-2.33c.53,0,.73,.46,1.13,.46,.22,0,.4-.14,.44-.43h.52c-.08,.68-.48,1.03-.99,1.03s-.74-.46-1.13-.46c-.22,0-.39,.14-.43,.44h-.53c.1-.69,.48-1.04,.99-1.04Z"/><path class="l" d="M332.87,36.97c-1.54,0-2.72-1.09-2.72-2.83s1.21-2.81,2.76-2.81,2.76,1.08,2.76,2.81-1.24,2.83-2.8,2.83Zm0-.8c.94,0,1.87-.65,1.87-2.03s-.91-2.02-1.84-2.02-1.82,.65-1.82,2.02,.85,2.03,1.79,2.03Z"/><path class="l" d="M341.77,31.34c.86,0,1.64,.44,2.02,1.06v-2.88h.92v7.36h-.92v-1.02c-.33,.61-1.03,1.11-2.03,1.11-1.46,0-2.59-1.14-2.59-2.83s1.12-2.8,2.6-2.8Zm.17,.79c-.99,0-1.84,.73-1.84,2.01s.85,2.04,1.84,2.04,1.85-.75,1.85-2.03-.86-2.02-1.85-2.02Z"/><path class="l" d="M348.62,36.97c-1.54,0-2.72-1.09-2.72-2.83s1.21-2.81,2.76-2.81,2.76,1.08,2.76,2.81-1.24,2.83-2.8,2.83Zm0-.8c.94,0,1.87-.65,1.87-2.03s-.91-2.02-1.84-2.02-1.82,.65-1.82,2.02,.85,2.03,1.79,2.03Z"/><path class="l" d="M357.52,31.34c.86,0,1.64,.44,2.02,1.06v-2.88h.92v7.36h-.92v-1.02c-.33,.61-1.04,1.11-2.03,1.11-1.46,0-2.59-1.14-2.59-2.83s1.12-2.8,2.6-2.8Zm.17,.79c-.99,0-1.84,.73-1.84,2.01s.85,2.04,1.84,2.04,1.85-.75,1.85-2.03-.86-2.02-1.85-2.02Z"/><path class="l" d="M361.83,29.93c0-.35,.27-.62,.62-.62,.33,0,.6,.27,.6,.62s-.27,.62-.6,.62c-.35,0-.62-.27-.62-.62Zm.15,1.5h.91v5.45h-.91v-5.45Z"/><path class="l" d="M366.67,31.34c1.01,0,1.71,.52,2.03,1.08v-.99h.92v5.45h-.92v-1.01c-.33,.59-1.03,1.1-2.04,1.1-1.45,0-2.58-1.14-2.58-2.83s1.12-2.8,2.59-2.8Zm.18,.79c-.99,0-1.84,.73-1.84,2.01s.85,2.04,1.84,2.04,1.85-.75,1.85-2.03-.86-2.02-1.85-2.02Z"/><path class="l" d="M373.4,31.34c1,0,1.71,.5,2.03,1.08v-.99h.92v5.57c0,1.5-1,2.57-2.61,2.57-1.43,0-2.46-.73-2.64-1.89h.9c.2,.66,.85,1.1,1.74,1.1,.97,0,1.69-.62,1.69-1.78v-1.14c-.33,.59-1.03,1.11-2.03,1.11-1.46,0-2.59-1.14-2.59-2.83s1.12-2.8,2.59-2.8Zm.18,.79c-.99,0-1.84,.73-1.84,2.01s.85,2.04,1.84,2.04,1.85-.75,1.85-2.03-.86-2.02-1.85-2.02Z"/><path class="l" d="M381.86,33.8c0-1.11-.61-1.68-1.52-1.68s-1.56,.58-1.56,1.75v3.01h-.91v-5.45h.91v.78c.36-.57,1.01-.88,1.75-.88,1.26,0,2.23,.78,2.23,2.34v3.21h-.89v-3.08Z"/><path class="l" d="M386.61,36.97c-1.54,0-2.72-1.09-2.72-2.83s1.21-2.81,2.76-2.81,2.76,1.08,2.76,2.81-1.24,2.83-2.8,2.83Zm0-.8c.95,0,1.87-.65,1.87-2.03s-.91-2.02-1.84-2.02-1.82,.65-1.82,2.02,.85,2.03,1.79,2.03Zm1.01-7.14v.79l-2.12,1.13v-.68l2.12-1.24Z"/><path class="l" d="M392.53,36.97c-1.27,0-2.17-.7-2.23-1.69h.93c.05,.53,.52,.93,1.28,.93,.72,0,1.11-.36,1.11-.81,0-1.21-3.22-.51-3.22-2.54,0-.84,.79-1.52,2-1.52s2,.65,2.06,1.71h-.91c-.04-.55-.46-.95-1.18-.95-.67,0-1.06,.32-1.06,.76,0,1.29,3.16,.59,3.2,2.54,0,.9-.79,1.57-1.99,1.57Z"/><path class="l" d="M395.99,32.18h-.71v-.75h.71v-1.37h.91v1.37h1.42v.75h-1.42v3.21c0,.54,.2,.73,.76,.73h.67v.77h-.82c-.96,0-1.51-.4-1.51-1.49v-3.21Z"/><path class="l" d="M399.26,29.93c0-.35,.27-.62,.62-.62,.33,0,.6,.27,.6,.62s-.27,.62-.6,.62c-.35,0-.62-.27-.62-.62Zm.15,1.5h.91v5.45h-.91v-5.45Z"/><path class="l" d="M404.17,31.34c1.35,0,2.24,.7,2.52,1.84h-.98c-.19-.66-.74-1.07-1.54-1.07-1,0-1.73,.71-1.73,2.04s.74,2.06,1.73,2.06c.81,0,1.34-.39,1.54-1.07h.98c-.28,1.08-1.16,1.84-2.52,1.84-1.55,0-2.66-1.09-2.66-2.83s1.1-2.81,2.66-2.81Z"/><path class="l" d="M410.27,36.97c-1.54,0-2.72-1.09-2.72-2.83s1.21-2.81,2.76-2.81,2.76,1.08,2.76,2.81-1.24,2.83-2.8,2.83Zm0-.8c.95,0,1.87-.65,1.87-2.03s-.91-2.02-1.84-2.02-1.82,.65-1.82,2.02,.85,2.03,1.79,2.03Z"/><path class="l" d="M418.84,36.97c-1.27,0-2.17-.7-2.23-1.69h.93c.05,.53,.52,.93,1.28,.93,.72,0,1.11-.36,1.11-.81,0-1.21-3.22-.51-3.22-2.54,0-.84,.79-1.52,2-1.52s2,.65,2.06,1.71h-.91c-.04-.55-.46-.95-1.18-.95-.67,0-1.06,.32-1.06,.76,0,1.29,3.16,.59,3.2,2.54,0,.9-.79,1.57-1.99,1.57Z"/><path class="l" d="M421.95,29.93c0-.35,.27-.62,.62-.62,.33,0,.6,.27,.6,.62s-.27,.62-.6,.62c-.35,0-.62-.27-.62-.62Zm.15,1.5h.91v5.45h-.91v-5.45Z"/><path class="l" d="M424.74,32.18h-.71v-.75h.71v-1.37h.91v1.37h1.42v.75h-1.42v3.21c0,.54,.2,.73,.76,.73h.67v.77h-.82c-.97,0-1.51-.4-1.51-1.49v-3.21Z"/><path class="l" d="M433,36.89h-.91v-.81c-.35,.57-1.02,.89-1.74,.89-1.25,0-2.24-.78-2.24-2.34v-3.19h.9v3.07c0,1.1,.61,1.67,1.52,1.67s1.56-.58,1.56-1.75v-2.99h.91v5.45Z"/><path class="l" d="M436.78,31.34c1.01,0,1.71,.52,2.03,1.08v-.99h.92v5.45h-.92v-1.01c-.33,.59-1.03,1.1-2.04,1.1-1.45,0-2.58-1.14-2.58-2.83s1.12-2.8,2.59-2.8Zm.18,.79c-1,0-1.84,.73-1.84,2.01s.84,2.04,1.84,2.04,1.85-.75,1.85-2.03-.86-2.02-1.85-2.02Z"/><path class="l" d="M443.57,31.34c1.35,0,2.24,.7,2.52,1.84h-.98c-.19-.66-.74-1.07-1.54-1.07-1,0-1.73,.71-1.73,2.04s.74,2.06,1.73,2.06c.81,0,1.34-.39,1.54-1.07h.98c-.28,1.08-1.16,1.84-2.52,1.84-1.55,0-2.66-1.09-2.66-2.83s1.1-2.81,2.66-2.81Z"/><path class="l" d="M447.14,29.93c0-.35,.27-.62,.62-.62,.33,0,.6,.27,.6,.62s-.27,.62-.6,.62c-.35,0-.62-.27-.62-.62Zm.15,1.5h.91v5.45h-.91v-5.45Z"/><path class="l" d="M452.11,36.97c-1.54,0-2.72-1.09-2.72-2.83s1.21-2.81,2.76-2.81,2.76,1.08,2.76,2.81-1.24,2.83-2.8,2.83Zm0-.8c.95,0,1.87-.65,1.87-2.03s-.91-2.02-1.84-2.02-1.82,.65-1.82,2.02,.84,2.03,1.79,2.03Z"/><path class="l" d="M460.09,33.8c0-1.11-.61-1.68-1.52-1.68s-1.56,.58-1.56,1.75v3.01h-.91v-5.45h.91v.78c.36-.57,1.02-.88,1.75-.88,1.26,0,2.23,.78,2.23,2.34v3.21h-.9v-3.08Z"/><path class="l" d="M464.71,31.34c1.01,0,1.71,.52,2.03,1.08v-.99h.92v5.45h-.92v-1.01c-.33,.59-1.03,1.1-2.04,1.1-1.45,0-2.58-1.14-2.58-2.83s1.12-2.8,2.59-2.8Zm.18,.79c-1,0-1.84,.73-1.84,2.01s.84,2.04,1.84,2.04,1.85-.75,1.85-2.03-.86-2.02-1.85-2.02Z"/><path class="l" d="M469.18,29.52h.91v7.36h-.91v-7.36Z"/></g><rect class="q" x="269.36" y="351.3" width="205.27" height="38.36" rx="19.18" ry="19.18"/><g><path class="l" d="M311.77,372.95c-1.95,0-3.48-1.46-3.48-3.54s1.53-3.54,3.48-3.54,3.48,1.46,3.48,3.54-1.52,3.54-3.48,3.54Zm0-.79c1.46,0,2.56-1.06,2.56-2.76s-1.09-2.76-2.56-2.76-2.56,1.05-2.56,2.76,1.09,2.76,2.56,2.76Z"/><path class="l" d="M316.64,368.18h-.71v-.75h.71v-1.37h.91v1.37h1.42v.75h-1.42v3.21c0,.54,.2,.73,.76,.73h.67v.77h-.82c-.96,0-1.51-.4-1.51-1.49v-3.21Z"/><path class="l" d="M319.91,365.93c0-.35,.27-.62,.62-.62,.33,0,.6,.27,.6,.62s-.27,.62-.6,.62c-.35,0-.62-.27-.62-.62Zm.15,1.5h.91v5.45h-.91v-5.45Z"/><path class="l" d="M330.38,369.8c0-1.11-.6-1.68-1.49-1.68s-1.54,.59-1.54,1.76v3h-.9v-3.08c0-1.11-.6-1.68-1.49-1.68s-1.54,.59-1.54,1.76v3h-.91v-5.45h.91v.79c.36-.58,1-.89,1.72-.89,.9,0,1.64,.4,2,1.21,.32-.79,1.09-1.21,1.93-1.21,1.24,0,2.21,.78,2.21,2.34v3.21h-.9v-3.08Z"/><path class="l" d="M332.6,365.93c0-.35,.27-.62,.62-.62,.33,0,.6,.27,.6,.62s-.27,.62-.6,.62c-.35,0-.62-.27-.62-.62Zm.15,1.5h.91v5.45h-.91v-5.45Z"/><path class="l" d="M338.53,368.17l-2.66,3.97h2.68v.75h-3.71v-.75l2.65-3.97h-2.63v-.74h3.67v.74Z"/><path class="l" d="M341.97,367.34c1.01,0,1.71,.52,2.03,1.08v-1h.92v5.45h-.92v-1.01c-.33,.59-1.03,1.1-2.04,1.1-1.45,0-2.58-1.14-2.58-2.83s1.12-2.8,2.59-2.8Zm.18,.79c-.99,0-1.84,.73-1.84,2.01s.85,2.04,1.84,2.04,1.85-.75,1.85-2.03-.86-2.02-1.85-2.02Z"/><path class="l" d="M348.76,367.34c1.35,0,2.24,.7,2.52,1.84h-.98c-.19-.66-.74-1.07-1.54-1.07-.99,0-1.73,.71-1.73,2.04s.74,2.06,1.73,2.06c.81,0,1.34-.39,1.54-1.07h.98c-.26,1-1.04,1.73-2.24,1.83v.5c.77-.01,1.28,.33,1.28,.98s-.51,1.02-1.21,1.02h-1.14v-.59h.97c.43,0,.64-.12,.64-.44s-.21-.43-.64-.43h-.5v-1.06c-1.37-.14-2.33-1.2-2.33-2.81,0-1.71,1.1-2.81,2.66-2.81Z"/><path class="l" d="M354.73,367.34c1.01,0,1.71,.52,2.03,1.08v-1h.92v5.45h-.92v-1.01c-.33,.59-1.03,1.1-2.04,1.1-1.45,0-2.58-1.14-2.58-2.83s1.12-2.8,2.59-2.8Zm.18,.79c-.99,0-1.84,.73-1.84,2.01s.85,2.04,1.84,2.04,1.85-.75,1.85-2.03-.86-2.02-1.85-2.02Zm-.29-2.33c.53,0,.73,.46,1.13,.46,.22,0,.4-.14,.44-.43h.52c-.08,.68-.48,1.03-.99,1.03s-.74-.46-1.13-.46c-.22,0-.39,.14-.43,.44h-.53c.1-.69,.48-1.04,1-1.04Z"/><path class="l" d="M361.58,372.97c-1.54,0-2.72-1.09-2.72-2.83s1.21-2.81,2.76-2.81,2.76,1.08,2.76,2.81-1.24,2.83-2.79,2.83Zm0-.8c.94,0,1.87-.65,1.87-2.03s-.91-2.02-1.84-2.02-1.82,.65-1.82,2.02,.85,2.03,1.79,2.03Z"/><path class="l" d="M370.48,367.34c.86,0,1.64,.44,2.02,1.06v-2.88h.92v7.36h-.92v-1.03c-.33,.61-1.04,1.11-2.03,1.11-1.46,0-2.59-1.14-2.59-2.83s1.12-2.8,2.6-2.8Zm.17,.79c-1,0-1.84,.73-1.84,2.01s.85,2.04,1.84,2.04,1.85-.75,1.85-2.03-.86-2.02-1.85-2.02Z"/><path class="l" d="M377.32,372.97c-1.54,0-2.72-1.09-2.72-2.83s1.21-2.81,2.76-2.81,2.76,1.08,2.76,2.81-1.24,2.83-2.8,2.83Zm0-.8c.95,0,1.87-.65,1.87-2.03s-.91-2.02-1.84-2.02-1.82,.65-1.82,2.02,.85,2.03,1.79,2.03Z"/><path class="l" d="M383.24,372.97c-1.27,0-2.17-.7-2.23-1.69h.93c.05,.53,.52,.92,1.28,.92,.72,0,1.11-.36,1.11-.81,0-1.21-3.22-.51-3.22-2.54,0-.84,.79-1.52,2-1.52s2,.65,2.06,1.71h-.91c-.04-.55-.46-.95-1.18-.95-.67,0-1.06,.32-1.06,.76,0,1.29,3.16,.59,3.2,2.54,0,.9-.79,1.57-1.99,1.57Z"/><path class="l" d="M390.06,372.89h-.91v-5.45h.91v.89c.31-.61,.9-.99,1.76-.99v.94h-.24c-.87,0-1.52,.39-1.52,1.65v2.96Z"/><path class="l" d="M395.22,372.97c-1.55,0-2.7-1.09-2.7-2.83s1.1-2.81,2.7-2.81,2.62,1.11,2.62,2.61c0,.2,0,.36-.03,.55h-4.36c.07,1.1,.85,1.71,1.77,1.71,.82,0,1.33-.42,1.53-1h.97c-.28,1-1.15,1.77-2.51,1.77Zm-1.76-3.21h3.44c.01-1.06-.79-1.65-1.72-1.65-.89,0-1.62,.59-1.72,1.65Z"/><path class="l" d="M401.34,367.34c1.35,0,2.24,.7,2.52,1.84h-.97c-.19-.66-.74-1.07-1.54-1.07-1,0-1.73,.71-1.73,2.04s.74,2.06,1.73,2.06c.81,0,1.34-.39,1.54-1.07h.97c-.28,1.08-1.16,1.84-2.52,1.84-1.55,0-2.66-1.09-2.66-2.83s1.1-2.81,2.66-2.81Z"/><path class="l" d="M409.9,372.89h-.91v-.81c-.35,.57-1.01,.88-1.74,.88-1.25,0-2.24-.78-2.24-2.34v-3.19h.9v3.07c0,1.1,.61,1.67,1.52,1.67s1.56-.58,1.56-1.75v-2.99h.91v5.45Z"/><path class="l" d="M412.33,372.89h-.91v-5.45h.91v.89c.31-.61,.89-.99,1.76-.99v.94h-.24c-.87,0-1.52,.39-1.52,1.65v2.96Z"/><path class="l" d="M417.06,372.97c-1.27,0-2.17-.7-2.23-1.69h.93c.05,.53,.52,.92,1.28,.92,.72,0,1.11-.36,1.11-.81,0-1.21-3.22-.51-3.22-2.54,0-.84,.79-1.52,2-1.52s2,.65,2.06,1.71h-.91c-.04-.55-.46-.95-1.18-.95-.67,0-1.06,.32-1.06,.76,0,1.29,3.16,.59,3.2,2.54,0,.9-.79,1.57-1.99,1.57Z"/><path class="l" d="M422.7,372.97c-1.54,0-2.72-1.09-2.72-2.83s1.21-2.81,2.76-2.81,2.76,1.08,2.76,2.81-1.24,2.83-2.8,2.83Zm0-.8c.95,0,1.87-.65,1.87-2.03s-.91-2.02-1.84-2.02-1.82,.65-1.82,2.02,.85,2.03,1.79,2.03Z"/><path class="l" d="M428.62,372.97c-1.27,0-2.17-.7-2.23-1.69h.93c.05,.53,.52,.92,1.28,.92,.72,0,1.11-.36,1.11-.81,0-1.21-3.22-.51-3.22-2.54,0-.84,.79-1.52,2-1.52s2,.65,2.06,1.71h-.91c-.04-.55-.46-.95-1.18-.95-.67,0-1.06,.32-1.06,.76,0,1.29,3.16,.59,3.2,2.54,0,.9-.79,1.57-1.99,1.57Z"/></g><rect class="n" x="462.46" y="92.47" width="205.27" height="38.36" rx="19.18" ry="19.18"/><g><path class="l" d="M494.34,104.16h-1.33v2.9h-.91v-6.93h2.24c1.63,0,2.4,.9,2.4,2.03,0,1.05-.68,2.01-2.4,2.01Zm0-.75c1.04,0,1.47-.49,1.47-1.26s-.44-1.28-1.47-1.28h-1.33v2.55h1.33Z"/><path class="l" d="M497.86,99.7h.91v7.36h-.91v-7.36Z"/><path class="l" d="M502.56,101.52c1.01,0,1.71,.52,2.03,1.08v-.99h.92v5.45h-.92v-1.01c-.33,.59-1.03,1.1-2.04,1.1-1.45,0-2.58-1.14-2.58-2.83s1.12-2.8,2.59-2.8Zm.18,.79c-.99,0-1.84,.73-1.84,2.01s.85,2.04,1.84,2.04,1.85-.75,1.85-2.03-.86-2.02-1.85-2.02Z"/><path class="l" d="M511.02,103.97c0-1.11-.61-1.68-1.52-1.68s-1.56,.58-1.56,1.75v3.01h-.91v-5.45h.91v.78c.36-.57,1.01-.88,1.75-.88,1.26,0,2.23,.78,2.23,2.34v3.21h-.9v-3.08Z"/><path class="l" d="M515.75,107.15c-1.55,0-2.7-1.09-2.7-2.83s1.1-2.81,2.7-2.81,2.62,1.11,2.62,2.61c0,.2,0,.36-.03,.55h-4.36c.07,1.1,.85,1.71,1.77,1.71,.82,0,1.33-.42,1.53-1h.97c-.28,.99-1.15,1.77-2.51,1.77Zm-1.76-3.21h3.44c0-1.06-.79-1.65-1.72-1.65-.88,0-1.62,.59-1.72,1.65Z"/><path class="l" d="M520.49,101.61v6.64c0,.98-.52,1.4-1.44,1.4h-.53v-.77h.38c.5,0,.69-.18,.69-.66v-6.62h.91Zm-1.05-1.5c0-.35,.27-.62,.61-.62s.61,.27,.61,.62-.27,.62-.61,.62-.61-.27-.61-.62Z"/><path class="l" d="M524.27,101.52c1.01,0,1.71,.52,2.03,1.08v-.99h.92v5.45h-.92v-1.01c-.33,.59-1.04,1.1-2.04,1.1-1.45,0-2.58-1.14-2.58-2.83s1.12-2.8,2.59-2.8Zm.18,.79c-1,0-1.84,.73-1.84,2.01s.85,2.04,1.84,2.04,1.85-.75,1.85-2.03-.86-2.02-1.85-2.02Z"/><path class="l" d="M536.62,103.97c0-1.11-.6-1.68-1.49-1.68s-1.54,.59-1.54,1.76v3h-.9v-3.08c0-1.11-.6-1.68-1.49-1.68s-1.54,.59-1.54,1.76v3h-.91v-5.45h.91v.79c.36-.58,1-.89,1.72-.89,.9,0,1.64,.4,2,1.21,.32-.79,1.09-1.21,1.93-1.21,1.24,0,2.21,.78,2.21,2.34v3.21h-.9v-3.08Z"/><path class="l" d="M541.35,107.15c-1.55,0-2.7-1.09-2.7-2.83s1.1-2.81,2.7-2.81,2.62,1.11,2.62,2.61c0,.2,0,.36-.03,.55h-4.36c.07,1.1,.85,1.71,1.77,1.71,.82,0,1.33-.42,1.53-1h.98c-.28,.99-1.15,1.77-2.51,1.77Zm-1.76-3.21h3.44c0-1.06-.79-1.65-1.72-1.65-.89,0-1.62,.59-1.72,1.65Z"/><path class="l" d="M549.14,103.97c0-1.11-.61-1.68-1.52-1.68s-1.56,.58-1.56,1.75v3.01h-.91v-5.45h.91v.78c.36-.57,1.01-.88,1.75-.88,1.26,0,2.23,.78,2.23,2.34v3.21h-.9v-3.08Z"/><path class="l" d="M551.72,102.35h-.71v-.75h.71v-1.37h.91v1.37h1.42v.75h-1.42v3.21c0,.54,.2,.73,.76,.73h.67v.77h-.82c-.96,0-1.51-.4-1.51-1.49v-3.21Z"/><path class="l" d="M557.52,107.15c-1.54,0-2.72-1.09-2.72-2.83s1.21-2.81,2.76-2.81,2.76,1.08,2.76,2.81-1.24,2.83-2.8,2.83Zm0-.8c.95,0,1.87-.65,1.87-2.03s-.91-2.02-1.84-2.02-1.82,.65-1.82,2.02,.85,2.03,1.79,2.03Z"/><path class="l" d="M566.52,107.15c-1.55,0-2.7-1.09-2.7-2.83s1.1-2.81,2.7-2.81,2.62,1.11,2.62,2.61c0,.2,0,.36-.03,.55h-4.36c.07,1.1,.85,1.71,1.77,1.71,.82,0,1.33-.42,1.53-1h.98c-.28,.99-1.15,1.77-2.51,1.77Zm-1.76-3.21h3.44c0-1.06-.79-1.65-1.72-1.65-.89,0-1.62,.59-1.72,1.65Z"/><path class="l" d="M575.92,101.52c1.46,0,2.59,1.09,2.59,2.8s-1.12,2.83-2.59,2.83c-1,0-1.7-.54-2.04-1.09v3.59h-.91v-8.04h.91v1c.33-.58,1.04-1.09,2.04-1.09Zm-.19,.79c-.98,0-1.85,.76-1.85,2.02s.87,2.03,1.85,2.03,1.85-.76,1.85-2.04-.85-2.01-1.85-2.01Z"/><path class="l" d="M580.61,107.06h-.91v-5.45h.91v.89c.31-.61,.9-.98,1.76-.98v.94h-.24c-.87,0-1.52,.39-1.52,1.65v2.96Z"/><path class="l" d="M585.79,107.15c-1.54,0-2.72-1.09-2.72-2.83s1.21-2.81,2.76-2.81,2.76,1.08,2.76,2.81-1.24,2.83-2.8,2.83Zm0-.8c.95,0,1.87-.65,1.87-2.03s-.91-2.02-1.84-2.02-1.82,.65-1.82,2.02,.85,2.03,1.79,2.03Z"/><path class="l" d="M592.72,101.52c1.46,0,2.59,1.09,2.59,2.8s-1.12,2.83-2.59,2.83c-1,0-1.7-.54-2.04-1.09v3.59h-.91v-8.04h.91v1c.33-.58,1.04-1.09,2.04-1.09Zm-.19,.79c-.98,0-1.85,.76-1.85,2.02s.87,2.03,1.85,2.03,1.85-.76,1.85-2.04-.85-2.01-1.85-2.01Z"/><path class="l" d="M598.87,107.15c-1.54,0-2.72-1.09-2.72-2.83s1.21-2.81,2.76-2.81,2.76,1.08,2.76,2.81-1.24,2.83-2.8,2.83Zm0-.8c.95,0,1.87-.65,1.87-2.03s-.91-2.02-1.84-2.02-1.82,.65-1.82,2.02,.85,2.03,1.79,2.03Z"/><path class="l" d="M604.79,107.15c-1.27,0-2.17-.7-2.23-1.69h.93c.05,.53,.52,.93,1.28,.93,.72,0,1.11-.36,1.11-.81,0-1.21-3.22-.51-3.22-2.54,0-.84,.79-1.52,2-1.52s2,.65,2.06,1.71h-.91c-.04-.55-.46-.95-1.18-.95-.67,0-1.06,.32-1.06,.76,0,1.29,3.16,.59,3.2,2.54,0,.9-.79,1.57-1.99,1.57Z"/><path class="l" d="M607.9,100.1c0-.35,.27-.62,.62-.62,.33,0,.6,.27,.6,.62s-.27,.62-.6,.62c-.35,0-.62-.27-.62-.62Zm.15,1.5h.91v5.45h-.91v-5.45Z"/><path class="l" d="M612.81,101.52c1.35,0,2.24,.7,2.52,1.84h-.98c-.19-.66-.74-1.07-1.54-1.07-1,0-1.73,.71-1.73,2.04s.74,2.06,1.73,2.06c.81,0,1.34-.39,1.54-1.07h.98c-.26,1-1.04,1.73-2.24,1.83v.5c.77-.01,1.28,.33,1.28,.98s-.51,1.02-1.21,1.02h-1.14v-.59h.96c.43,0,.64-.12,.64-.44s-.21-.43-.64-.43h-.5v-1.06c-1.37-.14-2.33-1.2-2.33-2.81,0-1.71,1.1-2.81,2.66-2.81Z"/><path class="l" d="M618.78,101.52c1.01,0,1.71,.52,2.03,1.08v-.99h.92v5.45h-.92v-1.01c-.33,.59-1.03,1.1-2.04,1.1-1.45,0-2.58-1.14-2.58-2.83s1.12-2.8,2.59-2.8Zm.18,.79c-1,0-1.84,.73-1.84,2.01s.84,2.04,1.84,2.04,1.85-.75,1.85-2.03-.86-2.02-1.85-2.02Zm-.29-2.33c.53,0,.73,.46,1.13,.46,.22,0,.4-.14,.44-.43h.52c-.08,.68-.48,1.03-1,1.03s-.74-.46-1.13-.46c-.22,0-.39,.14-.43,.44h-.53c.1-.69,.48-1.04,1-1.04Z"/><path class="l" d="M625.63,107.15c-1.54,0-2.72-1.09-2.72-2.83s1.21-2.81,2.76-2.81,2.76,1.08,2.76,2.81-1.24,2.83-2.8,2.83Zm0-.8c.95,0,1.87-.65,1.87-2.03s-.91-2.02-1.84-2.02-1.82,.65-1.82,2.02,.84,2.03,1.79,2.03Z"/><path class="l" d="M634.53,101.52c.86,0,1.64,.44,2.02,1.06v-2.88h.92v7.36h-.92v-1.02c-.33,.61-1.03,1.11-2.03,1.11-1.46,0-2.59-1.14-2.59-2.83s1.12-2.8,2.6-2.8Zm.17,.79c-1,0-1.84,.73-1.84,2.01s.85,2.04,1.84,2.04,1.85-.75,1.85-2.03-.86-2.02-1.85-2.02Z"/><path class="l" d="M641.35,107.15c-1.55,0-2.7-1.09-2.7-2.83s1.1-2.81,2.7-2.81,2.62,1.11,2.62,2.61c0,.2,0,.36-.03,.55h-4.36c.07,1.1,.85,1.71,1.77,1.71,.82,0,1.33-.42,1.53-1h.97c-.28,.99-1.15,1.77-2.51,1.77Zm-1.76-3.21h3.44c0-1.06-.79-1.65-1.72-1.65-.89,0-1.62,.59-1.72,1.65Z"/><path class="l" d="M491.96,112.04c0-.35,.27-.62,.62-.62,.33,0,.6,.27,.6,.62s-.27,.62-.6,.62c-.35,0-.62-.27-.62-.62Zm.15,1.5h.91v5.45h-.91v-5.45Z"/><path class="l" d="M498.54,115.91c0-1.11-.61-1.68-1.52-1.68s-1.56,.58-1.56,1.75v3.01h-.91v-5.45h.91v.78c.36-.57,1.01-.88,1.75-.88,1.26,0,2.23,.78,2.23,2.34v3.21h-.9v-3.08Z"/><path class="l" d="M501.11,114.29h-.71v-.75h.71v-1.37h.91v1.37h1.42v.75h-1.42v3.21c0,.54,.2,.73,.76,.73h.67v.77h-.82c-.96,0-1.51-.4-1.51-1.49v-3.21Z"/><path class="l" d="M506.89,119.08c-1.55,0-2.7-1.09-2.7-2.83s1.1-2.81,2.7-2.81,2.62,1.11,2.62,2.61c0,.2,0,.36-.03,.55h-4.36c.07,1.1,.85,1.71,1.77,1.71,.82,0,1.33-.42,1.53-1h.98c-.28,.99-1.15,1.77-2.51,1.77Zm-1.76-3.21h3.44c0-1.06-.79-1.65-1.72-1.65-.89,0-1.62,.59-1.72,1.65Z"/><path class="l" d="M511.6,118.99h-.91v-5.45h.91v.89c.31-.61,.9-.98,1.76-.98v.94h-.24c-.87,0-1.52,.39-1.52,1.65v2.96Z"/><path class="l" d="M514.74,113.54l1.7,4.62,1.69-4.62h.96l-2.14,5.45h-1.05l-2.14-5.45h.97Z"/><path class="l" d="M522.35,119.08c-1.55,0-2.7-1.09-2.7-2.83s1.1-2.81,2.7-2.81,2.62,1.11,2.62,2.61c0,.2,0,.36-.03,.55h-4.36c.07,1.1,.85,1.71,1.77,1.71,.82,0,1.33-.42,1.53-1h.97c-.28,.99-1.15,1.77-2.51,1.77Zm-1.76-3.21h3.44c0-1.06-.79-1.65-1.72-1.65-.88,0-1.62,.59-1.72,1.65Z"/><path class="l" d="M530.14,115.91c0-1.11-.61-1.68-1.52-1.68s-1.56,.58-1.56,1.75v3.01h-.91v-5.45h.91v.78c.36-.57,1.01-.88,1.75-.88,1.26,0,2.23,.78,2.23,2.34v3.21h-.9v-3.08Z"/><path class="l" d="M534.83,113.45c1.35,0,2.24,.7,2.52,1.84h-.98c-.19-.66-.74-1.07-1.54-1.07-.99,0-1.73,.71-1.73,2.04s.74,2.06,1.73,2.06c.81,0,1.34-.39,1.54-1.07h.98c-.26,1-1.04,1.73-2.24,1.83v.5c.77-.01,1.28,.33,1.28,.98s-.51,1.02-1.21,1.02h-1.14v-.59h.97c.43,0,.64-.12,.64-.44s-.21-.43-.64-.43h-.5v-1.06c-1.37-.14-2.33-1.2-2.33-2.81,0-1.71,1.1-2.81,2.66-2.81Z"/><path class="l" d="M540.93,119.08c-1.54,0-2.72-1.09-2.72-2.83s1.21-2.81,2.76-2.81,2.76,1.08,2.76,2.81-1.24,2.83-2.8,2.83Zm0-.8c.95,0,1.87-.65,1.87-2.03s-.91-2.02-1.84-2.02-1.82,.65-1.82,2.02,.85,2.03,1.79,2.03Zm-.42-6.45c.53,0,.73,.46,1.13,.46,.22,0,.4-.14,.44-.43h.52c-.08,.68-.48,1.04-.99,1.04s-.74-.46-1.13-.46c-.22,0-.39,.14-.43,.44h-.53c.1-.69,.48-1.04,1-1.04Z"/><path class="l" d="M547.27,119.08c-1.55,0-2.7-1.09-2.7-2.83s1.1-2.81,2.7-2.81,2.62,1.11,2.62,2.61c0,.2,0,.36-.03,.55h-4.36c.07,1.1,.85,1.71,1.77,1.71,.82,0,1.33-.42,1.53-1h.98c-.28,.99-1.15,1.77-2.51,1.77Zm-1.76-3.21h3.44c0-1.06-.79-1.65-1.72-1.65-.89,0-1.62,.59-1.72,1.65Z"/><path class="l" d="M553.01,119.08c-1.27,0-2.17-.7-2.23-1.69h.93c.05,.53,.52,.93,1.28,.93,.72,0,1.11-.36,1.11-.81,0-1.21-3.22-.51-3.22-2.54,0-.84,.79-1.52,2-1.52s2,.65,2.06,1.71h-.91c-.04-.55-.46-.95-1.18-.95-.67,0-1.06,.32-1.06,.76,0,1.29,3.16,.59,3.2,2.54,0,.9-.79,1.57-1.99,1.57Z"/><path class="l" d="M561.26,120.84c-1.26-1.24-2.02-3.25-2.02-5.49s.76-4.35,2.17-5.65h.95v.09c-1.53,1.44-2.24,3.53-2.24,5.56s.71,3.98,2.09,5.4v.09h-.95Z"/><path class="l" d="M565.37,119.08c-1.27,0-2.17-.7-2.23-1.69h.94c.05,.53,.52,.93,1.28,.93,.72,0,1.11-.36,1.11-.81,0-1.21-3.22-.51-3.22-2.54,0-.84,.79-1.52,2-1.52s2,.65,2.06,1.71h-.91c-.04-.55-.46-.95-1.18-.95-.67,0-1.06,.32-1.06,.76,0,1.29,3.16,.59,3.2,2.54,0,.9-.79,1.57-1.99,1.57Z"/><path class="l" d="M571.01,119.08c-1.54,0-2.72-1.09-2.72-2.83s1.21-2.81,2.76-2.81,2.76,1.08,2.76,2.81-1.24,2.83-2.8,2.83Zm0-.8c.95,0,1.87-.65,1.87-2.03s-.91-2.02-1.84-2.02-1.82,.65-1.82,2.02,.85,2.03,1.79,2.03Z"/><path class="l" d="M575,111.63h.91v7.36h-.91v-7.36Z"/><path class="l" d="M582.28,118.99h-.91v-.81c-.35,.57-1.01,.89-1.74,.89-1.25,0-2.24-.78-2.24-2.34v-3.19h.9v3.07c0,1.1,.61,1.67,1.52,1.67s1.56-.58,1.56-1.75v-2.99h.91v5.45Z"/><path class="l" d="M586.12,113.45c1.35,0,2.24,.7,2.52,1.84h-.98c-.19-.66-.74-1.07-1.54-1.07-.99,0-1.73,.71-1.73,2.04s.74,2.06,1.73,2.06c.81,0,1.34-.39,1.54-1.07h.98c-.26,1-1.04,1.73-2.24,1.83v.5c.77-.01,1.28,.33,1.28,.98s-.51,1.02-1.21,1.02h-1.14v-.59h.97c.43,0,.64-.12,.64-.44s-.21-.43-.64-.43h-.5v-1.06c-1.37-.14-2.33-1.2-2.33-2.81,0-1.71,1.1-2.81,2.66-2.81Z"/><path class="l" d="M592.22,119.08c-1.54,0-2.72-1.09-2.72-2.83s1.21-2.81,2.76-2.81,2.75,1.08,2.75,2.81-1.24,2.83-2.79,2.83Zm0-.8c.95,0,1.87-.65,1.87-2.03s-.91-2.02-1.84-2.02-1.82,.65-1.82,2.02,.85,2.03,1.79,2.03Zm-.42-6.45c.53,0,.73,.46,1.13,.46,.22,0,.4-.14,.44-.43h.52c-.08,.68-.48,1.04-.99,1.04s-.74-.46-1.13-.46c-.22,0-.39,.14-.43,.44h-.53c.1-.69,.48-1.04,1-1.04Z"/><path class="l" d="M598.56,119.08c-1.55,0-2.7-1.09-2.7-2.83s1.1-2.81,2.7-2.81,2.62,1.11,2.62,2.61c0,.2,0,.36-.03,.55h-4.36c.07,1.1,.85,1.71,1.77,1.71,.82,0,1.33-.42,1.53-1h.97c-.28,.99-1.15,1.77-2.51,1.77Zm-1.76-3.21h3.44c0-1.06-.79-1.65-1.72-1.65-.89,0-1.62,.59-1.72,1.65Z"/><path class="l" d="M604.3,119.08c-1.27,0-2.17-.7-2.23-1.69h.93c.05,.53,.52,.93,1.28,.93,.72,0,1.11-.36,1.11-.81,0-1.21-3.22-.51-3.22-2.54,0-.84,.79-1.52,2-1.52s2,.65,2.06,1.71h-.91c-.04-.55-.46-.95-1.18-.95-.67,0-1.06,.32-1.06,.76,0,1.29,3.16,.59,3.2,2.54,0,.9-.79,1.57-1.99,1.57Z"/><path class="l" d="M607.27,120.84v-.09c1.38-1.42,2.09-3.38,2.09-5.4s-.71-4.12-2.24-5.56v-.09h.95c1.41,1.3,2.17,3.4,2.17,5.65s-.76,4.25-2.02,5.49h-.95Z"/></g><rect class="m" x="502.46" y="151.64" width="205.27" height="38.36" rx="19.18" ry="19.18"/><g><path class="l" d="M536.2,171.68h-3.02l-.56,1.54h-.96l2.51-6.89h1.04l2.5,6.89h-.96l-.56-1.54Zm-1.51-4.24l-1.25,3.5h2.51l-1.25-3.5Z"/><path class="l" d="M541.13,167.68c1.35,0,2.24,.7,2.52,1.84h-.97c-.19-.66-.74-1.07-1.54-1.07-1,0-1.73,.71-1.73,2.04s.74,2.06,1.73,2.06c.81,0,1.34-.39,1.54-1.07h.97c-.28,1.08-1.16,1.84-2.52,1.84-1.55,0-2.66-1.09-2.66-2.83s1.1-2.81,2.66-2.81Z"/><path class="l" d="M547.22,173.31c-1.54,0-2.72-1.09-2.72-2.83s1.21-2.81,2.76-2.81,2.76,1.08,2.76,2.81-1.24,2.83-2.8,2.83Zm0-.8c.95,0,1.87-.65,1.87-2.03s-.91-2.02-1.84-2.02-1.82,.65-1.82,2.02,.85,2.03,1.79,2.03Z"/><path class="l" d="M559.08,170.14c0-1.11-.6-1.68-1.49-1.68s-1.54,.59-1.54,1.76v3h-.9v-3.08c0-1.11-.6-1.68-1.49-1.68s-1.54,.59-1.54,1.76v3h-.91v-5.45h.91v.79c.36-.58,1-.89,1.72-.89,.9,0,1.64,.4,2,1.21,.32-.79,1.09-1.21,1.93-1.21,1.24,0,2.21,.78,2.21,2.34v3.21h-.9v-3.08Z"/><path class="l" d="M564.39,167.68c1.46,0,2.59,1.09,2.59,2.8s-1.12,2.83-2.59,2.83c-1,0-1.7-.54-2.04-1.09v3.59h-.91v-8.04h.91v1c.33-.58,1.04-1.09,2.04-1.09Zm-.19,.79c-.99,0-1.85,.76-1.85,2.02s.87,2.03,1.85,2.03,1.85-.76,1.85-2.04-.84-2.01-1.85-2.01Z"/><path class="l" d="M570.42,167.68c1.01,0,1.71,.52,2.03,1.08v-.99h.92v5.45h-.92v-1.01c-.33,.59-1.04,1.1-2.04,1.1-1.45,0-2.58-1.14-2.58-2.83s1.12-2.8,2.59-2.8Zm.18,.79c-1,0-1.84,.73-1.84,2.01s.85,2.04,1.84,2.04,1.85-.75,1.85-2.03-.86-2.02-1.85-2.02Z"/><path class="l" d="M578.88,170.14c0-1.11-.61-1.68-1.52-1.68s-1.56,.58-1.56,1.75v3.01h-.91v-5.45h.91v.78c.36-.57,1.01-.88,1.75-.88,1.26,0,2.23,.78,2.23,2.34v3.21h-.9v-3.08Z"/><path class="l" d="M581.26,165.86h.91v2.7c.36-.58,1.04-.89,1.8-.89,1.21,0,2.18,.78,2.18,2.34v3.21h-.9v-3.08c0-1.11-.61-1.68-1.52-1.68s-1.56,.58-1.56,1.75v3.01h-.91v-7.36Z"/><path class="l" d="M589.87,167.68c1.01,0,1.71,.52,2.03,1.08v-.99h.92v5.45h-.92v-1.01c-.33,.59-1.04,1.1-2.04,1.1-1.45,0-2.58-1.14-2.58-2.83s1.12-2.8,2.59-2.8Zm.18,.79c-1,0-1.84,.73-1.84,2.01s.85,2.04,1.84,2.04,1.85-.75,1.85-2.03-.86-2.02-1.85-2.02Z"/><path class="l" d="M602.21,170.14c0-1.11-.6-1.68-1.49-1.68s-1.54,.59-1.54,1.76v3h-.9v-3.08c0-1.11-.6-1.68-1.49-1.68s-1.54,.59-1.54,1.76v3h-.91v-5.45h.91v.79c.36-.58,1-.89,1.72-.89,.9,0,1.64,.4,2,1.21,.32-.79,1.09-1.21,1.93-1.21,1.24,0,2.21,.78,2.21,2.34v3.21h-.9v-3.08Z"/><path class="l" d="M606.94,173.31c-1.55,0-2.7-1.09-2.7-2.83s1.1-2.81,2.7-2.81,2.62,1.11,2.62,2.61c0,.2,0,.36-.03,.55h-4.36c.07,1.1,.85,1.71,1.77,1.71,.82,0,1.33-.42,1.53-1h.97c-.28,.99-1.15,1.77-2.51,1.77Zm-1.76-3.21h3.44c0-1.06-.79-1.65-1.72-1.65-.88,0-1.62,.59-1.72,1.65Z"/><path class="l" d="M614.74,170.14c0-1.11-.61-1.68-1.52-1.68s-1.56,.58-1.56,1.75v3.01h-.91v-5.45h.91v.78c.36-.57,1.01-.88,1.75-.88,1.26,0,2.23,.78,2.23,2.34v3.21h-.9v-3.08Z"/><path class="l" d="M617.31,168.52h-.71v-.75h.71v-1.37h.91v1.37h1.42v.75h-1.42v3.21c0,.54,.2,.73,.76,.73h.67v.77h-.82c-.96,0-1.51-.4-1.51-1.49v-3.21Z"/><path class="l" d="M623.11,173.31c-1.54,0-2.72-1.09-2.72-2.83s1.21-2.81,2.76-2.81,2.76,1.08,2.76,2.81-1.24,2.83-2.8,2.83Zm0-.8c.95,0,1.87-.65,1.87-2.03s-.91-2.02-1.84-2.02-1.82,.65-1.82,2.02,.85,2.03,1.79,2.03Z"/><path class="l" d="M632.01,167.68c.86,0,1.64,.44,2.02,1.06v-2.88h.92v7.36h-.92v-1.02c-.33,.61-1.03,1.11-2.03,1.11-1.46,0-2.59-1.14-2.59-2.83s1.12-2.8,2.6-2.8Zm.17,.79c-.99,0-1.84,.73-1.84,2.01s.85,2.04,1.84,2.04,1.85-.75,1.85-2.03-.86-2.02-1.85-2.02Z"/><path class="l" d="M638.85,173.31c-1.54,0-2.72-1.09-2.72-2.83s1.21-2.81,2.76-2.81,2.76,1.08,2.76,2.81-1.24,2.83-2.8,2.83Zm0-.8c.95,0,1.87-.65,1.87-2.03s-.91-2.02-1.84-2.02-1.82,.65-1.82,2.02,.85,2.03,1.79,2.03Z"/><path class="l" d="M644.77,173.31c-1.27,0-2.17-.7-2.23-1.69h.93c.05,.53,.52,.93,1.28,.93,.72,0,1.11-.36,1.11-.81,0-1.21-3.22-.51-3.22-2.54,0-.84,.79-1.52,2-1.52s2,.65,2.06,1.71h-.91c-.04-.55-.46-.95-1.18-.95-.67,0-1.06,.32-1.06,.76,0,1.29,3.16,.59,3.2,2.54,0,.9-.79,1.57-1.99,1.57Z"/><path class="l" d="M653.04,173.31c-1.55,0-2.7-1.09-2.7-2.83s1.1-2.81,2.7-2.81,2.62,1.11,2.62,2.61c0,.2,0,.36-.03,.55h-4.36c.07,1.1,.84,1.71,1.77,1.71,.82,0,1.33-.42,1.53-1h.97c-.28,.99-1.15,1.77-2.51,1.77Zm-1.76-3.21h3.44c0-1.06-.79-1.65-1.72-1.65-.89,0-1.62,.59-1.72,1.65Z"/><path class="l" d="M657.02,168.52h-.71v-.75h.71v-.39c0-1.21,.6-1.76,1.99-1.76v.76c-.82,0-1.08,.3-1.08,1v.39h1.14v.75h-1.14v4.71h-.91v-4.71Z"/><path class="l" d="M662.48,173.31c-1.55,0-2.7-1.09-2.7-2.83s1.1-2.81,2.7-2.81,2.62,1.11,2.62,2.61c0,.2,0,.36-.03,.55h-4.36c.07,1.1,.85,1.71,1.77,1.71,.82,0,1.33-.42,1.53-1h.97c-.28,.99-1.15,1.77-2.51,1.77Zm-1.76-3.21h3.44c0-1.06-.79-1.65-1.72-1.65-.89,0-1.62,.59-1.72,1.65Z"/><path class="l" d="M666.14,166.27c0-.35,.27-.62,.62-.62,.33,0,.6,.27,.6,.62s-.27,.62-.6,.62c-.35,0-.62-.27-.62-.62Zm.15,1.5h.91v5.45h-.91v-5.45Z"/><path class="l" d="M668.93,168.52h-.71v-.75h.71v-1.37h.91v1.37h1.42v.75h-1.42v3.21c0,.54,.2,.73,.76,.73h.67v.77h-.82c-.96,0-1.51-.4-1.51-1.49v-3.21Z"/><path class="l" d="M674.73,173.31c-1.54,0-2.72-1.09-2.72-2.83s1.21-2.81,2.76-2.81,2.76,1.08,2.76,2.81-1.24,2.83-2.8,2.83Zm0-.8c.95,0,1.87-.65,1.87-2.03s-.91-2.02-1.84-2.02-1.82,.65-1.82,2.02,.85,2.03,1.79,2.03Z"/><path class="l" d="M680.65,173.31c-1.27,0-2.17-.7-2.23-1.69h.93c.05,.53,.52,.93,1.28,.93,.72,0,1.11-.36,1.11-.81,0-1.21-3.22-.51-3.22-2.54,0-.84,.79-1.52,2-1.52s2,.65,2.06,1.71h-.91c-.04-.55-.46-.95-1.18-.95-.67,0-1.06,.32-1.06,.76,0,1.29,3.16,.59,3.2,2.54,0,.9-.79,1.57-1.99,1.57Z"/></g><rect class="r" x="502.46" y="228.33" width="205.27" height="38.36" rx="19.18" ry="19.18"/><g><path class="l" d="M554.34,235.99c1.63,0,2.41,.91,2.41,2.04,0,.89-.49,1.73-1.65,1.99l1.74,2.9h-1.08l-1.65-2.83h-1.09v2.83h-.91v-6.93h2.24Zm0,.75h-1.33v2.63h1.33c1.03,0,1.47-.56,1.47-1.33s-.44-1.29-1.47-1.29Z"/><path class="l" d="M560.51,243.01c-1.55,0-2.7-1.09-2.7-2.83s1.1-2.81,2.7-2.81,2.62,1.11,2.62,2.61c0,.2,0,.36-.03,.55h-4.36c.07,1.1,.85,1.71,1.77,1.71,.82,0,1.33-.42,1.53-1h.98c-.28,.99-1.15,1.77-2.51,1.77Zm-1.76-3.21h3.44c0-1.06-.79-1.65-1.72-1.65-.89,0-1.62,.59-1.72,1.65Z"/><path class="l" d="M566.25,243.01c-1.27,0-2.17-.7-2.23-1.69h.93c.05,.53,.52,.93,1.28,.93,.72,0,1.11-.36,1.11-.81,0-1.21-3.22-.51-3.22-2.54,0-.84,.79-1.52,2-1.52s2,.65,2.06,1.71h-.91c-.04-.55-.46-.95-1.18-.95-.67,0-1.06,.32-1.06,.76,0,1.29,3.16,.59,3.2,2.54,0,.9-.79,1.57-1.99,1.57Z"/><path class="l" d="M572.45,237.38c1.46,0,2.59,1.09,2.59,2.8s-1.12,2.83-2.59,2.83c-1,0-1.7-.54-2.04-1.09v3.59h-.91v-8.04h.91v1c.33-.58,1.04-1.09,2.04-1.09Zm-.19,.79c-.98,0-1.85,.76-1.85,2.02s.87,2.03,1.85,2.03,1.85-.76,1.85-2.04-.85-2.01-1.85-2.01Z"/><path class="l" d="M578.61,243.01c-1.54,0-2.72-1.09-2.72-2.83s1.21-2.81,2.76-2.81,2.76,1.08,2.76,2.81-1.24,2.83-2.8,2.83Zm0-.8c.95,0,1.87-.65,1.87-2.03s-.91-2.02-1.84-2.02-1.82,.65-1.82,2.02,.85,2.03,1.79,2.03Z"/><path class="l" d="M586.58,239.84c0-1.11-.61-1.68-1.52-1.68s-1.56,.58-1.56,1.75v3.01h-.91v-5.45h.91v.78c.36-.57,1.01-.88,1.75-.88,1.26,0,2.23,.78,2.23,2.34v3.21h-.9v-3.08Z"/><path class="l" d="M590.89,243.01c-1.27,0-2.17-.7-2.23-1.69h.93c.05,.53,.52,.93,1.28,.93,.72,0,1.11-.36,1.11-.81,0-1.21-3.22-.51-3.22-2.54,0-.84,.79-1.52,2-1.52s2,.65,2.06,1.71h-.91c-.04-.55-.46-.95-1.18-.95-.67,0-1.06,.32-1.06,.76,0,1.29,3.16,.59,3.2,2.54,0,.9-.79,1.57-1.99,1.57Z"/><path class="l" d="M596.4,237.38c1.01,0,1.71,.52,2.03,1.08v-.99h.92v5.45h-.92v-1.01c-.33,.59-1.03,1.1-2.04,1.1-1.45,0-2.58-1.14-2.58-2.83s1.12-2.8,2.59-2.8Zm.18,.79c-.99,0-1.84,.73-1.84,2.01s.85,2.04,1.84,2.04,1.85-.75,1.85-2.03-.86-2.02-1.85-2.02Z"/><path class="l" d="M603.81,237.38c1.47,0,2.59,1.09,2.59,2.8s-1.12,2.83-2.59,2.83c-1,0-1.7-.5-2.04-1.09v1h-.91v-7.36h.91v2.92c.35-.61,1.07-1.1,2.04-1.1Zm-.19,.79c-.99,0-1.85,.76-1.85,2.02s.87,2.03,1.85,2.03,1.85-.76,1.85-2.04-.84-2.01-1.85-2.01Z"/><path class="l" d="M607.44,235.97c0-.35,.27-.62,.62-.62,.33,0,.6,.27,.6,.62s-.27,.62-.6,.62c-.35,0-.62-.27-.62-.62Zm.15,1.5h.91v5.45h-.91v-5.45Z"/><path class="l" d="M610.04,235.56h.91v7.36h-.91v-7.36Z"/><path class="l" d="M612.33,235.97c0-.35,.27-.62,.62-.62,.33,0,.6,.27,.6,.62s-.27,.62-.6,.62c-.35,0-.62-.27-.62-.62Zm.15,1.5h.91v5.45h-.91v-5.45Z"/><path class="l" d="M618.26,238.21l-2.66,3.97h2.68v.75h-3.71v-.75l2.65-3.97h-2.63v-.74h3.67v.74Z"/><path class="l" d="M621.7,237.38c1.01,0,1.71,.52,2.03,1.08v-.99h.92v5.45h-.92v-1.01c-.33,.59-1.03,1.1-2.04,1.1-1.45,0-2.58-1.14-2.58-2.83s1.12-2.8,2.59-2.8Zm.18,.79c-.99,0-1.84,.73-1.84,2.01s.85,2.04,1.84,2.04,1.85-.75,1.85-2.03-.86-2.02-1.85-2.02Z"/><path class="l" d="M628.49,237.38c1.35,0,2.24,.7,2.52,1.84h-.98c-.19-.66-.74-1.08-1.54-1.08-.99,0-1.73,.71-1.73,2.04s.74,2.06,1.73,2.06c.81,0,1.34-.39,1.54-1.08h.98c-.26,1-1.04,1.73-2.24,1.83v.5c.77,0,1.28,.33,1.28,.99s-.51,1.02-1.21,1.02h-1.14v-.59h.97c.43,0,.64-.12,.64-.44s-.21-.43-.64-.43h-.5v-1.06c-1.37-.14-2.33-1.2-2.33-2.81,0-1.71,1.1-2.81,2.66-2.81Z"/><path class="l" d="M634.46,237.38c1.01,0,1.71,.52,2.03,1.08v-.99h.92v5.45h-.92v-1.01c-.33,.59-1.03,1.1-2.04,1.1-1.45,0-2.58-1.14-2.58-2.83s1.12-2.8,2.59-2.8Zm.18,.79c-.99,0-1.84,.73-1.84,2.01s.85,2.04,1.84,2.04,1.85-.75,1.85-2.03-.86-2.02-1.85-2.02Zm-.29-2.33c.53,0,.73,.46,1.13,.46,.22,0,.4-.14,.44-.43h.52c-.08,.68-.48,1.04-.99,1.04s-.74-.46-1.13-.46c-.22,0-.39,.14-.43,.44h-.53c.1-.69,.48-1.04,1-1.04Z"/><path class="l" d="M641.31,243.01c-1.54,0-2.72-1.09-2.72-2.83s1.21-2.81,2.76-2.81,2.76,1.08,2.76,2.81-1.24,2.83-2.8,2.83Zm0-.8c.95,0,1.87-.65,1.87-2.03s-.91-2.02-1.84-2.02-1.82,.65-1.82,2.02,.85,2.03,1.79,2.03Z"/><path class="l" d="M650.31,243.01c-1.55,0-2.7-1.09-2.7-2.83s1.1-2.81,2.7-2.81,2.62,1.11,2.62,2.61c0,.2,0,.36-.03,.55h-4.36c.07,1.1,.85,1.71,1.77,1.71,.82,0,1.33-.42,1.53-1h.97c-.28,.99-1.15,1.77-2.51,1.77Zm-1.76-3.21h3.44c0-1.06-.79-1.65-1.72-1.65-.88,0-1.62,.59-1.72,1.65Z"/><path class="l" d="M554.42,249.31c1.35,0,2.24,.7,2.52,1.84h-.97c-.19-.66-.74-1.08-1.54-1.08-1,0-1.73,.71-1.73,2.04s.74,2.06,1.73,2.06c.81,0,1.34-.39,1.54-1.08h.97c-.28,1.08-1.16,1.84-2.52,1.84-1.55,0-2.66-1.09-2.66-2.83s1.1-2.81,2.66-2.81Z"/><path class="l" d="M560.52,254.94c-1.54,0-2.72-1.09-2.72-2.83s1.21-2.81,2.76-2.81,2.76,1.08,2.76,2.81-1.24,2.83-2.8,2.83Zm0-.8c.95,0,1.87-.65,1.87-2.03s-.91-2.02-1.84-2.02-1.82,.65-1.82,2.02,.85,2.03,1.79,2.03Z"/><path class="l" d="M565.41,254.85h-.91v-5.45h.91v.88c.31-.61,.9-.98,1.76-.98v.93h-.24c-.87,0-1.52,.39-1.52,1.65v2.96Z"/><path class="l" d="M569.12,254.85h-.91v-5.45h.91v.88c.31-.61,.9-.98,1.76-.98v.93h-.24c-.87,0-1.52,.39-1.52,1.65v2.96Z"/><path class="l" d="M574.28,254.94c-1.55,0-2.7-1.09-2.7-2.83s1.1-2.81,2.7-2.81,2.62,1.11,2.62,2.61c0,.2,0,.36-.03,.55h-4.36c.07,1.1,.85,1.71,1.77,1.71,.82,0,1.33-.42,1.53-1h.97c-.28,.99-1.15,1.77-2.51,1.77Zm-1.76-3.21h3.44c0-1.06-.79-1.65-1.72-1.65-.88,0-1.62,.59-1.72,1.65Z"/><path class="l" d="M580.02,254.94c-1.27,0-2.17-.7-2.23-1.69h.94c.05,.53,.52,.93,1.28,.93,.72,0,1.11-.36,1.11-.81,0-1.21-3.22-.51-3.22-2.54,0-.84,.79-1.52,2-1.52s2,.65,2.06,1.71h-.91c-.04-.55-.46-.95-1.18-.95-.67,0-1.06,.32-1.06,.76,0,1.29,3.16,.59,3.2,2.54,0,.9-.79,1.57-1.99,1.57Z"/><path class="l" d="M586.22,249.31c1.46,0,2.59,1.09,2.59,2.8s-1.12,2.83-2.59,2.83c-1,0-1.7-.54-2.04-1.09v3.59h-.91v-8.04h.91v1c.33-.58,1.04-1.09,2.04-1.09Zm-.19,.79c-.99,0-1.85,.76-1.85,2.02s.87,2.03,1.85,2.03,1.85-.76,1.85-2.04-.84-2.01-1.85-2.01Z"/><path class="l" d="M592.38,254.94c-1.54,0-2.72-1.09-2.72-2.83s1.21-2.81,2.76-2.81,2.76,1.08,2.76,2.81-1.24,2.83-2.8,2.83Zm0-.8c.95,0,1.87-.65,1.87-2.03s-.91-2.02-1.84-2.02-1.82,.65-1.82,2.02,.85,2.03,1.79,2.03Z"/><path class="l" d="M600.35,251.77c0-1.11-.61-1.68-1.52-1.68s-1.56,.58-1.56,1.75v3.01h-.91v-5.45h.91v.78c.36-.57,1.01-.88,1.75-.88,1.26,0,2.23,.78,2.23,2.34v3.21h-.9v-3.08Z"/><path class="l" d="M604.66,254.94c-1.27,0-2.17-.7-2.23-1.69h.93c.05,.53,.52,.93,1.28,.93,.72,0,1.11-.36,1.11-.81,0-1.21-3.22-.51-3.22-2.54,0-.84,.79-1.52,2-1.52s2,.65,2.06,1.71h-.91c-.04-.55-.46-.95-1.18-.95-.67,0-1.06,.32-1.06,.76,0,1.29,3.16,.59,3.2,2.54,0,.9-.79,1.57-1.99,1.57Z"/><path class="l" d="M610.17,249.31c1.01,0,1.71,.52,2.03,1.08v-.99h.92v5.45h-.92v-1.01c-.33,.59-1.04,1.1-2.04,1.1-1.45,0-2.58-1.14-2.58-2.83s1.12-2.8,2.59-2.8Zm.18,.79c-1,0-1.84,.73-1.84,2.01s.85,2.04,1.84,2.04,1.85-.75,1.85-2.03-.86-2.02-1.85-2.02Z"/><path class="l" d="M617.59,249.31c1.47,0,2.59,1.09,2.59,2.8s-1.12,2.83-2.59,2.83c-1,0-1.7-.5-2.04-1.09v1h-.91v-7.36h.91v2.92c.35-.61,1.07-1.1,2.04-1.1Zm-.19,.79c-.99,0-1.85,.76-1.85,2.02s.87,2.03,1.85,2.03,1.85-.76,1.85-2.04-.84-2.01-1.85-2.01Z"/><path class="l" d="M621.21,247.9c0-.35,.27-.62,.62-.62,.33,0,.6,.27,.6,.62s-.27,.62-.6,.62c-.35,0-.62-.27-.62-.62Zm.15,1.5h.91v5.45h-.91v-5.45Z"/><path class="l" d="M623.81,247.49h.91v7.36h-.91v-7.36Z"/><path class="l" d="M626.11,247.9c0-.35,.27-.62,.62-.62,.33,0,.6,.27,.6,.62s-.27,.62-.6,.62c-.35,0-.62-.27-.62-.62Zm.15,1.5h.91v5.45h-.91v-5.45Z"/><path class="l" d="M632.03,250.14l-2.66,3.97h2.68v.75h-3.71v-.75l2.65-3.97h-2.63v-.74h3.67v.74Z"/><path class="l" d="M635.47,249.31c1.01,0,1.71,.52,2.03,1.08v-.99h.92v5.45h-.92v-1.01c-.33,.59-1.04,1.1-2.04,1.1-1.45,0-2.58-1.14-2.58-2.83s1.12-2.8,2.59-2.8Zm.18,.79c-1,0-1.84,.73-1.84,2.01s.85,2.04,1.84,2.04,1.85-.75,1.85-2.03-.86-2.02-1.85-2.02Z"/><path class="l" d="M642.27,249.31c1.35,0,2.24,.7,2.52,1.84h-.97c-.19-.66-.74-1.08-1.54-1.08-1,0-1.73,.71-1.73,2.04s.74,2.06,1.73,2.06c.81,0,1.34-.39,1.54-1.08h.97c-.26,1-1.04,1.73-2.24,1.83v.5c.77,0,1.28,.33,1.28,.99s-.51,1.02-1.21,1.02h-1.14v-.59h.96c.43,0,.64-.12,.64-.44s-.21-.43-.64-.43h-.5v-1.06c-1.37-.14-2.33-1.2-2.33-2.81,0-1.71,1.1-2.81,2.66-2.81Z"/><path class="l" d="M648.23,249.31c1.01,0,1.71,.52,2.03,1.08v-.99h.92v5.45h-.92v-1.01c-.33,.59-1.04,1.1-2.04,1.1-1.45,0-2.58-1.14-2.58-2.83s1.12-2.8,2.59-2.8Zm.18,.79c-1,0-1.84,.73-1.84,2.01s.85,2.04,1.84,2.04,1.85-.75,1.85-2.03-.86-2.02-1.85-2.02Zm-.29-2.33c.53,0,.73,.46,1.13,.46,.22,0,.4-.14,.44-.43h.52c-.08,.68-.48,1.04-1,1.04s-.74-.46-1.13-.46c-.22,0-.39,.14-.43,.44h-.53c.1-.69,.48-1.04,.99-1.04Z"/><path class="l" d="M655.08,254.94c-1.54,0-2.72-1.09-2.72-2.83s1.21-2.81,2.76-2.81,2.76,1.08,2.76,2.81-1.24,2.83-2.8,2.83Zm0-.8c.95,0,1.87-.65,1.87-2.03s-.91-2.02-1.84-2.02-1.82,.65-1.82,2.02,.85,2.03,1.79,2.03Z"/></g><rect class="m" x="26.05" y="151.65" width="217.81" height="38.36" rx="19.18" ry="19.18"/><g><path class="l" d="M37.64,165.18c1.5,0,2.7,.76,3.21,2.1h-1.08c-.38-.84-1.11-1.3-2.13-1.3-1.45,0-2.54,1.05-2.54,2.76s1.08,2.75,2.54,2.75c1.01,0,1.75-.47,2.13-1.29h1.08c-.52,1.33-1.71,2.08-3.21,2.08-1.94,0-3.46-1.45-3.46-3.53s1.52-3.55,3.46-3.55Z"/><path class="l" d="M44.57,172.3c-1.54,0-2.72-1.09-2.72-2.83s1.21-2.81,2.76-2.81,2.76,1.08,2.76,2.81-1.24,2.83-2.8,2.83Zm0-.8c.94,0,1.87-.65,1.87-2.03s-.91-2.02-1.84-2.02-1.82,.65-1.82,2.02,.85,2.03,1.79,2.03Z"/><path class="l" d="M52.55,169.12c0-1.11-.61-1.68-1.52-1.68s-1.56,.58-1.56,1.75v3.01h-.91v-5.45h.91v.78c.36-.57,1.01-.88,1.75-.88,1.26,0,2.23,.78,2.23,2.34v3.21h-.9v-3.08Z"/><path class="l" d="M56.85,172.3c-1.27,0-2.17-.7-2.23-1.69h.94c.05,.53,.52,.93,1.28,.93,.72,0,1.11-.36,1.11-.81,0-1.21-3.22-.51-3.22-2.54,0-.84,.79-1.52,2-1.52s2,.65,2.06,1.71h-.91c-.04-.55-.46-.95-1.18-.95-.67,0-1.06,.32-1.06,.76,0,1.29,3.16,.59,3.2,2.54,0,.9-.79,1.57-1.99,1.57Z"/><path class="l" d="M60.31,167.5h-.71v-.75h.71v-1.37h.91v1.37h1.42v.75h-1.42v3.21c0,.54,.2,.73,.76,.73h.67v.77h-.82c-.96,0-1.51-.4-1.51-1.49v-3.21Z"/><path class="l" d="M64.64,172.21h-.91v-5.45h.91v.89c.31-.61,.9-.98,1.76-.98v.94h-.24c-.87,0-1.52,.39-1.52,1.65v2.96Z"/><path class="l" d="M72.27,172.21h-.91v-.81c-.35,.57-1.01,.89-1.74,.89-1.25,0-2.24-.78-2.24-2.34v-3.19h.9v3.07c0,1.1,.61,1.67,1.52,1.67s1.56-.58,1.56-1.75v-2.99h.91v5.45Z"/><path class="l" d="M76.12,166.67c1.35,0,2.24,.7,2.52,1.84h-.98c-.19-.66-.74-1.07-1.54-1.07-.99,0-1.73,.71-1.73,2.04s.74,2.06,1.73,2.06c.81,0,1.34-.39,1.54-1.07h.98c-.26,1-1.04,1.73-2.24,1.83v.5c.77-.01,1.28,.33,1.28,.98s-.51,1.02-1.21,1.02h-1.14v-.59h.97c.43,0,.64-.12,.64-.44s-.21-.43-.64-.43h-.5v-1.06c-1.37-.14-2.33-1.2-2.33-2.81,0-1.71,1.1-2.81,2.66-2.81Z"/><path class="l" d="M82.09,166.67c1.01,0,1.71,.52,2.03,1.08v-.99h.92v5.45h-.92v-1.01c-.33,.59-1.03,1.1-2.04,1.1-1.45,0-2.58-1.14-2.58-2.83s1.12-2.8,2.59-2.8Zm.18,.79c-.99,0-1.84,.73-1.84,2.01s.85,2.04,1.84,2.04,1.85-.75,1.85-2.03-.86-2.02-1.85-2.02Zm-.29-2.33c.53,0,.73,.46,1.13,.46,.22,0,.4-.14,.44-.43h.52c-.08,.68-.48,1.03-.99,1.03s-.74-.46-1.13-.46c-.22,0-.39,.14-.43,.44h-.53c.1-.69,.48-1.04,1-1.04Z"/><path class="l" d="M88.94,172.3c-1.54,0-2.72-1.09-2.72-2.83s1.21-2.81,2.76-2.81,2.76,1.08,2.76,2.81-1.24,2.83-2.8,2.83Zm0-.8c.94,0,1.87-.65,1.87-2.03s-.91-2.02-1.84-2.02-1.82,.65-1.82,2.02,.85,2.03,1.79,2.03Z"/><path class="l" d="M97.94,172.3c-1.55,0-2.7-1.09-2.7-2.83s1.1-2.81,2.7-2.81,2.62,1.11,2.62,2.61c0,.2,0,.36-.03,.55h-4.36c.07,1.1,.85,1.71,1.77,1.71,.82,0,1.33-.42,1.53-1h.97c-.28,.99-1.15,1.77-2.51,1.77Zm-1.76-3.21h3.44c.01-1.06-.79-1.65-1.72-1.65-.89,0-1.62,.59-1.72,1.65Z"/><path class="l" d="M104.57,167.5h-.71v-.75h.71v-.39c0-1.21,.6-1.76,1.99-1.76v.76c-.82,0-1.08,.3-1.08,1v.39h1.14v.75h-1.14v4.71h-.91v-4.71Z"/><path class="l" d="M110.05,172.3c-1.54,0-2.72-1.09-2.72-2.83s1.21-2.81,2.76-2.81,2.76,1.08,2.76,2.81-1.24,2.83-2.8,2.83Zm0-.8c.95,0,1.87-.65,1.87-2.03s-.91-2.02-1.84-2.02-1.82,.65-1.82,2.02,.85,2.03,1.79,2.03Z"/><path class="l" d="M114.94,172.21h-.91v-5.45h.91v.89c.31-.61,.9-.98,1.76-.98v.94h-.24c-.87,0-1.52,.39-1.52,1.65v2.96Z"/><path class="l" d="M117.94,167.5h-.71v-.75h.71v-1.37h.91v1.37h1.42v.75h-1.42v3.21c0,.54,.2,.73,.76,.73h.67v.77h-.82c-.96,0-1.51-.4-1.51-1.49v-3.21Z"/><path class="l" d="M123.61,166.67c1.01,0,1.71,.52,2.03,1.08v-.99h.92v5.45h-.92v-1.01c-.33,.59-1.03,1.1-2.04,1.1-1.45,0-2.58-1.14-2.58-2.83s1.12-2.8,2.59-2.8Zm.18,.79c-.99,0-1.84,.73-1.84,2.01s.85,2.04,1.84,2.04,1.85-.75,1.85-2.03-.86-2.02-1.85-2.02Z"/><path class="l" d="M128.09,164.85h.91v7.36h-.91v-7.36Z"/><path class="l" d="M132.89,172.3c-1.55,0-2.7-1.09-2.7-2.83s1.1-2.81,2.7-2.81,2.62,1.11,2.62,2.61c0,.2,0,.36-.03,.55h-4.36c.07,1.1,.85,1.71,1.77,1.71,.82,0,1.33-.42,1.53-1h.97c-.28,.99-1.15,1.77-2.51,1.77Zm-1.76-3.21h3.44c.01-1.06-.79-1.65-1.72-1.65-.89,0-1.62,.59-1.72,1.65Z"/><path class="l" d="M139.02,166.67c1.35,0,2.24,.7,2.52,1.84h-.98c-.19-.66-.74-1.07-1.54-1.07-1,0-1.73,.71-1.73,2.04s.74,2.06,1.73,2.06c.81,0,1.34-.39,1.54-1.07h.98c-.28,1.08-1.16,1.84-2.52,1.84-1.55,0-2.66-1.09-2.66-2.83s1.1-2.81,2.66-2.81Z"/><path class="l" d="M142.58,165.25c0-.35,.27-.62,.62-.62,.33,0,.6,.27,.6,.62s-.27,.62-.6,.62c-.35,0-.62-.27-.62-.62Zm.15,1.5h.91v5.45h-.91v-5.45Z"/><path class="l" d="M153.05,169.12c0-1.11-.6-1.68-1.49-1.68s-1.54,.59-1.54,1.76v3h-.9v-3.08c0-1.11-.6-1.68-1.49-1.68s-1.54,.59-1.54,1.76v3h-.91v-5.45h.91v.79c.36-.58,1-.89,1.72-.89,.9,0,1.64,.4,2,1.21,.32-.79,1.09-1.21,1.93-1.21,1.24,0,2.21,.78,2.21,2.34v3.21h-.9v-3.08Z"/><path class="l" d="M157.78,172.3c-1.55,0-2.7-1.09-2.7-2.83s1.1-2.81,2.7-2.81,2.62,1.11,2.62,2.61c0,.2,0,.36-.03,.55h-4.36c.07,1.1,.84,1.71,1.77,1.71,.82,0,1.33-.42,1.53-1h.97c-.28,.99-1.15,1.77-2.51,1.77Zm-1.76-3.21h3.44c0-1.06-.79-1.65-1.72-1.65-.89,0-1.62,.59-1.72,1.65Z"/><path class="l" d="M165.58,169.12c0-1.11-.61-1.68-1.52-1.68s-1.56,.58-1.56,1.75v3.01h-.91v-5.45h.91v.78c.36-.57,1.02-.88,1.75-.88,1.26,0,2.23,.78,2.23,2.34v3.21h-.9v-3.08Z"/><path class="l" d="M168.15,167.5h-.71v-.75h.71v-1.37h.91v1.37h1.42v.75h-1.42v3.21c0,.54,.2,.73,.76,.73h.67v.77h-.82c-.97,0-1.51-.4-1.51-1.49v-3.21Z"/><path class="l" d="M173.95,172.3c-1.54,0-2.72-1.09-2.72-2.83s1.21-2.81,2.76-2.81,2.76,1.08,2.76,2.81-1.24,2.83-2.8,2.83Zm0-.8c.95,0,1.87-.65,1.87-2.03s-.91-2.02-1.84-2.02-1.82,.65-1.82,2.02,.84,2.03,1.79,2.03Z"/><path class="l" d="M182.85,166.67c.86,0,1.64,.44,2.02,1.06v-2.88h.92v7.36h-.92v-1.02c-.33,.61-1.03,1.11-2.03,1.11-1.46,0-2.59-1.14-2.59-2.83s1.12-2.8,2.6-2.8Zm.17,.79c-1,0-1.84,.73-1.84,2.01s.84,2.04,1.84,2.04,1.85-.75,1.85-2.03-.86-2.02-1.85-2.02Z"/><path class="l" d="M189.67,172.3c-1.55,0-2.7-1.09-2.7-2.83s1.1-2.81,2.7-2.81,2.62,1.11,2.62,2.61c0,.2,0,.36-.03,.55h-4.36c.07,1.1,.85,1.71,1.77,1.71,.82,0,1.33-.42,1.53-1h.97c-.28,.99-1.15,1.77-2.51,1.77Zm-1.76-3.21h3.44c0-1.06-.79-1.65-1.72-1.65-.89,0-1.62,.59-1.72,1.65Z"/><path class="l" d="M196.46,166.76l1.7,4.62,1.69-4.62h.96l-2.14,5.45h-1.05l-2.14-5.45h.98Z"/><path class="l" d="M203.13,164.43v.79l-2.12,1.13v-.68l2.12-1.24Zm-1.42,2.33h.91v5.45h-.91v-5.45Z"/><path class="l" d="M208.15,169.12c0-1.11-.61-1.68-1.52-1.68s-1.56,.58-1.56,1.75v3.01h-.91v-5.45h.91v.78c.36-.57,1.01-.88,1.75-.88,1.26,0,2.23,.78,2.23,2.34v3.21h-.89v-3.08Z"/><path class="l" d="M212.84,166.67c1.35,0,2.24,.7,2.52,1.84h-.98c-.19-.66-.74-1.07-1.54-1.07-1,0-1.73,.71-1.73,2.04s.74,2.06,1.73,2.06c.81,0,1.34-.39,1.54-1.07h.98c-.28,1.08-1.16,1.84-2.52,1.84-1.55,0-2.66-1.09-2.66-2.83s1.1-2.81,2.66-2.81Z"/><path class="l" d="M221.39,172.21h-.91v-.81c-.35,.57-1.01,.89-1.74,.89-1.25,0-2.24-.78-2.24-2.34v-3.19h.89v3.07c0,1.1,.61,1.67,1.52,1.67s1.56-.58,1.56-1.75v-2.99h.91v5.45Z"/><path class="l" d="M222.92,164.85h.91v7.36h-.91v-7.36Z"/><path class="l" d="M227.74,172.3c-1.54,0-2.72-1.09-2.72-2.83s1.21-2.81,2.76-2.81,2.76,1.08,2.76,2.81-1.24,2.83-2.8,2.83Zm0-.8c.95,0,1.87-.65,1.87-2.03s-.91-2.02-1.84-2.02-1.82,.65-1.82,2.02,.85,2.03,1.79,2.03Z"/><path class="l" d="M233.66,172.3c-1.27,0-2.17-.7-2.23-1.69h.93c.05,.53,.52,.93,1.28,.93,.72,0,1.11-.36,1.11-.81,0-1.21-3.22-.51-3.22-2.54,0-.84,.79-1.52,2-1.52s2,.65,2.06,1.71h-.91c-.04-.55-.46-.95-1.18-.95-.67,0-1.06,.32-1.06,.76,0,1.29,3.16,.59,3.2,2.54,0,.9-.79,1.57-1.99,1.57Z"/></g><rect class="r" x="25.46" y="228.33" width="213.81" height="38.36" rx="19.18" ry="19.18"/><g><path class="l" d="M31.11,242.99h3.92v.74h-3.01v2.34h2.45v.74h-2.45v3.12h-.91v-6.93Z"/><path class="l" d="M38.49,250.01c-1.54,0-2.72-1.09-2.72-2.83s1.21-2.81,2.76-2.81,2.76,1.08,2.76,2.81-1.24,2.83-2.8,2.83Zm0-.8c.94,0,1.87-.65,1.87-2.03s-.91-2.02-1.84-2.02-1.82,.65-1.82,2.02,.85,2.03,1.79,2.03Z"/><path class="l" d="M43.39,249.92h-.91v-5.45h.91v.88c.31-.61,.9-.98,1.76-.98v.93h-.24c-.87,0-1.52,.39-1.52,1.65v2.96Z"/><path class="l" d="M46.39,245.22h-.71v-.75h.71v-1.37h.91v1.37h1.42v.75h-1.42v3.21c0,.54,.2,.73,.76,.73h.67v.77h-.82c-.96,0-1.51-.4-1.51-1.49v-3.21Z"/><path class="l" d="M52.06,244.38c1.01,0,1.71,.52,2.03,1.08v-.99h.92v5.45h-.92v-1.01c-.33,.59-1.03,1.1-2.04,1.1-1.45,0-2.58-1.14-2.58-2.83s1.12-2.8,2.59-2.8Zm.18,.79c-.99,0-1.84,.73-1.84,2.01s.85,2.04,1.84,2.04,1.85-.75,1.85-2.03-.86-2.02-1.85-2.02Z"/><path class="l" d="M56.53,242.56h.91v7.36h-.91v-7.36Z"/><path class="l" d="M61.34,250.01c-1.55,0-2.7-1.09-2.7-2.83s1.1-2.81,2.7-2.81,2.62,1.11,2.62,2.61c0,.2,0,.36-.03,.55h-4.36c.07,1.1,.85,1.71,1.77,1.71,.82,0,1.33-.42,1.53-1h.97c-.28,.99-1.15,1.77-2.51,1.77Zm-1.76-3.21h3.44c.01-1.06-.79-1.65-1.72-1.65-.89,0-1.62,.59-1.72,1.65Z"/><path class="l" d="M67.46,244.38c1.35,0,2.24,.7,2.52,1.84h-.98c-.19-.66-.74-1.08-1.54-1.08-.99,0-1.73,.71-1.73,2.04s.74,2.06,1.73,2.06c.81,0,1.34-.39,1.54-1.08h.98c-.28,1.08-1.16,1.84-2.52,1.84-1.55,0-2.66-1.09-2.66-2.83s1.1-2.81,2.66-2.81Z"/><path class="l" d="M71.03,242.97c0-.35,.27-.62,.62-.62,.33,0,.6,.27,.6,.62s-.27,.62-.6,.62c-.35,0-.62-.27-.62-.62Zm.15,1.5h.91v5.45h-.91v-5.45Z"/><path class="l" d="M81.49,246.84c0-1.11-.6-1.68-1.49-1.68s-1.54,.59-1.54,1.76v3h-.9v-3.08c0-1.11-.6-1.68-1.49-1.68s-1.54,.59-1.54,1.76v3h-.91v-5.45h.91v.79c.36-.58,1-.88,1.72-.88,.9,0,1.64,.4,2,1.21,.32-.79,1.09-1.21,1.93-1.21,1.24,0,2.21,.78,2.21,2.34v3.21h-.9v-3.08Z"/><path class="l" d="M86.22,250.01c-1.55,0-2.7-1.09-2.7-2.83s1.1-2.81,2.7-2.81,2.62,1.11,2.62,2.61c0,.2,0,.36-.03,.55h-4.36c.07,1.1,.85,1.71,1.77,1.71,.82,0,1.33-.42,1.53-1h.98c-.28,.99-1.15,1.77-2.51,1.77Zm-1.76-3.21h3.44c0-1.06-.79-1.65-1.72-1.65-.89,0-1.62,.59-1.72,1.65Z"/><path class="l" d="M94.02,246.84c0-1.11-.61-1.68-1.52-1.68s-1.56,.58-1.56,1.75v3.01h-.91v-5.45h.91v.78c.36-.57,1.01-.88,1.75-.88,1.26,0,2.23,.78,2.23,2.34v3.21h-.9v-3.08Z"/><path class="l" d="M96.6,245.22h-.71v-.75h.71v-1.37h.91v1.37h1.42v.75h-1.42v3.21c0,.54,.2,.73,.76,.73h.67v.77h-.82c-.96,0-1.51-.4-1.51-1.49v-3.21Z"/><path class="l" d="M102.39,250.01c-1.54,0-2.72-1.09-2.72-2.83s1.21-2.81,2.76-2.81,2.76,1.08,2.76,2.81-1.24,2.83-2.8,2.83Zm0-.8c.95,0,1.87-.65,1.87-2.03s-.91-2.02-1.84-2.02-1.82,.65-1.82,2.02,.85,2.03,1.79,2.03Z"/><path class="l" d="M111.39,250.01c-1.55,0-2.7-1.09-2.7-2.83s1.1-2.81,2.7-2.81,2.62,1.11,2.62,2.61c0,.2,0,.36-.03,.55h-4.36c.07,1.1,.85,1.71,1.77,1.71,.82,0,1.33-.42,1.53-1h.98c-.28,.99-1.15,1.77-2.51,1.77Zm-1.76-3.21h3.44c0-1.06-.79-1.65-1.72-1.65-.89,0-1.62,.59-1.72,1.65Z"/><path class="l" d="M120.11,244.38c1,0,1.71,.52,2.02,1.08v-.99h.92v8.04h-.92v-3.59c-.31,.56-1.03,1.09-2.05,1.09-1.44,0-2.57-1.14-2.57-2.83s1.12-2.8,2.6-2.8Zm.17,.79c-.99,0-1.84,.73-1.84,2.01s.85,2.04,1.84,2.04,1.85-.75,1.85-2.03-.86-2.02-1.85-2.02Z"/><path class="l" d="M129.41,249.92h-.91v-.81c-.35,.57-1.01,.89-1.74,.89-1.25,0-2.24-.78-2.24-2.34v-3.19h.9v3.07c0,1.1,.61,1.67,1.52,1.67s1.56-.58,1.56-1.75v-2.99h.91v5.45Z"/><path class="l" d="M133.19,244.38c1.01,0,1.71,.52,2.03,1.08v-.99h.92v5.45h-.92v-1.01c-.33,.59-1.04,1.1-2.04,1.1-1.45,0-2.58-1.14-2.58-2.83s1.12-2.8,2.59-2.8Zm.18,.79c-1,0-1.84,.73-1.84,2.01s.85,2.04,1.84,2.04,1.85-.75,1.85-2.03-.86-2.02-1.85-2.02Z"/><path class="l" d="M137.66,242.56h.91v7.36h-.91v-7.36Z"/><path class="l" d="M139.96,242.97c0-.35,.27-.62,.62-.62,.33,0,.6,.27,.6,.62s-.27,.62-.6,.62c-.35,0-.62-.27-.62-.62Zm.15,1.5h.91v5.45h-.91v-5.45Z"/><path class="l" d="M142.72,245.22h-.71v-.75h.71v-.39c0-1.21,.6-1.76,1.99-1.76v.76c-.82,0-1.08,.3-1.08,1v.39h1.14v.75h-1.14v4.71h-.91v-4.71Z"/><path class="l" d="M145.68,242.97c0-.35,.27-.62,.62-.62,.33,0,.6,.27,.6,.62s-.27,.62-.6,.62c-.35,0-.62-.27-.62-.62Zm.15,1.5h.91v5.45h-.91v-5.45Z"/><path class="l" d="M150.59,244.38c1.35,0,2.24,.7,2.52,1.84h-.98c-.19-.66-.74-1.08-1.54-1.08-1,0-1.73,.71-1.73,2.04s.74,2.06,1.73,2.06c.81,0,1.34-.39,1.54-1.08h.98c-.28,1.08-1.16,1.84-2.52,1.84-1.55,0-2.66-1.09-2.66-2.83s1.1-2.81,2.66-2.81Z"/><path class="l" d="M156.56,244.38c1.01,0,1.71,.52,2.03,1.08v-.99h.92v5.45h-.92v-1.01c-.33,.59-1.03,1.1-2.04,1.1-1.45,0-2.58-1.14-2.58-2.83s1.12-2.8,2.59-2.8Zm.18,.79c-1,0-1.84,.73-1.84,2.01s.84,2.04,1.84,2.04,1.85-.75,1.85-2.03-.86-2.02-1.85-2.02Z"/><path class="l" d="M163.35,244.38c1.35,0,2.24,.7,2.52,1.84h-.98c-.19-.66-.74-1.08-1.54-1.08-1,0-1.73,.71-1.73,2.04s.74,2.06,1.73,2.06c.81,0,1.34-.39,1.54-1.08h.98c-.26,1-1.04,1.73-2.24,1.83v.5c.77,0,1.28,.33,1.28,.99s-.51,1.02-1.21,1.02h-1.14v-.59h.96c.43,0,.64-.12,.64-.44s-.21-.43-.64-.43h-.5v-1.06c-1.37-.14-2.33-1.2-2.33-2.81,0-1.71,1.1-2.81,2.66-2.81Z"/><path class="l" d="M169.32,244.38c1.01,0,1.71,.52,2.03,1.08v-.99h.92v5.45h-.92v-1.01c-.33,.59-1.03,1.1-2.04,1.1-1.45,0-2.58-1.14-2.58-2.83s1.12-2.8,2.59-2.8Zm.18,.79c-1,0-1.84,.73-1.84,2.01s.84,2.04,1.84,2.04,1.85-.75,1.85-2.03-.86-2.02-1.85-2.02Zm-.29-2.33c.53,0,.73,.46,1.13,.46,.22,0,.4-.14,.44-.43h.52c-.08,.68-.48,1.04-1,1.04s-.74-.46-1.13-.46c-.22,0-.39,.14-.43,.44h-.53c.1-.69,.48-1.04,1-1.04Z"/><path class="l" d="M176.17,250.01c-1.54,0-2.72-1.09-2.72-2.83s1.21-2.81,2.76-2.81,2.76,1.08,2.76,2.81-1.24,2.83-2.8,2.83Zm0-.8c.95,0,1.87-.65,1.87-2.03s-.91-2.02-1.84-2.02-1.82,.65-1.82,2.02,.85,2.03,1.79,2.03Z"/><path class="l" d="M185.07,244.38c.86,0,1.64,.44,2.02,1.06v-2.88h.92v7.36h-.92v-1.02c-.33,.61-1.03,1.11-2.03,1.11-1.46,0-2.59-1.14-2.59-2.83s1.12-2.8,2.6-2.8Zm.17,.79c-1,0-1.84,.73-1.84,2.01s.85,2.04,1.84,2.04,1.85-.75,1.85-2.03-.86-2.02-1.85-2.02Z"/><path class="l" d="M191.78,244.38c1.01,0,1.71,.52,2.03,1.08v-.99h.92v5.45h-.92v-1.01c-.33,.59-1.03,1.1-2.04,1.1-1.45,0-2.58-1.14-2.58-2.83s1.12-2.8,2.59-2.8Zm.18,.79c-1,0-1.84,.73-1.84,2.01s.84,2.04,1.84,2.04,1.85-.75,1.85-2.03-.86-2.02-1.85-2.02Z"/><path class="l" d="M201.16,244.38c1,0,1.71,.5,2.03,1.08v-.99h.92v5.57c0,1.5-1,2.57-2.61,2.57-1.43,0-2.46-.73-2.64-1.89h.89c.2,.66,.85,1.1,1.74,1.1,.96,0,1.69-.62,1.69-1.78v-1.14c-.33,.59-1.03,1.11-2.03,1.11-1.46,0-2.59-1.14-2.59-2.83s1.12-2.8,2.59-2.8Zm.18,.79c-1,0-1.84,.73-1.84,2.01s.84,2.04,1.84,2.04,1.85-.75,1.85-2.03-.86-2.02-1.85-2.02Z"/><path class="l" d="M207.99,250.01c-1.55,0-2.7-1.09-2.7-2.83s1.1-2.81,2.7-2.81,2.62,1.11,2.62,2.61c0,.2,0,.36-.03,.55h-4.36c.07,1.1,.84,1.71,1.77,1.71,.82,0,1.33-.42,1.53-1h.97c-.28,.99-1.15,1.77-2.51,1.77Zm-1.76-3.21h3.44c0-1.06-.79-1.65-1.72-1.65-.89,0-1.62,.59-1.72,1.65Z"/><path class="l" d="M213.72,250.01c-1.27,0-2.17-.7-2.23-1.69h.93c.05,.53,.52,.93,1.28,.93,.72,0,1.11-.36,1.11-.81,0-1.21-3.22-.51-3.22-2.54,0-.84,.79-1.52,2-1.52s2,.65,2.06,1.71h-.91c-.04-.55-.46-.95-1.18-.95-.67,0-1.06,.32-1.06,.76,0,1.29,3.16,.59,3.2,2.54,0,.9-.79,1.57-1.99,1.57Z"/><path class="l" d="M217.18,245.22h-.71v-.75h.71v-1.37h.91v1.37h1.42v.75h-1.42v3.21c0,.54,.2,.73,.76,.73h.67v.77h-.82c-.97,0-1.51-.4-1.51-1.49v-3.21Z"/><path class="l" d="M222.85,244.38c1.01,0,1.71,.52,2.03,1.08v-.99h.92v5.45h-.92v-1.01c-.33,.59-1.03,1.1-2.04,1.1-1.45,0-2.58-1.14-2.58-2.83s1.12-2.8,2.59-2.8Zm.18,.79c-1,0-1.84,.73-1.84,2.01s.84,2.04,1.84,2.04,1.85-.75,1.85-2.03-.86-2.02-1.85-2.02Zm-.29-2.33c.53,0,.73,.46,1.13,.46,.22,0,.4-.14,.44-.43h.52c-.08,.68-.48,1.04-1,1.04s-.74-.46-1.13-.46c-.22,0-.39,.14-.43,.44h-.53c.1-.69,.48-1.04,1-1.04Z"/><path class="l" d="M229.7,250.01c-1.54,0-2.72-1.09-2.72-2.83s1.21-2.81,2.76-2.81,2.76,1.08,2.76,2.81-1.24,2.83-2.8,2.83Zm0-.8c.95,0,1.87-.65,1.87-2.03s-.91-2.02-1.84-2.02-1.82,.65-1.82,2.02,.84,2.03,1.79,2.03Z"/></g><rect class="n" x="75.46" y="92.47" width="205.27" height="38.36" rx="19.18" ry="19.18"/><g><path class="l" d="M89.11,100.12h.91v6.93h-.91v-6.93Z"/><path class="l" d="M95.54,103.97c0-1.11-.61-1.68-1.52-1.68s-1.56,.58-1.56,1.75v3.01h-.91v-5.45h.91v.78c.36-.57,1.01-.88,1.75-.88,1.26,0,2.23,.78,2.23,2.34v3.21h-.9v-3.08Z"/><path class="l" d="M99.85,107.15c-1.27,0-2.17-.7-2.23-1.69h.94c.05,.53,.52,.93,1.28,.93,.72,0,1.11-.36,1.11-.81,0-1.21-3.22-.51-3.22-2.54,0-.84,.79-1.52,2-1.52s2,.65,2.06,1.71h-.91c-.04-.55-.46-.95-1.18-.95-.67,0-1.06,.32-1.06,.76,0,1.29,3.16,.59,3.2,2.54,0,.9-.79,1.57-1.99,1.57Z"/><path class="l" d="M103.31,102.35h-.71v-.75h.71v-1.37h.91v1.37h1.42v.75h-1.42v3.21c0,.54,.2,.73,.76,.73h.67v.77h-.82c-.96,0-1.51-.4-1.51-1.49v-3.21Z"/><path class="l" d="M107.63,107.06h-.91v-5.45h.91v.89c.31-.61,.9-.98,1.76-.98v.94h-.24c-.87,0-1.52,.39-1.52,1.65v2.96Z"/><path class="l" d="M115.27,107.06h-.91v-.81c-.35,.57-1.01,.89-1.74,.89-1.25,0-2.24-.78-2.24-2.34v-3.19h.9v3.07c0,1.1,.61,1.67,1.52,1.67s1.56-.58,1.56-1.75v-2.99h.91v5.45Z"/><path class="l" d="M124.67,103.97c0-1.11-.6-1.68-1.49-1.68s-1.54,.59-1.54,1.76v3h-.9v-3.08c0-1.11-.6-1.68-1.49-1.68s-1.54,.59-1.54,1.76v3h-.91v-5.45h.91v.79c.36-.58,1-.89,1.72-.89,.9,0,1.64,.4,2,1.21,.32-.79,1.09-1.21,1.93-1.21,1.24,0,2.21,.78,2.21,2.34v3.21h-.9v-3.08Z"/><path class="l" d="M129.4,107.15c-1.55,0-2.7-1.09-2.7-2.83s1.1-2.81,2.7-2.81,2.62,1.11,2.62,2.61c0,.2,0,.36-.03,.55h-4.36c.07,1.1,.85,1.71,1.77,1.71,.82,0,1.33-.42,1.53-1h.98c-.28,.99-1.15,1.77-2.51,1.77Zm-1.76-3.21h3.44c0-1.06-.79-1.65-1.72-1.65-.89,0-1.62,.59-1.72,1.65Z"/><path class="l" d="M137.2,103.97c0-1.11-.61-1.68-1.52-1.68s-1.56,.58-1.56,1.75v3.01h-.91v-5.45h.91v.78c.36-.57,1.01-.88,1.75-.88,1.26,0,2.23,.78,2.23,2.34v3.21h-.9v-3.08Z"/><path class="l" d="M139.77,102.35h-.71v-.75h.71v-1.37h.91v1.37h1.42v.75h-1.42v3.21c0,.54,.2,.73,.76,.73h.67v.77h-.82c-.96,0-1.51-.4-1.51-1.49v-3.21Z"/><path class="l" d="M145.44,101.52c1.01,0,1.71,.52,2.03,1.08v-.99h.92v5.45h-.92v-1.01c-.33,.59-1.03,1.1-2.04,1.1-1.45,0-2.58-1.14-2.58-2.83s1.12-2.8,2.59-2.8Zm.18,.79c-.99,0-1.84,.73-1.84,2.01s.85,2.04,1.84,2.04,1.85-.75,1.85-2.03-.86-2.02-1.85-2.02Z"/><path class="l" d="M149.91,99.7h.91v7.36h-.91v-7.36Z"/><path class="l" d="M152.21,100.1c0-.35,.27-.62,.62-.62,.33,0,.6,.27,.6,.62s-.27,.62-.6,.62c-.35,0-.62-.27-.62-.62Zm.15,1.5h.91v5.45h-.91v-5.45Z"/><path class="l" d="M158.14,102.34l-2.66,3.97h2.68v.75h-3.71v-.75l2.65-3.97h-2.63v-.74h3.67v.74Z"/><path class="l" d="M161.58,101.52c1.01,0,1.71,.52,2.03,1.08v-.99h.92v5.45h-.92v-1.01c-.33,.59-1.03,1.1-2.04,1.1-1.45,0-2.58-1.14-2.58-2.83s1.12-2.8,2.59-2.8Zm.18,.79c-.99,0-1.84,.73-1.84,2.01s.85,2.04,1.84,2.04,1.85-.75,1.85-2.03-.86-2.02-1.85-2.02Z"/><path class="l" d="M168.37,101.52c1.35,0,2.24,.7,2.52,1.84h-.98c-.19-.66-.74-1.07-1.54-1.07-.99,0-1.73,.71-1.73,2.04s.74,2.06,1.73,2.06c.81,0,1.34-.39,1.54-1.07h.98c-.26,1-1.04,1.73-2.24,1.83v.5c.77-.01,1.28,.33,1.28,.98s-.51,1.02-1.21,1.02h-1.14v-.59h.97c.43,0,.64-.12,.64-.44s-.21-.43-.64-.43h-.5v-1.06c-1.37-.14-2.33-1.2-2.33-2.81,0-1.71,1.1-2.81,2.66-2.81Z"/><path class="l" d="M174.33,101.52c1.01,0,1.71,.52,2.03,1.08v-.99h.92v5.45h-.92v-1.01c-.33,.59-1.03,1.1-2.04,1.1-1.45,0-2.58-1.14-2.58-2.83s1.12-2.8,2.59-2.8Zm.18,.79c-.99,0-1.84,.73-1.84,2.01s.85,2.04,1.84,2.04,1.85-.75,1.85-2.03-.86-2.02-1.85-2.02Zm-.29-2.33c.53,0,.73,.46,1.13,.46,.22,0,.4-.14,.44-.43h.52c-.08,.68-.48,1.03-.99,1.03s-.74-.46-1.13-.46c-.22,0-.39,.14-.43,.44h-.53c.1-.69,.48-1.04,1-1.04Z"/><path class="l" d="M181.19,107.15c-1.54,0-2.72-1.09-2.72-2.83s1.21-2.81,2.76-2.81,2.76,1.08,2.76,2.81-1.24,2.83-2.8,2.83Zm0-.8c.95,0,1.87-.65,1.87-2.03s-.91-2.02-1.84-2.02-1.82,.65-1.82,2.02,.85,2.03,1.79,2.03Z"/><path class="l" d="M190.77,101.52c1.46,0,2.59,1.09,2.59,2.8s-1.12,2.83-2.59,2.83c-.99,0-1.7-.54-2.04-1.09v3.59h-.91v-8.04h.91v1c.33-.58,1.04-1.09,2.04-1.09Zm-.19,.79c-.98,0-1.85,.76-1.85,2.02s.87,2.03,1.85,2.03,1.85-.76,1.85-2.04-.85-2.01-1.85-2.01Z"/><path class="l" d="M196.8,101.52c1.01,0,1.71,.52,2.03,1.08v-.99h.92v5.45h-.92v-1.01c-.33,.59-1.03,1.1-2.04,1.1-1.45,0-2.58-1.14-2.58-2.83s1.12-2.8,2.59-2.8Zm.18,.79c-1,0-1.84,.73-1.84,2.01s.84,2.04,1.84,2.04,1.85-.75,1.85-2.03-.86-2.02-1.85-2.02Z"/><path class="l" d="M202.18,107.06h-.91v-5.45h.91v.89c.31-.61,.9-.98,1.76-.98v.94h-.24c-.87,0-1.52,.39-1.52,1.65v2.96Z"/><path class="l" d="M207.23,101.52c1.01,0,1.71,.52,2.03,1.08v-.99h.92v5.45h-.92v-1.01c-.33,.59-1.03,1.1-2.04,1.1-1.45,0-2.58-1.14-2.58-2.83s1.12-2.8,2.59-2.8Zm.18,.79c-1,0-1.84,.73-1.84,2.01s.85,2.04,1.84,2.04,1.85-.75,1.85-2.03-.86-2.02-1.85-2.02Z"/><path class="l" d="M216.61,101.52c1.01,0,1.71,.52,2.03,1.08v-.99h.92v5.45h-.92v-1.01c-.33,.59-1.03,1.1-2.04,1.1-1.45,0-2.58-1.14-2.58-2.83s1.12-2.8,2.59-2.8Zm.18,.79c-1,0-1.84,.73-1.84,2.01s.85,2.04,1.84,2.04,1.85-.75,1.85-2.03-.86-2.02-1.85-2.02Z"/><path class="l" d="M223.93,102.35h-.71v-.75h.71v-1.37h.91v1.37h1.42v.75h-1.42v3.21c0,.54,.2,.73,.76,.73h.67v.77h-.82c-.96,0-1.51-.4-1.51-1.49v-3.21Z"/><path class="l" d="M229.73,107.15c-1.54,0-2.72-1.09-2.72-2.83s1.21-2.81,2.76-2.81,2.76,1.08,2.76,2.81-1.24,2.83-2.8,2.83Zm0-.8c.95,0,1.87-.65,1.87-2.03s-.91-2.02-1.84-2.02-1.82,.65-1.82,2.02,.84,2.03,1.79,2.03Z"/><path class="l" d="M241.59,103.97c0-1.11-.6-1.68-1.49-1.68s-1.54,.59-1.54,1.76v3h-.9v-3.08c0-1.11-.6-1.68-1.49-1.68s-1.54,.59-1.54,1.76v3h-.91v-5.45h.91v.79c.36-.58,1-.89,1.72-.89,.9,0,1.64,.4,2,1.21,.32-.79,1.09-1.21,1.93-1.21,1.24,0,2.21,.78,2.21,2.34v3.21h-.9v-3.08Z"/><path class="l" d="M246.21,101.52c1.01,0,1.71,.52,2.03,1.08v-.99h.92v5.45h-.92v-1.01c-.33,.59-1.03,1.1-2.04,1.1-1.45,0-2.58-1.14-2.58-2.83s1.12-2.8,2.59-2.8Zm.18,.79c-1,0-1.84,.73-1.84,2.01s.85,2.04,1.84,2.04,1.85-.75,1.85-2.03-.86-2.02-1.85-2.02Z"/><path class="l" d="M252.94,101.52c.86,0,1.64,.44,2.02,1.06v-2.88h.92v7.36h-.92v-1.02c-.33,.61-1.03,1.11-2.03,1.11-1.46,0-2.59-1.14-2.59-2.83s1.12-2.8,2.6-2.8Zm.17,.79c-1,0-1.84,.73-1.84,2.01s.84,2.04,1.84,2.04,1.85-.75,1.85-2.03-.86-2.02-1.85-2.02Z"/><path class="l" d="M259.65,101.52c1.01,0,1.71,.52,2.03,1.08v-.99h.92v5.45h-.92v-1.01c-.33,.59-1.03,1.1-2.04,1.1-1.45,0-2.58-1.14-2.58-2.83s1.12-2.8,2.59-2.8Zm.18,.79c-1,0-1.84,.73-1.84,2.01s.85,2.04,1.84,2.04,1.85-.75,1.85-2.03-.86-2.02-1.85-2.02Z"/><path class="l" d="M91.36,113.45c.86,0,1.64,.44,2.02,1.06v-2.88h.92v7.36h-.92v-1.02c-.33,.61-1.03,1.11-2.03,1.11-1.46,0-2.59-1.14-2.59-2.83s1.12-2.8,2.6-2.8Zm.17,.79c-.99,0-1.84,.73-1.84,2.01s.85,2.04,1.84,2.04,1.85-.75,1.85-2.03-.86-2.02-1.85-2.02Z"/><path class="l" d="M98.19,119.08c-1.55,0-2.7-1.09-2.7-2.83s1.1-2.81,2.7-2.81,2.62,1.11,2.62,2.61c0,.2,0,.36-.03,.55h-4.36c.07,1.1,.85,1.71,1.77,1.71,.82,0,1.33-.42,1.53-1h.97c-.28,.99-1.15,1.77-2.51,1.77Zm-1.76-3.21h3.44c.01-1.06-.79-1.65-1.72-1.65-.89,0-1.62,.59-1.72,1.65Z"/><path class="l" d="M106.91,113.45c.86,0,1.64,.44,2.02,1.06v-2.88h.92v7.36h-.92v-1.02c-.33,.61-1.03,1.11-2.03,1.11-1.46,0-2.59-1.14-2.59-2.83s1.12-2.8,2.6-2.8Zm.17,.79c-.99,0-1.84,.73-1.84,2.01s.85,2.04,1.84,2.04,1.85-.75,1.85-2.03-.86-2.02-1.85-2.02Z"/><path class="l" d="M113.73,119.08c-1.55,0-2.7-1.09-2.7-2.83s1.1-2.81,2.7-2.81,2.62,1.11,2.62,2.61c0,.2,0,.36-.03,.55h-4.36c.07,1.1,.85,1.71,1.77,1.71,.82,0,1.33-.42,1.53-1h.97c-.28,.99-1.15,1.77-2.51,1.77Zm-1.76-3.21h3.44c.01-1.06-.79-1.65-1.72-1.65-.89,0-1.62,.59-1.72,1.65Z"/><path class="l" d="M119.85,113.45c1.35,0,2.24,.7,2.52,1.84h-.98c-.19-.66-.74-1.07-1.54-1.07-.99,0-1.73,.71-1.73,2.04s.74,2.06,1.73,2.06c.81,0,1.34-.39,1.54-1.07h.98c-.28,1.08-1.16,1.84-2.52,1.84-1.55,0-2.66-1.09-2.66-2.83s1.1-2.81,2.66-2.81Z"/><path class="l" d="M123.42,112.04c0-.35,.27-.62,.62-.62,.33,0,.6,.27,.6,.62s-.27,.62-.6,.62c-.35,0-.62-.27-.62-.62Zm.15,1.5h.91v5.45h-.91v-5.45Z"/><path class="l" d="M127.95,119.08c-1.27,0-2.17-.7-2.23-1.69h.94c.05,.53,.52,.93,1.28,.93,.72,0,1.11-.36,1.11-.81,0-1.21-3.22-.51-3.22-2.54,0-.84,.79-1.52,2-1.52s2,.65,2.06,1.71h-.91c-.04-.55-.46-.95-1.18-.95-.67,0-1.06,.32-1.06,.76,0,1.29,3.16,.59,3.2,2.54,0,.9-.79,1.57-1.99,1.57Z"/><path class="l" d="M133.46,113.45c1.01,0,1.71,.52,2.03,1.08v-.99h.92v5.45h-.92v-1.01c-.33,.59-1.03,1.1-2.04,1.1-1.45,0-2.58-1.14-2.58-2.83s1.12-2.8,2.59-2.8Zm.18,.79c-.99,0-1.84,.73-1.84,2.01s.85,2.04,1.84,2.04,1.85-.75,1.85-2.03-.86-2.02-1.85-2.02Zm-.29-2.33c.53,0,.73,.46,1.13,.46,.22,0,.4-.14,.44-.43h.52c-.08,.68-.48,1.03-.99,1.03s-.74-.46-1.13-.46c-.22,0-.39,.14-.43,.44h-.53c.1-.69,.48-1.04,1-1.04Z"/><path class="l" d="M140.31,119.08c-1.54,0-2.72-1.09-2.72-2.83s1.21-2.81,2.76-2.81,2.76,1.08,2.76,2.81-1.24,2.83-2.8,2.83Zm0-.8c.95,0,1.87-.65,1.87-2.03s-.91-2.02-1.84-2.02-1.82,.65-1.82,2.02,.85,2.03,1.79,2.03Z"/></g><rect class="s" x="75.46" y="290.3" width="205.27" height="38.36" rx="19.18" ry="19.18"/><g><path class="l" d="M85.44,306.96h-1.08c-.38-.81-1.13-1.27-2.11-1.27-1.46,0-2.56,1.05-2.56,2.73s1.09,2.72,2.56,2.72c1.36,0,2.3-.88,2.44-2.25h-2.77v-.74h3.73v.7c-.16,1.72-1.52,3.1-3.4,3.1s-3.48-1.45-3.48-3.53,1.53-3.54,3.48-3.54c1.46,0,2.68,.76,3.19,2.09Z"/><path class="l" d="M89.2,311.97c-1.55,0-2.7-1.09-2.7-2.83s1.1-2.81,2.7-2.81,2.62,1.11,2.62,2.61c0,.2,0,.36-.03,.55h-4.36c.07,1.1,.85,1.71,1.77,1.71,.82,0,1.33-.42,1.53-1h.98c-.28,1-1.15,1.77-2.51,1.77Zm-1.76-3.21h3.44c0-1.06-.79-1.65-1.72-1.65-.89,0-1.62,.59-1.72,1.65Z"/><path class="l" d="M93.91,311.89h-.91v-5.45h.91v.89c.31-.61,.9-.99,1.76-.99v.94h-.24c-.87,0-1.52,.39-1.52,1.65v2.96Z"/><path class="l" d="M98.96,306.34c1.01,0,1.71,.52,2.03,1.08v-1h.92v5.45h-.92v-1.01c-.33,.59-1.03,1.1-2.04,1.1-1.45,0-2.58-1.14-2.58-2.83s1.12-2.8,2.59-2.8Zm.18,.79c-.99,0-1.84,.73-1.84,2.01s.85,2.04,1.84,2.04,1.85-.75,1.85-2.03-.86-2.02-1.85-2.02Z"/><path class="l" d="M105.76,306.34c1.35,0,2.24,.7,2.52,1.84h-.98c-.19-.66-.74-1.07-1.54-1.07-.99,0-1.73,.71-1.73,2.04s.74,2.06,1.73,2.06c.81,0,1.34-.39,1.54-1.07h.98c-.26,1-1.04,1.73-2.24,1.83v.5c.77-.01,1.28,.33,1.28,.98s-.51,1.02-1.21,1.02h-1.14v-.59h.97c.43,0,.64-.12,.64-.44s-.21-.43-.64-.43h-.5v-1.06c-1.37-.14-2.33-1.2-2.33-2.81,0-1.71,1.1-2.81,2.66-2.81Z"/><path class="l" d="M111.72,306.34c1.01,0,1.71,.52,2.03,1.08v-1h.92v5.45h-.92v-1.01c-.33,.59-1.03,1.1-2.04,1.1-1.45,0-2.58-1.14-2.58-2.83s1.12-2.8,2.59-2.8Zm.18,.79c-.99,0-1.84,.73-1.84,2.01s.85,2.04,1.84,2.04,1.85-.75,1.85-2.03-.86-2.02-1.85-2.02Zm-.29-2.33c.53,0,.73,.46,1.13,.46,.22,0,.4-.14,.44-.43h.52c-.08,.68-.48,1.03-.99,1.03s-.74-.46-1.13-.46c-.22,0-.39,.14-.43,.44h-.53c.1-.69,.48-1.04,.99-1.04Z"/><path class="l" d="M118.57,311.97c-1.54,0-2.72-1.09-2.72-2.83s1.21-2.81,2.76-2.81,2.76,1.08,2.76,2.81-1.24,2.83-2.8,2.83Zm0-.8c.95,0,1.87-.65,1.87-2.03s-.91-2.02-1.84-2.02-1.82,.65-1.82,2.02,.85,2.03,1.79,2.03Z"/><path class="l" d="M127.47,306.34c.86,0,1.64,.44,2.02,1.06v-2.88h.92v7.36h-.92v-1.03c-.33,.61-1.03,1.11-2.03,1.11-1.46,0-2.59-1.14-2.59-2.83s1.12-2.8,2.6-2.8Zm.17,.79c-.99,0-1.84,.73-1.84,2.01s.85,2.04,1.84,2.04,1.85-.75,1.85-2.03-.86-2.02-1.85-2.02Z"/><path class="l" d="M134.29,311.97c-1.55,0-2.7-1.09-2.7-2.83s1.1-2.81,2.7-2.81,2.62,1.11,2.62,2.61c0,.2,0,.36-.03,.55h-4.36c.07,1.1,.85,1.71,1.77,1.71,.82,0,1.33-.42,1.53-1h.97c-.28,1-1.15,1.77-2.51,1.77Zm-1.76-3.21h3.44c.01-1.06-.79-1.65-1.72-1.65-.89,0-1.62,.59-1.72,1.65Z"/><path class="l" d="M143.08,306.34c1.35,0,2.24,.7,2.52,1.84h-.98c-.19-.66-.74-1.07-1.54-1.07-.99,0-1.73,.71-1.73,2.04s.74,2.06,1.73,2.06c.81,0,1.34-.39,1.54-1.07h.98c-.28,1.08-1.16,1.84-2.52,1.84-1.55,0-2.66-1.09-2.66-2.83s1.1-2.81,2.66-2.81Z"/><path class="l" d="M149.17,311.97c-1.54,0-2.72-1.09-2.72-2.83s1.21-2.81,2.76-2.81,2.76,1.08,2.76,2.81-1.24,2.83-2.8,2.83Zm0-.8c.94,0,1.87-.65,1.87-2.03s-.91-2.02-1.84-2.02-1.82,.65-1.82,2.02,.85,2.03,1.79,2.03Z"/><path class="l" d="M157.15,308.8c0-1.11-.61-1.68-1.52-1.68s-1.56,.58-1.56,1.75v3.01h-.91v-5.45h.91v.78c.36-.57,1.01-.88,1.75-.88,1.26,0,2.23,.78,2.23,2.34v3.21h-.9v-3.08Z"/><path class="l" d="M159.52,304.52h.91v2.7c.36-.58,1.03-.89,1.8-.89,1.21,0,2.18,.78,2.18,2.34v3.21h-.9v-3.08c0-1.11-.61-1.68-1.52-1.68s-1.56,.58-1.56,1.75v3.01h-.91v-7.36Z"/><path class="l" d="M168.24,311.97c-1.55,0-2.7-1.09-2.7-2.83s1.1-2.81,2.7-2.81,2.62,1.11,2.62,2.61c0,.2,0,.36-.03,.55h-4.36c.07,1.1,.85,1.71,1.77,1.71,.82,0,1.33-.42,1.53-1h.97c-.28,1-1.15,1.77-2.51,1.77Zm-1.76-3.21h3.44c.01-1.06-.79-1.65-1.72-1.65-.89,0-1.62,.59-1.72,1.65Z"/><path class="l" d="M174.37,306.34c1.35,0,2.24,.7,2.52,1.84h-.98c-.19-.66-.74-1.07-1.54-1.07-.99,0-1.73,.71-1.73,2.04s.74,2.06,1.73,2.06c.81,0,1.34-.39,1.54-1.07h.98c-.28,1.08-1.16,1.84-2.52,1.84-1.55,0-2.66-1.09-2.66-2.83s1.1-2.81,2.66-2.81Z"/><path class="l" d="M177.94,304.93c0-.35,.27-.62,.62-.62,.33,0,.6,.27,.6,.62s-.27,.62-.6,.62c-.35,0-.62-.27-.62-.62Zm.15,1.5h.91v5.45h-.91v-5.45Z"/><path class="l" d="M188.4,308.8c0-1.11-.6-1.68-1.49-1.68s-1.54,.59-1.54,1.76v3h-.9v-3.08c0-1.11-.6-1.68-1.49-1.68s-1.54,.59-1.54,1.76v3h-.91v-5.45h.91v.79c.36-.58,1-.89,1.72-.89,.9,0,1.64,.4,2,1.21,.32-.79,1.09-1.21,1.93-1.21,1.24,0,2.21,.78,2.21,2.34v3.21h-.9v-3.08Z"/><path class="l" d="M193.13,311.97c-1.55,0-2.7-1.09-2.7-2.83s1.1-2.81,2.7-2.81,2.62,1.11,2.62,2.61c0,.2,0,.36-.03,.55h-4.36c.07,1.1,.85,1.71,1.77,1.71,.82,0,1.33-.42,1.53-1h.97c-.28,1-1.15,1.77-2.51,1.77Zm-1.76-3.21h3.44c0-1.06-.79-1.65-1.72-1.65-.89,0-1.62,.59-1.72,1.65Z"/><path class="l" d="M200.93,308.8c0-1.11-.61-1.68-1.52-1.68s-1.56,.58-1.56,1.75v3.01h-.91v-5.45h.91v.78c.36-.57,1.01-.88,1.75-.88,1.26,0,2.23,.78,2.23,2.34v3.21h-.89v-3.08Z"/><path class="l" d="M203.5,307.18h-.71v-.75h.71v-1.37h.91v1.37h1.42v.75h-1.42v3.21c0,.54,.2,.73,.76,.73h.67v.77h-.82c-.96,0-1.51-.4-1.51-1.49v-3.21Z"/><path class="l" d="M209.3,311.97c-1.54,0-2.72-1.09-2.72-2.83s1.21-2.81,2.76-2.81,2.76,1.08,2.76,2.81-1.24,2.83-2.8,2.83Zm0-.8c.95,0,1.87-.65,1.87-2.03s-.91-2.02-1.84-2.02-1.82,.65-1.82,2.02,.85,2.03,1.79,2.03Z"/><path class="l" d="M218.3,311.97c-1.55,0-2.7-1.09-2.7-2.83s1.1-2.81,2.7-2.81,2.62,1.11,2.62,2.61c0,.2,0,.36-.03,.55h-4.36c.07,1.1,.85,1.71,1.77,1.71,.82,0,1.33-.42,1.53-1h.97c-.28,1-1.15,1.77-2.51,1.77Zm-1.76-3.21h3.44c0-1.06-.79-1.65-1.72-1.65-.89,0-1.62,.59-1.72,1.65Z"/><path class="l" d="M227.12,311.97c-1.55,0-2.7-1.09-2.7-2.83s1.1-2.81,2.7-2.81,2.62,1.11,2.62,2.61c0,.2,0,.36-.03,.55h-4.36c.07,1.1,.84,1.71,1.77,1.71,.82,0,1.33-.42,1.53-1h.97c-.28,1-1.15,1.77-2.51,1.77Zm-1.76-3.21h3.44c0-1.06-.79-1.65-1.72-1.65-.89,0-1.62,.59-1.72,1.65Z"/><path class="l" d="M231.26,306.43l1.7,4.62,1.69-4.62h.96l-2.14,5.45h-1.05l-2.14-5.45h.98Z"/><path class="l" d="M236.36,304.93c0-.35,.27-.62,.62-.62,.33,0,.6,.27,.6,.62s-.27,.62-.6,.62c-.35,0-.62-.27-.62-.62Zm.15,1.5h.91v5.45h-.91v-5.45Z"/><path class="l" d="M241.21,306.34c.86,0,1.64,.44,2.02,1.06v-2.88h.92v7.36h-.92v-1.03c-.33,.61-1.03,1.11-2.03,1.11-1.46,0-2.59-1.14-2.59-2.83s1.12-2.8,2.6-2.8Zm.17,.79c-1,0-1.84,.73-1.84,2.01s.85,2.04,1.84,2.04,1.85-.75,1.85-2.03-.86-2.02-1.85-2.02Z"/><path class="l" d="M248.03,311.97c-1.55,0-2.7-1.09-2.7-2.83s1.1-2.81,2.7-2.81,2.62,1.11,2.62,2.61c0,.2,0,.36-.03,.55h-4.36c.07,1.1,.84,1.71,1.77,1.71,.82,0,1.33-.42,1.53-1h.97c-.28,1-1.15,1.77-2.51,1.77Zm-1.76-3.21h3.44c0-1.06-.79-1.65-1.72-1.65-.89,0-1.62,.59-1.72,1.65Zm3.1-2.82l-1.37-.85-1.38,.85v-.72l1.38-.83,1.37,.83v.72Z"/><path class="l" d="M255.83,308.8c0-1.11-.61-1.68-1.52-1.68s-1.56,.58-1.56,1.75v3.01h-.91v-5.45h.91v.78c.36-.57,1.02-.88,1.75-.88,1.26,0,2.23,.78,2.23,2.34v3.21h-.9v-3.08Z"/><path class="l" d="M260.52,306.34c1.35,0,2.24,.7,2.52,1.84h-.98c-.19-.66-.74-1.07-1.54-1.07-1,0-1.73,.71-1.73,2.04s.74,2.06,1.73,2.06c.81,0,1.34-.39,1.54-1.07h.98c-.28,1.08-1.16,1.84-2.52,1.84-1.55,0-2.66-1.09-2.66-2.83s1.1-2.81,2.66-2.81Z"/><path class="l" d="M264.09,304.93c0-.35,.27-.62,.62-.62,.33,0,.6,.27,.6,.62s-.27,.62-.6,.62c-.35,0-.62-.27-.62-.62Zm.15,1.5h.91v5.45h-.91v-5.45Z"/><path class="l" d="M268.93,306.34c1.01,0,1.71,.52,2.03,1.08v-1h.92v5.45h-.92v-1.01c-.33,.59-1.03,1.1-2.04,1.1-1.45,0-2.58-1.14-2.58-2.83s1.12-2.8,2.59-2.8Zm.18,.79c-1,0-1.84,.73-1.84,2.01s.85,2.04,1.84,2.04,1.85-.75,1.85-2.03-.86-2.02-1.85-2.02Z"/><path class="l" d="M275.34,311.97c-1.27,0-2.17-.7-2.23-1.69h.93c.05,.53,.52,.92,1.28,.92,.72,0,1.11-.36,1.11-.81,0-1.21-3.22-.51-3.22-2.54,0-.84,.79-1.52,2-1.52s2,.65,2.06,1.71h-.91c-.04-.55-.46-.95-1.18-.95-.67,0-1.06,.32-1.06,.76,0,1.29,3.16,.59,3.2,2.54,0,.9-.79,1.57-1.99,1.57Z"/></g><rect class="s" x="462.46" y="293.3" width="205.27" height="38.36" rx="19.18" ry="19.18"/><g><path class="l" d="M478.34,311.99h-1.33v2.9h-.91v-6.93h2.24c1.63,0,2.4,.9,2.4,2.03,0,1.05-.68,2.01-2.4,2.01Zm0-.75c1.04,0,1.47-.49,1.47-1.26s-.44-1.28-1.47-1.28h-1.33v2.55h1.33Z"/><path class="l" d="M482.77,314.89h-.91v-5.45h.91v.89c.31-.61,.9-.99,1.76-.99v.94h-.24c-.87,0-1.52,.39-1.52,1.65v2.96Z"/><path class="l" d="M487.93,314.97c-1.55,0-2.7-1.09-2.7-2.83s1.1-2.81,2.7-2.81,2.62,1.11,2.62,2.61c0,.2,0,.36-.03,.55h-4.36c.07,1.1,.85,1.71,1.77,1.71,.82,0,1.33-.42,1.53-1h.97c-.28,1-1.15,1.77-2.51,1.77Zm-1.76-3.21h3.44c0-1.06-.79-1.65-1.72-1.65-.88,0-1.62,.59-1.72,1.65Z"/><path class="l" d="M493.67,314.97c-1.27,0-2.17-.7-2.23-1.69h.94c.05,.53,.52,.92,1.28,.92,.72,0,1.11-.36,1.11-.81,0-1.21-3.22-.51-3.22-2.54,0-.84,.79-1.52,2-1.52s2,.65,2.06,1.71h-.91c-.04-.55-.46-.95-1.18-.95-.67,0-1.06,.32-1.06,.76,0,1.29,3.16,.59,3.2,2.54,0,.9-.79,1.57-1.99,1.57Z"/><path class="l" d="M497.13,310.18h-.71v-.75h.71v-1.37h.91v1.37h1.42v.75h-1.42v3.21c0,.54,.2,.73,.76,.73h.67v.77h-.82c-.96,0-1.51-.4-1.51-1.49v-3.21Z"/><path class="l" d="M502.8,309.34c1.01,0,1.71,.52,2.03,1.08v-1h.92v5.45h-.92v-1.01c-.33,.59-1.03,1.1-2.04,1.1-1.45,0-2.58-1.14-2.58-2.83s1.12-2.8,2.59-2.8Zm.18,.79c-.99,0-1.84,.73-1.84,2.01s.85,2.04,1.84,2.04,1.85-.75,1.85-2.03-.86-2.02-1.85-2.02Z"/><path class="l" d="M509.59,309.34c1.35,0,2.24,.7,2.52,1.84h-.98c-.19-.66-.74-1.07-1.54-1.07-.99,0-1.73,.71-1.73,2.04s.74,2.06,1.73,2.06c.81,0,1.34-.39,1.54-1.07h.98c-.26,1-1.04,1.73-2.24,1.83v.5c.77-.01,1.28,.33,1.28,.98s-.51,1.02-1.21,1.02h-1.14v-.59h.97c.43,0,.64-.12,.64-.44s-.21-.43-.64-.43h-.5v-1.06c-1.37-.14-2.33-1.2-2.33-2.81,0-1.71,1.1-2.81,2.66-2.81Z"/><path class="l" d="M515.55,309.34c1.01,0,1.71,.52,2.03,1.08v-1h.92v5.45h-.92v-1.01c-.33,.59-1.03,1.1-2.04,1.1-1.45,0-2.58-1.14-2.58-2.83s1.12-2.8,2.59-2.8Zm.18,.79c-.99,0-1.84,.73-1.84,2.01s.85,2.04,1.84,2.04,1.85-.75,1.85-2.03-.86-2.02-1.85-2.02Zm-.29-2.33c.53,0,.73,.46,1.13,.46,.22,0,.4-.14,.44-.43h.52c-.08,.68-.48,1.03-.99,1.03s-.74-.46-1.13-.46c-.22,0-.39,.14-.43,.44h-.53c.1-.69,.48-1.04,1-1.04Z"/><path class="l" d="M522.4,314.97c-1.54,0-2.72-1.09-2.72-2.83s1.21-2.81,2.76-2.81,2.76,1.08,2.76,2.81-1.24,2.83-2.8,2.83Zm0-.8c.95,0,1.87-.65,1.87-2.03s-.91-2.02-1.84-2.02-1.82,.65-1.82,2.02,.85,2.03,1.79,2.03Z"/><path class="l" d="M531.3,309.34c.86,0,1.64,.44,2.02,1.06v-2.88h.92v7.36h-.92v-1.03c-.33,.61-1.03,1.11-2.03,1.11-1.46,0-2.59-1.14-2.59-2.83s1.12-2.8,2.6-2.8Zm.17,.79c-.99,0-1.84,.73-1.84,2.01s.85,2.04,1.84,2.04,1.85-.75,1.85-2.03-.86-2.02-1.85-2.02Z"/><path class="l" d="M538.13,314.97c-1.55,0-2.7-1.09-2.7-2.83s1.1-2.81,2.7-2.81,2.62,1.11,2.62,2.61c0,.2,0,.36-.03,.55h-4.36c.07,1.1,.85,1.71,1.77,1.71,.82,0,1.33-.42,1.53-1h.97c-.28,1-1.15,1.77-2.51,1.77Zm-1.76-3.21h3.44c0-1.06-.79-1.65-1.72-1.65-.88,0-1.62,.59-1.72,1.65Z"/><path class="l" d="M546.91,309.34c1.35,0,2.24,.7,2.52,1.84h-.98c-.19-.66-.74-1.07-1.54-1.07-.99,0-1.73,.71-1.73,2.04s.74,2.06,1.73,2.06c.81,0,1.34-.39,1.54-1.07h.98c-.28,1.08-1.16,1.84-2.52,1.84-1.55,0-2.66-1.09-2.66-2.83s1.1-2.81,2.66-2.81Z"/><path class="l" d="M553,314.97c-1.54,0-2.72-1.09-2.72-2.83s1.21-2.81,2.76-2.81,2.76,1.08,2.76,2.81-1.24,2.83-2.8,2.83Zm0-.8c.95,0,1.87-.65,1.87-2.03s-.91-2.02-1.84-2.02-1.82,.65-1.82,2.02,.85,2.03,1.79,2.03Z"/><path class="l" d="M560.98,311.8c0-1.11-.61-1.68-1.52-1.68s-1.56,.58-1.56,1.75v3.01h-.91v-5.45h.91v.78c.36-.57,1.01-.88,1.75-.88,1.26,0,2.23,.78,2.23,2.34v3.21h-.9v-3.08Z"/><path class="l" d="M563.55,310.18h-.71v-.75h.71v-1.37h.91v1.37h1.42v.75h-1.42v3.21c0,.54,.2,.73,.76,.73h.67v.77h-.82c-.96,0-1.51-.4-1.51-1.49v-3.21Z"/><path class="l" d="M569.22,309.34c1.01,0,1.71,.52,2.03,1.08v-1h.92v5.45h-.92v-1.01c-.33,.59-1.03,1.1-2.04,1.1-1.45,0-2.58-1.14-2.58-2.83s1.12-2.8,2.59-2.8Zm.18,.79c-.99,0-1.84,.73-1.84,2.01s.85,2.04,1.84,2.04,1.85-.75,1.85-2.03-.86-2.02-1.85-2.02Z"/><path class="l" d="M575.62,314.97c-1.27,0-2.17-.7-2.23-1.69h.94c.05,.53,.52,.92,1.28,.92,.72,0,1.11-.36,1.11-.81,0-1.21-3.22-.51-3.22-2.54,0-.84,.79-1.52,2-1.52s2,.65,2.06,1.71h-.9c-.04-.55-.46-.95-1.18-.95-.67,0-1.06,.32-1.06,.76,0,1.29,3.16,.59,3.2,2.54,0,.9-.79,1.57-1.99,1.57Z"/><path class="l" d="M583.9,314.97c-1.55,0-2.7-1.09-2.7-2.83s1.1-2.81,2.7-2.81,2.62,1.11,2.62,2.61c0,.2,0,.36-.03,.55h-4.36c.07,1.1,.84,1.71,1.77,1.71,.82,0,1.33-.42,1.53-1h.97c-.28,1-1.15,1.77-2.51,1.77Zm-1.76-3.21h3.44c0-1.06-.79-1.65-1.72-1.65-.89,0-1.62,.59-1.72,1.65Z"/><path class="l" d="M592.61,309.34c1.01,0,1.71,.52,2.03,1.08v-1h.92v5.45h-.92v-1.01c-.33,.59-1.03,1.1-2.04,1.1-1.45,0-2.58-1.14-2.58-2.83s1.12-2.8,2.59-2.8Zm.18,.79c-1,0-1.84,.73-1.84,2.01s.84,2.04,1.84,2.04,1.85-.75,1.85-2.03-.86-2.02-1.85-2.02Z"/><path class="l" d="M599.4,309.34c1.35,0,2.24,.7,2.52,1.84h-.98c-.19-.66-.74-1.07-1.54-1.07-1,0-1.73,.71-1.73,2.04s.74,2.06,1.73,2.06c.81,0,1.34-.39,1.54-1.07h.98c-.28,1.08-1.16,1.84-2.52,1.84-1.55,0-2.66-1.09-2.66-2.83s1.1-2.81,2.66-2.81Z"/><path class="l" d="M605.43,309.34c1.35,0,2.24,.7,2.52,1.84h-.98c-.19-.66-.74-1.07-1.54-1.07-1,0-1.73,.71-1.73,2.04s.74,2.06,1.73,2.06c.81,0,1.34-.39,1.54-1.07h.98c-.28,1.08-1.16,1.84-2.52,1.84-1.55,0-2.66-1.09-2.66-2.83s1.1-2.81,2.66-2.81Z"/><path class="l" d="M611.53,314.97c-1.54,0-2.72-1.09-2.72-2.83s1.21-2.81,2.76-2.81,2.76,1.08,2.76,2.81-1.24,2.83-2.8,2.83Zm0-.8c.95,0,1.87-.65,1.87-2.03s-.91-2.02-1.84-2.02-1.82,.65-1.82,2.02,.85,2.03,1.79,2.03Z"/><path class="l" d="M620.35,314.89h-.91v-.81c-.35,.57-1.01,.88-1.74,.88-1.25,0-2.24-.78-2.24-2.34v-3.19h.89v3.07c0,1.1,.61,1.67,1.52,1.67s1.56-.58,1.56-1.75v-2.99h.91v5.45Z"/><path class="l" d="M625.87,311.8c0-1.11-.61-1.68-1.52-1.68s-1.56,.58-1.56,1.75v3.01h-.91v-5.45h.91v.78c.36-.57,1.01-.88,1.75-.88,1.26,0,2.23,.78,2.23,2.34v3.21h-.89v-3.08Z"/><path class="l" d="M628.44,310.18h-.71v-.75h.71v-1.37h.91v1.37h1.42v.75h-1.42v3.21c0,.54,.2,.73,.76,.73h.67v.77h-.82c-.96,0-1.51-.4-1.51-1.49v-3.21Z"/><path class="l" d="M634.11,309.34c1.01,0,1.71,.52,2.03,1.08v-1h.92v5.45h-.92v-1.01c-.33,.59-1.03,1.1-2.04,1.1-1.45,0-2.58-1.14-2.58-2.83s1.12-2.8,2.59-2.8Zm.18,.79c-1,0-1.84,.73-1.84,2.01s.84,2.04,1.84,2.04,1.85-.75,1.85-2.03-.86-2.02-1.85-2.02Z"/><path class="l" d="M641.53,309.34c1.47,0,2.59,1.09,2.59,2.8s-1.12,2.83-2.59,2.83c-1,0-1.7-.5-2.04-1.09v1h-.91v-7.36h.91v2.92c.35-.61,1.08-1.1,2.04-1.1Zm-.19,.79c-.98,0-1.85,.76-1.85,2.02s.87,2.03,1.85,2.03,1.85-.76,1.85-2.04-.85-2.01-1.85-2.01Z"/><path class="l" d="M645.16,307.93c0-.35,.27-.62,.62-.62,.33,0,.6,.27,.6,.62s-.27,.62-.6,.62c-.35,0-.62-.27-.62-.62Zm.15,1.5h.91v5.45h-.91v-5.45Z"/><path class="l" d="M647.75,307.52h.91v7.36h-.91v-7.36Z"/><path class="l" d="M650.05,307.93c0-.35,.27-.62,.62-.62,.33,0,.6,.27,.6,.62s-.27,.62-.6,.62c-.35,0-.62-.27-.62-.62Zm.15,1.5h.91v5.45h-.91v-5.45Z"/><path class="l" d="M652.85,310.18h-.71v-.75h.71v-1.37h.91v1.37h1.42v.75h-1.42v3.21c0,.54,.2,.73,.76,.73h.67v.77h-.82c-.96,0-1.51-.4-1.51-1.49v-3.21Z"/><path class="l" d="M660.03,309.43h.94l-3.28,8.02h-.94l1.08-2.63-2.2-5.39h1l1.71,4.42,1.69-4.42Z"/></g><g><rect class="p" x="269.36" y="187.32" width="205.27" height="38.36" rx="19.18" ry="19.18"/><g><path class="l" d="M311.31,207.8c-1.98,0-3.59-1.48-3.59-3.58s1.61-3.57,3.59-3.57,3.57,1.47,3.57,3.57-1.59,3.58-3.57,3.58Zm0-1.55c1.11,0,1.84-.81,1.84-2.03s-.73-2.03-1.84-2.03-1.85,.79-1.85,2.03,.72,2.03,1.85,2.03Z"/><path class="l" d="M319.08,207.73h-3.25v-6.98h3.14c1.42,0,2.27,.71,2.27,1.81,0,.85-.51,1.39-1.18,1.59,.82,.17,1.34,.88,1.34,1.68,0,1.15-.85,1.9-2.32,1.9Zm-.44-5.62h-1.11v1.46h1.11c.56,0,.87-.25,.87-.73s-.31-.74-.87-.74Zm.12,2.71h-1.23v1.54h1.25c.57,0,.9-.26,.9-.76s-.35-.79-.92-.79Z"/><path class="l" d="M325.06,200.74h1.7v4.75c0,1.5-.92,2.3-2.3,2.3s-2.44-.84-2.44-2.41h1.69c0,.6,.26,.89,.7,.89,.41,0,.65-.26,.65-.78v-4.75Z"/><path class="l" d="M332.41,202.1h-2.58v1.41h2.28v1.31h-2.28v1.53h2.58v1.36h-4.28v-6.98h4.28v1.36Z"/><path class="l" d="M333.13,200.74h5.4v1.36h-1.85v5.62h-1.7v-5.62h-1.85v-1.36Z"/><path class="l" d="M339.38,200.74h1.7v6.98h-1.7v-6.98Z"/><path class="l" d="M347.07,200.74h1.8l-2.48,6.98h-2.13l-2.48-6.98h1.81l1.73,5.27,1.74-5.27Z"/><path class="l" d="M352.88,207.8c-1.98,0-3.59-1.48-3.59-3.58s1.61-3.57,3.59-3.57,3.57,1.47,3.57,3.57-1.59,3.58-3.57,3.58Zm0-1.55c1.11,0,1.84-.81,1.84-2.03s-.73-2.03-1.84-2.03-1.85,.79-1.85,2.03,.72,2.03,1.85,2.03Z"/><path class="l" d="M359.92,207.8c-1.5,0-2.68-.75-2.73-2.16h1.81c.05,.54,.39,.8,.87,.8s.82-.25,.82-.66c0-1.29-3.49-.6-3.47-3.07,0-1.32,1.08-2.06,2.55-2.06s2.55,.76,2.62,2.09h-1.84c-.03-.45-.35-.72-.81-.73-.41,0-.72,.2-.72,.64,0,1.21,3.45,.67,3.45,3,0,1.17-.92,2.15-2.55,2.15Z"/><path class="l" d="M371.89,204.23c0,2.07-1.43,3.49-3.66,3.49h-2.62v-6.98h2.62c2.23,0,3.66,1.41,3.66,3.49Zm-3.77,2.02c1.28,0,2.04-.74,2.04-2.02s-.76-2.04-2.04-2.04h-.81v4.06h.81Z"/><path class="l" d="M376.15,207.8c-1.98,0-3.59-1.48-3.59-3.58s1.61-3.57,3.59-3.57,3.57,1.47,3.57,3.57-1.59,3.58-3.57,3.58Zm0-1.55c1.11,0,1.84-.81,1.84-2.03s-.73-2.03-1.84-2.03-1.85,.79-1.85,2.03,.72,2.03,1.85,2.03Z"/><path class="l" d="M382.77,200.74h2.01l1.96,4.83,1.94-4.83h2v6.98h-1.7v-4.19l-1.56,4.19h-1.37l-1.57-4.2v4.2h-1.7v-6.98Z"/><path class="l" d="M395.25,202.43c0-.38-.22-.56-.52-.56-.32,0-.56,.2-.56,.5s.19,.58,.56,.97l1.7,1.66c.04-.09,.09-.18,.13-.28l.37-.63h1.7l-.48,.87c-.19,.42-.4,.79-.62,1.11l1.68,1.65h-1.98l-.65-.63c-.64,.49-1.39,.74-2.31,.74-1.62,0-2.65-.85-2.65-2.14,0-.86,.46-1.6,1.42-2.06-.36-.43-.49-.81-.49-1.25,0-.98,.79-1.78,2.18-1.78s2.13,.87,2.1,1.83h-1.6Zm.3,3.65l-1.55-1.5c-.48,.25-.72,.6-.72,1,0,.49,.41,.88,1.08,.88,.46,0,.85-.13,1.18-.38Z"/><path class="l" d="M404.18,206.49h-2.61l-.42,1.23h-1.78l2.53-6.98h1.97l2.53,6.98h-1.8l-.42-1.23Zm-1.3-3.87l-.86,2.56h1.72l-.87-2.56Z"/><path class="l" d="M415.52,200.74v6.98h-1.7l-2.84-4.31v4.31h-1.7v-6.98h1.7l2.84,4.33v-4.33h1.7Z"/><path class="l" d="M421.1,206.49h-2.61l-.42,1.23h-1.78l2.53-6.98h1.97l2.53,6.98h-1.8l-.42-1.23Zm-1.3-3.87l-.86,2.56h1.72l-.87-2.56Z"/><path class="l" d="M430.53,206.49h-2.61l-.42,1.23h-1.78l2.53-6.98h1.97l2.53,6.98h-1.8l-.42-1.23Zm-1.3-3.87l-.86,2.56h1.72l-.87-2.56Z"/><path class="l" d="M436.27,205.22h-1.05v2.51h-1.7v-6.98h2.76c1.71,0,2.57,.96,2.57,2.25,0,1.15-.79,2.23-2.57,2.23Zm-.13-1.35c.68,0,.96-.34,.96-.88s-.29-.88-.96-.88h-.92v1.75h.92Z"/><path class="l" d="M442.24,207.8c-1.5,0-2.68-.75-2.73-2.16h1.81c.05,.54,.39,.8,.87,.8s.82-.25,.82-.66c0-1.29-3.49-.6-3.47-3.07,0-1.32,1.08-2.06,2.55-2.06s2.55,.76,2.62,2.09h-1.84c-.03-.45-.35-.72-.81-.73-.41,0-.72,.2-.72,.64,0,1.21,3.45,.67,3.45,3,0,1.17-.92,2.15-2.55,2.15Z"/></g></g><g id="b"><path class="o" d="M371.99,79.11l-5.19,5.19c-.38,.38-.99,.38-1.37,0h0c-.38-.39-.38-1.01,0-1.4l5.87-5.88c.37-.37,.96-.38,1.35-.03l5.92,5.91c.39,.38,.39,1,0,1.39-.38,.39-1,.39-1.39,0h0l-5.19-5.19h0Z"/></g><g id="c"><path class="o" d="M372.01,312.23l5.19-5.19c.38-.38,.99-.38,1.37,0h0c.38,.39,.38,1.01,0,1.4l-5.87,5.88c-.37,.37-.96,.38-1.35,.03l-5.92-5.91c-.39-.38-.39-1,0-1.39,.38-.39,1-.39,1.39,0h0l5.19,5.19h0Z"/></g><g id="d"><path class="o" d="M440.96,109.24l-7.16-1.61c-.52-.12-.85-.63-.74-1.16h0c.12-.54,.65-.87,1.18-.75l8.11,1.83c.51,.12,.84,.61,.75,1.13l-1.84,8.16c-.12,.53-.64,.86-1.17,.75-.53-.12-.86-.64-.75-1.17h0l1.61-7.17h0Z"/></g><g id="e"><path class="o" d="M303.04,294.21l7.16,1.61c.52,.12,.85,.63,.74,1.16h0c-.12,.54-.65,.87-1.18,.75l-8.11-1.83c-.51-.12-.84-.61-.75-1.13l1.84-8.16c.12-.53,.64-.86,1.17-.75,.53,.12,.86,.64,.75,1.17h0l-1.61,7.17h0Z"/></g><g id="f"><path class="o" d="M303.02,109.28l7.12-1.59c.52-.11,.85-.62,.73-1.14h0c-.12-.53-.64-.86-1.17-.74l-8.06,1.8c-.51,.11-.83,.6-.74,1.11l1.82,8.04c.12,.52,.64,.85,1.16,.74,.53-.12,.86-.63,.74-1.15h0l-1.6-7.06h0Z"/></g><g id="g"><path class="o" d="M480.96,168.41l-7.16-1.61c-.52-.12-.85-.63-.74-1.16h0c.12-.54,.65-.87,1.18-.75l8.11,1.83c.51,.12,.84,.61,.75,1.13l-1.84,8.16c-.12,.53-.64,.86-1.17,.75-.53-.12-.86-.64-.75-1.17h0l1.61-7.17h0Z"/></g><g id="h"><path class="o" d="M263.02,168.44l7.12-1.59c.52-.11,.85-.62,.73-1.14h0c-.12-.53-.64-.86-1.17-.74l-8.06,1.8c-.51,.11-.83,.6-.74,1.11l1.82,8.04c.12,.52,.64,.85,1.16,.74,.53-.12,.86-.63,.74-1.15h0l-1.6-7.06h0Z"/></g><g id="i"><path class="o" d="M480.96,249.92l-7.16,1.61c-.52,.12-.85,.63-.74,1.16h0c.12,.54,.65,.87,1.18,.75l8.11-1.83c.51-.12,.84-.61,.75-1.13l-1.84-8.16c-.12-.53-.64-.86-1.17-.75-.53,.12-.86,.64-.75,1.17h0l1.61,7.17h0Z"/></g><g id="j"><path class="o" d="M263.02,249.88l7.12,1.59c.52,.11,.85,.62,.73,1.14h0c-.12,.53-.64,.86-1.17,.74l-8.06-1.8c-.51-.11-.83-.6-.74-1.11l1.82-8.04c.12-.52,.64-.85,1.16-.74,.53,.12,.86,.63,.74,1.15h0l-1.6,7.06h0Z"/></g><g id="k"><path class="o" d="M440.13,294.26l-7.12,1.59c-.52,.11-.85,.62-.73,1.14h0c.12,.53,.64,.86,1.17,.74l8.06-1.8c.51-.11,.83-.6,.74-1.11l-1.82-8.04c-.12-.52-.64-.85-1.16-.74-.53,.12-.86,.63-.74,1.15h0l1.6,7.06h0Z"/></g></svg>